<svg width="138" height="32" viewBox="0 0 138 32" fill="none" xmlns="http://www.w3.org/2000/svg">
<path d="M32 0H0V32H32V0Z" fill="url(#paint0_linear_2052_7726)"/>
<path d="M10.7831 30.401C10.5781 30.401 10.3731 30.3805 10.1681 30.3395C9.96307 30.319 9.73758 30.2985 9.53258 30.278C9.20458 30.2575 9.04059 30.196 8.97909 30.073C8.95859 30.0115 8.95859 29.9295 8.99959 29.868C9.24558 29.0685 9.43008 24.2716 9.36858 23.8821C9.18408 24.0051 8.73309 24.2306 7.48261 23.9641C5.67864 23.5746 5.35065 21.7501 5.30965 21.4426C3.03418 19.9462 4.01817 17.7117 4.26416 17.2197C3.03418 16.7277 3.34168 15.2927 3.40318 15.0877C3.13668 13.8578 3.69017 13.3658 3.87467 13.2428C3.83367 12.6483 4.10016 12.0538 4.59216 11.7053C4.40766 10.2908 5.30965 9.77833 5.53514 9.67583C5.82214 8.56885 6.19113 8.15886 6.45763 8.01536C6.56013 7.95386 6.66262 7.93336 6.76512 7.93336C6.94962 6.99038 7.76961 6.33438 8.73309 6.31389C8.99959 5.6579 9.63508 5.2069 10.3526 5.2274C10.7216 4.71491 11.2956 4.57141 11.849 4.44841C11.9925 4.40742 12.136 4.38692 12.2795 4.34592C12.4845 4.28442 12.71 4.24342 12.9355 4.26392C13.284 4.26392 13.653 4.20242 13.981 4.07942C14.6985 3.87442 15.457 3.85392 16.1745 4.05892C17.8554 3.87442 18.4089 4.26392 18.5319 4.40742C20.3769 4.20242 21.4839 4.98141 21.6684 5.1044C23.7389 5.3709 24.3538 6.33439 24.4563 6.55988C26.7318 7.09287 27.3673 9.38884 27.4493 9.73733C28.5153 10.2703 29.1098 12.7713 29.1713 12.9763C30.7087 16.0102 28.8228 17.8757 28.8023 17.8962C26.5268 20.2947 23.6159 18.7982 23.0214 18.4702C22.3859 21.1762 20.7254 21.6886 20.6434 21.7091C17.5275 22.8161 15.826 21.1762 15.4365 20.7457C14.6575 22.1191 14.0425 22.2011 13.7145 22.2626C13.5505 22.2831 13.5095 22.3036 13.489 22.3651C13.366 22.7751 13.0995 23.1441 12.751 23.3901C12.4025 23.6566 12.1155 24.2921 12.095 24.3126C10.8856 26.5676 11.1726 30.2165 11.1726 30.2575V30.2985L11.1521 30.319C11.0701 30.3805 10.9266 30.4215 10.7831 30.401ZM9.43008 23.6771C9.45058 23.6771 9.45058 23.6771 9.47108 23.6771C9.53258 23.7181 9.55308 23.7796 9.55308 23.8616C9.61458 24.3126 9.43008 29.171 9.16359 29.9295L9.14309 29.95C9.14309 29.95 9.12259 29.9705 9.12259 29.991C9.12259 30.0115 9.16359 30.073 9.51208 30.0935C9.71708 30.0935 9.94257 30.1345 10.1681 30.155C10.5166 30.196 10.8856 30.237 11.0291 30.1755C11.0086 29.7245 10.8241 26.3421 11.972 24.1896C11.9925 24.1691 12.3 23.4926 12.669 23.2056C12.997 22.9801 13.243 22.6521 13.3455 22.2626C13.407 22.0781 13.5505 22.0576 13.7145 22.0166C14.063 21.9756 14.6165 21.8936 15.375 20.4792L15.4365 20.3562L15.5185 20.4792C15.539 20.4997 17.1585 22.7136 20.6024 21.4836C20.6229 21.4836 22.2834 20.9712 22.8779 18.2652L22.8984 18.1422L23.0009 18.2242C23.0419 18.2447 26.2193 20.2947 28.6588 17.7527C28.7408 17.6707 30.4627 15.9487 28.9868 13.0378V13.0173C28.9868 12.9968 28.3513 10.3318 27.3263 9.88083L27.2853 9.86033V9.81933C27.2853 9.79883 26.7523 7.25687 24.3743 6.74438H24.3333L24.3128 6.70338C24.3128 6.70338 23.8209 5.5964 21.6274 5.3094H21.6069L21.5864 5.2889C21.5659 5.2889 20.4384 4.38692 18.5114 4.61241H18.4499V4.55091C18.4499 4.55091 18.0399 4.03842 16.195 4.24342H16.1745H16.154C15.457 4.05892 14.7395 4.05892 14.063 4.24342C13.7145 4.38692 13.3455 4.44841 12.956 4.44841C12.751 4.44841 12.546 4.46891 12.341 4.53041C12.1975 4.57141 12.0335 4.61241 11.89 4.63291C11.3366 4.75591 10.8036 4.87891 10.4756 5.3709L10.4346 5.4119H10.3731C9.69658 5.3709 9.08159 5.80139 8.87659 6.43688L8.85609 6.49838H8.79459C7.87211 6.47788 7.07262 7.13387 6.92912 8.05636L6.90862 8.15886L6.80612 8.13836C6.70362 8.11786 6.60113 8.13836 6.51913 8.19986C6.29363 8.34335 5.94514 8.71235 5.67864 9.79883L5.69914 9.83983L5.65814 9.86033C5.61714 9.88083 4.57166 10.2703 4.79715 11.7668V11.8283L4.73565 11.8693C4.24366 12.1973 3.99767 12.7508 4.05917 13.3248V13.3863L3.99767 13.4068C3.97717 13.4273 3.28018 13.7963 3.56717 15.1082V15.1287V15.1492C3.54667 15.2107 3.13668 16.6867 4.40766 17.1172L4.51016 17.1582L4.44866 17.2607C4.38716 17.3632 2.97268 19.7617 5.41214 21.3606L5.45314 21.3811V21.4221C5.45314 21.4426 5.67864 23.4311 7.50311 23.8411C8.73309 24.1076 9.12259 23.8616 9.26608 23.7591C9.34808 23.6976 9.38908 23.6771 9.43008 23.6771Z" fill="black"/>
<path d="M7.79001 23.964L7.72852 23.9025L8.815 22.5085L13.3454 21.2375L13.6529 22.1395L13.5709 22.16L13.2839 21.3605L8.856 22.5905L7.79001 23.964Z" fill="black"/>
<path d="M8.79444 22.5702L7.01097 20.4792L3.89502 19.1672L3.93602 19.0852L7.07247 20.4177L8.85594 22.5087L8.79444 22.5702Z" fill="black"/>
<path d="M10.6802 20.9096L7.0313 20.4791V20.3971L10.6187 20.8071L11.3362 18.3472L7.99478 14.7187L3.48486 14.9032L3.46436 14.8212L8.03578 14.6162L8.05628 14.6367L11.4387 18.3267V18.3472L10.6802 20.9096Z" fill="black"/>
<path d="M11.24 18.3494L7.06494 20.4048L7.10116 20.4784L11.2762 18.4229L11.24 18.3494Z" fill="black"/>
<path d="M7.05212 20.3562L6.99062 17.5682L4.26416 17.2402L4.28466 17.1582L7.07262 17.4862L7.13412 20.3357L7.05212 20.3562Z" fill="black"/>
<path d="M7.04802 17.4753L7.03613 17.5564L11.1129 18.1539L11.1248 18.0727L7.04802 17.4753Z" fill="black"/>
<path d="M7.94974 14.8545L7.10596 17.3174L7.18353 17.344L8.02731 14.8811L7.94974 14.8545Z" fill="black"/>
<path d="M5.55563 14.6983L5.47363 14.6778C5.49413 14.5753 7.13411 9.83988 7.3391 9.30688L7.4211 9.34788C6.78561 11.1519 5.57613 14.5958 5.55563 14.6983Z" fill="black"/>
<path d="M8.0769 14.4318L7.44141 9.36838L7.50291 6.84692H7.5849L7.52341 9.34788L8.1794 14.4318H8.0769Z" fill="black"/>
<path d="M8.30221 14.3089L8.22021 14.2679L10.3522 9.06095L8.81471 6.437L8.8967 6.396L10.4547 9.06095L8.30221 14.3089Z" fill="black"/>
<path d="M20.6841 16.2973L12.9968 11.4389L8.58933 14.4934L8.52783 14.4114L12.9968 11.3159L20.7251 16.2153L20.6841 16.2973Z" fill="black"/>
<path d="M13.1196 21.1351L11.1107 18.2446V18.2241L11.0697 16.2357L8.22021 14.6777L8.26121 14.5957L11.1517 16.1742L11.1927 18.2036L13.2016 21.0941L13.1196 21.1351Z" fill="black"/>
<path d="M15.8873 16.4408L11.2954 16.2973V16.2153L15.8873 16.3588L20.8278 16.0923L24.7432 14.1243L27.0802 13.4273L27.4697 9.88086H27.5517L27.1622 13.5093L24.7842 14.2063L20.8278 16.1743L15.8873 16.4408Z" fill="black"/>
<path d="M20.1715 21.6681L17.937 19.2901L11.7666 18.3266L11.7871 18.2446L17.978 19.2081V19.2286L20.233 21.6066L20.1715 21.6681Z" fill="black"/>
<path d="M10.5571 20.6636V20.5611L17.8345 19.5156L20.5815 16.3381L20.6635 16.3996L17.8755 19.5976L10.5571 20.6636Z" fill="black"/>
<path d="M22.0165 20.4791L20.848 15.9897L20.52 15.7642L20.5815 12.6482L15.4566 9.08127L10.6187 9.18376V9.08127L15.4771 8.99927L20.6635 12.5867L20.602 15.7232L20.9095 15.9282L22.0985 20.4586L22.0165 20.4791Z" fill="black"/>
<path d="M20.2744 15.8668L15.949 11.4594L15.334 8.71244L20.3564 7.81046L20.4794 7.52346L19.3314 4.55101L19.4339 4.51001L20.5819 7.52346L20.4179 7.89246L15.457 8.77394L16.031 11.4184L20.3359 15.8053L20.2744 15.8668Z" fill="black"/>
<path d="M24.0872 18.6547L23.9847 18.6342L24.5382 14.4522L23.5747 10.0448L23.6977 6.04736H23.7797L23.6567 10.0448L24.6407 14.4522V14.4727L24.0872 18.6547Z" fill="black"/>
<path d="M28.3511 17.8757L24.7432 14.4523V14.4318L26.1166 7.44141L26.1986 7.46191L24.8457 14.4113L28.4126 17.8142L28.3511 17.8757Z" fill="black"/>
<path d="M24.3743 14.1037L16.2154 11.6232L13.325 11.4592L10.3935 9.10177L7.79004 9.40927V9.32727L10.4345 9.01978L13.366 11.3772L16.2359 11.5412L24.3948 14.0217L24.3743 14.1037Z" fill="black"/>
<path d="M10.5981 8.93774L10.5161 8.87625L12.9966 6.27279L15.6205 4.01782L15.682 4.07932L13.0581 6.33429L10.5981 8.93774Z" fill="black"/>
<path d="M23.3698 9.98329L19.9258 7.72832L13.6119 6.39584L10.1475 5.47336L10.1885 5.39136L13.6324 6.31384L19.9668 7.64632L23.4108 9.90129L23.3698 9.98329Z" fill="black"/>
<path d="M23.4647 10.1876L20.9531 12.6038L21.01 12.6629L23.5216 10.2467L23.4647 10.1876Z" fill="black"/>
<path d="M20.3946 8.26635L20.313 8.27417L20.7273 12.6001L20.8089 12.5923L20.3946 8.26635Z" fill="black"/>
<path d="M11.7871 18.1217L11.7666 18.0397L15.8255 16.5022L13.5501 14.6367L13.2016 14.1447L13.0581 11.5618H13.1401L13.3041 14.1242L13.6116 14.5957L16.01 16.5227L11.7871 18.1217Z" fill="black"/>
<path d="M15.1129 9.06604L13.1714 11.1235L13.231 11.1798L15.1725 9.12231L15.1129 9.06604Z" fill="black"/>
<path d="M9.98315 30.196L9.34766 26.8135L11.1516 26.834L9.45015 23.8821L11.8691 24.4971L11.8486 24.5791L9.63465 24.0256L11.3156 26.916L9.47065 26.8955L10.0651 30.1755L9.98315 30.196Z" fill="black"/>
<path d="M11.111 30.1961L9.16357 28.4126L11.0085 28.6176L9.47107 25.3992L11.5825 25.3582V25.4402L9.61457 25.4812L11.1725 28.7406L9.43007 28.5356L11.1725 30.1346L11.111 30.1961Z" fill="black"/>
<path d="M11.1517 16.8097C11.4121 16.8097 11.6232 16.5986 11.6232 16.3382C11.6232 16.0778 11.4121 15.8667 11.1517 15.8667C10.8913 15.8667 10.6802 16.0778 10.6802 16.3382C10.6802 16.5986 10.8913 16.8097 11.1517 16.8097Z" fill="black"/>
<path d="M8.1179 15.2927C8.4802 15.2927 8.77389 14.999 8.77389 14.6367C8.77389 14.2744 8.4802 13.9807 8.1179 13.9807C7.75561 13.9807 7.46191 14.2744 7.46191 14.6367C7.46191 14.999 7.75561 15.2927 8.1179 15.2927Z" fill="black"/>
<path d="M13.3865 14.9853C13.7488 14.9853 14.0424 14.6916 14.0424 14.3293C14.0424 13.967 13.7488 13.6733 13.3865 13.6733C13.0242 13.6733 12.7305 13.967 12.7305 14.3293C12.7305 14.6916 13.0242 14.9853 13.3865 14.9853Z" fill="black"/>
<path d="M12.9148 12.1152C13.2771 12.1152 13.5708 11.8215 13.5708 11.4592C13.5708 11.0969 13.2771 10.8032 12.9148 10.8032C12.5525 10.8032 12.2588 11.0969 12.2588 11.4592C12.2588 11.8215 12.5525 12.1152 12.9148 12.1152Z" fill="black"/>
<path d="M15.9285 12.1972C16.2907 12.1972 16.5844 11.9035 16.5844 11.5412C16.5844 11.179 16.2907 10.8853 15.9285 10.8853C15.5662 10.8853 15.2725 11.179 15.2725 11.5412C15.2725 11.9035 15.5662 12.1972 15.9285 12.1972Z" fill="black"/>
<path d="M15.3543 9.40931C15.6034 9.40931 15.8053 9.20739 15.8053 8.95832C15.8053 8.70924 15.6034 8.50732 15.3543 8.50732C15.1052 8.50732 14.9033 8.70924 14.9033 8.95832C14.9033 9.20739 15.1052 9.40931 15.3543 9.40931Z" fill="black"/>
<path d="M20.2537 8.52782C20.6046 8.52782 20.8891 8.2433 20.8891 7.89233C20.8891 7.54135 20.6046 7.25684 20.2537 7.25684C19.9027 7.25684 19.6182 7.54135 19.6182 7.89233C19.6182 8.2433 19.9027 8.52782 20.2537 8.52782Z" fill="black"/>
<path d="M20.5818 13.6733C20.9667 13.6733 21.2787 13.3612 21.2787 12.9763C21.2787 12.5913 20.9667 12.2793 20.5818 12.2793C20.1968 12.2793 19.8848 12.5913 19.8848 12.9763C19.8848 13.3612 20.1968 13.6733 20.5818 13.6733Z" fill="black"/>
<path d="M20.5202 16.9328C20.9052 16.9328 21.2172 16.6207 21.2172 16.2358C21.2172 15.8509 20.9052 15.5388 20.5202 15.5388C20.1353 15.5388 19.8232 15.8509 19.8232 16.2358C19.8232 16.6207 20.1353 16.9328 20.5202 16.9328Z" fill="black"/>
<path d="M24.5793 15.1288C24.9643 15.1288 25.2763 14.8168 25.2763 14.4319C25.2763 14.0469 24.9643 13.7349 24.5793 13.7349C24.1944 13.7349 23.8823 14.0469 23.8823 14.4319C23.8823 14.8168 24.1944 15.1288 24.5793 15.1288Z" fill="black"/>
<path d="M17.9783 19.9463C18.3292 19.9463 18.6138 19.6618 18.6138 19.3108C18.6138 18.9598 18.3292 18.6753 17.9783 18.6753C17.6273 18.6753 17.3428 18.9598 17.3428 19.3108C17.3428 19.6618 17.6273 19.9463 17.9783 19.9463Z" fill="black"/>
<path d="M13.161 21.6476C13.3874 21.6476 13.571 21.4641 13.571 21.2376C13.571 21.0112 13.3874 20.8276 13.161 20.8276C12.9345 20.8276 12.751 21.0112 12.751 21.2376C12.751 21.4641 12.9345 21.6476 13.161 21.6476Z" fill="black"/>
<path d="M10.4344 21.4222C10.74 21.4222 10.9878 21.1744 10.9878 20.8687C10.9878 20.563 10.74 20.3152 10.4344 20.3152C10.1287 20.3152 9.88086 20.563 9.88086 20.8687C9.88086 21.1744 10.1287 21.4222 10.4344 21.4222Z" fill="black"/>
<path d="M11.2131 18.9211C11.5754 18.9211 11.8691 18.6274 11.8691 18.2651C11.8691 17.9028 11.5754 17.6091 11.2131 17.6091C10.8508 17.6091 10.5571 17.9028 10.5571 18.2651C10.5571 18.6274 10.8508 18.9211 11.2131 18.9211Z" fill="black"/>
<path d="M6.99046 18.3471C7.35276 18.3471 7.64645 18.0534 7.64645 17.6911C7.64645 17.3289 7.35276 17.0352 6.99046 17.0352C6.62817 17.0352 6.33447 17.3289 6.33447 17.6911C6.33447 18.0534 6.62817 18.3471 6.99046 18.3471Z" fill="black"/>
<path d="M7.01097 21.1967C7.37326 21.1967 7.66696 20.903 7.66696 20.5408C7.66696 20.1785 7.37326 19.8848 7.01097 19.8848C6.64868 19.8848 6.35498 20.1785 6.35498 20.5408C6.35498 20.903 6.64868 21.1967 7.01097 21.1967Z" fill="black"/>
<path d="M8.75322 23.0621C9.02494 23.0621 9.24521 22.8418 9.24521 22.5701C9.24521 22.2984 9.02494 22.0781 8.75322 22.0781C8.4815 22.0781 8.26123 22.2984 8.26123 22.5701C8.26123 22.8418 8.4815 23.0621 8.75322 23.0621Z" fill="black"/>
<path d="M15.867 16.9737C16.1387 16.9737 16.359 16.7535 16.359 16.4817C16.359 16.21 16.1387 15.9897 15.867 15.9897C15.5953 15.9897 15.375 16.21 15.375 16.4817C15.375 16.7535 15.5953 16.9737 15.867 16.9737Z" fill="black"/>
<path d="M7.48216 10.1474C7.84445 10.1474 8.13815 9.85373 8.13815 9.49144C8.13815 9.12915 7.84445 8.83545 7.48216 8.83545C7.11987 8.83545 6.82617 9.12915 6.82617 9.49144C6.82617 9.85373 7.11987 10.1474 7.48216 10.1474Z" fill="black"/>
<path d="M10.4139 9.63488C10.6743 9.63488 10.8854 9.42379 10.8854 9.16339C10.8854 8.90299 10.6743 8.69189 10.4139 8.69189C10.1535 8.69189 9.94238 8.90299 9.94238 9.16339C9.94238 9.42379 10.1535 9.63488 10.4139 9.63488Z" fill="black"/>
<path d="M13.0994 7.17479C13.4503 7.17479 13.7348 6.89027 13.7348 6.5393C13.7348 6.18833 13.4503 5.90381 13.0994 5.90381C12.7484 5.90381 12.4639 6.18833 12.4639 6.5393C12.4639 6.89027 12.7484 7.17479 13.0994 7.17479Z" fill="black"/>
<path d="M23.595 10.6803C23.8781 10.6803 24.1075 10.4508 24.1075 10.1678C24.1075 9.88472 23.8781 9.65527 23.595 9.65527C23.312 9.65527 23.0825 9.88472 23.0825 10.1678C23.0825 10.4508 23.312 10.6803 23.595 10.6803Z" fill="black"/>
<path d="M42.1473 22.4883L40.9583 24.4563L39.7283 22.4883H39.1748L40.7123 24.9892V27.2647H41.1838V24.9892L42.7007 22.4883H42.1473Z" fill="black"/>
<path d="M44.4841 23.6362C43.4386 23.6362 42.6392 24.4972 42.6392 25.5017C42.6392 26.5062 43.4181 27.3467 44.4841 27.3467C45.5501 27.3467 46.3291 26.5062 46.3291 25.5017C46.3291 24.4972 45.5501 23.6362 44.4841 23.6362ZM44.4841 26.9162C43.6846 26.9162 43.1107 26.2807 43.1107 25.5222C43.1107 24.7432 43.7256 24.0872 44.4841 24.0872C45.2426 24.0872 45.8576 24.7432 45.8576 25.5222C45.8576 26.2807 45.2836 26.9162 44.4841 26.9162Z" fill="black"/>
<path d="M49.7324 25.4607C49.7324 25.9732 49.7324 26.3012 49.4659 26.6087C49.2814 26.7932 48.9944 26.9162 48.6664 26.9162C48.2154 26.9162 47.8669 26.7112 47.6824 26.3422C47.5799 26.1372 47.5799 25.8297 47.5799 25.4607V23.7388H47.1084V25.5632C47.1084 26.7522 47.6619 27.3467 48.6664 27.3467C49.6709 27.3467 50.2038 26.7522 50.2038 25.5632V23.7388H49.7324V25.4607Z" fill="black"/>
<path d="M51.4949 24.2512V23.7387H51.0234V27.2647H51.4949V25.9322C51.4949 25.4607 51.5154 25.0917 51.5769 24.8662C51.6999 24.3742 52.0074 24.0872 52.3354 24.0872C52.4379 24.0872 52.5199 24.1282 52.5814 24.1487L52.8274 23.7592C52.7249 23.6977 52.6224 23.6362 52.4174 23.6362C52.0484 23.6362 51.7614 23.8617 51.4949 24.2512Z" fill="black"/>
<path d="M55.8408 24.2102C55.5743 24.0052 55.4103 23.7387 55.4103 23.4722C55.4103 23.1647 55.6358 22.8777 56.0458 22.8777C56.4353 22.8777 56.6608 23.1237 56.9273 23.4517L57.3168 23.1442C57.0093 22.7137 56.6608 22.3652 56.0663 22.3652C55.4308 22.3652 54.9183 22.8162 54.9183 23.4722C54.9183 23.8207 55.1028 24.2102 55.3283 24.3947C56.4148 25.2762 56.9068 25.5632 56.9068 26.0962C56.9068 26.5472 56.5173 26.8957 56.0253 26.8957C55.6563 26.8957 55.3078 26.6292 55.0208 26.0962L54.6108 26.3422C54.9593 26.9777 55.3898 27.3467 56.0458 27.3467C56.8248 27.3467 57.3783 26.7317 57.3783 26.0757C57.3988 25.3377 56.7428 24.8662 55.8408 24.2102Z" fill="black"/>
<path d="M60.9042 25.4607C60.9042 25.9732 60.9042 26.3012 60.6377 26.6087C60.4532 26.7932 60.1662 26.9162 59.8383 26.9162C59.3873 26.9162 59.0388 26.7112 58.8543 26.3422C58.7518 26.1372 58.7518 25.8297 58.7518 25.4607V23.7388H58.2803V25.5632C58.2803 26.7522 58.8338 27.3467 59.8383 27.3467C60.8427 27.3467 61.3757 26.7522 61.3757 25.5632V23.7388H60.9042V25.4607Z" fill="black"/>
<path d="M64.1433 24.0872C64.6763 24.0872 65.1068 24.2922 65.4143 24.7022L65.7832 24.4767C65.4552 23.9232 64.8403 23.6567 64.1638 23.6567C62.9953 23.6567 62.1958 24.4972 62.1958 25.5427C62.1958 26.5267 62.9748 27.3672 64.1433 27.3672C64.8608 27.3672 65.4553 27.1007 65.8037 26.5677L65.4348 26.3422C65.1068 26.7522 64.6763 26.9572 64.1638 26.9572C63.2618 26.9572 62.6673 26.2807 62.6673 25.5222C62.6673 24.7432 63.2618 24.0872 64.1433 24.0872Z" fill="black"/>
<path d="M68.4484 24.0872C68.9814 24.0872 69.4119 24.2922 69.7194 24.7022L70.0884 24.4767C69.7604 23.9232 69.1454 23.6567 68.4689 23.6567C67.3005 23.6567 66.501 24.4972 66.501 25.5427C66.501 26.5267 67.28 27.3672 68.4484 27.3672C69.1659 27.3672 69.7604 27.1007 70.1089 26.5677L69.7399 26.3422C69.4119 26.7522 68.9814 26.9572 68.4689 26.9572C67.567 26.9572 66.9725 26.2807 66.9725 25.5222C66.952 24.7432 67.5465 24.0872 68.4484 24.0872Z" fill="black"/>
<path d="M72.5891 23.6362C71.4821 23.6362 70.7852 24.5382 70.7852 25.5017C70.7852 26.4447 71.4616 27.3467 72.6301 27.3467C73.4091 27.3467 73.9421 26.9982 74.3111 26.3012L73.9421 26.0962C73.6756 26.5267 73.3271 26.9367 72.5891 26.9367C71.8306 26.9367 71.2772 26.3422 71.2567 25.5427H74.4136C74.4136 24.3742 73.5936 23.6362 72.5891 23.6362ZM72.6096 24.0872C73.2246 24.0872 73.7371 24.4152 73.9216 25.1327H71.2976C71.5026 24.4152 71.9741 24.0872 72.6096 24.0872Z" fill="black"/>
<path d="M76.0333 24.0872C76.3202 24.0872 76.5252 24.2102 76.7507 24.4357L77.0377 24.1282C76.7302 23.8412 76.4432 23.6567 76.0538 23.6567C75.5208 23.6567 75.0903 24.0257 75.0903 24.5997C75.0903 25.2147 75.5003 25.3992 76.3202 25.8502C76.4842 25.9527 76.6072 26.1372 76.6072 26.3422C76.6072 26.6702 76.2997 26.9162 75.9513 26.9162C75.6848 26.9162 75.4388 26.7727 75.2133 26.5267L74.9263 26.8547C75.1723 27.1827 75.5823 27.3672 75.9718 27.3672C76.6072 27.3672 77.0377 26.8752 77.0377 26.3217C77.0377 25.6862 76.5867 25.5017 75.7873 25.0302C75.6233 24.9277 75.5208 24.7432 75.5208 24.5587C75.5003 24.2922 75.7463 24.0872 76.0333 24.0872Z" fill="black"/>
<path d="M78.6163 24.0872C78.9033 24.0872 79.1083 24.2102 79.3337 24.4357L79.6207 24.1282C79.3132 23.8412 79.0263 23.6567 78.6368 23.6567C78.1038 23.6567 77.6733 24.0257 77.6733 24.5997C77.6733 25.2147 78.0833 25.3992 78.9033 25.8502C79.0673 25.9527 79.1902 26.1372 79.1902 26.3422C79.1902 26.6702 78.8828 26.9162 78.5343 26.9162C78.2678 26.9162 78.0218 26.7727 77.7963 26.5267L77.5093 26.8547C77.7553 27.1827 78.1653 27.3672 78.5548 27.3672C79.1903 27.3672 79.6207 26.8752 79.6207 26.3217C79.6207 25.6862 79.1697 25.5017 78.3703 25.0302C78.2063 24.9277 78.1038 24.7432 78.1038 24.5587C78.0833 24.2922 78.3088 24.0872 78.6163 24.0872Z" fill="black"/>
<path d="M81.855 22.9598H82.921V27.2647H83.413V22.9598H84.4584V22.4883H81.855V22.9598Z" fill="black"/>
<path d="M86.406 23.6362C85.299 23.6362 84.6021 24.5382 84.6021 25.5017C84.6021 26.4447 85.2785 27.3467 86.447 27.3467C87.226 27.3467 87.759 26.9982 88.128 26.3012L87.759 26.0962C87.4925 26.5267 87.144 26.9367 86.406 26.9367C85.6475 26.9367 85.094 26.3422 85.0735 25.5427H88.251C88.21 24.3742 87.39 23.6362 86.406 23.6362ZM86.406 24.0872C87.021 24.0872 87.5335 24.4152 87.718 25.1327H85.094C85.299 24.4152 85.7705 24.0872 86.406 24.0872Z" fill="black"/>
<path d="M90.8547 24.0872C91.3877 24.0872 91.8182 24.2922 92.1257 24.7022L92.4947 24.4767C92.1667 23.9232 91.5517 23.6567 90.8752 23.6567C89.7067 23.6567 88.9072 24.4972 88.9072 25.5427C88.9072 26.5267 89.6862 27.3672 90.8547 27.3672C91.5722 27.3672 92.1667 27.1007 92.5152 26.5677L92.1462 26.3422C91.8182 26.7522 91.3877 26.9572 90.8752 26.9572C89.9732 26.9572 89.3787 26.2807 89.3787 25.5222C89.3582 24.7432 89.9527 24.0872 90.8547 24.0872Z" fill="black"/>
<path d="M95.1184 23.6362C94.5855 23.6362 94.155 23.8822 93.8065 24.3537V22.3652H93.3555V27.2647H93.8065V25.7887C93.8065 25.2147 93.8475 24.8867 94.114 24.5382C94.36 24.2307 94.6675 24.0667 95.0364 24.0667C95.7129 24.0667 95.9794 24.5177 95.9794 25.3582V27.2852H96.4304V25.2557C96.4304 24.1897 95.8974 23.6362 95.1184 23.6362Z" fill="black"/>
<path d="M99.1775 23.6362C98.665 23.6362 98.214 23.8822 97.8655 24.3537V23.7182H97.4146V27.2647H97.8655V25.7887C97.8655 25.2352 97.9065 24.8867 98.173 24.5382C98.419 24.2307 98.7265 24.0667 99.0955 24.0667C99.772 24.0667 100.039 24.5177 100.039 25.3582V27.2852H100.49V25.3172C100.49 24.1692 99.936 23.6362 99.1775 23.6362Z" fill="black"/>
<path d="M101.617 22.2832C101.412 22.2832 101.248 22.4472 101.248 22.6522C101.248 22.8572 101.412 23.0212 101.617 23.0212C101.822 23.0212 101.986 22.8572 101.986 22.6522C101.986 22.4472 101.822 22.2832 101.617 22.2832Z" fill="black"/>
<path d="M101.842 23.7388H101.391V27.2647H101.842V23.7388Z" fill="black"/>
<path d="M104.569 24.0872C105.102 24.0872 105.532 24.2922 105.84 24.7022L106.209 24.4767C105.881 23.9232 105.266 23.6567 104.589 23.6567C103.421 23.6567 102.621 24.4972 102.621 25.5427C102.621 26.5267 103.4 27.3672 104.569 27.3672C105.286 27.3672 105.881 27.1007 106.229 26.5677L105.86 26.3422C105.532 26.7522 105.102 26.9572 104.589 26.9572C103.687 26.9572 103.093 26.2807 103.093 25.5222C103.072 24.7432 103.667 24.0872 104.569 24.0872Z" fill="black"/>
<path d="M110.124 24.3742C109.776 23.8822 109.284 23.6362 108.71 23.6362C107.685 23.6362 106.885 24.4767 106.885 25.4812C106.885 26.4857 107.664 27.3467 108.689 27.3467C109.243 27.3467 109.714 27.1212 110.104 26.6497V27.2442H110.555V23.7182H110.104V24.3742H110.124ZM108.751 26.9367C107.951 26.9367 107.357 26.2602 107.357 25.5017C107.357 24.7432 107.931 24.0872 108.751 24.0872C109.55 24.0872 110.145 24.7022 110.145 25.5222C110.165 26.3832 109.489 26.9367 108.751 26.9367Z" fill="black"/>
<path d="M111.99 22.3857H111.539V27.2647H111.99V22.3857Z" fill="black"/>
<path d="M117.033 22.6113C116.807 22.5293 116.438 22.4883 115.926 22.4883H114.819V27.2647H115.29V25.0507H115.762C116.418 25.0507 116.91 25.0302 117.238 24.8047C117.586 24.5997 117.791 24.2103 117.791 23.7593C117.832 23.2263 117.525 22.7958 117.033 22.6113ZM117.053 24.3743C116.848 24.5383 116.52 24.5792 116.11 24.5792C115.864 24.5792 115.598 24.5792 115.311 24.5792V22.9598H116.151C116.52 22.9598 116.807 22.9803 117.012 23.1443C117.197 23.2878 117.32 23.5133 117.32 23.7593C117.32 24.0053 117.217 24.2513 117.053 24.3743Z" fill="black"/>
<path d="M121.748 24.3742C121.399 23.8822 120.907 23.6362 120.333 23.6362C119.308 23.6362 118.509 24.4767 118.509 25.4812C118.509 26.4857 119.288 27.3467 120.313 27.3467C120.866 27.3467 121.338 27.1212 121.727 26.6497V27.2442H122.178V23.7182H121.727V24.3742H121.748ZM120.374 26.9367C119.575 26.9367 118.98 26.2602 118.98 25.5017C118.98 24.7432 119.554 24.0872 120.374 24.0872C121.174 24.0872 121.768 24.7022 121.768 25.5222C121.789 26.3832 121.112 26.9367 120.374 26.9367Z" fill="black"/>
<path d="M123.531 24.2512V23.7387H123.06V27.2647H123.531V25.9322C123.531 25.4607 123.552 25.0917 123.613 24.8662C123.736 24.3742 124.044 24.0872 124.372 24.0872C124.474 24.0872 124.556 24.1282 124.618 24.1487L124.864 23.7592C124.761 23.6977 124.659 23.6362 124.454 23.6362C124.064 23.6362 123.777 23.8617 123.531 24.2512Z" fill="black"/>
<path d="M126.073 22.4268H125.622V23.7387H125.007V24.1282H125.622V27.2647H126.073V24.1282H126.79V23.7387H126.073V22.4268Z" fill="black"/>
<path d="M129.25 23.6362C128.738 23.6362 128.287 23.8822 127.938 24.3537V23.7182H127.487V27.2647H127.938V25.7887C127.938 25.2352 127.979 24.8867 128.246 24.5382C128.492 24.2307 128.799 24.0667 129.168 24.0667C129.845 24.0667 130.111 24.5177 130.111 25.3582V27.2852H130.562V25.3172C130.542 24.1692 130.009 23.6362 129.25 23.6362Z" fill="black"/>
<path d="M133.166 23.6362C132.059 23.6362 131.362 24.5382 131.362 25.5017C131.362 26.4447 132.038 27.3467 133.207 27.3467C133.986 27.3467 134.519 26.9982 134.888 26.3012L134.519 26.0962C134.252 26.5267 133.904 26.9367 133.166 26.9367C132.407 26.9367 131.854 26.3422 131.833 25.5427H135.011C134.97 24.3742 134.17 23.6362 133.166 23.6362ZM133.166 24.0872C133.781 24.0872 134.293 24.4152 134.478 25.1327H131.854C132.059 24.4152 132.53 24.0872 133.166 24.0872Z" fill="black"/>
<path d="M137.04 23.6362C136.692 23.6362 136.405 23.8617 136.138 24.2307V23.7182H135.667V27.2647H136.138V25.9322C136.138 25.4607 136.159 25.0917 136.22 24.8662C136.343 24.3742 136.651 24.0872 136.979 24.0872C137.081 24.0872 137.163 24.1282 137.225 24.1487L137.471 23.7592C137.348 23.7182 137.245 23.6362 137.04 23.6362Z" fill="black"/>
<path d="M42.6801 4.42798H40.0151V18.7778H42.6801V4.42798Z" fill="black"/>
<path d="M56.661 14.1448L48.7482 4.42798H46.5547V18.7778H49.1991V9.06091L57.112 18.7778H59.3055V4.42798H56.661V14.1448Z" fill="black"/>
<path d="M75.3976 6.33438C74.7006 5.67839 73.8806 5.14539 72.9376 4.7969C71.9946 4.42791 70.9696 4.24341 69.8627 4.24341C68.7557 4.24341 67.7307 4.42791 66.7877 4.7969C65.8447 5.16589 65.0247 5.67839 64.3277 6.33438C63.6308 6.99037 63.0978 7.76935 62.7083 8.67134C62.3188 9.57332 62.1343 10.5368 62.1343 11.6028C62.1343 12.6688 62.3188 13.6528 62.7083 14.5342C63.0978 15.4362 63.6308 16.2152 64.3277 16.8712C65.0247 17.5272 65.8447 18.0602 66.7877 18.4087C67.7307 18.7572 68.7557 18.9622 69.8832 18.9622C70.9901 18.9622 72.0151 18.7777 72.9581 18.4087C73.9011 18.0397 74.7006 17.5272 75.4181 16.8712C76.1151 16.2152 76.648 15.4362 77.0375 14.5342C77.427 13.6323 77.6115 12.6483 77.6115 11.5823C77.6115 10.5163 77.427 9.53233 77.0375 8.65084C76.6275 7.76935 76.0946 6.99037 75.3976 6.33438ZM74.5366 13.6323C74.2906 14.2473 73.9216 14.7802 73.4706 15.2312C73.0196 15.6822 72.4866 16.0307 71.8716 16.2767C71.2566 16.5227 70.5801 16.6457 69.8627 16.6457C69.1452 16.6457 68.4687 16.5227 67.8537 16.2767C67.2387 16.0307 66.7057 15.6822 66.2547 15.2312C65.8037 14.7802 65.4552 14.2268 65.2092 13.6118C64.9632 12.9968 64.8197 12.3203 64.8197 11.6028C64.8197 10.8648 64.9427 10.1883 65.2092 9.59382C65.4552 8.97883 65.8242 8.44584 66.2752 7.99485C66.7262 7.54386 67.2592 7.19536 67.8742 6.94937C68.4892 6.70337 69.1452 6.58037 69.8832 6.58037C70.6006 6.58037 71.2771 6.70337 71.8921 6.94937C72.5071 7.19536 73.0401 7.54386 73.4911 7.99485C73.9421 8.44584 74.2906 8.97883 74.5571 9.59382C74.8031 10.2088 74.9261 10.8648 74.9261 11.6028C74.9261 12.3408 74.7826 13.0173 74.5366 13.6323Z" fill="black"/>
<path d="M85.6063 15.4978L80.8299 4.42798H77.9395L84.2123 18.7778H86.8363L93.0887 4.42798H90.4238L85.6063 15.4978Z" fill="black"/>
<path d="M106.701 6.33438C106.004 5.67839 105.184 5.14539 104.241 4.7969C103.298 4.4484 102.273 4.24341 101.166 4.24341C100.059 4.24341 99.0339 4.42791 98.0909 4.7969C97.1479 5.16589 96.328 5.67839 95.631 6.33438C94.934 6.99037 94.401 7.76935 94.0115 8.67134C93.622 9.57332 93.4375 10.5368 93.4375 11.6028C93.4375 12.6688 93.622 13.6528 94.0115 14.5342C94.401 15.4362 94.934 16.2152 95.631 16.8712C96.328 17.5272 97.1479 18.0602 98.0909 18.4087C99.0339 18.7777 100.059 18.9622 101.186 18.9622C102.293 18.9622 103.318 18.7777 104.241 18.4087C105.163 18.0397 106.004 17.5272 106.701 16.8712C107.398 16.2152 107.931 15.4362 108.32 14.5342C108.71 13.6323 108.894 12.6483 108.894 11.5823C108.894 10.5163 108.71 9.53233 108.32 8.65084C107.931 7.76935 107.398 6.99037 106.701 6.33438ZM105.84 13.6323C105.594 14.2473 105.225 14.7802 104.794 15.2312C104.343 15.6822 103.81 16.0307 103.195 16.2767C102.58 16.5227 101.904 16.6457 101.186 16.6457C100.469 16.6457 99.7924 16.5227 99.1774 16.2767C98.5624 16.0307 98.0294 15.6822 97.5784 15.2312C97.1274 14.7802 96.7789 14.2268 96.5125 13.6118C96.2665 12.9968 96.1435 12.3203 96.1435 11.6028C96.1435 10.8648 96.2665 10.1883 96.5125 9.59382C96.7584 8.97883 97.1274 8.44584 97.5784 7.99485C98.0294 7.54386 98.5624 7.19536 99.1774 6.94937C99.7924 6.70337 100.448 6.58037 101.186 6.58037C101.904 6.58037 102.58 6.70337 103.195 6.94937C103.81 7.19536 104.343 7.54386 104.794 7.99485C105.245 8.44584 105.594 8.97883 105.84 9.59382C106.086 10.2088 106.229 10.8648 106.229 11.6028C106.229 12.3408 106.086 13.0173 105.84 13.6323Z" fill="black"/>
<path d="M114.388 4.42798H111.723V18.7778H121.891V16.5228H114.388V4.42798Z" fill="black"/>
<path d="M134.764 18.7778H137.552L131.075 4.42798H128.451L121.993 18.7778H124.74L126.155 15.4568H133.329L134.764 18.7778ZM127.057 13.3658L129.742 7.09294L132.448 13.3658H127.057Z" fill="black"/>
<defs>
<linearGradient id="paint0_linear_2052_7726" x1="34.6691" y1="15.7807" x2="-11.0514" y2="16.3178" gradientUnits="userSpaceOnUse">
<stop stop-color="#EEE811"/>
<stop offset="1" stop-color="white"/>
</linearGradient>
</defs>
</svg>
