<?xml version="1.0" encoding="utf-8"?>
<!-- Generator: Adobe Illustrator 27.0.0, SVG Export Plug-In . SVG Version: 6.00 Build 0)  -->
<svg version="1.1" id="Layer_1" xmlns="http://www.w3.org/2000/svg" xmlns:xlink="http://www.w3.org/1999/xlink" x="0px" y="0px"
	 viewBox="0 0 670.5 156.1" style="enable-background:new 0 0 670.5 156.1;" xml:space="preserve">
<style type="text/css">
	.st0{fill:url(#SVGID_1_);}
</style>
<g id="Layer_2_00000109026739862533174250000006430113122198733242_">
	<g id="Layer_1-2">
		
			<linearGradient id="SVGID_1_" gradientUnits="userSpaceOnUse" x1="169.12" y1="81.0198" x2="-53.91" y2="78.3998" gradientTransform="matrix(1 0 0 -1 0 158)">
			<stop  offset="0" style="stop-color:#EEE811"/>
			<stop  offset="1" style="stop-color:#FFFFFF"/>
		</linearGradient>
		<rect class="st0" width="156.1" height="156.1"/>
		<path d="M52.6,148.3c-1,0-2-0.1-3-0.3c-1-0.1-2.1-0.2-3.1-0.3c-1.6-0.1-2.4-0.4-2.7-1c-0.1-0.3-0.1-0.7,0.1-1
			c1.2-3.9,2.1-27.3,1.8-29.2c-0.9,0.6-3.1,1.7-9.2,0.4c-8.8-1.9-10.4-10.8-10.6-12.3c-11.1-7.3-6.3-18.2-5.1-20.6
			c-6-2.4-4.5-9.4-4.2-10.4c-1.3-6,1.4-8.4,2.3-9c-0.2-2.9,1.1-5.8,3.5-7.5c-0.9-6.9,3.5-9.4,4.6-9.9c1.4-5.4,3.2-7.4,4.5-8.1
			c0.5-0.3,1-0.4,1.5-0.4c0.9-4.6,4.9-7.8,9.6-7.9c1.3-3.2,4.4-5.4,7.9-5.3c1.8-2.5,4.6-3.2,7.3-3.8c0.7-0.2,1.4-0.3,2.1-0.5
			c1-0.3,2.1-0.5,3.2-0.4c1.7,0,3.5-0.3,5.1-0.9c3.5-1,7.2-1.1,10.7-0.1c8.2-0.9,10.9,1,11.5,1.7c9-1,14.4,2.8,15.3,3.4
			c10.1,1.3,13.1,6,13.6,7.1c11.1,2.6,14.2,13.8,14.6,15.5c5.2,2.6,8.1,14.8,8.4,15.8c7.5,14.8-1.7,23.9-1.8,24
			c-11.1,11.7-25.3,4.4-28.2,2.8c-3.1,13.2-11.2,15.7-11.6,15.8c-15.2,5.4-23.5-2.6-25.4-4.7c-3.8,6.7-6.8,7.1-8.4,7.4
			c-0.8,0.1-1,0.2-1.1,0.5c-0.6,2-1.9,3.8-3.6,5c-1.7,1.3-3.1,4.4-3.2,4.5c-5.9,11-4.5,28.8-4.5,29v0.2l-0.1,0.1
			C54,148.2,53.3,148.4,52.6,148.3z M46,115.5c0.1,0,0.1,0,0.2,0c0.3,0.2,0.4,0.5,0.4,0.9c0.3,2.2-0.6,25.9-1.9,29.6l-0.1,0.1
			c0,0-0.1,0.1-0.1,0.2s0.2,0.4,1.9,0.5c1,0,2.1,0.2,3.2,0.3c1.7,0.2,3.5,0.4,4.2,0.1c-0.1-2.2-1-18.7,4.6-29.2
			c0.1-0.1,1.6-3.4,3.4-4.8c1.6-1.1,2.8-2.7,3.3-4.6c0.3-0.9,1-1,1.8-1.2c1.7-0.2,4.4-0.6,8.1-7.5l0.3-0.6l0.4,0.6
			c0.1,0.1,8,10.9,24.8,4.9c0.1,0,8.2-2.5,11.1-15.7l0.1-0.6l0.5,0.4c0.2,0.1,15.7,10.1,27.6-2.3c0.4-0.4,8.8-8.8,1.6-23v-0.1
			c0-0.1-3.1-13.1-8.1-15.3l-0.2-0.1v-0.2c0-0.1-2.6-12.5-14.2-15h-0.2l-0.1-0.2c0,0-2.4-5.4-13.1-6.8h-0.1l-0.1-0.1
			c-0.1,0-5.6-4.4-15-3.3h-0.3L90,22.2c0,0-2-2.5-11-1.5h-0.1h-0.1c-3.4-0.9-6.9-0.9-10.2,0c-1.7,0.7-3.5,1-5.4,1c-1,0-2,0.1-3,0.4
			c-0.7,0.2-1.5,0.4-2.2,0.5c-2.7,0.6-5.3,1.2-6.9,3.6l-0.2,0.2h-0.3c-3.3-0.2-6.3,1.9-7.3,5l-0.1,0.3h-0.3
			c-4.5-0.1-8.4,3.1-9.1,7.6l-0.1,0.5l-0.5-0.1c-0.5-0.1-1,0-1.4,0.3c-1.1,0.7-2.8,2.5-4.1,7.8L27.8,48l-0.2,0.1
			c-0.2,0.1-5.3,2-4.2,9.3v0.3l-0.3,0.2c-2.4,1.6-3.6,4.3-3.3,7.1v0.3l-0.3,0.1c-0.1,0.1-3.5,1.9-2.1,8.3v0.1v0.1
			c-0.1,0.3-2.1,7.5,4.1,9.6l0.5,0.2l-0.3,0.5c-0.3,0.5-7.2,12.2,4.7,20l0.2,0.1v0.2c0,0.1,1.1,9.8,10,11.8c6,1.3,7.9,0.1,8.6-0.4
			C45.6,115.6,45.8,115.5,46,115.5z"/>
		<polygon points="38,116.9 37.7,116.6 43,109.8 43,109.8 65.1,103.6 66.6,108 66.2,108.1 64.8,104.2 43.2,110.2 		"/>
		<polygon points="42.9,110.1 34.2,99.9 19,93.5 19.2,93.1 34.5,99.6 43.2,109.8 		"/>
		<polygon points="52.1,102 34.3,99.9 34.3,99.5 51.8,101.5 55.3,89.5 39,71.8 17,72.7 16.9,72.3 39.2,71.3 39.3,71.4 55.8,89.4 
			55.8,89.5 		"/>
		<rect x="33.4" y="94.5" transform="matrix(0.8972 -0.4417 0.4417 0.8972 -37.2434 29.5041)" width="22.7" height="0.4"/>
		<polygon points="34.4,99.3 34.1,85.7 20.8,84.1 20.9,83.7 34.5,85.3 34.8,99.2 		"/>
		<rect x="44.1" y="76.9" transform="matrix(0.145 -0.9894 0.9894 0.145 -48.1563 118.1238)" width="0.4" height="20.1"/>
		<rect x="30.5" y="78.3" transform="matrix(0.3241 -0.946 0.946 0.3241 -49.2933 87.9526)" width="12.7" height="0.4"/>
		<path d="M27.1,71.7l-0.4-0.1c0.1-0.5,8.1-23.6,9.1-26.2l0.4,0.2C33.1,54.4,27.2,71.2,27.1,71.7z"/>
		<polygon points="39.4,70.4 36.3,45.7 36.6,33.4 37,33.4 36.7,45.6 39.9,70.4 		"/>
		<polygon points="40.5,69.8 40.1,69.6 50.5,44.2 43,31.4 43.4,31.2 51,44.2 		"/>
		<polygon points="100.9,79.5 63.4,55.8 41.9,70.7 41.6,70.3 63.4,55.2 101.1,79.1 		"/>
		<polygon points="64,103.1 54.2,89 54.2,88.9 54,79.2 40.1,71.6 40.3,71.2 54.4,78.9 54.6,88.8 64.4,102.9 		"/>
		<polygon points="77.5,80.2 55.1,79.5 55.1,79.1 77.5,79.8 101.6,78.5 120.7,68.9 132.1,65.5 134,48.2 134.4,48.2 132.5,65.9 
			120.9,69.3 101.6,78.9 		"/>
		<polygon points="98.4,105.7 87.5,94.1 57.4,89.4 57.5,89 87.7,93.7 87.7,93.8 98.7,105.4 		"/>
		<polygon points="51.5,100.8 51.5,100.3 87,95.2 100.4,79.7 100.8,80 87.2,95.6 87.2,95.6 		"/>
		<polygon points="107.4,99.9 101.7,78 100.1,76.9 100.4,61.7 75.4,44.3 51.8,44.8 51.8,44.3 75.5,43.9 100.8,61.4 100.5,76.7 
			102,77.7 107.8,99.8 		"/>
		<polygon points="98.9,77.4 77.8,55.9 74.8,42.5 99.3,38.1 99.9,36.7 94.3,22.2 94.8,22 100.4,36.7 99.6,38.5 75.4,42.8 78.2,55.7 
			99.2,77.1 		"/>
		<polygon points="117.5,91 117,90.9 119.7,70.5 115,49 115.6,29.5 116,29.5 115.4,49 120.2,70.5 120.2,70.6 		"/>
		<polygon points="138.3,87.2 120.7,70.5 120.7,70.4 127.4,36.3 127.8,36.4 121.2,70.3 138.6,86.9 		"/>
		<polygon points="118.9,68.8 79.1,56.7 65,55.9 50.7,44.4 38,45.9 38,45.5 50.9,44 65.2,55.5 79.2,56.3 119,68.4 		"/>
		<polygon points="51.7,43.6 51.3,43.3 63.4,30.6 76.2,19.6 76.5,19.9 63.7,30.9 		"/>
		<polygon points="114,48.7 97.2,37.7 66.4,31.2 49.5,26.7 49.7,26.3 66.5,30.8 97.4,37.3 114.2,48.3 		"/>
		<rect x="100" y="55.5" transform="matrix(0.7207 -0.6933 0.6933 0.7207 -8.3371 90.8134)" width="17" height="0.4"/>
		
			<rect x="100.1" y="40.3" transform="matrix(0.9954 -9.532455e-02 9.532455e-02 0.9954 -4.3926 9.7901)" width="0.4" height="21.2"/>
		<polygon points="57.5,88.4 57.4,88 77.2,80.5 66.1,71.4 64.4,69 64.4,69 63.7,56.4 64.1,56.4 64.9,68.9 66.4,71.2 78.1,80.6 		"/>
		<rect x="62.3" y="49.2" transform="matrix(0.6863 -0.7273 0.7273 0.6863 -14.2871 65.8074)" width="13.8" height="0.4"/>
		<polygon points="48.7,147.3 45.6,130.8 54.4,130.9 46.1,116.5 57.9,119.5 57.8,119.9 47,117.2 55.2,131.3 46.2,131.2 49.1,147.2 
					"/>
		<polygon points="54.2,147.3 44.7,138.6 53.7,139.6 46.2,123.9 56.5,123.7 56.5,124.1 46.9,124.3 54.5,140.2 46,139.2 54.5,147 		
			"/>
		<circle cx="54.4" cy="79.7" r="2.3"/>
		<circle cx="39.6" cy="71.4" r="3.2"/>
		<circle cx="65.3" cy="69.9" r="3.2"/>
		<circle cx="63" cy="55.9" r="3.2"/>
		<circle cx="77.7" cy="56.3" r="3.2"/>
		<circle cx="74.9" cy="43.7" r="2.2"/>
		<circle cx="98.8" cy="38.5" r="3.1"/>
		<circle cx="100.4" cy="63.3" r="3.4"/>
		<circle cx="100.1" cy="79.2" r="3.4"/>
		<circle cx="119.9" cy="70.4" r="3.4"/>
		<circle cx="87.7" cy="94.2" r="3.1"/>
		<circle cx="64.2" cy="103.6" r="2"/>
		<circle cx="50.9" cy="101.8" r="2.7"/>
		<circle cx="54.7" cy="89.1" r="3.2"/>
		<circle cx="34.1" cy="86.3" r="3.2"/>
		<circle cx="34.2" cy="100.2" r="3.2"/>
		<circle cx="42.7" cy="110.1" r="2.4"/>
		<circle cx="77.4" cy="80.4" r="2.4"/>
		<circle cx="36.5" cy="46.3" r="3.2"/>
		<circle cx="50.8" cy="44.7" r="2.3"/>
		<circle cx="63.9" cy="31.9" r="3.1"/>
		<circle cx="115.1" cy="49.6" r="2.5"/>
		<g>
			<polygon points="205.6,109.7 199.8,119.3 193.8,109.7 191.1,109.7 198.6,121.9 198.6,133 200.9,133 200.9,121.9 208.3,109.7 			
				"/>
			<path d="M217,115.3c-5.1,0-9,4.2-9,9.1c0,4.9,3.8,9,9,9s9-4.1,9-9C226,119.5,222.2,115.3,217,115.3z M217,131.3
				c-3.9,0-6.7-3.1-6.7-6.8c0-3.8,3-7,6.7-7c3.7,0,6.7,3.2,6.7,7C223.7,128.2,220.9,131.3,217,131.3z"/>
			<path d="M242.6,124.2c0,2.5,0,4.1-1.3,5.6c-0.9,0.9-2.3,1.5-3.9,1.5c-2.2,0-3.9-1-4.8-2.8c-0.5-1-0.5-2.5-0.5-4.3v-8.4h-2.3v8.9
				c0,5.8,2.7,8.7,7.6,8.7c4.9,0,7.5-2.9,7.5-8.7v-8.9h-2.3V124.2z"/>
			<path d="M251.2,118.3v-2.5h-2.3V133h2.3v-6.5c0-2.3,0.1-4.1,0.4-5.2c0.6-2.4,2.1-3.8,3.7-3.8c0.5,0,0.9,0.2,1.2,0.3l1.2-1.9
				c-0.5-0.3-1-0.6-2-0.6C253.9,115.3,252.5,116.4,251.2,118.3z"/>
			<path d="M272.4,118.1c-1.3-1-2.1-2.3-2.1-3.6c0-1.5,1.1-2.9,3.1-2.9c1.9,0,3,1.2,4.3,2.8l1.9-1.5c-1.5-2.1-3.2-3.8-6.1-3.8
				c-3.1,0-5.6,2.2-5.6,5.4c0,1.7,0.9,3.6,2,4.5c5.3,4.3,7.7,5.7,7.7,8.3c0,2.2-1.9,3.9-4.3,3.9c-1.8,0-3.5-1.3-4.9-3.9l-2,1.2
				c1.7,3.1,3.8,4.9,7,4.9c3.8,0,6.5-3,6.5-6.2C280,123.6,276.8,121.3,272.4,118.1z"/>
			<path d="M297.1,124.2c0,2.5,0,4.1-1.3,5.6c-0.9,0.9-2.3,1.5-3.9,1.5c-2.2,0-3.9-1-4.8-2.8c-0.5-1-0.5-2.5-0.5-4.3v-8.4h-2.3v8.9
				c0,5.8,2.7,8.7,7.6,8.7c4.9,0,7.5-2.9,7.5-8.7v-8.9h-2.3V124.2z"/>
			<path d="M312.9,117.5c2.6,0,4.7,1,6.2,3l1.8-1.1c-1.6-2.7-4.6-4-7.9-4c-5.7,0-9.6,4.1-9.6,9.2c0,4.8,3.8,8.9,9.5,8.9
				c3.5,0,6.4-1.3,8.1-3.9l-1.8-1.1c-1.6,2-3.7,3-6.2,3c-4.4,0-7.3-3.3-7.3-7C305.7,120.7,308.6,117.5,312.9,117.5z"/>
			<path d="M333.9,117.5c2.6,0,4.7,1,6.2,3l1.8-1.1c-1.6-2.7-4.6-4-7.9-4c-5.7,0-9.6,4.1-9.6,9.2c0,4.8,3.8,8.9,9.5,8.9
				c3.5,0,6.4-1.3,8.1-3.9l-1.8-1.1c-1.6,2-3.7,3-6.2,3c-4.4,0-7.3-3.3-7.3-7C326.6,120.7,329.5,117.5,333.9,117.5z"/>
			<path d="M354.1,115.3c-5.4,0-8.8,4.4-8.8,9.1c0,4.6,3.3,9,9,9c3.8,0,6.4-1.7,8.2-5.1l-1.8-1c-1.3,2.1-3,4.1-6.6,4.1
				c-3.7,0-6.4-2.9-6.5-6.8H363C363,118.9,359,115.3,354.1,115.3z M354.2,117.5c3,0,5.5,1.6,6.4,5.1h-12.8
				C348.8,119.1,351.1,117.5,354.2,117.5z"/>
			<path d="M370.9,117.5c1.4,0,2.4,0.6,3.5,1.7l1.4-1.5c-1.5-1.4-2.9-2.3-4.8-2.3c-2.6,0-4.7,1.8-4.7,4.6c0,3,2,3.9,6,6.1
				c0.8,0.5,1.4,1.4,1.4,2.4c0,1.6-1.5,2.8-3.2,2.8c-1.3,0-2.5-0.7-3.6-1.9l-1.4,1.6c1.2,1.6,3.2,2.5,5.1,2.5c3.1,0,5.2-2.4,5.2-5.1
				c0-3.1-2.2-4-6.1-6.3c-0.8-0.5-1.3-1.4-1.3-2.3C368.3,118.5,369.5,117.5,370.9,117.5z"/>
			<path d="M383.5,117.5c1.4,0,2.4,0.6,3.5,1.7l1.4-1.5c-1.5-1.4-2.9-2.3-4.8-2.3c-2.6,0-4.7,1.8-4.7,4.6c0,3,2,3.9,6,6.1
				c0.8,0.5,1.4,1.4,1.4,2.4c0,1.6-1.5,2.8-3.2,2.8c-1.3,0-2.5-0.7-3.6-1.9l-1.4,1.6c1.2,1.6,3.2,2.5,5.1,2.5c3.1,0,5.2-2.4,5.2-5.1
				c0-3.1-2.2-4-6.1-6.3c-0.8-0.5-1.3-1.4-1.3-2.3C380.9,118.5,382,117.5,383.5,117.5z"/>
			<polygon points="399.3,112 404.5,112 404.5,133 406.9,133 406.9,112 412,112 412,109.7 399.3,109.7 			"/>
			<path d="M421.5,115.3c-5.4,0-8.8,4.4-8.8,9.1c0,4.6,3.3,9,9,9c3.8,0,6.4-1.7,8.2-5.1l-1.8-1c-1.3,2.1-3,4.1-6.6,4.1
				c-3.7,0-6.4-2.9-6.5-6.8h15.5C430.3,118.9,426.3,115.3,421.5,115.3z M421.5,117.5c3,0,5.5,1.6,6.4,5.1h-12.8
				C416.1,119.1,418.4,117.5,421.5,117.5z"/>
			<path d="M443.2,117.5c2.6,0,4.7,1,6.2,3l1.8-1.1c-1.6-2.7-4.6-4-7.9-4c-5.7,0-9.6,4.1-9.6,9.2c0,4.8,3.8,8.9,9.5,8.9
				c3.5,0,6.4-1.3,8.1-3.9l-1.8-1.1c-1.6,2-3.7,3-6.2,3c-4.4,0-7.3-3.3-7.3-7C435.9,120.7,438.8,117.5,443.2,117.5z"/>
			<path d="M464,115.3c-2.6,0-4.7,1.2-6.4,3.5v-9.7h-2.2V133h2.2v-7.2c0-2.8,0.2-4.4,1.5-6.1c1.2-1.5,2.7-2.3,4.5-2.3
				c3.3,0,4.6,2.2,4.6,6.3v9.4h2.2v-9.9C470.4,118,467.8,115.3,464,115.3z"/>
			<path d="M483.8,115.3c-2.5,0-4.7,1.2-6.4,3.5v-3.1h-2.2V133h2.2v-7.2c0-2.7,0.2-4.4,1.5-6.1c1.2-1.5,2.7-2.3,4.5-2.3
				c3.3,0,4.6,2.2,4.6,6.3v9.4h2.2v-9.6C490.2,117.9,487.5,115.3,483.8,115.3z"/>
			<path d="M495.7,108.7c-1,0-1.8,0.8-1.8,1.8c0,1,0.8,1.8,1.8,1.8s1.8-0.8,1.8-1.8C497.5,109.5,496.7,108.7,495.7,108.7z"/>
			<rect x="494.6" y="115.8" width="2.2" height="17.2"/>
			<path d="M510.1,117.5c2.6,0,4.7,1,6.2,3l1.8-1.1c-1.6-2.7-4.6-4-7.9-4c-5.7,0-9.6,4.1-9.6,9.2c0,4.8,3.8,8.9,9.5,8.9
				c3.5,0,6.4-1.3,8.1-3.9l-1.8-1.1c-1.6,2-3.7,3-6.2,3c-4.4,0-7.3-3.3-7.3-7C502.8,120.7,505.7,117.5,510.1,117.5z"/>
			<path d="M537.2,118.9c-1.7-2.4-4.1-3.6-6.9-3.6c-5,0-8.9,4.1-8.9,9c0,4.9,3.8,9.1,8.8,9.1c2.7,0,5-1.1,6.9-3.4v2.9h2.2v-17.2
				h-2.2V118.9z M530.5,131.4c-3.9,0-6.8-3.3-6.8-7c0-3.7,2.8-6.9,6.8-6.9c3.9,0,6.8,3,6.8,7C537.4,128.7,534.1,131.4,530.5,131.4z"
				/>
			<rect x="544.1" y="109.2" width="2.2" height="23.8"/>
			<path d="M570.9,110.3c-1.1-0.4-2.9-0.6-5.4-0.6h-5.4V133h2.3v-10.8h2.3c3.2,0,5.6-0.1,7.2-1.2c1.7-1,2.7-2.9,2.7-5.1
				C574.8,113.3,573.3,111.2,570.9,110.3z M571,118.9c-1,0.8-2.6,1-4.6,1c-1.2,0-2.5,0-3.9,0V112h4.1c1.8,0,3.2,0.1,4.2,0.9
				c0.9,0.7,1.5,1.8,1.5,3C572.3,117.1,571.8,118.3,571,118.9z"/>
			<path d="M593.9,118.9c-1.7-2.4-4.1-3.6-6.9-3.6c-5,0-8.9,4.1-8.9,9c0,4.9,3.8,9.1,8.8,9.1c2.7,0,5-1.1,6.9-3.4v2.9h2.2v-17.2
				h-2.2V118.9z M587.2,131.4c-3.9,0-6.8-3.3-6.8-7c0-3.7,2.8-6.9,6.8-6.9c3.9,0,6.8,3,6.8,7C594.1,128.7,590.8,131.4,587.2,131.4z"
				/>
			<path d="M602.6,118.3v-2.5h-2.3V133h2.3v-6.5c0-2.3,0.1-4.1,0.4-5.2c0.6-2.4,2.1-3.8,3.7-3.8c0.5,0,0.9,0.2,1.2,0.3l1.2-1.9
				c-0.5-0.3-1-0.6-2-0.6C605.2,115.3,603.8,116.4,602.6,118.3z"/>
			<polygon points="615,109.4 612.8,109.4 612.8,115.8 609.8,115.8 609.8,117.7 612.8,117.7 612.8,133 615,133 615,117.7 
				618.5,117.7 618.5,115.8 615,115.8 			"/>
			<path d="M630.5,115.3c-2.5,0-4.7,1.2-6.4,3.5v-3.1h-2.2V133h2.2v-7.2c0-2.7,0.2-4.4,1.5-6.1c1.2-1.5,2.7-2.3,4.5-2.3
				c3.3,0,4.6,2.2,4.6,6.3v9.4h2.2v-9.6C636.8,117.9,634.2,115.3,630.5,115.3z"/>
			<path d="M649.6,115.3c-5.4,0-8.8,4.4-8.8,9.1c0,4.6,3.3,9,9,9c3.8,0,6.4-1.7,8.2-5.1l-1.8-1c-1.3,2.1-3,4.1-6.6,4.1
				c-3.7,0-6.4-2.9-6.5-6.8h15.5C658.4,118.9,654.5,115.3,649.6,115.3z M649.6,117.5c3,0,5.5,1.6,6.4,5.1h-12.8
				C644.2,119.1,646.5,117.5,649.6,117.5z"/>
			<path d="M668.5,115.3c-1.7,0-3.1,1.1-4.4,2.9v-2.5h-2.3V133h2.3v-6.5c0-2.3,0.1-4.1,0.4-5.2c0.6-2.4,2.1-3.8,3.7-3.8
				c0.5,0,0.9,0.2,1.2,0.3l1.2-1.9C670,115.7,669.5,115.3,668.5,115.3z"/>
		</g>
		<g>
			<rect x="195.2" y="21.6" width="13" height="70"/>
			<polygon points="276.4,69 237.8,21.6 227.1,21.6 227.1,91.6 240,91.6 240,44.2 278.6,91.6 289.3,91.6 289.3,21.6 276.4,21.6 			
				"/>
			<path d="M367.8,30.9c-3.4-3.2-7.4-5.8-12-7.5c-4.6-1.8-9.6-2.7-15-2.7c-5.4,0-10.4,0.9-15,2.7s-8.6,4.3-12,7.5
				c-3.4,3.2-6,7-7.9,11.4c-1.9,4.4-2.8,9.1-2.8,14.3s0.9,10,2.8,14.3c1.9,4.4,4.5,8.2,7.9,11.4c3.4,3.2,7.4,5.8,12,7.5
				s9.6,2.7,15.1,2.7c5.4,0,10.4-0.9,15-2.7c4.6-1.8,8.5-4.3,12-7.5c3.4-3.2,6-7,7.9-11.4c1.9-4.4,2.8-9.2,2.8-14.4
				s-0.9-10-2.8-14.3C373.8,37.9,371.2,34.1,367.8,30.9z M363.6,66.5c-1.2,3-3,5.6-5.2,7.8c-2.2,2.2-4.8,3.9-7.8,5.1
				c-3,1.2-6.3,1.8-9.8,1.8c-3.5,0-6.8-0.6-9.8-1.8c-3-1.2-5.6-2.9-7.8-5.1c-2.2-2.2-3.9-4.9-5.1-7.9c-1.2-3-1.9-6.3-1.9-9.8
				c0-3.6,0.6-6.9,1.9-9.8c1.2-3,3-5.6,5.2-7.8c2.2-2.2,4.8-3.9,7.8-5.1c3-1.2,6.2-1.8,9.8-1.8c3.5,0,6.8,0.6,9.8,1.8
				s5.6,2.9,7.8,5.1c2.2,2.2,3.9,4.8,5.2,7.8c1.2,3,1.8,6.2,1.8,9.8S364.8,63.5,363.6,66.5z"/>
			<polygon points="417.6,75.6 394.3,21.6 380.2,21.6 410.8,91.6 423.6,91.6 454.1,21.6 441.1,21.6 			"/>
			<path d="M520.5,30.9c-3.4-3.2-7.4-5.8-12-7.5s-9.6-2.7-15-2.7c-5.4,0-10.4,0.9-15,2.7c-4.6,1.8-8.6,4.3-12,7.5
				c-3.4,3.2-6,7-7.9,11.4c-1.9,4.4-2.8,9.1-2.8,14.3s0.9,10,2.8,14.3c1.9,4.4,4.5,8.2,7.9,11.4c3.4,3.2,7.4,5.8,12,7.5
				c4.6,1.8,9.6,2.7,15.1,2.7c5.4,0,10.4-0.9,14.9-2.7s8.6-4.3,12-7.5c3.4-3.2,6-7,7.9-11.4c1.9-4.4,2.8-9.2,2.8-14.4
				s-0.9-10-2.8-14.3C526.5,37.9,523.9,34.1,520.5,30.9z M516.3,66.5c-1.2,3-3,5.6-5.1,7.8c-2.2,2.2-4.8,3.9-7.8,5.1
				c-3,1.2-6.3,1.8-9.8,1.8c-3.5,0-6.8-0.6-9.8-1.8c-3-1.2-5.6-2.9-7.8-5.1c-2.2-2.2-3.9-4.9-5.2-7.9c-1.2-3-1.8-6.3-1.8-9.8
				c0-3.6,0.6-6.9,1.8-9.8c1.2-3,3-5.6,5.2-7.8c2.2-2.2,4.8-3.9,7.8-5.1c3-1.2,6.2-1.8,9.8-1.8c3.5,0,6.8,0.6,9.8,1.8
				s5.6,2.9,7.8,5.1c2.2,2.2,3.9,4.8,5.1,7.8c1.2,3,1.9,6.2,1.9,9.8S517.5,63.5,516.3,66.5z"/>
			<polygon points="558,21.6 545,21.6 545,91.6 594.6,91.6 594.6,80.6 558,80.6 			"/>
			<path d="M657.4,91.6H671l-31.6-70h-12.8l-31.5,70h13.4l6.9-16.2h35L657.4,91.6z M619.8,65.2l13.1-30.6l13.2,30.6H619.8z"/>
		</g>
	</g>
</g>
</svg>
