<svg width="148" height="71" viewBox="0 0 148 71" fill="none" xmlns="http://www.w3.org/2000/svg">
<path d="M38 69.0005C46 67.8215 62 61.371 62 45.0005" stroke="#0D0D04" stroke-width="3" stroke-linecap="round"/>
<path d="M7.12353 19.1455C6.07307 18.9603 5.28637 18.6998 4.76342 18.3638C4.2536 18.0302 3.93764 17.5954 3.81553 17.0594C3.69342 16.5234 3.68869 15.8592 3.80135 15.0667L5.30713 4.22343L6.92222 4.50822L5.52757 14.7212C5.44038 15.3692 5.41148 15.8786 5.44089 16.2494C5.48573 16.6093 5.66728 16.885 5.98553 17.0765C6.31691 17.2703 6.85682 17.4332 7.60528 17.5652C7.88102 17.6138 8.06409 17.7273 8.15449 17.9057C8.26032 18.0733 8.29472 18.2622 8.25768 18.4723C8.22063 18.6824 8.09399 18.8631 7.87774 19.0145C7.66381 19.1528 7.41241 19.1965 7.12353 19.1455ZM7.12384 19.1456L7.60558 17.5652C8.15708 17.6625 8.59849 17.6929 8.92984 17.6566C9.2635 17.6071 9.53343 17.4584 9.73962 17.2104C9.96125 16.9517 10.1786 16.5635 10.3917 16.046C10.6048 15.5285 10.8731 14.8514 11.1967 14.0149L12.6809 14.5812C12.5867 14.8083 12.4813 15.0605 12.3647 15.3378C12.2481 15.6151 12.1381 15.8936 12.0346 16.1732C11.9466 16.442 11.8841 16.6814 11.847 16.8915C11.8007 17.1541 11.8181 17.4009 11.8992 17.6318C11.9804 17.8628 12.2075 18.0721 12.5806 18.2597C12.9537 18.4473 13.5473 18.6129 14.3614 18.7565C14.6371 18.8051 14.8202 18.9186 14.9106 19.097C15.0164 19.2646 15.0508 19.4535 15.0138 19.6635C14.9767 19.8736 14.8501 20.0544 14.6338 20.2058C14.4199 20.3441 14.1685 20.3878 13.8796 20.3368C13.0261 20.1863 12.3692 19.996 11.9088 19.7659C11.4508 19.5227 11.1367 19.2304 10.9668 18.889C10.7991 18.5345 10.7153 18.1271 10.7152 17.6668L11.2991 17.8103C11.015 18.1935 10.725 18.4944 10.4292 18.713C10.1465 18.9339 9.84801 19.0912 9.53367 19.1847C9.21932 19.2782 8.86712 19.3176 8.47707 19.303C8.08702 19.2884 7.63594 19.2359 7.12384 19.1456ZM11.5544 11.9862C11.2786 11.9376 11.0585 11.804 10.8939 11.5854C10.7448 11.356 10.6934 11.11 10.7397 10.8474C10.786 10.5848 10.9185 10.3712 11.137 10.2067C11.3687 10.0445 11.6224 9.98765 11.8982 10.0363C12.1608 10.0826 12.3667 10.2204 12.5158 10.4498C12.678 10.6815 12.736 10.9286 12.6897 11.1913C12.6433 11.4539 12.5043 11.6663 12.2727 11.8285C12.0564 11.9799 11.817 12.0325 11.5544 11.9862ZM13.8752 20.336L14.3569 18.7557C15.1447 18.8946 15.8994 18.9532 16.6208 18.9315C17.3445 18.8966 18.0172 18.8054 18.639 18.6578C19.2761 18.4993 19.8338 18.293 20.3118 18.0389C20.7922 17.7716 21.1753 17.4803 21.461 17.1651C21.7622 16.8392 21.9441 16.4989 22.0066 16.1444C22.0367 15.9737 22.0077 15.7925 21.9196 15.601C21.8338 15.3963 21.6569 15.2094 21.3889 15.0403C21.134 14.8735 20.7702 14.7485 20.2975 14.6651C20.0086 14.6142 19.6799 14.5968 19.3115 14.6131C18.9431 14.6294 18.582 14.6808 18.2283 14.7674C17.89 14.8431 17.6008 14.9478 17.3606 15.0814C17.6642 15.4328 17.9426 15.773 18.196 16.102C18.4625 16.4333 18.731 16.7921 19.0014 17.1782C19.2741 17.5512 19.5649 17.9749 19.874 18.4491C20.1366 18.7255 20.4379 18.975 20.7778 19.1974C21.1308 19.4221 21.5147 19.6252 21.9295 19.8066C22.3597 19.9772 22.8 20.1293 23.2503 20.2629C23.7029 20.3833 24.159 20.4841 24.6186 20.5651C24.8943 20.6137 25.0774 20.7272 25.1678 20.9056C25.2736 21.0732 25.308 21.2621 25.271 21.4722C25.234 21.6823 25.1073 21.863 24.8911 22.0144C24.6771 22.1527 24.4257 22.1964 24.1369 22.1455C23.4147 22.0181 22.6843 21.8216 21.9459 21.556C21.2229 21.2796 20.5575 20.9457 19.9496 20.5542C19.344 20.1495 18.8496 19.69 18.4664 19.1757C18.2941 18.8474 18.0956 18.5146 17.8708 18.1771C17.646 17.8396 17.3949 17.4974 17.1175 17.1507C16.8557 16.7931 16.564 16.4506 16.2427 16.1232C16.1755 16.0436 16.1175 15.9115 16.0688 15.7269C16.0202 15.5424 15.9858 15.3535 15.9657 15.1604C15.9455 14.9673 15.9436 14.8248 15.9598 14.7329C15.9945 14.536 16.1609 14.3216 16.4591 14.0898C16.7572 13.8581 17.1383 13.6545 17.6025 13.4791C18.069 13.2906 18.5864 13.1584 19.1549 13.0827C19.7234 13.0069 20.2965 13.0199 20.8742 13.1218C21.6227 13.2538 22.207 13.4719 22.6272 13.7762C23.0606 14.0827 23.351 14.4318 23.4986 14.8234C23.6616 15.2042 23.7084 15.5915 23.639 15.9854C23.5371 16.5632 23.2908 17.1155 22.9 17.6423C22.5116 18.156 22.0042 18.6148 21.3779 19.0189C20.7515 19.4229 20.0425 19.7582 19.2509 20.0248C18.4615 20.2782 17.6073 20.439 16.6882 20.5071C15.7845 20.5644 14.8468 20.5074 13.8752 20.336ZM24.1464 22.1471L24.6281 20.5668C24.9958 20.6316 25.3183 20.6072 25.5955 20.4937C25.8728 20.3801 26.162 20.1603 26.4632 19.8343C26.7644 19.5083 27.1073 19.0611 27.4918 18.4925C28.0208 17.7193 28.5073 17.1485 28.9514 16.78C29.4086 16.4138 29.8349 16.1844 30.2304 16.0916C30.6389 16.0012 31.027 15.9884 31.3947 16.0532C31.8412 16.1319 32.2339 16.323 32.5731 16.6265C32.9145 16.9169 33.1961 17.278 33.4178 17.7097C33.6395 18.1414 33.7887 18.601 33.8652 19.0883C33.9572 19.5649 33.9638 20.0264 33.8851 20.4728C33.7462 21.2607 33.4972 21.8666 33.1381 22.2907C32.7813 22.7017 32.3677 22.974 31.8974 23.1077C31.4424 23.2305 30.9852 23.2515 30.5256 23.1704C30.1186 23.0987 29.6072 22.9273 28.9916 22.6562C28.3891 22.3875 27.6587 21.8458 26.8005 21.0311L27.7875 19.9257C28.3591 20.4462 28.8871 20.8303 29.3714 21.0782C29.8712 21.3153 30.2917 21.4639 30.6331 21.5241C31.0139 21.5912 31.3252 21.592 31.5669 21.5263C31.811 21.4475 32.0041 21.3123 32.1462 21.1207C32.2883 20.9291 32.3825 20.702 32.4288 20.4394C32.4959 20.0586 32.4711 19.6616 32.3545 19.2484C32.2378 18.8352 32.057 18.4784 31.8121 18.178C31.5803 17.8799 31.3069 17.703 30.9918 17.6475C30.7554 17.6058 30.514 17.6309 30.2677 17.7229C30.0213 17.8148 29.7487 18.0172 29.4498 18.3301C29.1509 18.6429 28.7914 19.1076 28.3714 19.724C27.9312 20.3775 27.5296 20.8888 27.1667 21.2581C26.8191 21.6165 26.4836 21.8688 26.16 22.0148C25.8364 22.1608 25.5124 22.2323 25.188 22.2293C24.8744 22.2417 24.5272 22.2143 24.1464 22.1471ZM40.2157 24.8994C40.2713 24.5842 40.3566 24.254 40.4716 23.9087C40.6021 23.5527 40.7623 23.1815 40.9523 22.7953C41.1577 22.3983 41.3928 21.9862 41.6577 21.559L42.9786 22.3606C42.7824 22.7051 42.6029 23.0322 42.44 23.3419C42.2902 23.654 42.1635 23.9498 42.0601 24.2295C41.9697 24.5114 41.9014 24.7837 41.8551 25.0463C41.737 25.7159 41.8148 26.3118 42.0882 26.8339C42.3617 27.356 42.7611 27.7784 43.2864 28.1012C43.8225 28.4394 44.4188 28.6664 45.0753 28.7822C46.3621 29.0091 47.4071 28.9564 48.2104 28.6242C49.0113 28.3051 49.6222 27.7968 50.043 27.0993C50.4616 26.4149 50.7287 25.6293 50.8444 24.7426L52.547 12.5531L54.1818 12.8413L52.7361 22.8829C52.6443 23.5572 52.6567 24.1009 52.7734 24.5141C52.9055 24.9165 53.123 25.2189 53.4258 25.4212C53.7286 25.6235 54.077 25.7594 54.4709 25.8289C54.7466 25.8775 54.9297 25.991 55.0201 26.1694C55.1259 26.337 55.1603 26.5258 55.1233 26.7359C55.0862 26.946 54.9596 27.1268 54.7434 27.2782C54.5294 27.4165 54.278 27.4602 53.9891 27.4092C53.5821 27.3374 53.2434 27.2236 52.973 27.0676C52.705 26.8985 52.4941 26.7124 52.3404 26.5092C52.189 26.293 52.0804 26.064 52.0147 25.8223C51.9514 25.5674 51.9142 25.3171 51.9034 25.0715L52.3576 25.7203C52.1824 26.4069 51.9099 27.0697 51.54 27.7085C51.1809 28.3627 50.7021 28.9282 50.1036 29.4048C49.5051 29.8815 48.7555 30.2164 47.8549 30.4096C46.9675 30.6051 45.9132 30.5953 44.692 30.3799C44.0092 30.2595 43.3647 30.0376 42.7583 29.714C42.1628 29.4059 41.6502 29.0109 41.2207 28.529C40.8043 28.0494 40.5015 27.5019 40.3122 26.8863C40.1205 26.2839 40.0884 25.6216 40.2157 24.8994ZM63.4862 29.3478C62.3307 29.1441 61.3671 28.9268 60.5954 28.6959C59.8346 28.4806 59.2263 28.2447 58.7706 27.9883C58.3149 27.7319 57.9854 27.4505 57.7822 27.1439C57.579 26.8372 57.4639 26.492 57.4368 26.1081L57.9176 26.0304C57.4782 26.6028 57.0427 26.9999 56.6109 27.2216C56.1815 27.4302 55.7498 27.5369 55.3157 27.5416C54.8971 27.5355 54.458 27.4919 53.9984 27.4108L54.4801 25.8305C54.9397 25.9115 55.3255 25.9119 55.6375 25.8315C55.9627 25.7534 56.2438 25.5796 56.4809 25.31C56.7311 25.0427 56.9724 24.6724 57.2049 24.1988C57.4373 23.7253 57.7037 23.136 58.004 22.4308L59.3758 23.0585C59.2438 23.3466 59.1207 23.6228 59.0064 23.8869C58.8921 24.1511 58.7967 24.3848 58.7203 24.5879C58.6593 24.7802 58.6184 24.9355 58.5976 25.0537C58.542 25.3688 58.5668 25.6507 58.6718 25.8994C58.7792 26.135 59.0237 26.3609 59.4053 26.5771C59.7892 26.7802 60.3562 26.9817 61.1062 27.1816C61.8716 27.3707 62.8781 27.5753 64.1255 27.7952C64.9921 27.9481 65.7761 28.0321 66.4774 28.0475C67.1787 28.0628 67.7777 28.006 68.2743 27.8769C68.7864 27.7371 69.195 27.5315 69.5 27.2604C69.8051 26.9892 69.9935 26.6501 70.0652 26.2431C70.1162 25.9542 70.0937 25.6592 69.9979 25.358C69.9044 25.0436 69.724 24.7613 69.4568 24.5111C69.1895 24.2609 68.8064 24.0918 68.3074 24.0038C67.6771 23.8927 67.0179 23.9457 66.3297 24.1628C65.6547 24.3823 64.9909 24.6917 64.3383 25.0911C63.7011 25.4797 63.1207 25.8919 62.5971 26.3275C62.0735 26.7632 61.6468 27.1483 61.3171 27.4828L59.6139 27.1216C60.1545 26.5129 60.7762 25.9049 61.479 25.2977C62.1972 24.6797 62.9575 24.1301 63.76 23.6488C64.5778 23.1567 65.4066 22.7951 66.2461 22.564C67.088 22.3198 67.9094 22.2683 68.7103 22.4096C69.4325 22.5369 70.0231 22.7967 70.4819 23.189C70.9562 23.5705 71.2872 24.0351 71.475 24.5827C71.6759 25.1326 71.7208 25.7227 71.6096 26.3529C71.473 27.1277 71.1171 27.8028 70.5417 28.3783C69.9818 28.943 69.1288 29.3273 67.9826 29.5314C66.8364 29.7355 65.3376 29.6743 63.4862 29.3478ZM73.6197 30.7691L75.7055 16.6366L77.3009 16.9179L75.2151 31.0504L73.6197 30.7691ZM76.8445 36.0087L76.7748 34.3311C77.5811 34.3649 78.3299 34.3413 79.0212 34.2601C79.7233 34.1943 80.3419 34.0259 80.8772 33.7547C81.4255 33.4858 81.8819 33.0857 82.2464 32.5542C82.6109 32.0228 82.8696 31.3237 83.0224 30.4571C83.1798 29.5642 83.1465 28.7934 82.9224 28.1446C82.6983 27.4958 82.3237 27.1251 81.7984 27.0325C81.5227 26.9839 81.2481 27.0438 80.9747 27.2122C80.7013 27.3806 80.4546 27.6282 80.2345 27.955C80.0276 28.284 79.887 28.6587 79.8129 29.0788C79.7713 29.3152 79.7891 29.5214 79.8663 29.6975C79.9459 29.8605 80.0761 30.0053 80.2568 30.1319C80.453 30.2477 80.7052 30.3531 81.0134 30.4481C81.3216 30.5431 81.6858 30.6276 82.106 30.7017L86.2619 31.4345C86.5376 31.4831 86.7207 31.5966 86.8111 31.775C86.9169 31.9426 86.9513 32.1314 86.9143 32.3415C86.8772 32.5516 86.7506 32.7324 86.5343 32.8838C86.3204 33.0221 86.069 33.0658 85.7801 33.0148L81.0727 32.1848C80.4819 32.0806 79.9454 31.898 79.4634 31.637C78.9945 31.3783 78.6338 31.0439 78.3812 30.6338C78.144 30.2129 78.0775 29.707 78.1817 29.1161C78.2789 28.5647 78.4569 28.0545 78.7156 27.5856C78.9766 27.1036 79.2862 26.6911 79.6446 26.3481C80.0184 25.9943 80.423 25.734 80.8586 25.5671C81.3074 25.4025 81.7681 25.3619 82.2408 25.4452C82.8448 25.5517 83.3519 25.8239 83.7621 26.2618C84.1723 26.6997 84.4516 27.304 84.6 28.0749C84.7507 28.8325 84.73 29.7563 84.5378 30.8462C84.3225 32.0673 83.8878 33.0738 83.2337 33.8656C82.5904 34.6728 81.7301 35.2522 80.6527 35.6038C79.5884 35.9577 78.319 36.0926 76.8445 36.0087ZM85.7738 33.0137L86.2556 31.4334C86.9121 31.5491 87.4323 31.5935 87.8162 31.5664C88.2024 31.5262 88.5117 31.3844 88.7441 31.1411C88.992 30.8869 89.2225 30.5011 89.4356 29.9835C89.6487 29.466 89.917 28.789 90.2406 27.9525L91.7248 28.5188C91.6306 28.7459 91.5252 28.9981 91.4086 29.2754C91.292 29.5527 91.182 29.8311 91.0785 30.1108C90.9905 30.3796 90.928 30.619 90.8909 30.8291C90.8562 31.0261 90.8369 31.2122 90.8331 31.3875C90.8292 31.5629 90.9022 31.7247 91.0521 31.8729C91.202 32.0212 91.4735 32.1706 91.8666 32.3212C92.2621 32.4586 92.8406 32.5945 93.6022 32.7288C93.878 32.7774 94.061 32.8909 94.1514 33.0693C94.2573 33.2369 94.2917 33.4258 94.2546 33.6358C94.2176 33.8459 94.0909 34.0267 93.8747 34.1781C93.6608 34.3164 93.4094 34.3601 93.1205 34.3091C92.3195 34.1679 91.6896 34.0162 91.2308 33.8541C90.7743 33.6788 90.4363 33.4838 90.217 33.2691C90.0107 33.0568 89.8771 32.8166 89.816 32.5486C89.7704 32.2697 89.7514 31.955 89.7591 31.6043L90.343 31.7479C90.0589 32.1311 89.7689 32.4319 89.4731 32.6506C89.1904 32.8715 88.8788 33.0264 88.5382 33.1153C88.1976 33.2042 87.7994 33.2355 87.3437 33.2093C86.9011 33.1854 86.3778 33.1202 85.7738 33.0137ZM92.3906 26.2398C92.1149 26.1912 91.8947 26.0576 91.7302 25.839C91.5811 25.6097 91.5297 25.3637 91.576 25.101C91.6223 24.8384 91.7547 24.6248 91.9733 24.4603C92.205 24.2981 92.4587 24.2413 92.7344 24.2899C92.9971 24.3362 93.2029 24.474 93.352 24.7034C93.5142 24.9351 93.5722 25.1822 93.5259 25.4449C93.4796 25.7075 93.3406 25.9199 93.1089 26.0821C92.8927 26.2336 92.6532 26.2861 92.3906 26.2398ZM89.6922 25.764C89.4165 25.7154 89.1964 25.5818 89.0318 25.3632C88.8827 25.1339 88.8313 24.8879 88.8776 24.6252C88.9239 24.3626 89.0564 24.149 89.2749 23.9845C89.5066 23.8223 89.7603 23.7655 90.0361 23.8141C90.2987 23.8604 90.5045 23.9982 90.6536 24.2276C90.8159 24.4593 90.8738 24.7065 90.8275 24.9691C90.7812 25.2317 90.6422 25.4441 90.4105 25.6063C90.1943 25.7578 89.9549 25.8103 89.6922 25.764ZM93.1214 34.3093L93.5835 32.7255C94.3319 32.8574 94.8699 32.8778 95.1973 32.7866C95.5248 32.6955 95.7407 32.4695 95.8449 32.1088C95.9622 31.7504 96.0657 31.2406 96.1552 30.5794L97.5487 20.4881L99.1441 20.7694L97.8015 30.687C97.7051 31.3875 97.57 32 97.3963 32.5245C97.2357 33.0513 96.9851 33.4742 96.6445 33.7932C96.3171 34.1146 95.868 34.3197 95.2972 34.4086C94.7396 34.4998 94.0143 34.4667 93.1214 34.3093ZM100.067 35.4325L102.153 21.3L103.748 21.5813L101.663 35.7138L100.067 35.4325ZM113.833 41.6777C113.045 41.5388 112.319 41.3161 111.656 41.0095C110.99 40.7161 110.415 40.3304 109.93 39.8524C109.457 39.3898 109.115 38.8353 108.904 38.1888C108.706 37.5447 108.68 36.809 108.826 35.9817C108.861 35.7848 108.929 35.5125 109.031 35.1649C109.148 34.8065 109.331 34.3852 109.579 33.9009C109.826 33.4165 110.176 32.8959 110.626 32.339L111.945 33.2622C111.677 33.6345 111.447 33.9798 111.255 34.298C111.066 34.6031 110.913 34.8943 110.796 35.1716C110.695 35.4381 110.62 35.7092 110.572 35.985C110.463 36.6021 110.49 37.1416 110.652 37.6035C110.814 38.0653 111.083 38.4581 111.46 38.7816C111.834 39.1183 112.286 39.3944 112.816 39.6098C113.347 39.8252 113.928 39.9885 114.558 40.0997C115.319 40.2339 116.022 40.2833 116.664 40.2477C117.32 40.2144 117.907 40.1081 118.426 39.9288C118.943 39.7627 119.389 39.5367 119.764 39.2509C120.14 38.965 120.429 38.6302 120.632 38.2463C120.833 37.8755 121.006 37.4661 121.153 37.0181C121.302 36.557 121.417 36.0966 121.498 35.637C121.595 35.0856 121.614 34.5607 121.552 34.0625C121.491 33.5644 121.355 33.1477 121.143 32.8125C120.932 32.4773 120.642 32.2773 120.274 32.2125C119.972 32.1592 119.676 32.2288 119.385 32.4212C119.109 32.6027 118.867 32.858 118.661 33.1871C118.467 33.5184 118.339 33.8614 118.276 34.2159C118.227 34.4917 118.238 34.7373 118.309 34.9528C118.392 35.1706 118.555 35.3617 118.796 35.5262C119.04 35.6776 119.373 35.7903 119.793 35.8644C120.174 35.9315 120.561 35.9593 120.956 35.9476C121.364 35.9383 121.717 35.8923 122.016 35.8096L121.852 37.2022C121.497 37.3699 121.095 37.4615 120.646 37.477C120.209 37.4948 119.775 37.4655 119.341 37.3891C118.672 37.271 118.117 37.0784 117.676 36.8112C117.249 36.5463 116.943 36.2081 116.759 35.7964C116.587 35.3871 116.551 34.9001 116.651 34.3355C116.739 33.8365 116.905 33.3514 117.151 32.8803C117.399 32.3959 117.704 31.9692 118.067 31.5999C118.43 31.2307 118.837 30.9572 119.288 30.7795C119.741 30.5886 120.218 30.5372 120.717 30.6252C121.426 30.7502 121.969 31.083 122.348 31.6236C122.74 32.1666 122.981 32.8319 123.072 33.6198C123.179 34.3968 123.16 35.1989 123.014 36.0261C122.9 36.6695 122.728 37.3025 122.496 37.9251C122.28 38.5368 121.986 39.0876 121.616 39.5773C121.192 40.1389 120.7 40.5869 120.14 40.9215C119.578 41.2691 118.958 41.5187 118.282 41.6702C117.616 41.8371 116.912 41.916 116.168 41.9068C115.425 41.8976 114.647 41.8213 113.833 41.6777ZM122.079 28.7736C121.803 28.725 121.583 28.5914 121.418 28.3728C121.269 28.1435 121.218 27.8975 121.264 27.6348C121.311 27.3722 121.443 27.1586 121.662 26.9941C121.893 26.8319 122.147 26.7751 122.423 26.8237C122.685 26.87 122.891 27.0078 123.04 27.2372C123.202 27.4689 123.26 27.7161 123.214 27.9787C123.168 28.2413 123.029 28.4537 122.797 28.6159C122.581 28.7674 122.341 28.8199 122.079 28.7736ZM119.38 28.2978C119.105 28.2492 118.885 28.1156 118.72 27.897C118.571 27.6677 118.52 27.4217 118.566 27.159C118.612 26.8964 118.745 26.6828 118.963 26.5183C119.195 26.3561 119.449 26.2993 119.724 26.3479C119.987 26.3942 120.193 26.532 120.342 26.7614C120.504 26.9931 120.562 27.2403 120.516 27.5029C120.469 27.7655 120.33 27.9779 120.099 28.1401C119.883 28.2916 119.643 28.3441 119.38 28.2978ZM122.591 44.1156L122.284 42.518C123.298 42.3718 124.156 42.1508 124.858 41.8549C125.573 41.5613 126.155 41.2171 126.604 40.8224C127.065 40.4299 127.417 40.0113 127.658 39.5663C127.901 39.1083 128.062 38.656 128.141 38.2096C128.254 37.5662 128.224 36.8907 128.051 36.1833C127.894 35.465 127.696 34.7803 127.459 34.1292L129.025 33.654C129.194 34.1575 129.33 34.6487 129.436 35.1276C129.554 35.6088 129.65 36.0591 129.725 36.4785C129.813 36.9002 129.875 37.2833 129.909 37.6277C129.993 38.2248 130.161 38.6538 130.413 38.9148C130.68 39.165 131.07 39.3353 131.582 39.4256C131.858 39.4742 132.041 39.5877 132.131 39.7661C132.237 39.9337 132.271 40.1226 132.234 40.3327C132.197 40.5428 132.071 40.7235 131.854 40.8749C131.64 41.0132 131.389 41.0569 131.1 41.006C130.522 40.9041 130.067 40.7222 129.734 40.4605C129.417 40.1879 129.195 39.8712 129.069 39.5105C128.945 39.1367 128.883 38.7602 128.882 38.3809L129.45 38.8466C129.297 39.7132 128.961 40.4664 128.442 41.106C127.934 41.761 127.332 42.2979 126.635 42.7166C125.936 43.1485 125.228 43.4772 124.512 43.7029C123.795 43.9285 123.155 44.0661 122.591 44.1156ZM131.11 41.0076L131.591 39.4273L135.708 40.1531C136.85 40.3546 137.843 40.4823 138.687 40.5362C139.545 40.5793 140.261 40.5499 140.835 40.4479C141.408 40.3458 141.852 40.167 142.168 39.9112C142.486 39.6424 142.682 39.2979 142.756 38.8777C142.796 38.6545 142.766 38.3988 142.668 38.1108C142.57 37.8227 142.386 37.5601 142.117 37.323C141.849 37.0728 141.466 36.9037 140.967 36.8157C140.337 36.7046 139.678 36.7576 138.99 36.9747C138.315 37.1942 137.651 37.5036 136.998 37.903C136.361 38.2916 135.781 38.7038 135.257 39.1394C134.733 39.5751 134.307 39.9602 133.977 40.2947L132.274 39.9335C132.814 39.3248 133.436 38.7168 134.139 38.1096C134.857 37.4916 135.617 36.942 136.42 36.4607C137.238 35.9686 138.066 35.607 138.906 35.3759C139.748 35.1317 140.569 35.0802 141.37 35.2215C142.092 35.3488 142.683 35.6086 143.142 36.0009C143.616 36.3824 143.947 36.847 144.135 37.3946C144.336 37.9445 144.381 38.5346 144.27 39.1648C144.161 39.782 143.828 40.3663 143.27 40.9179C142.715 41.4563 141.861 41.8067 140.708 41.9691C140.125 42.0557 139.469 42.089 138.741 42.069C138.014 42.049 137.193 41.9788 136.28 41.8585C135.367 41.7381 134.333 41.576 133.178 41.3723L131.11 41.0076ZM133.325 39.3876L135.084 27.1066L136.679 27.3879L135.163 38.2902L133.325 39.3876Z" fill="black"/>
</svg>
