<svg width="442" height="381" viewBox="0 0 442 381" fill="none" xmlns="http://www.w3.org/2000/svg">
<path d="M345.687 224.367C344.959 222.517 344.062 220.779 343.165 218.985L341.427 220.723L344.342 223.638C344.566 223.919 344.622 224.199 344.678 224.479C345.015 224.423 345.351 224.423 345.687 224.367ZM339.016 211.305L335.54 214.837L339.465 218.761L341.931 216.295C341.034 214.613 340.025 212.987 339.016 211.305V211.305ZM336.718 225.432C338.343 225.32 339.969 225.096 341.595 224.872L339.465 222.742L336.718 225.432ZM333.522 216.799L329.486 220.892L333.186 224.592C333.242 224.704 333.242 224.816 333.298 224.872L337.446 220.723L333.522 216.799ZM330.215 225.657L327.468 222.854L324.889 225.432C326.683 225.545 328.421 225.657 330.215 225.657ZM334.756 204.746L330.103 209.399L333.522 212.875L337.503 208.895C336.606 207.493 335.765 206.092 334.756 204.746V204.746ZM326.122 209.399L321.918 205.195L317.825 209.231L322.03 213.492L326.122 209.399ZM329.262 197.851L323.88 203.176L328.084 207.437L333.018 202.504C331.784 200.934 330.551 199.308 329.262 197.851ZM328.084 211.361L324.048 215.454L327.468 218.929L331.56 214.837L328.084 211.361ZM322.03 217.472L315.134 224.367C317.153 224.704 319.171 225.04 321.189 225.208L325.506 220.892L322.03 217.472ZM321.974 190.507L316.592 195.888L321.918 201.214L327.356 195.776C325.618 193.926 323.824 192.189 321.974 190.507V190.507ZM273.033 197.682L277.854 192.805L275.556 190.451C274.266 192.413 272.921 194.319 271.519 196.169L273.033 197.682ZM271.015 199.645L269.837 198.411C268.996 199.476 268.043 200.542 267.146 201.551C267.483 201.887 267.875 202.167 268.212 202.448L271.015 199.645ZM269.277 161.131C269.893 161.187 270.51 161.299 271.071 161.355L277.574 154.852L273.818 151.096L266.866 158.048L268.884 160.066C269.165 160.346 269.277 160.739 269.277 161.131V161.131ZM270.342 204.298C271.8 205.419 273.257 206.54 274.827 207.661L276.957 205.531L273.033 201.607L270.342 204.298ZM262.886 96.493L270.846 104.454L277.742 97.5582C276.172 93.9703 274.378 90.4945 272.36 87.0749L262.886 96.493ZM269.837 126.093L261.316 134.614L266.25 139.604L274.827 131.026L269.837 126.093ZM270.846 108.434L263.503 115.778L269.837 122.113L277.181 114.769L270.846 108.434ZM265.801 160.907L264.904 160.01L264.119 160.795C264.68 160.851 265.24 160.851 265.801 160.907ZM266.25 143.528L259.298 150.479L264.904 156.085L271.856 149.134L266.25 143.528ZM252.963 126.261L259.354 132.652L267.875 124.075L261.54 117.74L252.963 126.261ZM260.924 98.5112L253.58 105.855L261.54 113.816L268.884 106.416L260.924 98.5112ZM254.421 206.708C256.159 205.195 257.784 203.569 259.354 201.943C259.242 201.831 259.13 201.719 259.018 201.607L254.196 206.484L254.421 206.708ZM254.589 88.1961L260.924 94.5309L270.846 84.6082C270.286 83.7112 269.837 82.8142 269.277 81.9733C268.156 80.2355 266.866 78.7218 265.633 77.0961L254.589 88.1961ZM254.477 160.738C256.439 160.682 258.401 160.514 260.363 160.57L262.886 158.048L257.336 152.498L251.786 158.048L254.477 160.738ZM262.606 73.2279C258.849 77.1521 255.486 81.5249 252.571 86.1779L263.951 74.8536C263.503 74.293 263.054 73.7324 262.606 73.2279V73.2279ZM259.354 136.576L252.403 143.528L257.336 148.517L264.287 141.566L259.354 136.576ZM209.853 208.614L203.742 214.669L209.684 220.611L215.795 214.557L209.853 208.614ZM205.199 229.076L202.845 231.375C204.134 231.207 205.424 231.095 206.713 230.87C206.769 230.87 206.825 230.814 206.937 230.814L205.199 229.076ZM199.313 219.21L205.199 225.096L207.722 222.573L201.78 216.687L199.313 219.21ZM207.89 206.596L202.733 201.495L196.622 207.549L201.78 212.707L207.89 206.596ZM202.733 197.514L210.021 190.17L204.134 184.284C201.331 186.302 198.64 188.601 196.118 190.899L202.733 197.514ZM192.249 232.216C195.053 232.216 197.912 231.992 200.715 231.711C200.715 231.655 200.659 231.655 200.603 231.655C200.098 231.095 200.098 230.198 200.603 229.693L203.181 227.114L197.295 221.228L189.334 229.132L192.137 231.879C192.193 231.992 192.193 232.104 192.249 232.216V232.216ZM199.818 214.669L194.66 209.567L192.137 212.034L197.295 217.192L199.818 214.669ZM194.099 192.861C192.025 194.879 190.063 196.954 188.213 199.14L194.66 205.587L200.715 199.476L194.099 192.861ZM184.233 204.129L190.119 210.072L192.642 207.549L186.363 201.27C185.634 202.223 184.962 203.176 184.233 204.129ZM187.372 227.114L195.277 219.21L190.119 214.052L182.215 221.957L187.372 227.114ZM188.437 232.16L187.372 231.095L186.307 232.16C187.036 232.216 187.709 232.16 188.437 232.16V232.16ZM182.551 206.484C180.365 209.623 178.29 212.931 176.553 216.295L180.196 219.995L188.157 212.034L182.551 206.484ZM170.946 229.301L178.234 221.957L175.263 218.985C173.581 222.349 172.124 225.769 170.946 229.301ZM173.525 230.646C176.553 231.207 179.58 231.599 182.607 231.879L185.354 229.132L180.196 223.975L173.525 230.646ZM308.015 222.966L306.053 221.004L304.931 222.125C305.94 222.405 307.006 222.685 308.015 222.966V222.966ZM314.518 184.34L309.753 189.105L314.63 193.926L319.956 188.601C318.218 187.087 316.368 185.685 314.518 184.34ZM307.79 187.087L312.163 182.658C310.481 181.537 308.743 180.472 307.006 179.407L303.53 182.882L307.79 187.087ZM315.863 211.249L308.071 219.042L311.266 222.237C311.659 222.685 311.659 223.246 311.434 223.807C311.49 223.807 311.603 223.807 311.715 223.863L320.068 215.454L315.863 211.249ZM310.537 201.943L315.863 207.269L319.9 203.176L314.63 197.907L310.537 201.943ZM303.698 195.104L308.575 199.981L312.612 195.888L307.79 191.067L303.698 195.104ZM300.727 211.754L306.053 217.079L313.845 209.287L308.575 203.961L300.727 211.754ZM301.736 193.142L305.772 189.105L301.568 184.845L297.531 188.937L301.736 193.142ZM304.539 177.949C302.801 176.996 301.007 176.211 299.269 175.37L297.643 176.996L301.568 180.92L304.539 177.949ZM295.681 178.958L291.645 183.051L295.513 186.919L299.606 182.882L295.681 178.958ZM293.943 204.914L298.765 209.735L306.557 201.943L301.736 197.122L293.943 204.914ZM294.112 218.425C296.634 219.49 299.213 220.443 301.848 221.284L304.09 219.042L298.765 213.716L294.112 218.425ZM293.607 172.904L295.681 174.978L296.578 174.025C295.625 173.632 294.56 173.296 293.607 172.904V172.904ZM295.513 190.899L287.721 198.692L291.925 202.952L299.718 195.16L295.513 190.899ZM287.104 211.754L291.925 216.575L296.803 211.754L291.925 206.876L287.104 211.754ZM284.862 213.996C285.198 214.164 285.59 214.332 285.927 214.557L285.142 213.716L284.862 213.996ZM284.862 176.267L289.627 181.032L293.663 176.94L289.403 172.679C289.01 172.287 289.01 171.726 289.178 171.222C288.057 170.885 286.936 170.493 285.815 170.213C285.086 172.175 284.301 174.137 283.404 176.043C283.909 175.875 284.469 175.875 284.862 176.267V176.267ZM273.818 147.116L282.339 138.595L276.789 133.045L268.268 141.566L273.818 147.116ZM282.283 109.667C281.33 106.472 280.265 103.332 279.031 100.249L272.809 106.416L279.199 112.807L282.283 109.667ZM285.759 200.71L280.881 205.531L285.086 209.735L289.963 204.914L285.759 200.71ZM279.592 152.89L284.974 147.508C285.142 147.34 285.31 147.34 285.534 147.284C285.759 145.266 285.871 143.304 285.983 141.285C285.871 141.285 285.815 141.398 285.759 141.398C285.366 141.398 285.03 141.229 284.749 140.949L284.357 140.613L275.78 149.134L279.592 152.89ZM282.675 177.725C280.993 181.313 279.087 184.845 277.013 188.208C277.125 188.264 277.293 188.264 277.406 188.376L279.872 190.843L287.665 183.051L282.899 178.285C282.731 178.117 282.731 177.893 282.675 177.725ZM276.789 129.064L284.133 121.72L279.199 116.731L271.856 124.075L276.789 129.064ZM278.751 131.026L284.357 136.632L286.039 134.895C285.983 131.419 285.703 127.999 285.254 124.523L278.751 131.026ZM284.862 151.545L281.554 154.852L283.853 157.151C284.245 155.301 284.581 153.451 284.862 151.545V151.545ZM281.834 192.805L285.759 196.729L293.551 188.937L289.627 185.013L281.834 192.805ZM266.642 69.3036C289.178 95.7082 296.298 129.737 289.066 159.729C288.674 161.467 288.113 163.205 287.609 164.887C318.442 174.193 340.53 196.057 351.237 222.966C351.237 223.022 351.237 223.078 351.293 223.19C358.469 221.508 365.477 219.042 372.092 215.622C417.109 192.413 432.469 137.922 411.503 95.3718C384.93 41.4415 312.387 26.8097 266.642 69.3036V69.3036ZM278.919 203.569L283.74 198.692L279.816 194.767L274.995 199.645L278.919 203.569ZM282.171 163.429C282.507 162.308 282.843 161.187 283.124 160.066C282.956 160.01 282.731 160.01 282.563 159.842L279.592 156.87L274.49 161.916C277.069 162.364 279.648 162.813 282.171 163.429V163.429ZM281.162 114.769L284.245 117.852C283.909 116.17 283.46 114.545 283.068 112.863L281.162 114.769ZM282.339 212.539L283.124 211.754L278.919 207.493L277.181 209.231C278.863 210.408 280.601 211.473 282.339 212.539V212.539ZM163.603 234.122C90.5555 214.164 69.8131 133.717 103.057 81.0203C134.956 30.5097 213.048 12.8506 262.774 65.0991C311.098 20.3067 388.237 35.3309 416.548 92.9052C438.748 137.978 422.546 195.888 374.671 220.611C367.831 224.143 360.656 226.778 353.199 228.572C363.234 259.349 357.236 294.779 337.334 320.343C291.084 379.935 197.407 367.378 167.919 298.592C158.949 277.625 157.94 254.976 163.603 234.122V234.122ZM250.272 210.352C251.001 209.792 251.674 209.175 252.346 208.558L252.234 208.446L250.272 210.352ZM250.665 160.907L249.824 160.01L248.703 161.131C249.431 161.075 249.599 161.019 249.599 161.019C249.824 160.963 250.104 160.963 250.665 160.907V160.907ZM253.468 195.72L248.478 200.71L252.234 204.466L256.999 199.645C255.766 198.411 254.589 197.066 253.468 195.72ZM243.04 116.338L251.001 124.299L259.522 115.778L251.562 107.817L243.04 116.338ZM244.049 135.231L250.384 141.566L257.336 134.614L251.001 128.279L244.049 135.231ZM280.377 168.755C266.362 165.448 254.477 165.56 242.648 167.746C246.853 178.622 254.028 188.937 263.054 197.795C270.454 189.161 276.396 179.295 280.377 168.755V168.755ZM246.012 98.287L251.562 103.837L258.962 96.493L252.571 90.1582L247.413 95.3158C246.965 96.2688 246.46 97.2779 246.012 98.287V98.287ZM250.384 145.546L244.834 151.096L249.824 156.085L255.374 150.479L250.384 145.546ZM240.854 151.096L238.107 148.349C238.331 149.975 238.499 151.601 238.78 153.17L240.854 151.096ZM242.087 133.213L249.039 126.261L241.078 118.357L239.228 120.151C238.724 123.122 238.275 126.149 237.995 129.176L242.087 133.213ZM244.049 161.86C244.386 161.467 247.413 158.44 247.806 158.048L242.872 153.114L239.34 156.59C239.396 156.702 239.396 156.814 239.396 156.982C239.789 158.776 240.237 160.57 240.742 162.364C241.863 162.14 242.928 162.028 244.049 161.86V161.86ZM244.834 101.09C243.153 105.238 241.751 109.555 240.63 113.928L241.078 114.376L249.599 105.855L244.834 101.09ZM241.022 193.254L246.46 198.748L251.618 193.59C249.992 191.572 248.422 189.498 246.909 187.367L241.022 193.254ZM233.118 185.349L239.004 191.292L245.283 185.013C243.713 182.546 242.312 180.023 240.966 177.501L233.118 185.349ZM246.46 202.672L236.481 212.651L240.237 216.407L250.216 206.484L246.46 202.672ZM237.715 132.82C237.603 134.446 237.603 136.072 237.546 137.698L240.069 135.231L237.715 132.82ZM242.087 137.249L237.659 141.622C237.659 142.407 237.715 143.192 237.771 144.032L242.872 149.134L248.422 143.584L242.087 137.249ZM229.025 205.195L234.519 210.688L244.498 200.71L239.004 195.272L229.025 205.195ZM231.099 183.387L239.621 174.866C238.668 172.904 237.827 170.942 237.098 168.979C236.201 169.204 235.304 169.428 234.463 169.652C234.407 169.708 234.463 169.708 234.407 169.764L225.942 178.229L231.099 183.387ZM228.409 223.975C231.884 222.405 235.248 220.667 238.556 218.649L234.519 214.669L227.175 221.957L228.072 222.854C228.409 223.19 228.465 223.582 228.409 223.975V223.975ZM209.853 204.634L217.196 197.29L212.039 192.188L204.695 199.476L209.853 204.634ZM219.159 195.328L229.137 185.349L223.98 180.192L214.001 190.17L219.159 195.328ZM242.648 222.629C220.616 236.476 195.669 241.242 169.04 235.467C163.659 255.145 164.556 276.56 173.077 296.405C200.827 361.155 289.178 373.264 332.906 316.923C351.798 292.593 357.404 258.901 347.706 229.749C317.769 235.131 287.384 226.666 263.446 205.699C257.84 211.585 251.506 216.855 244.722 221.284C244.778 221.732 244.778 222.181 244.386 222.573C243.937 223.022 243.377 223.134 242.648 222.629V222.629ZM221.121 197.29L227.063 203.232L237.042 193.254L231.099 187.367L221.121 197.29ZM227.063 207.213L219.719 214.557L225.213 219.995L232.557 212.651L227.063 207.213ZM221.849 174.137L223.98 176.211L228.801 171.39C226.446 172.231 224.148 173.128 221.849 174.137ZM212.039 188.208L222.018 178.229L219.159 175.37C212.375 178.622 210.693 179.799 206.489 182.658L212.039 188.208ZM165.116 228.796C175.487 197.57 200.659 172.455 235.304 163.654C234.743 161.804 234.295 159.954 233.903 158.104C227.399 126.317 237.21 91.7839 258.793 69.0794C210.974 18.6809 137.366 37.1809 107.822 84.0476C76.2601 133.998 96.2177 210.072 165.116 228.796ZM218.934 226.273L223.251 221.957L217.757 216.519L211.646 222.573L215.346 226.273C215.907 226.834 215.907 227.675 215.346 228.235C214.786 228.796 213.889 228.796 213.384 228.235L209.684 224.592L207.162 227.114L209.348 229.301C209.628 229.525 209.74 229.861 209.74 230.198C212.768 229.525 215.795 228.74 218.766 227.787C218.542 227.226 218.542 226.666 218.934 226.273V226.273ZM217.757 212.539L225.101 205.195L219.159 199.308L211.815 206.596L217.757 212.539ZM225.213 223.975L222.915 226.273C224.036 225.825 225.213 225.432 226.334 224.928C226.278 224.872 226.166 224.928 226.11 224.872L225.213 223.975Z" fill="black"/>
<path d="M114.88 140V126H117.48V140H114.88ZM127.087 129.2C127.94 129.2 128.7 129.367 129.367 129.7C130.047 130.033 130.58 130.547 130.967 131.24C131.353 131.92 131.547 132.8 131.547 133.88V140H129.047V134.2C129.047 133.253 128.82 132.547 128.367 132.08C127.927 131.613 127.307 131.38 126.507 131.38C125.92 131.38 125.4 131.5 124.947 131.74C124.493 131.98 124.14 132.34 123.887 132.82C123.647 133.287 123.527 133.88 123.527 134.6V140H121.027V129.32H123.407V132.2L122.987 131.32C123.36 130.64 123.9 130.12 124.607 129.76C125.327 129.387 126.153 129.2 127.087 129.2ZM140.778 129.2C141.631 129.2 142.391 129.367 143.058 129.7C143.738 130.033 144.271 130.547 144.658 131.24C145.045 131.92 145.238 132.8 145.238 133.88V140H142.738V134.2C142.738 133.253 142.511 132.547 142.058 132.08C141.618 131.613 140.998 131.38 140.198 131.38C139.611 131.38 139.091 131.5 138.638 131.74C138.185 131.98 137.831 132.34 137.578 132.82C137.338 133.287 137.218 133.88 137.218 134.6V140H134.718V129.32H137.098V132.2L136.678 131.32C137.051 130.64 137.591 130.12 138.298 129.76C139.018 129.387 139.845 129.2 140.778 129.2ZM153.229 140.14C152.136 140.14 151.162 139.907 150.309 139.44C149.456 138.96 148.782 138.307 148.289 137.48C147.796 136.653 147.549 135.713 147.549 134.66C147.549 133.593 147.796 132.653 148.289 131.84C148.782 131.013 149.456 130.367 150.309 129.9C151.162 129.433 152.136 129.2 153.229 129.2C154.336 129.2 155.316 129.433 156.169 129.9C157.036 130.367 157.709 131.007 158.189 131.82C158.682 132.633 158.929 133.58 158.929 134.66C158.929 135.713 158.682 136.653 158.189 137.48C157.709 138.307 157.036 138.96 156.169 139.44C155.316 139.907 154.336 140.14 153.229 140.14ZM153.229 138C153.842 138 154.389 137.867 154.869 137.6C155.349 137.333 155.722 136.947 155.989 136.44C156.269 135.933 156.409 135.34 156.409 134.66C156.409 133.967 156.269 133.373 155.989 132.88C155.722 132.373 155.349 131.987 154.869 131.72C154.389 131.453 153.849 131.32 153.249 131.32C152.636 131.32 152.089 131.453 151.609 131.72C151.142 131.987 150.769 132.373 150.489 132.88C150.209 133.373 150.069 133.967 150.069 134.66C150.069 135.34 150.209 135.933 150.489 136.44C150.769 136.947 151.142 137.333 151.609 137.6C152.089 137.867 152.629 138 153.229 138ZM163.867 140L159.287 129.32H161.887L165.827 138.74H164.547L168.627 129.32H171.027L166.447 140H163.867ZM178.837 140V137.84L178.697 137.38V133.6C178.697 132.867 178.477 132.3 178.037 131.9C177.597 131.487 176.931 131.28 176.037 131.28C175.437 131.28 174.844 131.373 174.257 131.56C173.684 131.747 173.197 132.007 172.797 132.34L171.817 130.52C172.391 130.08 173.071 129.753 173.857 129.54C174.657 129.313 175.484 129.2 176.337 129.2C177.884 129.2 179.077 129.573 179.917 130.32C180.771 131.053 181.197 132.193 181.197 133.74V140H178.837ZM175.477 140.14C174.677 140.14 173.977 140.007 173.377 139.74C172.777 139.46 172.311 139.08 171.977 138.6C171.657 138.107 171.497 137.553 171.497 136.94C171.497 136.34 171.637 135.8 171.917 135.32C172.211 134.84 172.684 134.46 173.337 134.18C173.991 133.9 174.857 133.76 175.937 133.76H179.037V135.42H176.117C175.264 135.42 174.691 135.56 174.397 135.84C174.104 136.107 173.957 136.44 173.957 136.84C173.957 137.293 174.137 137.653 174.497 137.92C174.857 138.187 175.357 138.32 175.997 138.32C176.611 138.32 177.157 138.18 177.637 137.9C178.131 137.62 178.484 137.207 178.697 136.66L179.117 138.16C178.877 138.787 178.444 139.273 177.817 139.62C177.204 139.967 176.424 140.14 175.477 140.14ZM188.426 140.14C187.252 140.14 186.346 139.84 185.706 139.24C185.066 138.627 184.746 137.727 184.746 136.54V126.96H187.246V136.48C187.246 136.987 187.372 137.38 187.626 137.66C187.892 137.94 188.259 138.08 188.726 138.08C189.286 138.08 189.752 137.933 190.126 137.64L190.826 139.42C190.532 139.66 190.172 139.84 189.746 139.96C189.319 140.08 188.879 140.14 188.426 140.14ZM182.986 131.4V129.4H190.106V131.4H182.986ZM192.882 140V129.32H195.382V140H192.882ZM194.142 127.56C193.676 127.56 193.289 127.413 192.982 127.12C192.689 126.827 192.542 126.473 192.542 126.06C192.542 125.633 192.689 125.28 192.982 125C193.289 124.707 193.676 124.56 194.142 124.56C194.609 124.56 194.989 124.7 195.282 124.98C195.589 125.247 195.742 125.587 195.742 126C195.742 126.44 195.596 126.813 195.302 127.12C195.009 127.413 194.622 127.56 194.142 127.56ZM203.463 140.14C202.37 140.14 201.397 139.907 200.543 139.44C199.69 138.96 199.017 138.307 198.523 137.48C198.03 136.653 197.783 135.713 197.783 134.66C197.783 133.593 198.03 132.653 198.523 131.84C199.017 131.013 199.69 130.367 200.543 129.9C201.397 129.433 202.37 129.2 203.463 129.2C204.57 129.2 205.55 129.433 206.403 129.9C207.27 130.367 207.943 131.007 208.423 131.82C208.917 132.633 209.163 133.58 209.163 134.66C209.163 135.713 208.917 136.653 208.423 137.48C207.943 138.307 207.27 138.96 206.403 139.44C205.55 139.907 204.57 140.14 203.463 140.14ZM203.463 138C204.077 138 204.623 137.867 205.103 137.6C205.583 137.333 205.957 136.947 206.223 136.44C206.503 135.933 206.643 135.34 206.643 134.66C206.643 133.967 206.503 133.373 206.223 132.88C205.957 132.373 205.583 131.987 205.103 131.72C204.623 131.453 204.083 131.32 203.483 131.32C202.87 131.32 202.323 131.453 201.843 131.72C201.377 131.987 201.003 132.373 200.723 132.88C200.443 133.373 200.303 133.967 200.303 134.66C200.303 135.34 200.443 135.933 200.723 136.44C201.003 136.947 201.377 137.333 201.843 137.6C202.323 137.867 202.863 138 203.463 138ZM217.614 129.2C218.467 129.2 219.227 129.367 219.894 129.7C220.574 130.033 221.107 130.547 221.494 131.24C221.881 131.92 222.074 132.8 222.074 133.88V140H219.574V134.2C219.574 133.253 219.347 132.547 218.894 132.08C218.454 131.613 217.834 131.38 217.034 131.38C216.447 131.38 215.927 131.5 215.474 131.74C215.021 131.98 214.667 132.34 214.414 132.82C214.174 133.287 214.054 133.88 214.054 134.6V140H211.554V129.32H213.934V132.2L213.514 131.32C213.887 130.64 214.427 130.12 215.134 129.76C215.854 129.387 216.681 129.2 217.614 129.2Z" fill="#222934"/>
<path d="M307.64 140V129.32H310.14V140H307.64ZM308.9 127.56C308.433 127.56 308.047 127.413 307.74 127.12C307.447 126.827 307.3 126.473 307.3 126.06C307.3 125.633 307.447 125.28 307.74 125C308.047 124.707 308.433 124.56 308.9 124.56C309.367 124.56 309.747 124.7 310.04 124.98C310.347 125.247 310.5 125.587 310.5 126C310.5 126.44 310.353 126.813 310.06 127.12C309.767 127.413 309.38 127.56 308.9 127.56ZM319.481 129.2C320.335 129.2 321.095 129.367 321.761 129.7C322.441 130.033 322.975 130.547 323.361 131.24C323.748 131.92 323.941 132.8 323.941 133.88V140H321.441V134.2C321.441 133.253 321.215 132.547 320.761 132.08C320.321 131.613 319.701 131.38 318.901 131.38C318.315 131.38 317.795 131.5 317.341 131.74C316.888 131.98 316.535 132.34 316.281 132.82C316.041 133.287 315.921 133.88 315.921 134.6V140H313.421V129.32H315.801V132.2L315.381 131.32C315.755 130.64 316.295 130.12 317.001 129.76C317.721 129.387 318.548 129.2 319.481 129.2ZM331.133 140.14C329.959 140.14 329.053 139.84 328.413 139.24C327.773 138.627 327.453 137.727 327.453 136.54V126.96H329.953V136.48C329.953 136.987 330.079 137.38 330.333 137.66C330.599 137.94 330.966 138.08 331.433 138.08C331.993 138.08 332.459 137.933 332.833 137.64L333.533 139.42C333.239 139.66 332.879 139.84 332.453 139.96C332.026 140.08 331.586 140.14 331.133 140.14ZM325.693 131.4V129.4H332.813V131.4H325.693ZM340.258 140.14C339.071 140.14 338.031 139.907 337.138 139.44C336.258 138.96 335.571 138.307 335.078 137.48C334.598 136.653 334.358 135.713 334.358 134.66C334.358 133.593 334.591 132.653 335.058 131.84C335.538 131.013 336.191 130.367 337.018 129.9C337.858 129.433 338.811 129.2 339.878 129.2C340.918 129.2 341.844 129.427 342.658 129.88C343.471 130.333 344.111 130.973 344.578 131.8C345.044 132.627 345.278 133.6 345.278 134.72C345.278 134.827 345.271 134.947 345.258 135.08C345.258 135.213 345.251 135.34 345.238 135.46H336.338V133.8H343.918L342.938 134.32C342.951 133.707 342.824 133.167 342.558 132.7C342.291 132.233 341.924 131.867 341.458 131.6C341.004 131.333 340.478 131.2 339.878 131.2C339.264 131.2 338.724 131.333 338.258 131.6C337.804 131.867 337.444 132.24 337.178 132.72C336.924 133.187 336.798 133.74 336.798 134.38V134.78C336.798 135.42 336.944 135.987 337.238 136.48C337.531 136.973 337.944 137.353 338.478 137.62C339.011 137.887 339.624 138.02 340.318 138.02C340.918 138.02 341.458 137.927 341.938 137.74C342.418 137.553 342.844 137.26 343.218 136.86L344.558 138.4C344.078 138.96 343.471 139.393 342.738 139.7C342.018 139.993 341.191 140.14 340.258 140.14ZM352.519 144.02C351.532 144.02 350.566 143.887 349.619 143.62C348.686 143.367 347.919 142.993 347.319 142.5L348.439 140.62C348.906 141.007 349.492 141.313 350.199 141.54C350.919 141.78 351.646 141.9 352.379 141.9C353.552 141.9 354.412 141.627 354.959 141.08C355.506 140.547 355.779 139.74 355.779 138.66V136.76L355.979 134.34L355.899 131.92V129.32H358.279V138.38C358.279 140.313 357.786 141.733 356.799 142.64C355.812 143.56 354.386 144.02 352.519 144.02ZM352.199 139.52C351.186 139.52 350.266 139.307 349.439 138.88C348.626 138.44 347.979 137.833 347.499 137.06C347.032 136.287 346.799 135.38 346.799 134.34C346.799 133.313 347.032 132.413 347.499 131.64C347.979 130.867 348.626 130.267 349.439 129.84C350.266 129.413 351.186 129.2 352.199 129.2C353.106 129.2 353.919 129.38 354.639 129.74C355.359 130.1 355.932 130.66 356.359 131.42C356.799 132.18 357.019 133.153 357.019 134.34C357.019 135.527 356.799 136.507 356.359 137.28C355.932 138.04 355.359 138.607 354.639 138.98C353.919 139.34 353.106 139.52 352.199 139.52ZM352.579 137.4C353.206 137.4 353.766 137.273 354.259 137.02C354.752 136.753 355.132 136.393 355.399 135.94C355.679 135.473 355.819 134.94 355.819 134.34C355.819 133.74 355.679 133.213 355.399 132.76C355.132 132.293 354.752 131.94 354.259 131.7C353.766 131.447 353.206 131.32 352.579 131.32C351.952 131.32 351.386 131.447 350.879 131.7C350.386 131.94 349.999 132.293 349.719 132.76C349.452 133.213 349.319 133.74 349.319 134.34C349.319 134.94 349.452 135.473 349.719 135.94C349.999 136.393 350.386 136.753 350.879 137.02C351.386 137.273 351.952 137.4 352.579 137.4ZM361.566 140V129.32H363.946V132.26L363.666 131.4C363.986 130.68 364.486 130.133 365.166 129.76C365.859 129.387 366.719 129.2 367.746 129.2V131.58C367.639 131.553 367.539 131.54 367.446 131.54C367.352 131.527 367.259 131.52 367.166 131.52C366.219 131.52 365.466 131.8 364.906 132.36C364.346 132.907 364.066 133.727 364.066 134.82V140H361.566ZM369.867 140V129.32H372.367V140H369.867ZM371.127 127.56C370.66 127.56 370.273 127.413 369.967 127.12C369.673 126.827 369.527 126.473 369.527 126.06C369.527 125.633 369.673 125.28 369.967 125C370.273 124.707 370.66 124.56 371.127 124.56C371.593 124.56 371.973 124.7 372.267 124.98C372.573 125.247 372.727 125.587 372.727 126C372.727 126.44 372.58 126.813 372.287 127.12C371.993 127.413 371.607 127.56 371.127 127.56ZM379.668 140.14C378.494 140.14 377.588 139.84 376.948 139.24C376.308 138.627 375.988 137.727 375.988 136.54V126.96H378.488V136.48C378.488 136.987 378.614 137.38 378.868 137.66C379.134 137.94 379.501 138.08 379.968 138.08C380.528 138.08 380.994 137.933 381.368 137.64L382.068 139.42C381.774 139.66 381.414 139.84 380.988 139.96C380.561 140.08 380.121 140.14 379.668 140.14ZM374.228 131.4V129.4H381.348V131.4H374.228ZM384.809 144.02C384.289 144.02 383.769 143.933 383.249 143.76C382.729 143.587 382.296 143.347 381.949 143.04L382.949 141.2C383.202 141.427 383.489 141.607 383.809 141.74C384.129 141.873 384.456 141.94 384.789 141.94C385.242 141.94 385.609 141.827 385.889 141.6C386.169 141.373 386.429 140.993 386.669 140.46L387.289 139.06L387.489 138.76L391.529 129.32H393.929L388.929 140.86C388.596 141.66 388.222 142.293 387.809 142.76C387.409 143.227 386.956 143.553 386.449 143.74C385.956 143.927 385.409 144.02 384.809 144.02ZM387.009 140.38L382.189 129.32H384.789L388.709 138.54L387.009 140.38Z" fill="#222934"/>
<path d="M223.9 289L230.2 275H232.76L239.08 289H236.36L230.94 276.38H231.98L226.58 289H223.9ZM226.8 285.76L227.5 283.72H235.06L235.76 285.76H226.8ZM245.363 293.02C244.376 293.02 243.409 292.887 242.463 292.62C241.529 292.367 240.763 291.993 240.163 291.5L241.283 289.62C241.749 290.007 242.336 290.313 243.043 290.54C243.763 290.78 244.489 290.9 245.223 290.9C246.396 290.9 247.256 290.627 247.803 290.08C248.349 289.547 248.623 288.74 248.623 287.66V285.76L248.823 283.34L248.743 280.92V278.32H251.123V287.38C251.123 289.313 250.629 290.733 249.643 291.64C248.656 292.56 247.229 293.02 245.363 293.02ZM245.043 288.52C244.029 288.52 243.109 288.307 242.283 287.88C241.469 287.44 240.823 286.833 240.343 286.06C239.876 285.287 239.643 284.38 239.643 283.34C239.643 282.313 239.876 281.413 240.343 280.64C240.823 279.867 241.469 279.267 242.283 278.84C243.109 278.413 244.029 278.2 245.043 278.2C245.949 278.2 246.763 278.38 247.483 278.74C248.203 279.1 248.776 279.66 249.203 280.42C249.643 281.18 249.863 282.153 249.863 283.34C249.863 284.527 249.643 285.507 249.203 286.28C248.776 287.04 248.203 287.607 247.483 287.98C246.763 288.34 245.949 288.52 245.043 288.52ZM245.423 286.4C246.049 286.4 246.609 286.273 247.103 286.02C247.596 285.753 247.976 285.393 248.243 284.94C248.523 284.473 248.663 283.94 248.663 283.34C248.663 282.74 248.523 282.213 248.243 281.76C247.976 281.293 247.596 280.94 247.103 280.7C246.609 280.447 246.049 280.32 245.423 280.32C244.796 280.32 244.229 280.447 243.723 280.7C243.229 280.94 242.843 281.293 242.563 281.76C242.296 282.213 242.163 282.74 242.163 283.34C242.163 283.94 242.296 284.473 242.563 284.94C242.843 285.393 243.229 285.753 243.723 286.02C244.229 286.273 244.796 286.4 245.423 286.4ZM254.41 289V278.32H256.91V289H254.41ZM255.67 276.56C255.203 276.56 254.816 276.413 254.51 276.12C254.216 275.827 254.07 275.473 254.07 275.06C254.07 274.633 254.216 274.28 254.51 274C254.816 273.707 255.203 273.56 255.67 273.56C256.136 273.56 256.516 273.7 256.81 273.98C257.116 274.247 257.27 274.587 257.27 275C257.27 275.44 257.123 275.813 256.83 276.12C256.536 276.413 256.15 276.56 255.67 276.56ZM260.191 289V274.16H262.691V289H260.191ZM265.972 289V278.32H268.472V289H265.972ZM267.232 276.56C266.765 276.56 266.379 276.413 266.072 276.12C265.779 275.827 265.632 275.473 265.632 275.06C265.632 274.633 265.779 274.28 266.072 274C266.379 273.707 266.765 273.56 267.232 273.56C267.699 273.56 268.079 273.7 268.372 273.98C268.679 274.247 268.832 274.587 268.832 275C268.832 275.44 268.685 275.813 268.392 276.12C268.099 276.413 267.712 276.56 267.232 276.56ZM275.773 289.14C274.6 289.14 273.693 288.84 273.053 288.24C272.413 287.627 272.093 286.727 272.093 285.54V275.96H274.593V285.48C274.593 285.987 274.72 286.38 274.973 286.66C275.24 286.94 275.607 287.08 276.073 287.08C276.633 287.08 277.1 286.933 277.473 286.64L278.173 288.42C277.88 288.66 277.52 288.84 277.093 288.96C276.667 289.08 276.227 289.14 275.773 289.14ZM270.333 280.4V278.4H277.453V280.4H270.333ZM280.915 293.02C280.395 293.02 279.875 292.933 279.355 292.76C278.835 292.587 278.401 292.347 278.055 292.04L279.055 290.2C279.308 290.427 279.595 290.607 279.915 290.74C280.235 290.873 280.561 290.94 280.895 290.94C281.348 290.94 281.715 290.827 281.995 290.6C282.275 290.373 282.535 289.993 282.775 289.46L283.395 288.06L283.595 287.76L287.635 278.32H290.035L285.035 289.86C284.701 290.66 284.328 291.293 283.915 291.76C283.515 292.227 283.061 292.553 282.555 292.74C282.061 292.927 281.515 293.02 280.915 293.02ZM283.115 289.38L278.295 278.32H280.895L284.815 287.54L283.115 289.38Z" fill="#222934"/>
<path d="M72.7383 75.9687C64.7383 74.7898 48.7383 68.3393 48.7383 51.9688" stroke="#0D0D04" stroke-width="3" stroke-linecap="round"/>
<path d="M13.3162 43.7142C12.9801 43.7738 12.5574 43.7729 12.0482 43.7116C11.5638 43.6675 11.0952 43.469 10.6426 43.1159C10.2147 42.7801 9.93187 42.2236 9.79402 41.4464C9.67853 40.7953 9.66486 39.9852 9.75301 39.0163C9.84115 38.0473 9.97369 36.9622 10.1506 35.7608C10.3275 34.5594 10.4896 33.2741 10.6367 31.9047C10.7801 30.5143 10.853 29.093 10.8555 27.6409C10.8542 26.1679 10.7232 24.6961 10.4624 23.2257C10.332 22.4905 10.164 21.8487 9.95838 21.3002C9.75276 20.7516 9.48548 20.3441 9.15652 20.0774C8.82757 19.8108 8.40052 19.724 7.87539 19.8171C7.32924 19.914 6.89506 20.1535 6.57284 20.5356C6.25063 20.9178 6.00819 21.3833 5.84554 21.9321C5.70389 22.4772 5.61848 23.034 5.58931 23.6025C5.58114 24.1673 5.6199 24.6912 5.70559 25.1744C5.76892 25.5315 5.8619 25.8725 5.98452 26.1974C6.12815 26.5186 6.31379 26.8323 6.54144 27.1386C5.51217 27.3211 4.72363 27.2118 4.17583 26.8107C3.62802 26.4095 3.29078 25.8518 3.16412 25.1376C3.05235 24.5075 3.0944 23.8283 3.29027 23.1003C3.48614 22.3722 3.80871 21.6867 4.258 21.0437C4.72456 20.376 5.29563 19.8088 5.97122 19.3424C6.66408 18.8512 7.43063 18.531 8.27085 18.382C9.69922 18.1287 10.8741 18.462 11.7956 19.3818C12.7134 20.2807 13.3324 21.6334 13.6528 23.4399C13.8577 24.5952 13.9354 25.8272 13.8858 27.136C13.8573 28.441 13.7676 29.7677 13.6168 31.1161C13.4622 32.4435 13.2915 33.7413 13.1048 35.0094C12.939 36.2737 12.8109 37.4448 12.7204 38.5225C12.6471 39.5754 12.6776 40.48 12.8117 41.2362C12.8713 41.5723 12.9599 41.8274 13.0774 42.0016C13.216 42.172 13.4428 42.2293 13.7579 42.1734C14.367 42.0654 14.9994 41.6607 15.655 40.9594C16.3317 40.2544 16.9939 39.3462 17.6417 38.2346C18.2858 37.1021 18.8866 35.8472 19.444 34.47C20.0014 33.0929 20.476 31.6762 20.8677 30.2201C21.2595 28.764 21.5165 27.3426 21.6389 25.9559C21.7823 24.5655 21.7553 23.3137 21.5578 22.2004C21.3604 21.0871 21.0099 20.2717 20.5065 19.7544C20.0031 19.237 19.4282 18.9273 18.7818 18.8253C18.9641 18.143 19.2411 17.628 19.6128 17.2804C20.0017 16.9081 20.3642 16.6922 20.7003 16.6326C21.2675 16.532 21.8665 16.7941 22.4972 17.4188C23.128 18.0436 23.5589 19.0072 23.7899 20.3095C23.9911 21.4438 24.0015 22.7853 23.8212 24.3339C23.6581 25.8578 23.3382 27.4745 22.8614 29.184C22.3809 30.8726 21.7898 32.5482 21.088 34.211C20.4036 35.849 19.6319 37.3617 18.7729 38.749C17.9313 40.1116 17.0468 41.2326 16.1195 42.112C15.1958 43.0125 14.2614 43.5466 13.3162 43.7142ZM27.4149 39.9137C26.7217 40.0367 26.0821 39.9118 25.496 39.5391C24.8889 39.1701 24.5034 38.5235 24.3394 37.5992C24.209 36.864 24.2355 36.036 24.4189 35.1152C24.6022 34.1944 24.9135 33.2617 25.3526 32.3171C25.7917 31.3726 26.3298 30.4972 26.9668 29.6909C27.6 28.8636 28.31 28.1635 29.0967 27.5907C29.8834 27.0178 30.7074 26.655 31.5686 26.5023C32.4719 26.3421 33.2796 26.4372 33.9917 26.7875C34.7038 27.1379 35.1269 27.6911 35.2611 28.4473C35.3616 29.0145 35.2347 29.4595 34.8803 29.7823C34.5259 30.1052 34.0664 30.2625 33.5016 30.2544C33.5101 30.0579 33.508 29.8632 33.4955 29.6705C33.504 29.474 33.4896 29.2707 33.4524 29.0606C33.3779 28.6405 33.2268 28.2773 32.9991 27.971C32.7715 27.6647 32.3846 27.56 31.8384 27.6569C31.2503 27.7612 30.687 28.0669 30.1486 28.5741C29.6103 29.0812 29.1152 29.7107 28.6636 30.4624C28.2292 31.1895 27.8604 31.9807 27.5571 32.8361C27.2501 33.6706 27.0358 34.4777 26.9141 35.2576C26.7924 36.0375 26.7837 36.7216 26.888 37.3097C27.0073 37.9819 27.3084 38.2751 27.7916 38.1895C28.2747 38.1038 28.7693 37.7777 29.2755 37.2113C29.778 36.6238 30.26 35.9209 30.7215 35.1024C31.204 34.2801 31.6531 33.453 32.0688 32.6209C32.4809 31.7679 32.8399 31.0434 33.1458 30.4475C33.1902 30.3313 33.2649 30.2638 33.37 30.2452C33.4577 30.2513 33.6246 30.2759 33.8705 30.3189C34.1338 30.3372 34.3835 30.4013 34.6196 30.5111C34.8557 30.6209 34.9943 30.7913 35.0353 31.0223C35.0725 31.2324 35.0264 31.5222 34.897 31.8919C34.7848 32.2367 34.6381 32.6311 34.4568 33.0749C34.2928 33.494 34.1517 33.9198 34.0334 34.3525C33.9324 34.7604 33.9136 35.1429 33.9769 35.5C34.0254 35.773 34.1454 36.0226 34.3372 36.2486C34.5252 36.4535 34.7873 36.5262 35.1234 36.4666C35.6275 36.3772 36.266 35.8848 37.0388 34.9894C37.8289 34.0693 38.5383 32.6327 39.1669 30.6796L39.8717 31.172C39.5688 32.3958 39.1384 33.5121 38.5807 34.521C38.0403 35.5051 37.4243 36.3077 36.7328 36.9287C36.045 37.5706 35.302 37.9624 34.5038 38.104C33.6425 38.2567 32.9534 38.0973 32.4365 37.6256C31.9195 37.154 31.5841 36.6068 31.4303 35.9841C31.4229 35.9421 31.4173 35.9106 31.4136 35.8896C31.4099 35.8686 31.4061 35.8476 31.4024 35.8266C30.741 36.9839 30.1054 37.9199 29.4955 38.6347C28.9066 39.3458 28.2131 39.7722 27.4149 39.9137ZM42.2654 36.7274C41.2781 36.9025 40.5272 36.6999 40.0126 36.1195C39.5153 35.5143 39.1865 34.7602 39.0263 33.8569C38.8438 32.8277 38.8186 31.5863 38.9509 30.1329C39.0831 28.6795 39.3196 27.1425 39.6606 25.5221C40.0188 23.8769 40.4369 22.2645 40.9151 20.6847C41.4105 19.0802 41.932 17.6227 42.4796 16.3123C43.0271 15.0019 43.5545 13.9442 44.0618 13.1392C44.5863 12.3096 45.0481 11.8593 45.4472 11.7885C45.7202 11.7401 45.9774 11.8462 46.2186 12.1067C46.4561 12.3463 46.6627 12.6563 46.8385 13.0368C47.0316 13.3925 47.158 13.7384 47.2176 14.0745C47.3182 14.6417 47.3034 15.4134 47.1732 16.3898C47.0603 17.3415 46.8382 18.41 46.5068 19.5955C46.1964 20.7772 45.7865 22.009 45.2772 23.291C44.7852 24.5482 44.1999 25.7678 43.5212 26.9499C42.8635 28.1281 42.1186 29.1811 41.2865 30.1086C41.2956 30.6487 41.3047 31.1887 41.3138 31.7288C41.3402 32.2441 41.3907 32.7118 41.4652 33.1319C41.5993 33.8881 41.8241 34.4224 42.1395 34.7348C42.4512 35.0262 42.8065 35.1365 43.2056 35.0657C43.7308 34.9725 44.2236 34.636 44.684 34.056C45.1618 33.4513 45.5857 32.7261 45.9557 31.8805C46.343 31.0101 46.653 30.1318 46.8858 29.2456L47.7147 29.5211C47.143 31.5507 46.3974 33.2105 45.4778 34.5002C44.5545 35.7689 43.4837 36.5113 42.2654 36.7274ZM41.5072 28.0545C42.0835 27.1507 42.6067 26.1912 43.0767 25.1762C43.5639 24.1365 43.9863 23.0974 44.3438 22.0591C44.7223 21.0169 45.0328 20.0194 45.2755 19.0664C45.5181 18.1133 45.683 17.2716 45.7701 16.5412C45.8745 15.786 45.8999 15.1965 45.8464 14.7727C45.8427 14.7517 45.8408 14.7412 45.8408 14.7412C45.8371 14.7202 45.8334 14.6992 45.8297 14.6782C45.6616 14.708 45.4314 14.998 45.139 15.5481C44.8638 16.0736 44.5469 16.7906 44.188 17.6993C43.8292 18.6079 43.4698 19.6358 43.11 20.7829C42.7711 21.9263 42.4539 23.1309 42.1584 24.3966C41.8802 25.6376 41.6631 26.8569 41.5072 28.0545ZM49.6735 35.4135C48.9593 35.5402 48.3134 35.3189 47.7358 34.7497C47.1755 34.1558 46.819 33.4282 46.6662 32.5669C46.5619 31.9788 46.5335 31.2688 46.581 30.4371C46.6285 29.6054 46.7322 28.7853 46.8921 27.977C47.0731 27.1649 47.2764 26.4788 47.5021 25.9188C47.7488 25.3551 48.0086 25.049 48.2817 25.0006C48.4288 24.9745 48.6642 25.0194 48.9881 25.1353C49.3293 25.2264 49.6359 25.3671 49.9079 25.5571C49.7364 25.9342 49.5441 26.4991 49.331 27.2519C49.1389 28.001 48.9875 28.797 48.877 29.6399C48.7665 30.4828 48.769 31.2299 48.8845 31.881C48.8994 31.965 48.9453 32.1627 49.0222 32.4741C49.1201 32.7817 49.2563 33.0609 49.4307 33.3116C49.6052 33.5623 49.85 33.6598 50.1651 33.6039C50.5222 33.5405 50.8667 33.2844 51.1988 32.8355C51.5481 32.3619 51.8788 31.7833 52.1909 31.0996C52.5202 30.3912 52.8211 29.6445 53.0936 28.8596C53.387 28.0709 53.6317 27.3125 53.8275 26.5844C54.0444 25.8526 54.2169 25.2371 54.345 24.7377C54.5378 24.7252 54.7886 24.7348 55.0976 24.7667C55.4276 24.7948 55.7212 24.8619 55.9783 24.968C56.2317 25.0531 56.3808 25.2216 56.4255 25.4737C56.4367 25.5367 56.3782 25.8179 56.2501 26.3173C56.1393 26.7919 56.0032 27.3685 55.8419 28.0471C55.7016 28.722 55.586 29.4142 55.4952 30.1236C55.4216 30.8083 55.4296 31.4027 55.519 31.9068C55.5711 32.2009 55.6702 32.4542 55.8162 32.6666C55.9795 32.8543 56.2292 32.9184 56.5653 32.8587C57.0064 32.7805 57.4961 32.4878 58.0345 31.9807C58.5729 31.4735 59.1006 30.7841 59.6177 29.9124C60.1347 29.0407 60.5522 28.0351 60.87 26.8954L61.4097 27.1896C61.1488 28.4059 60.7308 29.5308 60.1558 30.5645C59.5808 31.5981 58.9179 32.4415 58.1671 33.0946C57.42 33.7688 56.6474 34.1767 55.8492 34.3182C55.24 34.4263 54.7518 34.3612 54.3846 34.123C54.042 33.9021 53.7792 33.5804 53.5959 33.1579C53.4089 32.7144 53.2639 32.2634 53.161 31.8051C53.1423 31.7 53.1237 31.595 53.1051 31.49C53.0827 31.3639 53.0641 31.2589 53.0492 31.1749C52.7927 31.8054 52.5028 32.4309 52.1796 33.0516C51.8526 33.6512 51.4792 34.1725 51.0594 34.6152C50.6606 35.0543 50.1987 35.3204 49.6735 35.4135ZM64.92 33.1644C63.5757 33.4029 62.4707 33.2197 61.6051 32.6149C60.7643 32.0274 60.247 31.1875 60.0533 30.0952C59.8894 29.1709 59.9472 28.1532 60.2268 27.042C60.5236 25.906 60.991 24.8156 61.6291 23.7708C62.2633 22.705 63.0133 21.8028 63.879 21.0643C64.7447 20.3258 65.6606 19.8708 66.6269 19.6995C67.173 19.6026 67.7137 19.6584 68.249 19.8668C68.8016 20.0504 69.1524 20.5624 69.3014 21.4026C69.443 22.2008 69.3441 22.9875 69.005 23.7626C68.6658 24.5378 68.156 25.2673 67.4757 25.9513C66.7953 26.6353 66.0142 27.2397 65.1323 27.7644C64.2677 28.2644 63.372 28.6507 62.4454 28.9234C62.4393 29.0112 62.4351 29.1094 62.4327 29.2182C62.4476 29.3022 62.4737 29.4492 62.5109 29.6593C62.5295 29.7643 62.5736 29.9515 62.643 30.2208C62.7297 30.4655 62.8727 30.7218 63.0719 30.9898C63.2711 31.2578 63.5573 31.467 63.9307 31.6174C64.304 31.7679 64.7848 31.791 65.3729 31.6866C66.2552 31.5302 67.0946 31.1321 67.8911 30.4925C68.7049 29.8282 69.4278 29.0175 70.0597 28.0605C70.7126 27.0997 71.2122 26.0686 71.5586 24.9672L72.2781 25.3596C71.9345 26.7205 71.3949 27.9537 70.6593 29.0591C69.9447 30.1608 69.0879 31.0711 68.0887 31.79C67.1106 32.5051 66.0543 32.9633 64.92 33.1644ZM62.5852 27.6961C63.1202 27.5363 63.6958 27.2392 64.3121 26.8049C64.9284 26.3706 65.4983 25.8578 66.0218 25.2667C66.5663 24.6718 66.9878 24.0554 67.2863 23.4174C67.5811 22.7585 67.6763 22.135 67.572 21.5468C67.531 21.3157 67.4611 21.1657 67.3621 21.0965C67.2632 21.0274 67.1192 21.0096 66.9302 21.0431C66.4471 21.1288 65.9746 21.3968 65.5128 21.847C65.0473 22.2762 64.6127 22.8191 64.2092 23.4757C63.8019 24.1113 63.4583 24.8005 63.1784 25.5435C62.8985 26.2864 62.7008 27.004 62.5852 27.6961ZM75.7293 31.4748C74.6791 31.6611 73.7892 31.5914 73.0598 31.2658C72.3551 30.9575 71.8085 30.5019 71.42 29.8992C71.0277 29.2754 70.7701 28.617 70.6471 27.9238C70.5391 27.3146 70.5393 26.8271 70.6477 26.4612C70.7562 26.0953 70.9234 25.8165 71.1494 25.6247C71.3716 25.412 71.5803 25.245 71.7755 25.1237C71.9916 24.9987 72.1429 24.8744 72.2293 24.7507C72.6576 24.1114 73.0815 23.3863 73.5009 22.5752C73.9377 21.7394 74.2774 20.845 74.52 19.892L74.4642 19.5769C74.3151 18.7367 74.3474 18.1244 74.5608 17.7398C74.7916 17.3306 75.096 17.0924 75.4741 17.0254C75.7262 16.9807 75.9159 17.012 76.0433 17.1194C76.1916 17.2231 76.2912 17.3571 76.342 17.5214C76.3644 17.6475 76.359 17.8001 76.3258 17.9793C76.3136 18.1548 76.3335 18.3896 76.3857 18.6837C76.4974 19.3138 76.773 20.0124 77.2124 20.7795C77.669 21.5218 78.1245 22.3185 78.5788 23.1696C79.054 24.017 79.3755 24.9133 79.5432 25.8585C79.5879 26.1106 79.6183 26.3435 79.6346 26.5573C79.6508 26.7711 79.6547 26.9762 79.6462 27.1727C80.2676 26.8892 80.8449 26.4185 81.3782 25.7605C81.9078 25.0816 82.3593 24.1457 82.7328 22.9529L83.1611 23.1694C82.9744 24.4375 82.5681 25.5062 81.9423 26.3755C81.3128 27.2238 80.5088 27.8214 79.5303 28.1683C79.347 29.0891 78.9039 29.8285 78.2013 30.3864C77.5196 30.9407 76.6956 31.3035 75.7293 31.4748ZM75.2629 30.1276C75.683 30.0531 76.053 29.8791 76.3728 29.6057C76.6927 29.3324 76.9222 28.9775 77.0615 28.5411C76.1667 28.5048 75.3299 28.3066 74.5511 27.9464C73.7722 27.5862 73.149 27.1876 72.6815 26.7505C72.3986 26.8657 72.3018 27.1753 72.3913 27.6794C72.5142 28.3726 72.8292 28.9884 73.3364 29.5268C73.8435 30.0652 74.4857 30.2654 75.2629 30.1276ZM77.1459 27.5512C77.1618 27.3967 77.153 27.2249 77.1195 27.0359C77.1033 26.8221 77.0858 26.6627 77.0672 26.5576C76.8785 25.6161 76.5867 24.7037 76.1918 23.8205C75.7968 22.9372 75.3981 22.0329 74.9956 21.1077C74.733 21.8259 74.4167 22.6078 74.0467 23.4534C73.6767 24.299 73.3121 24.992 72.9529 25.5324C73.3896 26.0399 73.9782 26.488 74.7188 26.8766C75.4594 27.2653 76.2684 27.4901 77.1459 27.5512Z" fill="black"/>
</svg>
