<svg width="370" height="370" viewBox="0 0 370 370" fill="none" xmlns="http://www.w3.org/2000/svg">
<path d="M273.687 213.367C272.959 211.517 272.062 209.779 271.165 207.985L269.427 209.723L272.342 212.638C272.566 212.919 272.622 213.199 272.678 213.479C273.015 213.423 273.351 213.423 273.687 213.367ZM267.016 200.305L263.54 203.837L267.465 207.761L269.931 205.295C269.034 203.613 268.025 201.987 267.016 200.305ZM264.718 214.432C266.343 214.32 267.969 214.096 269.595 213.872L267.465 211.742L264.718 214.432ZM261.522 205.799L257.486 209.892L261.186 213.592C261.242 213.704 261.242 213.816 261.298 213.872L265.446 209.723L261.522 205.799ZM258.215 214.657L255.468 211.854L252.889 214.432C254.683 214.545 256.421 214.657 258.215 214.657ZM262.756 193.746L258.103 198.399L261.522 201.875L265.503 197.895C264.606 196.493 263.765 195.092 262.756 193.746ZM254.122 198.399L249.918 194.195L245.825 198.231L250.03 202.492L254.122 198.399ZM257.262 186.851L251.88 192.176L256.084 196.437L261.018 191.504C259.784 189.934 258.551 188.308 257.262 186.851ZM256.084 200.361L252.048 204.454L255.468 207.929L259.56 203.837L256.084 200.361ZM250.03 206.472L243.134 213.367C245.153 213.704 247.171 214.04 249.189 214.208L253.506 209.892L250.03 206.472ZM249.974 179.507L244.592 184.889L249.918 190.214L255.356 184.776C253.618 182.926 251.824 181.189 249.974 179.507ZM201.033 186.682L205.854 181.805L203.556 179.451C202.266 181.413 200.921 183.319 199.519 185.169L201.033 186.682ZM199.015 188.645L197.837 187.411C196.996 188.476 196.043 189.542 195.146 190.551C195.483 190.887 195.875 191.167 196.212 191.448L199.015 188.645ZM197.277 150.131C197.893 150.187 198.51 150.299 199.071 150.355L205.574 143.852L201.818 140.096L194.866 147.048L196.884 149.066C197.165 149.346 197.277 149.739 197.277 150.131ZM198.342 193.298C199.799 194.419 201.257 195.54 202.827 196.661L204.957 194.531L201.033 190.607L198.342 193.298ZM190.886 85.493L198.846 93.4536L205.742 86.5582C204.172 82.9703 202.378 79.4945 200.36 76.0749L190.886 85.493ZM197.837 115.093L189.316 123.614L194.249 128.604L202.827 120.026L197.837 115.093ZM198.846 97.4339L191.503 104.778L197.837 111.113L205.181 103.769L198.846 97.4339ZM193.801 149.907L192.904 149.01L192.119 149.795C192.68 149.851 193.24 149.851 193.801 149.907ZM194.249 132.528L187.298 139.479L192.904 145.085L199.856 138.134L194.249 132.528ZM180.963 115.261L187.354 121.652L195.875 113.075L189.54 106.74L180.963 115.261ZM188.924 87.5112L181.58 94.8552L189.54 102.816L196.884 95.4158L188.924 87.5112ZM182.421 195.708C184.159 194.195 185.784 192.569 187.354 190.943C187.242 190.831 187.13 190.719 187.018 190.607L182.196 195.484L182.421 195.708ZM182.589 77.1961L188.924 83.5309L198.846 73.6082C198.286 72.7112 197.837 71.8142 197.277 70.9733C196.156 69.2355 194.866 67.7218 193.633 66.0961L182.589 77.1961ZM182.477 149.738C184.439 149.682 186.401 149.514 188.363 149.57L190.886 147.048L185.336 141.498L179.786 147.048L182.477 149.738ZM190.606 62.2279C186.849 66.1521 183.486 70.5249 180.571 75.1779L191.951 63.8536C191.503 63.293 191.054 62.7324 190.606 62.2279ZM187.354 125.576L180.403 132.528L185.336 137.517L192.287 130.566L187.354 125.576ZM137.853 197.614L131.742 203.669L137.684 209.611L143.795 203.557L137.853 197.614ZM133.199 218.076L130.845 220.375C132.134 220.207 133.424 220.095 134.713 219.87C134.769 219.87 134.825 219.814 134.937 219.814L133.199 218.076ZM127.313 208.21L133.199 214.096L135.722 211.573L129.78 205.687L127.313 208.21ZM135.89 195.596L130.733 190.495L124.622 196.549L129.78 201.707L135.89 195.596ZM130.733 186.514L138.021 179.17L132.134 173.284C129.331 175.302 126.64 177.601 124.118 179.899L130.733 186.514ZM120.249 221.216C123.053 221.216 125.912 220.992 128.715 220.711C128.715 220.655 128.659 220.655 128.603 220.655C128.098 220.095 128.098 219.198 128.603 218.693L131.181 216.114L125.295 210.228L117.334 218.132L120.137 220.879C120.193 220.992 120.193 221.104 120.249 221.216ZM127.818 203.669L122.66 198.567L120.137 201.034L125.295 206.192L127.818 203.669ZM122.099 181.861C120.025 183.879 118.063 185.954 116.213 188.14L122.66 194.587L128.715 188.476L122.099 181.861ZM112.233 193.129L118.119 199.072L120.642 196.549L114.363 190.27C113.634 191.223 112.962 192.176 112.233 193.129ZM115.372 216.114L123.277 208.21L118.119 203.052L110.215 210.957L115.372 216.114ZM116.437 221.16L115.372 220.095L114.307 221.16C115.036 221.216 115.709 221.16 116.437 221.16ZM110.551 195.484C108.365 198.623 106.29 201.931 104.553 205.295L108.196 208.995L116.157 201.034L110.551 195.484ZM98.9465 218.301L106.234 210.957L103.263 207.985C101.581 211.349 100.124 214.769 98.9465 218.301ZM101.525 219.646C104.553 220.207 107.58 220.599 110.607 220.879L113.354 218.132L108.196 212.975L101.525 219.646ZM236.015 211.966L234.053 210.004L232.931 211.125C233.94 211.405 235.006 211.685 236.015 211.966ZM242.518 173.34L237.753 178.105L242.63 182.926L247.956 177.601C246.218 176.087 244.368 174.685 242.518 173.34ZM235.79 176.087L240.163 171.658C238.481 170.537 236.743 169.472 235.006 168.407L231.53 171.882L235.79 176.087ZM243.863 200.249L236.071 208.042L239.266 211.237C239.659 211.685 239.659 212.246 239.434 212.807C239.49 212.807 239.603 212.807 239.715 212.863L248.068 204.454L243.863 200.249ZM238.537 190.943L243.863 196.269L247.9 192.176L242.63 186.907L238.537 190.943ZM231.698 184.104L236.575 188.981L240.612 184.889L235.79 180.067L231.698 184.104ZM228.727 200.754L234.053 206.079L241.845 198.287L236.575 192.961L228.727 200.754ZM229.736 182.142L233.772 178.105L229.568 173.845L225.531 177.937L229.736 182.142ZM232.539 166.949C230.801 165.996 229.007 165.211 227.269 164.37L225.643 165.996L229.568 169.92L232.539 166.949ZM223.681 167.958L219.645 172.051L223.513 175.919L227.606 171.882L223.681 167.958ZM221.943 193.914L226.765 198.735L234.557 190.943L229.736 186.122L221.943 193.914ZM222.112 207.425C224.634 208.49 227.213 209.443 229.848 210.284L232.09 208.042L226.765 202.716L222.112 207.425ZM221.607 161.904L223.681 163.978L224.578 163.025C223.625 162.632 222.56 162.296 221.607 161.904ZM223.513 179.899L215.721 187.692L219.925 191.952L227.718 184.16L223.513 179.899ZM215.104 200.754L219.925 205.575L224.803 200.754L219.925 195.876L215.104 200.754ZM212.862 202.996C213.198 203.164 213.59 203.332 213.927 203.557L213.142 202.716L212.862 202.996ZM212.862 165.267L217.627 170.032L221.663 165.94L217.403 161.679C217.01 161.287 217.01 160.726 217.178 160.222C216.057 159.885 214.936 159.493 213.815 159.213C213.086 161.175 212.301 163.137 211.404 165.043C211.909 164.875 212.469 164.875 212.862 165.267ZM201.818 136.116L210.339 127.595L204.789 122.045L196.268 130.566L201.818 136.116ZM210.283 98.6673C209.33 95.4718 208.265 92.3324 207.031 89.2491L200.809 95.4158L207.199 101.807L210.283 98.6673ZM213.759 189.71L208.881 194.531L213.086 198.735L217.963 193.914L213.759 189.71ZM207.592 141.89L212.974 136.508C213.142 136.34 213.31 136.34 213.534 136.284C213.759 134.266 213.871 132.304 213.983 130.285C213.871 130.285 213.815 130.398 213.759 130.398C213.366 130.398 213.03 130.229 212.749 129.949L212.357 129.613L203.78 138.134L207.592 141.89ZM210.675 166.725C208.993 170.313 207.087 173.845 205.013 177.208C205.125 177.264 205.293 177.264 205.406 177.376L207.872 179.843L215.665 172.051L210.899 167.285C210.731 167.117 210.731 166.893 210.675 166.725ZM204.789 118.064L212.133 110.72L207.199 105.731L199.856 113.075L204.789 118.064ZM206.751 120.026L212.357 125.632L214.039 123.895C213.983 120.419 213.703 116.999 213.254 113.523L206.751 120.026ZM212.862 140.545L209.554 143.852L211.853 146.151C212.245 144.301 212.581 142.451 212.862 140.545ZM209.834 181.805L213.759 185.729L221.551 177.937L217.627 174.013L209.834 181.805ZM194.642 58.3036C217.178 84.7082 224.298 118.737 217.066 148.729C216.674 150.467 216.113 152.205 215.609 153.887C246.442 163.193 268.53 185.057 279.237 211.966C279.237 212.022 279.237 212.078 279.293 212.19C286.469 210.508 293.477 208.042 300.092 204.622C345.109 181.413 360.469 126.922 339.503 84.3718C312.93 30.4415 240.387 15.8097 194.642 58.3036ZM206.919 192.569L211.74 187.692L207.816 183.767L202.995 188.645L206.919 192.569ZM210.171 152.429C210.507 151.308 210.843 150.187 211.124 149.066C210.956 149.01 210.731 149.01 210.563 148.842L207.592 145.87L202.49 150.916C205.069 151.364 207.648 151.813 210.171 152.429ZM209.162 103.769L212.245 106.852C211.909 105.17 211.46 103.545 211.068 101.863L209.162 103.769ZM210.339 201.539L211.124 200.754L206.919 196.493L205.181 198.231C206.863 199.408 208.601 200.473 210.339 201.539ZM91.6025 223.122C18.5555 203.164 -2.18688 122.717 31.0571 70.0203C62.9555 19.5097 141.048 1.85061 190.774 54.0991C239.098 9.30667 316.237 24.3309 344.548 81.9052C366.748 126.978 350.546 184.888 302.671 209.611C295.831 213.143 288.656 215.778 281.199 217.572C291.234 248.349 285.236 283.779 265.334 309.343C219.084 368.935 125.407 356.378 95.9192 287.592C86.9495 266.625 85.9404 243.976 91.6025 223.122ZM178.272 199.352C179.001 198.792 179.674 198.175 180.346 197.558L180.234 197.446L178.272 199.352ZM178.665 149.907L177.824 149.01L176.703 150.131C177.431 150.075 177.599 150.019 177.599 150.019C177.824 149.963 178.104 149.963 178.665 149.907ZM181.468 184.72L176.478 189.71L180.234 193.466L184.999 188.645C183.766 187.411 182.589 186.066 181.468 184.72ZM171.04 105.338L179.001 113.299L187.522 104.778L179.562 96.8173L171.04 105.338ZM172.049 124.231L178.384 130.566L185.336 123.614L179.001 117.279L172.049 124.231ZM208.377 157.755C194.362 154.448 182.477 154.56 170.648 156.746C174.853 167.622 182.028 177.937 191.054 186.795C198.454 178.161 204.396 168.295 208.377 157.755ZM174.012 87.287L179.562 92.837L186.962 85.493L180.571 79.1582L175.413 84.3158C174.965 85.2688 174.46 86.2779 174.012 87.287ZM178.384 134.546L172.834 140.096L177.824 145.085L183.374 139.479L178.384 134.546ZM168.854 140.096L166.107 137.349C166.331 138.975 166.499 140.601 166.78 142.17L168.854 140.096ZM170.087 122.213L177.039 115.261L169.078 107.357L167.228 109.151C166.724 112.122 166.275 115.149 165.995 118.176L170.087 122.213ZM172.049 150.86C172.386 150.467 175.413 147.44 175.806 147.048L170.872 142.114L167.34 145.59C167.396 145.702 167.396 145.814 167.396 145.982C167.789 147.776 168.237 149.57 168.742 151.364C169.863 151.14 170.928 151.028 172.049 150.86ZM172.834 90.09C171.153 94.2385 169.751 98.5552 168.63 102.928L169.078 103.376L177.599 94.8552L172.834 90.09ZM169.022 182.254L174.46 187.748L179.618 182.59C177.992 180.572 176.422 178.498 174.909 176.367L169.022 182.254ZM161.118 174.349L167.004 180.292L173.283 174.013C171.713 171.546 170.312 169.023 168.966 166.501L161.118 174.349ZM174.46 191.672L164.481 201.651L168.237 205.407L178.216 195.484L174.46 191.672ZM165.715 121.82C165.603 123.446 165.603 125.072 165.546 126.698L168.069 124.231L165.715 121.82ZM170.087 126.249L165.659 130.622C165.659 131.407 165.715 132.192 165.771 133.032L170.872 138.134L176.422 132.584L170.087 126.249ZM157.025 194.195L162.519 199.688L172.498 189.71L167.004 184.272L157.025 194.195ZM159.099 172.387L167.621 163.866C166.668 161.904 165.827 159.942 165.098 157.979C164.201 158.204 163.304 158.428 162.463 158.652C162.407 158.708 162.463 158.708 162.407 158.764L153.942 167.229L159.099 172.387ZM156.409 212.975C159.884 211.405 163.248 209.667 166.556 207.649L162.519 203.669L155.175 210.957L156.072 211.854C156.409 212.19 156.465 212.582 156.409 212.975ZM137.853 193.634L145.196 186.29L140.039 181.189L132.695 188.476L137.853 193.634ZM147.159 184.328L157.137 174.349L151.98 169.192L142.001 179.17L147.159 184.328ZM170.648 211.629C148.616 225.476 123.669 230.242 97.0404 224.467C91.6586 244.145 92.5555 265.56 101.077 285.405C128.827 350.155 217.178 362.264 260.906 305.923C279.798 281.593 285.404 247.901 275.706 218.749C245.769 224.131 215.384 215.666 191.446 194.699C185.84 200.585 179.506 205.855 172.722 210.284C172.778 210.732 172.778 211.181 172.386 211.573C171.937 212.022 171.377 212.134 170.648 211.629ZM149.121 186.29L155.063 192.232L165.042 182.254L159.099 176.367L149.121 186.29ZM155.063 196.213L147.719 203.557L153.213 208.995L160.557 201.651L155.063 196.213ZM149.849 163.137L151.98 165.211L156.801 160.39C154.446 161.231 152.148 162.128 149.849 163.137ZM140.039 177.208L150.018 167.229L147.159 164.37C140.375 167.622 138.693 168.799 134.489 171.658L140.039 177.208ZM93.1162 217.796C103.487 186.57 128.659 161.455 163.304 152.654C162.743 150.804 162.295 148.954 161.903 147.104C155.399 115.317 165.21 80.7839 186.793 58.0794C138.974 7.68091 65.3661 26.1809 35.8222 73.0476C4.26008 122.998 24.2177 199.072 93.1162 217.796ZM146.934 215.273L151.251 210.957L145.757 205.519L139.646 211.573L143.346 215.273C143.907 215.834 143.907 216.675 143.346 217.235C142.786 217.796 141.889 217.796 141.384 217.235L137.684 213.592L135.162 216.114L137.348 218.301C137.628 218.525 137.74 218.861 137.74 219.198C140.768 218.525 143.795 217.74 146.766 216.787C146.542 216.226 146.542 215.666 146.934 215.273ZM145.757 201.539L153.101 194.195L147.159 188.308L139.815 195.596L145.757 201.539ZM153.213 212.975L150.915 215.273C152.036 214.825 153.213 214.432 154.334 213.928C154.278 213.872 154.166 213.928 154.11 213.872L153.213 212.975Z" fill="black"/>
<path d="M42.88 129V115H45.48V129H42.88ZM55.0867 118.2C55.9401 118.2 56.7001 118.367 57.3667 118.7C58.0467 119.033 58.5801 119.547 58.9667 120.24C59.3534 120.92 59.5467 121.8 59.5467 122.88V129H57.0467V123.2C57.0467 122.253 56.8201 121.547 56.3667 121.08C55.9267 120.613 55.3067 120.38 54.5067 120.38C53.9201 120.38 53.4001 120.5 52.9467 120.74C52.4934 120.98 52.1401 121.34 51.8867 121.82C51.6467 122.287 51.5267 122.88 51.5267 123.6V129H49.0267V118.32H51.4067V121.2L50.9867 120.32C51.3601 119.64 51.9001 119.12 52.6067 118.76C53.3267 118.387 54.1534 118.2 55.0867 118.2ZM68.7781 118.2C69.6315 118.2 70.3915 118.367 71.0581 118.7C71.7381 119.033 72.2715 119.547 72.6581 120.24C73.0448 120.92 73.2381 121.8 73.2381 122.88V129H70.7381V123.2C70.7381 122.253 70.5115 121.547 70.0581 121.08C69.6181 120.613 68.9981 120.38 68.1981 120.38C67.6115 120.38 67.0915 120.5 66.6381 120.74C66.1848 120.98 65.8315 121.34 65.5781 121.82C65.3381 122.287 65.2181 122.88 65.2181 123.6V129H62.7181V118.32H65.0981V121.2L64.6781 120.32C65.0515 119.64 65.5915 119.12 66.2981 118.76C67.0181 118.387 67.8448 118.2 68.7781 118.2ZM81.2291 129.14C80.1357 129.14 79.1624 128.907 78.3091 128.44C77.4557 127.96 76.7824 127.307 76.2891 126.48C75.7957 125.653 75.5491 124.713 75.5491 123.66C75.5491 122.593 75.7957 121.653 76.2891 120.84C76.7824 120.013 77.4557 119.367 78.3091 118.9C79.1624 118.433 80.1357 118.2 81.2291 118.2C82.3357 118.2 83.3157 118.433 84.1691 118.9C85.0357 119.367 85.7091 120.007 86.1891 120.82C86.6824 121.633 86.9291 122.58 86.9291 123.66C86.9291 124.713 86.6824 125.653 86.1891 126.48C85.7091 127.307 85.0357 127.96 84.1691 128.44C83.3157 128.907 82.3357 129.14 81.2291 129.14ZM81.2291 127C81.8424 127 82.3891 126.867 82.8691 126.6C83.3491 126.333 83.7224 125.947 83.9891 125.44C84.2691 124.933 84.4091 124.34 84.4091 123.66C84.4091 122.967 84.2691 122.373 83.9891 121.88C83.7224 121.373 83.3491 120.987 82.8691 120.72C82.3891 120.453 81.8491 120.32 81.2491 120.32C80.6357 120.32 80.0891 120.453 79.6091 120.72C79.1424 120.987 78.7691 121.373 78.4891 121.88C78.2091 122.373 78.0691 122.967 78.0691 123.66C78.0691 124.34 78.2091 124.933 78.4891 125.44C78.7691 125.947 79.1424 126.333 79.6091 126.6C80.0891 126.867 80.6291 127 81.2291 127ZM91.8667 129L87.2867 118.32H89.8867L93.8267 127.74H92.5467L96.6267 118.32H99.0267L94.4467 129H91.8667ZM106.837 129V126.84L106.697 126.38V122.6C106.697 121.867 106.477 121.3 106.037 120.9C105.597 120.487 104.931 120.28 104.037 120.28C103.437 120.28 102.844 120.373 102.257 120.56C101.684 120.747 101.197 121.007 100.797 121.34L99.8172 119.52C100.391 119.08 101.071 118.753 101.857 118.54C102.657 118.313 103.484 118.2 104.337 118.2C105.884 118.2 107.077 118.573 107.917 119.32C108.771 120.053 109.197 121.193 109.197 122.74V129H106.837ZM103.477 129.14C102.677 129.14 101.977 129.007 101.377 128.74C100.777 128.46 100.311 128.08 99.9772 127.6C99.6572 127.107 99.4972 126.553 99.4972 125.94C99.4972 125.34 99.6372 124.8 99.9172 124.32C100.211 123.84 100.684 123.46 101.337 123.18C101.991 122.9 102.857 122.76 103.937 122.76H107.037V124.42H104.117C103.264 124.42 102.691 124.56 102.397 124.84C102.104 125.107 101.957 125.44 101.957 125.84C101.957 126.293 102.137 126.653 102.497 126.92C102.857 127.187 103.357 127.32 103.997 127.32C104.611 127.32 105.157 127.18 105.637 126.9C106.131 126.62 106.484 126.207 106.697 125.66L107.117 127.16C106.877 127.787 106.444 128.273 105.817 128.62C105.204 128.967 104.424 129.14 103.477 129.14ZM116.426 129.14C115.252 129.14 114.346 128.84 113.706 128.24C113.066 127.627 112.746 126.727 112.746 125.54V115.96H115.246V125.48C115.246 125.987 115.372 126.38 115.626 126.66C115.892 126.94 116.259 127.08 116.726 127.08C117.286 127.08 117.752 126.933 118.126 126.64L118.826 128.42C118.532 128.66 118.172 128.84 117.746 128.96C117.319 129.08 116.879 129.14 116.426 129.14ZM110.986 120.4V118.4H118.106V120.4H110.986ZM120.882 129V118.32H123.382V129H120.882ZM122.142 116.56C121.676 116.56 121.289 116.413 120.982 116.12C120.689 115.827 120.542 115.473 120.542 115.06C120.542 114.633 120.689 114.28 120.982 114C121.289 113.707 121.676 113.56 122.142 113.56C122.609 113.56 122.989 113.7 123.282 113.98C123.589 114.247 123.742 114.587 123.742 115C123.742 115.44 123.596 115.813 123.302 116.12C123.009 116.413 122.622 116.56 122.142 116.56ZM131.463 129.14C130.37 129.14 129.397 128.907 128.543 128.44C127.69 127.96 127.017 127.307 126.523 126.48C126.03 125.653 125.783 124.713 125.783 123.66C125.783 122.593 126.03 121.653 126.523 120.84C127.017 120.013 127.69 119.367 128.543 118.9C129.397 118.433 130.37 118.2 131.463 118.2C132.57 118.2 133.55 118.433 134.403 118.9C135.27 119.367 135.943 120.007 136.423 120.82C136.917 121.633 137.163 122.58 137.163 123.66C137.163 124.713 136.917 125.653 136.423 126.48C135.943 127.307 135.27 127.96 134.403 128.44C133.55 128.907 132.57 129.14 131.463 129.14ZM131.463 127C132.077 127 132.623 126.867 133.103 126.6C133.583 126.333 133.957 125.947 134.223 125.44C134.503 124.933 134.643 124.34 134.643 123.66C134.643 122.967 134.503 122.373 134.223 121.88C133.957 121.373 133.583 120.987 133.103 120.72C132.623 120.453 132.083 120.32 131.483 120.32C130.87 120.32 130.323 120.453 129.843 120.72C129.377 120.987 129.003 121.373 128.723 121.88C128.443 122.373 128.303 122.967 128.303 123.66C128.303 124.34 128.443 124.933 128.723 125.44C129.003 125.947 129.377 126.333 129.843 126.6C130.323 126.867 130.863 127 131.463 127ZM145.614 118.2C146.467 118.2 147.227 118.367 147.894 118.7C148.574 119.033 149.107 119.547 149.494 120.24C149.881 120.92 150.074 121.8 150.074 122.88V129H147.574V123.2C147.574 122.253 147.347 121.547 146.894 121.08C146.454 120.613 145.834 120.38 145.034 120.38C144.447 120.38 143.927 120.5 143.474 120.74C143.021 120.98 142.667 121.34 142.414 121.82C142.174 122.287 142.054 122.88 142.054 123.6V129H139.554V118.32H141.934V121.2L141.514 120.32C141.887 119.64 142.427 119.12 143.134 118.76C143.854 118.387 144.681 118.2 145.614 118.2Z" fill="#222934"/>
<path d="M235.64 129V118.32H238.14V129H235.64ZM236.9 116.56C236.433 116.56 236.047 116.413 235.74 116.12C235.447 115.827 235.3 115.473 235.3 115.06C235.3 114.633 235.447 114.28 235.74 114C236.047 113.707 236.433 113.56 236.9 113.56C237.367 113.56 237.747 113.7 238.04 113.98C238.347 114.247 238.5 114.587 238.5 115C238.5 115.44 238.353 115.813 238.06 116.12C237.767 116.413 237.38 116.56 236.9 116.56ZM247.481 118.2C248.335 118.2 249.095 118.367 249.761 118.7C250.441 119.033 250.975 119.547 251.361 120.24C251.748 120.92 251.941 121.8 251.941 122.88V129H249.441V123.2C249.441 122.253 249.215 121.547 248.761 121.08C248.321 120.613 247.701 120.38 246.901 120.38C246.315 120.38 245.795 120.5 245.341 120.74C244.888 120.98 244.535 121.34 244.281 121.82C244.041 122.287 243.921 122.88 243.921 123.6V129H241.421V118.32H243.801V121.2L243.381 120.32C243.755 119.64 244.295 119.12 245.001 118.76C245.721 118.387 246.548 118.2 247.481 118.2ZM259.133 129.14C257.959 129.14 257.053 128.84 256.413 128.24C255.773 127.627 255.453 126.727 255.453 125.54V115.96H257.953V125.48C257.953 125.987 258.079 126.38 258.333 126.66C258.599 126.94 258.966 127.08 259.433 127.08C259.993 127.08 260.459 126.933 260.833 126.64L261.533 128.42C261.239 128.66 260.879 128.84 260.453 128.96C260.026 129.08 259.586 129.14 259.133 129.14ZM253.693 120.4V118.4H260.813V120.4H253.693ZM268.258 129.14C267.071 129.14 266.031 128.907 265.138 128.44C264.258 127.96 263.571 127.307 263.078 126.48C262.598 125.653 262.358 124.713 262.358 123.66C262.358 122.593 262.591 121.653 263.058 120.84C263.538 120.013 264.191 119.367 265.018 118.9C265.858 118.433 266.811 118.2 267.878 118.2C268.918 118.2 269.844 118.427 270.658 118.88C271.471 119.333 272.111 119.973 272.578 120.8C273.044 121.627 273.278 122.6 273.278 123.72C273.278 123.827 273.271 123.947 273.258 124.08C273.258 124.213 273.251 124.34 273.238 124.46H264.338V122.8H271.918L270.938 123.32C270.951 122.707 270.824 122.167 270.558 121.7C270.291 121.233 269.924 120.867 269.458 120.6C269.004 120.333 268.478 120.2 267.878 120.2C267.264 120.2 266.724 120.333 266.258 120.6C265.804 120.867 265.444 121.24 265.178 121.72C264.924 122.187 264.798 122.74 264.798 123.38V123.78C264.798 124.42 264.944 124.987 265.238 125.48C265.531 125.973 265.944 126.353 266.478 126.62C267.011 126.887 267.624 127.02 268.318 127.02C268.918 127.02 269.458 126.927 269.938 126.74C270.418 126.553 270.844 126.26 271.218 125.86L272.558 127.4C272.078 127.96 271.471 128.393 270.738 128.7C270.018 128.993 269.191 129.14 268.258 129.14ZM280.519 133.02C279.532 133.02 278.566 132.887 277.619 132.62C276.686 132.367 275.919 131.993 275.319 131.5L276.439 129.62C276.906 130.007 277.492 130.313 278.199 130.54C278.919 130.78 279.646 130.9 280.379 130.9C281.552 130.9 282.412 130.627 282.959 130.08C283.506 129.547 283.779 128.74 283.779 127.66V125.76L283.979 123.34L283.899 120.92V118.32H286.279V127.38C286.279 129.313 285.786 130.733 284.799 131.64C283.812 132.56 282.386 133.02 280.519 133.02ZM280.199 128.52C279.186 128.52 278.266 128.307 277.439 127.88C276.626 127.44 275.979 126.833 275.499 126.06C275.032 125.287 274.799 124.38 274.799 123.34C274.799 122.313 275.032 121.413 275.499 120.64C275.979 119.867 276.626 119.267 277.439 118.84C278.266 118.413 279.186 118.2 280.199 118.2C281.106 118.2 281.919 118.38 282.639 118.74C283.359 119.1 283.932 119.66 284.359 120.42C284.799 121.18 285.019 122.153 285.019 123.34C285.019 124.527 284.799 125.507 284.359 126.28C283.932 127.04 283.359 127.607 282.639 127.98C281.919 128.34 281.106 128.52 280.199 128.52ZM280.579 126.4C281.206 126.4 281.766 126.273 282.259 126.02C282.752 125.753 283.132 125.393 283.399 124.94C283.679 124.473 283.819 123.94 283.819 123.34C283.819 122.74 283.679 122.213 283.399 121.76C283.132 121.293 282.752 120.94 282.259 120.7C281.766 120.447 281.206 120.32 280.579 120.32C279.952 120.32 279.386 120.447 278.879 120.7C278.386 120.94 277.999 121.293 277.719 121.76C277.452 122.213 277.319 122.74 277.319 123.34C277.319 123.94 277.452 124.473 277.719 124.94C277.999 125.393 278.386 125.753 278.879 126.02C279.386 126.273 279.952 126.4 280.579 126.4ZM289.566 129V118.32H291.946V121.26L291.666 120.4C291.986 119.68 292.486 119.133 293.166 118.76C293.859 118.387 294.719 118.2 295.746 118.2V120.58C295.639 120.553 295.539 120.54 295.446 120.54C295.352 120.527 295.259 120.52 295.166 120.52C294.219 120.52 293.466 120.8 292.906 121.36C292.346 121.907 292.066 122.727 292.066 123.82V129H289.566ZM297.867 129V118.32H300.367V129H297.867ZM299.127 116.56C298.66 116.56 298.273 116.413 297.967 116.12C297.673 115.827 297.527 115.473 297.527 115.06C297.527 114.633 297.673 114.28 297.967 114C298.273 113.707 298.66 113.56 299.127 113.56C299.593 113.56 299.973 113.7 300.267 113.98C300.573 114.247 300.727 114.587 300.727 115C300.727 115.44 300.58 115.813 300.287 116.12C299.993 116.413 299.607 116.56 299.127 116.56ZM307.668 129.14C306.494 129.14 305.588 128.84 304.948 128.24C304.308 127.627 303.988 126.727 303.988 125.54V115.96H306.488V125.48C306.488 125.987 306.614 126.38 306.868 126.66C307.134 126.94 307.501 127.08 307.968 127.08C308.528 127.08 308.994 126.933 309.368 126.64L310.068 128.42C309.774 128.66 309.414 128.84 308.988 128.96C308.561 129.08 308.121 129.14 307.668 129.14ZM302.228 120.4V118.4H309.348V120.4H302.228ZM312.809 133.02C312.289 133.02 311.769 132.933 311.249 132.76C310.729 132.587 310.296 132.347 309.949 132.04L310.949 130.2C311.202 130.427 311.489 130.607 311.809 130.74C312.129 130.873 312.456 130.94 312.789 130.94C313.242 130.94 313.609 130.827 313.889 130.6C314.169 130.373 314.429 129.993 314.669 129.46L315.289 128.06L315.489 127.76L319.529 118.32H321.929L316.929 129.86C316.596 130.66 316.222 131.293 315.809 131.76C315.409 132.227 314.956 132.553 314.449 132.74C313.956 132.927 313.409 133.02 312.809 133.02ZM315.009 129.38L310.189 118.32H312.789L316.709 127.54L315.009 129.38Z" fill="#222934"/>
<path d="M151.9 278L158.2 264H160.76L167.08 278H164.36L158.94 265.38H159.98L154.58 278H151.9ZM154.8 274.76L155.5 272.72H163.06L163.76 274.76H154.8ZM173.363 282.02C172.376 282.02 171.409 281.887 170.463 281.62C169.529 281.367 168.763 280.993 168.163 280.5L169.283 278.62C169.749 279.007 170.336 279.313 171.043 279.54C171.763 279.78 172.489 279.9 173.223 279.9C174.396 279.9 175.256 279.627 175.803 279.08C176.349 278.547 176.623 277.74 176.623 276.66V274.76L176.823 272.34L176.743 269.92V267.32H179.123V276.38C179.123 278.313 178.629 279.733 177.643 280.64C176.656 281.56 175.229 282.02 173.363 282.02ZM173.043 277.52C172.029 277.52 171.109 277.307 170.283 276.88C169.469 276.44 168.823 275.833 168.343 275.06C167.876 274.287 167.643 273.38 167.643 272.34C167.643 271.313 167.876 270.413 168.343 269.64C168.823 268.867 169.469 268.267 170.283 267.84C171.109 267.413 172.029 267.2 173.043 267.2C173.949 267.2 174.763 267.38 175.483 267.74C176.203 268.1 176.776 268.66 177.203 269.42C177.643 270.18 177.863 271.153 177.863 272.34C177.863 273.527 177.643 274.507 177.203 275.28C176.776 276.04 176.203 276.607 175.483 276.98C174.763 277.34 173.949 277.52 173.043 277.52ZM173.423 275.4C174.049 275.4 174.609 275.273 175.103 275.02C175.596 274.753 175.976 274.393 176.243 273.94C176.523 273.473 176.663 272.94 176.663 272.34C176.663 271.74 176.523 271.213 176.243 270.76C175.976 270.293 175.596 269.94 175.103 269.7C174.609 269.447 174.049 269.32 173.423 269.32C172.796 269.32 172.229 269.447 171.723 269.7C171.229 269.94 170.843 270.293 170.563 270.76C170.296 271.213 170.163 271.74 170.163 272.34C170.163 272.94 170.296 273.473 170.563 273.94C170.843 274.393 171.229 274.753 171.723 275.02C172.229 275.273 172.796 275.4 173.423 275.4ZM182.41 278V267.32H184.91V278H182.41ZM183.67 265.56C183.203 265.56 182.816 265.413 182.51 265.12C182.216 264.827 182.07 264.473 182.07 264.06C182.07 263.633 182.216 263.28 182.51 263C182.816 262.707 183.203 262.56 183.67 262.56C184.136 262.56 184.516 262.7 184.81 262.98C185.116 263.247 185.27 263.587 185.27 264C185.27 264.44 185.123 264.813 184.83 265.12C184.536 265.413 184.15 265.56 183.67 265.56ZM188.191 278V263.16H190.691V278H188.191ZM193.972 278V267.32H196.472V278H193.972ZM195.232 265.56C194.765 265.56 194.379 265.413 194.072 265.12C193.779 264.827 193.632 264.473 193.632 264.06C193.632 263.633 193.779 263.28 194.072 263C194.379 262.707 194.765 262.56 195.232 262.56C195.699 262.56 196.079 262.7 196.372 262.98C196.679 263.247 196.832 263.587 196.832 264C196.832 264.44 196.685 264.813 196.392 265.12C196.099 265.413 195.712 265.56 195.232 265.56ZM203.773 278.14C202.6 278.14 201.693 277.84 201.053 277.24C200.413 276.627 200.093 275.727 200.093 274.54V264.96H202.593V274.48C202.593 274.987 202.72 275.38 202.973 275.66C203.24 275.94 203.607 276.08 204.073 276.08C204.633 276.08 205.1 275.933 205.473 275.64L206.173 277.42C205.88 277.66 205.52 277.84 205.093 277.96C204.667 278.08 204.227 278.14 203.773 278.14ZM198.333 269.4V267.4H205.453V269.4H198.333ZM208.915 282.02C208.395 282.02 207.875 281.933 207.355 281.76C206.835 281.587 206.401 281.347 206.055 281.04L207.055 279.2C207.308 279.427 207.595 279.607 207.915 279.74C208.235 279.873 208.561 279.94 208.895 279.94C209.348 279.94 209.715 279.827 209.995 279.6C210.275 279.373 210.535 278.993 210.775 278.46L211.395 277.06L211.595 276.76L215.635 267.32H218.035L213.035 278.86C212.701 279.66 212.328 280.293 211.915 280.76C211.515 281.227 211.061 281.553 210.555 281.74C210.061 281.927 209.515 282.02 208.915 282.02ZM211.115 278.38L206.295 267.32H208.895L212.815 276.54L211.115 278.38Z" fill="#222934"/>
</svg>
