<svg width="100" height="120" viewBox="0 0 100 120" fill="none" xmlns="http://www.w3.org/2000/svg">
<g clip-path="url(#clip0_707_3510)">
<path d="M88.8543 56.3272C93.0603 40.3839 85.5367 24.064 71.3627 16.037C57.4839 8.17757 39.0932 8.69153 26.602 19.0384C20.5382 24.061 17.0333 30.8955 15.746 38.627C14.7244 44.7577 12.8259 54.5085 18.0721 59.2255C18.1685 59.3059 18.2815 59.3638 18.4029 59.3949C18.5244 59.4261 18.6512 59.4298 18.7741 59.4057C18.897 59.3816 19.013 59.3303 19.1136 59.2556C19.2143 59.1809 19.2969 59.0846 19.3557 58.9737C19.3862 59.1028 19.4473 59.2225 19.5338 59.3229C19.6203 59.4233 19.7297 59.5012 19.8527 59.5501C19.9757 59.5991 20.1085 59.6175 20.2401 59.6039C20.3716 59.5903 20.4978 59.545 20.6081 59.472C25.941 56.0608 31.2188 52.5048 36.2722 48.6892C36.4321 48.5799 36.5612 48.4311 36.6471 48.2572C36.733 48.0833 36.7728 47.8902 36.7627 47.6962C36.8288 47.6121 36.8794 47.5169 36.9121 47.4149C38.694 41.5828 42.6205 36.6805 49.0436 35.9702C55.341 35.2736 61.7829 39.9416 63.0684 46.1976C63.6028 49.221 63.1466 52.3351 61.7682 55.0742C60.3897 57.8133 58.163 60.0303 55.4211 61.3937C49.3942 64.2223 44.4391 61.8414 38.8535 59.6472C38.6078 59.5658 38.3432 59.5615 38.0951 59.6348C37.8471 59.7081 37.6273 59.8555 37.4653 60.0574C37.3032 60.2592 37.2065 60.506 37.188 60.7646C37.1696 61.0232 37.2303 61.2814 37.3621 61.5048C34.5209 70.3602 30.9831 79.9236 29.4435 89.0488C29.4134 89.2297 29.4353 89.4155 29.5065 89.5846C29.5777 89.7537 29.6954 89.8991 29.8458 90.0039C29.7934 90.1401 29.7706 90.2861 29.779 90.432C29.7873 90.5779 29.8266 90.7204 29.8942 90.8499C29.9618 90.9795 30.0562 91.0931 30.171 91.1833C30.2859 91.2735 30.4185 91.3381 30.5602 91.3729C35.2216 92.8254 39.8926 94.3694 44.6729 95.3864C44.6817 95.3896 44.6886 95.3852 44.6979 95.3871C44.697 95.4273 44.6907 95.4679 44.6899 95.5081C44.6747 95.8737 44.8015 96.2311 45.0435 96.5054C45.2856 96.7797 45.6241 96.9494 45.988 96.979C46.3519 97.0086 46.7129 96.8958 46.9952 96.6642C47.2775 96.4326 47.4591 96.1002 47.5019 95.7369C48.3581 91.07 49.8277 86.5383 51.8724 82.2602C67.6905 83.4276 84.8287 71.5874 88.8543 56.3272ZM50.6605 79.1093C50.4443 79.08 50.2243 79.1031 50.019 79.1767C49.8137 79.2502 49.6291 79.3721 49.4806 79.5321C46.5679 78.437 43.4571 77.6736 40.4898 76.8218C40.2061 76.7404 40.0475 77.1591 40.3318 77.2576C43.2177 78.2496 46.1698 79.3857 49.1476 80.1641C49.0535 80.542 49.0898 80.9409 49.2506 81.2959C48.9061 81.8587 48.5822 82.4382 48.2697 83.0264C46.3667 81.744 43.5499 81.2862 41.3192 81.3143C41.2735 81.3116 41.2284 81.327 41.1939 81.3572C41.1594 81.3874 41.1381 81.43 41.1345 81.4758C41.131 81.5216 41.1456 81.5671 41.1752 81.6023C41.2047 81.6375 41.2468 81.6597 41.2925 81.6641C42.5564 81.8247 43.8072 82.0772 45.0348 82.4196C46.0521 82.7256 47.0102 83.1989 48.0187 83.5101C47.4642 84.6053 46.9709 85.7306 46.5409 86.8808C43.4801 85.294 40.2591 84.04 36.933 83.1401C36.6006 83.0477 36.4102 83.5413 36.7473 83.6522C40.003 84.7626 43.1786 86.0972 46.2512 87.6465C45.9875 88.3971 45.7654 89.1592 45.5628 89.9246C45.5363 89.905 45.527 89.874 45.4926 89.8614C42.5398 88.9485 39.5334 88.2208 36.4908 87.6828C36.2304 87.6297 36.1407 88.0606 36.3913 88.1384C39.3231 89.1196 42.3128 89.9166 45.3431 90.5245C45.3684 90.5284 45.3821 90.5097 45.4043 90.5094C45.2074 91.3181 45.0366 92.1349 44.923 92.9496C40.6502 91.4303 36.2132 90.3574 31.8248 89.2266C36.215 81.7177 38.2111 71.4555 38.5911 62.7206C43.7616 67.0396 52.555 66.7631 58.0482 63.3631C64.3488 59.4677 67.7495 51.1611 65.3996 44.0126C60.4285 28.8819 36.8189 30.3136 35.1127 46.4115C34.9209 46.4519 34.7398 46.5319 34.5807 46.6463C29.433 50.2966 24.4654 54.2399 19.6171 58.2781C19.5864 58.3096 19.5582 58.3436 19.5329 58.3797C19.5317 58.187 19.4614 58.001 19.3348 57.8558C14.8992 52.8788 17.9348 39.2096 19.8415 33.6465C22.2622 26.7903 27.1864 21.1119 33.6223 17.7551C45.8678 11.1267 61.2654 12.4281 72.6572 20.2686C75.4596 22.197 77.9537 24.5409 80.0541 27.22C72.0755 23.719 63.9149 20.5263 55.6761 17.7136C54.2881 17.2401 51.0912 15.517 51.0955 18.1286C51.0944 18.1435 51.0992 18.1583 51.1089 18.1696C51.1186 18.181 51.1324 18.188 51.1472 18.1892C51.1621 18.1904 51.1768 18.1856 51.1882 18.1759C51.1995 18.1662 51.2065 18.1523 51.2076 18.1374C51.43 16.9363 78.7346 27.8236 81.1923 28.783C82.5505 30.7408 83.6932 32.8401 84.6002 35.0441C70.8212 28.9584 56.6599 23.785 42.2076 19.5573C41.875 19.461 41.6874 19.9556 42.0219 20.0695C56.4997 25.0121 70.7715 30.2009 84.9376 35.9823C84.9437 35.9845 84.9468 35.9803 84.9528 35.9825C85.4036 37.2031 85.7804 38.4498 86.0812 39.7157C75.2035 34.113 63.1582 30.0983 51.3192 27.143C51.082 27.0831 50.9434 27.4318 51.1867 27.5085C63.1304 31.239 74.5696 35.7774 86.2216 40.2851C86.5263 41.6409 86.7426 43.0151 86.8691 44.3988C79.0535 41.2152 70.9917 38.4221 62.9776 35.8094C62.915 35.7865 62.8459 35.7895 62.7856 35.8176C62.7252 35.8458 62.6786 35.8969 62.6558 35.9596C62.6331 36.0223 62.6361 36.0915 62.6643 36.1521C62.6925 36.2126 62.7435 36.2594 62.8062 36.2823C70.7212 39.497 78.7941 42.5987 86.9251 45.2304C87.0094 46.6227 87.0034 48.0188 86.9071 49.41C80.928 48.0007 75.0617 46.1456 69.3572 43.8604C69.0185 43.7244 68.8456 44.2351 69.1666 44.3861C74.8143 47.0408 80.7478 49.0338 86.8494 50.3255C86.7646 51.2464 86.6335 52.1687 86.4677 53.0937C82.9184 51.8816 79.2859 50.8694 75.7349 49.6535C75.6709 49.6301 75.6002 49.6332 75.5385 49.662C75.4767 49.6908 75.429 49.743 75.4058 49.8072C75.3825 49.8713 75.3856 49.9422 75.4145 50.0041C75.4433 50.066 75.4955 50.1139 75.5595 50.1373C79.0191 51.7157 82.6153 52.973 86.303 53.8936C86.1341 54.7156 85.9546 55.5376 85.7156 56.357C85.5363 56.9633 85.3064 57.5511 85.0826 58.1412C79.4095 55.7963 73.1 54.4884 67.0927 53.4637C66.7691 53.4082 66.6423 53.9625 66.9686 54.0359C73.0122 55.3859 78.8507 57.3145 84.8173 58.892C84.3321 60.0396 83.7696 61.1527 83.1337 62.2235C78.612 60.0485 73.2525 58.8635 68.3867 58.0234C68.3283 58.0207 68.2709 58.0388 68.2246 58.0744C68.1783 58.1101 68.1461 58.161 68.1337 58.2182C68.1213 58.2754 68.1295 58.3352 68.1568 58.387C68.1841 58.4388 68.2288 58.4792 68.283 58.5012C73.1335 59.8071 77.8901 61.6081 82.7277 62.9031C81.5222 64.833 80.1121 66.6266 78.5222 68.2528C73.1068 65.8848 67.548 63.8623 61.8789 62.1974C61.8204 62.176 61.7559 62.1788 61.6995 62.2051C61.6431 62.2314 61.5995 62.2791 61.5783 62.3377C61.5571 62.3963 61.5599 62.461 61.5863 62.5175C61.6126 62.5741 61.6603 62.6179 61.7188 62.6393C67.1502 64.6035 72.4849 66.7588 77.837 68.9229C76.5454 70.1745 75.1621 71.3274 73.6987 72.3719C73.68 72.3291 73.6526 72.2906 73.6184 72.2589C73.5842 72.2272 73.5438 72.2029 73.4997 72.1875C69.1546 70.5116 64.8013 68.9697 60.5206 67.1138C60.202 66.9752 60.0438 67.4622 60.3399 67.6125C64.4071 69.7537 68.6727 71.4919 73.0759 72.8024C69.4542 75.2807 65.4254 77.1015 61.1732 78.1818C61.1671 78.1796 61.168 78.173 61.1619 78.1708C55.8082 76.5862 50.5449 74.7798 45.2894 72.9013C45.2382 72.8826 45.1818 72.885 45.1325 72.9081C45.0832 72.9311 45.045 72.9728 45.0264 73.024C45.0079 73.0753 45.0104 73.1319 45.0334 73.1813C45.0564 73.2308 45.0981 73.2691 45.1493 73.2878C49.9255 75.298 54.8241 76.9979 59.7754 78.5211C56.7833 79.1665 53.7117 79.3647 50.6605 79.1093V79.1093Z" fill="#23272F"/>
<path d="M44.7988 103.434C44.7926 103.263 44.7518 103.096 44.6788 102.941C44.6058 102.787 44.5022 102.649 44.3744 102.536C44.4775 102.364 44.5246 102.165 44.509 101.965C44.4933 101.765 44.4158 101.575 44.2873 101.421C40.9211 97.6105 33.997 96.3984 29.076 95.6253C29.0024 95.4759 28.8873 95.351 28.7446 95.2656C28.6018 95.1802 28.4375 95.138 28.2715 95.1441C28.1055 95.1501 27.9449 95.2042 27.809 95.2997C27.6731 95.3953 27.5677 95.5283 27.5056 95.6826C25.1103 100.936 23.6326 106.564 23.1368 112.321C23.1155 112.509 23.1332 112.7 23.1888 112.882C23.2443 113.063 23.3366 113.231 23.4597 113.375C23.5829 113.519 23.7344 113.637 23.9047 113.72C24.075 113.803 24.2605 113.849 24.4496 113.857C24.569 113.956 24.7041 114.033 24.8492 114.087C29.7441 115.781 35.3241 118.025 40.4951 118.496C40.6651 118.513 40.8366 118.493 40.9985 118.439C41.1695 118.467 41.3446 118.43 41.4897 118.335C41.6347 118.241 41.739 118.095 41.7822 117.927C42.9687 113.529 45.0094 108.007 44.7988 103.434ZM26.1831 111.726C26.6887 107.07 27.5296 102.458 28.699 97.9252C31.2856 98.6002 33.8321 99.4215 36.3264 100.385C38.4128 101.207 40.4279 102.437 42.6134 102.912C42.6075 102.928 42.5948 102.936 42.5869 102.951C42.1684 103.928 41.8349 104.939 41.59 105.974C38.3312 104.579 34.9391 103.523 31.4667 102.82C31.1202 102.74 30.916 103.25 31.2734 103.353C34.6785 104.345 38.0342 105.69 41.4505 106.628C41.2684 107.467 41.1261 108.332 41.0024 109.204C38.1792 108.435 35.4112 107.474 32.7174 106.329C32.4641 106.215 32.2385 106.633 32.4869 106.769C35.114 108.267 37.9517 109.358 40.9033 110.004C40.8186 110.691 40.7561 111.377 40.6897 112.068C37.0126 111.045 33.2108 110.265 29.5317 109.321C29.1865 109.233 28.9857 109.734 29.3384 109.854C32.9982 111.212 36.7625 112.267 40.5935 113.008C40.5024 114.02 40.4239 115.018 40.3432 115.982C36.0607 113.907 30.7975 112.839 26.1831 111.726Z" fill="#23272F"/>
<path d="M67.4594 74.775C61.399 72.2563 54.7943 70.5605 48.4984 68.71C48.438 68.6879 48.3713 68.6908 48.3131 68.718C48.2549 68.7451 48.2098 68.7944 48.1879 68.8549C48.1659 68.9153 48.1689 68.9821 48.1961 69.0405C48.2233 69.0989 48.2725 69.144 48.333 69.1661C54.5231 71.3417 60.8744 73.8222 67.2636 75.3148C67.3351 75.3409 67.414 75.3375 67.4829 75.3054C67.5518 75.2732 67.6051 75.2149 67.6311 75.1434C67.6571 75.0718 67.6536 74.9927 67.6214 74.9237C67.5892 74.8546 67.5309 74.8011 67.4594 74.775Z" fill="#23272F"/>
</g>
<defs>
<clipPath id="clip0_707_3510">
<rect width="100" height="120" fill="white"/>
</clipPath>
</defs>
</svg>
