<svg width="36" height="36" viewBox="0 0 36 36" fill="none" xmlns="http://www.w3.org/2000/svg">
<rect x="0.5" y="0.5" width="35" height="35" rx="7.5" fill="#F2F2F2"/>
<path d="M25.0167 11.8157C24.5987 11.3962 24.1019 11.0634 23.5549 10.8362C23.0079 10.6091 22.4215 10.4922 21.8292 10.4922C21.237 10.4922 20.6505 10.6091 20.1036 10.8362C19.5566 11.0634 19.0598 11.3962 18.6417 11.8157L18.0001 12.4657L17.3584 11.8157C16.9403 11.3962 16.4436 11.0634 15.8966 10.8362C15.3496 10.6091 14.7632 10.4922 14.1709 10.4922C13.5786 10.4922 12.9922 10.6091 12.4452 10.8362C11.8982 11.0634 11.4015 11.3962 10.9834 11.8157C9.21674 13.5824 9.10841 16.5657 11.3334 18.8324L18.0001 25.4991L24.6667 18.8324C26.8917 16.5657 26.7834 13.5824 25.0167 11.8157Z" stroke="#666666" stroke-width="1.5" stroke-linecap="round" stroke-linejoin="round"/>
<rect x="0.5" y="0.5" width="35" height="35" rx="7.5" stroke="#E2E2E3"/>
</svg>
