<svg width="36" height="36" viewBox="0 0 36 36" fill="none" xmlns="http://www.w3.org/2000/svg">
<rect x="0.5" y="0.5" width="35" height="35" rx="7.5" fill="#F2F2F2"/>
<path d="M13.834 16.334V26.334" stroke="#666666" stroke-width="1.5" stroke-linecap="round" stroke-linejoin="round"/>
<path d="M20.4993 12.8993L19.666 16.3327H24.5243C24.7831 16.3327 25.0383 16.3929 25.2697 16.5086C25.5011 16.6243 25.7024 16.7924 25.8577 16.9993C26.0129 17.2063 26.1178 17.4466 26.1641 17.7012C26.2104 17.9558 26.1968 18.2176 26.1243 18.466L24.1827 25.1327C24.0817 25.4789 23.8712 25.783 23.5827 25.9993C23.2942 26.2157 22.9433 26.3327 22.5827 26.3327H11.3327C10.8907 26.3327 10.4667 26.1571 10.1542 25.8445C9.84161 25.532 9.66602 25.108 9.66602 24.666V17.9993C9.66602 17.5573 9.84161 17.1334 10.1542 16.8208C10.4667 16.5083 10.8907 16.3327 11.3327 16.3327H13.6327C13.9428 16.3325 14.2466 16.2459 14.5101 16.0824C14.7737 15.919 14.9864 15.6854 15.1243 15.4077L17.9993 9.66602C18.3923 9.67088 18.7791 9.76449 19.1309 9.93985C19.4826 10.1152 19.7901 10.3678 20.0305 10.6787C20.2709 10.9896 20.4379 11.3508 20.5191 11.7354C20.6003 12.1199 20.5936 12.5178 20.4993 12.8993V12.8993Z" stroke="#666666" stroke-width="1.5" stroke-linecap="round" stroke-linejoin="round"/>
<rect x="0.5" y="0.5" width="35" height="35" rx="7.5" stroke="#E2E2E3"/>
</svg>
