<svg width="36" height="36" viewBox="0 0 36 36" fill="none" xmlns="http://www.w3.org/2000/svg">
<rect x="0.5" y="0.5" width="35" height="35" rx="7.5" fill="#F2F2F2"/>
<path d="M23.8333 17.166H12.1667C11.2462 17.166 10.5 17.9122 10.5 18.8327V24.666C10.5 25.5865 11.2462 26.3327 12.1667 26.3327H23.8333C24.7538 26.3327 25.5 25.5865 25.5 24.666V18.8327C25.5 17.9122 24.7538 17.166 23.8333 17.166Z" stroke="#666666" stroke-width="1.5" stroke-linecap="round" stroke-linejoin="round"/>
<path d="M13.834 17.1663V13.833C13.8329 12.7997 14.2159 11.8029 14.9085 11.036C15.601 10.2692 16.5538 9.78706 17.5819 9.68321C18.61 9.57937 19.6399 9.86123 20.4719 10.4741C21.3038 11.0869 21.8784 11.987 22.084 12.9996" stroke="#666666" stroke-width="1.5" stroke-linecap="round" stroke-linejoin="round"/>
<rect x="0.5" y="0.5" width="35" height="35" rx="7.5" stroke="#E2E2E3"/>
</svg>
