<svg width="151" height="71" viewBox="0 0 151 71" fill="none" xmlns="http://www.w3.org/2000/svg">
<path d="M106.739 68.969C98.739 67.79 82.739 61.3395 82.739 44.969" stroke="#0D0D04" stroke-width="3" stroke-linecap="round"/>
<path d="M8.42616 44.5736C7.4284 44.7506 6.56596 44.6598 5.83884 44.3013C5.12486 43.9404 4.55052 43.4126 4.11585 42.7178C3.6943 42.0207 3.41251 41.2718 3.27048 40.4709C3.08654 39.4338 3.06013 38.3687 3.19127 37.2757C3.32008 36.1695 3.57636 35.0949 3.96011 34.0519C4.35698 33.0065 4.8447 32.0534 5.42324 31.1924C6.00179 30.3315 6.65422 29.62 7.38055 29.0578C8.11767 28.4802 8.88665 28.1204 9.68749 27.9784C10.2651 27.8759 10.7753 27.9276 11.2181 28.1335C11.6585 28.3262 11.9369 28.7507 12.0534 29.4072C12.1232 29.801 12.129 30.2536 12.0707 30.765C12.0256 31.274 11.9256 31.7793 11.7708 32.2807C11.6268 32.7666 11.436 33.1796 11.1984 33.5197C10.9608 33.8597 10.691 34.0565 10.3891 34.1101C10.2578 34.1334 10.1118 34.1119 9.95106 34.0456C9.79035 33.9793 9.63113 33.845 9.47339 33.6428C9.63073 33.3847 9.80618 33.076 9.99974 32.7167C10.191 32.3442 10.3667 31.9609 10.5271 31.5669C10.685 31.1597 10.806 30.7727 10.8899 30.4057C10.9714 30.0256 10.9889 29.7043 10.9423 29.4417C10.9004 29.2054 10.8022 29.0333 10.6476 28.9253C10.4907 28.8041 10.2481 28.7727 9.91994 28.8309C9.34228 28.9333 8.78336 29.2559 8.24316 29.7986C7.71609 30.3389 7.23549 31.0267 6.80135 31.8621C6.36489 32.6842 5.99725 33.589 5.69841 34.5764C5.41038 35.5483 5.22006 36.5367 5.12747 37.5416C5.03254 38.5335 5.06076 39.456 5.2121 40.3094C5.32387 40.9396 5.52287 41.5272 5.80912 42.0722C6.10617 42.6018 6.49619 43.0066 6.97916 43.2866C7.46447 43.5796 8.04846 43.6656 8.73114 43.5446C9.44008 43.4188 10.1075 43.0973 10.7335 42.5801C11.3726 42.0605 11.9239 41.4278 12.3874 40.6821C12.8641 39.934 13.2145 39.1609 13.4386 38.3629L14.01 38.6068C13.7065 39.5679 13.2983 40.4731 12.7854 41.3224C12.2702 42.1586 11.644 42.8655 10.9068 43.4431C10.1852 44.0315 9.35828 44.4083 8.42616 44.5736ZM14.9954 42.2914C14.4046 42.3962 13.9627 42.2714 13.6697 41.9171C13.3921 41.5737 13.2126 41.1722 13.1311 40.7127C13.0566 40.2926 13.0466 39.8543 13.101 39.3977C13.1531 38.9281 13.257 38.4831 13.4127 38.0628C13.5815 37.6402 13.7839 37.2928 14.02 37.0207C14.2669 36.7332 14.5348 36.5638 14.8236 36.5126C14.9155 36.4963 15.024 36.4973 15.1492 36.5158C15.2851 36.5187 15.3852 36.5484 15.4493 36.6047C15.3267 36.8296 15.2057 37.1016 15.0862 37.4207C14.9799 37.7374 14.8837 38.0727 14.7975 38.4266C14.7221 38.7649 14.6741 39.1052 14.6535 39.4474C14.633 39.7896 14.6471 40.0985 14.696 40.3742C14.7426 40.6368 14.827 40.8452 14.9491 40.9996C15.0844 41.1517 15.2768 41.2056 15.5262 41.1613C15.7757 41.1171 16.0466 40.9268 16.3391 40.5906C16.6423 40.2389 16.9189 39.8513 17.1688 39.4278C16.6811 39.1216 16.3058 38.7616 16.0429 38.3479C15.7776 37.921 15.5879 37.3859 15.4738 36.7426C15.4249 36.4669 15.4346 36.1402 15.5031 35.7624C15.5846 35.3823 15.7531 35.0342 16.0085 34.7181C16.277 34.3996 16.6738 34.1938 17.1989 34.1007C17.7635 34.0006 18.1853 34.0883 18.4643 34.3638C18.7565 34.637 18.941 34.9902 19.0179 35.4234C19.104 35.9091 19.0694 36.4773 18.9139 37.1277C18.7716 37.7759 18.5709 38.4005 18.3119 39.0017C18.4834 39.0525 18.6742 39.0593 18.8843 39.022C19.0812 38.9871 19.3093 38.8992 19.5687 38.7584C19.8281 38.6176 20.0705 38.4189 20.2958 38.1623C20.5188 37.8926 20.6765 37.5599 20.7688 37.1644L21.1687 37.3575C20.9986 38.0783 20.6986 38.6393 20.2688 39.0405C19.8497 39.4263 19.4104 39.6599 18.9509 39.7414C18.7802 39.7717 18.6072 39.7889 18.4319 39.7929C18.2543 39.7837 18.0886 39.7657 17.9348 39.7388C17.5816 40.3431 17.1511 40.8934 16.6433 41.3898C16.1355 41.8861 15.5862 42.1866 14.9954 42.2914ZM17.569 38.7069C17.8026 38.1915 17.9844 37.6514 18.1145 37.0867C18.2445 36.522 18.2699 36.0165 18.1908 35.5701C18.1372 35.2681 18.0529 35.0597 17.9377 34.9447C17.8202 34.8166 17.6695 34.7688 17.4857 34.8014C17.2363 34.8456 17.0117 35.0683 16.812 35.4693C16.6123 35.8704 16.5602 36.34 16.6556 36.8783C16.7045 37.154 16.8099 37.4806 16.9716 37.8581C17.1465 38.2334 17.3456 38.5163 17.569 38.7069ZM27.6173 39.8091C27.1053 39.8999 26.6881 39.8384 26.3659 39.6248C26.0591 39.4219 25.8707 39.1235 25.8009 38.7297C25.7543 38.4671 25.7514 38.1833 25.792 37.8781C25.8304 37.5599 25.8687 37.2416 25.9071 36.9234C25.9454 36.6051 25.9402 36.3081 25.8913 36.0324C25.84 35.7436 25.7329 35.5595 25.5699 35.4801C25.4176 35.3852 25.2496 35.3541 25.0658 35.3867C24.6719 35.4565 24.2941 35.6928 23.9322 36.0955C23.5811 36.4828 23.2517 36.9542 22.944 37.5098C22.6494 38.0631 22.378 38.6326 22.1298 39.2183C21.8816 39.8039 21.67 40.329 21.4951 40.7933C21.2457 40.8375 21.0012 40.8335 20.7617 40.7812C20.5246 40.742 20.3086 40.6314 20.1138 40.4492C20.1153 40.3813 20.1591 40.1704 20.2453 39.8165C20.3161 39.4519 20.396 39.0247 20.4852 38.535C20.572 38.0321 20.6357 37.513 20.6762 36.9777C20.7167 36.4424 20.6996 35.9647 20.6251 35.5446C20.6984 35.4233 20.8176 35.2938 20.9828 35.1561C21.1611 35.0162 21.3553 34.9276 21.5653 34.8903C22.0248 34.8088 22.2895 34.965 22.3594 35.3589C22.3873 35.5164 22.3964 35.7585 22.3866 36.0853C22.3877 36.3965 22.3706 36.7584 22.3354 37.1709C22.5953 36.6509 22.8926 36.1513 23.2274 35.6721C23.5622 35.1929 23.9241 34.7902 24.3131 34.4639C24.7129 34.1222 25.136 33.9118 25.5823 33.8326C26.1469 33.7325 26.5942 33.8495 26.9243 34.1836C27.2675 34.5155 27.4798 34.9111 27.5613 35.3706C27.6312 35.7645 27.6307 36.1437 27.56 36.5083C27.4893 36.873 27.415 37.2179 27.3373 37.5431C27.2727 37.866 27.266 38.1719 27.3172 38.4607C27.3545 38.6708 27.4272 38.8136 27.5354 38.8892C27.6544 38.9494 27.773 38.969 27.8911 38.948C28.2062 38.8921 28.5077 38.6829 28.7954 38.3204C29.0832 37.9579 29.3373 37.5202 29.5578 37.0071C29.7891 36.4786 29.9809 35.9571 30.1334 35.4426L30.5171 35.6589C30.3555 36.3511 30.1452 36.9977 29.8862 37.5989C29.638 38.1846 29.3264 38.6799 28.9513 39.085C28.5871 39.4746 28.1424 39.7159 27.6173 39.8091ZM32.1716 39.5294C31.5939 39.6319 31.0976 39.5439 30.6826 39.2654C30.2676 38.9869 29.9984 38.4998 29.875 37.804C29.7795 37.2657 29.7592 36.5787 29.8141 35.7429C29.8821 34.9049 29.998 34.0312 30.1617 33.122C30.0652 33.112 29.9501 33.1121 29.8165 33.1223C29.6937 33.117 29.5685 33.0985 29.4411 33.067L29.3328 32.4565C29.5475 32.4455 29.7217 32.4349 29.8553 32.4248C30.002 32.4123 30.1488 32.3998 30.2955 32.3873C30.4478 31.6426 30.6244 30.9207 30.8254 30.2215C31.0372 29.5069 31.2552 28.8656 31.4795 28.2977C31.7169 27.7275 31.9544 27.2723 32.192 26.9323C32.4273 26.5791 32.6565 26.3827 32.8797 26.3432C33.011 26.3199 33.145 26.3503 33.2818 26.4343C33.4163 26.5053 33.4998 26.6326 33.5324 26.8164C33.579 27.079 33.5075 27.4776 33.3179 28.0123C33.1415 28.5446 32.9146 29.1739 32.6371 29.9002C32.3574 30.6133 32.0989 31.3701 31.8617 32.1705C31.9667 32.1518 32.0718 32.1332 32.1768 32.1146C32.2818 32.096 32.3803 32.0785 32.4722 32.0622C33.0498 31.9598 33.5672 31.8612 34.0244 31.7666C34.4924 31.6565 34.9646 31.5321 35.441 31.3935L35.5563 32.0433C34.8458 32.237 34.1922 32.4071 33.5952 32.5536C32.9983 32.7001 32.4253 32.8288 31.8763 32.9398C31.8369 32.9467 31.7975 32.9537 31.7581 32.9607C31.7187 32.9677 31.6793 32.9747 31.64 32.9817C31.4783 33.6739 31.3531 34.3799 31.2641 35.0999C31.1859 35.8043 31.2039 36.4782 31.318 37.1215C31.4134 37.6598 31.5663 38.0254 31.7765 38.2183C31.9868 38.4112 32.2757 38.4751 32.6433 38.4099C33.2997 38.2934 33.9169 37.8793 34.4948 37.1674C35.0835 36.4401 35.543 35.5191 35.8734 34.4042L36.1841 34.5523C35.9801 35.3874 35.678 36.1654 35.2777 36.8864C34.8906 37.605 34.4331 38.194 33.9052 38.6532C33.3796 39.1256 32.8017 39.4177 32.1716 39.5294ZM37.159 38.6652C36.7258 38.742 36.326 38.664 35.9597 38.431C35.5802 38.2004 35.3393 37.7963 35.2368 37.2186C35.1554 36.7591 35.1719 36.2416 35.2865 35.6661C35.4011 35.0906 35.5956 34.5077 35.8701 33.9173C36.1445 33.327 36.4808 32.7799 36.8789 32.2759C37.2747 31.7589 37.7185 31.3213 38.2102 30.9633C38.7019 30.6052 39.2168 30.3785 39.7551 30.283C40.3196 30.1829 40.8244 30.2423 41.2695 30.4613C41.7146 30.6803 41.979 31.0261 42.0629 31.4987C42.1257 31.8532 42.0464 32.1313 41.8249 32.3331C41.6034 32.5349 41.3162 32.6332 40.9632 32.6281C40.9685 32.5053 40.9672 32.3836 40.9594 32.2632C40.9647 32.1403 40.9557 32.0133 40.9324 31.882C40.8859 31.6194 40.7914 31.3924 40.6491 31.201C40.5069 31.0096 40.2651 30.9441 39.9237 31.0047C39.5561 31.0699 39.2041 31.261 38.8676 31.5779C38.5311 31.8949 38.2217 32.2883 37.9394 32.7581C37.6679 33.2125 37.4374 33.7071 37.2479 34.2417C37.056 34.7632 36.9221 35.2677 36.846 35.7551C36.77 36.2426 36.7645 36.6701 36.8297 37.0377C36.9042 37.4578 37.0925 37.6411 37.3944 37.5875C37.6964 37.534 38.0055 37.3302 38.3219 36.9762C38.636 36.609 38.9372 36.1697 39.2256 35.6581C39.5272 35.1442 39.8079 34.6272 40.0677 34.1072C40.3252 33.574 40.5496 33.1212 40.7408 32.7488C40.7686 32.6762 40.8153 32.634 40.8809 32.6224C40.9358 32.6262 41.0401 32.6416 41.1938 32.6685C41.3583 32.6799 41.5144 32.7199 41.6619 32.7885C41.8095 32.8572 41.8961 32.9637 41.9217 33.1081C41.945 33.2394 41.9162 33.4205 41.8353 33.6515C41.7652 33.8671 41.6735 34.1135 41.5602 34.3909C41.4577 34.6529 41.3695 34.919 41.2956 35.1894C41.2325 35.4444 41.2207 35.6834 41.2603 35.9066C41.2906 36.0773 41.3656 36.2332 41.4854 36.3745C41.603 36.5026 41.7667 36.548 41.9768 36.5108C42.2919 36.4549 42.6909 36.1471 43.174 35.5875C43.6678 35.0124 44.1111 34.1145 44.504 32.8938L44.9445 33.2016C44.7552 33.9665 44.4862 34.6642 44.1376 35.2947C43.7999 35.9098 43.4149 36.4114 42.9827 36.7995C42.5528 37.2008 42.0884 37.4456 41.5896 37.5341C41.0513 37.6296 40.6206 37.5299 40.2975 37.2351C39.9744 36.9404 39.7648 36.5984 39.6687 36.2092C39.664 36.1829 39.6605 36.1632 39.6582 36.1501C39.6559 36.137 39.6535 36.1239 39.6512 36.1107C39.2378 36.834 38.8406 37.4191 38.4594 37.8658C38.0913 38.3103 37.6579 38.5767 37.159 38.6652ZM47.0631 37.0915C46.3804 37.2125 45.7775 37.096 45.2543 36.742C44.7465 36.3987 44.4146 35.7872 44.2586 34.9076C44.1445 34.2643 44.1575 33.6121 44.2975 32.9508C44.4375 32.2895 44.6745 31.6787 45.0084 31.1185C45.3401 30.5451 45.7363 30.0686 46.1971 29.6889C46.671 29.307 47.1771 29.0683 47.7153 28.9728C48.2667 28.875 48.685 28.943 48.9702 29.1768C49.2686 29.4082 49.4503 29.7078 49.5155 30.0754C49.5807 30.443 49.5529 30.8203 49.4319 31.2074C49.3218 31.579 49.1158 31.7916 48.8138 31.8451C48.5644 31.8893 48.3388 31.8007 48.137 31.5792C48.252 31.464 48.3595 31.2689 48.4597 30.9939C48.5599 30.7188 48.575 30.3844 48.5052 29.9905C48.4866 29.8855 48.4463 29.8114 48.3845 29.7682C48.3204 29.7118 48.2161 29.6965 48.0717 29.7221C47.7434 29.7803 47.4223 29.993 47.1083 30.3601C46.805 30.7118 46.5378 31.1519 46.3065 31.6804C46.0861 32.1935 45.9239 32.73 45.8201 33.2901C45.7272 33.8347 45.7191 34.3236 45.7959 34.7569C45.8611 35.1245 46.0136 35.4495 46.2532 35.732C46.5037 35.999 46.9046 36.0836 47.456 35.9858C47.9549 35.8974 48.4479 35.661 48.9349 35.2767C49.422 34.8924 49.8564 34.4023 50.2382 33.8065C50.6177 33.1975 50.8878 32.5064 51.0486 31.7331L51.5053 32.0177C51.3323 32.8745 51.0194 33.668 50.5666 34.3982C50.1246 35.1131 49.5938 35.7083 48.9739 36.1838C48.3696 36.6702 47.7326 36.9727 47.0631 37.0915ZM53.1527 35.8083C52.5751 35.9107 52.0787 35.8227 51.6637 35.5443C51.2487 35.2658 50.9795 34.7786 50.8561 34.0828C50.7607 33.5446 50.7404 32.8576 50.7953 32.0218C50.8633 31.1837 50.9792 30.31 51.1429 29.4008C51.0463 29.3909 50.9313 29.391 50.7976 29.4011C50.6748 29.3958 50.5497 29.3774 50.4222 29.3458L50.314 28.7353C50.5287 28.7243 50.7028 28.7138 50.8364 28.7036C50.9832 28.6911 51.1299 28.6786 51.2767 28.6662C51.429 27.9215 51.6056 27.1995 51.8066 26.5003C52.0184 25.7857 52.2364 25.1444 52.4607 24.5766C52.6981 24.0063 52.9356 23.5512 53.1732 23.2111C53.4085 22.858 53.6377 22.6616 53.8609 22.622C53.9922 22.5987 54.1262 22.6291 54.263 22.7132C54.3974 22.7841 54.481 22.9115 54.5136 23.0953C54.5601 23.3579 54.4886 23.7565 54.2991 24.2911C54.1227 24.8234 53.8957 25.4527 53.6183 26.179C53.3386 26.8922 53.0801 27.6489 52.8429 28.4493C52.9479 28.4307 53.0529 28.4121 53.1579 28.3934C53.263 28.3748 53.3614 28.3574 53.4533 28.3411C54.031 28.2386 54.5484 28.1401 55.0056 28.0454C55.4735 27.9354 55.9457 27.811 56.4222 27.6723L56.5374 28.3222C55.827 28.5159 55.1733 28.686 54.5764 28.8325C53.9795 28.979 53.4065 29.1077 52.8574 29.2186C52.818 29.2256 52.7787 29.2326 52.7393 29.2396C52.6999 29.2465 52.6605 29.2535 52.6211 29.2605C52.4595 29.9527 52.3342 30.6588 52.2452 31.3787C52.1671 32.0832 52.185 32.7571 52.2991 33.4004C52.3946 33.9386 52.5474 34.3042 52.7577 34.4971C52.9679 34.69 53.2569 34.7539 53.6245 34.6887C54.2809 34.5723 54.898 34.1581 55.476 33.4463C56.0647 32.719 56.5242 31.7979 56.8546 30.6831L57.1652 30.8311C56.9613 31.6662 56.6591 32.4443 56.2589 33.1652C55.8718 33.8839 55.4143 34.4728 54.8864 34.9321C54.3608 35.4045 53.7829 35.6965 53.1527 35.8083ZM73.9138 33.2027C73.428 33.2889 72.9695 33.1468 72.5382 32.7764C72.12 32.4037 71.8574 31.9154 71.7503 31.3115C71.7316 31.2065 71.706 31.062 71.6734 30.8782C71.6539 30.6921 71.6321 30.4929 71.608 30.2805C71.2914 31.2439 70.8418 32.0684 70.2593 32.754C69.6767 33.4396 68.9062 33.8674 67.9479 34.0374C67.0682 34.1934 66.3324 34.0531 65.7404 33.6164C65.1615 33.1774 64.7883 32.4853 64.6206 31.5401C64.5182 30.9624 64.4863 30.3248 64.5251 29.6273C64.5616 28.9167 64.6339 28.1794 64.7422 27.4154C64.8504 26.6515 64.9587 25.8875 65.0669 25.1235C65.1729 24.3464 65.2417 23.5894 65.2735 22.8525C65.3053 22.1157 65.2654 21.4321 65.1536 20.802C64.944 19.6204 64.4848 19.0925 63.7759 19.2182C63.4214 19.2811 63.1392 19.4462 62.9294 19.7137C62.7195 19.9811 62.5595 20.3006 62.4494 20.6722C62.3501 21.0284 62.2913 21.3841 62.273 21.7394C62.2548 22.0947 62.2666 22.3905 62.3086 22.6268C62.3435 22.8238 62.4082 23.0357 62.5026 23.2627C62.5947 23.4766 62.6899 23.6696 62.7881 23.8418C62.1579 23.9535 61.6794 23.8895 61.3525 23.6495C61.0387 23.4073 60.8433 23.0695 60.7665 22.6363C60.6943 22.2293 60.7194 21.7983 60.8419 21.3433C60.9643 20.8882 61.1713 20.452 61.4629 20.0347C61.7653 19.6019 62.1407 19.2374 62.5892 18.9412C63.0354 18.6319 63.5408 18.4271 64.1053 18.327C64.9061 18.185 65.5245 18.3123 65.9605 18.7089C66.4096 19.1032 66.7028 19.6876 66.8402 20.4622C66.9263 20.948 66.9627 21.4967 66.9493 22.1085C66.936 22.7202 66.8933 23.3574 66.8212 24.0202C66.7492 24.683 66.6737 25.326 66.5946 25.9494C66.455 27.071 66.3501 28.0443 66.2797 28.8693C66.207 29.6811 66.2254 30.3956 66.3348 31.0126C66.4419 31.6165 66.6563 32.0998 66.9779 32.4626C67.3019 32.8384 67.7592 32.974 68.35 32.8692C68.8883 32.7737 69.3503 32.5158 69.7362 32.0952C70.1243 31.6879 70.4359 31.1925 70.671 30.6092C70.9169 30.0104 71.1056 29.3946 71.2371 28.7619C71.3687 28.1292 71.4481 27.5464 71.4755 27.0134C71.5219 26.2062 71.5787 25.3431 71.6459 24.4239C71.713 23.5047 71.7891 22.5975 71.8741 21.7022C71.9722 20.8046 72.0842 19.9858 72.2103 19.2457C72.3363 18.5057 72.4814 17.9112 72.6455 17.4623C72.8204 16.998 73.0261 16.7449 73.2624 16.7029C73.3937 16.6797 73.5837 16.7204 73.8325 16.8253C74.0921 16.9146 74.3676 17.0554 74.6589 17.2474C74.5571 17.3603 74.4353 17.6662 74.2936 18.1653C74.1519 18.6644 74.0072 19.2994 73.8596 20.0704C73.712 20.8413 73.5706 21.6857 73.4354 22.6034C73.3134 23.5188 73.2157 24.4569 73.1424 25.4178C73.0799 26.3632 73.0509 27.2689 73.0555 28.1347C73.0602 29.0006 73.1207 29.7617 73.2371 30.4181C73.3814 31.2321 73.6148 31.7459 73.937 31.9596C74.2593 32.1732 74.7618 32.2195 75.4444 32.0985C75.3443 32.3735 75.1363 32.6135 74.8206 32.8185C74.5049 33.0234 74.2026 33.1515 73.9138 33.2027ZM78.6634 31.3854C78.007 31.5018 77.4509 31.4582 76.995 31.2547C76.5546 31.062 76.2129 30.7773 75.9701 30.4006C75.7249 30.0107 75.5639 29.5992 75.4871 29.1659C75.4195 28.7852 75.4197 28.4805 75.4874 28.2518C75.5552 28.0232 75.6597 27.8489 75.801 27.7291C75.9399 27.5961 76.0703 27.4917 76.1923 27.4159C76.3274 27.3378 76.4219 27.2601 76.4759 27.1828C76.7436 26.7832 77.0085 26.33 77.2707 25.8231C77.5437 25.3007 77.756 24.7417 77.9076 24.1461L77.8727 23.9492C77.7796 23.424 77.7997 23.0413 77.9331 22.801C78.0773 22.5452 78.2676 22.3964 78.5039 22.3544C78.6615 22.3265 78.78 22.3461 78.8596 22.4132C78.9524 22.478 79.0146 22.5618 79.0464 22.6645C79.0604 22.7432 79.057 22.8386 79.0362 22.9506C79.0286 23.0603 79.0411 23.2071 79.0737 23.3909C79.1435 23.7847 79.3157 24.2214 79.5903 24.7008C79.8758 25.1647 80.1604 25.6627 80.4443 26.1946C80.7414 26.7242 80.9423 27.2844 81.0471 27.8752C81.075 28.0327 81.0941 28.1783 81.1042 28.3119C81.1144 28.4455 81.1168 28.5737 81.1115 28.6965C81.4999 28.5193 81.8607 28.2251 82.194 27.8139C82.525 27.3896 82.8072 26.8047 83.0406 26.0591L83.3083 26.1944C83.1916 26.987 82.9377 27.655 82.5465 28.1983C82.1531 28.7285 81.6506 29.102 81.0391 29.3187C80.9245 29.8943 80.6476 30.3564 80.2084 30.7051C79.7823 31.0515 79.2674 31.2782 78.6634 31.3854ZM78.3719 30.5433C78.6345 30.4968 78.8657 30.388 79.0656 30.2172C79.2655 30.0463 79.409 29.8245 79.496 29.5518C78.9368 29.5291 78.4138 29.4052 77.927 29.1801C77.4402 28.955 77.0507 28.7058 76.7585 28.4326C76.5817 28.5046 76.5213 28.6982 76.5771 29.0132C76.654 29.4465 76.8509 29.8313 77.1678 30.1678C77.4848 30.5043 77.8862 30.6295 78.3719 30.5433ZM79.5488 28.9331C79.5588 28.8365 79.5533 28.7291 79.5323 28.611C79.5221 28.4774 79.5112 28.3778 79.4996 28.3121C79.3817 27.7237 79.1993 27.1534 78.9524 26.6014C78.7056 26.0493 78.4564 25.4842 78.2049 24.9059C78.0407 25.3548 77.843 25.8435 77.6118 26.372C77.3805 26.9005 77.1527 27.3336 76.9282 27.6713C77.2011 27.9885 77.569 28.2686 78.0319 28.5115C78.4947 28.7544 79.0004 28.8949 79.5488 28.9331ZM88.4061 30.3887C88.4368 30.1801 88.5469 29.6934 88.7362 28.9286C88.941 28.1746 89.2089 27.1656 89.54 25.9017C89.8818 24.6224 90.2837 23.1089 90.7456 21.3614C91.2076 19.6139 91.7187 17.6477 92.2791 15.463C92.313 15.3486 92.3326 15.23 92.3379 15.1072C92.3564 14.9821 92.3574 14.8736 92.3411 14.7817C92.3178 14.6504 92.2598 14.5523 92.1671 14.4875C92.0743 14.4227 91.9164 14.4101 91.6932 14.4497C91.1418 14.5475 90.7191 14.7985 90.4252 15.2027C90.1421 15.5915 89.9583 16.0439 89.8737 16.5599C89.8023 17.0736 89.8086 17.5667 89.8924 18.0394C89.9133 18.1575 89.9444 18.2942 89.9854 18.4494C90.0265 18.6046 90.0776 18.7784 90.1388 18.9706C89.8237 19.0265 89.5449 18.9812 89.3022 18.8346C89.0703 18.6726 88.8775 18.4631 88.7235 18.206C88.5673 17.9358 88.467 17.676 88.4228 17.4266C88.3483 17.0065 88.3943 16.5785 88.5607 16.1428C88.7403 15.7047 88.9991 15.2932 89.3371 14.9082C89.6727 14.5102 90.0605 14.1773 90.5006 13.9097C90.9537 13.6397 91.4166 13.4629 91.8892 13.379C92.375 13.2929 92.813 13.3574 93.2032 13.5725C93.5911 13.7746 93.9398 14.2138 94.2494 14.8901C94.5566 15.5533 94.8266 16.5413 95.0594 17.8542C95.2108 18.7075 95.3316 19.5798 95.422 20.4711C95.5232 21.3469 95.6085 22.1713 95.6779 22.9444C95.7473 23.7175 95.8297 24.3732 95.9252 24.9114C96.0504 24.0903 96.2265 23.2127 96.4535 22.2787C96.6914 21.3293 96.9578 20.3883 97.2528 19.4558C97.5455 18.5101 97.841 17.6181 98.1392 16.7799C98.4374 15.9416 98.7071 15.2099 98.9483 14.5848C99.2003 13.9443 99.3937 13.4699 99.5287 13.1616C99.6612 12.8402 99.7869 12.5945 99.9057 12.4244C100.025 12.2544 100.209 12.1473 100.458 12.103C100.642 12.0704 100.944 12.0914 101.363 12.166C101.289 12.4364 101.222 12.8612 101.162 13.4406C101.1 14.0068 101.041 14.6672 100.986 15.4219C100.929 16.2445 100.885 17.1459 100.856 18.1261C100.824 19.0931 100.815 20.0698 100.827 21.0561C100.84 22.0425 100.87 22.9782 100.919 23.8633C100.978 24.7329 101.066 25.496 101.183 26.1524C101.243 26.4937 101.304 26.7605 101.365 26.9528C101.44 27.1427 101.516 27.3053 101.594 27.4404C101.687 27.5863 101.795 27.7704 101.915 27.9927C101.351 28.0928 100.902 28.0843 100.57 27.9672C100.251 27.8478 100.005 27.607 99.8327 27.2449C99.6756 26.8936 99.5424 26.4094 99.4329 25.7924C99.1745 24.3352 99.0673 22.7766 99.1115 21.1167C99.1664 19.4414 99.2657 17.7108 99.4094 15.9249C99.1349 16.5152 98.8648 17.2064 98.599 17.9983C98.3332 18.7902 98.081 19.6203 97.8423 20.4887C97.6036 21.357 97.3834 22.2154 97.1818 23.0636C96.9778 23.8987 96.8039 24.6743 96.6601 25.3905C96.514 26.0934 96.4083 26.6809 96.343 27.1529C96.2319 27.2132 96.1512 27.2546 96.101 27.2771C96.0639 27.2972 96.0126 27.3131 95.9469 27.3247C95.4874 27.4062 95.1432 27.1829 94.9141 26.6548C94.6958 26.1112 94.5005 25.3537 94.3282 24.3822C94.2374 23.8702 94.1473 23.3242 94.058 22.7442C93.9664 22.1511 93.8801 21.5503 93.7993 20.9417C93.7161 20.32 93.6275 19.706 93.5335 19.0998C93.4395 18.4936 93.3437 17.9147 93.2459 17.3633C93.2109 17.1664 93.1694 16.9707 93.1214 16.7761C93.0865 16.5791 93.0527 16.3888 93.0201 16.205C92.4345 18.7057 91.9404 20.8448 91.538 22.6224C91.1464 24.3845 90.7997 25.8272 90.4979 26.9505C90.1937 28.0607 89.8801 28.8882 89.5569 29.433C89.2361 29.9909 88.8525 30.3095 88.4061 30.3887ZM106.043 26.3872C105.203 26.5363 104.512 26.4218 103.971 26.0438C103.446 25.6766 103.122 25.1516 103.001 24.4689C102.899 23.8913 102.935 23.2552 103.11 22.5607C103.295 21.8507 103.587 21.1692 103.986 20.5162C104.382 19.8501 104.851 19.2862 105.392 18.8247C105.933 18.3631 106.506 18.0787 107.11 17.9716C107.451 17.9111 107.789 17.9459 108.123 18.0762C108.469 18.191 108.688 18.5109 108.781 19.0361C108.87 19.535 108.808 20.0266 108.596 20.5111C108.384 20.9956 108.065 21.4515 107.64 21.879C107.215 22.3065 106.727 22.6843 106.176 23.0122C105.635 23.3247 105.075 23.5662 104.496 23.7366C104.492 23.7914 104.49 23.8529 104.488 23.9208C104.498 23.9733 104.514 24.0652 104.537 24.1965C104.549 24.2622 104.576 24.3792 104.62 24.5475C104.674 24.7004 104.763 24.8606 104.888 25.0281C105.012 25.1956 105.191 25.3263 105.425 25.4204C105.658 25.5144 105.958 25.5288 106.326 25.4636C106.877 25.3658 107.402 25.1171 107.9 24.7173C108.408 24.3021 108.86 23.7954 109.255 23.1973C109.663 22.5968 109.976 21.9523 110.192 21.264L110.642 21.5092C110.427 22.3598 110.09 23.1305 109.63 23.8214C109.183 24.51 108.648 25.0789 108.023 25.5282C107.412 25.9752 106.752 26.2615 106.043 26.3872ZM104.584 22.9696C104.918 22.8696 105.278 22.684 105.663 22.4125C106.048 22.1411 106.404 21.8206 106.731 21.4511C107.072 21.0793 107.335 20.6941 107.522 20.2954C107.706 19.8835 107.766 19.4938 107.7 19.1262C107.675 18.9818 107.631 18.888 107.569 18.8448C107.507 18.8016 107.417 18.7905 107.299 18.8114C106.997 18.865 106.702 19.0325 106.413 19.3139C106.122 19.5821 105.851 19.9214 105.599 20.3318C105.344 20.729 105.129 21.1598 104.954 21.6241C104.779 22.0885 104.656 22.537 104.584 22.9696ZM112.348 25.3096C111.731 25.419 111.208 25.3357 110.78 25.0596C110.365 24.7811 110.097 24.3005 109.976 23.6178C109.909 23.2371 109.881 22.7749 109.893 22.2311C109.905 21.6873 109.943 21.1049 110.009 20.4839C110.086 19.8474 110.178 19.2217 110.286 18.6067C110.161 18.5883 110.043 18.5753 109.934 18.5677C109.835 18.5446 109.701 18.5142 109.531 18.4765L109.423 17.866C109.666 17.8635 109.851 17.8714 109.976 17.8899C110.099 17.8952 110.248 17.8958 110.423 17.8918C110.625 16.8945 110.867 15.9647 111.147 15.1025C111.427 14.2403 111.723 13.5379 112.033 12.9955C112.343 12.453 112.642 12.1561 112.931 12.1049C113.075 12.0793 113.216 12.1085 113.353 12.1926C113.49 12.2767 113.57 12.3843 113.593 12.5156C113.621 12.6732 113.587 12.9431 113.493 13.3255C113.398 13.708 113.266 14.1445 113.095 14.6351C112.936 15.1102 112.77 15.5865 112.597 16.064C112.438 16.5392 112.288 16.9517 112.146 17.3018C112.019 17.6494 111.943 17.8727 111.92 17.9716C112.271 17.9636 112.594 17.9536 112.89 17.9418C113.183 17.9168 113.474 17.8787 113.763 17.8275C114.144 17.76 114.533 17.6639 114.931 17.5392C115.328 17.4145 115.769 17.262 116.251 17.0816C116.438 16.0735 116.668 15.0781 116.94 14.0954C117.21 13.0995 117.505 12.201 117.823 11.3998C118.152 10.5831 118.482 9.92202 118.812 9.4166C119.153 8.89572 119.481 8.60734 119.796 8.55146C120.059 8.50489 120.289 8.61978 120.487 8.89612C120.682 9.15933 120.81 9.46161 120.871 9.80295C120.948 10.2362 120.929 10.7811 120.816 11.4377C120.702 12.0944 120.506 12.7858 120.229 13.5121C119.951 14.2384 119.595 14.9381 119.159 15.6112C118.736 16.282 118.248 16.8493 117.694 17.3132C117.593 17.7373 117.523 18.2576 117.483 18.874C117.454 19.4749 117.449 20.0581 117.468 20.6234C117.487 21.1888 117.526 21.6356 117.584 21.9638C117.753 21.0808 117.972 20.2565 118.242 19.4908C118.513 18.7252 118.854 18.0892 119.265 17.583C119.689 17.0744 120.19 16.7689 120.768 16.6664C121.372 16.5593 121.848 16.6848 122.196 17.0429C122.541 17.3878 122.756 17.7966 122.84 18.2692C122.907 18.65 122.904 19.0501 122.829 19.4695C122.765 19.8735 122.693 20.2656 122.611 20.6457C122.54 21.0103 122.53 21.3304 122.578 21.6061C122.62 21.8425 122.702 21.9972 122.823 22.0705C122.958 22.1415 123.091 22.1653 123.222 22.142C123.511 22.0908 123.82 21.887 124.149 21.5306C124.49 21.1588 124.801 20.6975 125.082 20.1465C125.377 19.5932 125.6 19.0188 125.751 18.4231L126.188 18.7113C126.016 19.4189 125.775 20.0845 125.466 20.7081C125.157 21.3317 124.781 21.8452 124.338 22.2488C123.91 22.6632 123.421 22.9192 122.869 23.017C122.37 23.1055 121.96 23.0429 121.638 22.8292C121.328 22.6132 121.139 22.3083 121.069 21.9145C121.02 21.6388 121.014 21.3352 121.05 21.0038C121.097 20.657 121.136 20.3048 121.167 19.9471C121.198 19.5895 121.188 19.2663 121.137 18.9774C121.084 18.6755 120.98 18.4705 120.825 18.3625C120.684 18.2522 120.508 18.2156 120.298 18.2529C119.983 18.3088 119.717 18.4913 119.501 18.8004C119.296 19.0941 119.124 19.4631 118.987 19.9073C118.849 20.3515 118.729 20.8197 118.626 21.3118C118.522 21.7908 118.414 22.25 118.302 22.6896C118.203 23.1269 118.078 23.4877 117.925 23.772C117.788 24.0672 117.608 24.2346 117.385 24.2742C117.188 24.3091 117.006 24.2397 116.84 24.0661C116.687 23.8901 116.546 23.6713 116.419 23.4095C116.291 23.1478 116.191 22.888 116.118 22.6301C116.043 22.359 115.992 22.1513 115.967 22.0069C115.577 22.8615 115.069 23.588 114.444 24.1863C113.834 24.7955 113.136 25.1699 112.348 25.3096ZM112.744 24.2237C113.401 24.1073 114.007 23.7086 114.564 23.0276C115.131 22.3312 115.569 21.4411 115.877 20.3572C115.886 19.9493 115.905 19.5601 115.934 19.1893C115.963 18.8185 116.013 18.4103 116.083 17.9646C115.703 18.1132 115.333 18.2398 114.972 18.3444C114.611 18.4489 114.254 18.5327 113.899 18.5955C113.545 18.6584 113.187 18.7016 112.825 18.7251C112.464 18.7485 112.094 18.7601 111.714 18.7596C111.54 19.4541 111.419 20.1459 111.351 20.8349C111.284 21.5239 111.311 22.2098 111.432 22.8925C111.527 23.4307 111.668 23.8052 111.854 24.0159C112.054 24.2243 112.351 24.2935 112.744 24.2237ZM117.868 16.0027C118.19 15.607 118.479 15.1765 118.735 14.7113C118.991 14.2461 119.207 13.7814 119.382 13.317C119.568 12.8372 119.712 12.3918 119.815 11.9808C119.929 11.5544 119.993 11.1909 120.008 10.8904C120.014 10.6996 120.009 10.5517 119.99 10.4467C119.89 10.4916 119.744 10.6663 119.555 10.9708C119.378 11.2729 119.18 11.6805 118.959 12.1936C118.736 12.6935 118.528 13.2722 118.333 13.9296C118.135 14.574 117.98 15.265 117.868 16.0027ZM127.305 22.3725C126.714 22.4773 126.273 22.3525 125.98 21.9982C125.702 21.6548 125.522 21.2533 125.441 20.7938C125.366 20.3737 125.356 19.9354 125.411 19.4788C125.463 19.0092 125.567 18.5642 125.722 18.1439C125.891 17.7213 126.094 17.3739 126.33 17.1018C126.577 16.8143 126.845 16.6449 127.133 16.5937C127.225 16.5774 127.334 16.5784 127.459 16.5969C127.595 16.5999 127.695 16.6295 127.759 16.6858C127.637 16.9107 127.515 17.1827 127.396 17.5018C127.29 17.8185 127.193 18.1538 127.107 18.5077C127.032 18.846 126.984 19.1863 126.963 19.5285C126.943 19.8707 126.957 20.1796 127.006 20.4553C127.052 20.7179 127.137 20.9263 127.259 21.0807C127.394 21.2328 127.587 21.2867 127.836 21.2424C128.085 21.1982 128.356 21.0079 128.649 20.6717C128.952 20.32 129.229 19.9324 129.479 19.5089C128.991 19.2027 128.616 18.8427 128.353 18.429C128.087 18.0021 127.898 17.467 127.784 16.8237C127.735 16.548 127.744 16.2213 127.813 15.8435C127.894 15.4634 128.063 15.1153 128.318 14.7992C128.587 14.4807 128.984 14.275 129.509 14.1818C130.073 14.0817 130.495 14.1694 130.774 14.4449C131.066 14.7181 131.251 15.0713 131.328 15.5045C131.414 15.9903 131.379 16.5584 131.224 17.2088C131.081 17.857 130.881 18.4816 130.622 19.0828C130.793 19.1336 130.984 19.1404 131.194 19.1031C131.391 19.0682 131.619 18.9803 131.879 18.8395C132.138 18.6988 132.38 18.5 132.606 18.2434C132.829 17.9737 132.986 17.641 133.079 17.2455L133.478 17.4386C133.308 18.1594 133.008 18.7204 132.579 19.1216C132.159 19.5074 131.72 19.741 131.261 19.8225C131.09 19.8528 130.917 19.87 130.742 19.874C130.564 19.8649 130.398 19.8468 130.245 19.8199C129.891 20.4242 129.461 20.9746 128.953 21.4709C128.445 21.9672 127.896 22.2677 127.305 22.3725ZM129.879 18.788C130.112 18.2726 130.294 17.7325 130.424 17.1678C130.554 16.6031 130.58 16.0976 130.501 15.6512C130.447 15.3492 130.363 15.1408 130.247 15.0258C130.13 14.8977 129.979 14.8499 129.796 14.8825C129.546 14.9267 129.321 15.1494 129.122 15.5504C128.922 15.9515 128.87 16.4211 128.965 16.9594C129.014 17.2351 129.12 17.5617 129.281 17.9393C129.456 18.3145 129.655 18.5974 129.879 18.788ZM134.684 21.0231C134.435 21.0674 134.167 21.0471 133.881 20.9624C133.611 20.8885 133.367 20.7354 133.15 20.5031C132.92 20.2731 132.768 19.9546 132.696 19.5476C132.619 19.1144 132.638 18.61 132.753 18.0345C132.867 17.459 133.054 16.8707 133.313 16.2695C133.585 15.6661 133.918 15.0992 134.312 14.569C134.718 14.0365 135.166 13.5847 135.656 13.2135C136.145 12.8424 136.665 12.6079 137.217 12.5101C137.519 12.4565 137.764 12.4671 137.954 12.5419C138.14 12.6035 138.254 12.7459 138.293 12.9691C138.305 13.0348 138.306 13.1159 138.296 13.2124C138.284 13.2958 138.231 13.3797 138.137 13.464C138.071 13.3945 137.97 13.3583 137.834 13.3553C137.695 13.3392 137.554 13.344 137.41 13.3696C136.976 13.4464 136.585 13.6445 136.235 13.9638C135.883 14.2699 135.577 14.6425 135.316 15.0814C135.056 15.5204 134.84 15.9851 134.67 16.4757C134.513 16.964 134.406 17.4299 134.349 17.8732C134.29 18.3035 134.287 18.6696 134.341 18.9716C134.385 19.221 134.474 19.4152 134.607 19.5541C134.737 19.6799 134.908 19.7242 135.118 19.6869C135.472 19.624 135.856 19.346 136.27 18.8529C136.694 18.3443 137.094 17.6573 137.468 16.7919C137.854 15.9111 138.16 14.8886 138.387 13.7244C138.543 12.9249 138.71 12.1099 138.887 11.2794C139.063 10.4358 139.244 9.62505 139.431 8.8471C139.618 8.06916 139.812 7.37114 140.014 6.75307C140.229 6.13266 140.445 5.63391 140.663 5.2568C140.891 4.86423 141.124 4.64699 141.36 4.60508C141.504 4.57947 141.639 4.61643 141.765 4.71596C141.902 4.80003 141.986 4.9274 142.016 5.09807C142.056 5.32125 142.008 5.70208 141.873 6.24054C141.749 6.76355 141.577 7.39666 141.357 8.13988C141.15 8.88077 140.92 9.68656 140.669 10.5572C140.428 11.4125 140.211 12.2905 140.019 13.1912C139.837 14.0765 139.707 14.946 139.628 15.7995C139.56 16.6376 139.589 17.4111 139.715 18.12C139.771 18.4351 139.835 18.6471 139.909 18.7559C139.993 18.8493 140.107 18.8832 140.252 18.8576C140.541 18.8064 140.842 18.6377 141.157 18.3517C141.472 18.0656 141.775 17.6734 142.066 17.175C142.354 16.6634 142.595 16.0723 142.787 15.4017L143.217 15.6504C143.056 16.4237 142.802 17.1257 142.453 17.7562C142.105 18.3868 141.701 18.8984 141.243 19.2912C140.787 19.6971 140.309 19.9443 139.81 20.0328C139.272 20.1282 138.868 20.0239 138.597 19.7198C138.326 19.4158 138.15 19.034 138.069 18.5745C138.032 18.3644 138.007 18.152 137.996 17.9373C137.996 17.7071 137.997 17.4835 137.999 17.2665C137.697 17.9295 137.358 18.538 136.982 19.0921C136.618 19.6308 136.242 20.0698 135.855 20.4092C135.468 20.7486 135.078 20.9533 134.684 21.0231ZM145.376 19.5534C144.72 19.6698 144.164 19.6263 143.708 19.4228C143.267 19.23 142.926 18.9453 142.683 18.5686C142.438 18.1788 142.277 17.7672 142.2 17.334C142.132 16.9533 142.132 16.6486 142.2 16.4199C142.268 16.1912 142.372 16.0169 142.514 15.8971C142.653 15.7641 142.783 15.6597 142.905 15.5839C143.04 15.5058 143.135 15.4281 143.189 15.3508C143.456 14.9513 143.721 14.498 143.983 13.9911C144.256 13.4688 144.469 12.9098 144.62 12.3141L144.585 12.1172C144.492 11.5921 144.512 11.2093 144.646 10.969C144.79 10.7132 144.98 10.5644 145.217 10.5225C145.374 10.4945 145.493 10.5141 145.572 10.5813C145.665 10.6461 145.727 10.7298 145.759 10.8325C145.773 10.9113 145.77 11.0067 145.749 11.1187C145.741 11.2284 145.754 11.3751 145.786 11.5589C145.856 11.9528 146.029 12.3894 146.303 12.8688C146.589 13.3328 146.873 13.8307 147.157 14.3626C147.454 14.8922 147.655 15.4524 147.76 16.0432C147.788 16.2007 147.807 16.3463 147.817 16.4799C147.827 16.6135 147.83 16.7418 147.824 16.8646C148.213 16.6874 148.573 16.3932 148.907 15.982C149.238 15.5576 149.52 14.9727 149.753 14.2272L150.021 14.3625C149.904 15.1551 149.65 15.823 149.259 16.3663C148.866 16.8965 148.363 17.27 147.752 17.4868C147.637 18.0623 147.36 18.5244 146.921 18.8731C146.495 19.2195 145.98 19.4463 145.376 19.5534ZM145.085 18.7114C145.347 18.6648 145.579 18.5561 145.778 18.3852C145.978 18.2143 146.122 17.9925 146.209 17.7198C145.65 17.6971 145.127 17.5732 144.64 17.3481C144.153 17.123 143.764 16.8739 143.471 16.6007C143.295 16.6727 143.234 16.8662 143.29 17.1813C143.367 17.6145 143.564 17.9994 143.881 18.3359C144.198 18.6723 144.599 18.7975 145.085 18.7114ZM146.262 17.1011C146.272 17.0045 146.266 16.8972 146.245 16.779C146.235 16.6454 146.224 16.5458 146.212 16.4802C146.094 15.8917 145.912 15.3215 145.665 14.7694C145.418 14.2174 145.169 13.6522 144.918 13.0739C144.754 13.5228 144.556 14.0115 144.325 14.54C144.093 15.0685 143.865 15.5016 143.641 15.8394C143.914 16.1566 144.282 16.4366 144.745 16.6795C145.208 16.9224 145.713 17.063 146.262 17.1011Z" fill="black"/>
</svg>
