<svg width="20" height="20" viewBox="0 0 20 20" fill="none" xmlns="http://www.w3.org/2000/svg">
<path d="M14.9987 15.8333H4.9987C4.33566 15.8333 3.69977 15.5699 3.23093 15.1011C2.76209 14.6323 2.4987 13.9964 2.4987 13.3333V6.66667C2.4987 6.44565 2.4109 6.23369 2.25462 6.07741C2.09834 5.92113 1.88638 5.83333 1.66536 5.83333C1.44435 5.83333 1.23239 5.92113 1.07611 6.07741C0.919829 6.23369 0.832031 6.44565 0.832031 6.66667V13.3333C0.832031 14.4384 1.27102 15.4982 2.05242 16.2796C2.43933 16.6665 2.89866 16.9734 3.40418 17.1828C3.90971 17.3922 4.45152 17.5 4.9987 17.5H14.9987C15.2197 17.5 15.4317 17.4122 15.588 17.2559C15.7442 17.0996 15.832 16.8877 15.832 16.6667C15.832 16.4457 15.7442 16.2337 15.588 16.0774C15.4317 15.9211 15.2197 15.8333 14.9987 15.8333ZM19.1654 8.28333C19.1567 8.20678 19.1399 8.13136 19.1154 8.05833V7.98333C19.0753 7.89765 19.0218 7.81889 18.957 7.75V7.75L13.957 2.75C13.8881 2.68518 13.8094 2.63173 13.7237 2.59167H13.6487L13.382 2.5H6.66536C6.00232 2.5 5.36644 2.76339 4.8976 3.23223C4.42876 3.70107 4.16536 4.33696 4.16536 5V11.6667C4.16536 12.3297 4.42876 12.9656 4.8976 13.4344C5.36644 13.9033 6.00232 14.1667 6.66536 14.1667H16.6654C17.3284 14.1667 17.9643 13.9033 18.4331 13.4344C18.902 12.9656 19.1654 12.3297 19.1654 11.6667V8.33333C19.1654 8.33333 19.1654 8.33333 19.1654 8.28333ZM14.1654 5.34167L16.3237 7.5H14.9987C14.7777 7.5 14.5657 7.4122 14.4094 7.25592C14.2532 7.09964 14.1654 6.88768 14.1654 6.66667V5.34167ZM17.4987 11.6667C17.4987 11.8877 17.4109 12.0996 17.2546 12.2559C17.0983 12.4122 16.8864 12.5 16.6654 12.5H6.66536C6.44435 12.5 6.23239 12.4122 6.07611 12.2559C5.91983 12.0996 5.83203 11.8877 5.83203 11.6667V5C5.83203 4.77899 5.91983 4.56702 6.07611 4.41074C6.23239 4.25446 6.44435 4.16667 6.66536 4.16667H12.4987V6.66667C12.4987 7.32971 12.7621 7.96559 13.2309 8.43443C13.6998 8.90327 14.3357 9.16667 14.9987 9.16667H17.4987V11.6667Z" fill="white"/>
</svg>
