<svg width="60" height="60" viewBox="0 0 60 60" fill="none" xmlns="http://www.w3.org/2000/svg">
<g clip-path="url(#clip0_380_789)">
<path d="M49.579 5.13915L13.9135 4.98006C3.29442 4.88824 0.655332 7.90642 0.936241 15.4073C1.32533 25.6864 1.30715 36.0091 1.73533 46.3855C2.02442 53.4137 4.85988 55.0219 11.9971 55.0219C12.269 55.0219 46.1617 54.9646 46.4335 54.9646C54.7081 54.9473 58.0699 53.2619 58.2781 45.2891L59.0735 14.7482C59.2781 6.87187 56.1608 5.16915 49.579 5.13915ZM46.4317 54.0555C46.1599 54.0555 12.2671 54.1128 11.9953 54.1128C4.43897 54.1128 2.87897 52.0746 2.64442 46.3482C2.23533 36.5037 2.2417 26.8901 1.88806 16.6455L58.1072 16.9501L57.3699 45.2664C57.1826 52.421 54.6108 54.0401 46.4317 54.0555ZM58.1644 14.7255L58.1299 16.041L1.85715 15.7355C1.6026 8.82187 3.23351 5.80278 13.9099 5.88915L49.5753 6.04824C55.5826 6.07733 58.359 7.27278 58.1644 14.7255Z" fill="#222934"/>
<path d="M6.93981 10.0891C6.46708 10.4373 6.89981 11.6327 7.31253 12.1109C8.83526 13.8727 11.3425 12.4327 11.2234 10.5273C11.0616 7.96726 7.33799 7.6409 6.93981 10.0891ZM7.69617 10.9518C7.80617 10.8509 7.86435 10.6973 7.83708 10.5391C7.57617 9.04272 10.2053 8.81453 10.3162 10.5845C10.4044 12.0182 8.15981 12.6909 7.69617 10.9518Z" fill="#222934"/>
<path d="M13.9371 10.0891C13.1717 10.6527 14.258 12.9109 15.9735 12.9109C17.2089 12.9109 18.298 11.7636 18.2208 10.5273C18.0589 7.96726 14.3362 7.6409 13.9371 10.0891ZM14.6935 10.9518C14.8035 10.8509 14.8617 10.6973 14.8344 10.5391C14.5735 9.04272 17.2026 8.81453 17.3135 10.5845C17.4062 12.0864 15.1408 12.6291 14.6935 10.9518Z" fill="#222934"/>
<path d="M24.2998 8.57283C23.0626 8.06828 21.6426 8.75919 21.4262 10.0901C20.7398 10.6001 21.6617 12.8583 23.4098 12.9101C23.428 12.9101 23.4462 12.911 23.4644 12.911C24.6989 12.911 25.788 11.7656 25.7107 10.5274C25.6571 9.68192 25.0898 8.89646 24.2998 8.57283ZM23.4353 12.001C22.8535 11.9846 22.3289 11.4992 22.1826 10.951C22.2926 10.851 22.3507 10.6974 22.3235 10.5392C22.1817 9.72555 23.0753 9.05373 23.9562 9.41555C24.4235 9.60646 24.7707 10.0874 24.8026 10.5846C24.8517 11.381 24.0217 12.0846 23.4353 12.001Z" fill="#222934"/>
<path d="M48.0817 8.2046C46.7935 7.67369 33.0162 8.15642 32.1071 8.18642C30.9126 8.21915 29.1062 8.27006 28.5717 9.70278C27.8044 11.7655 29.9962 12.8801 32.179 12.9382C36.7871 13.0591 41.5981 12.8664 46.4753 12.3019C50.3781 11.8491 49.9981 8.99642 48.0817 8.2046ZM40.5562 8.91278L40.5544 8.9146L40.5526 8.91278C40.5535 8.91278 40.5553 8.91369 40.5562 8.91278ZM37.4944 9.78642C37.4908 9.79006 37.4926 9.79551 37.489 9.79915C37.479 9.78188 37.4817 9.76006 37.4662 9.7446L36.6881 8.96642C37.2244 8.95642 37.7517 8.94915 38.2871 8.94188L38.3126 8.96733L37.4944 9.78642ZM34.8126 9.51097L34.3353 9.03369C34.6626 9.02369 34.9899 9.0146 35.3181 9.00642L34.8126 9.51097ZM30.2526 9.32824C30.4044 9.27642 30.5671 9.23642 30.7381 9.20642L30.4344 9.51006L30.2526 9.32824ZM46.3708 11.3982C41.6835 11.9419 36.9217 12.1546 32.2026 12.0291C31.6799 12.0155 30.929 11.8964 30.3235 11.6355C30.349 11.5673 30.3462 11.4982 30.3035 11.4355L30.6544 11.0846C30.7435 10.9955 30.7435 10.8519 30.6544 10.7628C30.5653 10.6737 30.4217 10.6737 30.3326 10.7628L29.9926 11.1028L29.3353 10.4455C29.359 10.001 29.5371 9.72915 29.8181 9.53551L30.1153 9.83278C30.0344 9.92188 30.0326 10.0582 30.119 10.1446C30.199 10.2246 30.3299 10.241 30.4308 10.1482L30.9453 10.6628C31.0335 10.751 31.1771 10.7519 31.2671 10.6628C31.3562 10.5737 31.3562 10.4301 31.2671 10.341L30.7553 9.82915L31.3553 9.22915L32.3308 10.2046C32.2699 10.2928 32.2671 10.4101 32.3462 10.4891C32.4226 10.5655 32.519 10.581 32.6308 10.5046L32.6444 10.5182C32.7326 10.6064 32.8762 10.6073 32.9662 10.5182C33.0553 10.4291 33.0553 10.2855 32.9662 10.1964L32.9635 10.1937L33.7026 9.4546C33.7917 9.36551 33.7917 9.22187 33.7026 9.13278C33.6135 9.04369 33.4699 9.04369 33.3808 9.13278L32.6417 9.87188L31.8699 9.10006C31.9581 9.09733 32.0471 9.09369 32.1317 9.09188C33.2662 9.05824 33.7208 9.04733 33.7208 9.04733C33.7262 9.05369 33.7235 9.06278 33.7299 9.06824L34.4935 9.83187C34.4126 9.92097 34.4117 10.0573 34.4981 10.1428C34.5862 10.231 34.7299 10.2319 34.8199 10.1428L34.829 10.1337C34.919 10.1846 35.0008 10.2046 35.0953 10.111C35.169 10.0373 35.1662 9.93097 35.1181 9.8446L35.9381 9.0246C35.949 9.01369 35.9462 8.99642 35.9553 8.98369C35.9917 8.98278 36.0281 8.98097 36.0653 8.98097L37.1471 10.0628C37.2353 10.151 37.379 10.1519 37.469 10.0628C37.4726 10.0591 37.4708 10.0537 37.4744 10.0501C37.4844 10.0673 37.4817 10.0891 37.4971 10.1046C37.5844 10.1919 37.7281 10.1946 37.819 10.1046L38.6371 9.28551L39.269 9.91824C39.359 10.0082 39.5026 10.0055 39.5908 9.91824C39.6799 9.82915 39.6799 9.68551 39.5908 9.59642L38.9253 8.93006C39.2581 8.92551 39.5899 8.92097 39.9217 8.91733L40.2362 9.23187L39.8399 9.62824C39.7508 9.71733 39.7508 9.86097 39.8399 9.95006C39.9281 10.0382 40.0717 10.0391 40.1617 9.95006L40.5581 9.55369L41.0244 10.0201C41.1144 10.1101 41.2581 10.1073 41.3462 10.0201C41.4353 9.93097 41.4353 9.78733 41.3462 9.69824L40.8799 9.23187L41.2117 8.90006C41.2517 8.90006 41.5944 8.8946 41.629 8.8946L41.7544 9.02006L41.6081 9.16642C41.519 9.25551 41.519 9.39915 41.6081 9.48824C41.6953 9.57551 41.8399 9.57824 41.9299 9.48824L42.0762 9.34188L42.2735 9.53915C42.3608 9.62642 42.5053 9.62915 42.5953 9.53915C42.6844 9.45006 42.6844 9.30642 42.5953 9.21733L42.3981 9.02006L42.5344 8.88278C46.089 8.84369 46.969 8.72097 47.7399 9.03915C48.8708 9.51551 49.2144 11.0728 46.3708 11.3982Z" fill="#222934"/>
<path d="M42.9234 27.62C42.0144 26.9863 39.4325 23.8427 37.758 25.7645C36.9953 26.6418 37.108 28.159 38.0207 29.2945C39.3834 30.9918 42.0289 31.7472 42.498 33.7327C43.1007 36.2981 39.7344 38.1536 38.2316 39.6272C37.8098 40.04 37.2244 40.6863 36.9989 41.5309C36.6307 42.9154 37.4544 44.299 38.9025 44.299C40.2689 44.299 41.2716 43.4209 45.6553 40.4209C47.3316 39.2727 48.8744 38.0909 49.3471 36.2554C50.4971 31.78 44.6371 28.8172 42.9234 27.62ZM43.3671 35.1209L43.7598 35.5136C43.678 35.48 43.5853 35.48 43.5189 35.5472L43.058 36.0081C43.1953 35.7127 43.2998 35.4163 43.3671 35.1209ZM39.8798 39.3972C39.8889 39.4118 39.8862 39.43 39.8989 39.4427L39.418 39.9236L39.3444 39.85C39.5207 39.6954 39.6971 39.5445 39.8798 39.3972ZM38.528 40.6381C38.6298 40.5209 38.7407 40.4009 38.8671 40.2772C38.9107 40.2345 38.9607 40.1954 39.0053 40.1536L39.0962 40.2445L38.6153 40.7254L38.528 40.6381ZM38.2471 41L38.8207 41.5736L38.1344 42.26L37.8489 41.9745C37.858 41.9045 37.8589 41.8345 37.8771 41.7654C37.9444 41.5127 38.068 41.26 38.2471 41ZM48.4644 36.029C48.0707 37.56 46.6671 38.6245 45.1407 39.67C41.0807 42.4481 39.0044 44.2654 38.0653 42.9709L38.1334 42.9027L38.2071 42.9763C38.2953 43.0645 38.4389 43.0654 38.5289 42.9763C38.618 42.8872 38.618 42.7436 38.5289 42.6545L38.4553 42.5809L39.1416 41.8945L39.1862 41.939C39.2744 42.0272 39.418 42.0281 39.508 41.939C39.5971 41.85 39.5971 41.7063 39.508 41.6172L39.4634 41.5727L39.6471 41.389C39.7362 41.3 39.7362 41.1563 39.6471 41.0672C39.558 40.9781 39.4144 40.9781 39.3253 41.0672L39.1416 41.2509L38.9362 41.0454L39.4171 40.5645L40.0234 41.1709C40.1116 41.259 40.2553 41.26 40.3453 41.1709C40.4344 41.0818 40.4344 40.9381 40.3453 40.849L39.7389 40.2427L40.2198 39.7618L40.6334 40.1754C40.7216 40.2636 40.8653 40.2645 40.9553 40.1754C41.0443 40.0863 41.0443 39.9427 40.9553 39.8536L40.2207 39.119C40.2353 39.1072 40.2507 39.0945 40.2653 39.0827C40.6498 38.7754 41.0362 38.4509 41.4116 38.1109L41.8234 38.5227L41.2725 39.0754C41.1834 39.1645 41.1834 39.3081 41.2725 39.3972C41.3607 39.4854 41.5044 39.4863 41.5944 39.3972L42.1543 38.8372C42.2653 38.9163 42.3662 38.9 42.4425 38.8236C42.5225 38.7436 42.5198 38.6245 42.4562 38.5354L42.8325 38.159C42.9216 38.07 42.9216 37.9263 42.8325 37.8372C42.7434 37.7481 42.5998 37.7481 42.5107 37.8372L42.1444 38.2036L41.7425 37.8018C42.0007 37.5472 41.8334 37.7572 42.2334 37.279C42.258 37.2872 42.278 37.3081 42.3044 37.3081C42.3625 37.3081 42.4207 37.2863 42.4653 37.2418L42.8316 36.8754L43.068 37.1118C43.2807 37.3245 43.6007 37.0018 43.3898 36.79L43.1534 36.5536L43.8407 35.8663C43.918 35.789 43.9153 35.6754 43.858 35.5872C43.9689 35.6627 44.0644 35.6481 44.1416 35.5718C44.2307 35.4827 44.2307 35.339 44.1416 35.25L43.4562 34.5645C43.4843 34.21 43.4616 33.8609 43.3825 33.5236C42.8116 31.0981 40.0062 30.3127 38.7298 28.7236C38.0353 27.86 38.0407 26.8245 38.4444 26.36C39.4134 25.2463 41.4462 27.6954 42.4034 28.3645C44.268 29.6672 49.4289 32.2854 48.4644 36.029Z" fill="#222934"/>
<path d="M18.5071 36.9819C17.518 35.941 17.0662 34.7264 17.2998 33.7328C17.7698 31.7437 20.4007 31.0092 21.7771 29.2946C22.6898 28.1592 22.8025 26.6419 22.0398 25.7646C21.4053 25.0337 20.3653 24.9901 19.2553 25.6519C18.328 26.2064 17.7198 27.031 16.8753 27.6201C15.3589 28.6792 9.28618 31.7201 10.4534 36.2546C11.0689 38.6492 13.1653 39.751 18.3471 43.2955C19.528 44.1046 21.0198 44.7619 22.1353 43.8746C22.7716 43.3673 23.0389 42.4255 22.8007 41.531C22.2934 39.6346 19.938 38.4864 18.5071 36.9819ZM16.5625 29.3664L16.288 29.0919C16.5589 28.9192 16.8271 28.7428 17.0934 28.5637L17.2289 28.6992L16.5625 29.3664ZM14.5498 30.2392L14.7016 30.391L13.9398 31.1528L13.6844 30.8973C13.8425 30.7637 14.0016 30.6301 14.1625 30.5101C14.2871 30.4164 14.4207 30.3301 14.5498 30.2392ZM12.2371 32.4501L12.8771 33.0892L12.0007 33.9655L11.5971 33.5619C11.7644 33.1755 11.9834 32.8046 12.2371 32.4501ZM11.3544 36.0901L11.5471 36.2828L11.4544 36.3755C11.4189 36.281 11.3816 36.1882 11.3544 36.0901ZM21.5671 43.1637C20.8789 43.7128 19.7153 43.1328 18.8589 42.5455C14.0689 39.2692 12.4807 38.3719 11.6534 36.8182L11.868 36.6037L12.2389 36.9746C12.3271 37.0628 12.4707 37.0637 12.5607 36.9746C12.6498 36.8855 12.6498 36.7419 12.5607 36.6528L12.1898 36.2819L13.5562 34.9146C13.6453 34.8255 13.6453 34.6819 13.5562 34.5928C13.4662 34.5028 13.3225 34.5046 13.2344 34.5928L11.868 35.9601L11.2398 35.3319C11.2216 34.8928 11.2953 34.4592 11.428 34.0355L11.6789 34.2864L11.6498 34.3155C11.5607 34.4046 11.5607 34.5482 11.6498 34.6373C11.738 34.7255 11.8816 34.7264 11.9716 34.6373L12.0007 34.6082L12.3725 34.9801C12.4607 35.0682 12.6044 35.0692 12.6944 34.9801C12.7834 34.891 12.7834 34.7473 12.6944 34.6582L12.3225 34.2864L13.2416 33.3673C13.2471 33.3673 13.2516 33.3737 13.2571 33.3737C13.3153 33.3737 13.3734 33.3519 13.418 33.3073C13.4662 33.2592 13.4825 33.1946 13.478 33.1319L14.1207 32.4892C14.2098 32.4001 14.2098 32.2564 14.1207 32.1673C14.0316 32.0782 13.888 32.0782 13.7989 32.1673L13.1989 32.7673L12.5153 32.0837C12.7707 31.7692 13.0498 31.4737 13.3444 31.1992L13.618 31.4728L13.5125 31.5782C13.4234 31.6673 13.4234 31.811 13.5125 31.9001C13.6025 31.9901 13.7462 31.9873 13.8344 31.9001L13.9398 31.7946L13.9898 31.8446C14.078 31.9328 14.2216 31.9337 14.3116 31.8446C14.4007 31.7555 14.4007 31.6119 14.3116 31.5228L14.2616 31.4728L15.0234 30.711L15.3889 31.0764C15.4771 31.1646 15.6207 31.1655 15.7107 31.0764C15.7998 30.9873 15.7998 30.8437 15.7107 30.7546L14.9298 29.9737C15.2525 29.7582 15.578 29.5482 15.8998 29.3437L16.2416 29.6855L16.0216 29.9055C15.9325 29.9946 15.9325 30.1382 16.0216 30.2273C16.1089 30.3146 16.2534 30.3173 16.3435 30.2273L17.5662 29.0037C17.6007 29.0237 17.6344 29.0482 17.6744 29.0482C17.7325 29.0482 17.7907 29.0264 17.8353 28.9819C17.9244 28.8928 17.9244 28.7492 17.8353 28.6601L17.7953 28.6201C17.7871 28.5782 17.7789 28.5346 17.7462 28.5019C17.7134 28.4692 17.6698 28.4619 17.628 28.4528L17.4753 28.3001C17.688 28.1455 17.8916 27.9764 18.0898 27.8001C18.0934 27.8528 18.1098 27.9055 18.1498 27.9455C18.238 28.0337 18.3816 28.0346 18.4716 27.9455L18.5771 27.8401L18.7598 28.0228C18.848 28.111 18.9916 28.1119 19.0816 28.0228C19.1707 27.9337 19.1707 27.7901 19.0816 27.701L18.8989 27.5182L19.4516 26.9655L19.9562 27.4701C20.0444 27.5582 20.188 27.5592 20.278 27.4701C20.3671 27.381 20.3671 27.2373 20.278 27.1482L19.7316 26.6019C19.7362 26.5492 19.718 26.501 19.6862 26.4564C19.698 26.4492 19.7098 26.4373 19.7216 26.4301C20.098 26.2055 20.4416 26.0928 20.7307 26.0928C20.9871 26.0928 21.2007 26.181 21.3553 26.3582C21.758 26.8228 21.7634 27.8573 21.0698 28.7219C19.808 30.2937 16.9853 31.1092 16.4171 33.5219C16.108 34.8337 16.6307 36.3228 17.8498 37.6055C19.2862 39.1155 21.5171 40.2464 21.9216 41.7619C22.0653 42.3082 21.9198 42.8828 21.5671 43.1637Z" fill="#222934"/>
<path d="M34.678 20.8583C33.6435 20.6401 32.7107 21.4056 32.0416 22.9983C31.278 24.8137 30.438 26.6365 29.6262 28.3983C28.7516 30.2947 27.848 32.2547 27.0326 34.221C26.1162 36.431 25.448 38.3074 24.9298 40.1247C24.8744 40.3165 24.7853 40.5792 24.6816 40.8874C23.9698 42.9865 23.3962 44.9437 24.1898 45.8265C25.4544 47.2319 27.318 45.9619 28.4062 44.4401C29.6544 42.7001 29.6998 42.1456 35.7416 24.7165C35.9526 24.1047 36.1935 23.411 36.1262 22.6701C36.0571 21.9265 35.5753 21.0419 34.678 20.8583ZM34.3035 21.7465L33.4744 22.5765L33.3553 22.4574C33.6062 22.0847 33.9298 21.7692 34.3035 21.7465ZM33.1126 22.8574L33.1526 22.8974L33.0326 23.0183C33.0589 22.9647 33.0826 22.9128 33.1126 22.8574ZM32.1716 24.9683L32.7162 25.5128L31.2944 26.9347C31.5926 26.2828 31.8807 25.6292 32.1716 24.9683ZM30.0889 29.5719L30.5007 29.9837L29.3971 31.0874C29.6271 30.5783 29.858 30.0737 30.0889 29.5719ZM28.0762 34.1001L28.1744 34.1983L27.9262 34.4465C27.9744 34.331 28.028 34.2156 28.0762 34.1001ZM25.6026 41.0001L25.8853 41.2828L25.3216 41.8465C25.4026 41.5965 25.4807 41.3619 25.5426 41.1801C25.5644 41.1156 25.5816 41.061 25.6026 41.0001ZM34.8826 24.4192C28.9062 41.6574 28.8435 42.271 27.6671 43.911C27.0162 44.8201 25.6762 46.0637 24.8944 45.2419L25.0471 45.0892C25.1507 45.181 25.278 45.1628 25.3562 45.0847C25.4416 44.9992 25.4407 44.8647 25.3607 44.7756L26.1698 43.9665C26.2589 43.8774 26.2589 43.7337 26.1698 43.6447C26.0807 43.5556 25.9371 43.5556 25.848 43.6447L25.0426 44.4501L24.7444 44.1528C24.7989 43.7183 24.9107 43.2228 25.0489 42.7347C25.0635 42.7256 25.0816 42.7283 25.0935 42.7156L25.2235 42.5856L25.648 43.0101C25.7362 43.0983 25.8798 43.0992 25.9698 43.0101C26.0589 42.921 26.0589 42.7774 25.9698 42.6883L25.5453 42.2637L26.2407 41.5683C26.2544 41.571 26.2644 41.5837 26.278 41.5837C26.3353 41.5837 26.3944 41.5619 26.4389 41.5174C26.4935 41.4628 26.5026 41.3901 26.4898 41.3201L27.3907 40.4192C27.4798 40.3301 27.4798 40.1865 27.3907 40.0974C27.3016 40.0083 27.158 40.0083 27.0689 40.0974L26.2044 40.9619L25.758 40.5156C25.7716 40.4701 25.7907 40.4156 25.8016 40.3756C25.8953 40.0465 26.0007 39.711 26.1053 39.3756C26.1071 39.3737 26.1089 39.3747 26.1107 39.3737L26.5316 38.9528L26.7716 39.1928C26.8598 39.281 27.0035 39.2819 27.0935 39.1928C27.1826 39.1037 27.1826 38.9601 27.0935 38.871L26.8535 38.631L27.9816 37.5028C28.0707 37.4137 28.0707 37.2701 27.9816 37.181C27.8926 37.0919 27.7489 37.0919 27.6598 37.181L26.5316 38.3092L26.4744 38.2519C26.6807 37.6465 26.9035 37.0247 27.1526 36.3747L27.6826 36.9047C27.7707 36.9928 27.9144 36.9937 28.0044 36.9047C28.0935 36.8156 28.0935 36.6719 28.0044 36.5828L27.3326 35.911C27.3816 35.7865 27.4362 35.6537 27.4871 35.5265L28.4953 34.5183L28.7398 34.7628C28.8271 34.8501 28.9716 34.8528 29.0616 34.7628C29.1507 34.6737 29.1507 34.5301 29.0616 34.441L28.8171 34.1965L29.4571 33.5565C29.5462 33.4674 29.5462 33.3237 29.4571 33.2347C29.368 33.1456 29.2244 33.1456 29.1353 33.2347L28.4953 33.8747L28.2707 33.6501C28.518 33.0719 28.7644 32.4937 29.0216 31.9192L29.608 32.5047C29.6953 32.5919 29.8398 32.5947 29.9298 32.5047C30.0189 32.4156 30.0189 32.2719 29.9298 32.1828L29.4353 31.6892L30.8362 30.2883C30.9289 30.3447 31.018 30.3601 31.1098 30.2683C31.1853 30.1928 31.1826 30.0819 31.1298 29.9947L32.1289 28.9956C32.218 28.9065 32.218 28.7628 32.1289 28.6737C32.0398 28.5847 31.8962 28.5847 31.8071 28.6737L30.8216 29.6592L30.2907 29.1283C30.3444 29.0128 30.398 28.8928 30.4507 28.7783C30.6144 28.4237 30.7798 28.0583 30.9444 27.6983C30.9753 27.7137 31.0044 27.7374 31.0389 27.7374C31.0707 27.7374 31.098 27.7137 31.1271 27.701L31.6989 28.2719C31.7862 28.3592 31.9298 28.3619 32.0207 28.2719C32.1098 28.1828 32.1098 28.0392 32.0207 27.9501L31.4707 27.4001L33.5271 25.3437C33.6162 25.2547 33.6162 25.111 33.5271 25.0219C33.438 24.9328 33.2944 24.9328 33.2053 25.0219L33.038 25.1892L32.3671 24.5183C32.5007 24.2119 32.638 23.9074 32.7689 23.6001C32.8135 23.6447 32.8707 23.6665 32.9289 23.6665C32.9871 23.6665 33.0453 23.6447 33.0898 23.6001L33.4744 23.2156L33.7644 23.5056C33.8526 23.5937 33.9962 23.5947 34.0862 23.5056C34.1753 23.4165 34.1753 23.2728 34.0862 23.1837L33.7953 22.8928L34.7289 21.9592C34.7535 21.9347 34.7544 21.901 34.7653 21.871C35.0271 22.0637 35.1907 22.4265 35.2207 22.7483C35.2707 23.2992 35.0735 23.8692 34.8826 24.4192Z" fill="#222934"/>
</g>
<defs>
<clipPath id="clip0_380_789">
<rect width="60" height="60" fill="white"/>
</clipPath>
</defs>
</svg>
