<svg width="60" height="60" viewBox="0 0 60 60" fill="none" xmlns="http://www.w3.org/2000/svg">
<g clip-path="url(#clip0_380_379)">
<path d="M15.4299 58.1355C13.4399 57.8955 10.5581 57.3837 8.50169 55.7109C6.73896 54.2637 5.65805 52.0219 5.45533 49.3982C5.39533 48.5555 5.72533 41.5319 6.10896 33.4C6.49169 25.2746 6.92533 16.0664 6.94351 13.2637C6.96078 10.9064 6.98078 7.97458 9.03987 5.66822C12.4581 1.82822 19.8681 1.13185 26.6662 0.955488C32.1044 0.821852 38.0808 1.08003 41.1726 4.02458C43.3681 6.10822 43.3571 8.92367 43.3499 10.9782L43.3308 16.0119L42.4217 16.0064L42.4408 10.9737C42.4508 8.52458 42.3135 6.36003 40.5471 4.68276C37.6935 1.9664 31.9353 1.73185 26.6899 1.86367C20.0862 2.03549 12.9053 2.69276 9.71805 6.27276C7.88714 8.32458 7.86896 10.9519 7.8526 13.27C7.83351 16.0909 7.41805 24.9119 7.01714 33.4428C6.65078 41.2091 6.30624 48.5446 6.36169 49.33C6.54533 51.7019 7.50987 53.7191 9.07624 55.0064C10.9481 56.5291 13.6608 57.0064 15.5371 57.2328C22.7244 58.1019 19.0653 58.3891 29.1462 57.9737C33.0362 57.81 36.7344 57.5 39.2117 55.5282C42.2399 53.1237 42.2962 49.2609 42.3135 45.6309C42.3217 43.9519 42.3299 42.3028 42.3299 40.6755H43.239C43.239 42.3046 43.2308 43.9546 43.2226 45.6346C43.2062 49.0882 43.1962 53.5255 39.7771 56.24C37.0853 58.3819 33.2299 58.7119 29.1835 58.8819C18.9617 59.3028 22.6353 59.0073 15.4299 58.1355Z" fill="#222934"/>
<path d="M10.7498 48.059C11.0489 41.859 10.9753 35.4263 10.9043 29.2072C10.8325 22.9736 10.7589 16.53 11.0598 10.3009C11.0716 10.059 11.2698 9.86904 11.5116 9.86813L38.3943 9.76904C38.4953 9.7945 38.6325 9.81632 38.718 9.90359C38.8043 9.98995 38.8507 10.1072 38.8507 10.2281C38.8316 12.2609 38.8234 14.2863 38.8234 16.319C38.8234 16.57 38.6198 16.7736 38.3689 16.7736C38.118 16.7736 37.9143 16.57 37.9143 16.319C37.9143 14.4363 37.9225 12.5609 37.9371 10.68L11.9471 10.7754C11.6707 16.8436 11.7425 23.1209 11.8125 29.1972C11.8825 35.2654 11.9543 41.5336 11.6798 47.6081C20.8098 47.26 29.1589 46.9145 37.9171 46.589C37.9325 44.7272 37.9407 42.8654 37.9407 41.0036C37.9407 40.4045 38.8498 40.4018 38.8498 41.0036C38.8498 43.0136 38.8407 45.0218 38.8225 47.0318C38.8198 47.2745 38.6271 47.4727 38.3853 47.4818C29.2062 47.8218 20.7043 48.1745 11.2198 48.5354C10.9562 48.5454 10.7371 48.3272 10.7498 48.059V48.059Z" fill="#222934"/>
<path d="M25.0907 56.0809C23.8307 56.0809 22.6789 55.41 22.1553 54.3709C21.0871 52.2564 23.3316 49.6282 25.5398 49.6282L25.6407 49.63C27.2262 49.6882 28.5771 51.1718 28.5316 52.8045C28.4826 54.4991 26.9453 56.0809 25.0907 56.0809ZM25.6044 50.5391C23.928 50.5391 22.2335 52.5082 22.9671 53.9618C24.028 56.0664 27.5516 55.2236 27.6226 52.7791C27.6544 51.6473 26.6944 50.5791 25.6071 50.5391C25.6062 50.5391 25.6053 50.5391 25.6044 50.5391V50.5391Z" fill="#222934"/>
<path d="M19.2161 7.23195C18.9698 7.23195 18.767 7.03467 18.7616 6.78831C18.7561 6.5374 18.9552 6.32922 19.2052 6.32286L21.5634 6.26831C21.8289 6.29467 22.0234 6.46195 22.0289 6.71195C22.0343 6.96286 21.8352 7.17104 21.5852 7.1774L19.227 7.23195C19.2234 7.23195 19.2198 7.23195 19.2161 7.23195V7.23195Z" fill="#222934"/>
<path d="M23.657 6.99278C23.4097 6.99278 23.207 6.7946 23.2025 6.54642C23.1979 6.29551 23.3988 6.08824 23.6488 6.08369L29.5725 5.98278C29.8188 5.94006 30.0307 6.17824 30.0352 6.42915C30.0397 6.68006 29.8388 6.88733 29.5888 6.89187L23.6652 6.99278C23.6625 6.99278 23.6597 6.99278 23.657 6.99278V6.99278Z" fill="#222934"/>
<path d="M38.3491 41.4555C37.9818 41.4073 37.6154 41.351 37.26 41.2764C32.6654 40.3155 28.7445 36.2873 27.7227 31.4773C26.9354 27.7973 27.8163 23.7592 30.0809 20.6746C31.0536 19.3637 31.9763 18.8483 33.3818 18.1555C34.9872 17.341 36.4509 16.3555 38.2536 15.8792L38.4391 15.8264C39.94 15.4683 41.46 15.3801 42.9309 15.5583C48.0718 16.1537 52.5427 20.1083 54.0518 25.3964C54.7672 27.8973 54.7145 30.4264 53.9027 32.5183C53.1845 34.371 51.8054 36.0746 49.6882 37.7283C47.5545 39.3792 45.2054 40.551 42.8936 41.1183C41.4182 41.481 39.8863 41.6173 38.3491 41.4555V41.4555ZM41.4427 16.3792C40.5154 16.3792 39.5818 16.4892 38.6645 16.7064L38.4909 16.7564C36.7909 17.2055 35.4191 18.1446 33.7863 18.9692C32.4663 19.6201 31.68 20.0446 30.8118 21.2146C28.7 24.091 27.8763 27.8573 28.6118 31.2883C30.2782 39.1337 39.4645 44.4901 49.13 37.011C51.1127 35.4628 52.3972 33.8855 53.0545 32.191C55.4736 25.9492 50.3536 17.3355 42.8227 16.4619C42.3682 16.4073 41.9045 16.3792 41.4427 16.3792V16.3792Z" fill="#222934"/>
<circle cx="35.5" cy="28.5" r="1.5" fill="#222934"/>
<circle cx="40.5" cy="28.5" r="1.5" fill="#222934"/>
<circle cx="45.5" cy="28.5" r="1.5" fill="#222934"/>
<path d="M14.5453 13.4709L11.6572 10.5827C11.5681 10.4936 11.5681 10.35 11.6572 10.2609C11.7462 10.1718 11.8899 10.1718 11.979 10.2609L14.8672 13.1491C14.9562 13.2382 14.9562 13.3818 14.8672 13.4709C14.779 13.5591 14.6344 13.56 14.5453 13.4709Z" fill="#222934"/>
<path d="M16.4516 12.9691L14.1989 10.7172C14.1098 10.6282 14.1098 10.4845 14.1989 10.3954C14.288 10.3063 14.4316 10.3063 14.5207 10.3954L16.7725 12.6472C16.8616 12.7363 16.8616 12.88 16.7725 12.9691C16.6844 13.0572 16.5407 13.0591 16.4516 12.9691Z" fill="#222934"/>
<path d="M19.089 12.8663L16.9408 10.7173C16.8518 10.6282 16.8518 10.4845 16.9408 10.3954C17.0299 10.3054 17.1736 10.3073 17.2627 10.3954L19.4108 12.5445C19.4999 12.6336 19.4999 12.7773 19.4108 12.8654C19.3227 12.9536 19.179 12.9563 19.089 12.8663Z" fill="#222934"/>
<path d="M21.7272 13.0974L19.4809 10.851C19.3918 10.7619 19.3918 10.6183 19.4809 10.5292C19.57 10.4401 19.7136 10.4401 19.8027 10.5292L22.0491 12.7756C22.1382 12.8647 22.1382 13.0083 22.0491 13.0974C21.9609 13.1856 21.8172 13.1865 21.7272 13.0974Z" fill="#222934"/>
<path d="M23.948 12.3082L22.558 10.9182C22.4689 10.8292 22.4689 10.6855 22.558 10.5973C22.6471 10.5082 22.7908 10.5082 22.8798 10.5973L24.2698 11.9873C24.3589 12.0764 24.3589 12.2201 24.2698 12.3092C24.1808 12.3964 24.0371 12.3973 23.948 12.3082Z" fill="#222934"/>
<path d="M26.3034 12.19L24.6298 10.5163C24.5407 10.4272 24.5407 10.2836 24.6298 10.1945C24.7189 10.1054 24.8625 10.1054 24.9507 10.1945L26.6244 11.8681C26.7134 11.9572 26.7134 12.1009 26.6244 12.19C26.5362 12.2781 26.3925 12.279 26.3034 12.19Z" fill="#222934"/>
<path d="M29.1116 12.2563L27.3725 10.5163C27.2834 10.4272 27.2834 10.2836 27.3725 10.1945C27.4625 10.1045 27.6061 10.1063 27.6943 10.1945L29.4334 11.9345C29.5225 12.0236 29.5225 12.1672 29.4334 12.2563C29.3452 12.3445 29.2007 12.3463 29.1116 12.2563Z" fill="#222934"/>
<path d="M31.158 12.1637L29.578 10.5837C29.489 10.4946 29.489 10.351 29.578 10.2619C29.6671 10.1728 29.8108 10.1728 29.8999 10.2619L31.4799 11.8419C31.569 11.931 31.569 12.0746 31.4799 12.1628C31.3917 12.2519 31.248 12.2528 31.158 12.1637Z" fill="#222934"/>
<path d="M13.3199 14.921L11.4562 13.0573C11.3671 12.9682 11.3671 12.8246 11.4562 12.7355C11.5453 12.6464 11.6889 12.6464 11.778 12.7355L13.6417 14.5992C13.7308 14.6882 13.7308 14.8319 13.6417 14.921C13.5535 15.0092 13.4099 15.0101 13.3199 14.921Z" fill="#222934"/>
<path d="M13.2836 18.0274L11.5236 16.2683C11.4345 16.1792 11.4345 16.0355 11.5236 15.9465C11.6127 15.8574 11.7563 15.8574 11.8445 15.9465L13.6045 17.7065C13.6936 17.7955 13.6936 17.9392 13.6045 18.0283C13.5172 18.1155 13.3736 18.1165 13.2836 18.0274Z" fill="#222934"/>
<path d="M12.9125 20.999L11.3234 19.4099C11.2343 19.3209 11.2343 19.1772 11.3234 19.089C11.4125 18.9999 11.5561 18.9999 11.6452 19.089L13.2343 20.6781C13.3234 20.7672 13.3234 20.9109 13.2343 20.9999C13.1461 21.0872 13.0016 21.089 12.9125 20.999Z" fill="#222934"/>
<path d="M12.8252 24.3228L11.3234 22.821C11.2343 22.7319 11.2343 22.5883 11.3234 22.4992C11.4125 22.4101 11.5561 22.4101 11.6452 22.4992L13.147 24.001C13.2361 24.0901 13.2361 24.2337 13.147 24.3228C13.0589 24.411 12.9152 24.4119 12.8252 24.3228Z" fill="#222934"/>
<path d="M13.2879 28.0619L11.1225 25.8964C11.0334 25.8074 11.0334 25.6637 11.1225 25.5746C11.2116 25.4855 11.3552 25.4855 11.4443 25.5746L13.6098 27.7401C13.6988 27.8292 13.6988 27.9728 13.6098 28.0619C13.5216 28.1501 13.377 28.151 13.2879 28.0619Z" fill="#222934"/>
<path d="M13.148 30.5691C13.0898 30.5691 13.0317 30.5473 12.9871 30.5028L11.5907 29.1064C11.5017 29.0173 11.5017 28.8737 11.5907 28.7846C11.6798 28.6955 11.8235 28.6955 11.9126 28.7846L13.3089 30.181C13.398 30.27 13.398 30.4137 13.3089 30.5028C13.2644 30.5464 13.2062 30.5691 13.148 30.5691Z" fill="#222934"/>
<path d="M12.9653 32.6873L11.5907 31.3127C11.5017 31.2236 11.5017 31.08 11.5907 30.9909C11.6798 30.9018 11.8235 30.9018 11.9126 30.9909L13.2871 32.3654C13.3762 32.4545 13.3762 32.5982 13.2871 32.6873C13.198 32.7754 13.0544 32.7763 12.9653 32.6873Z" fill="#222934"/>
<path d="M11.7517 35.3492C11.6262 35.3492 11.5244 35.2473 11.5244 35.1219V33.8928C11.5244 33.7673 11.6262 33.6655 11.7517 33.6655C11.8771 33.6655 11.979 33.7673 11.979 33.8928V35.1219C11.979 35.2473 11.8771 35.3492 11.7517 35.3492Z" fill="#222934"/>
<path d="M11.6935 36.0292C11.5008 35.8374 11.2635 35.6646 11.4562 35.4719C11.5444 35.3837 11.6881 35.3819 11.7781 35.4719L11.8544 35.5474L14.3535 33.0483C14.4426 32.9592 14.5862 32.9592 14.6744 33.0483C14.7635 33.1374 14.7635 33.281 14.6744 33.3701L12.0144 36.0301C11.9253 36.1183 11.7817 36.1164 11.6935 36.0292Z" fill="#222934"/>
<path d="M11.2572 32.9847C11.1682 32.8956 11.1682 32.7519 11.2572 32.6628L14.16 29.7592C14.2491 29.6701 14.3927 29.6701 14.4818 29.7592C14.5709 29.8483 14.5709 29.9919 14.4818 30.081L11.5791 32.9847C11.49 33.0728 11.3463 33.0737 11.2572 32.9847Z" fill="#222934"/>
<path d="M11.4182 29.1055C11.3591 29.1055 11.3018 29.0837 11.2572 29.0392C11.1682 28.9501 11.1682 28.8064 11.2572 28.7173L15.1263 24.8473C15.2154 24.7582 15.3591 24.7582 15.4482 24.8473C15.5372 24.9364 15.5372 25.0801 15.4482 25.1682L11.5791 29.0382C11.5345 29.0837 11.4763 29.1055 11.4182 29.1055Z" fill="#222934"/>
<path d="M12.059 24.2909C11.9699 24.2018 11.9699 24.0582 12.059 23.9691L14.6172 21.4118C14.7063 21.3227 14.8499 21.3227 14.9381 21.4118C15.0272 21.5009 15.0272 21.6445 14.9381 21.7336L12.3808 24.2909C12.2917 24.3791 12.1481 24.3809 12.059 24.2909Z" fill="#222934"/>
<path d="M11.3898 21.1482C11.3007 21.0591 11.3007 20.9155 11.3898 20.8273L14.068 18.1491C14.1571 18.06 14.3007 18.06 14.3898 18.1491C14.4789 18.2382 14.4789 18.3818 14.3898 18.4709L11.7116 21.1491C11.6235 21.2364 11.4798 21.2382 11.3898 21.1482Z" fill="#222934"/>
<path d="M12.9953 16.6009C12.9062 16.5118 12.9062 16.3682 12.9953 16.2791L14.7007 14.5737C14.7898 14.4846 14.9335 14.4846 15.0216 14.5737C15.1107 14.6627 15.1107 14.8064 15.0216 14.8955L13.3162 16.6009C13.228 16.6891 13.0844 16.6909 12.9953 16.6009Z" fill="#222934"/>
<path d="M12.6882 14.1938C12.63 14.1938 12.5718 14.1719 12.5273 14.1274C12.4382 14.0383 12.4382 13.8947 12.5273 13.8056L14.2709 12.0619C14.36 11.9728 14.5036 11.9728 14.5927 12.0619C14.6818 12.151 14.6818 12.2947 14.5927 12.3838C14.4836 12.4919 12.8418 14.1938 12.6882 14.1938Z" fill="#222934"/>
<path d="M16.6061 12.2683L18.0471 10.8283C18.1371 10.7392 18.2807 10.7392 18.3689 10.8283C18.458 10.9174 18.458 11.061 18.3689 11.1501L16.928 12.5901C16.7143 12.8028 16.3943 12.4792 16.6061 12.2683Z" fill="#222934"/>
<path d="M19.9489 12.5228C19.8598 12.4337 19.8598 12.29 19.9489 12.2018L21.6625 10.4882C21.7516 10.3991 21.8953 10.3991 21.9844 10.4882C22.0734 10.5773 22.0734 10.7209 21.9844 10.8091L20.2707 12.5228C20.1825 12.6109 20.0389 12.6118 19.9489 12.5228Z" fill="#222934"/>
<path d="M25.6553 12.4555H22.9853C22.8599 12.4555 22.7581 12.3537 22.7581 12.2282C22.7581 12.1028 22.8599 12.001 22.9853 12.001H25.6553C25.9544 12.001 25.9562 12.4555 25.6553 12.4555Z" fill="#222934"/>
<path d="M26.1008 12.1218C26.0117 12.0327 26.0117 11.889 26.1008 11.8L27.1635 10.7372C27.2526 10.6481 27.3962 10.6481 27.4853 10.7372C27.5744 10.8263 27.5744 10.97 27.4853 11.059L26.4226 12.1218C26.3335 12.21 26.1898 12.2109 26.1008 12.1218Z" fill="#222934"/>
<path d="M28.6425 12.1218C28.5534 12.0327 28.5534 11.8891 28.6425 11.8L29.4043 11.0373C29.4934 10.9491 29.637 10.9473 29.7261 11.0373C29.8152 11.1264 29.8152 11.27 29.7261 11.3582L28.9643 12.1209C28.8734 12.2118 28.7298 12.2091 28.6425 12.1218Z" fill="#222934"/>
<path d="M47.149 38.7755C47.0018 38.7755 44.6345 36.3546 44.5199 36.2409C44.4309 36.1518 44.4309 36.0082 44.5199 35.9191C44.609 35.83 44.7527 35.83 44.8418 35.9191L47.3099 38.3873C47.399 38.4764 47.399 38.62 47.3099 38.7091C47.2654 38.7537 47.2081 38.7755 47.149 38.7755Z" fill="#222934"/>
<path d="M48.4299 37.9199L46.4799 35.9699C46.3908 35.8808 46.3908 35.7372 46.4799 35.6481C46.569 35.559 46.7126 35.559 46.8008 35.6481L48.7508 37.5981C48.8399 37.6872 48.8399 37.8308 48.7508 37.9199C48.6626 38.0081 48.519 38.009 48.4299 37.9199Z" fill="#222934"/>
<path d="M50.3645 36.2073L48.5063 34.3491C48.4172 34.26 48.4172 34.1164 48.5063 34.0273C48.5954 33.9382 48.739 33.9382 48.8281 34.0273L50.6863 35.8854C50.7754 35.9745 50.7754 36.1182 50.6863 36.2073C50.5981 36.2954 50.4545 36.2964 50.3645 36.2073Z" fill="#222934"/>
<path d="M51.689 34.6263L50.3981 33.3354C50.309 33.2463 50.309 33.1027 50.3981 33.0136C50.4872 32.9245 50.6308 32.9245 50.719 33.0136L52.0099 34.3045C52.099 34.3936 52.099 34.5372 52.0099 34.6263C51.9227 34.7145 51.779 34.7154 51.689 34.6263Z" fill="#222934"/>
<path d="M52.7298 33.0991L51.2089 31.5791C51.1198 31.49 51.1198 31.3463 51.2089 31.2572C51.2971 31.1691 51.4407 31.1672 51.5307 31.2572L53.0516 32.7773C53.1407 32.8663 53.1407 33.01 53.0516 33.0991C52.9625 33.1873 52.8189 33.1882 52.7298 33.0991Z" fill="#222934"/>
<path d="M53.8135 30.5347L51.9526 28.6738C51.8635 28.5847 51.8635 28.4411 51.9526 28.352C52.0417 28.2629 52.1853 28.2629 52.2744 28.352L54.1353 30.2129C54.2244 30.302 54.2244 30.4456 54.1353 30.5347C54.0471 30.6229 53.9035 30.6238 53.8135 30.5347Z" fill="#222934"/>
<path d="M53.4817 28.1091L51.9526 26.5791C51.8635 26.49 51.8635 26.3463 51.9526 26.2572C52.0417 26.1672 52.1853 26.1691 52.2744 26.2572L53.8035 27.7873C53.8926 27.8763 53.8926 28.02 53.8035 28.1091C53.7153 28.1963 53.5717 28.1991 53.4817 28.1091Z" fill="#222934"/>
<path d="M45.1907 40.2908L42.7316 37.8308C42.6425 37.7418 42.6425 37.5981 42.7316 37.5099C42.8216 37.4199 42.9652 37.4218 43.0534 37.5099L45.5125 39.9699C45.6016 40.059 45.6016 40.2027 45.5125 40.2918C45.4243 40.3781 45.2807 40.3808 45.1907 40.2908Z" fill="#222934"/>
<path d="M42.2681 40.3837L40.6091 38.7256C40.52 38.6365 40.52 38.4928 40.6091 38.4037C40.6972 38.3146 40.8409 38.3146 40.9309 38.4037L42.59 40.0619C42.6791 40.151 42.6791 40.2946 42.59 40.3837C42.5 40.4728 42.3563 40.471 42.2681 40.3837Z" fill="#222934"/>
<path d="M39.8236 40.619L38.4872 39.2827C38.3981 39.1936 38.3981 39.05 38.4872 38.9609C38.5763 38.8718 38.72 38.8718 38.809 38.9609L40.1454 40.2972C40.2345 40.3863 40.2345 40.53 40.1454 40.619C40.0563 40.7072 39.9127 40.709 39.8236 40.619Z" fill="#222934"/>
<path d="M37.659 40.1291L36.7563 39.2273C36.6672 39.1382 36.6672 38.9945 36.7563 38.9054C36.8445 38.8173 36.9881 38.8154 37.0781 38.9054L37.9808 39.8073C38.0699 39.8963 38.0699 40.04 37.9808 40.1291C37.8899 40.2191 37.7463 40.2173 37.659 40.1291Z" fill="#222934"/>
<path d="M35.9745 40.0645C35.8854 39.9754 35.8854 39.8318 35.9745 39.7427L38.0227 37.6945C38.1118 37.6054 38.2554 37.6054 38.3445 37.6945C38.4336 37.7836 38.4336 37.9272 38.3445 38.0163L36.2964 40.0645C36.2082 40.1527 36.0645 40.1536 35.9745 40.0645Z" fill="#222934"/>
<path d="M37.7062 40.2455L41.009 36.9428C41.0981 36.8537 41.2417 36.8537 41.3308 36.9428C41.4199 37.0319 41.4199 37.1755 41.3308 37.2637L38.0281 40.5664C37.8144 40.7801 37.4944 40.4573 37.7062 40.2455Z" fill="#222934"/>
<path d="M40.2743 40.7347C40.1852 40.6456 40.1852 40.502 40.2743 40.4129L44.2762 36.4111C44.3652 36.322 44.5089 36.322 44.598 36.4111C44.6871 36.5001 44.6871 36.6438 44.598 36.732L40.5962 40.7338C40.5071 40.8229 40.3634 40.8247 40.2743 40.7347Z" fill="#222934"/>
<path d="M43.178 39.3527L46.1344 36.3954C46.2235 36.3063 46.3671 36.3063 46.4562 36.3954C46.5453 36.4845 46.5453 36.6282 46.4562 36.7172L43.4999 39.6745C43.2862 39.8872 42.9671 39.5636 43.178 39.3527Z" fill="#222934"/>
<path d="M46.2491 37.9574L50.1264 34.0801C50.3373 33.8692 50.6609 34.1883 50.4482 34.402L46.5709 38.2792C46.3573 38.491 46.0382 38.1683 46.2491 37.9574Z" fill="#222934"/>
<path d="M47.9245 34.9283C47.8354 34.8392 47.8354 34.6956 47.9245 34.6065L49.9227 32.6083C50.0118 32.5192 50.1554 32.5192 50.2445 32.6083C50.3336 32.6974 50.3336 32.841 50.2445 32.9301L48.2463 34.9283C48.1572 35.0165 48.0136 35.0174 47.9245 34.9283Z" fill="#222934"/>
<path d="M50.9953 34.0337C50.9062 33.9446 50.9062 33.8009 50.9953 33.7119L52.5871 32.12C52.6762 32.0309 52.8198 32.0309 52.908 32.12C52.9971 32.2091 52.9971 32.3528 52.908 32.4419L51.3162 34.0337C51.228 34.1219 51.0844 34.1228 50.9953 34.0337Z" fill="#222934"/>
<path d="M50.9399 31.6337C50.8508 31.5446 50.8508 31.401 50.9399 31.3119L53.0644 29.1864C53.1526 29.0983 53.2962 29.0964 53.3862 29.1864C53.4753 29.2755 53.4753 29.4192 53.3862 29.5074L51.2617 31.6328C51.1717 31.7228 51.028 31.721 50.9399 31.6337Z" fill="#222934"/>
<path d="M51.2743 28.8974C51.1852 28.8083 51.1852 28.6646 51.2743 28.5755L53.3971 26.4528C53.4862 26.3637 53.6298 26.3637 53.7189 26.4528C53.808 26.5419 53.808 26.6855 53.7189 26.7746L51.5962 28.8974C51.508 28.9855 51.3643 28.9864 51.2743 28.8974Z" fill="#222934"/>
<path d="M25.3017 55.3536L23.9535 54.0054C23.8644 53.9163 23.8644 53.7727 23.9535 53.6845C24.0426 53.5954 24.1863 53.5954 24.2744 53.6845L25.6226 55.0327C25.7117 55.1218 25.7117 55.2654 25.6226 55.3545C25.5354 55.4418 25.3908 55.4436 25.3017 55.3536Z" fill="#222934"/>
<path d="M26.3481 54.6111L25.1608 53.4238C25.0717 53.3347 25.0717 53.1911 25.1608 53.102C25.2499 53.0129 25.3935 53.0129 25.4826 53.102L26.6699 54.2892C26.759 54.3783 26.759 54.522 26.6699 54.6111C26.5817 54.6992 26.4381 54.7002 26.3481 54.6111Z" fill="#222934"/>
<path d="M26.9543 53.2947L26.0107 52.351C25.9216 52.2619 25.9216 52.1183 26.0107 52.0292C26.0998 51.9401 26.2434 51.9401 26.3325 52.0292L27.2761 52.9729C27.3652 53.0619 27.3652 53.2056 27.2761 53.2947C27.1879 53.3829 27.0443 53.3838 26.9543 53.2947Z" fill="#222934"/>
<path d="M23.8636 54.8027L25.8472 52.819C25.9363 52.7299 26.0799 52.7299 26.169 52.819C26.2581 52.9081 26.2581 53.0517 26.169 53.1408L24.1854 55.1245C23.9718 55.3372 23.6527 55.0136 23.8636 54.8027Z" fill="#222934"/>
<path d="M25.9217 54.5791L26.8781 53.6227C26.9672 53.5336 27.1108 53.5336 27.1999 53.6227C27.289 53.7118 27.289 53.8555 27.1999 53.9445L26.2436 54.9009C26.0317 55.1118 25.7072 54.7927 25.9217 54.5791Z" fill="#222934"/>
<path d="M26.5926 52.619C26.3681 52.3945 26.7945 52.0954 27.0317 51.8581C27.2426 51.6463 27.5663 51.9663 27.3536 52.1799C27.1126 52.4199 26.8226 52.8481 26.5926 52.619Z" fill="#222934"/>
</g>
<defs>
<clipPath id="clip0_380_379">
<rect width="60" height="60" fill="white"/>
</clipPath>
</defs>
</svg>
