<svg width="60" height="60" viewBox="0 0 60 60" fill="none" xmlns="http://www.w3.org/2000/svg">
<circle cx="30" cy="30" r="30" fill="#222934" fill-opacity="0.08"/>
<g clip-path="url(#clip0_1658_9601)">
<path d="M14.2066 35.183C14.1521 36.5734 14.1636 37.9234 15.0005 38.9473C15.0264 39.0173 15.076 39.0658 15.1405 39.0919C16.1675 40.1878 17.8363 40.3423 19.3418 40.3873L41.1379 41.0362C44.3023 41.1287 45.4926 40.2442 45.5967 36.6719L45.6791 33.8169C45.6831 33.8139 45.6892 33.8149 45.6927 33.8114C45.7416 33.7624 45.7416 33.6835 45.6927 33.6344L45.6847 33.6264L45.9937 22.8988C46.0047 22.5178 46.0056 22.1183 45.9606 21.7314C45.9606 21.7274 45.9592 21.7239 45.9586 21.7199C45.7341 19.8084 44.4971 19.4984 43.0102 19.403C37.8316 19.0707 16.5555 18.2067 14.9266 20.4461C13.3366 22.632 14.2946 32.9675 14.2066 35.183ZM15.6 38.8473L24.1867 30.2606L26.7001 31.859C29.846 33.8605 31.2204 33.8245 34.2168 31.4931L35.1338 30.7801L42.217 37.8628L41.3615 38.7183L40.8105 38.1673C40.7615 38.1183 40.6824 38.1183 40.634 38.1673C40.5851 38.2163 40.5851 38.2952 40.634 38.3443L41.185 38.8953L40.4705 39.6098L39.543 38.6823L40.4515 37.7739C40.5004 37.7249 40.5004 37.646 40.4515 37.5969C40.4025 37.5478 40.3234 37.5479 40.2745 37.5969L39.366 38.5053L39.2996 38.4389C39.2506 38.3899 39.1716 38.3899 39.1231 38.4389C39.0742 38.4878 39.0742 38.5669 39.1231 38.6153L39.1896 38.6818L38.5721 39.2992L38.0601 38.7872C38.0491 38.7763 38.0342 38.7768 38.0206 38.7708L38.6111 38.1803C38.6601 38.1313 38.6601 38.0523 38.6111 38.0033C38.5622 37.9543 38.4831 37.9543 38.4341 38.0033L37.0605 39.3767L36.6645 38.9807C36.6156 38.9318 36.5365 38.9318 36.4881 38.9807C36.4391 39.0297 36.4391 39.1088 36.4881 39.1572L36.8841 39.5532L36.4021 40.0352L35.6107 39.2432L36.5356 38.3183C36.5845 38.2693 36.5845 38.1902 36.5356 38.1418C36.4866 38.0928 36.4076 38.0928 36.3586 38.1418L35.4337 39.0668L35.3866 39.0198C35.3381 38.9713 35.2591 38.9708 35.2096 39.0198C35.1606 39.0687 35.1606 39.1477 35.2096 39.1968L35.2566 39.2438L34.8327 39.6678L34.3787 39.2138C34.3507 39.1858 34.3131 39.1788 34.2762 39.1834L34.5117 38.9484C34.5607 38.8994 34.5607 38.8203 34.5117 38.7713C34.4627 38.7224 34.3838 38.7224 34.3347 38.7713L33.3798 39.7263L33.0997 39.4462C33.0512 39.3977 32.9723 39.3973 32.9227 39.4462C32.8738 39.4952 32.8738 39.5742 32.9227 39.6232L33.2027 39.9033L32.8172 40.2888L31.8438 40.2598L31.9049 40.1987C31.9318 40.1952 31.9589 40.1883 31.9793 40.1677C31.9999 40.1472 32.0068 40.1202 32.0103 40.0933L33.1618 38.9418C33.2108 38.8928 33.2108 38.8138 33.1618 38.7648C33.1128 38.7158 33.0339 38.7158 32.9848 38.7648L31.8693 39.8803L31.6668 39.6777C31.6178 39.6288 31.5389 39.6288 31.4898 39.6777C31.4407 39.7267 31.4408 39.8057 31.4898 39.8542L31.6923 40.0567L31.5008 40.2482L19.3568 39.8867C18.0024 39.8473 16.5109 39.7172 15.6 38.8473ZM32.5108 29.1243C32.5143 29.1292 32.5128 29.1358 32.5174 29.1397L32.8268 29.4492L31.4124 30.8636L31.0919 30.5431L32.5108 29.1243ZM31.2354 31.0406L30.379 31.8971C30.33 31.946 30.33 32.025 30.379 32.0741C30.4275 32.1226 30.5064 32.123 30.556 32.0741L31.4124 31.2177L32.1968 32.0021C32.2454 32.0506 32.3243 32.0511 32.3739 32.0021C32.4228 31.9531 32.4228 31.8741 32.3739 31.8251L31.5894 31.0406L33.0038 29.6262L33.7468 30.3691L32.7664 31.3495C32.7174 31.3985 32.7174 31.4775 32.7664 31.5266C32.8149 31.5751 32.8938 31.5755 32.9434 31.5266L33.9238 30.5462L34.2287 30.8511L33.9102 31.0986C32.7638 31.9901 31.7159 32.7316 30.5064 32.7915L29.675 31.96L30.9154 30.7196L31.2354 31.0406ZM34.6192 28.0103L35.3621 28.7532L33.9232 30.1921L33.1803 29.4492L34.6192 28.0103ZM36.1251 29.1632L35.7152 28.7532L37.3036 27.1648L37.8371 27.6983C37.8856 27.7468 37.9646 27.7473 38.0141 27.6983C38.0631 27.6494 38.0631 27.5704 38.0141 27.5213L37.4811 26.9884L38.9206 25.5489L39.3656 25.9938L38.8821 26.4773C38.8332 26.5262 38.8332 26.6052 38.8821 26.6537C38.9307 26.7022 39.0096 26.7027 39.0592 26.6537L39.5426 26.1703L39.7786 26.4063C39.8201 26.4478 39.8726 26.4569 39.9341 26.4148L35.1153 30.1617C35.0118 30.1627 34.9158 30.2227 34.8813 30.3436L34.4273 30.6967L34.0998 30.3691L35.5387 28.9302L35.9487 29.3402C35.9972 29.3887 36.0762 29.3892 36.1257 29.3402C36.1741 29.2912 36.1741 29.2123 36.1251 29.1632ZM45.4967 22.3365C45.5002 22.521 45.4987 22.7056 45.4932 22.886L45.2117 32.6595L44.9637 32.9075L44.8393 32.783C44.7903 32.7341 44.7114 32.7341 44.6623 32.783C44.6133 32.832 44.6133 32.911 44.6623 32.9601L44.7867 33.0845L44.5067 33.3645C44.4577 33.4135 44.4577 33.4925 44.5067 33.5415C44.5552 33.5901 44.6342 33.5905 44.6837 33.5415L44.9637 33.2615L45.1877 33.486L45.1772 33.857L44.6147 34.4195L44.5672 34.372C44.5182 34.323 44.4392 34.323 44.3902 34.372C44.3411 34.421 44.3412 34.5 44.3902 34.549L44.4377 34.5965L44.0807 34.9535C44.0317 35.0025 44.0317 35.0814 44.0807 35.1305C44.1292 35.179 44.2082 35.1795 44.2577 35.1305L44.6147 34.7735L45.1277 35.2865C45.1297 35.2886 45.1332 35.2875 45.1351 35.2896L45.1281 35.5261C45.0796 35.4931 45.0151 35.4915 44.9716 35.5345L44.5172 35.989L44.3342 35.806C44.2852 35.757 44.2062 35.757 44.1572 35.806C44.1082 35.8549 44.1082 35.9339 44.1572 35.9824L44.3402 36.1654L43.6923 36.8129C43.6433 36.8619 43.6433 36.9409 43.6923 36.9899C43.7408 37.0384 43.8197 37.0389 43.8693 36.9899L44.5172 36.3424L44.9192 36.7444C44.9646 36.7899 45.0382 36.7964 45.0921 36.7459C45.0816 37.0779 45.0631 37.4098 45.0276 37.7333C44.9986 37.7353 44.9692 37.7442 44.9472 37.7668L44.4397 38.2743L44.0352 37.8698L44.1937 37.7113C44.2427 37.6623 44.2427 37.5833 44.1937 37.5343C44.1448 37.4852 44.0658 37.4853 44.0173 37.5343L43.8588 37.6928L43.3273 37.1613C43.2783 37.1123 43.1993 37.1123 43.1503 37.1613C43.1012 37.2102 43.1013 37.2892 43.1503 37.3383L43.6818 37.8698L43.3048 38.2467L42.7453 37.6872L42.8078 37.6243C42.8568 37.5753 42.8568 37.4964 42.8078 37.4473C42.7589 37.3982 42.6799 37.3983 42.6308 37.4473L42.5683 37.5098L35.5311 30.4711C43.0783 24.6024 43.7473 24.1949 45.4967 22.3365ZM45.1457 34.949L44.7917 34.5949L45.1667 34.2199L45.1457 34.949ZM44.8457 38.6778L44.6173 38.4494L44.9828 38.0838C44.9497 38.2898 44.9027 38.4868 44.8457 38.6778ZM44.5017 39.4413L44.0638 39.0033L44.4407 38.6264L44.7207 38.9064C44.7337 38.9194 44.7512 38.9194 44.7672 38.9259C44.6973 39.1103 44.6062 39.2808 44.5017 39.4413ZM43.8873 38.8268L43.4829 38.4224L43.8598 38.0455L44.2643 38.4499L43.8873 38.8268ZM45.0992 36.5709C45.0978 36.5694 45.0988 36.5674 45.0972 36.5659L44.6952 36.1639L45.1232 35.736L45.0992 36.5709ZM41.0594 40.4922C41.0478 40.5037 41.0484 40.5197 41.0423 40.5331L39.9328 40.5002L40.4699 39.9627L40.8328 40.3252C40.8813 40.3737 40.9603 40.3742 41.0098 40.3252C41.0588 40.2763 41.0588 40.1972 41.0098 40.1482L40.6469 39.7853L41.3614 39.0708L41.9209 39.6302L41.0594 40.4922ZM37.788 40.4362L37.818 40.4062C37.842 40.4017 37.8665 40.3967 37.885 40.3782C37.9035 40.3597 37.9085 40.3353 37.913 40.3112L38.5714 39.6528L39.2434 40.3248C39.2919 40.3733 39.3709 40.3737 39.4204 40.3248C39.4694 40.2758 39.4694 40.1967 39.4204 40.1478L38.7484 39.4758L39.3659 38.8583L40.2934 39.7858L39.59 40.4898L37.788 40.4362ZM36.3961 40.3953L37.0601 39.7313L37.6 40.2713L37.4446 40.4268L36.3961 40.3953ZM33.7427 40.3162C33.7542 40.3102 33.7682 40.3112 33.7782 40.3016C33.8272 40.2527 33.8272 40.1737 33.7782 40.1246L33.5568 39.9026L34.1712 39.2882C34.1667 39.3252 34.1737 39.3622 34.2022 39.3902L34.6562 39.8442L34.1722 40.3282L33.7427 40.3162ZM33.6288 40.3127L33.1608 40.2987L33.3798 40.0797L33.6012 40.3018C33.6092 40.3087 33.6202 40.3073 33.6288 40.3127ZM34.8327 40.0213L35.0936 40.2822C35.1432 40.3318 35.2221 40.3302 35.2706 40.2822C35.3196 40.2333 35.3196 40.1543 35.2706 40.1052L35.0097 39.8443L35.4337 39.4203L36.2251 40.2123L36.1391 40.2983C36.1151 40.3223 36.1031 40.3542 36.1026 40.3858L34.5152 40.3383L34.8327 40.0213ZM37.8665 38.9248C37.8725 38.9378 37.8721 38.9533 37.883 38.9643L38.395 39.4762L37.7775 40.0937L37.2376 39.5538L37.8665 38.9248ZM41.5379 38.8953L42.3933 38.0399L42.9528 38.5994L42.0973 39.4549L41.5379 38.8953ZM39.9589 26.3954C39.999 26.3464 39.9999 26.2753 39.9544 26.2299L39.7184 25.9938L40.8844 24.8278L41.3429 25.2863C41.3503 25.2938 41.3614 25.2923 41.3698 25.2978L39.9589 26.3954ZM29.4979 31.7836L28.68 30.9661L29.9205 29.7256L30.7384 30.5436L29.4979 31.7836ZM30.1459 32.7851C29.3335 32.7336 28.5499 32.3835 27.7375 31.9086L28.5034 31.1426L30.1459 32.7851ZM27.5445 31.7476C27.534 31.7581 27.535 31.7726 27.529 31.785C27.344 31.673 27.1575 31.558 26.9681 31.4375L26.541 31.1661L27.534 30.1732L28.327 30.9662L27.5445 31.7476ZM41.3639 40.5413L42.0969 39.8078L42.7668 40.4778C42.3288 40.5473 41.8528 40.5522 41.3639 40.5413ZM43.0593 40.4173L42.2733 39.6313L43.1288 38.7759L43.5333 39.1803L43.1124 39.6012C43.0634 39.6502 43.0634 39.7292 43.1124 39.7783C43.1609 39.8268 43.2398 39.8272 43.2894 39.7783L43.7103 39.3573L44.1828 39.8298C43.9098 40.0918 43.6028 40.2867 43.0593 40.4173ZM45.1408 33.0836L45.2012 33.0231L45.1977 33.1411L45.1408 33.0836ZM42.9783 19.9037C44.3273 19.9902 45.2267 20.2047 45.4447 21.6621C45.3442 21.7725 45.2417 21.878 45.1408 21.9861C45.1352 21.9766 45.1368 21.9646 45.1282 21.9561L44.4923 21.3197L44.9752 20.8362C45.0242 20.7873 45.0242 20.7083 44.9752 20.6598C44.9263 20.6108 44.8472 20.6108 44.7982 20.6598L44.3152 21.1432L44.2297 21.0577C44.1808 21.0087 44.1018 21.0087 44.0527 21.0577C44.0037 21.1067 44.0037 21.1856 44.0527 21.2347L44.1438 21.3258C44.1098 21.3743 44.1082 21.4397 44.1518 21.4833C44.1943 21.5258 44.2482 21.5338 44.3093 21.4913L44.9512 22.1332C44.9613 22.1433 44.9757 22.1427 44.9878 22.1487C43.6133 23.5847 42.5348 24.3931 41.5419 25.1651C41.5359 25.1461 41.5344 25.126 41.5194 25.111L41.0609 24.6515L42.2269 23.4855L42.4235 23.6815L42.2135 23.8914C42.1645 23.9404 42.1645 24.0194 42.2135 24.0684C42.262 24.117 42.341 24.1174 42.3905 24.0684L42.6005 23.8585L42.678 23.936C42.7265 23.9845 42.8055 23.985 42.855 23.936C42.904 23.887 42.904 23.8081 42.855 23.7595L42.7775 23.682L43.645 22.8146L43.6815 22.8511C43.73 22.8996 43.809 22.9001 43.8585 22.8511C43.9075 22.8021 43.9075 22.7232 43.8585 22.6741L43.822 22.6375L44.5299 21.9296C44.5789 21.8806 44.5789 21.8016 44.5299 21.7526C44.481 21.7035 44.402 21.7036 44.3529 21.7526L43.6454 22.4605L43.4495 22.2646L44.0384 21.6756C44.0873 21.6267 44.0873 21.5477 44.0384 21.4986C43.9894 21.4495 43.9104 21.4496 43.8614 21.4986L43.2724 22.0875L43.1369 21.952C43.088 21.9031 43.009 21.9031 42.9599 21.952C42.9109 22.001 42.911 22.08 42.9599 22.1291L43.0954 22.2646L42.2279 23.132L42.192 23.096C42.143 23.0471 42.0639 23.0471 42.0149 23.096C41.966 23.145 41.966 23.224 42.0149 23.2731L42.0509 23.309L40.8855 24.475L40.6505 24.24C40.6015 24.1911 40.5226 24.1911 40.4735 24.24C40.4245 24.289 40.4245 24.368 40.4735 24.4171L40.7085 24.6521L39.5425 25.8181L38.9096 25.1851C38.8606 25.1362 38.7815 25.1362 38.7331 25.1851C38.6841 25.2341 38.6841 25.3131 38.7331 25.3622L38.744 25.3731L37.3046 26.8126L37.1195 26.6276C37.0706 26.5786 36.9916 26.5786 36.9425 26.6276C36.8935 26.6765 36.8936 26.7555 36.9425 26.8046L37.1276 26.9896L35.5392 28.578L34.7962 27.8351L35.7287 26.9026C35.7777 26.8536 35.7777 26.7747 35.7287 26.7256C35.6797 26.6766 35.6008 26.6766 35.5517 26.7256L33.0033 29.274L32.6938 28.9645C32.6893 28.96 32.6829 28.9615 32.6784 28.958L33.2728 28.3635C33.3218 28.3146 33.3218 28.2356 33.2728 28.1865C33.2238 28.1374 33.1449 28.1375 33.0958 28.1865L30.9149 30.3674L30.0969 29.5495L31.7239 27.9221C31.7729 27.8731 31.7729 27.7941 31.7239 27.745C31.6749 27.6961 31.596 27.6961 31.5469 27.745L29.92 29.3719L29.6605 29.1124C29.6116 29.0635 29.5325 29.0635 29.4835 29.1124C29.4345 29.1614 29.4345 29.2404 29.4835 29.2889L29.743 29.5484L28.5025 30.7888L27.7095 29.9958L29.486 28.2193C29.5349 28.1704 29.5349 28.0914 29.486 28.0423C29.437 27.9932 29.3579 27.9934 29.309 28.0423L27.5325 29.8188L26.825 29.1119C26.776 29.0629 26.6971 29.0629 26.648 29.1119C26.599 29.1608 26.599 29.2398 26.648 29.2883L27.3555 29.9952L26.3235 31.0272L24.3381 29.7643C24.3361 29.7623 24.3356 29.7593 24.3336 29.7573C24.3056 29.7293 24.2721 29.7118 24.2366 29.6998C20.1553 27.1049 16.0269 24.9725 15.134 21.1497C15.1319 21.1412 15.1259 21.1347 15.1235 21.1262C15.187 20.9777 15.255 20.8447 15.3309 20.7407C16.5425 19.0747 33.7087 19.3062 42.9783 19.9037ZM42.4034 23.3089L43.2709 22.4415L43.4674 22.6374L42.5999 23.5049L42.4034 23.3089ZM14.8645 21.981C16.153 25.5849 19.8848 27.5248 23.7541 29.9857L15.2715 38.4689C14.6745 37.6044 14.658 36.4325 14.706 35.2025C14.778 33.3766 14.1116 25.4229 14.8645 21.981Z" fill="black"/>
<path d="M20.1601 23.6529L21.1571 22.6559L21.7801 23.2789L20.3647 24.6948C20.3157 24.7438 20.3157 24.8228 20.3647 24.8719C20.4132 24.9204 20.4922 24.9208 20.5411 24.8719L21.9566 23.4564L22.294 23.7938L21.8491 24.2388C21.8001 24.2878 21.8001 24.3668 21.8491 24.4158C21.8976 24.4643 21.9766 24.4648 22.0261 24.4158L22.4711 23.9709L23.4605 24.9603C23.509 25.0088 23.588 25.0093 23.6375 24.9603C23.6865 24.9113 23.6865 24.8324 23.6375 24.7833L22.6481 23.7938L23.57 22.8724C23.619 22.8235 23.619 22.7445 23.57 22.6954C23.5211 22.6464 23.4421 22.6465 23.393 22.6954L22.4706 23.6164L22.1332 23.2789L23.1746 22.2375L24.045 23.1079L23.1436 24.0093C23.0946 24.0583 23.0946 24.1373 23.1436 24.1858C23.1921 24.2343 23.2711 24.2348 23.3206 24.1858L24.222 23.2844L25.1905 24.2528C25.239 24.3013 25.318 24.3018 25.3669 24.2528C25.4159 24.2038 25.4159 24.1249 25.3669 24.0758L24.3985 23.1073L24.945 22.5608L25.9864 23.6023L25.5799 24.0088C25.531 24.0577 25.531 24.1367 25.5799 24.1852C25.6284 24.2337 25.7074 24.2342 25.7564 24.1852L26.1629 23.7787L26.8634 24.4792C26.9119 24.5277 26.9909 24.5282 27.0398 24.4792C27.0888 24.4303 27.0888 24.3513 27.0398 24.3028L26.3393 23.6023L27.1333 22.8078L27.5657 23.2402L27.1402 23.6657C27.0913 23.7146 27.0913 23.7936 27.1402 23.8427C27.1888 23.8912 27.2677 23.8917 27.3173 23.8427L27.7427 23.4173L28.2672 23.9418C28.3157 23.9903 28.3947 23.9907 28.4442 23.9418C28.4932 23.8928 28.4932 23.8138 28.4442 23.7647L27.9197 23.2402L28.3282 22.8317C28.3772 22.7828 28.3772 22.7038 28.3282 22.6547C28.2793 22.6057 28.2003 22.6057 28.1512 22.6547L27.7427 23.0632L27.3103 22.6308L27.8697 22.0713C27.9187 22.0223 27.9187 21.9434 27.8697 21.8943C27.8208 21.8452 27.7418 21.8453 27.6927 21.8943L27.1333 22.4538L26.7387 22.0592L27.3977 21.4002C27.4467 21.3513 27.4467 21.2723 27.3977 21.2238C27.3487 21.1753 27.2698 21.1748 27.2207 21.2238L26.5617 21.8828L26.0912 21.4123L26.1733 21.3303C26.2222 21.2813 26.2222 21.2024 26.1733 21.1533C26.1243 21.1043 26.0453 21.1043 25.9962 21.1533L25.9012 21.2483C25.8562 21.2302 25.8052 21.2302 25.7688 21.2668C25.7322 21.3033 25.7322 21.3543 25.7503 21.3992L24.9428 22.2067L24.4218 21.6857C24.3729 21.6367 24.2939 21.6367 24.2448 21.6857C24.1957 21.7346 24.1959 21.8136 24.2448 21.8627L24.7658 22.3837L24.2193 22.9302L23.3489 22.0598L24.7204 20.6883C24.7693 20.6394 24.7693 20.5604 24.7204 20.5113C24.6714 20.4624 24.5924 20.4624 24.5433 20.5113L23.172 21.883L23.1276 21.8386C23.0786 21.7896 22.9996 21.7896 22.9511 21.8386C22.9021 21.8875 22.9021 21.9665 22.9511 22.0156L22.9956 22.06L21.9541 23.1019L21.3311 22.4789L22.1051 21.7044C22.154 21.6554 22.154 21.5765 22.1051 21.5274C22.0561 21.4784 21.9771 21.4784 21.928 21.5274L21.1541 22.3019L20.7666 21.9144C20.7176 21.8654 20.6386 21.8654 20.5895 21.9144C20.5406 21.9633 20.5406 22.0423 20.5895 22.0908L20.9771 22.4784L19.9801 23.4754C19.9311 23.5243 19.9311 23.6033 19.9801 23.6524C20.0316 23.7014 20.1112 23.702 20.1601 23.6529ZM25.9165 21.5901L26.3869 22.0606L25.9235 22.5246C25.8745 22.5736 25.8745 22.6526 25.9235 22.7016C25.972 22.7501 26.051 22.7506 26.1005 22.7016L26.564 22.2376L26.9585 22.6321L26.164 23.4266L25.1221 22.3847L25.9165 21.5901Z" fill="black"/>
<path d="M16.8329 34.9238L17.7639 33.9928L17.9878 34.2173C18.0374 34.2668 18.1163 34.2652 18.1648 34.2173C18.2138 34.1683 18.2138 34.0893 18.1648 34.0403L17.9403 33.8157L18.5068 33.2493L18.6923 33.4348C18.7408 33.4833 18.8198 33.4837 18.8693 33.4348C18.9183 33.3858 18.9183 33.3068 18.8693 33.2577L18.6838 33.0723L19.4058 32.3508L19.4948 32.4398C19.5433 32.4883 19.6223 32.4887 19.6718 32.4398C19.7207 32.3908 19.7207 32.3118 19.6718 32.2628L19.5828 32.1738L20.2362 31.5203C20.2882 31.5703 20.3642 31.5653 20.4108 31.5193C20.4587 31.4713 20.4587 31.3938 20.4118 31.3447L20.6008 31.1558C20.6497 31.1068 20.6497 31.0278 20.6008 30.9788C20.5518 30.9298 20.4728 30.9298 20.4237 30.9788L20.2352 31.1673L19.8742 30.8063C19.8252 30.7573 19.7462 30.7573 19.6972 30.8063C19.6482 30.8552 19.6482 30.9342 19.6972 30.9833L20.0582 31.3443L19.4058 31.9967L19.1483 31.7393C19.0993 31.6903 19.0204 31.6903 18.9713 31.7393C18.9223 31.7882 18.9223 31.8673 18.9713 31.9163L19.2287 32.1738L18.5068 32.8952L18.1803 32.5687C18.1313 32.5198 18.0524 32.5198 18.0038 32.5687C17.9549 32.6177 17.9549 32.6967 18.0038 32.7458L18.3303 33.0723L17.7639 33.6383L17.3164 33.1918C17.2675 33.1433 17.1885 33.1423 17.1394 33.1918C17.0904 33.2408 17.0904 33.3198 17.1394 33.3689L17.5869 33.8163L16.6559 34.7473C16.6069 34.7963 16.6069 34.8752 16.6559 34.9243C16.7045 34.9723 16.7835 34.9728 16.8329 34.9238Z" fill="black"/>
<path d="M35.2809 34.2682C35.3054 34.2927 35.3369 34.3047 35.3694 34.3047C35.4014 34.3047 35.4333 34.2922 35.4578 34.2682L36.0088 33.7172L36.5403 34.2487L36.1449 34.6441C36.0959 34.6931 36.0959 34.7721 36.1449 34.8211C36.1694 34.8456 36.2008 34.8577 36.2333 34.8577C36.2654 34.8577 36.2973 34.8457 36.3218 34.8211L36.7172 34.4257L37.1277 34.8361L36.7327 35.2316C36.6837 35.2805 36.6837 35.3595 36.7327 35.4086C36.7572 35.433 36.7886 35.4451 36.8211 35.4451C36.8536 35.4451 36.8851 35.4332 36.9096 35.4086L37.305 35.0131L37.6741 35.3822C37.6985 35.4067 37.73 35.4187 37.7625 35.4187C37.7946 35.4187 37.8265 35.4068 37.851 35.3822C37.8999 35.3332 37.8999 35.2542 37.851 35.2052L37.4815 34.8357C37.5285 34.7867 37.5285 34.7096 37.4805 34.6611C37.4325 34.6132 37.355 34.6132 37.3059 34.6601L36.8945 34.2487L37.0515 34.0916C37.1005 34.0426 37.1005 33.9636 37.0515 33.9146C37.0025 33.8656 36.9236 33.8656 36.8745 33.9146L36.7175 34.0716L36.186 33.5401L36.4214 33.3047C36.4704 33.2557 36.4704 33.1767 36.4214 33.1277C36.3724 33.0786 36.2934 33.0787 36.2444 33.1277L36.0089 33.3631L35.4579 32.8121C35.409 32.7631 35.33 32.7631 35.2809 32.8121C35.2318 32.8611 35.2319 32.9401 35.2809 32.9891L35.8319 33.5401L35.2809 34.0912C35.2319 34.1401 35.2319 34.2191 35.2809 34.2682Z" fill="black"/>
</g>
<defs>
<clipPath id="clip0_1658_9601">
<rect width="32" height="32" fill="white" transform="translate(14 14)"/>
</clipPath>
</defs>
</svg>
