<svg width="32" height="32" viewBox="0 0 32 32" fill="none" xmlns="http://www.w3.org/2000/svg">
<circle cx="16" cy="16" r="15.5" stroke="#0D0D04"/>
<path d="M14.6705 16.7735C14.6288 16.7735 13.71 16.7735 13.2923 16.7735C13.0696 16.7735 13 16.6834 13 16.4581C13 15.8573 13 15.2416 13 14.6408C13 14.4005 13.0835 14.3254 13.2923 14.3254H14.6705C14.6705 14.2804 14.6705 13.4093 14.6705 13.0038C14.6705 12.403 14.768 11.8323 15.0464 11.3066C15.3387 10.766 15.7564 10.4055 16.2854 10.1952C16.6334 10.0601 16.9814 10 17.3573 10H18.7216C18.9165 10 19 10.0901 19 10.3004V12.0125C19 12.2228 18.9165 12.3129 18.7216 12.3129C18.3457 12.3129 17.9698 12.3129 17.594 12.3279C17.2181 12.3279 17.0232 12.5232 17.0232 12.9437C17.0093 13.3942 17.0232 13.8298 17.0232 14.2954H18.6381C18.8608 14.2954 18.9443 14.3855 18.9443 14.6258V16.4431C18.9443 16.6834 18.8747 16.7584 18.6381 16.7584C18.1369 16.7584 17.065 16.7584 17.0232 16.7584V21.6546C17.0232 21.9099 16.9536 22 16.703 22C16.1183 22 15.5476 22 14.9629 22C14.7541 22 14.6705 21.9099 14.6705 21.6846C14.6705 20.1076 14.6705 16.8185 14.6705 16.7735Z" fill="#0D0D04"/>
</svg>
