<svg width="70" height="70" viewBox="0 0 70 70" fill="none" xmlns="http://www.w3.org/2000/svg">
<path d="M32.6539 0.0787191C23.5222 0.692205 14.9941 4.85818 8.89714 11.6839C2.80014 18.5096 -0.380664 27.452 0.0363503 36.5947C0.453364 45.7375 4.43502 54.3532 11.1281 60.5955C17.8211 66.8379 26.6931 70.2102 35.8427 69.9899C44.9923 69.7695 53.6916 65.974 60.0764 59.4167C66.4612 52.8594 70.0235 44.062 69.9999 34.9098C69.9763 25.7576 66.3687 16.9787 59.9502 10.4544C53.5317 3.93008 44.813 0.179464 35.6623 0.00626755L35.5006 8.55333C42.4162 8.68423 49.0054 11.5188 53.8562 16.4495C58.707 21.3803 61.4335 28.015 61.4513 34.9318C61.4691 41.8487 58.7769 48.4973 53.9516 53.453C49.1262 58.4087 42.5517 61.2772 35.6368 61.4437C28.722 61.6103 22.017 59.0616 16.9587 54.3439C11.9004 49.6263 8.89123 43.1149 8.57607 36.2052C8.26091 29.2956 10.6648 22.5373 15.2727 17.3787C19.8805 12.2202 26.3256 9.07173 33.2269 8.60809L32.6539 0.0787191Z" fill="#46B058"/>
<path d="M24.4 29.672C25.4133 29.672 26.2667 29.8907 26.96 30.328C27.664 30.7653 28.1973 31.4 28.56 32.232C28.9227 33.0533 29.104 34.0613 29.104 35.256C29.104 36.5253 28.88 37.5973 28.432 38.472C27.984 39.3467 27.3653 40.008 26.576 40.456C25.7867 40.904 24.864 41.128 23.808 41.128C23.2853 41.128 22.7787 41.0747 22.288 40.968C21.808 40.8613 21.3867 40.696 21.024 40.472L21.632 39.224C21.9307 39.416 22.2613 39.5547 22.624 39.64C22.9973 39.7147 23.3867 39.752 23.792 39.752C24.9227 39.752 25.824 39.4 26.496 38.696C27.168 37.9813 27.504 36.9253 27.504 35.528C27.504 35.304 27.4933 35.0373 27.472 34.728C27.4507 34.4187 27.4027 34.1147 27.328 33.816L27.856 34.36C27.7067 34.8507 27.456 35.2667 27.104 35.608C26.7627 35.9387 26.3467 36.1893 25.856 36.36C25.376 36.52 24.848 36.6 24.272 36.6C23.536 36.6 22.88 36.4613 22.304 36.184C21.728 35.9067 21.2747 35.5173 20.944 35.016C20.6133 34.504 20.448 33.9013 20.448 33.208C20.448 32.4827 20.6187 31.8587 20.96 31.336C21.312 30.8027 21.7867 30.392 22.384 30.104C22.992 29.816 23.664 29.672 24.4 29.672ZM24.464 30.968C23.984 30.968 23.5573 31.0587 23.184 31.24C22.8107 31.4213 22.5173 31.672 22.304 31.992C22.1013 32.312 22 32.696 22 33.144C22 33.8053 22.2293 34.3333 22.688 34.728C23.1467 35.112 23.7653 35.304 24.544 35.304C25.056 35.304 25.504 35.208 25.888 35.016C26.2827 34.824 26.5867 34.5627 26.8 34.232C27.024 33.9013 27.136 33.5333 27.136 33.128C27.136 32.7333 27.0347 32.376 26.832 32.056C26.6293 31.736 26.3307 31.4747 25.936 31.272C25.5413 31.0693 25.0507 30.968 24.464 30.968ZM34.275 29.672C35.2883 29.672 36.1417 29.8907 36.835 30.328C37.539 30.7653 38.0723 31.4 38.435 32.232C38.7977 33.0533 38.979 34.0613 38.979 35.256C38.979 36.5253 38.755 37.5973 38.307 38.472C37.859 39.3467 37.2403 40.008 36.451 40.456C35.6617 40.904 34.739 41.128 33.683 41.128C33.1603 41.128 32.6537 41.0747 32.163 40.968C31.683 40.8613 31.2617 40.696 30.899 40.472L31.507 39.224C31.8057 39.416 32.1363 39.5547 32.499 39.64C32.8723 39.7147 33.2617 39.752 33.667 39.752C34.7977 39.752 35.699 39.4 36.371 38.696C37.043 37.9813 37.379 36.9253 37.379 35.528C37.379 35.304 37.3683 35.0373 37.347 34.728C37.3257 34.4187 37.2777 34.1147 37.203 33.816L37.731 34.36C37.5817 34.8507 37.331 35.2667 36.979 35.608C36.6377 35.9387 36.2217 36.1893 35.731 36.36C35.251 36.52 34.723 36.6 34.147 36.6C33.411 36.6 32.755 36.4613 32.179 36.184C31.603 35.9067 31.1497 35.5173 30.819 35.016C30.4883 34.504 30.323 33.9013 30.323 33.208C30.323 32.4827 30.4937 31.8587 30.835 31.336C31.187 30.8027 31.6617 30.392 32.259 30.104C32.867 29.816 33.539 29.672 34.275 29.672ZM34.339 30.968C33.859 30.968 33.4323 31.0587 33.059 31.24C32.6857 31.4213 32.3923 31.672 32.179 31.992C31.9763 32.312 31.875 32.696 31.875 33.144C31.875 33.8053 32.1043 34.3333 32.563 34.728C33.0217 35.112 33.6403 35.304 34.419 35.304C34.931 35.304 35.379 35.208 35.763 35.016C36.1577 34.824 36.4617 34.5627 36.675 34.232C36.899 33.9013 37.011 33.5333 37.011 33.128C37.011 32.7333 36.9097 32.376 36.707 32.056C36.5043 31.736 36.2057 31.4747 35.811 31.272C35.4163 31.0693 34.9257 30.968 34.339 30.968ZM42.054 41L49.702 29.8H50.934L43.286 41H42.054ZM42.95 35.816C42.438 35.816 41.9847 35.688 41.59 35.432C41.1953 35.176 40.886 34.8187 40.662 34.36C40.4487 33.9013 40.342 33.368 40.342 32.76C40.342 32.152 40.4487 31.6187 40.662 31.16C40.886 30.7013 41.1953 30.344 41.59 30.088C41.9847 29.832 42.438 29.704 42.95 29.704C43.4727 29.704 43.926 29.832 44.31 30.088C44.7047 30.344 45.0087 30.7013 45.222 31.16C45.4353 31.6187 45.542 32.152 45.542 32.76C45.542 33.368 45.4353 33.9013 45.222 34.36C45.0087 34.8187 44.7047 35.176 44.31 35.432C43.926 35.688 43.4727 35.816 42.95 35.816ZM42.95 34.904C43.4407 34.904 43.8247 34.7173 44.102 34.344C44.3793 33.96 44.518 33.432 44.518 32.76C44.518 32.088 44.3793 31.5653 44.102 31.192C43.8247 30.808 43.4407 30.616 42.95 30.616C42.47 30.616 42.086 30.808 41.798 31.192C41.5207 31.5653 41.382 32.088 41.382 32.76C41.382 33.4213 41.5207 33.944 41.798 34.328C42.086 34.712 42.47 34.904 42.95 34.904ZM50.038 41.096C49.526 41.096 49.0727 40.968 48.678 40.712C48.2833 40.456 47.9793 40.0987 47.766 39.64C47.5527 39.1813 47.446 38.648 47.446 38.04C47.446 37.432 47.5527 36.8987 47.766 36.44C47.9793 35.9813 48.2833 35.624 48.678 35.368C49.0727 35.112 49.526 34.984 50.038 34.984C50.5607 34.984 51.014 35.112 51.398 35.368C51.7927 35.624 52.0967 35.9813 52.31 36.44C52.534 36.8987 52.646 37.432 52.646 38.04C52.646 38.648 52.534 39.1813 52.31 39.64C52.0967 40.0987 51.7927 40.456 51.398 40.712C51.014 40.968 50.5607 41.096 50.038 41.096ZM50.038 40.184C50.518 40.184 50.8967 39.9973 51.174 39.624C51.462 39.24 51.606 38.712 51.606 38.04C51.606 37.3787 51.462 36.856 51.174 36.472C50.8967 36.088 50.518 35.896 50.038 35.896C49.558 35.896 49.174 36.088 48.886 36.472C48.6087 36.8453 48.47 37.368 48.47 38.04C48.47 38.712 48.6087 39.24 48.886 39.624C49.174 39.9973 49.558 40.184 50.038 40.184Z" fill="#46B058"/>
</svg>
