<svg width="26" height="25" viewBox="0 0 26 25" fill="none" xmlns="http://www.w3.org/2000/svg">
<path d="M12.5507 0.420349C12.7334 0.0461558 13.2666 0.0461552 13.4493 0.420348L16.9014 7.49143C16.9738 7.63961 17.1145 7.74259 17.2776 7.7667L25.0072 8.90901C25.4155 8.96935 25.579 9.47033 25.285 9.75989L19.6857 15.274C19.5693 15.3886 19.5163 15.5528 19.5436 15.7139L20.864 23.4976C20.9334 23.9068 20.5027 24.2175 20.1363 24.0227L13.2347 20.353C13.088 20.275 12.912 20.275 12.7653 20.353L5.86374 24.0227C5.49725 24.2175 5.06663 23.9068 5.13605 23.4976L6.45641 15.7139C6.48372 15.5528 6.43066 15.3886 6.31428 15.274L0.715035 9.75989C0.421002 9.47033 0.58453 8.96935 0.992772 8.90901L8.72237 7.7667C8.88549 7.74259 9.02624 7.63961 9.09858 7.49143L12.5507 0.420349Z" fill="#46B058"/>
</svg>
