<svg width="60" height="60" viewBox="0 0 60 60" fill="none" xmlns="http://www.w3.org/2000/svg">
<g clip-path="url(#clip0_1479_2204)">
<mask id="path-1-inside-1_1479_2204" fill="white">
<path d="M52.0984 45.8937C50.1017 45.4433 50.5333 45.3368 48.0532 44.7714C46.9305 44.5168 45.7702 44.9812 45.292 45.8761C45.1531 46.1359 45.0313 46.4012 44.904 46.6648C42.0795 45.5335 41.8689 44.5171 38.3081 43.759C35.8115 43.2247 35.7843 42.9315 33.9556 40.8519C34.9982 40.3486 35.3619 40.1047 36.3121 39.4855C36.5245 39.3465 36.6458 39.1279 36.6796 38.8951C37.4329 37.6246 36.9154 37.4814 36.0752 35.5278C36.3744 35.1821 36.5425 34.9706 37.1629 34.214C37.3278 34.2518 39.5912 34.7701 39.4765 34.7438C39.9582 34.8295 40.3238 34.5911 40.4676 34.226C40.8977 33.4112 41.9105 31.046 41.6903 30.35C41.5588 28.9237 42.0314 29.4192 38.6742 28.073C38.7613 27.5197 38.7974 27.007 38.768 26.5401C40.1835 25.7806 42.386 24.6023 41.2342 23.6232C40.6125 22.5512 39.9197 21.5062 39.1681 20.5179C38.951 20.2317 38.5872 20.127 38.2601 20.22C38.2484 20.2224 38.2371 20.2185 38.2254 20.2215C37.4138 20.4187 36.6256 20.7058 35.8615 21.0446L34.7961 19.9748C35.0211 19.0193 35.1152 18.0423 35.0622 17.0609C35.1919 16.6375 34.9831 16.1805 34.5637 16.0196C34.4816 15.988 34.3972 15.9631 34.3145 15.933C35.9251 15.2231 36.4351 13.3046 33.8598 11.7289C33.0196 11.2147 31.4639 10.1812 30.572 9.61905C29.8312 9.15256 28.9871 8.6621 28.0585 8.21673C31.4323 8.28863 31.2581 7.21491 43.3429 10.214C44.1332 10.4094 45.0851 10.6214 45.81 10.2229C46.6612 10.0564 47.1303 9.28114 46.9973 8.52558C46.5742 6.11707 38.7353 3.00968 36.3845 2.35084C29.3455 0.419392 23.9628 1.74895 17.0218 4.35121C16.3906 4.58989 15.7676 4.83245 15.155 5.07114L14.9225 5.1615C14.5495 4.16848 14.11 3.19484 13.5936 2.25217C13.4588 2.00617 13.1839 1.87045 12.9052 1.91741C11.9707 2.07165 11.0517 2.24744 10.1327 2.42279C9.22066 2.59727 8.30815 2.77176 7.38056 2.92514C7.01995 2.9846 6.77566 3.32496 6.83555 3.68557C6.895 4.04618 7.23924 4.29132 7.59598 4.23058C8.53477 4.0759 9.45805 3.89926 10.3813 3.72305C11.1357 3.57872 11.8906 3.43439 12.654 3.30212C14.3127 6.49548 15.1218 10.0214 14.9969 13.5302C14.9835 13.911 14.5833 14.2303 14.0663 14.2729C11.5576 14.4798 11.9401 14.2406 9.78678 14.4233C9.24823 14.4685 8.29393 14.5482 7.91953 14.4677C7.53255 11.1289 6.64993 8.91827 6.46201 6.59888C6.43272 6.23483 6.10916 5.97115 5.74898 5.9927C5.38449 6.02199 5.1135 6.34124 5.14279 6.70573C5.305 8.71051 6.3157 11.9576 6.62401 14.7921C6.6532 15.0599 6.75945 15.2564 6.91434 15.4077C7.11726 16.0173 7.59808 16.0282 8.1873 16.0998C10.4814 16.3784 12.6964 16.3661 15.0186 15.8957C15.8689 15.7235 16.3663 15.403 16.3042 14.1821C16.2987 14.0746 16.2892 13.9663 16.2799 13.8581C16.3415 13.5364 16.3187 13.5698 16.3203 12.875C17.9087 13.0376 19.3649 13.8548 20.7623 14.0287C23.192 14.331 25.2904 13.1666 29.7132 15.3962C29.3172 15.9274 28.7709 17.4941 28.5753 18.131C27.7966 18.0386 27.0045 18.0422 26.2267 18.1406L24.8872 15.9558C24.6402 15.5518 24.0682 15.3834 23.6224 15.7653C20.2968 17.775 20.7222 17.4404 20.4843 17.6824C20.4248 17.7378 20.4301 17.7153 20.3512 17.8547C20.208 18.0837 20.1626 18.3691 20.2781 18.6356L21.2686 20.921L20.0792 22.8999L17.2161 21.8729C16.6911 21.6835 16.0829 22.0484 16.0871 22.6777C15.5984 23.9511 15.2972 25.2195 14.8663 26.2704C14.7709 26.5033 14.7933 26.7501 14.8953 26.9599C14.9293 27.0399 14.9821 27.1089 15.0392 27.1754C15.0438 27.1804 15.0461 27.187 15.0509 27.1918C15.139 27.2897 15.2429 27.3742 15.3747 27.4238L18.2285 28.495L18.5156 30.4517C17.8982 31.0839 17.178 31.624 16.3975 32.0343C14.7613 32.354 16.5034 34.3456 17.2868 36.6269C17.4268 36.9457 17.7383 37.1357 18.0653 37.1357C18.0663 37.1357 18.0673 37.1351 18.0684 37.1351C18.1064 37.1403 18.1433 37.1516 18.1821 37.1516C18.2928 37.1516 18.4057 37.1297 18.5142 37.0836L20.9474 36.0481C21.9136 36.7147 21.4658 36.3957 22.6535 37.2076L22.0532 39.8914C21.7799 40.3652 22.0027 40.8407 22.4216 41.0714C23.0708 41.3733 26.2418 42.3657 27.0178 41.8591C27.1441 41.8112 27.3343 41.7295 27.6049 41.6021C27.8189 42.031 30.9597 46.3601 32.6705 47.8726C31.008 47.5934 28.2206 46.6955 26.6467 46.1389C21.5167 44.4685 17.8262 40.7075 16.6418 40.3187C15.5064 39.9469 14.1866 40.798 14.5485 42.3122C14.1637 43.5408 14.7646 44.6762 15.4823 45.6761C20.8124 53.1026 31.0255 57.0567 42.4976 54.426C42.2141 56.8434 41.8013 57.6376 42.8928 57.8445C44.2722 58.1059 45.5884 58.3797 46.9922 58.5524C47.8482 58.6577 48.371 58.1818 48.704 58.0378C48.8174 58.0538 48.9298 58.0654 49.0433 58.0821C49.4061 58.1346 49.7413 57.8845 49.7942 57.5233C49.8472 57.1618 49.5969 56.8254 49.2354 56.7724C47.5502 56.525 45.8826 56.354 44.1895 56.1201C44.0564 52.8505 44.8366 49.536 46.4596 46.4999C46.6556 46.1333 47.2265 45.942 47.7594 46.0622C47.8479 46.0824 53.3099 47.572 53.4645 47.6434C52.9217 49.1875 52.6149 50.527 52.3426 51.7165C52.0708 52.9022 51.8364 53.9258 51.4301 54.9542C51.2961 55.2942 51.4629 55.6785 51.8028 55.8129C52.1423 55.946 52.527 55.7806 52.6615 55.4402C53.1044 54.3192 53.3607 53.1981 53.6326 52.0116C53.9251 50.7351 54.2275 49.4145 54.8006 47.8377C54.8962 47.574 54.8755 47.294 54.7415 47.0497C54.4094 46.4422 53.5205 46.2143 52.0984 45.8937V45.8937ZM17.488 5.58986C24.1708 3.09026 29.2734 1.77133 36.0307 3.62611C38.8627 4.41946 45.4628 7.44412 45.694 8.75479C45.7101 8.849 45.6418 8.95122 45.4501 8.93962C45.2043 8.93662 42.536 8.05524 42.4476 8.02624C36.0475 5.92635 25.915 5.60737 24.6536 7.51398C24.4576 7.81039 24.5451 8.18824 24.8333 8.3959C24.9587 8.48595 25.1085 8.51341 25.2557 8.50259C25.6984 8.80209 26.6611 8.71966 29.8918 10.7552C30.969 11.4344 32.089 12.1968 33.1687 12.8576C35.255 14.1333 34.0995 15.1326 32.2609 14.8817C28.8808 14.4281 28.6328 11.7734 23.5791 12.2609C22.8349 12.3334 22.1782 12.3973 21.4762 12.3157C19.9057 12.1367 18.0668 11.57 16.276 11.4482C16.166 9.74668 15.8631 8.05656 15.3551 6.41341L15.635 6.30462C16.2437 6.06766 16.8633 5.82639 17.488 5.58986V5.58986ZM20.0743 31.2832C20.4334 30.8768 20.2349 30.7397 19.8429 27.7999C19.709 26.8773 18.3494 26.8623 16.7304 26.1179C17.0633 25.1532 17.1798 24.6844 17.4923 23.7762L19.906 24.642C21.1106 25.5842 21.635 23.2439 22.8472 21.592C22.9231 21.4654 22.9502 21.3278 22.9557 21.19C23.185 20.6312 22.8018 20.3717 22.1278 18.6313L23.8914 17.5818L24.8885 19.2081C25.1028 20.5503 26.3259 19.3891 28.9392 19.8971C29.4143 19.9936 29.9136 19.5806 30.0145 19.1935C30.2294 18.3705 30.5389 17.5759 30.9001 16.8071C31.7399 16.9339 32.5665 17.1326 33.3706 17.4025C33.4253 19.5859 32.7675 19.9525 33.179 20.5925C33.2965 21.0081 33.4186 20.9371 35.0428 22.6299C35.6785 23.2672 36.1694 22.5838 38.1498 22.0152C38.6341 22.6803 39.0896 23.3664 39.5136 24.0696C38.9589 24.4747 38.3794 24.8424 37.7686 25.1568C37.1953 25.2049 36.908 25.7123 37.0079 26.1701C37.1505 26.8211 37.0803 27.69 36.8002 28.7534C36.6804 29.207 36.9514 29.6719 37.4047 29.7912C37.4478 29.8027 37.4904 29.8036 37.5331 29.808C38.3503 30.1639 39.1413 30.5824 39.9057 31.0434C39.7286 31.6946 39.4958 32.3284 39.2091 32.9396C35.4107 32.3946 37.6592 31.4291 34.3063 34.9483C33.3692 35.5431 34.3404 36.5971 34.7968 38.4442C34.2262 38.8105 33.8446 39.0268 32.9795 39.4362C32.8544 39.0821 32.3273 38.4565 31.739 37.608C31.5537 36.8248 30.9967 36.9381 27.9224 36.875C27.0498 36.898 27.1512 37.5827 26.0803 40.2621C25.3097 40.1843 24.5526 40.0271 23.8181 39.7834C24.0191 38.1089 25.1708 36.1757 23.7809 35.921C20.7581 33.8174 21.6965 33.8299 18.5296 35.2309L17.6693 33.269C18.5644 32.7332 19.3876 32.0608 20.0743 31.2832V31.2832ZM43.0641 52.5572C39.9113 52.688 38.4229 52.7976 34.7718 52.6717C19.8312 51.9638 12.8415 38.7564 17.0524 42.1114C23.5836 47.3164 33.0703 50.1609 34.8873 48.9678C35.3829 48.6409 35.2324 47.8717 34.6375 47.7673C34.6084 47.7372 34.5869 47.7019 34.5513 47.677C32.7541 46.4234 28.6227 41.312 28.6893 40.5509C28.7459 39.6371 30.224 39.7701 31.0882 40.1804C33.8679 41.4945 33.1905 44.0175 38.0315 45.0532C41.3937 45.7764 41.3318 46.6412 44.3654 47.876C43.7437 49.3998 43.3004 50.9692 43.0641 52.5572V52.5572Z"/>
</mask>
<path d="M52.0984 45.8937C50.1017 45.4433 50.5333 45.3368 48.0532 44.7714C46.9305 44.5168 45.7702 44.9812 45.292 45.8761C45.1531 46.1359 45.0313 46.4012 44.904 46.6648C42.0795 45.5335 41.8689 44.5171 38.3081 43.759C35.8115 43.2247 35.7843 42.9315 33.9556 40.8519C34.9982 40.3486 35.3619 40.1047 36.3121 39.4855C36.5245 39.3465 36.6458 39.1279 36.6796 38.8951C37.4329 37.6246 36.9154 37.4814 36.0752 35.5278C36.3744 35.1821 36.5425 34.9706 37.1629 34.214C37.3278 34.2518 39.5912 34.7701 39.4765 34.7438C39.9582 34.8295 40.3238 34.5911 40.4676 34.226C40.8977 33.4112 41.9105 31.046 41.6903 30.35C41.5588 28.9237 42.0314 29.4192 38.6742 28.073C38.7613 27.5197 38.7974 27.007 38.768 26.5401C40.1835 25.7806 42.386 24.6023 41.2342 23.6232C40.6125 22.5512 39.9197 21.5062 39.1681 20.5179C38.951 20.2317 38.5872 20.127 38.2601 20.22C38.2484 20.2224 38.2371 20.2185 38.2254 20.2215C37.4138 20.4187 36.6256 20.7058 35.8615 21.0446L34.7961 19.9748C35.0211 19.0193 35.1152 18.0423 35.0622 17.0609C35.1919 16.6375 34.9831 16.1805 34.5637 16.0196C34.4816 15.988 34.3972 15.9631 34.3145 15.933C35.9251 15.2231 36.4351 13.3046 33.8598 11.7289C33.0196 11.2147 31.4639 10.1812 30.572 9.61905C29.8312 9.15256 28.9871 8.6621 28.0585 8.21673C31.4323 8.28863 31.2581 7.21491 43.3429 10.214C44.1332 10.4094 45.0851 10.6214 45.81 10.2229C46.6612 10.0564 47.1303 9.28114 46.9973 8.52558C46.5742 6.11707 38.7353 3.00968 36.3845 2.35084C29.3455 0.419392 23.9628 1.74895 17.0218 4.35121C16.3906 4.58989 15.7676 4.83245 15.155 5.07114L14.9225 5.1615C14.5495 4.16848 14.11 3.19484 13.5936 2.25217C13.4588 2.00617 13.1839 1.87045 12.9052 1.91741C11.9707 2.07165 11.0517 2.24744 10.1327 2.42279C9.22066 2.59727 8.30815 2.77176 7.38056 2.92514C7.01995 2.9846 6.77566 3.32496 6.83555 3.68557C6.895 4.04618 7.23924 4.29132 7.59598 4.23058C8.53477 4.0759 9.45805 3.89926 10.3813 3.72305C11.1357 3.57872 11.8906 3.43439 12.654 3.30212C14.3127 6.49548 15.1218 10.0214 14.9969 13.5302C14.9835 13.911 14.5833 14.2303 14.0663 14.2729C11.5576 14.4798 11.9401 14.2406 9.78678 14.4233C9.24823 14.4685 8.29393 14.5482 7.91953 14.4677C7.53255 11.1289 6.64993 8.91827 6.46201 6.59888C6.43272 6.23483 6.10916 5.97115 5.74898 5.9927C5.38449 6.02199 5.1135 6.34124 5.14279 6.70573C5.305 8.71051 6.3157 11.9576 6.62401 14.7921C6.6532 15.0599 6.75945 15.2564 6.91434 15.4077C7.11726 16.0173 7.59808 16.0282 8.1873 16.0998C10.4814 16.3784 12.6964 16.3661 15.0186 15.8957C15.8689 15.7235 16.3663 15.403 16.3042 14.1821C16.2987 14.0746 16.2892 13.9663 16.2799 13.8581C16.3415 13.5364 16.3187 13.5698 16.3203 12.875C17.9087 13.0376 19.3649 13.8548 20.7623 14.0287C23.192 14.331 25.2904 13.1666 29.7132 15.3962C29.3172 15.9274 28.7709 17.4941 28.5753 18.131C27.7966 18.0386 27.0045 18.0422 26.2267 18.1406L24.8872 15.9558C24.6402 15.5518 24.0682 15.3834 23.6224 15.7653C20.2968 17.775 20.7222 17.4404 20.4843 17.6824C20.4248 17.7378 20.4301 17.7153 20.3512 17.8547C20.208 18.0837 20.1626 18.3691 20.2781 18.6356L21.2686 20.921L20.0792 22.8999L17.2161 21.8729C16.6911 21.6835 16.0829 22.0484 16.0871 22.6777C15.5984 23.9511 15.2972 25.2195 14.8663 26.2704C14.7709 26.5033 14.7933 26.7501 14.8953 26.9599C14.9293 27.0399 14.9821 27.1089 15.0392 27.1754C15.0438 27.1804 15.0461 27.187 15.0509 27.1918C15.139 27.2897 15.2429 27.3742 15.3747 27.4238L18.2285 28.495L18.5156 30.4517C17.8982 31.0839 17.178 31.624 16.3975 32.0343C14.7613 32.354 16.5034 34.3456 17.2868 36.6269C17.4268 36.9457 17.7383 37.1357 18.0653 37.1357C18.0663 37.1357 18.0673 37.1351 18.0684 37.1351C18.1064 37.1403 18.1433 37.1516 18.1821 37.1516C18.2928 37.1516 18.4057 37.1297 18.5142 37.0836L20.9474 36.0481C21.9136 36.7147 21.4658 36.3957 22.6535 37.2076L22.0532 39.8914C21.7799 40.3652 22.0027 40.8407 22.4216 41.0714C23.0708 41.3733 26.2418 42.3657 27.0178 41.8591C27.1441 41.8112 27.3343 41.7295 27.6049 41.6021C27.8189 42.031 30.9597 46.3601 32.6705 47.8726C31.008 47.5934 28.2206 46.6955 26.6467 46.1389C21.5167 44.4685 17.8262 40.7075 16.6418 40.3187C15.5064 39.9469 14.1866 40.798 14.5485 42.3122C14.1637 43.5408 14.7646 44.6762 15.4823 45.6761C20.8124 53.1026 31.0255 57.0567 42.4976 54.426C42.2141 56.8434 41.8013 57.6376 42.8928 57.8445C44.2722 58.1059 45.5884 58.3797 46.9922 58.5524C47.8482 58.6577 48.371 58.1818 48.704 58.0378C48.8174 58.0538 48.9298 58.0654 49.0433 58.0821C49.4061 58.1346 49.7413 57.8845 49.7942 57.5233C49.8472 57.1618 49.5969 56.8254 49.2354 56.7724C47.5502 56.525 45.8826 56.354 44.1895 56.1201C44.0564 52.8505 44.8366 49.536 46.4596 46.4999C46.6556 46.1333 47.2265 45.942 47.7594 46.0622C47.8479 46.0824 53.3099 47.572 53.4645 47.6434C52.9217 49.1875 52.6149 50.527 52.3426 51.7165C52.0708 52.9022 51.8364 53.9258 51.4301 54.9542C51.2961 55.2942 51.4629 55.6785 51.8028 55.8129C52.1423 55.946 52.527 55.7806 52.6615 55.4402C53.1044 54.3192 53.3607 53.1981 53.6326 52.0116C53.9251 50.7351 54.2275 49.4145 54.8006 47.8377C54.8962 47.574 54.8755 47.294 54.7415 47.0497C54.4094 46.4422 53.5205 46.2143 52.0984 45.8937V45.8937ZM17.488 5.58986C24.1708 3.09026 29.2734 1.77133 36.0307 3.62611C38.8627 4.41946 45.4628 7.44412 45.694 8.75479C45.7101 8.849 45.6418 8.95122 45.4501 8.93962C45.2043 8.93662 42.536 8.05524 42.4476 8.02624C36.0475 5.92635 25.915 5.60737 24.6536 7.51398C24.4576 7.81039 24.5451 8.18824 24.8333 8.3959C24.9587 8.48595 25.1085 8.51341 25.2557 8.50259C25.6984 8.80209 26.6611 8.71966 29.8918 10.7552C30.969 11.4344 32.089 12.1968 33.1687 12.8576C35.255 14.1333 34.0995 15.1326 32.2609 14.8817C28.8808 14.4281 28.6328 11.7734 23.5791 12.2609C22.8349 12.3334 22.1782 12.3973 21.4762 12.3157C19.9057 12.1367 18.0668 11.57 16.276 11.4482C16.166 9.74668 15.8631 8.05656 15.3551 6.41341L15.635 6.30462C16.2437 6.06766 16.8633 5.82639 17.488 5.58986V5.58986ZM20.0743 31.2832C20.4334 30.8768 20.2349 30.7397 19.8429 27.7999C19.709 26.8773 18.3494 26.8623 16.7304 26.1179C17.0633 25.1532 17.1798 24.6844 17.4923 23.7762L19.906 24.642C21.1106 25.5842 21.635 23.2439 22.8472 21.592C22.9231 21.4654 22.9502 21.3278 22.9557 21.19C23.185 20.6312 22.8018 20.3717 22.1278 18.6313L23.8914 17.5818L24.8885 19.2081C25.1028 20.5503 26.3259 19.3891 28.9392 19.8971C29.4143 19.9936 29.9136 19.5806 30.0145 19.1935C30.2294 18.3705 30.5389 17.5759 30.9001 16.8071C31.7399 16.9339 32.5665 17.1326 33.3706 17.4025C33.4253 19.5859 32.7675 19.9525 33.179 20.5925C33.2965 21.0081 33.4186 20.9371 35.0428 22.6299C35.6785 23.2672 36.1694 22.5838 38.1498 22.0152C38.6341 22.6803 39.0896 23.3664 39.5136 24.0696C38.9589 24.4747 38.3794 24.8424 37.7686 25.1568C37.1953 25.2049 36.908 25.7123 37.0079 26.1701C37.1505 26.8211 37.0803 27.69 36.8002 28.7534C36.6804 29.207 36.9514 29.6719 37.4047 29.7912C37.4478 29.8027 37.4904 29.8036 37.5331 29.808C38.3503 30.1639 39.1413 30.5824 39.9057 31.0434C39.7286 31.6946 39.4958 32.3284 39.2091 32.9396C35.4107 32.3946 37.6592 31.4291 34.3063 34.9483C33.3692 35.5431 34.3404 36.5971 34.7968 38.4442C34.2262 38.8105 33.8446 39.0268 32.9795 39.4362C32.8544 39.0821 32.3273 38.4565 31.739 37.608C31.5537 36.8248 30.9967 36.9381 27.9224 36.875C27.0498 36.898 27.1512 37.5827 26.0803 40.2621C25.3097 40.1843 24.5526 40.0271 23.8181 39.7834C24.0191 38.1089 25.1708 36.1757 23.7809 35.921C20.7581 33.8174 21.6965 33.8299 18.5296 35.2309L17.6693 33.269C18.5644 32.7332 19.3876 32.0608 20.0743 31.2832V31.2832ZM43.0641 52.5572C39.9113 52.688 38.4229 52.7976 34.7718 52.6717C19.8312 51.9638 12.8415 38.7564 17.0524 42.1114C23.5836 47.3164 33.0703 50.1609 34.8873 48.9678C35.3829 48.6409 35.2324 47.8717 34.6375 47.7673C34.6084 47.7372 34.5869 47.7019 34.5513 47.677C32.7541 46.4234 28.6227 41.312 28.6893 40.5509C28.7459 39.6371 30.224 39.7701 31.0882 40.1804C33.8679 41.4945 33.1905 44.0175 38.0315 45.0532C41.3937 45.7764 41.3318 46.6412 44.3654 47.876C43.7437 49.3998 43.3004 50.9692 43.0641 52.5572V52.5572Z" fill="#222934" stroke="white" stroke-width="0.4" mask="url(#path-1-inside-1_1479_2204)"/>
<path d="M47.7033 46.6507C47.1975 46.5107 46.6329 47.0421 46.5486 47.6145C46.4405 48.3453 47.0201 48.9768 47.8704 48.9768C48.7562 48.9768 49.3458 48.3114 49.1987 47.5714C49.0711 46.9266 48.4281 46.5053 47.7033 46.6507Z" fill="#222934"/>
<path d="M13.6503 13.6477C14.1904 13.6208 14.5054 12.9424 14.3884 12.3893C14.2123 11.5613 13.2864 11.1393 12.4531 11.5289C11.7457 11.8609 11.5175 12.6242 11.9072 13.2346C12.2778 13.8157 13.038 14.0018 13.6503 13.6477V13.6477Z" fill="#222934"/>
<path d="M34.0497 28.014C34.1516 30.4395 32.4777 32.8239 30.1585 33.557C27.8183 34.2866 25.0885 33.2693 23.7985 31.2223C22.4939 29.144 22.7776 26.2431 24.4554 24.4786L24.4555 24.4785C26.1222 22.7216 28.4706 22.2994 30.4275 22.9691C32.3822 23.6379 33.9478 25.3965 34.0496 28.0137L34.0497 28.014ZM32.5521 28.0761H32.5521L32.552 28.0722C32.4106 24.4396 28.1334 22.7788 25.5422 25.5101C24.3376 26.7771 24.1304 28.9321 25.0673 30.4244L25.0674 30.4245C25.9986 31.9025 28.0326 32.6498 29.7094 32.1271L29.7098 32.127C31.378 31.6001 32.6257 29.8239 32.5521 28.077V28.0761Z" fill="#222934" stroke="white" stroke-width="0.2"/>
</g>
<defs>
<clipPath id="clip0_1479_2204">
<rect width="60" height="60" fill="white"/>
</clipPath>
</defs>
</svg>
