<svg width="32" height="32" viewBox="0 0 32 32" fill="none" xmlns="http://www.w3.org/2000/svg">
<circle cx="16" cy="16" r="15.5" stroke="#0D0D04"/>
<path fill-rule="evenodd" clip-rule="evenodd" d="M13.2896 10H18.7104C20.5243 10 22 11.4757 22 13.2896V18.7104C22 20.5243 20.5243 22 18.7104 22H13.2896C11.4757 22 10 20.5243 10 18.7104V13.2896C10 11.4757 11.4757 10 13.2896 10ZM12.7086 16C12.7086 17.8149 14.1851 19.2914 16 19.2914C17.8149 19.2914 19.2914 17.8149 19.2914 16C19.2914 14.1851 17.8149 12.7087 16 12.7087C14.1851 12.7087 12.7086 14.1851 12.7086 16ZM18.4882 12.5118C18.4882 13.0632 18.9368 13.5118 19.4882 13.5118C20.0396 13.5118 20.4882 13.0632 20.4882 12.5118C20.4882 11.9604 20.0396 11.5118 19.4882 11.5118C18.9368 11.5118 18.4882 11.9604 18.4882 12.5118ZM19.4885 12.2208C19.3278 12.2208 19.1971 12.3515 19.1971 12.5121C19.1971 12.6727 19.3278 12.8034 19.4885 12.8034C19.6491 12.8034 19.7798 12.6728 19.7798 12.5121C19.7798 12.3515 19.6491 12.2208 19.4885 12.2208ZM15.9994 13.4167C14.5753 13.4167 13.4167 14.5753 13.4167 15.9994C13.4167 17.4236 14.5753 18.5822 15.9994 18.5822C17.4236 18.5822 18.5822 17.4236 18.5822 15.9995C18.5822 14.5754 17.4236 13.4167 15.9994 13.4167Z" fill="#0D0D04"/>
</svg>
