<svg width="32" height="32" viewBox="0 0 32 32" fill="none" xmlns="http://www.w3.org/2000/svg">
<circle cx="16" cy="16" r="15.5" stroke="#0D0D04"/>
<path d="M13.0986 13.0004C13.0985 13.2656 12.9878 13.5199 12.7909 13.7074C12.594 13.8948 12.3271 14 12.0488 13.9999C11.7705 13.9998 11.5037 13.8943 11.307 13.7067C11.1103 13.519 10.9999 13.2646 11 12.9994C11.0001 12.7342 11.1108 12.48 11.3077 12.2925C11.5046 12.1051 11.7715 11.9999 12.0498 12C12.3281 12.0001 12.595 12.1056 12.7917 12.2932C12.9884 12.4808 13.0988 12.7352 13.0986 13.0004ZM13.1301 14.7404H11.0315V21H13.1301V14.7404ZM16.446 14.7404H14.3578V21H16.425V17.7152C16.425 15.8853 18.9276 15.7153 18.9276 17.7152V21H21V17.0352C21 13.9504 17.2959 14.0654 16.425 15.5803L16.446 14.7404Z" fill="#0D0D04"/>
</svg>
