<svg width="60" height="60" viewBox="0 0 60 60" fill="none" xmlns="http://www.w3.org/2000/svg">
<circle cx="30" cy="30" r="30" fill="#222934" fill-opacity="0.08"/>
<path d="M36.6794 16.9425C30.4777 11.6033 20.6819 15.4467 19.8353 23.6179C19.302 28.7364 22.806 34.8974 26.295 38.7112C25.0727 39.3483 23.9895 40.2535 23.0266 41.0622C22.3139 41.6591 22.4031 42.1725 23.1488 42.6947C25.0857 43.9582 27.4833 45.5223 30.1224 45.5223C32.5485 45.5223 34.6828 44.1958 36.6043 42.9716C37.3936 42.476 37.5148 42.1691 37.6084 41.7934C37.7383 40.892 36.9248 40.3946 36.1156 40.0644C36.1146 40.0639 36.0695 40.0455 36.0685 40.0455C35.0678 39.6508 34.1136 39.1922 32.8996 38.7306C37.3059 32.5187 39.239 30.1711 39.9701 27.0094C40.804 23.4079 39.4814 19.3623 36.6794 16.9425ZM28.8404 44.9085L29.22 44.5284L29.7122 45.0205C29.4198 45.0021 29.1284 44.9648 28.8404 44.9085ZM29.8959 45.0322C29.943 44.9846 29.943 44.9085 29.8959 44.8615L29.3917 44.3573L29.8664 43.8826L30.6053 44.621L30.2824 44.9439C30.2576 44.9686 30.2474 45.0011 30.2484 45.0336C30.1306 45.0365 30.0133 45.0365 29.8959 45.0322ZM30.9088 44.9245C30.9553 44.9711 31.0324 44.9725 31.0804 44.9245C31.1279 44.877 31.1279 44.8004 31.0804 44.7529L30.9485 44.621L31.621 43.9485L32.1616 44.4896L32.023 44.6283C31.9861 44.6646 31.9866 44.716 32.0065 44.7606C31.5308 44.8964 31.044 44.9861 30.549 45.02L30.7759 44.7931L30.9088 44.9245ZM32.3594 43.2101L32.9005 43.7512L32.3333 44.3185L31.7927 43.7774L32.3594 43.2101ZM34.5228 43.421L34.0477 42.9463L34.549 42.445L35.0237 42.9202L34.5228 43.421ZM34.405 43.646C34.4108 43.6615 34.4113 43.679 34.4239 43.6911C34.4336 43.7008 34.4472 43.6998 34.4588 43.7056C34.1597 43.871 33.8537 44.0305 33.54 44.1774C33.5662 44.1313 33.5672 44.0746 33.5279 44.0353L33.2438 43.7512L33.877 43.118L34.405 43.646ZM33.3563 44.2065C33.3733 44.2234 33.396 44.2273 33.4179 44.2322C33.0644 44.3931 32.7032 44.5386 32.3347 44.6593L33.0722 43.9219L33.3563 44.2065ZM35.9323 40.5134C36.181 40.6152 36.4346 40.7223 36.6508 40.8707L36.3425 41.1786L36.0981 40.9342C36.0506 40.8867 35.974 40.8867 35.9265 40.9342C35.879 40.9817 35.879 41.0583 35.9265 41.1059L36.1704 41.3502L36.0584 41.4622C36.0108 41.5097 36.0108 41.5863 36.0584 41.6339C36.1064 41.6819 36.183 41.6804 36.23 41.6339L36.342 41.5219L36.5645 41.7444C36.6116 41.7914 36.6882 41.7919 36.7362 41.7444C36.7837 41.6969 36.7837 41.6203 36.7362 41.5728L36.5136 41.3502L36.8394 41.0249C37.4605 41.6334 37.0411 42.1245 36.3449 42.5619C35.8436 42.8814 35.3049 43.2242 34.7371 43.5495L35.9337 42.3529L36.0855 42.5046C36.1325 42.5517 36.2091 42.5522 36.2571 42.5046C36.3047 42.4571 36.3047 42.3805 36.2571 42.333L35.4397 41.5151C35.3922 41.4676 35.3156 41.4676 35.268 41.5151C35.2205 41.5626 35.2205 41.6392 35.268 41.6867L35.7626 42.1813L35.1953 42.7485L34.7207 42.2734L34.7725 42.2215C34.82 42.174 34.82 42.0974 34.7725 42.0499C34.725 42.0023 34.6484 42.0023 34.6009 42.0499L34.549 42.1017L34.4894 42.0421C34.4424 41.9951 34.3657 41.9941 34.3182 42.0421C34.2707 42.0896 34.2707 42.1662 34.3182 42.2137L34.3774 42.2734L33.876 42.7747L33.6186 42.5173C33.5711 42.4697 33.4945 42.4697 33.447 42.5173C33.3994 42.5648 33.3994 42.6414 33.447 42.6889L33.7044 42.9463L33.0712 43.5796L32.5301 43.0385L32.8186 42.75C32.8661 42.7025 32.8661 42.6259 32.8186 42.5783C32.7711 42.5308 32.6945 42.5308 32.647 42.5783L32.3396 42.8857C32.3017 42.879 32.263 42.8838 32.2339 42.9129C32.2048 42.942 32.1999 42.9808 32.2067 43.0186L31.6205 43.6048L31.0339 43.0176C30.9864 42.9706 30.9097 42.9696 30.8622 43.0176C30.8147 43.0651 30.8147 43.1417 30.8622 43.1893L31.4489 43.7764L30.7759 44.4494L30.037 43.711L30.9699 42.7781C31.0174 42.7306 31.0174 42.654 30.9699 42.6065C30.9223 42.559 30.8457 42.559 30.7982 42.6065L29.2196 44.1851L28.8438 43.8094C28.7963 43.7619 28.7197 43.7619 28.6727 43.8094C28.6251 43.8569 28.6251 43.9335 28.6727 43.981L29.0484 44.3568L28.6198 44.7854C28.6009 44.8043 28.5956 44.829 28.5917 44.8533C26.6824 44.415 24.9049 43.2605 23.4203 42.2923C22.9253 41.9456 22.8996 41.8002 23.3379 41.4326C24.311 40.6152 25.4077 39.6935 26.628 39.0792C27.0474 39.5335 28.2984 40.7665 28.7391 41.196C28.6983 41.2436 28.6979 41.3139 28.7425 41.3589C28.7851 41.4016 28.855 41.4103 28.9093 41.3609C29.2225 41.6557 29.8474 42.2293 30.2712 42.1653C30.9878 42.0503 31.7873 40.3039 32.613 39.1345C33.7296 39.5519 34.7657 40.0518 35.9323 40.5134ZM30.02 41.0821L29.6065 40.668L30.1927 40.0819L30.3895 40.2787L30.1291 40.5391C30.0816 40.5866 30.0816 40.6632 30.1291 40.7107C30.1762 40.7577 30.2528 40.7582 30.3008 40.7107L30.5611 40.4503L30.9539 40.8431C30.6664 41.2746 30.3672 41.6605 30.197 41.6877C30.0773 41.6969 29.7539 41.4739 29.2588 41.0166L29.4353 40.8402L29.8489 41.2542C29.8969 41.3022 29.9735 41.3008 30.0205 41.2542C30.0671 41.2062 30.0671 41.1296 30.02 41.0821ZM39.4979 26.8998C38.9592 29.231 37.6065 31.2542 36.2334 33.198C36.2489 33.1548 36.2484 33.1078 36.214 33.0734L35.7767 32.636L36.1684 32.2443L36.4293 32.5051C36.4763 32.5522 36.5529 32.5526 36.6009 32.5051C36.6484 32.4576 36.6484 32.381 36.6009 32.3335L36.34 32.0726L36.4617 31.951C36.5093 31.9034 36.5093 31.8268 36.4617 31.7793C36.4142 31.7318 36.3376 31.7318 36.2901 31.7793L36.1684 31.901L35.8426 31.5752C35.7951 31.5277 35.7185 31.5277 35.671 31.5752C35.6234 31.6227 35.6234 31.6993 35.671 31.7468L35.9968 32.0726L35.605 32.4644L35.5822 32.4416C35.5352 32.3946 35.4586 32.3936 35.4106 32.4416C35.3631 32.4891 35.3631 32.5657 35.4106 32.6133L35.4334 32.636L35.1076 32.9619C35.06 33.0094 35.06 33.086 35.1076 33.1335C35.1546 33.1805 35.2312 33.181 35.2792 33.1335L35.605 32.8077L36.0419 33.245C36.0831 33.2862 36.1345 33.294 36.1941 33.2533C35.957 33.5883 34.583 35.5243 34.4259 35.7454L33.9367 35.2562L34.9776 34.2152L35.108 34.3456C35.1551 34.3926 35.2317 34.3931 35.2797 34.3456C35.3272 34.2981 35.3272 34.2215 35.2797 34.174L34.6736 33.5679C34.6261 33.5204 34.5495 33.5204 34.502 33.5679C34.4545 33.6154 34.4545 33.692 34.502 33.7396L34.806 34.0436L33.765 35.084L33.6777 34.9968C33.6302 34.9493 33.5536 34.9493 33.5061 34.9968C33.4586 35.0443 33.4586 35.1209 33.5061 35.1684L33.5934 35.2557L33.5493 35.2998C33.5017 35.3473 33.5017 35.4239 33.5493 35.4714C33.5963 35.5185 33.6729 35.519 33.7209 35.4714L33.765 35.4273L34.2668 35.9291C34.2731 35.9354 34.2819 35.934 34.2891 35.9383C30.6697 41.0351 32.2237 38.8663 31.0896 40.636L30.7328 40.2792L31.8188 39.1931C31.9318 39.0806 31.7611 38.908 31.6472 39.0215L30.5611 40.1076L30.3643 39.9107L31.5784 38.6966L31.8455 38.9638C31.8925 39.0108 31.9691 39.0113 32.0171 38.9638C32.0647 38.9163 32.0647 38.8397 32.0171 38.7922L31.1657 37.9408L32.3585 36.748L32.7502 37.1398L32.2945 37.5956C32.247 37.6431 32.247 37.7197 32.2945 37.7672C32.3415 37.8142 32.4181 37.8147 32.4656 37.7672L32.9374 37.2954C32.9796 37.3071 33.0072 37.3187 33.0537 37.2726C33.0857 37.2406 33.0882 37.1975 33.0765 37.1563L33.7951 36.4377C33.8426 36.3902 33.8426 36.3136 33.7951 36.2661C33.7476 36.2186 33.671 36.2186 33.6234 36.2661L32.9209 36.9686L32.5291 36.5769L32.853 36.253C32.9005 36.2055 32.9005 36.1289 32.853 36.0814C32.8055 36.0339 32.7289 36.0339 32.6819 36.0814L32.324 36.4392C32.2974 36.4421 32.2707 36.4494 32.2504 36.4697C32.23 36.4901 32.2227 36.5168 32.2198 36.5434L30.085 38.6782C30.0375 38.7257 30.0375 38.8023 30.085 38.8499C30.132 38.8969 30.2087 38.8974 30.2567 38.8499L30.9936 38.1129L31.4067 38.526L30.1927 39.74L29.5207 39.0671C29.4731 39.0196 29.3965 39.0196 29.349 39.0671C29.3015 39.1146 29.3015 39.1912 29.349 39.2387L30.021 39.9107L29.4348 40.4969L28.6116 39.6731C28.564 39.6256 28.4874 39.6256 28.4399 39.6731C28.3924 39.7206 28.3924 39.7973 28.4399 39.8448L29.2632 40.6685L29.0819 40.8499C28.7013 40.4857 27.3544 39.1611 26.8617 38.6176C23.348 34.861 19.7946 28.6913 20.3173 23.6688C21.124 15.8836 30.4574 12.2244 36.3628 17.3095C39.0324 19.6154 40.292 23.469 39.4979 26.8998Z" fill="#222934"/>
<path d="M32.632 18.5624C31.3786 18.0674 29.9173 17.9573 28.4051 18.2434C27.0048 18.5086 25.8107 19.0773 24.9515 19.8889C23.3137 21.4341 22.7585 24.1275 23.6007 26.4383C24.4027 28.638 26.8419 31.1539 29.0877 31.1539H29.0916C30.201 31.1558 32.5277 31.3406 34.6223 29.3556C38.1161 26.046 36.9588 20.2695 32.632 18.5624ZM30.9796 19.1263C30.9777 19.1282 30.9787 19.1306 30.9772 19.1326L30.7178 18.8732L30.8153 18.7757C30.8584 18.7326 30.857 18.6676 30.822 18.6201C31.017 18.6419 31.2094 18.6705 31.398 18.7083L30.9796 19.1263ZM30.5467 18.702L30.4313 18.5866C30.505 18.5905 30.5787 18.5949 30.6514 18.6012C30.6494 18.6031 30.646 18.6021 30.6441 18.6041L30.5467 18.702ZM30.1336 18.575C30.1321 18.6075 30.1423 18.6404 30.167 18.6657L30.375 18.8737L29.8063 19.4424C29.799 19.4501 29.8 19.4608 29.7951 19.4695C29.7893 19.4526 29.7883 19.4337 29.7748 19.4201L29.4092 19.0545L29.416 19.0477C29.4635 19.0002 29.4635 18.9236 29.416 18.8761C29.3685 18.8286 29.2919 18.8286 29.2443 18.8761L29.2376 18.8824L28.9956 18.6404C29.3811 18.5905 29.7612 18.5697 30.1336 18.575ZM28.4953 18.7195C28.5956 18.7006 28.6955 18.6875 28.7954 18.672C28.7774 18.7156 28.7774 18.7651 28.8128 18.8009L29.0659 19.054L28.5379 19.582L27.8562 18.9003C27.8446 18.8887 27.8281 18.8887 27.8136 18.8824C28.0346 18.8203 28.2606 18.7641 28.4953 18.7195ZM26.3212 19.487C26.7309 19.2572 27.1857 19.0691 27.6759 18.9217C27.6448 18.9687 27.6434 19.0303 27.6846 19.0715L27.7796 19.1665L26.8899 20.0557L26.3212 19.487ZM26.1083 19.6169L26.1549 19.6635L25.3108 20.5076L25.1658 20.3626C25.2056 20.3219 25.2429 20.2797 25.2841 20.2404C25.5285 20.0101 25.8068 19.8036 26.1083 19.6169ZM24.5437 25.8162C24.5646 25.8371 24.5922 25.8453 24.6199 25.8477L24.0977 26.3699C24.0851 26.3369 24.0691 26.3049 24.057 26.272C23.9227 25.904 23.8296 25.5253 23.7704 25.1442C23.7806 25.1471 23.7888 25.1563 23.799 25.1563C23.8208 25.1563 23.8397 25.1432 23.8591 25.1316L24.5437 25.8162ZM23.7927 23.1243L23.8751 23.2067L23.7593 23.3226C23.769 23.2562 23.7811 23.1903 23.7927 23.1243ZM23.8509 22.8397C23.9314 22.4916 24.0395 22.1527 24.1801 21.8322C24.2557 21.8875 24.3013 21.8598 24.3624 21.7983L24.823 22.2589L24.0463 23.0356L23.8509 22.8397ZM24.3668 21.4511C24.5442 21.1214 24.7551 20.8145 24.9985 20.5381L25.1391 20.6787L24.3668 21.4511ZM34.2892 29.0026C32.3517 30.8388 30.2126 30.67 29.0911 30.6686C29.0897 30.6686 29.0887 30.6686 29.0877 30.6686C27.1299 30.6686 24.9859 28.4397 24.198 26.6118L25.8994 24.9105C25.9469 24.863 25.9469 24.7864 25.8994 24.7389C25.8519 24.6914 25.7753 24.6914 25.7282 24.7389L24.7464 25.7207C24.744 25.6931 24.7357 25.6659 24.7149 25.6446L24.0371 24.9672L25.4606 23.5437C25.5081 23.4962 25.5081 23.4196 25.4606 23.3721C25.4131 23.3246 25.3365 23.3246 25.289 23.3721L23.8654 24.7956L23.7098 24.64C23.687 24.3209 23.6914 24.0029 23.7176 23.6882C23.7277 23.6829 23.7394 23.6838 23.7481 23.6756L24.0458 23.3779L24.5355 23.8676C24.5835 23.9156 24.6601 23.9141 24.7071 23.8676C24.7547 23.8201 24.7547 23.7435 24.7071 23.696L24.2174 23.2063L24.9942 22.4295L25.1411 22.5764C25.1881 22.6235 25.2647 22.624 25.3127 22.5764C25.3602 22.5289 25.3602 22.4523 25.3127 22.4048L25.1658 22.2579L25.6002 21.8235C25.6477 21.776 25.6477 21.6994 25.6002 21.6523C25.5527 21.6048 25.4761 21.6048 25.4286 21.6523L24.9942 22.0863L24.5336 21.6257L25.3098 20.8489L26.0036 21.5427C26.0507 21.5898 26.1273 21.5903 26.1753 21.5427C26.2228 21.4952 26.2228 21.4186 26.1753 21.3711L25.4814 20.6773L26.3256 19.8332L26.7183 20.2259L26.1496 20.7946C26.102 20.8421 26.102 20.9187 26.1496 20.9658C26.1966 21.0128 26.2732 21.0133 26.3207 20.9658L26.8894 20.3971L27.2157 20.7234C27.2628 20.7704 27.3394 20.7709 27.3874 20.7234C27.4349 20.6758 27.4349 20.5992 27.3874 20.5522L27.0611 20.2259L27.9503 19.3362L28.3658 19.7517L28.2257 19.8918C28.1782 19.9394 28.1782 20.016 28.2257 20.0635C28.2727 20.1105 28.3493 20.111 28.3973 20.0635L28.5374 19.9234L28.5525 19.9384C28.5995 19.9854 28.6761 19.9859 28.7241 19.9384C28.7716 19.8909 28.7716 19.8143 28.7241 19.7667L28.7091 19.7517L29.2371 19.2237L29.6026 19.5893C29.6497 19.6363 29.7263 19.6368 29.7743 19.5893C29.7816 19.5815 29.7806 19.5709 29.7854 19.5621C29.7913 19.5791 29.7922 19.598 29.8058 19.6116C29.8528 19.6586 29.9294 19.6591 29.9774 19.6116L30.5462 19.0429L30.9345 19.4312C30.9816 19.4783 31.0582 19.4787 31.1062 19.4312C31.1406 19.3968 31.1411 19.3493 31.1256 19.3066C31.1338 19.3018 31.144 19.3032 31.1513 19.296L31.6783 18.7689C31.9445 18.8344 32.2048 18.9129 32.4545 19.0114C36.4948 20.6084 37.4994 25.9631 34.2892 29.0026Z" fill="#222934"/>
<path d="M31.8733 18.8559C31.8258 18.8084 31.7492 18.8084 31.7017 18.8559C31.6541 18.9035 31.6541 18.9801 31.7017 19.0276L32.1729 19.4989C32.22 19.5459 32.2966 19.5464 32.3446 19.4989C32.3921 19.4513 32.3921 19.3747 32.3446 19.3272L31.8733 18.8559Z" fill="#222934"/>
</svg>
