<svg width="60" height="60" viewBox="0 0 60 60" fill="none" xmlns="http://www.w3.org/2000/svg">
<circle cx="30" cy="30" r="30" fill="#222934" fill-opacity="0.08"/>
<path d="M24.0318 18.2878C22.8808 17.8529 21.5416 18.1986 20.4517 19.209C16.731 22.6437 18.0633 28.6844 20.4149 33.385C21.1305 34.8217 25.1101 39.9368 26.329 40.987C27.9707 42.4032 29.5261 43.4636 31.0403 44.2083L31.0263 44.2224C30.9787 44.2699 30.9787 44.3465 31.0263 44.394C31.0738 44.4415 31.1504 44.4415 31.1974 44.394L31.2692 44.3223C34.1089 45.6629 37.5145 46.1046 40.0798 44.4357C41.3239 43.6221 41.9867 42.41 41.8529 41.193C41.6827 39.6566 40.3761 38.442 39.1639 37.4238C36.298 35.0263 35.1319 35.0112 33.0413 36.2612C32.6689 36.4837 32.3169 36.6941 31.9339 36.8406C29.8224 37.6541 24.4726 30.588 25.7976 28.9831C26.0163 28.7189 26.2684 28.4667 26.5128 28.2229C28.3484 26.3877 28.6859 25.2706 27.0204 21.8161C26.3329 20.393 25.4781 18.8294 24.0318 18.2878ZM32.3867 43.2047L33.1373 43.9552L32.7033 44.3892C32.4599 44.3019 32.2151 44.2059 31.9693 44.1012C31.9659 44.0963 31.9669 44.0895 31.9625 44.0852L31.7341 43.8568L32.3867 43.2047ZM32.9559 44.4789L33.3084 44.1264L33.4389 44.2568C33.4864 44.3043 33.563 44.3043 33.6105 44.2568C33.658 44.2093 33.658 44.1327 33.6105 44.0852L33.4801 43.9547L34.0934 43.3414L34.7455 43.9935L34.282 44.457C34.2345 44.5046 34.2345 44.5812 34.282 44.6287C34.3295 44.6762 34.4061 44.6762 34.4536 44.6287L34.9172 44.1652L35.3046 44.5526C35.3521 44.6001 35.4287 44.6001 35.4762 44.5526C35.5237 44.505 35.5237 44.4284 35.4762 44.3809L35.0888 43.9935L35.7016 43.3807L36.1972 43.8762L35.7729 44.3004C35.7254 44.348 35.7254 44.4246 35.7729 44.4721C35.8204 44.5196 35.897 44.5196 35.9446 44.4721L36.3688 44.0478L37.2633 44.9419C35.8219 45.148 34.3799 44.954 32.9559 44.4789ZM36.5385 42.5438C36.5443 42.5594 36.5448 42.5768 36.5574 42.5894L37.0209 43.0529L36.3683 43.7055L35.8728 43.21L36.5385 42.5438ZM26.1705 27.8791C25.9184 28.1307 25.6575 28.3916 25.4243 28.6738C23.7496 30.7004 29.5489 38.2762 32.1079 37.2924C32.5303 37.1305 32.9162 36.8997 33.29 36.6762C34.9249 35.6992 35.8757 35.3026 38.8522 37.7947C39.9921 38.7523 41.2207 39.8874 41.3705 41.2454C41.4839 42.2772 40.9021 43.3177 39.8141 44.0289C39.1557 44.4575 38.3935 44.748 37.5649 44.9017L36.539 43.8762L37.1916 43.2236L37.6677 43.6997L37.1455 44.2219C37.098 44.2694 37.098 44.346 37.1455 44.3935C37.193 44.441 37.2696 44.441 37.3172 44.3935L37.8393 43.8714L38.4192 44.4512C38.4667 44.4987 38.5433 44.4987 38.5909 44.4512C38.6384 44.4037 38.6384 44.3271 38.5909 44.2796L38.011 43.7002L38.9773 42.7339L39.355 43.1116L38.4793 43.9867C38.4318 44.0343 38.4318 44.1109 38.4793 44.1584C38.5031 44.1821 38.5341 44.1938 38.5652 44.1938C38.5962 44.1938 38.6272 44.1821 38.651 44.1584L39.5693 43.2406C39.5906 43.2357 39.6134 43.2323 39.6299 43.2154C39.6469 43.1984 39.6502 43.1761 39.6551 43.1547L40.6578 42.1521C40.7053 42.1046 40.7053 42.028 40.6578 41.9804C40.6103 41.9329 40.5336 41.9329 40.4861 41.9804L39.5261 42.9404L39.1484 42.5627L39.2396 42.4716C39.2871 42.4241 39.2871 42.3475 39.2396 42.3C39.1921 42.2524 39.1155 42.2524 39.0679 42.3L38.9768 42.3911L38.2975 41.7118C38.25 41.6643 38.1734 41.6643 38.1259 41.7118C38.0784 41.7593 38.0784 41.836 38.1259 41.8835L38.1574 41.915L37.1911 42.8813L36.7276 42.4178C36.715 42.4052 36.6975 42.4047 36.682 42.3989L36.9841 42.0968C37.0316 42.0493 37.0316 41.9727 36.9841 41.9252C36.9366 41.8777 36.8599 41.8777 36.8124 41.9252L35.6997 43.0379L35.4718 42.81C35.4243 42.7625 35.3477 42.7625 35.3002 42.81C35.2527 42.8575 35.2527 42.9341 35.3002 42.9817L35.5281 43.2095L34.9167 43.8229L34.2646 43.1707L34.9089 42.5264C34.9564 42.4789 34.9564 42.4023 34.9089 42.3547C34.8614 42.3072 34.7848 42.3072 34.7373 42.3547L34.0929 42.9991L33.9824 42.8886C33.9349 42.841 33.8583 42.841 33.8112 42.8886C33.7637 42.9361 33.7637 43.0127 33.8112 43.0602L33.9218 43.1707L33.3084 43.7841L32.5579 43.0335L33.1082 42.4837C33.1557 42.4362 33.1557 42.3596 33.1082 42.3121C33.0607 42.2646 32.9841 42.2646 32.9366 42.3121L32.3751 42.873C32.3305 42.8522 32.2781 42.8517 32.2413 42.8886C32.2044 42.9254 32.2049 42.9773 32.2258 43.0224L31.562 43.6861L31.1572 43.2813C31.1096 43.2338 31.033 43.2338 30.9855 43.2813C30.938 43.3288 30.938 43.4054 30.9855 43.4529L31.3593 43.8267C29.8495 43.0985 28.2936 42.0425 26.6442 40.6195C25.449 39.5901 21.5484 34.5768 20.8473 33.1688C18.6238 28.7237 17.225 22.8483 20.7795 19.5649C21.6391 18.7678 22.7916 18.3407 23.8597 18.7416H23.8602C25.1387 19.2207 25.9358 20.6888 26.5826 22.026C28.2248 25.4301 27.7579 26.2917 26.1705 27.8791ZM38.8061 42.5627L37.8398 43.529L37.3637 43.0529L38.33 42.0866L38.8061 42.5627Z" fill="black"/>
<path d="M29.7983 21.9789C29.8497 22.102 29.9917 22.1602 30.1154 22.1088L31.2814 21.6201C31.4046 21.5687 31.4632 21.4266 31.4114 21.303C31.36 21.1794 31.2184 21.1217 31.0943 21.1731L29.9282 21.6618C29.8046 21.7132 29.7464 21.8552 29.7983 21.9789Z" fill="black"/>
<path d="M30.4876 17.7781L28.6496 18.9461C28.5366 19.0173 28.5031 19.1676 28.5749 19.2806C28.6462 19.3926 28.796 19.427 28.9094 19.3548L30.7475 18.1868C30.8605 18.1155 30.8939 17.9652 30.8222 17.8522C30.7504 17.7397 30.6006 17.7063 30.4876 17.7781Z" fill="black"/>
<path d="M26.8267 16.9804L27.2267 14.7675C27.2504 14.6361 27.1632 14.5096 27.0313 14.4858C26.897 14.464 26.7734 14.5493 26.7496 14.6812L26.3496 16.8941C26.3258 17.0255 26.4131 17.152 26.545 17.1758C26.6861 17.199 26.8039 17.1059 26.8267 16.9804Z" fill="black"/>
<path d="M39.0046 41.5694L39.1743 41.4002L40.0315 42.2574C40.0791 42.3049 40.1557 42.3049 40.2032 42.2574C40.2507 42.2099 40.2507 42.1333 40.2032 42.0858L39.8754 41.758L40.3511 41.2819L40.5261 41.4569C40.5736 41.5044 40.6502 41.5044 40.6977 41.4569C40.7452 41.4094 40.7452 41.3328 40.6977 41.2853L40.5227 41.1103L40.8102 40.8227C40.8577 40.7752 40.8577 40.6986 40.8102 40.6511C40.7627 40.6036 40.6861 40.6036 40.6386 40.6511L40.3511 40.9386L39.9928 40.5803L40.2444 40.3287C40.2919 40.2812 40.2919 40.2046 40.2444 40.157C40.1969 40.1095 40.1203 40.1095 40.0728 40.157L39.8211 40.4087L39.4754 40.063C39.4279 40.0155 39.3513 40.0155 39.3038 40.063C39.2563 40.1105 39.2563 40.1871 39.3038 40.2346L39.6495 40.5803L39.1738 41.0559L39.0827 40.9648C39.0352 40.9173 38.9586 40.9173 38.9115 40.9648C38.864 41.0123 38.864 41.0889 38.9115 41.1359L39.0022 41.2271L38.8325 41.3968C38.785 41.4443 38.785 41.5209 38.8325 41.5684C38.8805 41.6169 38.9576 41.6169 39.0046 41.5694ZM39.8216 40.7529L40.1799 41.1112L39.7043 41.5873L39.346 41.229L39.8216 40.7529Z" fill="black"/>
<path d="M22.5613 32.3851L22.9977 32.1117C23.0544 32.0763 23.0714 32.0011 23.036 31.9444C23.0006 31.8881 22.9264 31.8717 22.8687 31.9061L22.4275 32.1824C22.1705 31.7926 21.9194 31.3984 21.6789 30.9975L21.9771 30.8889C22.0401 30.8656 22.0726 30.7963 22.0493 30.7332C22.027 30.6707 21.9572 30.6387 21.8941 30.661L21.5533 30.7851C21.3264 30.3987 21.1116 30.006 20.9148 29.6045L21.1528 29.4644C21.2105 29.4304 21.2299 29.3558 21.1955 29.2981C21.1615 29.2399 21.0864 29.221 21.0297 29.2549L20.811 29.3834C20.6418 29.0241 20.4842 28.66 20.3494 28.2857L20.7824 28.0695C20.8425 28.0399 20.8663 27.9667 20.8367 27.9066C20.8071 27.8469 20.7329 27.8237 20.6743 27.8527L20.2733 28.053C20.2074 27.8566 20.1419 27.6598 20.0876 27.4586C20.0251 27.2273 19.9809 26.996 19.9392 26.7647L20.4532 26.7875H20.4585C20.523 26.7875 20.5768 26.7371 20.5797 26.6717C20.5826 26.6047 20.5308 26.5485 20.4638 26.5451L19.8941 26.5199C19.8258 26.0637 19.8044 25.6142 19.8146 25.1735C19.8369 25.1793 20.3009 25.2971 20.3237 25.2971C20.378 25.2971 20.4275 25.2603 20.4415 25.205C20.4575 25.14 20.4183 25.0746 20.3533 25.0581L19.8161 24.9238C19.8398 24.5039 19.9082 24.1005 20.0018 23.7102L20.5089 23.956C20.5666 23.9846 20.6408 23.9618 20.6709 23.9003C20.7 23.8397 20.6748 23.7674 20.6146 23.7383L20.0609 23.4707C20.1487 23.1594 20.252 22.8573 20.3838 22.5747L21.0539 23.028C21.1082 23.0649 21.1843 23.0523 21.2221 22.9955C21.26 22.9403 21.2449 22.8646 21.1897 22.8273L20.5017 22.3618C20.6941 21.9943 20.9157 21.6496 21.1848 21.35C21.2294 21.3005 21.2255 21.2234 21.1756 21.1793C21.1261 21.1347 21.0495 21.139 21.004 21.1885C20.7271 21.4959 20.4988 21.8498 20.3 22.2261L19.724 21.8363C19.6687 21.7989 19.5935 21.813 19.5557 21.8687C19.5179 21.924 19.5329 21.9992 19.5882 22.037L20.1821 22.4389C20.0435 22.7313 19.9315 23.0421 19.8389 23.364L19.4398 23.1706C19.3802 23.14 19.3075 23.1662 19.2779 23.2263C19.2488 23.2869 19.274 23.3592 19.3341 23.3883L19.7797 23.6045C19.6789 24.0108 19.6032 24.4292 19.5756 24.8661L19.2755 24.7909C19.211 24.771 19.1446 24.8142 19.1286 24.8792C19.1126 24.9441 19.1518 25.0096 19.2168 25.0261L19.5737 25.1153C19.5596 25.572 19.5819 26.0384 19.6498 26.5112L19.4757 26.5034C19.3977 26.4966 19.3521 26.5524 19.3492 26.6193C19.3463 26.6862 19.3981 26.7424 19.4651 26.7458L19.69 26.7555C19.7962 27.3669 19.8801 27.6506 20.0537 28.164L19.9562 28.213C19.8961 28.243 19.8718 28.3158 19.9019 28.3754C19.931 28.4346 20.0028 28.4603 20.0643 28.4297L20.1327 28.3958C20.2704 28.7754 20.4299 29.1449 20.6015 29.5085L20.4924 29.5725C20.4348 29.6064 20.4154 29.6811 20.4498 29.7388C20.4837 29.797 20.5584 29.8154 20.6156 29.782L20.7048 29.7296C20.8958 30.1175 21.1034 30.4971 21.3215 30.8709L21.0539 30.9684C20.9909 30.9917 20.9584 31.061 20.9817 31.1235C21.0035 31.1837 21.0699 31.2195 21.1368 31.1963L21.4466 31.0838C21.6958 31.5003 21.9557 31.9095 22.2219 32.3129L21.9814 32.4637C21.9247 32.499 21.9077 32.5742 21.9431 32.6309C21.9775 32.6857 22.0508 32.7056 22.1104 32.6692L22.3557 32.5155C22.5458 32.8011 22.7363 33.0852 22.9274 33.3669C22.9657 33.4232 23.0418 33.4358 23.0956 33.3989C23.1509 33.3616 23.1654 33.2864 23.1281 33.2302C22.939 32.9495 22.7494 32.6683 22.5613 32.3851Z" fill="black"/>
</svg>
