<svg width="20" height="20" viewBox="0 0 20 20" fill="none" xmlns="http://www.w3.org/2000/svg">
<path fill-rule="evenodd" clip-rule="evenodd" d="M14.2812 17.1562H2.90625C2.90625 18.75 4.1875 20 5.75 20H14.25C15.8125 20 17.0938 18.7188 17.0938 17.1562V5.40625C17.0938 5.34375 17.0625 5.3125 17 5.3125H14.375C14.3125 5.3125 14.2812 5.34375 14.2812 5.40625V17.1562ZM14.2812 0C15.8438 0 17.125 1.28125 17.125 2.875H5.75V14.625C5.75 14.6875 5.6875 14.7188 5.65625 14.7188H3C2.9375 14.7188 2.90625 14.6562 2.90625 14.625V2.875C2.90625 1.28125 4.1875 0 5.75 0H14.2812Z" fill="white"/>
</svg>
