<svg width="36" height="36" viewBox="0 0 36 36" fill="none" xmlns="http://www.w3.org/2000/svg">
<circle cx="18" cy="18" r="18" fill="#0D0D04"/>
<path d="M24.75 13.7056C24.2438 13.9303 23.7206 14.0858 23.1637 14.155C23.7375 13.8093 24.1762 13.2563 24.3787 12.5824C23.8387 12.9107 23.2481 13.1354 22.6237 13.2736C22.1175 12.7206 21.3919 12.375 20.5988 12.375C19.0631 12.375 17.8312 13.6538 17.8312 15.2091C17.8312 15.4338 17.8481 15.6411 17.8987 15.8485C15.6037 15.7448 13.5788 14.6043 12.2119 12.8934C11.2331 14.6907 12.33 16.1768 13.0556 16.678C12.6169 16.678 12.1781 16.5397 11.8069 16.3324C11.8069 17.7321 12.7687 18.89 14.0175 19.1492C13.7475 19.2356 13.14 19.2874 12.7687 19.201C13.1231 20.3243 14.1525 21.1538 15.3506 21.1711C14.4056 21.9315 13.0219 22.5363 11.25 22.3462C12.4819 23.1584 13.9331 23.625 15.5025 23.625C20.5988 23.625 23.3662 19.3047 23.3662 15.572C23.3662 15.451 23.3662 15.3301 23.3494 15.2091C23.9231 14.7771 24.3956 14.2759 24.75 13.7056Z" fill="white"/>
</svg>
