<svg width="68" height="80" viewBox="0 0 68 80" fill="none" xmlns="http://www.w3.org/2000/svg">
<g clip-path="url(#clip0_3_1148)">
<path d="M1.73208 70.5995H2.18113H2.63019H3.72075H5.06792H8.01887C8.46792 70.5995 8.91698 70.4077 9.23773 70.0879C9.55849 69.7682 9.75094 69.3205 9.75094 68.8729V65.8673H9.10943C8.72453 65.8673 8.46792 66.1871 8.46792 66.5068V68.8729C8.46792 69.1287 8.27547 69.3206 8.14717 69.3206H5.06792V64.9081H4.29811C3.97736 64.9081 3.72075 65.1639 3.72075 65.4836V65.8673H1.73208C1.28302 65.8673 0.833962 66.0592 0.513207 66.3789C0.192453 66.6987 0 67.1463 0 67.5939V68.8729C0 69.3205 0.192453 69.7682 0.513207 70.0879C0.833962 70.4077 1.28302 70.5995 1.73208 70.5995ZM1.34717 67.5939C1.34717 67.3381 1.53962 67.1463 1.79623 67.1463H3.78491V69.2566H2.69434H2.24528H1.73208C1.60377 69.2566 1.53962 69.1927 1.41132 69.1287C1.34717 69.0648 1.28302 68.9369 1.28302 68.809V67.5939H1.34717Z" fill="#73308A"/>
<path d="M16.3585 67.5939C16.3585 67.1463 16.1661 66.6986 15.8453 66.3789C15.5246 66.0592 15.0755 65.8673 14.6264 65.8673H11.4189V66.5068C11.4189 66.8905 11.7397 67.2102 12.1246 67.2102H14.6906C14.8189 67.2102 14.9472 67.2742 15.0114 67.3381C15.0755 67.4021 15.1397 67.53 15.1397 67.6579V68.1055V69.3845H11.7397C11.3547 69.3845 11.0981 69.6403 11.0981 70.024V70.7274H16.4868V70.4716L16.3585 67.5939Z" fill="#73308A"/>
<path d="M51.5775 67.53C51.5775 67.4021 51.6416 67.2742 51.7058 67.2102C51.7699 67.1463 51.8982 67.0823 52.0265 67.0823H52.668V68.8729C52.668 69.3205 52.8605 69.7682 53.1812 70.0879C53.502 70.4077 53.951 70.5995 54.4001 70.5995H55.6831C56.1322 70.5995 56.5812 70.4077 56.902 70.0879C57.2227 69.7682 57.4152 69.3205 57.4152 68.8729V67.53C57.4152 67.0823 57.2227 66.6347 56.902 66.3149C56.5812 65.9952 56.1322 65.8033 55.6831 65.8033H52.0265C51.5775 65.8033 51.1284 65.9952 50.8076 66.3149C50.4869 66.6347 50.2944 67.0823 50.2944 67.53V71.7506H50.9359C51.3208 71.7506 51.5775 71.4308 51.5775 71.1111V67.53ZM53.951 67.0823H55.619C55.7473 67.0823 55.8114 67.1463 55.9397 67.2102C56.0039 67.2742 56.068 67.4021 56.068 67.53V68.8729C56.068 69.1287 55.8756 69.3205 55.619 69.3205H54.3359C54.2076 69.3205 54.1435 69.2566 54.0152 69.1926C53.951 69.1287 53.8869 69.0008 53.8869 68.8729V67.0823H53.951Z" fill="#73308A"/>
<path d="M21.8115 72.454C22.1323 72.1343 22.3247 71.6866 22.3247 71.239V70.5995H42.7889C43.2379 70.5995 43.687 70.4077 44.0077 70.0879C44.3285 69.7682 44.5209 69.3205 44.5209 68.8729V62.8617H43.8794C43.4945 62.8617 43.2379 63.1814 43.2379 63.5012V68.8729C43.2379 69.1287 43.0455 69.3205 42.7889 69.3205H39.7738V65.4196H39.0681C38.7474 65.4196 38.4908 65.6754 38.4908 65.9952V69.3205H37.2077V66.0591H35.8606V69.3205H34.2568V66.0591H33.6153C33.2304 66.0591 32.9096 66.3789 32.9096 66.7626V69.3205H26.687V67.6579C26.687 67.53 26.7511 67.466 26.8153 67.3381C26.8794 67.2742 27.0077 67.2102 27.136 67.2102H29.4455C29.8945 67.2102 30.2153 66.8905 30.2153 66.4428V65.8673H27.136C26.687 65.8673 26.2379 66.0591 25.9172 66.3789C25.5964 66.6986 25.404 67.1463 25.404 67.5939V69.2566H22.3247V67.5939C22.3247 67.1463 22.1323 66.6986 21.8115 66.3789C21.4908 66.0591 21.0417 65.8673 20.5926 65.8673H19.2455C18.7964 65.8673 18.3474 66.0591 18.0266 66.3789C17.7058 66.6986 17.5134 67.1463 17.5134 67.5939V68.8729C17.5134 69.3205 17.7058 69.7682 18.0266 70.0879C18.3474 70.4077 18.7964 70.5995 19.2455 70.5995H21.0417V71.239C21.0417 71.3669 20.9775 71.4308 20.9134 71.5587C20.8492 71.6227 20.7209 71.6866 20.5926 71.6866H17.5775C17.1926 71.6866 16.936 72.0064 16.936 72.3261V72.9656H20.5926C21.1058 72.9656 21.5549 72.7738 21.8115 72.454ZM19.2455 69.3205C19.1172 69.3205 19.053 69.2566 18.9247 69.1926C18.8606 69.1287 18.7964 69.0008 18.7964 68.8729V67.5939C18.7964 67.3381 18.9889 67.1463 19.2455 67.1463H20.5926C20.7209 67.1463 20.8492 67.2102 20.9134 67.2742C20.9775 67.3381 21.0417 67.466 21.0417 67.5939V69.2566H19.2455V69.3205Z" fill="#73308A"/>
<path d="M47.0867 62.6699H46.5735C46.1245 62.6699 45.8037 63.0536 45.8037 63.4373V70.5996H47.1509V62.6699H47.0867Z" fill="#73308A"/>
<path d="M63.0604 69.3205V67.6579C63.0604 67.53 63.1246 67.466 63.1887 67.3381C63.2529 67.2742 63.3812 67.2102 63.5095 67.2102H66.3963V65.8673H63.5095C63.0604 65.8673 62.6114 66.0592 62.2906 66.3789C61.9699 66.6986 61.7774 67.1463 61.7774 67.5939V69.2566H59.7887V65.8673H58.4415V71.239C58.4415 71.3669 58.3774 71.4309 58.3132 71.5588C58.2491 71.6227 58.1208 71.6867 57.9925 71.6867H56.7095V73.0296H57.9925C58.4415 73.0296 58.8906 72.8377 59.2114 72.518C59.5321 72.1982 59.7246 71.7506 59.7246 71.303V70.6635H67.7434V69.3205H63.0604Z" fill="#73308A"/>
<path d="M4.94965 70.8892L3.99707 71.8387L4.94965 72.7883L5.90224 71.8387L4.94965 70.8892Z" fill="#73308A"/>
<path d="M6.93793 70.8883L5.98535 71.8379L6.93793 72.7875L7.89052 71.8379L6.93793 70.8883Z" fill="#73308A"/>
<path d="M3.24213 62.8319L2.28955 63.7815L3.24214 64.7311L4.19472 63.7815L3.24213 62.8319Z" fill="#73308A"/>
<path d="M5.22944 62.8324L4.27686 63.782L5.22944 64.7316L6.18203 63.782L5.22944 62.8324Z" fill="#73308A"/>
<path d="M59.0063 63.2416L58.0537 64.1912L59.0063 65.1407L59.9589 64.1912L59.0063 63.2416Z" fill="#73308A"/>
<path d="M4.74698 76.8025H1.79604H1.53944C1.21868 76.8025 0.962078 76.5467 0.962078 76.227V76.0991C0.962078 75.7154 1.21868 75.4596 1.60359 75.4596H4.23378C4.61868 75.4596 4.87529 75.7154 4.87529 76.0991V76.1631H5.7734V76.0991C5.7734 75.2678 5.06774 74.5643 4.23378 74.5643H1.60359C0.769625 74.5643 0.0639648 75.2678 0.0639648 76.0991V76.227C0.0639648 77.0583 0.705474 77.6978 1.53944 77.6978H1.79604H4.74698C4.93944 77.6978 5.13189 77.8897 5.13189 78.0815V78.4652C5.13189 78.785 4.87529 79.0408 4.55453 79.0408H1.53944C1.21868 79.0408 0.962078 78.785 0.962078 78.4652V78.3373H0.0639648V78.4652C0.0639648 79.2965 0.705474 79.936 1.53944 79.936H4.61868C5.45264 79.936 6.09415 79.2965 6.09415 78.4652V78.0815C6.09415 77.3781 5.45264 76.8025 4.74698 76.8025Z" fill="#73308A"/>
<path d="M22.3888 74.948V78.4652C22.3888 78.7849 22.1322 79.1047 21.7473 79.1047H18.668C18.3473 79.1047 18.0265 78.8489 18.0265 78.4652V75.0759C18.0265 74.8201 17.8341 74.6283 17.5775 74.6283H17.1284V78.5292C17.1284 79.3605 17.8341 80.0639 18.668 80.0639H21.7473C22.5812 80.0639 23.2869 79.3605 23.2869 78.5292V74.6283H22.7096C22.5171 74.5643 22.3888 74.7562 22.3888 74.948Z" fill="#73308A"/>
<path d="M29.9585 74.5643H25.917V79.936H29.9585C31.1132 79.936 32.0113 78.9768 32.0113 77.8897V76.6107C32.0113 75.5236 31.0491 74.5643 29.9585 74.5643ZM31.1132 77.8897C31.1132 78.5292 30.6 79.0408 29.9585 79.0408H26.8151V75.4596H29.9585C30.6 75.4596 31.1132 75.9712 31.1132 76.6107V77.8897Z" fill="#73308A"/>
<path d="M34.5771 74.948V79.936H35.0904C35.2828 79.936 35.4753 79.7442 35.4753 79.5523V74.5643H34.9621C34.7054 74.5643 34.5771 74.7562 34.5771 74.948Z" fill="#73308A"/>
<path d="M11.9961 74.6283H11.0339L7.95463 79.5524C7.82633 79.7442 7.95463 80 8.21123 80H8.72444L9.62256 78.5292H13.4075L14.3056 80H15.0112C15.2037 80 15.2678 79.8082 15.2037 79.6803L11.9961 74.6283ZM10.1358 77.6978L11.4829 75.5236L12.8301 77.6978H10.1358Z" fill="#73308A"/>
<path d="M46.1246 74.6283H45.1623L42.083 79.5524C41.9547 79.7442 42.083 79.936 42.3397 79.936H42.917L43.8151 78.4652H47.4717L48.3698 79.936H48.9472C49.1397 79.936 49.268 79.6803 49.1397 79.5524L46.1246 74.6283ZM44.2642 77.6978L45.6114 75.5236L46.9585 77.6978H44.2642Z" fill="#73308A"/>
<path d="M56.8377 79.1047H52.9887L57.2226 75.3957V74.5643H51.5773V75.012C51.5773 75.2678 51.7698 75.4596 52.0264 75.4596H55.8113L51.5132 79.1687V80H57.2868V79.5523C57.2868 79.2965 57.0943 79.1047 56.8377 79.1047Z" fill="#73308A"/>
<path d="M64.0228 79.1047L61.3926 74.5643H60.3662V79.936H60.8153C61.0719 79.936 61.2643 79.7442 61.2643 79.4884V76.1631L63.4455 79.936H64.536L66.7172 76.1631V79.4884C66.7172 79.7442 66.9096 79.936 67.1662 79.936H67.6153V74.5643H66.5889L64.0228 79.1047Z" fill="#73308A"/>
<path d="M51.8982 43.5492H38.8756V33.7011C38.8756 33.5092 38.8756 33.3174 38.8114 33.1255C38.619 32.4221 38.1058 31.9105 37.4001 31.5908L36.7586 31.335H46.2529V34.5964C46.2529 35.6196 47.0869 36.5148 48.1775 36.5148H51.1284V31.335C51.1284 28.7131 48.9473 26.5388 46.3171 26.5388H34.0001V43.5492H28.7397V36.5148H26.8152C25.2114 36.5148 23.9284 37.7938 23.8643 39.3925C23.8643 39.3925 23.8643 39.3925 23.8643 39.4565V60.8793C26.8152 60.6875 28.7397 58.7051 28.7397 55.6355V48.4093H54.0793V45.7235C54.0793 44.5084 53.1171 43.5492 51.8982 43.5492Z" fill="#002D74"/>
<path d="M41.1848 0C39.132 0 37.2716 1.34293 36.6943 3.26139L36.5659 3.58113H27.649C25.2754 3.58113 23.415 5.4996 23.415 7.80176V16.6906H13.6641V48.2174H13.9207C16.4867 48.2174 18.5395 46.1711 18.5395 43.6131V24.1727C18.5395 24.0448 18.5395 23.9169 18.4754 23.789C18.3471 22.8297 17.5131 22.0623 16.5509 21.8065L16.0376 21.6147H36.5659C39.1961 21.6147 41.3131 19.5044 41.3131 16.8825V0H41.1848ZM36.4376 16.6906H28.2905V10.7434C28.2905 9.97602 27.8414 9.27258 27.1999 8.95284L26.1735 8.44125H36.4376V16.6906Z" fill="#002D74"/>
<path d="M23.9282 26.5388V32.1024L24.0565 31.9745C24.3773 31.5908 24.8905 31.335 25.4037 31.335H27.0716H28.8037V26.4749H23.9282V26.5388Z" fill="#73308A"/>
</g>
<defs>
<clipPath id="clip0_3_1148">
<rect width="68" height="80" fill="white"/>
</clipPath>
</defs>
</svg>
