<svg width="155" height="44" viewBox="0 0 155 44" fill="none" xmlns="http://www.w3.org/2000/svg">
<g clip-path="url(#clip0_3_1192)">
<path d="M55.9457 28.3654C58.4764 28.3654 60.6635 27.0477 61.7743 25.0368L58.3962 23.1003C57.984 24.0055 57.0278 24.5498 55.8942 24.5498C54.2224 24.5498 52.9799 23.3352 52.9799 21.5534C52.9799 19.7774 54.2224 18.5628 55.8942 18.5628C57.0278 18.5628 57.9611 19.1071 58.3962 20.0066L61.7743 18.0472C60.6635 16.0592 58.4478 14.7472 55.9457 14.7472C52.0295 14.7472 49.1152 17.7092 49.1152 21.5534C49.1152 25.3977 52.0295 28.3654 55.9457 28.3654Z" fill="#282829"/>
<path d="M69.7145 14.7471C68.014 14.7471 66.7258 15.3659 66.0273 16.3169V9.94611H62.1626V28.0044H66.0273V20.9633C66.0273 19.13 67.0063 18.305 68.4263 18.305C69.663 18.305 70.6707 19.0555 70.6707 20.6539V28.0044H74.5353V20.0867C74.5353 16.6034 72.3196 14.7471 69.7145 14.7471Z" fill="#282829"/>
<path d="M82.0873 28.3654C85.8776 28.3654 88.9235 25.3977 88.9235 21.5534C88.9235 17.7092 85.8776 14.7472 82.0873 14.7472C78.2971 14.7472 75.2568 17.7092 75.2568 21.5534C75.2568 25.3977 78.2971 28.3654 82.0873 28.3654ZM82.0873 24.6014C80.4155 24.6014 79.1215 23.3868 79.1215 21.5534C79.1215 19.7258 80.4155 18.5113 82.0873 18.5113C83.7649 18.5113 85.0531 19.7258 85.0531 21.5534C85.0531 23.3868 83.7649 24.6014 82.0873 24.6014Z" fill="#282829"/>
<path d="M97.5317 14.7472C95.8026 14.7472 94.543 15.3373 93.6899 16.317V15.1081H89.8252V33.1665H93.6899V26.7899C94.543 27.7696 95.8026 28.3654 97.5317 28.3654C100.91 28.3654 103.692 25.3977 103.692 21.5534C103.692 17.7092 100.91 14.7472 97.5317 14.7472ZM96.7587 24.7045C94.9781 24.7045 93.6899 23.4899 93.6899 21.5534C93.6899 19.6227 94.9781 18.4081 96.7587 18.4081C98.5394 18.4081 99.8276 19.6227 99.8276 21.5534C99.8276 23.4899 98.5394 24.7045 96.7587 24.7045Z" fill="#282829"/>
<path d="M110.781 28.3654C113.311 28.3654 115.498 27.0477 116.609 25.0368L113.231 23.1003C112.819 24.0055 111.863 24.5498 110.729 24.5498C109.057 24.5498 107.815 23.3352 107.815 21.5534C107.815 19.7774 109.057 18.5628 110.729 18.5628C111.863 18.5628 112.796 19.1071 113.231 20.0066L116.609 18.0472C115.498 16.0592 113.283 14.7472 110.781 14.7472C106.864 14.7472 103.95 17.7092 103.95 21.5534C103.95 25.3977 106.864 28.3654 110.781 28.3654Z" fill="#282829"/>
<path d="M126.353 15.1081V16.317C125.506 15.3373 124.24 14.7472 122.511 14.7472C119.133 14.7472 116.351 17.7092 116.351 21.5534C116.351 25.3977 119.133 28.3654 122.511 28.3654C124.24 28.3654 125.506 27.7696 126.353 26.7899V28.0045H130.223V15.1081H126.353ZM123.284 24.7045C121.509 24.7045 120.215 23.4899 120.215 21.5534C120.215 19.6227 121.509 18.4081 123.284 18.4081C125.065 18.4081 126.353 19.6227 126.353 21.5534C126.353 23.4899 125.065 24.7045 123.284 24.7045Z" fill="#282829"/>
<path d="M135.428 18.8722C135.428 18.4081 135.841 18.1503 136.511 18.1503C137.364 18.1503 137.879 18.6144 138.24 19.2847L141.538 17.5029C140.455 15.6753 138.6 14.7472 136.511 14.7472C133.831 14.7472 131.461 16.1623 131.461 18.9753C131.461 23.4383 137.799 22.6878 137.799 24.1086C137.799 24.6243 137.335 24.9107 136.407 24.9107C135.274 24.9107 134.552 24.3665 134.215 23.3868L130.865 25.2946C131.873 27.3857 133.831 28.3654 136.407 28.3654C139.19 28.3654 141.772 27.0993 141.772 24.1373C141.772 19.3649 135.428 20.3446 135.428 18.8722Z" fill="#282829"/>
<path d="M150.098 18.8206V15.1081H147.441V11.493L143.576 12.656V15.1081H141.515V18.8206H143.576V23.3867C143.576 26.9961 145.042 28.5201 150.098 28.0044V24.4982C148.397 24.6013 147.441 24.4982 147.441 23.3867V18.8206H150.098Z" fill="#282829"/>
<path d="M16.6729 19.1296L16.5298 23.226C16.5126 23.3921 16.5527 23.5182 16.6386 23.5755C16.7244 23.6328 16.8561 23.627 17.005 23.5468L20.8067 21.9369C21.1102 21.7822 21.1159 21.4843 20.8239 21.2838L17.2684 18.8718C16.9764 18.677 16.7073 18.7859 16.6729 19.1296Z" fill="#282829"/>
<path d="M42.6437 42.8942H5.62283C4.09985 42.8942 2.85742 41.651 2.85742 40.127V3.08225C2.85742 1.55829 4.09985 0.315063 5.62283 0.315063H42.6437C44.1667 0.315063 45.4091 1.55829 45.4091 3.08225V40.127C45.4091 41.651 44.1667 42.8942 42.6437 42.8942Z" fill="#FBD458"/>
<path d="M14.2224 26.1593L20.1082 24.8588C20.3544 24.8187 20.509 24.7156 20.5548 24.5781C20.6006 24.4406 20.5376 24.2687 20.3544 24.0911L16.3752 19.4963C16.0259 19.1468 15.5965 19.2442 15.4476 19.714L13.5926 25.4374C13.4437 25.9072 13.7186 26.2338 14.2224 26.1593Z" fill="#282829"/>
<path d="M22.0606 28.0671L21.9805 24.8817L28.4044 26.3197L22.0606 28.0671Z" fill="#282829"/>
<mask id="mask0_3_1192" style="mask-type:alpha" maskUnits="userSpaceOnUse" x="20" y="23" width="211" height="45">
<path d="M230.485 23.4666H20.5205V67.4666H230.485V23.4666Z" fill="black" fill-opacity="0.8784"/>
</mask>
<g mask="url(#mask0_3_1192)">
</g>
<path d="M21.0071 20.4244L19.7646 17.4968L26.2631 16.4656L21.0071 20.4244Z" fill="#282829"/>
<mask id="mask1_3_1192" style="mask-type:alpha" maskUnits="userSpaceOnUse" x="19" y="14" width="211" height="45">
<path d="M229.019 14.6666H19.0547V58.6666H229.019V14.6666Z" fill="black" fill-opacity="0.8784"/>
</mask>
<g mask="url(#mask1_3_1192)">
</g>
<path d="M28.662 15.8067C26.0855 16.1218 23.509 16.4541 20.9268 16.8322C20.5432 16.8895 20.1138 16.9354 19.9249 17.3135C19.7016 17.7718 19.776 18.4822 19.7359 18.9807C19.6443 20.2984 19.5814 21.6104 19.5413 22.9223C19.4497 25.8385 19.4783 28.7546 19.6157 31.6708C19.6214 31.7854 19.6844 31.8541 19.7989 31.8713C19.9192 31.8885 19.9936 31.8427 20.0394 31.7338C20.0508 31.7395 20.068 31.7395 20.0852 31.7453C25.2782 31.6937 30.454 31.3958 35.6241 30.8458C36.941 30.7025 38.2636 30.5479 39.5747 30.3703C40.1759 30.2958 40.7713 30.2041 41.3725 30.1296C41.8134 30.0609 42.3401 30.0552 42.6894 29.7572C43.0501 29.4593 43.0959 28.9838 43.1818 28.5541C43.302 27.8895 43.4222 27.2249 43.5253 26.5546C43.7142 25.3286 43.8917 24.1025 44.0291 22.8708C44.3498 20.0578 44.5272 17.2275 44.5673 14.3916C44.5616 14.2484 44.4872 14.1739 44.3383 14.1796C39.1167 14.615 33.8893 15.1536 28.662 15.8067Z" fill="#FBD458"/>
<mask id="mask2_3_1192" style="mask-type:alpha" maskUnits="userSpaceOnUse" x="17" y="13" width="211" height="45">
<path d="M227.553 13.2H17.5889V57.2H227.553V13.2Z" fill="black" fill-opacity="0.8784"/>
</mask>
<g mask="url(#mask2_3_1192)">
</g>
<path d="M18.4711 20.8369L16.3984 15.95L27.231 14.2369L18.4711 20.8369Z" fill="white"/>
<mask id="mask3_3_1192" style="mask-type:alpha" maskUnits="userSpaceOnUse" x="16" y="10" width="211" height="45">
<path d="M226.088 10.2666H16.1235V54.2666H226.088V10.2666Z" fill="black" fill-opacity="0.8784"/>
</mask>
<g mask="url(#mask3_3_1192)">
</g>
<path d="M19.776 23.5239L19.6958 20.3442L27.179 21.7479L19.776 23.5239Z" fill="#FBD458"/>
<mask id="mask4_3_1192" style="mask-type:alpha" maskUnits="userSpaceOnUse" x="19" y="19" width="211" height="45">
<path d="M229.019 19.0667H19.0547V63.0667H229.019V19.0667Z" fill="black" fill-opacity="0.8784"/>
</mask>
<g mask="url(#mask4_3_1192)">
</g>
<path d="M19.7823 22.8651L19.2097 19.8859C19.1926 19.7599 19.1468 19.6912 19.0952 19.6797C19.038 19.6625 18.9693 19.7141 18.9006 19.8229L17.1142 22.2865C16.9768 22.4984 17.0226 22.7104 17.2116 22.7505L19.5017 23.249C19.6907 23.2891 19.8166 23.1172 19.7823 22.8651Z" fill="black"/>
<mask id="mask5_3_1192" style="mask-type:alpha" maskUnits="userSpaceOnUse" x="16" y="19" width="211" height="45">
<path d="M226.088 19.0667H16.1235V63.0667H226.088V19.0667Z" fill="black" fill-opacity="0.8784"/>
</mask>
<g mask="url(#mask5_3_1192)">
</g>
<path d="M18.1961 20.499L18.156 24.7156C18.1446 24.8932 18.1904 25.0193 18.2877 25.0823C18.3793 25.1453 18.511 25.1453 18.6713 25.0651L22.6276 23.5068C22.9368 23.3521 22.9368 23.0484 22.6219 22.8365L18.8202 20.2583C18.511 20.0464 18.2305 20.1495 18.1961 20.499Z" fill="black"/>
<mask id="mask6_3_1192" style="mask-type:alpha" maskUnits="userSpaceOnUse" x="16" y="19" width="211" height="45">
<path d="M226.088 19.0667H16.1235V63.0667H226.088V19.0667Z" fill="black" fill-opacity="0.8784"/>
</mask>
<g mask="url(#mask6_3_1192)">
</g>
<path d="M20.2628 26.4515L20.1826 23.2719L26.6009 24.7041L20.2628 26.4515Z" fill="#282829"/>
<path d="M19.2092 18.8088L17.9668 15.8812L24.4595 14.85L19.2092 18.8088Z" fill="#282829"/>
<path fill-rule="evenodd" clip-rule="evenodd" d="M15.8084 19.1926C17.8753 18.9749 19.9308 20.3213 20.4003 22.1947C20.864 24.0739 18.8601 25.7812 16.7932 25.9989C14.7263 26.2166 13.3751 24.8588 12.9114 22.9854C12.4419 21.1062 13.7415 19.4104 15.8084 19.1926Z" fill="#282829"/>
<path d="M25.0664 13.6297C22.6159 14.489 20.1654 15.3599 17.7264 16.2823C17.3656 16.4198 16.9534 16.5573 16.8504 16.9698C16.7301 17.4625 16.9534 18.1443 17.0221 18.637C17.2111 19.9375 17.4229 21.238 17.6634 22.5271C18.1958 25.3917 18.8428 28.239 19.5986 31.0578C19.6329 31.1724 19.7074 31.2239 19.8219 31.2182C19.9421 31.2125 20.0108 31.1495 20.028 31.0349C20.0452 31.0349 20.0566 31.0349 20.0738 31.0292C25.1351 29.8776 30.1335 28.4797 35.0631 26.8411C36.3227 26.4229 37.5823 25.9932 38.8247 25.5406C39.3973 25.3344 39.9584 25.1224 40.5309 24.9161C40.9431 24.7557 41.4584 24.6411 41.739 24.2745C42.0253 23.9078 41.968 23.4265 41.9623 22.9911C41.9394 22.3151 41.9165 21.6448 41.8707 20.963C41.802 19.7312 41.7046 18.488 41.5787 17.262C41.2924 14.4375 40.8687 11.6417 40.3019 8.86301C40.2675 8.71978 40.1817 8.66821 40.0385 8.70259C35.023 10.238 30.0304 11.8823 25.0664 13.6297Z" fill="#282829"/>
<path d="M38.7106 15.6062L36.3288 16.1963C36.1341 16.2479 35.9337 16.139 35.8879 15.95L34.7714 11.464C34.7256 11.2807 34.8459 11.0859 35.0463 11.0401L37.4281 10.4442C37.6227 10.3984 37.8231 10.5073 37.8689 10.6906L38.9854 15.1823C39.0312 15.3656 38.911 15.5547 38.7106 15.6062Z" fill="#FBD458"/>
<path d="M33.3914 16.8838L31.7997 17.2791C31.6737 17.3078 31.5363 17.2161 31.4963 17.0672L30.6031 13.4807C30.5687 13.3317 30.6432 13.1828 30.7748 13.1484L32.3608 12.7531C32.4925 12.7244 32.6299 12.8161 32.67 12.9651L33.5631 16.5515C33.5975 16.7005 33.5231 16.8494 33.3914 16.8838Z" fill="#FBD458"/>
<path d="M27.5913 14.0078C25.0148 14.3286 22.4326 14.6552 19.8562 15.039C19.4726 15.0906 19.0432 15.1422 18.8542 15.5203C18.6309 15.9786 18.7054 16.689 18.6653 17.1875C18.5737 18.4995 18.5107 19.8114 18.4706 21.1291C18.379 24.0396 18.4019 26.9557 18.5451 29.8776C18.5508 29.9922 18.6138 30.0609 18.7283 30.0781C18.8428 30.0953 18.9229 30.0495 18.9687 29.9406C18.9802 29.9463 18.9974 29.9463 19.0088 29.9463C24.2018 29.8948 29.3834 29.5969 34.5535 29.0526C35.8703 28.9094 37.1929 28.7547 38.5041 28.5771C39.1052 28.4969 39.7007 28.4109 40.3018 28.3307C40.7427 28.2677 41.2637 28.262 41.6187 27.964C41.9794 27.6661 42.0252 27.1849 42.1054 26.7552C42.2313 26.0963 42.3516 25.4318 42.4546 24.7557C42.6436 23.5354 42.8153 22.3036 42.9585 21.0776C43.2791 18.2588 43.4566 15.4344 43.4967 12.5984C43.4909 12.4495 43.4165 12.3807 43.2676 12.3864C38.046 12.8219 32.8187 13.3604 27.5913 14.0078Z" fill="#282829"/>
<path d="M16.4896 33.1718L23.3315 31.7223C23.6235 31.6822 23.801 31.5619 23.8525 31.4015C23.9041 31.2468 23.8296 31.0463 23.6178 30.84L18.9515 25.5577C18.5393 25.1567 18.0469 25.2656 17.8751 25.7984L15.7567 32.3411C15.5849 32.8796 15.9113 33.252 16.4896 33.1718Z" fill="#FBD458"/>
<path d="M16.6732 19.2213L14.6006 14.3344L25.4275 12.6213L16.6732 19.2213Z" fill="#FBD458"/>
<path d="M23.7096 14.4202L17.2055 11.8479C16.9421 11.7218 16.7245 11.7218 16.5986 11.8249C16.4669 11.9281 16.4154 12.1343 16.4841 12.4265L17.4517 19.4046C17.5719 19.9718 18.0414 20.1551 18.4823 19.7999L23.8585 15.5202C24.2993 15.1708 24.2364 14.6781 23.7096 14.4202Z" fill="#282829"/>
<path d="M17.9727 21.9083L17.8926 18.7286L25.3758 20.1322L17.9727 21.9083Z" fill="#282829"/>
<path d="M18.2933 21.1119L17.5662 18.2989C17.5433 18.1729 17.4974 18.1041 17.4345 18.0927C17.3715 18.0812 17.3028 18.1213 17.2284 18.2244L15.3618 20.476C15.2244 20.6708 15.276 20.8713 15.4821 20.9171L18.0013 21.4671C18.2074 21.513 18.3391 21.3525 18.2933 21.1119Z" fill="#282829"/>
<path d="M15.5283 21.7651C15.385 21.7995 15.2762 21.8797 15.2017 22.0057C15.1272 22.1318 15.1043 22.2693 15.1387 22.4125C15.1788 22.55 15.259 22.6588 15.385 22.739C15.5111 22.8135 15.6428 22.8307 15.7861 22.7963C15.9293 22.762 16.0382 22.6818 16.1126 22.5557C16.1871 22.4297 16.21 22.2922 16.1757 22.1547C16.1413 22.0114 16.0553 21.9026 15.9293 21.8224C15.8033 21.7479 15.6715 21.7307 15.5283 21.7651Z" fill="#FBD458"/>
<path d="M9.06943 14.1052C8.38238 14.277 7.7583 14.5692 7.19148 14.9875C6.62466 15.4114 6.16089 15.9213 5.79446 16.5286C5.43376 17.1302 5.19901 17.7833 5.09595 18.4822C4.9929 19.1812 5.02152 19.8687 5.19329 20.5562C5.36505 21.238 5.66278 21.8682 6.08074 22.4354C6.4987 23.0026 7.01399 23.4666 7.61516 23.8333C8.22206 24.1942 8.86904 24.4291 9.56755 24.5322C10.2661 24.6354 10.9588 24.601 11.6402 24.4349C12.3272 24.263 12.9513 23.9651 13.5181 23.5468C14.0849 23.1286 14.5544 22.613 14.9151 22.0114C15.2758 21.4041 15.5106 20.751 15.6136 20.052C15.7224 19.3588 15.6881 18.6656 15.5163 17.9781C15.3446 17.2963 15.0526 16.6718 14.6289 16.1046C14.2109 15.5375 13.7013 15.0677 13.0944 14.7067C12.4933 14.3401 11.8406 14.1109 11.1421 14.002C10.4435 13.8989 9.75076 13.9333 9.06943 14.1052ZM10.9073 21.4843C10.6153 21.5531 10.3176 21.5703 10.0199 21.5244C9.72214 21.4786 9.44159 21.3812 9.18394 21.2208C8.92057 21.0661 8.703 20.8656 8.52551 20.625C8.3423 20.3843 8.21634 20.1151 8.14191 19.8229C8.0732 19.525 8.05603 19.2328 8.10183 18.9291C8.14763 18.6312 8.24497 18.3505 8.39955 18.0927C8.55987 17.8349 8.75453 17.6171 9.00073 17.4338C9.2412 17.2562 9.51029 17.1302 9.80229 17.0557C10.1 16.9812 10.392 16.9697 10.6897 17.0099C10.9932 17.0557 11.268 17.1588 11.5314 17.3135C11.789 17.4682 12.0066 17.6687 12.1898 17.9093C12.3673 18.1557 12.4933 18.425 12.5677 18.7171C12.6421 19.0093 12.6536 19.3072 12.6078 19.6052C12.5677 19.9031 12.4646 20.1838 12.3101 20.4416C12.1555 20.7052 11.9551 20.9229 11.7089 21.1005C11.4684 21.2838 11.1993 21.4099 10.9073 21.4843Z" fill="#282829"/>
<path d="M11.4226 23.5526C10.7412 23.7244 10.1114 24.0224 9.54461 24.4406C8.97779 24.8588 8.51402 25.3744 8.15332 25.976C7.78689 26.5833 7.55214 27.2364 7.44908 27.9296C7.34603 28.6286 7.38038 29.3218 7.55214 30.0093C7.71818 30.6911 8.01591 31.3156 8.43386 31.8828C8.85182 32.45 9.36712 32.9197 9.96829 33.2807C10.5752 33.6474 11.2279 33.8765 11.9264 33.9854C12.6192 34.0885 13.312 34.0541 13.999 33.8822C14.6804 33.7104 15.3102 33.4182 15.877 33C16.4438 32.576 16.9076 32.0661 17.2683 31.4588C17.6347 30.8572 17.8694 30.2041 17.9725 29.5052C18.0756 28.8062 18.0412 28.1187 17.8694 27.4312C17.7034 26.7494 17.4057 26.1192 16.9877 25.552C16.564 24.9849 16.0545 24.5208 15.4476 24.1541C14.8464 23.7932 14.1937 23.5583 13.4952 23.4552C12.7967 23.352 12.1096 23.3864 11.4226 23.5526ZM13.2604 30.9317C12.9684 31.0062 12.6707 31.0177 12.373 30.9776C12.0753 30.9317 11.7947 30.8286 11.5371 30.6739C11.2794 30.5192 11.0561 30.3187 10.8786 30.0781C10.6954 29.8317 10.5695 29.5625 10.5008 29.2703C10.4263 28.9781 10.4092 28.6802 10.455 28.3822C10.5008 28.0843 10.5981 27.8036 10.7584 27.5458C10.913 27.2822 11.1134 27.0645 11.3539 26.8869C11.6001 26.7036 11.8634 26.5776 12.1611 26.5031C12.4531 26.4343 12.7509 26.4171 13.0486 26.463C13.3463 26.5088 13.6269 26.6062 13.8845 26.7666C14.1422 26.9213 14.3655 27.1218 14.5429 27.3625C14.7204 27.6031 14.8521 27.8724 14.9208 28.1645C14.9953 28.4625 15.0124 28.7546 14.9666 29.0583C14.9208 29.3562 14.8178 29.6369 14.6632 29.8947C14.5086 30.1526 14.3082 30.3703 14.0677 30.5536C13.8215 30.7312 13.5582 30.8572 13.2604 30.9317Z" fill="#282829"/>
</g>
<defs>
<clipPath id="clip0_3_1192">
<rect width="155" height="44" fill="white"/>
</clipPath>
</defs>
</svg>
