<svg width="156" height="24" viewBox="0 0 156 24" fill="none" xmlns="http://www.w3.org/2000/svg">
<g clip-path="url(#clip0_3_1175)">
<path d="M25.0857 0V20.5284H10.8031V10.3686H14.4041V6.843H7.20215V24H28.6867V0H25.0857Z" fill="#181818"/>
<path d="M18.0049 0H0V23.9712H3.60099V3.49501H18.0049V13.7592H14.3429V17.196H21.6034V0H18.0049Z" fill="#181818"/>
<path d="M48.4647 3.46621C49.2952 3.44339 50.122 3.57894 50.8969 3.86495C51.6717 4.15095 52.379 4.58165 52.9773 5.13182C54.1366 6.2404 54.7878 7.7427 54.7878 9.309C54.7878 10.8753 54.1366 12.3776 52.9773 13.4862C52.379 14.0364 51.6717 14.4671 50.8969 14.7531C50.122 15.0391 49.2952 15.1746 48.4647 15.1518H44.6632V21.1614H41.6123V3.46621H48.4647ZM48.3227 12.4002C48.7675 12.4155 49.211 12.3458 49.6272 12.1954C50.0435 12.045 50.4241 11.8168 50.7468 11.5242C51.3559 10.936 51.6976 10.1423 51.6976 9.3153C51.6976 8.48827 51.3559 7.69462 50.7468 7.10642C50.4241 6.81389 50.0435 6.58572 49.6272 6.43531C49.211 6.28489 48.7674 6.21523 48.3227 6.23041H44.6632V12.4008L48.3227 12.4002Z" fill="#181818"/>
<path d="M57.5806 5.4042V2.50439H60.6197V5.4042H57.5806ZM57.6321 21.1626V7.51442H60.5675V21.1626H57.6321Z" fill="#181818"/>
<path d="M71.1818 21.4956C69.846 21.5104 68.5298 21.1868 67.3677 20.5578C66.2388 19.9493 65.3064 19.057 64.672 17.9778C64.0315 16.8585 63.6958 15.6036 63.6958 14.3283C63.6958 13.053 64.0315 11.798 64.672 10.6788C65.3072 9.60359 66.2397 8.71569 67.3677 8.11201C68.5355 7.48577 69.8557 7.16457 71.195 7.18081C72.8411 7.14568 74.4506 7.6461 75.7591 8.5998C77.0378 9.53706 77.9304 10.8736 78.2807 12.3756H75.3713C75.0124 11.6167 74.4278 10.9751 73.6902 10.5306C72.9397 10.0798 72.0685 9.8462 71.1818 9.85799C70.5818 9.84397 69.9854 9.95104 69.4317 10.1722C68.878 10.3934 68.3795 10.7237 67.9687 11.1414C67.1395 12.0157 66.6809 13.1532 66.682 14.3325C66.6832 15.5117 67.1441 16.6484 67.975 17.5212C68.3832 17.9411 68.88 18.2736 69.4327 18.497C69.9853 18.7204 70.5812 18.8295 71.1812 18.8172C72.069 18.8317 72.9408 18.5909 73.6833 18.126C74.4264 17.6487 75.0083 16.9757 75.358 16.1886H78.319C77.9674 17.7167 77.0661 19.0789 75.7717 20.0388C74.4621 21.0126 72.8416 21.5269 71.1818 21.4956Z" fill="#181818"/>
<path d="M90.4981 21.1626L86.2182 15.3378H84.4372V21.1626H81.502V2.62799H84.4372V12.7956H86.2471L90.0951 7.51559H93.5861L88.7379 14.0682L94.0909 21.1638L90.4981 21.1626Z" fill="#181818"/>
<path d="M108.368 2.66522H110.166V21.1626H108.756L108.497 18.843C107.83 19.6619 106.971 20.3196 105.989 20.763C104.958 21.2261 103.831 21.4604 102.691 21.4482C101.715 21.4761 100.743 21.3101 99.8366 20.9606C98.9307 20.6111 98.1108 20.0857 97.4288 19.4178C96.742 18.7485 96.2037 17.9538 95.846 17.0813C95.4884 16.2088 95.3188 15.2765 95.3473 14.34C95.3282 13.0719 95.6509 11.8205 96.2846 10.7058C96.8923 9.64086 97.7988 8.75849 98.9024 8.1576C100.056 7.53253 101.364 7.21312 102.691 7.2324C103.794 7.22188 104.885 7.44077 105.891 7.87382C106.848 8.2865 107.695 8.90208 108.366 9.67382L108.368 2.66522ZM98.7874 18.2322C99.8734 19.227 101.321 19.782 102.826 19.7808C104.331 19.7797 105.778 19.2226 106.862 18.2262C107.896 17.1714 108.471 15.7814 108.473 14.3371C108.474 12.8928 107.901 11.5019 106.869 10.4454C105.781 9.45167 104.334 8.89694 102.828 8.89694C101.323 8.89694 99.8754 9.45167 98.788 10.4454C97.7576 11.5034 97.1848 12.8943 97.1848 14.3388C97.1848 15.7833 97.7576 17.1742 98.788 18.2322H98.7874Z" fill="#181818"/>
<path d="M128.149 14.3514C128.149 14.4174 128.149 14.4852 128.143 14.5554C128.137 14.6256 128.132 14.7019 128.123 14.7835C128.115 14.8651 128.11 14.9316 128.11 14.9808H115.546C115.641 16.3017 116.258 17.5389 117.272 18.4422C118.287 19.3307 119.625 19.8066 121.002 19.7688C122.004 19.7856 122.991 19.5426 123.859 19.0656C124.699 18.5931 125.388 17.9105 125.85 17.0916H127.751C127.197 18.3929 126.258 19.512 125.048 20.3124C123.852 21.0761 122.44 21.4723 121.001 21.4476C120.016 21.4538 119.039 21.269 118.131 20.9046C117.265 20.5623 116.48 20.0566 115.823 19.4179C115.164 18.7643 114.648 17.9926 114.304 17.1475C113.93 16.2502 113.742 15.2928 113.748 14.3274C113.73 13.0628 114.054 11.8152 114.691 10.7058C115.3 9.64378 116.203 8.76217 117.302 8.15763C118.425 7.53795 119.703 7.21836 121 7.23244C122.312 7.21305 123.603 7.5421 124.73 8.18283C125.81 8.7975 126.688 9.68883 127.264 10.7556C127.862 11.8675 128.165 13.1019 128.149 14.3514ZM120.999 8.86025C119.668 8.82599 118.371 9.27078 117.366 10.1064C116.367 10.9523 115.731 12.1218 115.582 13.389H126.365C126.215 12.1187 125.58 10.9456 124.581 10.0938C123.591 9.26881 122.313 8.82857 120.999 8.86025Z" fill="#181818"/>
<path d="M141.634 7.51501H143.471L137.342 21.1632H135.713L129.426 7.51501H131.312L136.523 18.9048L141.634 7.51501Z" fill="#181818"/>
<path d="M150.427 21.447C148.992 21.5157 147.578 21.1057 146.425 20.2872C145.929 19.9058 145.527 19.4253 145.247 18.8795C144.967 18.3338 144.815 17.736 144.803 17.1282H146.563C146.585 17.527 146.703 17.9156 146.907 18.2642C147.111 18.6129 147.396 18.9122 147.74 19.1394C148.557 19.6468 149.52 19.8971 150.493 19.8553C151.443 19.8969 152.384 19.6671 153.197 19.1952C153.62 18.9398 153.941 18.5551 154.106 18.1036C154.272 17.6522 154.273 17.1607 154.108 16.7089C154.037 16.5151 153.934 16.3329 153.805 16.1688C153.66 16.0017 153.485 15.8616 153.287 15.7555C153.087 15.6402 152.88 15.5371 152.667 15.447C152.417 15.3509 152.16 15.2746 151.897 15.219C151.574 15.145 151.305 15.0875 151.089 15.0463C150.874 15.0051 150.581 14.9556 150.209 14.898C149.744 14.824 149.386 14.7625 149.136 14.7133C148.886 14.6641 148.551 14.5858 148.13 14.4786C147.791 14.3996 147.46 14.2901 147.141 14.1516C146.863 14.0174 146.596 13.8648 146.34 13.695C146.07 13.5277 145.837 13.3116 145.655 13.059C145.478 12.7945 145.342 12.508 145.248 12.2076C145.131 11.8438 145.075 11.4649 145.079 11.0844C145.067 10.5418 145.192 10.0044 145.446 9.51852C145.699 9.03265 146.073 8.61293 146.534 8.29563C147.653 7.54463 149.003 7.17133 150.369 7.23483C151.73 7.16951 153.072 7.56002 154.164 8.33884C154.632 8.69698 155.01 9.15042 155.271 9.66603C155.532 10.1816 155.669 10.7464 155.672 11.319H153.966C153.957 10.952 153.86 10.5918 153.681 10.2665C153.503 9.94119 153.249 9.65955 152.938 9.44345C152.166 8.96136 151.253 8.72773 150.332 8.77683C149.437 8.73344 148.547 8.94611 147.779 9.38763C147.485 9.55767 147.243 9.79796 147.076 10.0847C146.91 10.3715 146.824 10.6948 146.829 11.0227C146.827 11.2078 146.851 11.3924 146.9 11.5716C146.946 11.7375 147.03 11.8914 147.146 12.0222C147.252 12.144 147.367 12.2595 147.488 12.3679C147.634 12.4856 147.801 12.5776 147.98 12.6397C148.195 12.7221 148.381 12.7899 148.536 12.8431C148.754 12.9126 148.976 12.9681 149.202 13.0092C149.49 13.0672 149.721 13.1124 149.894 13.1448C150.066 13.1772 150.321 13.2184 150.657 13.2684C151.327 13.3756 151.843 13.4641 152.202 13.5337C152.672 13.6358 153.135 13.7697 153.585 13.9344C154.056 14.081 154.493 14.3135 154.871 14.619C155.203 14.9307 155.471 15.2991 155.66 15.705C155.904 16.2181 156.023 16.7769 156.01 17.3401C156.027 17.9184 155.897 18.4921 155.632 19.0121C155.366 19.5321 154.972 19.983 154.484 20.3262C153.302 21.1238 151.873 21.5186 150.427 21.447Z" fill="#181818"/>
</g>
<defs>
<clipPath id="clip0_3_1175">
<rect width="156" height="24" fill="white"/>
</clipPath>
</defs>
</svg>
