<svg width="703" height="195" viewBox="0 0 703 195" fill="none" xmlns="http://www.w3.org/2000/svg">
<path d="M0.3 75H-0.7V76H0.3V75ZM0.3 5V4H-0.7V5H0.3ZM54.3 10L53.6961 10.7971L53.7019 10.8014L54.3 10ZM58.3 32.8L59.1289 33.3595L59.1352 33.35L58.3 32.8ZM50.9 39L51.3239 39.9057L50.9 39ZM40.1 41.2L39.1927 40.7795L38.5344 42.2H40.1V41.2ZM42 37.1V36.1H41.3613L41.0927 36.6795L42 37.1ZM53.7 39.3L53.3039 40.2182L53.3116 40.2215L53.3193 40.2247L53.7 39.3ZM61.6 45.6L60.768 46.1547L60.7725 46.1615L60.7771 46.1682L61.6 45.6ZM57.4 70L57.9758 70.8176L57.9834 70.8122L57.4 70ZM16.4 62.8H15.4V63.8H16.4V62.8ZM44.8 60.8L45.33 61.648L45.3369 61.6437L44.8 60.8ZM44.8 47.7L44.2335 48.524L44.2481 48.5341L44.2631 48.5437L44.8 47.7ZM15.2 45.5H14.2V46.5H15.2V45.5ZM15.2 33.7V32.7H14.2V33.7H15.2ZM41.5 31.7L42.0421 32.5403L42.0487 32.536L41.5 31.7ZM41.5 19.3L40.9392 20.1279L40.9544 20.1382L40.97 20.148L41.5 19.3ZM16.4 17.2V16.2H15.4V17.2H16.4ZM1.3 75V5H-0.7V75H1.3ZM0.3 6H34.5V4H0.3V6ZM34.5 6C43.2023 6 49.5461 7.65314 53.6961 10.7971L54.9039 9.2029C50.2539 5.68019 43.3977 4 34.5 4V6ZM53.7019 10.8014C57.9215 13.9504 60 18.0561 60 23.2H62C62 17.4105 59.6119 12.7163 54.8981 9.19856L53.7019 10.8014ZM60 23.2C60 26.6955 59.1447 29.6992 57.4648 32.25L59.1352 33.35C61.0554 30.4342 62 27.0378 62 23.2H60ZM57.4712 32.2405C55.78 34.746 53.4584 36.6983 50.4761 38.0943L51.3239 39.9057C54.6083 38.3683 57.2201 36.1873 59.1289 33.3595L57.4712 32.2405ZM50.4761 38.0943C47.4967 39.4889 44.0457 40.2 40.1 40.2V42.2C44.2877 42.2 48.0366 41.4444 51.3239 39.9057L50.4761 38.0943ZM41.0073 41.6205L42.9073 37.5205L41.0927 36.6795L39.1927 40.7795L41.0073 41.6205ZM42 38.1C46.289 38.1 50.0502 38.8147 53.3039 40.2182L54.0961 38.3818C50.5498 36.852 46.511 36.1 42 36.1V38.1ZM53.3193 40.2247C56.5532 41.5563 59.0218 43.5355 60.768 46.1547L62.4321 45.0453C60.4449 42.0645 57.6468 39.8437 54.0808 38.3753L53.3193 40.2247ZM60.7771 46.1682C62.5741 48.7707 63.5 51.9959 63.5 55.9H65.5C65.5 51.6708 64.4926 48.0293 62.4229 45.0318L60.7771 46.1682ZM63.5 55.9C63.5 61.5892 61.2794 65.9822 56.8166 69.1878L57.9834 70.8122C62.9873 67.2178 65.5 62.2107 65.5 55.9H63.5ZM56.8242 69.1824C52.3323 72.3457 45.6058 74 36.5 74V76C45.7942 76 53.001 74.3209 57.9758 70.8176L56.8242 69.1824ZM36.5 74H0.3V76H36.5V74ZM16.4 63.8H35.3V61.8H16.4V63.8ZM35.3 63.8C39.5754 63.8 42.9639 63.1268 45.33 61.648L44.27 59.952C42.3694 61.1399 39.4246 61.8 35.3 61.8V63.8ZM45.3369 61.6437C47.8728 60.0299 49.1 57.4815 49.1 54.2H47.1C47.1 56.9185 46.1272 58.7701 44.2631 59.9563L45.3369 61.6437ZM49.1 54.2C49.1 50.9753 47.8655 48.4655 45.3369 46.8563L44.2631 48.5437C46.1345 49.7345 47.1 51.5581 47.1 54.2H49.1ZM45.3665 46.876C42.9919 45.2434 39.5875 44.5 35.3 44.5V46.5C39.4125 46.5 42.3414 47.2232 44.2335 48.524L45.3665 46.876ZM35.3 44.5H15.2V46.5H35.3V44.5ZM16.2 45.5V33.7H14.2V45.5H16.2ZM15.2 34.7H32.5V32.7H15.2V34.7ZM32.5 34.7C36.5206 34.7 39.7438 34.0231 42.0421 32.5403L40.9579 30.8597C39.1228 32.0436 36.3461 32.7 32.5 32.7V34.7ZM42.0487 32.536C44.4947 30.9309 45.7 28.4981 45.7 25.4H43.7C43.7 27.9019 42.772 29.6691 40.9513 30.8639L42.0487 32.536ZM45.7 25.4C45.7 22.3576 44.4848 19.9862 42.03 18.452L40.97 20.148C42.7819 21.2804 43.7 22.9757 43.7 25.4H45.7ZM42.0609 18.4721C39.7585 16.9124 36.5272 16.2 32.5 16.2V18.2C36.3395 18.2 39.1082 18.8876 40.9392 20.1279L42.0609 18.4721ZM32.5 16.2H16.4V18.2H32.5V16.2ZM15.4 17.2V62.8H17.4V17.2H15.4ZM108.665 75H107.665V76H108.665V75ZM108.665 64.5H109.665V64.292L109.582 64.1013L108.665 64.5ZM107.665 62.2H106.665V62.408L106.748 62.5987L107.665 62.2ZM104.565 35.6L103.883 36.3311L103.888 36.3366L103.895 36.3421L104.565 35.6ZM86.7648 34.2L87.0671 35.1532L87.0741 35.151L87.0811 35.1487L86.7648 34.2ZM79.7648 37.8L78.8754 38.257L79.432 39.3403L80.3862 38.5835L79.7648 37.8ZM74.1648 26.9L73.5889 26.0825L72.8779 26.5834L73.2754 27.357L74.1648 26.9ZM84.7648 22.1L84.5004 21.1356V21.1356L84.7648 22.1ZM116.465 26.2L117.114 25.4392L116.465 26.2ZM123.265 75V76H124.265V75H123.265ZM81.4648 73.7L81.0256 74.5984L81.0338 74.6024L81.042 74.6062L81.4648 73.7ZM74.5648 67.8L75.4038 67.2558L74.5648 67.8ZM74.4648 51.1L73.6328 50.5453L73.6274 50.5534L73.6221 50.5616L74.4648 51.1ZM81.9648 45.5L82.3299 46.431L82.3378 46.4279L82.3456 46.4247L81.9648 45.5ZM109.565 43.4H110.565V42.4H109.565V43.4ZM109.565 52.5V53.5H110.565V52.5H109.565ZM89.3648 54.3L88.7141 53.5407L88.7049 53.5486L88.6959 53.5567L89.3648 54.3ZM89.6648 63.6L89.0485 64.3875L89.0673 64.4022L89.0868 64.416L89.6648 63.6ZM103.165 63.5L103.667 64.3648L103.677 64.3588L103.687 64.3526L103.165 63.5ZM107.665 58L108.614 57.6838L107.737 55.0549L106.733 57.6376L107.665 58ZM110.065 65.2L111.015 65.5107L111.118 65.197L111.014 64.8838L110.065 65.2ZM103.865 73.1L103.35 72.2425L103.865 73.1ZM109.665 75V64.5H107.665V75H109.665ZM109.582 64.1013L108.582 61.8013L106.748 62.5987L107.748 64.8987L109.582 64.1013ZM108.665 62.2V43.4H106.665V62.2H108.665ZM108.665 43.4C108.665 39.8445 107.553 36.9513 105.235 34.8579L103.895 36.3421C105.71 37.982 106.665 40.2889 106.665 43.4H108.665ZM105.247 34.8689C102.984 32.7569 99.5868 31.8 95.2648 31.8V33.8C99.3429 33.8 102.145 34.7098 103.883 36.3311L105.247 34.8689ZM95.2648 31.8C92.2875 31.8 89.3475 32.285 86.4486 33.2513L87.0811 35.1487C89.7822 34.2483 92.5088 33.8 95.2648 33.8V31.8ZM86.4626 33.2468C83.6319 34.1443 81.1861 35.3965 79.1434 37.0165L80.3862 38.5835C82.2103 37.1368 84.4311 35.989 87.0671 35.1532L86.4626 33.2468ZM80.6543 37.343L75.0543 26.443L73.2754 27.357L78.8754 38.257L80.6543 37.343ZM74.7408 27.7175C77.5632 25.729 80.9864 24.1729 85.0293 23.0644L84.5004 21.1356C80.2766 22.2937 76.6332 23.9377 73.5889 26.0825L74.7408 27.7175ZM85.0293 23.0644C89.0768 21.9546 93.1879 21.4 97.3648 21.4V19.4C93.0084 19.4 88.7195 19.9787 84.5004 21.1356L85.0293 23.0644ZM97.3648 21.4C105.416 21.4 111.522 23.298 115.816 26.9608L117.114 25.4392C112.341 21.3687 105.713 19.4 97.3648 19.4V21.4ZM115.816 26.9608C120.052 30.5736 122.265 36.2773 122.265 44.3H124.265C124.265 35.9227 121.945 29.5598 117.114 25.4392L115.816 26.9608ZM122.265 44.3V75H124.265V44.3H122.265ZM123.265 74H108.665V76H123.265V74ZM92.2648 74.8C88.173 74.8 84.7247 74.1178 81.8877 72.7938L81.042 74.6062C84.205 76.0822 87.9567 76.8 92.2648 76.8V74.8ZM81.9041 72.8016C79.0444 71.4035 76.8923 69.5506 75.4038 67.2558L73.7259 68.3442C75.4374 70.9828 77.8853 73.0631 81.0256 74.5984L81.9041 72.8016ZM75.4038 67.2558C73.9136 64.9584 73.1648 62.3823 73.1648 59.5H71.1648C71.1648 62.7511 72.0161 65.7083 73.7259 68.3442L75.4038 67.2558ZM73.1648 59.5C73.1648 56.4665 73.8893 53.8583 75.3075 51.6384L73.6221 50.5616C71.9737 53.1417 71.1648 56.1335 71.1648 59.5H73.1648ZM75.2969 51.6547C76.7565 49.4653 79.0696 47.7095 82.3299 46.431L81.5998 44.569C78.0601 45.9571 75.3732 47.9347 73.6328 50.5453L75.2969 51.6547ZM82.3456 46.4247C85.5809 45.0925 89.8711 44.4 95.2648 44.4V42.4C89.7253 42.4 85.1487 43.1075 81.5841 44.5753L82.3456 46.4247ZM95.2648 44.4H109.565V42.4H95.2648V44.4ZM108.565 43.4V52.5H110.565V43.4H108.565ZM109.565 51.5H96.9648V53.5H109.565V51.5ZM96.9648 51.5C93.2606 51.5 90.4048 52.0915 88.7141 53.5407L90.0156 55.0593C91.1249 54.1085 93.3358 53.5 96.9648 53.5V51.5ZM88.6959 53.5567C87.151 54.9471 86.3648 56.7176 86.3648 58.8H88.3648C88.3648 57.2824 88.912 56.0529 90.0338 55.0433L88.6959 53.5567ZM86.3648 58.8C86.3648 61.0978 87.2654 62.992 89.0485 64.3875L90.2812 62.8125C88.9976 61.808 88.3648 60.5022 88.3648 58.8H86.3648ZM89.0868 64.416C90.9106 65.7079 93.3037 66.3 96.1648 66.3V64.3C93.5594 64.3 91.6191 63.7588 90.2429 62.784L89.0868 64.416ZM96.1648 66.3C98.9252 66.3 101.435 65.661 103.667 64.3648L102.663 62.6352C100.762 63.7389 98.6045 64.3 96.1648 64.3V66.3ZM103.687 64.3526C105.952 62.9643 107.59 60.9526 108.597 58.3624L106.733 57.6376C105.873 59.8474 104.511 61.5023 102.642 62.6474L103.687 64.3526ZM106.716 58.3162L109.116 65.5162L111.014 64.8838L108.614 57.6838L106.716 58.3162ZM109.114 64.8893C108.052 68.1378 106.135 70.572 103.35 72.2425L104.379 73.9575C107.595 72.028 109.811 69.1956 111.015 65.5107L109.114 64.8893ZM103.35 72.2425C100.551 73.9219 96.8787 74.8 92.2648 74.8V76.8C97.1177 76.8 101.178 75.8781 104.379 73.9575L103.35 72.2425ZM148.274 72.3L147.806 73.1838L147.817 73.1891L148.274 72.3ZM137.574 62.4L136.718 62.9165L136.724 62.9264L137.574 62.4ZM137.574 33.8L136.724 33.2736L136.722 33.2774L137.574 33.8ZM148.274 24L148.732 24.8892L148.742 24.8838L148.274 24ZM178.574 24L178.078 24.8683L178.089 24.8742L178.574 24ZM187.874 34.1L188.347 34.9809L189.172 34.5381L188.785 33.6862L187.874 34.1ZM175.774 40.6L174.899 41.0837L175.377 41.9486L176.247 41.4809L175.774 40.6ZM170.474 35L169.972 35.8649L169.984 35.8716L170.474 35ZM156.474 35L156.964 35.8716L156.474 35ZM151.374 40.1L150.508 39.601L150.502 39.611L150.496 39.6211L151.374 40.1ZM151.374 56.1L150.496 56.5788L150.502 56.589L150.508 56.599L151.374 56.1ZM156.474 61.2L156.964 60.3284L156.474 61.2ZM170.474 61.3L170.955 62.1769L170.964 62.1716L170.474 61.3ZM175.774 55.6L176.253 54.7221L175.37 54.2407L174.894 55.1259L175.774 55.6ZM187.874 62.2L188.782 62.6191L189.174 61.7699L188.353 61.3221L187.874 62.2ZM178.574 72.3L179.06 73.1742L179.07 73.1682L178.574 72.3ZM163.774 74.8C158.111 74.8 153.105 73.6619 148.732 71.4109L147.817 73.1891C152.51 75.6048 157.837 76.8 163.774 76.8V74.8ZM148.742 71.4162C144.359 69.096 140.927 65.9167 138.424 61.8736L136.724 62.9264C139.421 67.2833 143.122 70.704 147.806 73.1838L148.742 71.4162ZM138.431 61.8835C135.999 57.8529 134.774 53.2677 134.774 48.1H132.774C132.774 53.5989 134.082 58.5471 136.718 62.9165L138.431 61.8835ZM134.774 48.1C134.774 42.8628 136.001 38.2812 138.427 34.3226L136.722 33.2774C134.081 37.5855 132.774 42.5372 132.774 48.1H134.774ZM138.424 34.3264C140.926 30.2858 144.354 27.1422 148.732 24.8891L147.817 23.1109C143.127 25.5244 139.423 28.9142 136.724 33.2736L138.424 34.3264ZM148.742 24.8838C153.113 22.5696 158.116 21.4 163.774 21.4V19.4C157.833 19.4 152.502 20.6304 147.806 23.1162L148.742 24.8838ZM163.774 21.4C169.297 21.4 174.053 22.5684 178.078 24.8682L179.07 23.1318C174.695 20.6316 169.585 19.4 163.774 19.4V21.4ZM178.089 24.8742C182.1 27.1028 185.052 30.3075 186.964 34.5138L188.785 33.6862C186.697 29.0925 183.448 25.5639 179.06 23.1258L178.089 24.8742ZM187.401 33.2191L175.301 39.7191L176.247 41.4809L188.347 34.9809L187.401 33.2191ZM176.649 40.1163C175.176 37.4505 173.287 35.4349 170.964 34.1284L169.984 35.8716C171.928 36.9651 173.572 38.6829 174.899 41.0837L176.649 40.1163ZM170.976 34.1352C168.752 32.8437 166.311 32.2 163.674 32.2V34.2C165.97 34.2 168.063 34.7563 169.972 35.8648L170.976 34.1352ZM163.674 32.2C160.852 32.2 158.28 32.8368 155.984 34.1284L156.964 35.8716C158.935 34.7632 161.163 34.2 163.674 34.2V32.2ZM155.984 34.1284C153.688 35.4199 151.86 37.2513 150.508 39.601L152.241 40.599C153.421 38.5487 154.994 36.9801 156.964 35.8716L155.984 34.1284ZM150.496 39.6211C149.199 42.0004 148.574 44.8405 148.574 48.1H150.574C150.574 45.0928 151.15 42.5996 152.252 40.5788L150.496 39.6211ZM148.574 48.1C148.574 51.3595 149.199 54.1996 150.496 56.5788L152.252 55.6211C151.15 53.6004 150.574 51.1072 150.574 48.1H148.574ZM150.508 56.599C151.86 58.9487 153.688 60.7801 155.984 62.0716L156.964 60.3284C154.994 59.2199 153.421 57.6513 152.241 55.601L150.508 56.599ZM155.984 62.0716C158.28 63.3632 160.852 64 163.674 64V62C161.163 62 158.935 61.4368 156.964 60.3284L155.984 62.0716ZM163.674 64C166.301 64 168.734 63.3948 170.955 62.1768L169.993 60.4232C168.081 61.4719 165.981 62 163.674 62V64ZM170.964 62.1716C173.294 60.8611 175.184 58.8062 176.655 56.0741L174.894 55.1259C173.565 57.5938 171.921 59.3389 169.984 60.4284L170.964 62.1716ZM175.295 56.4779L187.395 63.0779L188.353 61.3221L176.253 54.7221L175.295 56.4779ZM186.966 61.7809C185.055 65.9226 182.1 69.1335 178.078 71.4318L179.07 73.1682C183.448 70.6665 186.694 67.1441 188.782 62.6191L186.966 61.7809ZM178.089 71.4258C174.062 73.663 169.302 74.8 163.774 74.8V76.8C169.58 76.8 174.687 75.6037 179.06 73.1742L178.089 71.4258ZM209.463 64L208.464 63.979L208.412 66.4362L210.164 64.7131L209.463 64ZM209.863 45L209.175 44.2743L208.872 44.5616L208.864 44.979L209.863 45ZM234.963 21.2V20.2H234.565L234.275 20.4743L234.963 21.2ZM253.563 21.2L254.276 21.9013L255.95 20.2H253.563V21.2ZM229.463 45.7L230.095 46.4752L230.138 46.4405L230.176 46.4013L229.463 45.7ZM221.363 52.3L220.732 51.5248L220.695 51.5542L220.662 51.5869L221.363 52.3ZM196.563 75H195.563V76H196.563V75ZM196.563 0.799995V-0.200005H195.563V0.799995H196.563ZM212.163 0.799995H213.163V-0.200005H212.163V0.799995ZM212.163 75V76H213.163V75H212.163ZM236.663 75L235.884 75.6272L236.185 76H236.663V75ZM218.463 52.4L217.686 51.7706L217.178 52.3982L217.684 53.0272L218.463 52.4ZM228.263 40.3L229.049 39.6817L228.275 38.6971L227.486 39.6706L228.263 40.3ZM255.563 75V76H257.622L256.349 74.3817L255.563 75ZM210.463 64.021L210.863 45.021L208.864 44.979L208.464 63.979L210.463 64.021ZM210.551 45.7256L235.651 21.9256L234.275 20.4743L209.175 44.2743L210.551 45.7256ZM234.963 22.2H253.563V20.2H234.963V22.2ZM252.85 20.4987L228.75 44.9987L230.176 46.4013L254.276 21.9013L252.85 20.4987ZM228.832 44.9248L220.732 51.5248L221.995 53.0752L230.095 46.4752L228.832 44.9248ZM220.662 51.5869L208.762 63.2869L210.164 64.7131L222.064 53.0131L220.662 51.5869ZM197.563 75V0.799995H195.563V75H197.563ZM196.563 1.8H212.163V-0.200005H196.563V1.8ZM211.163 0.799995V75H213.163V0.799995H211.163ZM212.163 74H196.563V76H212.163V74ZM237.442 74.3728L219.242 51.7728L217.684 53.0272L235.884 75.6272L237.442 74.3728ZM219.24 53.0294L229.04 40.9294L227.486 39.6706L217.686 51.7706L219.24 53.0294ZM227.477 40.9183L254.777 75.6183L256.349 74.3817L229.049 39.6817L227.477 40.9183ZM255.563 74H236.663V76H255.563V74ZM270.833 72.2L270.37 73.0866L270.375 73.0893L270.833 72.2ZM260.133 62.4L259.276 62.9165L259.28 62.9226L260.133 62.4ZM260.033 33.8L259.177 33.2835L259.174 33.2875L260.033 33.8ZM270.333 24L270.807 24.8805L270.817 24.8748L270.333 24ZM299.233 23.8L298.758 24.68L298.766 24.6845L298.775 24.6888L299.233 23.8ZM309.333 33.4L308.471 33.9064L308.474 33.9125L309.333 33.4ZM312.933 50.4L313.929 50.4905L313.929 50.483L312.933 50.4ZM312.733 52.5V53.5H313.638L313.728 52.5995L312.733 52.5ZM269.033 52.5H268.033V53.5H269.033V52.5ZM269.033 43.4V42.4H268.033V43.4H269.033ZM304.533 43.4L304.943 44.3119L304.533 42.4V43.4ZM298.533 46.1H297.533V47.6466L298.943 47.0119L298.533 46.1ZM296.833 38.8L295.956 39.2808L296.833 38.8ZM292.133 34L291.618 34.8575L291.629 34.8639L291.64 34.87L292.133 34ZM278.033 34L278.526 34.8701L278.535 34.8648L278.033 34ZM273.333 38.9L274.21 39.3809L274.216 39.3692L273.333 38.9ZM273.533 56.5L272.66 56.9878L272.668 57.0032L272.678 57.0183L273.533 56.5ZM279.033 61.6L278.575 62.4893L278.591 62.497L278.606 62.5042L279.033 61.6ZM294.933 62L294.566 61.0695L294.556 61.0735L294.933 62ZM300.933 58.1L301.668 57.4221L300.975 56.6709L300.239 57.3797L300.933 58.1ZM309.233 67.1L309.983 67.761L310.579 67.0847L309.968 66.4221L309.233 67.1ZM299.933 73.6L300.298 74.5308L300.306 74.5279L300.313 74.525L299.933 73.6ZM287.033 74.8C281.032 74.8 275.793 73.6266 271.29 71.3107L270.375 73.0893C275.206 75.5734 280.767 76.8 287.033 76.8V74.8ZM271.295 71.3134C266.844 68.9911 263.417 65.8455 260.985 61.8774L259.28 62.9226C261.915 67.2212 265.621 70.6089 270.37 73.0866L271.295 71.3134ZM260.989 61.8835C258.558 57.8529 257.333 53.2677 257.333 48.1H255.333C255.333 53.5989 256.641 58.5471 259.277 62.9165L260.989 61.8835ZM257.333 48.1C257.333 42.8579 258.528 38.2726 260.892 34.3125L259.174 33.2875C256.604 37.5941 255.333 42.5421 255.333 48.1H257.333ZM260.889 34.3165C263.33 30.2704 266.631 27.1292 270.807 24.8805L269.859 23.1195C265.368 25.5375 261.803 28.9296 259.177 33.2835L260.889 34.3165ZM270.817 24.8748C274.987 22.5652 279.718 21.4 285.033 21.4V19.4C279.415 19.4 274.345 20.6348 269.848 23.1252L270.817 24.8748ZM285.033 21.4C290.151 21.4 294.718 22.5 298.758 24.68L299.708 22.92C295.347 20.5666 290.448 19.4 285.033 19.4V21.4ZM298.775 24.6888C302.87 26.8008 306.098 29.867 308.471 33.9064L310.195 32.8936C307.634 28.533 304.128 25.1992 299.691 22.9112L298.775 24.6888ZM308.474 33.9125C310.831 37.8618 312.033 42.6434 312.033 48.3H314.033C314.033 42.3566 312.768 37.2048 310.192 32.8875L308.474 33.9125ZM312.033 48.3C312.033 48.8648 312.001 49.536 311.936 50.317L313.929 50.483C313.998 49.664 314.033 48.9352 314.033 48.3H312.033ZM311.937 50.3095C311.871 51.0401 311.804 51.7371 311.738 52.4005L313.728 52.5995C313.795 51.9296 313.862 51.2266 313.929 50.4905L311.937 50.3095ZM312.733 51.5H269.033V53.5H312.733V51.5ZM270.033 52.5V43.4H268.033V52.5H270.033ZM269.033 44.4H304.533V42.4H269.033V44.4ZM304.122 42.4881L298.122 45.1881L298.943 47.0119L304.943 44.3119L304.122 42.4881ZM299.533 46.1C299.533 43.1635 298.938 40.5586 297.71 38.3192L295.956 39.2808C296.995 41.1747 297.533 43.4365 297.533 46.1H299.533ZM297.71 38.3192C296.489 36.094 294.792 34.3573 292.626 33.13L291.64 34.87C293.474 35.9094 294.91 37.3727 295.956 39.2808L297.71 38.3192ZM292.647 33.1425C290.471 31.8365 287.954 31.2 285.133 31.2V33.2C287.645 33.2 289.795 33.7635 291.618 34.8575L292.647 33.1425ZM285.133 31.2C282.311 31.2 279.767 31.8367 277.531 33.1352L278.535 34.8648C280.432 33.7633 282.622 33.2 285.133 33.2V31.2ZM277.54 33.13C275.366 34.362 273.668 36.1385 272.45 38.4308L274.216 39.3692C275.265 37.3949 276.7 35.9047 278.526 34.87L277.54 33.13ZM272.456 38.4192C271.226 40.6619 270.633 43.3013 270.633 46.3H272.633C272.633 43.5653 273.173 41.2714 274.21 39.3808L272.456 38.4192ZM270.633 46.3V48.7H272.633V46.3H270.633ZM270.633 48.7C270.633 51.7816 271.3 54.5536 272.66 56.9878L274.406 56.0122C273.233 53.9131 272.633 51.4851 272.633 48.7H270.633ZM272.678 57.0183C274.109 59.3796 276.081 61.2065 278.575 62.4893L279.49 60.7107C277.318 59.5935 275.624 58.0204 274.388 55.9817L272.678 57.0183ZM278.606 62.5042C281.164 63.7123 284.115 64.3 287.433 64.3V62.3C284.351 62.3 281.702 61.7544 279.46 60.6957L278.606 62.5042ZM287.433 64.3C290.398 64.3 293.031 63.852 295.309 62.9265L294.556 61.0735C292.568 61.8813 290.201 62.3 287.433 62.3V64.3ZM295.299 62.9304C297.628 62.0131 299.738 60.6392 301.626 58.8203L300.239 57.3797C298.528 59.0275 296.638 60.2536 294.566 61.0696L295.299 62.9304ZM300.198 58.7779L308.498 67.7779L309.968 66.4221L301.668 57.4221L300.198 58.7779ZM308.482 66.439C306.125 69.1145 303.156 71.1952 299.553 72.675L300.313 74.525C304.176 72.9382 307.407 70.6855 309.983 67.761L308.482 66.439ZM299.567 72.6693C295.972 74.0815 291.8 74.8 287.033 74.8V76.8C291.999 76.8 296.427 76.0518 300.298 74.5308L299.567 72.6693ZM367.519 23L367.057 23.8872L367.068 23.8927L367.079 23.8979L367.519 23ZM375.519 30.8L374.641 31.28L374.645 31.2871L375.519 30.8ZM378.419 75V76H379.419V75H378.419ZM362.819 75H361.819V76H362.819V75ZM359.919 37L359.177 37.6703L359.182 37.6768L359.188 37.6832L359.919 37ZM345.219 35.5L345.678 36.3883L345.689 36.3824L345.219 35.5ZM340.619 40.2L339.736 39.7308L339.73 39.7417L339.724 39.7528L340.619 40.2ZM339.019 75V76H340.019V75H339.019ZM323.419 75H322.419V76H323.419V75ZM323.419 21.2V20.2H322.419V21.2H323.419ZM338.319 21.2H339.319V20.2H338.319V21.2ZM338.319 36.1L337.47 36.6283L339.319 39.6V36.1H338.319ZM335.519 31.6L334.638 31.1269L334.364 31.6368L334.67 32.1283L335.519 31.6ZM343.819 23.3L344.292 24.181L343.819 23.3ZM356.119 21.4C360.247 21.4 363.885 22.2375 367.057 23.8872L367.98 22.1128C364.486 20.2958 360.524 19.4 356.119 19.4V21.4ZM367.079 23.8979C370.281 25.4678 372.801 27.9156 374.641 31.28L376.396 30.32C374.37 26.6178 371.556 23.8655 367.959 22.1021L367.079 23.8979ZM374.645 31.2871C376.47 34.5592 377.419 38.8425 377.419 44.2H379.419C379.419 38.6241 378.434 33.9742 376.392 30.3129L374.645 31.2871ZM377.419 44.2V75H379.419V44.2H377.419ZM378.419 74H362.819V76H378.419V74ZM363.819 75V46.6H361.819V75H363.819ZM363.819 46.6C363.819 42.1438 362.828 38.6462 360.649 36.3168L359.188 37.6832C360.876 39.4872 361.819 42.3896 361.819 46.6H363.819ZM360.661 36.3297C358.56 34.0036 355.594 32.9 351.919 32.9V34.9C355.177 34.9 357.544 35.8631 359.177 37.6703L360.661 36.3297ZM351.919 32.9C349.303 32.9 346.906 33.467 344.748 34.6176L345.689 36.3824C347.532 35.3996 349.601 34.9 351.919 34.9V32.9ZM344.759 34.6118C342.626 35.7153 340.953 37.4386 339.736 39.7308L341.502 40.6692C342.551 38.6948 343.945 37.2847 345.678 36.3882L344.759 34.6118ZM339.724 39.7528C338.566 42.0689 338.019 44.9694 338.019 48.4H340.019C340.019 45.1639 340.538 42.5977 341.513 40.6472L339.724 39.7528ZM338.019 48.4V75H340.019V48.4H338.019ZM339.019 74H323.419V76H339.019V74ZM324.419 75V21.2H322.419V75H324.419ZM323.419 22.2H338.319V20.2H323.419V22.2ZM337.319 21.2V36.1H339.319V21.2H337.319ZM339.168 35.5717L336.368 31.0717L334.67 32.1283L337.47 36.6283L339.168 35.5717ZM336.4 32.0731C338.24 28.6462 340.865 26.0214 344.292 24.181L343.346 22.419C339.573 24.4453 336.664 27.3538 334.638 31.1269L336.4 32.0731ZM344.292 24.181C347.729 22.3352 351.663 21.4 356.119 21.4V19.4C351.375 19.4 347.109 20.3982 343.346 22.419L344.292 24.181ZM402.35 72.4L401.852 73.2674L401.863 73.2735L402.35 72.4ZM392.65 62.7L391.779 63.1916L391.785 63.2021L392.65 62.7ZM392.65 33.4L391.785 32.8978L391.779 32.9084L392.65 33.4ZM402.35 23.8L401.863 22.9265L402.35 23.8ZM427.95 23.4L428.457 22.5381L427.95 23.4ZM435.85 32.5L436.759 32.0828L435.85 32.5ZM435.95 63.7L436.864 64.1048L436.867 64.0993L435.95 63.7ZM428.15 72.8L427.643 71.938L427.635 71.9425L428.15 72.8ZM425.65 61.2L425.148 60.3352L425.65 61.2ZM430.55 56.1L429.677 55.6122L429.672 55.6211L430.55 56.1ZM430.55 40.1L429.672 40.5788L429.678 40.589L429.683 40.599L430.55 40.1ZM425.65 35L425.148 35.8648L425.65 35ZM411.75 35L412.252 35.8648L411.75 35ZM406.75 40.1L405.883 39.601L405.878 39.611L405.872 39.6211L406.75 40.1ZM406.75 56.1L405.866 56.5679L405.875 56.5836L405.883 56.599L406.75 56.1ZM411.75 61.2L412.252 60.3352L411.75 61.2ZM432.85 75H431.85V76H432.85V75ZM432.85 64L431.85 63.9813L431.85 63.9906V64H432.85ZM433.15 48L434.15 48.0187L434.151 47.978L434.148 47.9372L433.15 48ZM432.15 32.1H431.15V32.1314L431.152 32.1628L432.15 32.1ZM432.15 0.799995V-0.200005H431.15V0.799995H432.15ZM447.75 0.799995H448.75V-0.200005H447.75V0.799995ZM447.75 75V76H448.75V75H447.75ZM416.05 74.8C411.138 74.8 406.742 73.703 402.837 71.5265L401.863 73.2735C406.092 75.6303 410.828 76.8 416.05 76.8V74.8ZM402.848 71.5326C398.936 69.2885 395.828 66.1824 393.515 62.1979L391.785 63.2021C394.272 67.4842 397.63 70.8449 401.852 73.2674L402.848 71.5326ZM393.521 62.2084C391.286 58.25 390.15 53.5589 390.15 48.1H388.15C388.15 53.8411 389.347 58.8833 391.779 63.1916L393.521 62.2084ZM390.15 48.1C390.15 42.5722 391.287 37.8483 393.521 33.8916L391.779 32.9084C389.346 37.2184 388.15 42.2945 388.15 48.1H390.15ZM393.515 33.9021C395.827 29.92 398.932 26.8502 402.837 24.6735L401.863 22.9265C397.635 25.2831 394.273 28.6134 391.785 32.8979L393.515 33.9021ZM402.837 24.6735C406.742 22.497 411.138 21.4 416.05 21.4V19.4C410.828 19.4 406.092 20.5697 401.863 22.9265L402.837 24.6735ZM416.05 21.4C420.432 21.4 424.218 22.3651 427.443 24.2619L428.457 22.5381C424.882 20.4349 420.735 19.4 416.05 19.4V21.4ZM427.443 24.2619C430.644 26.1447 433.148 29.0104 434.941 32.9172L436.759 32.0828C434.819 27.8562 432.056 24.6553 428.457 22.5381L427.443 24.2619ZM434.941 32.9172C436.728 36.8104 437.65 41.855 437.65 48.1H439.65C439.65 41.6783 438.705 36.3229 436.759 32.0828L434.941 32.9172ZM437.65 48.1C437.65 54.2793 436.761 59.3323 435.033 63.3007L436.867 64.0993C438.739 59.801 439.65 54.454 439.65 48.1H437.65ZM435.036 63.2952C433.309 67.1961 430.84 70.0574 427.643 71.9381L428.657 73.6619C432.26 71.5426 434.991 68.3373 436.864 64.1047L435.036 63.2952ZM427.635 71.9425C424.488 73.8309 420.642 74.8 416.05 74.8V76.8C420.925 76.8 425.145 75.7691 428.664 73.6575L427.635 71.9425ZM418.75 64C421.449 64 423.924 63.3587 426.152 62.0648L425.148 60.3352C423.243 61.4413 421.118 62 418.75 62V64ZM426.152 62.0648C428.385 60.7684 430.145 58.9313 431.428 56.5788L429.672 55.6211C428.555 57.6687 427.048 59.2316 425.148 60.3352L426.152 62.0648ZM431.423 56.5878C432.787 54.1471 433.45 51.3064 433.45 48.1H431.45C431.45 51.0269 430.846 53.5195 429.677 55.6122L431.423 56.5878ZM433.45 48.1C433.45 44.8322 432.789 41.9846 431.417 39.601L429.683 40.599C430.844 42.6154 431.45 45.1011 431.45 48.1H433.45ZM431.428 39.6211C430.145 37.2687 428.385 35.4316 426.152 34.1352L425.148 35.8648C427.048 36.9684 428.555 38.5313 429.672 40.5788L431.428 39.6211ZM426.152 34.1352C423.924 32.8413 421.449 32.2 418.75 32.2V34.2C421.118 34.2 423.243 34.7587 425.148 35.8648L426.152 34.1352ZM418.75 32.2C415.99 32.2 413.48 32.8389 411.248 34.1352L412.252 35.8648C414.153 34.7611 416.31 34.2 418.75 34.2V32.2ZM411.248 34.1352C409.02 35.4286 407.232 37.2591 405.883 39.601L407.617 40.599C408.802 38.5409 410.346 36.9714 412.252 35.8648L411.248 34.1352ZM405.872 39.6211C404.574 42.0004 403.95 44.8405 403.95 48.1H405.95C405.95 45.0928 406.526 42.5996 407.628 40.5788L405.872 39.6211ZM403.95 48.1C403.95 51.298 404.576 54.1314 405.866 56.5679L407.634 55.6321C406.524 53.5353 405.95 51.0353 405.95 48.1H403.95ZM405.883 56.599C407.232 58.9409 409.02 60.7714 411.248 62.0648L412.252 60.3352C410.346 59.2286 408.802 57.6591 407.617 55.601L405.883 56.599ZM411.248 62.0648C413.48 63.3611 415.99 64 418.75 64V62C416.31 62 414.153 61.4389 412.252 60.3352L411.248 62.0648ZM433.85 75V64H431.85V75H433.85ZM433.85 64.0187L434.15 48.0187L432.15 47.9813L431.85 63.9813L433.85 64.0187ZM434.148 47.9372L433.148 32.0372L431.152 32.1628L432.152 48.0628L434.148 47.9372ZM433.15 32.1V0.799995H431.15V32.1H433.15ZM432.15 1.8H447.75V-0.200005H432.15V1.8ZM446.75 0.799995V75H448.75V0.799995H446.75ZM447.75 74H432.85V76H447.75V74ZM0.3 175H-0.7V176H0.3V175ZM0.3 105V104H-0.7V105H0.3ZM52.2 109.4L51.7487 110.292L51.7569 110.296L52.2 109.4ZM65.8 121.5L64.9532 122.032L65.8 121.5ZM65.8 158.5L66.6468 159.032L66.6498 159.027L65.8 158.5ZM52.2 170.7L52.6431 171.597L52.6513 171.592L52.2 170.7ZM16.5 161.7H15.5V162.7H16.5V161.7ZM43.4 159.1L43.8542 159.991L43.8608 159.987L43.4 159.1ZM51.4 151.5L50.5394 150.991L50.5355 150.997L50.5318 151.004L51.4 151.5ZM51.4 128.5L50.5318 128.996L50.5378 129.007L50.5441 129.017L51.4 128.5ZM43.4 121L42.9321 121.884L42.9424 121.889L42.9528 121.894L43.4 121ZM16.5 118.3V117.3H15.5V118.3H16.5ZM1.3 175V105H-0.7V175H1.3ZM0.3 106H32.1V104H0.3V106ZM32.1 106C39.5697 106 46.1105 107.441 51.7487 110.292L52.6513 108.508C46.6895 105.492 39.8303 104 32.1 104V106ZM51.7569 110.296C57.4005 113.086 61.7902 116.997 64.9532 122.032L66.6468 120.968C63.2765 115.603 58.5995 111.447 52.6431 108.504L51.7569 110.296ZM64.9532 122.032C68.1045 127.048 69.7 133.024 69.7 140H71.7C71.7 132.709 70.0289 126.352 66.6468 120.968L64.9532 122.032ZM69.7 140C69.7 146.907 68.1055 152.886 64.9502 157.973L66.6498 159.027C70.0278 153.581 71.7 147.226 71.7 140H69.7ZM64.9532 157.968C61.7889 163.005 57.3964 166.951 51.7487 169.808L52.6513 171.592C58.6036 168.582 63.2778 164.395 66.6468 159.032L64.9532 157.968ZM51.7569 169.804C46.1168 172.591 39.573 174 32.1 174V176C39.827 176 46.6832 174.542 52.6431 171.596L51.7569 169.804ZM32.1 174H0.3V176H32.1V174ZM16.5 162.7H31.3V160.7H16.5V162.7ZM31.3 162.7C36.0899 162.7 40.2856 161.81 43.8542 159.991L42.9458 158.209C39.7144 159.856 35.8434 160.7 31.3 160.7V162.7ZM43.8608 159.987C47.4912 158.102 50.3024 155.436 52.2682 151.996L50.5318 151.004C48.7642 154.097 46.2421 156.498 42.9392 158.213L43.8608 159.987ZM52.2606 152.009C54.2989 148.565 55.3 144.55 55.3 140H53.3C53.3 144.25 52.3678 147.901 50.5394 150.991L52.2606 152.009ZM55.3 140C55.3 135.387 54.3004 131.367 52.2559 127.983L50.5441 129.017C52.3663 132.033 53.3 135.68 53.3 140H55.3ZM52.2682 128.004C50.3005 124.56 47.4848 121.924 43.8472 120.106L42.9528 121.894C46.2485 123.542 48.7661 125.906 50.5318 128.996L52.2682 128.004ZM43.8679 120.116C40.2961 118.225 36.0954 117.3 31.3 117.3V119.3C35.838 119.3 39.7039 120.175 42.9321 121.884L43.8679 120.116ZM31.3 117.3H16.5V119.3H31.3V117.3ZM15.5 118.3V161.7H17.5V118.3H15.5ZM92.3172 172.2L91.8546 173.087L91.8598 173.089L92.3172 172.2ZM81.6172 162.4L80.7609 162.917L80.7646 162.923L81.6172 162.4ZM81.5172 133.8L80.6609 133.283L80.6585 133.288L81.5172 133.8ZM91.8172 124L92.2913 124.881L92.3017 124.875L91.8172 124ZM120.717 123.8L120.242 124.68L120.251 124.684L120.259 124.689L120.717 123.8ZM130.817 133.4L129.955 133.906L129.958 133.912L130.817 133.4ZM134.417 150.4L135.413 150.491L135.414 150.483L134.417 150.4ZM134.217 152.5V153.5H135.122L135.212 152.6L134.217 152.5ZM90.5172 152.5H89.5172V153.5H90.5172V152.5ZM90.5172 143.4V142.4H89.5172V143.4H90.5172ZM126.017 143.4L126.428 144.312L126.017 142.4V143.4ZM120.017 146.1H119.017V147.647L120.428 147.012L120.017 146.1ZM118.317 138.8L117.44 139.281L118.317 138.8ZM113.617 134L113.103 134.857L113.113 134.864L113.124 134.87L113.617 134ZM99.5172 134L100.01 134.87L100.019 134.865L99.5172 134ZM94.8172 138.9L95.6941 139.381L95.7003 139.369L94.8172 138.9ZM95.0172 156.5L94.1442 156.988L94.1528 157.003L94.162 157.018L95.0172 156.5ZM100.517 161.6L100.06 162.489L100.075 162.497L100.09 162.504L100.517 161.6ZM116.417 162L116.051 161.07L116.041 161.074L116.417 162ZM122.417 158.1L123.152 157.422L122.46 156.671L121.724 157.38L122.417 158.1ZM130.717 167.1L131.468 167.761L132.063 167.085L131.452 166.422L130.717 167.1ZM121.417 173.6L121.783 174.531L121.79 174.528L121.797 174.525L121.417 173.6ZM108.517 174.8C102.516 174.8 97.2776 173.627 92.7745 171.311L91.8598 173.089C96.6901 175.573 102.252 176.8 108.517 176.8V174.8ZM92.7798 171.313C88.3286 168.991 84.9018 165.845 82.4698 161.877L80.7646 162.923C83.3992 167.221 87.1058 170.609 91.8546 173.087L92.7798 171.313ZM82.4735 161.883C80.0423 157.853 78.8172 153.268 78.8172 148.1H76.8172C76.8172 153.599 78.1254 158.547 80.7609 162.916L82.4735 161.883ZM78.8172 148.1C78.8172 142.858 80.0126 138.273 82.3759 134.312L80.6585 133.288C78.0884 137.594 76.8172 142.542 76.8172 148.1H78.8172ZM82.3735 134.316C84.814 130.27 88.1151 127.129 92.2913 124.88L91.3431 123.12C86.8526 125.537 83.2871 128.93 80.6609 133.284L82.3735 134.316ZM92.3017 124.875C96.4718 122.565 101.202 121.4 106.517 121.4V119.4C100.899 119.4 95.8293 120.635 91.3327 123.125L92.3017 124.875ZM106.517 121.4C111.636 121.4 116.203 122.5 120.242 124.68L121.192 122.92C116.832 120.567 111.932 119.4 106.517 119.4V121.4ZM120.259 124.689C124.355 126.801 127.583 129.867 129.955 133.906L131.679 132.894C129.118 128.533 125.613 125.199 121.175 122.911L120.259 124.689ZM129.958 133.912C132.315 137.862 133.517 142.643 133.517 148.3H135.517C135.517 142.357 134.252 137.205 131.676 132.888L129.958 133.912ZM133.517 148.3C133.517 148.865 133.486 149.536 133.421 150.317L135.414 150.483C135.482 149.664 135.517 148.935 135.517 148.3H133.517ZM133.421 150.309C133.355 151.04 133.288 151.737 133.222 152.4L135.212 152.6C135.279 151.93 135.346 151.227 135.413 150.491L133.421 150.309ZM134.217 151.5H90.5172V153.5H134.217V151.5ZM91.5172 152.5V143.4H89.5172V152.5H91.5172ZM90.5172 144.4H126.017V142.4H90.5172V144.4ZM125.607 142.488L119.607 145.188L120.428 147.012L126.428 144.312L125.607 142.488ZM121.017 146.1C121.017 143.163 120.422 140.559 119.194 138.319L117.44 139.281C118.479 141.175 119.017 143.436 119.017 146.1H121.017ZM119.194 138.319C117.974 136.094 116.276 134.357 114.11 133.13L113.124 134.87C114.958 135.909 116.394 137.373 117.44 139.281L119.194 138.319ZM114.132 133.143C111.955 131.837 109.439 131.2 106.617 131.2V133.2C109.129 133.2 111.279 133.763 113.103 134.857L114.132 133.143ZM106.617 131.2C103.795 131.2 101.251 131.837 99.0151 133.135L100.019 134.865C101.916 133.763 104.106 133.2 106.617 133.2V131.2ZM99.0242 133.13C96.85 134.362 95.1519 136.138 93.9341 138.431L95.7003 139.369C96.7491 137.395 98.1843 135.905 100.01 134.87L99.0242 133.13ZM93.9404 138.419C92.7105 140.662 92.1172 143.301 92.1172 146.3H94.1172C94.1172 143.565 94.6572 141.271 95.694 139.381L93.9404 138.419ZM92.1172 146.3V148.7H94.1172V146.3H92.1172ZM92.1172 148.7C92.1172 151.782 92.7839 154.554 94.1442 156.988L95.8901 156.012C94.7171 153.913 94.1172 151.485 94.1172 148.7H92.1172ZM94.162 157.018C95.5931 159.38 97.5656 161.207 100.06 162.489L100.975 160.711C98.8021 159.593 97.1079 158.02 95.8724 155.982L94.162 157.018ZM100.09 162.504C102.648 163.712 105.599 164.3 108.917 164.3V162.3C105.835 162.3 103.186 161.754 100.944 160.696L100.09 162.504ZM108.917 164.3C111.882 164.3 114.515 163.852 116.794 162.926L116.041 161.074C114.052 161.881 111.685 162.3 108.917 162.3V164.3ZM116.784 162.93C119.112 162.013 121.222 160.639 123.111 158.82L121.724 157.38C120.012 159.027 118.122 160.254 116.051 161.07L116.784 162.93ZM121.682 158.778L129.982 167.778L131.452 166.422L123.152 157.422L121.682 158.778ZM129.967 166.439C127.61 169.114 124.64 171.195 121.037 172.675L121.797 174.525C125.661 172.938 128.891 170.686 131.468 167.761L129.967 166.439ZM121.052 172.669C117.457 174.082 113.285 174.8 108.517 174.8V176.8C113.483 176.8 117.911 176.052 121.783 174.531L121.052 172.669ZM158.527 175L157.605 175.387L157.862 176H158.527V175ZM135.927 121.2V120.2H134.422L135.005 121.587L135.927 121.2ZM152.027 121.2L152.953 120.824L152.7 120.2H152.027V121.2ZM170.827 167.5V168.5H172.312L171.753 167.124L170.827 167.5ZM162.827 167.5L161.905 167.112L161.32 168.5H162.827V167.5ZM182.327 121.2V120.2H181.663L181.405 120.812L182.327 121.2ZM197.327 121.2L198.248 121.589L198.834 120.2H197.327V121.2ZM174.627 175V176H175.29L175.548 175.389L174.627 175ZM159.449 174.613L136.849 120.813L135.005 121.587L157.605 175.387L159.449 174.613ZM135.927 122.2H152.027V120.2H135.927V122.2ZM151.1 121.576L169.9 167.876L171.753 167.124L152.953 120.824L151.1 121.576ZM170.827 166.5H162.827V168.5H170.827V166.5ZM163.748 167.888L183.248 121.588L181.405 120.812L161.905 167.112L163.748 167.888ZM182.327 122.2H197.327V120.2H182.327V122.2ZM196.405 120.811L173.705 174.611L175.548 175.389L198.248 121.589L196.405 120.811ZM174.627 174H158.527V176H174.627V174ZM212.727 172.2L212.265 173.087L212.27 173.089L212.727 172.2ZM202.027 162.4L201.171 162.917L201.175 162.923L202.027 162.4ZM201.927 133.8L201.071 133.283L201.069 133.288L201.927 133.8ZM212.227 124L212.701 124.881L212.712 124.875L212.227 124ZM241.127 123.8L240.652 124.68L240.661 124.684L240.669 124.689L241.127 123.8ZM251.227 133.4L250.365 133.906L250.369 133.912L251.227 133.4ZM254.827 150.4L255.823 150.491L255.824 150.483L254.827 150.4ZM254.627 152.5V153.5H255.532L255.622 152.6L254.627 152.5ZM210.927 152.5H209.927V153.5H210.927V152.5ZM210.927 143.4V142.4H209.927V143.4H210.927ZM246.427 143.4L246.838 144.312L246.427 142.4V143.4ZM240.427 146.1H239.427V147.647L240.838 147.012L240.427 146.1ZM238.727 138.8L237.851 139.281L238.727 138.8ZM234.027 134L233.513 134.857L233.524 134.864L233.534 134.87L234.027 134ZM219.927 134L220.42 134.87L220.429 134.865L219.927 134ZM215.227 138.9L216.104 139.381L216.11 139.369L215.227 138.9ZM215.427 156.5L214.554 156.988L214.563 157.003L214.572 157.018L215.427 156.5ZM220.927 161.6L220.47 162.489L220.485 162.497L220.5 162.504L220.927 161.6ZM236.827 162L236.461 161.07L236.451 161.074L236.827 162ZM242.827 158.1L243.562 157.422L242.87 156.671L242.134 157.38L242.827 158.1ZM251.127 167.1L251.878 167.761L252.474 167.085L251.862 166.422L251.127 167.1ZM241.827 173.6L242.193 174.531L242.2 174.528L242.207 174.525L241.827 173.6ZM228.927 174.8C222.926 174.8 217.688 173.627 213.185 171.311L212.27 173.089C217.1 175.573 222.662 176.8 228.927 176.8V174.8ZM213.19 171.313C208.739 168.991 205.312 165.845 202.88 161.877L201.175 162.923C203.809 167.221 207.516 170.609 212.265 173.087L213.19 171.313ZM202.884 161.883C200.452 157.853 199.227 153.268 199.227 148.1H197.227C197.227 153.599 198.536 158.547 201.171 162.916L202.884 161.883ZM199.227 148.1C199.227 142.858 200.423 138.273 202.786 134.312L201.069 133.288C198.499 137.594 197.227 142.542 197.227 148.1H199.227ZM202.784 134.316C205.224 130.27 208.525 127.129 212.701 124.88L211.753 123.12C207.263 125.537 203.697 128.93 201.071 133.284L202.784 134.316ZM212.712 124.875C216.882 122.565 221.612 121.4 226.927 121.4V119.4C221.309 119.4 216.239 120.635 211.743 123.125L212.712 124.875ZM226.927 121.4C232.046 121.4 236.613 122.5 240.652 124.68L241.602 122.92C237.242 120.567 232.342 119.4 226.927 119.4V121.4ZM240.669 124.689C244.765 126.801 247.993 129.867 250.365 133.906L252.09 132.894C249.529 128.533 246.023 125.199 241.586 122.911L240.669 124.689ZM250.369 133.912C252.726 137.862 253.927 142.643 253.927 148.3H255.927C255.927 142.357 254.663 137.205 252.086 132.888L250.369 133.912ZM253.927 148.3C253.927 148.865 253.896 149.536 253.831 150.317L255.824 150.483C255.892 149.664 255.927 148.935 255.927 148.3H253.927ZM253.831 150.309C253.765 151.04 253.699 151.737 253.632 152.4L255.622 152.6C255.689 151.93 255.756 151.227 255.823 150.491L253.831 150.309ZM254.627 151.5H210.927V153.5H254.627V151.5ZM211.927 152.5V143.4H209.927V152.5H211.927ZM210.927 144.4H246.427V142.4H210.927V144.4ZM246.017 142.488L240.017 145.188L240.838 147.012L246.838 144.312L246.017 142.488ZM241.427 146.1C241.427 143.163 240.832 140.559 239.604 138.319L237.851 139.281C238.889 141.175 239.427 143.436 239.427 146.1H241.427ZM239.604 138.319C238.384 136.094 236.686 134.357 234.52 133.13L233.534 134.87C235.368 135.909 236.804 137.373 237.851 139.281L239.604 138.319ZM234.542 133.143C232.365 131.837 229.849 131.2 227.027 131.2V133.2C229.539 133.2 231.689 133.763 233.513 134.857L234.542 133.143ZM227.027 131.2C224.205 131.2 221.662 131.837 219.425 133.135L220.429 134.865C222.326 133.763 224.516 133.2 227.027 133.2V131.2ZM219.434 133.13C217.26 134.362 215.562 136.138 214.344 138.431L216.11 139.369C217.159 137.395 218.594 135.905 220.42 134.87L219.434 133.13ZM214.351 138.419C213.121 140.662 212.527 143.301 212.527 146.3H214.527C214.527 143.565 215.067 141.271 216.104 139.381L214.351 138.419ZM212.527 146.3V148.7H214.527V146.3H212.527ZM212.527 148.7C212.527 151.782 213.194 154.554 214.554 156.988L216.3 156.012C215.127 153.913 214.527 151.485 214.527 148.7H212.527ZM214.572 157.018C216.003 159.38 217.976 161.207 220.47 162.489L221.385 160.711C219.212 159.593 217.518 158.02 216.283 155.982L214.572 157.018ZM220.5 162.504C223.058 163.712 226.01 164.3 229.327 164.3V162.3C226.245 162.3 223.596 161.754 221.354 160.696L220.5 162.504ZM229.327 164.3C232.293 164.3 234.925 163.852 237.204 162.926L236.451 161.074C234.463 161.881 232.096 162.3 229.327 162.3V164.3ZM237.194 162.93C239.522 162.013 241.632 160.639 243.521 158.82L242.134 157.38C240.423 159.027 238.532 160.254 236.461 161.07L237.194 162.93ZM242.092 158.778L250.392 167.778L251.862 166.422L243.562 157.422L242.092 158.778ZM250.377 166.439C248.02 169.114 245.05 171.195 241.447 172.675L242.207 174.525C246.071 172.938 249.301 170.686 251.878 167.761L250.377 166.439ZM241.462 172.669C237.867 174.082 233.695 174.8 228.927 174.8V176.8C233.893 176.8 238.321 176.052 242.193 174.531L241.462 172.669ZM265.313 175H264.313V176H265.313V175ZM265.313 100.8V99.8H264.313V100.8H265.313ZM280.913 100.8H281.913V99.8H280.913V100.8ZM280.913 175V176H281.913V175H280.913ZM266.313 175V100.8H264.313V175H266.313ZM265.313 101.8H280.913V99.8H265.313V101.8ZM279.913 100.8V175H281.913V100.8H279.913ZM280.913 174H265.313V176H280.913V174ZM305.691 172.2L305.213 173.078L305.218 173.081L305.691 172.2ZM295.191 162.4L294.335 162.916L294.34 162.925L294.345 162.932L295.191 162.4ZM295.191 133.8L294.341 133.274L294.339 133.277L295.191 133.8ZM305.691 124L306.16 124.883L306.165 124.881L305.691 124ZM336.191 124L335.718 124.881L335.728 124.886L336.191 124ZM346.691 162.4L347.544 162.923L347.548 162.916L346.691 162.4ZM336.191 172.2L335.718 171.319L336.191 172.2ZM327.991 161.2L328.494 162.065L327.991 161.2ZM332.891 156.1L333.769 156.579L333.775 156.568L332.891 156.1ZM332.891 140.1L332.014 140.579L332.891 140.1ZM327.991 135L327.489 135.865L327.991 135ZM313.991 135L314.494 135.865L313.991 135ZM308.991 140.1L308.125 139.601L308.119 139.611L308.114 139.621L308.991 140.1ZM308.991 156.1L308.108 156.568L308.116 156.584L308.125 156.599L308.991 156.1ZM313.991 161.2L314.494 160.335L313.991 161.2ZM320.991 174.8C315.401 174.8 310.468 173.631 306.165 171.319L305.218 173.081C309.848 175.569 315.115 176.8 320.991 176.8V174.8ZM306.17 171.322C301.916 169.002 298.544 165.852 296.038 161.868L294.345 162.932C297.038 167.214 300.667 170.598 305.213 173.078L306.17 171.322ZM296.048 161.883C293.617 157.853 292.391 153.268 292.391 148.1H290.391C290.391 153.599 291.7 158.547 294.335 162.916L296.048 161.883ZM292.391 148.1C292.391 142.863 293.618 138.281 296.044 134.323L294.339 133.277C291.698 137.585 290.391 142.537 290.391 148.1H292.391ZM296.042 134.326C298.548 130.278 301.915 127.134 306.16 124.883L305.223 123.117C300.668 125.532 297.035 128.922 294.341 133.274L296.042 134.326ZM306.165 124.881C310.468 122.569 315.401 121.4 320.991 121.4V119.4C315.115 119.4 309.848 120.631 305.218 123.119L306.165 124.881ZM320.991 121.4C326.513 121.4 331.413 122.568 335.718 124.881L336.665 123.119C332.036 120.632 326.804 119.4 320.991 119.4V121.4ZM335.728 124.886C340.041 127.139 343.404 130.25 345.839 134.223L347.544 133.177C344.912 128.884 341.275 125.527 336.654 123.114L335.728 124.886ZM345.839 134.223C348.264 138.179 349.491 142.794 349.491 148.1H351.491C351.491 142.473 350.186 137.487 347.544 133.177L345.839 134.223ZM349.491 148.1C349.491 153.268 348.266 157.853 345.835 161.884L347.548 162.916C350.183 158.547 351.491 153.599 351.491 148.1H349.491ZM345.839 161.877C343.402 165.853 340.036 168.999 335.718 171.319L336.665 173.081C341.28 170.601 344.914 167.214 347.544 162.923L345.839 161.877ZM335.718 171.319C331.413 173.632 326.513 174.8 320.991 174.8V176.8C326.804 176.8 332.036 175.568 336.665 173.081L335.718 171.319ZM320.991 164C323.752 164 326.261 163.361 328.494 162.065L327.489 160.335C325.588 161.439 323.431 162 320.991 162V164ZM328.494 162.065C330.726 160.768 332.486 158.931 333.769 156.579L332.014 155.621C330.897 157.669 329.39 159.232 327.489 160.335L328.494 162.065ZM333.775 156.568C335.065 154.131 335.691 151.298 335.691 148.1H333.691C333.691 151.035 333.118 153.535 332.008 155.632L333.775 156.568ZM335.691 148.1C335.691 144.841 335.067 142 333.769 139.621L332.014 140.579C333.116 142.6 333.691 145.093 333.691 148.1H335.691ZM333.769 139.621C332.486 137.269 330.726 135.432 328.494 134.135L327.489 135.865C329.39 136.968 330.897 138.531 332.014 140.579L333.769 139.621ZM328.494 134.135C326.261 132.839 323.752 132.2 320.991 132.2V134.2C323.431 134.2 325.588 134.761 327.489 135.865L328.494 134.135ZM320.991 132.2C318.231 132.2 315.722 132.839 313.489 134.135L314.494 135.865C316.394 134.761 318.552 134.2 320.991 134.2V132.2ZM313.489 134.135C311.262 135.429 309.473 137.259 308.125 139.601L309.858 140.599C311.043 138.541 312.588 136.971 314.494 135.865L313.489 134.135ZM308.114 139.621C306.816 142 306.191 144.841 306.191 148.1H308.191C308.191 145.093 308.767 142.6 309.869 140.579L308.114 139.621ZM306.191 148.1C306.191 151.298 306.818 154.131 308.108 156.568L309.875 155.632C308.765 153.535 308.191 151.035 308.191 148.1H306.191ZM308.125 156.599C309.473 158.941 311.262 160.771 313.489 162.065L314.494 160.335C312.588 159.229 311.043 157.659 309.858 155.601L308.125 156.599ZM313.489 162.065C315.722 163.361 318.231 164 320.991 164V162C318.552 162 316.394 161.439 314.494 160.335L313.489 162.065ZM380.819 172.8L381.326 171.938L380.819 172.8ZM372.819 163.7L371.907 164.112L371.911 164.121L371.916 164.129L372.819 163.7ZM372.719 132.5L373.633 132.905L372.719 132.5ZM380.519 123.4L380.012 122.538L380.519 123.4ZM406.319 123.9L405.815 124.764L405.823 124.769L405.832 124.773L406.319 123.9ZM415.919 133.5L415.048 133.992L415.054 134.002L415.919 133.5ZM415.919 162.8L415.054 162.298L415.048 162.308L415.919 162.8ZM406.319 172.4L405.832 171.527L405.826 171.53L406.319 172.4ZM360.919 194.4H359.919V195.4H360.919V194.4ZM360.919 121.2V120.2H359.919V121.2H360.919ZM375.819 121.2H376.819V120.2H375.819V121.2ZM375.819 132.2L376.819 132.219L376.819 132.209V132.2H375.819ZM375.519 148.2L374.519 148.181L374.518 148.222L374.521 148.263L375.519 148.2ZM376.519 164.1H377.519V164.069L377.517 164.037L376.519 164.1ZM376.519 194.4V195.4H377.519V194.4H376.519ZM396.919 161.2L396.417 160.335L396.41 160.339L396.404 160.342L396.919 161.2ZM401.819 156.1L400.946 155.612L400.941 155.621L401.819 156.1ZM401.819 140.1L400.941 140.579L400.946 140.589L400.952 140.599L401.819 140.1ZM396.919 135L396.404 135.857L396.41 135.861L396.417 135.865L396.919 135ZM383.019 135L383.521 135.865L383.019 135ZM378.119 140.1L378.997 140.579L378.119 140.1ZM378.119 156.1L377.235 156.568L377.241 156.579L378.119 156.1ZM383.019 161.2L383.521 160.335L383.019 161.2ZM392.719 174.8C388.337 174.8 384.55 173.835 381.326 171.938L380.312 173.662C383.887 175.765 388.034 176.8 392.719 176.8V174.8ZM381.326 171.938C378.122 170.053 375.582 167.183 373.722 163.271L371.916 164.129C373.922 168.35 376.716 171.547 380.312 173.662L381.326 171.938ZM373.73 163.288C371.94 159.324 371.019 154.276 371.019 148.1H369.019C369.019 154.458 369.964 159.809 371.907 164.112L373.73 163.288ZM371.019 148.1C371.019 141.851 371.908 136.802 373.633 132.905L371.804 132.095C369.929 136.331 369.019 141.682 369.019 148.1H371.019ZM373.633 132.905C375.36 129.004 377.829 126.143 381.026 124.262L380.012 122.538C376.409 124.657 373.678 127.863 371.804 132.095L373.633 132.905ZM381.026 124.262C384.244 122.369 388.128 121.4 392.719 121.4V119.4C387.843 119.4 383.594 120.431 380.012 122.538L381.026 124.262ZM392.719 121.4C397.626 121.4 401.982 122.528 405.815 124.764L406.823 123.036C402.656 120.605 397.945 119.4 392.719 119.4V121.4ZM405.832 124.773C409.735 126.949 412.803 130.015 415.048 133.992L416.79 133.008C414.368 128.718 411.036 125.385 406.806 123.027L405.832 124.773ZM415.054 134.002C417.351 137.959 418.519 142.646 418.519 148.1H420.519C420.519 142.354 419.286 137.308 416.784 132.998L415.054 134.002ZM418.519 148.1C418.519 153.623 417.35 158.343 415.054 162.298L416.784 163.302C419.287 158.99 420.519 153.91 420.519 148.1H418.519ZM415.048 162.308C412.803 166.285 409.735 169.351 405.832 171.527L406.806 173.273C411.036 170.915 414.368 167.582 416.79 163.292L415.048 162.308ZM405.826 171.53C401.991 173.703 397.631 174.8 392.719 174.8V176.8C397.94 176.8 402.646 175.63 406.812 173.27L405.826 171.53ZM361.919 194.4V121.2H359.919V194.4H361.919ZM360.919 122.2H375.819V120.2H360.919V122.2ZM374.819 121.2V132.2H376.819V121.2H374.819ZM374.819 132.181L374.519 148.181L376.519 148.219L376.819 132.219L374.819 132.181ZM374.521 148.263L375.521 164.163L377.517 164.037L376.517 148.137L374.521 148.263ZM375.519 164.1V194.4H377.519V164.1H375.519ZM376.519 193.4H360.919V195.4H376.519V193.4ZM390.019 164C392.779 164 395.26 163.361 397.433 162.057L396.404 160.342C394.577 161.439 392.459 162 390.019 162V164ZM397.421 162.065C399.654 160.768 401.414 158.931 402.697 156.579L400.941 155.621C399.824 157.669 398.317 159.232 396.417 160.335L397.421 162.065ZM402.692 156.588C404.056 154.147 404.719 151.306 404.719 148.1H402.719C402.719 151.027 402.115 153.52 400.946 155.612L402.692 156.588ZM404.719 148.1C404.719 144.832 404.058 141.985 402.685 139.601L400.952 140.599C402.113 142.615 402.719 145.101 402.719 148.1H404.719ZM402.697 139.621C401.414 137.269 399.654 135.432 397.421 134.135L396.417 135.865C398.317 136.968 399.824 138.531 400.941 140.579L402.697 139.621ZM397.433 134.143C395.26 132.839 392.779 132.2 390.019 132.2V134.2C392.459 134.2 394.577 134.761 396.404 135.857L397.433 134.143ZM390.019 132.2C387.258 132.2 384.749 132.839 382.517 134.135L383.521 135.865C385.422 134.761 387.579 134.2 390.019 134.2V132.2ZM382.517 134.135C380.284 135.432 378.524 137.269 377.241 139.621L378.997 140.579C380.113 138.531 381.62 136.968 383.521 135.865L382.517 134.135ZM377.241 139.621C375.943 142 375.319 144.841 375.319 148.1H377.319C377.319 145.093 377.894 142.6 378.997 140.579L377.241 139.621ZM375.319 148.1C375.319 151.298 375.945 154.131 377.235 156.568L379.003 155.632C377.892 153.535 377.319 151.035 377.319 148.1H375.319ZM377.241 156.579C378.524 158.931 380.284 160.768 382.517 162.065L383.521 160.335C381.62 159.232 380.113 157.669 378.997 155.621L377.241 156.579ZM382.517 162.065C384.749 163.361 387.258 164 390.019 164V162C387.579 162 385.422 161.439 383.521 160.335L382.517 162.065ZM510.162 123L509.693 123.883L509.704 123.889L509.714 123.894L510.162 123ZM517.962 130.8L517.078 131.267L517.083 131.277L517.088 131.287L517.962 130.8ZM520.862 175V176H521.862V175H520.862ZM505.262 175H504.262V176H505.262V175ZM502.562 137L503.316 136.343L502.562 137ZM488.862 135.5L489.347 136.374L489.36 136.367L489.372 136.36L488.862 135.5ZM484.662 140.1L485.562 140.536L484.662 140.1ZM483.162 175V176H484.162V175H483.162ZM467.562 175H466.562V176H467.562V175ZM464.862 137L464.096 137.643L464.102 137.65L464.108 137.657L464.862 137ZM451.262 135.5L451.747 136.374L451.76 136.367L451.772 136.36L451.262 135.5ZM447.062 140.1L447.962 140.536L447.062 140.1ZM445.562 175V176H446.562V175H445.562ZM429.962 175H428.962V176H429.962V175ZM429.962 121.2V120.2H428.962V121.2H429.962ZM444.862 121.2H445.862V120.2H444.862V121.2ZM444.862 135.9L444.024 136.446L445.862 139.268V135.9H444.862ZM442.062 131.6L441.171 131.146L440.908 131.661L441.224 132.146L442.062 131.6ZM449.962 123.3L450.443 124.177L450.449 124.173L449.962 123.3ZM474.662 124.2L474.093 125.023L474.102 125.029L474.11 125.034L474.662 124.2ZM482.062 135.6L481.799 136.565L483.417 137.006L483.035 135.372L482.062 135.6ZM476.562 134.1L475.643 133.706L475.19 134.762L476.299 135.065L476.562 134.1ZM485.162 124.1L484.637 123.249L484.63 123.253L485.162 124.1ZM498.862 121.4C502.99 121.4 506.591 122.238 509.693 123.883L510.63 122.117C507.199 120.296 503.267 119.4 498.862 119.4V121.4ZM509.714 123.894C512.847 125.461 515.301 127.904 517.078 131.267L518.846 130.333C516.889 126.629 514.143 123.872 510.609 122.106L509.714 123.894ZM517.088 131.287C518.913 134.559 519.862 138.843 519.862 144.2H521.862C521.862 138.624 520.877 133.974 518.835 130.313L517.088 131.287ZM519.862 144.2V175H521.862V144.2H519.862ZM520.862 174H505.262V176H520.862V174ZM506.262 175V146.6H504.262V175H506.262ZM506.262 146.6C506.262 142.158 505.344 138.672 503.316 136.343L501.808 137.657C503.379 139.461 504.262 142.375 504.262 146.6H506.262ZM503.316 136.343C501.289 134.016 498.457 132.9 494.962 132.9V134.9C498 134.9 500.234 135.85 501.808 137.657L503.316 136.343ZM494.962 132.9C492.531 132.9 490.319 133.474 488.352 134.64L489.372 136.36C491.004 135.393 492.859 134.9 494.962 134.9V132.9ZM488.376 134.626C486.376 135.737 484.841 137.435 483.762 139.664L485.562 140.536C486.483 138.632 487.748 137.263 489.347 136.374L488.376 134.626ZM483.762 139.664C482.675 141.909 482.162 144.705 482.162 148H484.162C484.162 144.895 484.648 142.424 485.562 140.536L483.762 139.664ZM482.162 148V175H484.162V148H482.162ZM483.162 174H467.562V176H483.162V174ZM468.562 175V146.6H466.562V175H468.562ZM468.562 146.6C468.562 142.158 467.644 138.672 465.616 136.343L464.108 137.657C465.679 139.461 466.562 142.375 466.562 146.6H468.562ZM465.628 136.357C463.665 134.016 460.855 132.9 457.362 132.9V134.9C460.401 134.9 462.592 135.85 464.096 137.643L465.628 136.357ZM457.362 132.9C454.931 132.9 452.719 133.474 450.752 134.64L451.772 136.36C453.404 135.393 455.259 134.9 457.362 134.9V132.9ZM450.776 134.626C448.776 135.737 447.241 137.435 446.162 139.664L447.962 140.536C448.883 138.632 450.148 137.263 451.747 136.374L450.776 134.626ZM446.162 139.664C445.075 141.909 444.562 144.705 444.562 148H446.562C446.562 144.895 447.048 142.424 447.962 140.536L446.162 139.664ZM444.562 148V175H446.562V148H444.562ZM445.562 174H429.962V176H445.562V174ZM430.962 175V121.2H428.962V175H430.962ZM429.962 122.2H444.862V120.2H429.962V122.2ZM443.862 121.2V135.9H445.862V121.2H443.862ZM445.7 135.354L442.9 131.054L441.224 132.146L444.024 136.446L445.7 135.354ZM442.953 132.054C444.734 128.554 447.23 125.941 450.443 124.177L449.48 122.423C445.894 124.393 443.122 127.312 441.171 131.146L442.953 132.054ZM450.449 124.173C453.751 122.332 457.513 121.4 461.762 121.4V119.4C457.21 119.4 453.106 120.402 449.475 122.427L450.449 124.173ZM461.762 121.4C466.515 121.4 470.611 122.617 474.093 125.023L475.23 123.377C471.379 120.716 466.875 119.4 461.762 119.4V121.4ZM474.11 125.034C477.593 127.335 479.935 130.896 481.088 135.828L483.035 135.372C481.788 130.038 479.197 125.998 475.213 123.366L474.11 125.034ZM482.325 134.635L476.825 133.135L476.299 135.065L481.799 136.565L482.325 134.635ZM477.481 134.494C479.199 130.484 481.929 127.308 485.693 124.947L484.63 123.253C480.528 125.826 477.524 129.316 475.643 133.706L477.481 134.494ZM485.687 124.951C489.514 122.591 493.896 121.4 498.862 121.4V119.4C493.561 119.4 488.809 120.676 484.637 123.249L485.687 124.951ZM545.735 172.2L545.273 173.087L545.278 173.089L545.735 172.2ZM535.035 162.4L534.179 162.917L534.183 162.923L535.035 162.4ZM534.935 133.8L534.079 133.283L534.076 133.288L534.935 133.8ZM545.235 124L545.709 124.881L545.72 124.875L545.235 124ZM574.135 123.8L573.66 124.68L573.669 124.684L573.677 124.689L574.135 123.8ZM584.235 133.4L583.373 133.906L583.376 133.912L584.235 133.4ZM587.835 150.4L588.831 150.491L588.832 150.483L587.835 150.4ZM587.635 152.5V153.5H588.54L588.63 152.6L587.635 152.5ZM543.935 152.5H542.935V153.5H543.935V152.5ZM543.935 143.4V142.4H542.935V143.4H543.935ZM579.435 143.4L579.846 144.312L579.435 142.4V143.4ZM573.435 146.1H572.435V147.647L573.846 147.012L573.435 146.1ZM571.735 138.8L570.858 139.281L571.735 138.8ZM567.035 134L566.521 134.857L566.531 134.864L566.542 134.87L567.035 134ZM552.935 134L553.428 134.87L553.437 134.865L552.935 134ZM548.235 138.9L549.112 139.381L549.118 139.369L548.235 138.9ZM548.435 156.5L547.562 156.988L547.571 157.003L547.58 157.018L548.435 156.5ZM553.935 161.6L553.478 162.489L553.493 162.497L553.508 162.504L553.935 161.6ZM569.835 162L569.469 161.07L569.459 161.074L569.835 162ZM575.835 158.1L576.57 157.422L575.878 156.671L575.142 157.38L575.835 158.1ZM584.135 167.1L584.885 167.761L585.481 167.085L584.87 166.422L584.135 167.1ZM574.835 173.6L575.201 174.531L575.208 174.528L575.215 174.525L574.835 173.6ZM561.935 174.8C555.934 174.8 550.696 173.627 546.193 171.311L545.278 173.089C550.108 175.573 555.67 176.8 561.935 176.8V174.8ZM546.198 171.313C541.747 168.991 538.32 165.845 535.888 161.877L534.183 162.923C536.817 167.221 540.524 170.609 545.273 173.087L546.198 171.313ZM535.891 161.883C533.46 157.853 532.235 153.268 532.235 148.1H530.235C530.235 153.599 531.543 158.547 534.179 162.916L535.891 161.883ZM532.235 148.1C532.235 142.858 533.431 138.273 535.794 134.312L534.076 133.288C531.506 137.594 530.235 142.542 530.235 148.1H532.235ZM535.791 134.316C538.232 130.27 541.533 127.129 545.709 124.88L544.761 123.12C540.271 125.537 536.705 128.93 534.079 133.284L535.791 134.316ZM545.72 124.875C549.89 122.565 554.62 121.4 559.935 121.4V119.4C554.317 119.4 549.247 120.635 544.751 123.125L545.72 124.875ZM559.935 121.4C565.054 121.4 569.621 122.5 573.66 124.68L574.61 122.92C570.25 120.567 565.35 119.4 559.935 119.4V121.4ZM573.677 124.689C577.773 126.801 581 129.867 583.373 133.906L585.097 132.894C582.536 128.533 579.031 125.199 574.593 122.911L573.677 124.689ZM583.376 133.912C585.733 137.862 586.935 142.643 586.935 148.3H588.935C588.935 142.357 587.67 137.205 585.094 132.888L583.376 133.912ZM586.935 148.3C586.935 148.865 586.904 149.536 586.839 150.317L588.832 150.483C588.9 149.664 588.935 148.935 588.935 148.3H586.935ZM586.839 150.309C586.773 151.04 586.706 151.737 586.64 152.4L588.63 152.6C588.697 151.93 588.764 151.227 588.831 150.491L586.839 150.309ZM587.635 151.5H543.935V153.5H587.635V151.5ZM544.935 152.5V143.4H542.935V152.5H544.935ZM543.935 144.4H579.435V142.4H543.935V144.4ZM579.025 142.488L573.025 145.188L573.846 147.012L579.846 144.312L579.025 142.488ZM574.435 146.1C574.435 143.163 573.84 140.559 572.612 138.319L570.858 139.281C571.897 141.175 572.435 143.436 572.435 146.1H574.435ZM572.612 138.319C571.392 136.094 569.694 134.357 567.528 133.13L566.542 134.87C568.376 135.909 569.812 137.373 570.858 139.281L572.612 138.319ZM567.55 133.143C565.373 131.837 562.857 131.2 560.035 131.2V133.2C562.547 133.2 564.697 133.763 566.521 134.857L567.55 133.143ZM560.035 131.2C557.213 131.2 554.669 131.837 552.433 133.135L553.437 134.865C555.334 133.763 557.524 133.2 560.035 133.2V131.2ZM552.442 133.13C550.268 134.362 548.57 136.138 547.352 138.431L549.118 139.369C550.167 137.395 551.602 135.905 553.428 134.87L552.442 133.13ZM547.358 138.419C546.128 140.662 545.535 143.301 545.535 146.3H547.535C547.535 143.565 548.075 141.271 549.112 139.381L547.358 138.419ZM545.535 146.3V148.7H547.535V146.3H545.535ZM545.535 148.7C545.535 151.782 546.202 154.554 547.562 156.988L549.308 156.012C548.135 153.913 547.535 151.485 547.535 148.7H545.535ZM547.58 157.018C549.011 159.38 550.984 161.207 553.478 162.489L554.393 160.711C552.22 159.593 550.526 158.02 549.29 155.982L547.58 157.018ZM553.508 162.504C556.066 163.712 559.017 164.3 562.335 164.3V162.3C559.253 162.3 556.604 161.754 554.362 160.696L553.508 162.504ZM562.335 164.3C565.3 164.3 567.933 163.852 570.212 162.926L569.459 161.074C567.47 161.881 565.103 162.3 562.335 162.3V164.3ZM570.202 162.93C572.53 162.013 574.64 160.639 576.529 158.82L575.142 157.38C573.43 159.027 571.54 160.254 569.469 161.07L570.202 162.93ZM575.1 158.778L583.4 167.778L584.87 166.422L576.57 157.422L575.1 158.778ZM583.385 166.439C581.028 169.114 578.058 171.195 574.455 172.675L575.215 174.525C579.079 172.938 582.309 170.686 584.885 167.761L583.385 166.439ZM574.469 172.669C570.875 174.082 566.703 174.8 561.935 174.8V176.8C566.901 176.8 571.329 176.052 575.201 174.531L574.469 172.669ZM642.421 123L641.96 123.887L641.97 123.893L641.981 123.898L642.421 123ZM650.421 130.8L649.544 131.28L649.548 131.287L650.421 130.8ZM653.321 175V176H654.321V175H653.321ZM637.721 175H636.721V176H637.721V175ZM634.821 137L634.079 137.67L634.085 137.677L634.091 137.683L634.821 137ZM620.121 135.5L620.581 136.388L620.592 136.382L620.121 135.5ZM615.521 140.2L614.638 139.731L614.632 139.742L614.627 139.753L615.521 140.2ZM613.921 175V176H614.921V175H613.921ZM598.321 175H597.321V176H598.321V175ZM598.321 121.2V120.2H597.321V121.2H598.321ZM613.221 121.2H614.221V120.2H613.221V121.2ZM613.221 136.1L612.372 136.628L614.221 139.6V136.1H613.221ZM610.421 131.6L609.54 131.127L609.266 131.637L609.572 132.128L610.421 131.6ZM618.721 123.3L619.194 124.181L618.721 123.3ZM631.021 121.4C635.149 121.4 638.787 122.238 641.96 123.887L642.882 122.113C639.388 120.296 635.426 119.4 631.021 119.4V121.4ZM641.981 123.898C645.183 125.468 647.703 127.916 649.544 131.28L651.298 130.32C649.273 126.618 646.459 123.866 642.861 122.102L641.981 123.898ZM649.548 131.287C651.373 134.559 652.321 138.843 652.321 144.2H654.321C654.321 138.624 653.336 133.974 651.294 130.313L649.548 131.287ZM652.321 144.2V175H654.321V144.2H652.321ZM653.321 174H637.721V176H653.321V174ZM638.721 175V146.6H636.721V175H638.721ZM638.721 146.6C638.721 142.144 637.73 138.646 635.551 136.317L634.091 137.683C635.778 139.487 636.721 142.39 636.721 146.6H638.721ZM635.563 136.33C633.462 134.004 630.496 132.9 626.821 132.9V134.9C630.079 134.9 632.447 135.863 634.079 137.67L635.563 136.33ZM626.821 132.9C624.205 132.9 621.808 133.467 619.651 134.618L620.592 136.382C622.434 135.4 624.504 134.9 626.821 134.9V132.9ZM619.662 134.612C617.528 135.715 615.856 137.439 614.638 139.731L616.404 140.669C617.453 138.695 618.847 137.285 620.581 136.388L619.662 134.612ZM614.627 139.753C613.469 142.069 612.921 144.969 612.921 148.4H614.921C614.921 145.164 615.44 142.598 616.416 140.647L614.627 139.753ZM612.921 148.4V175H614.921V148.4H612.921ZM613.921 174H598.321V176H613.921V174ZM599.321 175V121.2H597.321V175H599.321ZM598.321 122.2H613.221V120.2H598.321V122.2ZM612.221 121.2V136.1H614.221V121.2H612.221ZM614.07 135.572L611.27 131.072L609.572 132.128L612.372 136.628L614.07 135.572ZM611.302 132.073C613.142 128.646 615.767 126.021 619.194 124.181L618.248 122.419C614.475 124.445 611.566 127.354 609.54 131.127L611.302 132.073ZM619.194 124.181C622.631 122.335 626.565 121.4 631.021 121.4V119.4C626.277 119.4 622.011 120.398 618.248 122.419L619.194 124.181ZM674.662 171L673.983 171.734L673.99 171.741L674.662 171ZM669.362 109.3V108.3H668.362V109.3H669.362ZM684.962 109.3H685.962V108.3H684.962V109.3ZM686.762 161.6L686.036 162.288L686.045 162.298L686.055 162.307L686.762 161.6ZM697.962 161.4L698.896 161.043L698.417 159.788L697.352 160.607L697.962 161.4ZM702.162 172.4L702.74 173.216L703.373 172.768L703.096 172.043L702.162 172.4ZM696.362 175L696.597 175.972L696.607 175.969L696.618 175.967L696.362 175ZM661.062 134.4H660.062V135.4H661.062V134.4ZM661.062 122.4V121.4H660.062V122.4H661.062ZM698.362 122.4H699.362V121.4H698.362V122.4ZM698.362 134.4V135.4H699.362V134.4H698.362ZM689.462 174.8C683.293 174.8 678.629 173.244 675.333 170.259L673.99 171.741C677.761 175.156 682.963 176.8 689.462 176.8V174.8ZM675.341 170.266C672.073 167.245 670.362 162.718 670.362 156.5H668.362C668.362 163.082 670.183 168.222 673.983 171.734L675.341 170.266ZM670.362 156.5V109.3H668.362V156.5H670.362ZM669.362 110.3H684.962V108.3H669.362V110.3ZM683.962 109.3V156.3H685.962V109.3H683.962ZM683.962 156.3C683.962 158.743 684.612 160.785 686.036 162.288L687.488 160.912C686.511 159.882 685.962 158.39 685.962 156.3H683.962ZM686.055 162.307C687.482 163.734 689.391 164.4 691.662 164.4V162.4C689.799 162.4 688.442 161.866 687.469 160.893L686.055 162.307ZM691.662 164.4C694.319 164.4 696.641 163.677 698.571 162.193L697.352 160.607C695.816 161.789 693.938 162.4 691.662 162.4V164.4ZM697.028 161.757L701.227 172.757L703.096 172.043L698.896 161.043L697.028 161.757ZM701.584 171.584C700.098 172.636 698.279 173.458 696.106 174.033L696.618 175.967C698.978 175.342 701.025 174.43 702.74 173.216L701.584 171.584ZM696.126 174.028C694.008 174.542 691.787 174.8 689.462 174.8V176.8C691.936 176.8 694.316 176.525 696.597 175.972L696.126 174.028ZM662.062 134.4V122.4H660.062V134.4H662.062ZM661.062 123.4H698.362V121.4H661.062V123.4ZM697.362 122.4V134.4H699.362V122.4H697.362ZM698.362 133.4H661.062V135.4H698.362V133.4Z" fill="#0D0D04" fill-opacity="0.06"/>
</svg>
