<svg width="574" height="400" viewBox="0 0 574 400" fill="none" xmlns="http://www.w3.org/2000/svg">
<g clip-path="url(#clip0_2136_9474)">
<g opacity="0.17">
<path opacity="0.1" d="M49.1296 397.51H550.41C591.963 362.853 570.577 258.551 535.876 237.409C498.52 214.647 557.837 135.937 500.296 110.397C462.722 93.7131 402.961 111.895 410.998 67.2676C422.144 5.38151 291.859 -10.4753 195.873 6.20004C92.1024 24.2338 186.869 112.905 72.7451 130.773C14.0634 139.96 25.4009 218.556 30.8781 234.796C35.6413 248.947 67.1721 271.378 23.3546 302.282C-40.9 347.588 47.6057 396.674 49.1209 397.501L49.1296 397.51Z" fill="#9BC1F9"/>
<path d="M113.559 270.298C93.8791 252.752 83.7607 227.552 78.7363 209.5C73.2853 189.899 72.4841 174.26 72.4841 174.103L71.4131 174.034C71.4131 174.19 72.2142 189.943 77.7088 209.675C82.7767 227.909 93.0084 253.361 112.932 271.134L113.567 270.298H113.559Z" fill="#3C8F7C"/>
<path d="M74.7221 169.567C75.6887 174.077 74.8789 178.344 72.8151 181.418C69.5759 179.032 67.0245 175.209 66.0492 170.69C65.0826 166.179 65.8925 161.912 67.9562 158.839C71.1955 161.225 73.7469 165.047 74.7221 169.567Z" fill="#3C8F7C"/>
<path d="M68.6874 182.419C72.0747 185.572 74.0601 189.716 74.4432 193.705C70.725 193.87 66.6236 192.364 63.2363 189.211C59.849 186.059 57.8636 181.914 57.4805 177.926C61.1987 177.761 65.3 179.267 68.6874 182.419Z" fill="#3C8F7C"/>
<path d="M67.094 195.916C71.3086 197.24 74.7656 200.174 76.8119 203.736C73.7555 205.695 69.6541 206.261 65.4395 204.946C61.225 203.623 57.768 200.688 55.7217 197.127C58.7781 195.159 62.8795 194.602 67.094 195.916Z" fill="#3C8F7C"/>
<path d="M73.5813 212.156C76.9164 213.21 79.5897 215.901 81.0961 219.305C78.5621 221.43 75.2532 222.24 71.9181 221.186C68.583 220.133 65.9098 217.442 64.4033 214.037C66.9373 211.913 70.2462 211.103 73.59 212.156H73.5813Z" fill="#3C8F7C"/>
<path d="M79.2853 188.976C81.9151 186.329 85.3895 185.206 88.7594 185.563C88.9422 189.124 87.7144 192.738 85.0934 195.385C82.4637 198.032 78.9893 199.156 75.6193 198.799C75.4365 195.237 76.6643 191.623 79.2853 188.976Z" fill="#3C8F7C"/>
<path d="M82.3322 200.619C84.9619 197.971 88.4363 196.848 91.8062 197.205C91.9891 200.767 90.7613 204.38 88.1403 207.027C85.5105 209.675 82.0361 210.798 78.6662 210.441C78.4834 206.879 79.7112 203.266 82.3322 200.619Z" fill="#3C8F7C"/>
<path d="M101.698 294.096C83.5248 291.449 67.9728 280.678 58.1243 272.118C47.4311 262.818 40.97 254.032 40.909 253.945L40.2646 254.319C40.3256 254.406 46.839 263.262 57.6018 272.623C67.5461 281.278 83.2549 292.155 101.654 294.836L101.707 294.105L101.698 294.096Z" fill="#50BFA5"/>
<path d="M40.4651 250.444C42.764 252.691 43.9221 255.486 43.9047 258.064C41.1008 257.924 38.1576 256.679 35.8587 254.424C33.5599 252.177 32.4017 249.382 32.4191 246.804C35.223 246.944 38.1663 248.189 40.4651 250.444Z" fill="#50BFA5"/>
<path d="M41.8928 260.232C45.0712 260.763 47.8141 262.409 49.5731 264.586C47.4745 266.11 44.5139 266.806 41.3355 266.275C38.1572 265.744 35.4142 264.098 33.6553 261.921C35.7538 260.397 38.7145 259.701 41.8928 260.232Z" fill="#50BFA5"/>
<path d="M46.1428 268.687C49.1034 267.842 52.2382 268.217 54.7896 269.506C53.7621 271.822 51.6026 273.72 48.6419 274.574C45.6813 275.418 42.5465 275.044 39.9951 273.755C41.0226 271.439 43.1822 269.54 46.1428 268.687Z" fill="#50BFA5"/>
<path d="M56.1473 275.645C58.4897 274.974 61.0759 275.514 63.2616 276.916C62.6085 279.119 60.9889 280.861 58.6465 281.531C56.3041 282.202 53.7179 281.662 51.5322 280.26C52.1853 278.057 53.805 276.315 56.1473 275.645Z" fill="#50BFA5"/>
<path d="M50.5657 259.979C51.0795 257.437 52.6643 255.443 54.7629 254.363C56.2432 256.366 56.9137 258.934 56.3999 261.477C55.8862 264.02 54.3014 266.014 52.2028 267.094C50.7225 265.091 50.052 262.522 50.5657 259.979Z" fill="#50BFA5"/>
<path d="M56.8011 265.578C57.3148 263.036 58.8996 261.042 60.9982 259.962C62.4785 261.965 63.149 264.533 62.6353 267.076C62.1215 269.619 60.5367 271.613 58.4381 272.693C56.9578 270.69 56.2873 268.121 56.8011 265.578Z" fill="#50BFA5"/>
<path d="M112.644 348.494C91.6756 356.453 68.6001 352.247 52.9348 347.318C35.9285 341.972 23.7289 334.631 23.607 334.561L23.1455 335.449C23.2674 335.519 35.5541 342.912 52.6736 348.302C68.4956 353.283 91.8063 357.524 113.036 349.469L112.644 348.494Z" fill="#96D9C9"/>
<path d="M21.0293 330.303C24.8346 331.783 27.7604 334.666 29.3017 338.027C26.2279 339.594 22.3355 339.829 18.5302 338.358C14.7249 336.877 11.7991 333.995 10.2578 330.634C13.3317 329.067 17.224 328.832 21.0293 330.303Z" fill="#96D9C9"/>
<path d="M28.4569 342.093C32.1664 340.787 36.0849 341.205 39.2719 342.921C37.957 346.212 35.2228 348.972 31.5133 350.27C27.8038 351.576 23.8853 351.158 20.6982 349.443C22.0131 346.151 24.7474 343.391 28.4569 342.093Z" fill="#96D9C9"/>
<path d="M38.097 350.383C40.7355 347.431 44.3057 345.96 47.8062 346.021C48.111 349.66 46.9528 353.483 44.3144 356.435C41.6759 359.387 38.1057 360.859 34.6052 360.798C34.3004 357.158 35.4586 353.335 38.097 350.383Z" fill="#96D9C9"/>
<path d="M51.5931 354.667C54.2316 351.715 57.8018 350.244 61.3023 350.305C61.6071 353.945 60.4489 357.767 57.8105 360.719C55.172 363.671 51.6018 365.143 48.1013 365.082C47.7965 361.442 48.9547 357.619 51.5931 354.667Z" fill="#96D9C9"/>
<path d="M38.8976 340.831C36.5727 337.809 35.5451 334.169 35.789 330.86C38.8454 331.217 41.9715 332.994 44.2964 336.015C46.6214 339.037 47.6489 342.677 47.4051 345.986C44.3487 345.629 41.2226 343.852 38.8976 340.831Z" fill="#96D9C9"/>
<path d="M52.9168 345.22C50.5483 342.233 49.4598 338.602 49.6514 335.284C52.7078 335.589 55.8513 337.313 58.2198 340.3C60.5883 343.286 61.6768 346.917 61.4852 350.235C58.4288 349.93 55.2853 348.206 52.9168 345.22Z" fill="#96D9C9"/>
<path d="M69.3316 355.843C69.9499 354.267 71.1864 353.178 72.6232 352.726C73.3198 354.18 73.433 355.913 72.8147 357.48C72.1965 359.056 70.96 360.145 69.5232 360.597C68.8266 359.143 68.7134 357.41 69.3316 355.843Z" fill="#96D9C9"/>
<path d="M157.637 395.968C157.637 395.968 184.343 290.334 175.488 279.72C163.244 265.047 153.152 313.715 152.159 309.579C142.799 270.542 140.308 220.603 110.127 215.317C92.9728 212.313 114.089 252.456 112.818 263.314C111.546 274.173 80.6252 238.123 61.8338 219.235C43.0424 200.348 33.342 212.304 45.2107 236.059C56.6875 259.021 93.8261 284.117 86.172 287.095C78.5179 290.073 32.0445 260.414 26.3496 273.093C19.3747 288.636 89.0891 309.788 82.5234 313.279C75.9578 316.771 42.6419 305.268 43.5475 317.154C44.4618 329.04 89.2459 328.596 88.4883 333.83C87.2518 342.294 57.6192 323.137 56.3218 334.848C54.9895 346.83 95.2977 344.645 94.6011 353.988C94.2006 359.361 85.5538 351.263 84.2737 358.699C81.3653 375.662 134.5 396.317 134.5 396.317L157.628 395.968H157.637Z" fill="#3C8F7C"/>
<path d="M178.004 396.613C178.004 396.613 152.586 357.637 140.352 350.279C127.317 342.442 137.243 365.909 137.243 365.909C137.243 365.909 110.606 334.213 103.205 340.657C95.8031 347.1 102.517 354.554 102.517 354.554C102.517 354.554 78.6053 347.466 74.3037 356.244C67.7032 369.732 107.071 380.913 107.071 380.913C107.071 380.913 90.1692 380.73 93.2779 389.838C97.9627 403.57 177.996 396.604 177.996 396.604L178.004 396.613Z" fill="#50BFA5"/>
<path d="M74.3125 356.252C78.6141 347.475 102.526 354.563 102.526 354.563C102.526 354.563 95.8033 347.109 103.214 340.665C110.615 334.222 131.923 353.501 131.923 353.501C131.923 353.501 129.694 337.609 145.734 351.611C157.193 361.616 178.013 396.621 178.013 396.621L74.3212 356.252H74.3125Z" fill="#96D9C9"/>
<path d="M147.144 298.755L148.285 297.98C127.586 266.632 121.273 229.424 119.619 203.727C117.825 175.836 120.977 155.112 121.012 154.903L119.601 154.493C119.566 154.702 116.388 175.566 118.191 203.623C119.854 229.537 126.237 267.085 147.153 298.764L147.144 298.755Z" fill="#96D9C9"/>
<path d="M125.079 150.018C125.123 156.313 122.937 161.52 119.454 164.647C115.91 160.145 113.646 154.067 113.602 147.771C113.559 141.475 115.744 136.268 119.227 133.142C122.771 137.644 125.035 143.722 125.079 150.018Z" fill="#96D9C9"/>
<path d="M113.872 164.168C117.398 169.732 118.844 175.984 118.278 181.348C113.436 179.972 108.56 176.245 105.033 170.681C101.507 165.117 100.061 158.864 100.627 153.5C105.469 154.876 110.345 158.603 113.872 164.168Z" fill="#96D9C9"/>
<path d="M108.212 181.078C113.288 184.614 116.963 189.917 118.644 195.437C114.177 196.683 108.752 195.664 103.666 192.128C98.5897 188.593 94.915 183.29 93.2344 177.769C97.7015 176.524 103.126 177.543 108.212 181.078Z" fill="#96D9C9"/>
<path d="M114.838 210.597C117.05 211.921 118.74 214.037 119.602 216.318C117.782 216.998 115.5 216.745 113.28 215.422C111.068 214.098 109.379 211.982 108.517 209.701C110.337 209.021 112.618 209.274 114.838 210.597Z" fill="#96D9C9"/>
<path d="M116.641 221.534C118.853 222.858 120.542 224.974 121.404 227.255C119.584 227.935 117.303 227.682 115.082 226.359C112.871 225.035 111.181 222.919 110.319 220.638C112.139 219.958 114.421 220.211 116.641 221.534Z" fill="#96D9C9"/>
<path d="M125.775 177.273C129.868 174.956 134.648 174.983 138.898 176.898C138.184 181.627 135.641 185.806 131.548 188.123C127.456 190.439 122.675 190.413 118.426 188.497C119.14 183.769 121.682 179.589 125.775 177.273Z" fill="#96D9C9"/>
<path d="M126.593 193.739C130.686 191.423 135.467 191.449 139.716 193.365C139.002 198.093 136.459 202.273 132.367 204.589C128.274 206.905 123.494 206.879 119.244 204.964C119.958 200.235 122.501 196.056 126.593 193.739Z" fill="#96D9C9"/>
<path d="M125.784 217.32C128.449 215.813 131.558 215.831 134.327 217.076C133.865 220.15 132.202 222.875 129.537 224.382C126.873 225.888 123.764 225.871 120.995 224.626C121.457 221.552 123.12 218.826 125.784 217.32Z" fill="#96D9C9"/>
</g>
<g opacity="0.13">
<path d="M494.401 132.785C494.401 132.785 486.198 150.653 480.669 158.194C475.148 165.744 469.889 172.954 465.483 193.905C461.076 214.847 461.834 216.954 460.624 222.362C459.422 227.769 451.568 249.687 451.524 253.71C451.481 257.733 435.667 280.608 431.609 291.319C427.56 302.029 420.385 317.329 420.786 325.113L422.588 324.652C422.588 324.652 424.06 306.496 436.564 288.14C449.068 269.784 447.275 266.319 461.477 256.897C475.679 247.466 484.849 221.421 484.849 221.421C484.849 221.421 499.295 193.13 498.616 178.431C497.945 163.724 501.777 150.462 494.401 132.785Z" fill="#256653"/>
<path d="M475.184 105.312C475.184 105.312 474.705 117.05 470.917 124.016C467.129 130.991 463.872 135.223 463.184 142.764C462.496 150.305 460.119 169.749 449.565 179.25C439.012 188.741 437.662 217.189 429.625 225.793C421.587 234.396 420.542 240.578 422.023 255.338C423.503 270.098 428.545 290.552 416.894 317.242L414.255 310.597C414.255 310.597 422.597 288.637 420.577 275.775C418.557 262.914 411.53 243.487 414.107 234.161C416.685 224.835 407.115 223.023 412.871 208.926C418.627 194.828 416.267 189.934 424.104 177.743C424.104 177.743 424.905 177.168 426.969 166.858C429.032 156.548 445.638 137.644 453.292 131.2C460.946 124.748 471.979 114.411 475.175 105.294L475.184 105.312Z" fill="#256653"/>
<path d="M444.001 163.41C444.001 163.41 434.832 179.101 434.701 189.202C434.571 199.303 435.668 207.524 431.027 221.352C426.385 235.188 435.598 243.931 432.942 251.568C430.287 259.204 430.086 268.252 430.165 275.105C430.243 281.958 419.663 304.659 418.052 316.144C416.441 327.63 418.496 327.673 418.496 327.673C418.496 327.673 420.246 312.504 422.685 307.489C425.123 302.473 432.524 285.18 434.249 278.483C435.981 271.796 440.666 267.494 444.707 256.165C448.747 244.836 454.503 235.293 454.059 219.209C453.623 203.126 460.093 186.155 443.984 163.401L444.001 163.41Z" fill="#3C8F7C"/>
<path d="M424.592 317.154C424.592 317.154 428.867 297.24 446.892 295.246C464.917 293.26 475.506 296.822 488.245 282.271C500.976 267.72 508.378 244.627 512.444 240.648C512.444 240.648 506.044 237.356 495.412 247.301C484.771 257.245 477.3 264.786 471.143 270.577C464.987 276.367 459.98 272.588 453.484 276.411C448.033 279.607 440.988 288.854 437.888 293.696C436.878 295.272 435.685 296.709 434.309 297.98C433.064 299.129 431.575 300.549 430.617 301.585C428.71 303.666 423.207 317.224 423.207 317.224L424.6 317.154H424.592Z" fill="#3C8F7C"/>
<path d="M418.243 313.636C418.243 313.636 424.6 289.281 420.342 277.36C416.084 265.439 402.77 256.618 403.301 249.129C403.832 241.641 412.392 221.404 405.417 206.339C405.417 206.339 402.77 219.775 400.157 222.771C397.545 225.758 379.607 237.818 382.785 253.744C385.964 269.671 403.405 273.389 407.698 278.074C411.991 282.759 417.79 282.759 417.825 285.876C417.86 288.993 418.992 300.322 417.068 311.512L418.243 313.645V313.636Z" fill="#3C8F7C"/>
<path d="M425.192 297.336L434.118 271.63C434.118 271.63 439.36 250.949 442.399 233.708C445.438 216.467 444.01 163.41 444.01 163.41C444.01 163.41 434.84 179.102 434.71 189.203C434.579 199.304 435.676 207.524 431.035 221.352C426.394 235.188 435.607 243.931 432.951 251.568C430.295 259.204 430.095 268.252 430.173 275.105C430.251 281.958 419.671 304.659 418.061 316.144C417.181 322.44 417.399 325.296 417.773 326.594C416.345 316.545 425.192 297.327 425.192 297.327V297.336Z" fill="#327F6B"/>
<path d="M469.149 282.027C461.19 283.621 454.067 283.072 444.619 290.108C435.171 297.144 429.607 304.659 429.607 304.659C429.607 304.659 425.358 312.252 423.599 316.258C423.346 316.867 423.198 317.233 423.198 317.233L424.591 317.163C424.591 317.163 428.867 297.249 446.892 295.254C464.917 293.269 475.506 296.831 488.245 282.28C500.976 267.729 508.378 244.636 512.444 240.657C512.444 240.657 498.904 251.193 490.527 260.519C482.159 269.845 477.108 280.443 469.149 282.027Z" fill="#327F6B"/>
<path d="M400.148 222.771C397.536 225.758 379.598 237.818 382.776 253.744C385.955 269.671 403.396 273.389 407.689 278.074C411.982 282.759 417.782 282.759 417.817 285.876C417.851 288.993 418.983 300.322 417.059 311.512L417.573 312.443C418.513 308.081 419.819 301.437 420.246 296.386C420.943 288.192 419.61 284.796 416.981 278.161C414.342 271.517 397.98 257.994 393.879 250.888C389.778 243.774 401.786 231.897 404.45 226.158C407.115 220.42 405.408 206.357 405.408 206.357C405.408 206.357 402.761 219.793 400.148 222.788V222.771Z" fill="#327F6B"/>
<path d="M442.704 301.872L445.508 295.098C447.685 290.117 453.249 287.74 457.934 289.786C469.75 294.941 474.888 309.3 469.411 321.848L465.405 331.026C463.646 335.049 464.265 339.473 466.624 342.59C468.775 345.42 469.123 349.356 467.634 352.769L465.518 357.611C463.228 362.844 458.787 366.728 453.51 368.33C450.428 369.262 447.702 371.578 446.257 374.887L443.27 381.74C439.961 389.316 431.506 392.93 424.374 389.821L420.308 388.044C413.176 384.936 410.076 376.272 413.385 368.696C418.732 359.64 418.305 352.882 416.407 348.302C413.62 341.562 413.655 333.804 416.668 326.907L417.095 325.941C420.273 318.652 426.412 313.219 433.726 310.885C436.957 309.857 440.318 307.35 442.704 301.89V301.872Z" fill="#50BFA5"/>
<path d="M392.251 397.51C397.981 390.073 429.424 350.244 449.931 343.609C472.563 336.286 451.229 365.378 451.229 365.378C451.229 365.378 491.372 321.482 506.105 325.436C519.611 329.067 506.105 356.27 506.105 356.27C506.105 356.27 521.318 341.205 539.761 341.205C558.204 341.205 527.221 394.645 525.576 397.501H392.251V397.51Z" fill="#96D9C9"/>
<path d="M513.237 311.346C496.832 336.965 484.867 365.422 478.023 395.655L476.899 395.35C483.718 365.753 495.604 337.348 511.983 311.756C515.788 305.808 519.898 298.755 527.021 296.43C527.161 296.386 527.213 296.595 527.082 296.648C520.578 299.103 516.807 305.782 513.246 311.346H513.237Z" fill="#3C8F7C"/>
<path d="M481.976 396.717C500.305 371.796 522.589 348.755 549.086 328.718C549.348 328.518 549.705 328.98 549.443 329.18C524.313 348.494 502.082 371.308 483.369 397.083L481.976 396.709V396.717Z" fill="#3C8F7C"/>
<path d="M514.734 295.464C515.152 296.082 516.772 297.701 517.251 299.835C517.887 301.855 517.382 304.38 517.329 304.293C517.207 304.346 519.202 302.656 519.82 299.983C520.63 297.414 520.064 293.853 519.062 292.668C517.329 289.995 514.308 289.725 513.724 291.023C513.097 292.311 513.89 294.062 514.743 295.472L514.734 295.464Z" fill="#3C8F7C"/>
<path d="M518.661 318.33C518.052 317.895 516.458 316.249 514.342 315.735C512.34 315.056 509.797 315.509 509.884 315.57C509.832 315.692 511.556 313.732 514.247 313.166C516.833 312.409 520.386 313.044 521.544 314.072C524.182 315.857 524.391 318.887 523.085 319.445C521.788 320.045 520.055 319.218 518.661 318.339V318.33Z" fill="#3C8F7C"/>
<path d="M512.741 328.353C512.131 327.917 510.537 326.272 508.421 325.758C506.419 325.079 503.876 325.531 503.963 325.592C503.911 325.714 505.635 323.755 508.326 323.189C510.912 322.431 514.465 323.067 515.623 324.095C518.261 325.88 518.47 328.91 517.164 329.467C515.867 330.068 514.134 329.241 512.741 328.361V328.353Z" fill="#3C8F7C"/>
<path d="M533.857 351.594C533.247 351.158 531.654 349.513 529.538 348.999C527.535 348.32 524.992 348.772 525.079 348.833C525.027 348.955 526.751 346.996 529.442 346.43C532.028 345.672 535.581 346.308 536.739 347.336C539.377 349.121 539.586 352.151 538.28 352.708C536.983 353.309 535.25 352.482 533.857 351.602V351.594Z" fill="#3C8F7C"/>
<path d="M544.655 342.085C544.045 341.649 542.452 340.004 540.336 339.49C538.333 338.811 535.79 339.264 535.877 339.324C535.825 339.446 537.549 337.487 540.24 336.921C542.826 336.164 546.379 336.799 547.537 337.827C550.175 339.612 550.384 342.642 549.078 343.199C547.781 343.8 546.048 342.973 544.655 342.094V342.085Z" fill="#3C8F7C"/>
<path d="M506.453 306.801C506.967 307.35 508.822 308.691 509.623 310.72C510.572 312.609 510.476 315.187 510.407 315.108C510.293 315.178 512 313.201 512.192 310.458C512.584 307.794 511.46 304.363 510.285 303.353C508.151 300.993 505.13 301.202 504.747 302.569C504.337 303.936 505.391 305.538 506.453 306.801Z" fill="#3C8F7C"/>
<path d="M497.746 318.165C498.478 318.556 501.038 319.262 502.327 321.178C503.781 322.884 503.972 325.801 503.868 325.74C503.729 325.862 505.696 322.928 505.609 319.784C505.792 316.641 503.929 313.297 502.283 312.679C499.235 310.955 495.343 312.496 495.021 314.185C494.655 315.892 496.214 317.224 497.746 318.173V318.165Z" fill="#3C8F7C"/>
<path d="M488.577 335.38C489.36 335.641 492.008 335.902 493.601 337.574C495.325 339.011 495.996 341.85 495.891 341.815C495.778 341.963 497.215 338.732 496.605 335.65C496.257 332.524 493.854 329.537 492.129 329.206C488.838 328.022 485.259 330.19 485.224 331.914C485.146 333.656 486.914 334.709 488.577 335.389V335.38Z" fill="#3C8F7C"/>
<path d="M515.693 347.37C516.268 347.727 518.305 348.45 519.246 350.078C520.334 351.55 520.317 353.927 520.247 353.875C520.125 353.971 521.893 351.689 522.006 349.129C522.328 346.587 521.005 343.757 519.707 343.156C517.33 341.58 514.073 342.607 513.716 343.966C513.316 345.333 514.517 346.508 515.702 347.37H515.693Z" fill="#3C8F7C"/>
<path d="M529.817 299.495C529.477 299.208 528.607 298.163 527.379 297.771C526.221 297.283 524.705 297.44 524.749 297.475C524.714 297.545 525.82 296.465 527.431 296.238C528.99 295.908 531.062 296.439 531.706 297.092C533.187 298.259 533.178 300.061 532.386 300.34C531.593 300.636 530.601 300.07 529.817 299.495Z" fill="#3C8F7C"/>
<path d="M526.525 292.172C526.543 292.616 526.839 293.94 526.403 295.159C526.081 296.369 525.027 297.484 525.036 297.423C524.958 297.405 526.49 297.196 527.648 296.047C528.868 295.011 529.712 293.051 529.582 292.137C529.555 290.248 528.127 289.159 527.422 289.621C526.699 290.065 526.543 291.197 526.525 292.172Z" fill="#3C8F7C"/>
<path d="M552.422 332.402C552.083 332.115 551.212 331.07 549.984 330.678C548.826 330.19 547.311 330.347 547.354 330.382C547.32 330.451 548.425 329.372 550.036 329.145C551.595 328.814 553.676 329.346 554.312 329.999C555.792 331.165 555.784 332.968 554.991 333.247C554.199 333.543 553.206 332.977 552.422 332.402Z" fill="#3C8F7C"/>
<path d="M548.46 325.026C548.512 325.471 548.913 326.768 548.582 328.013C548.364 329.25 547.406 330.443 547.397 330.382C547.319 330.382 548.826 330.033 549.888 328.797C551.02 327.665 551.699 325.636 551.499 324.739C551.325 322.858 549.81 321.892 549.139 322.405C548.46 322.91 548.39 324.051 548.451 325.026H548.46Z" fill="#3C8F7C"/>
<path d="M545.699 372.701C528.954 374.539 513.35 381.931 498.338 389.141C488.211 394 488.724 395.385 486.661 396.108C486.33 396.221 485.99 395.864 486.156 395.542C486.948 393.974 489.029 392.903 490.475 392.006C492.164 390.953 493.923 390.021 495.708 389.159C499.531 387.304 503.449 385.632 507.35 383.943C515.274 380.503 523.329 377.264 531.706 375.07C536.295 373.868 540.971 372.997 545.699 372.571C545.786 372.571 545.795 372.701 545.708 372.71L545.699 372.701Z" fill="#3C8F7C"/>
<path d="M530.6 367.511C530.713 368.199 531.427 370.193 530.983 372.161C530.722 374.103 529.302 376.028 529.294 375.932C529.172 375.932 531.505 375.296 533.082 373.302C534.771 371.465 535.703 368.26 535.328 366.876C534.928 363.959 532.507 362.539 531.497 363.393C530.469 364.229 530.443 366.005 530.591 367.52L530.6 367.511Z" fill="#3C8F7C"/>
<path d="M515.84 372.797C515.953 373.485 516.667 375.479 516.223 377.447C515.962 379.389 514.543 381.313 514.534 381.218C514.412 381.218 516.746 380.582 518.322 378.588C520.011 376.75 520.943 373.546 520.568 372.161C520.168 369.244 517.747 367.825 516.737 368.678C515.709 369.514 515.683 371.291 515.831 372.806L515.84 372.797Z" fill="#3C8F7C"/>
<path d="M500.855 379.476C500.968 380.164 501.682 382.158 501.238 384.126C500.977 386.068 499.557 387.992 499.549 387.896C499.427 387.896 501.76 387.261 503.336 385.266C505.026 383.429 505.957 380.225 505.583 378.84C505.182 375.923 502.753 374.504 501.752 375.357C500.724 376.184 500.698 377.969 500.846 379.485L500.855 379.476Z" fill="#3C8F7C"/>
<path d="M535.006 381.296C534.702 380.73 534.118 378.858 532.69 377.656C531.41 376.367 529.294 375.749 529.338 375.827C529.251 375.897 531.323 375.061 533.596 375.653C535.868 376.063 538.341 377.909 538.838 379.136C540.17 381.514 539.177 383.908 537.958 383.839C536.739 383.804 535.72 382.506 534.989 381.296H535.006Z" fill="#3C8F7C"/>
<path d="M519.655 386.729C519.35 386.163 518.767 384.291 517.339 383.09C516.058 381.801 513.943 381.183 513.986 381.261C513.899 381.331 515.971 380.495 518.244 381.087C520.517 381.496 522.99 383.342 523.486 384.57C524.827 386.947 523.826 389.342 522.607 389.272C521.388 389.237 520.369 387.94 519.637 386.729H519.655Z" fill="#3C8F7C"/>
<path d="M546.692 375.705C546.431 375.392 545.812 374.295 544.759 373.72C543.783 373.084 542.373 372.971 542.416 373.015C542.373 373.076 543.557 372.266 545.072 372.344C546.552 372.301 548.355 373.137 548.825 373.842C549.975 375.157 549.67 376.794 548.895 376.916C548.12 377.055 547.319 376.376 546.692 375.714V375.705Z" fill="#3C8F7C"/>
<path d="M544.924 368.487C544.863 368.896 544.915 370.15 544.314 371.186C543.818 372.24 542.677 373.076 542.686 373.015C542.616 372.989 544.053 373.05 545.298 372.205C546.578 371.465 547.684 369.819 547.719 368.966C548.015 367.241 546.892 366.005 546.178 366.31C545.446 366.597 545.116 367.598 544.933 368.487H544.924Z" fill="#3C8F7C"/>
</g>
<path d="M417.825 310.275C420.228 310.667 420.089 311.059 420.394 311.103C420.759 311.155 425.096 308.969 425.096 308.969C425.096 308.969 437.931 302.63 438.61 302.264L447.875 290.604L455.016 293.896C455.016 293.896 444.592 306.287 443.939 306.836C443.278 307.384 424.869 313.837 423.276 314.455C423.276 314.455 421.665 315.927 420.62 316.824C419.575 317.712 418.182 318.069 417.842 318.269C417.79 318.295 416.641 318.905 415.012 319.262C413.61 319.567 414.777 318.617 414.777 318.617C414.777 318.617 417.259 317.572 417.137 317.381C417.041 317.233 415.726 317.886 414.176 318.243C413.776 318.33 413.384 318.426 413.027 318.504C412.078 318.713 411.66 318.165 412.618 317.79C412.957 317.66 413.523 317.451 413.95 317.363C414.411 317.268 414.794 317.024 415.169 316.885C415.909 316.606 416.449 316.406 416.423 316.379C416.388 316.345 416.492 316.179 416.066 316.266C415.552 316.362 414.525 316.824 413.758 316.911C413.323 316.963 412.426 317.12 412.426 317.12C412.426 317.12 410.832 317.276 410.824 317.05C410.798 316.562 411.782 316.292 412.382 316.301C412.766 316.11 413.715 315.97 413.715 315.97C413.715 315.97 415.561 315.239 415.456 314.969C415.413 314.856 414.298 315.03 413.105 315.108C411.851 315.195 410.946 315.195 410.876 314.951C410.772 314.568 411.764 314.42 411.764 314.42C411.764 314.42 412.644 314.29 412.931 314.229C413.271 314.15 414.263 313.837 414.263 313.837C414.263 313.837 417.659 312.592 417.537 312.339C417.416 312.087 416.85 311.564 416.614 311.564C416.379 311.564 415.944 311.808 415.709 311.808C415.474 311.808 414.951 311.764 414.916 311.46C414.882 311.155 416.214 310.537 416.214 310.537C416.214 310.537 417.146 310.171 417.833 310.284L417.825 310.275Z" fill="#F8A492"/>
<path d="M441.44 297.823C441.44 297.823 443.748 299.922 444.715 300.618C445.516 301.193 449.408 303.065 449.408 303.065C449.408 303.065 453.283 297.135 454.981 294.157C457.036 290.543 458.464 285.179 457.976 285.031C456.609 284.622 454.737 284.37 453.004 285.171C447.005 287.922 441.449 297.823 441.449 297.823H441.44Z" fill="#E0D558"/>
<path d="M420.072 313.375C419.044 313.541 417.991 313.34 417.538 312.4C417.433 313.514 419.131 314.072 420.072 313.375Z" fill="#FE875E"/>
<path d="M132.733 271.743C132.873 268.286 132.368 264.873 130.826 261.66C129.503 258.891 126.22 257.323 123.233 257.315C113.742 257.306 112.531 269.897 106.497 274.756C104.651 276.237 102.587 277.447 100.837 279.049C94.3843 284.962 97.2927 295.899 103.214 301.08C107.324 304.676 113.785 306.723 118.853 303.91C121.5 302.447 123.503 300 124.931 297.327C126.96 293.53 128.266 289.159 129.712 285.119C131.244 280.817 132.533 276.332 132.725 271.743H132.733Z" fill="#232323"/>
<path d="M134.282 288.48C131.322 279.485 127.403 279.624 127.403 279.624L130.564 298.772C132.393 298.276 134.779 297.161 136.607 296.639C135.998 293.8 135.014 290.691 134.282 288.471V288.48Z" fill="#F7CC7F"/>
<path d="M149.269 319.149L138.428 310.885C138.428 310.885 137.339 303.17 135.876 296.325C134.048 296.839 132.393 298.276 130.564 298.781L133.316 314.107L147.518 321.439L151.533 326.594L152.447 321.299L149.26 319.157L149.269 319.149Z" fill="#F48C7F"/>
<path d="M248.059 306.235C251.429 306.235 254.581 307.123 257.315 308.673C257.664 308.873 258.038 309.047 258.43 309.213C266.754 312.635 275.871 306.296 275.871 297.292V253.013H231.592C222.589 253.013 216.258 243.896 219.672 235.571C219.837 235.171 220.011 234.796 220.211 234.457C221.761 231.722 222.65 228.57 222.65 225.2C222.65 214.533 213.759 205.947 202.979 206.444C193.226 206.897 185.38 214.908 185.102 224.66C185.006 228.135 185.851 231.392 187.401 234.222C187.592 234.57 187.775 234.953 187.932 235.362C191.328 243.826 184.893 253.022 175.767 253.022H131.871V353.919C131.871 377.717 151.167 397.013 174.966 397.013H275.863V352.882C275.863 343.835 266.72 337.461 258.343 340.866C257.942 341.031 257.568 341.205 257.219 341.397C254.233 343.069 250.741 343.957 247.031 343.757C237.47 343.252 229.746 335.484 229.294 325.923C228.789 315.143 237.374 306.235 248.05 306.235H248.059Z" fill="#9E9E9E"/>
<path d="M344.035 281.679C344.192 278.318 345.228 275.2 346.9 272.553C347.109 272.214 347.309 271.848 347.492 271.465C351.297 263.306 345.394 253.91 336.398 253.483L292.163 251.419L290.099 295.655C289.681 304.65 280.277 310.554 272.118 306.749C271.726 306.566 271.36 306.374 271.029 306.156C268.373 304.476 265.265 303.448 261.903 303.292C251.254 302.795 242.259 311.277 242.25 322.057C242.25 331.818 249.878 340.038 259.613 340.761C263.079 341.022 266.379 340.326 269.27 338.906C269.627 338.732 270.019 338.567 270.428 338.427C279.04 335.432 287.922 342.294 287.496 351.402L285.449 395.254L386.233 399.965C410.005 401.08 430.181 382.706 431.296 358.934L436.007 258.151L391.919 256.087C382.88 255.66 376.088 264.498 379.101 273.032C379.249 273.441 379.406 273.825 379.58 274.182C381.113 277.238 381.836 280.773 381.461 284.465C380.512 293.992 372.388 301.341 362.818 301.35C352.02 301.35 343.53 292.355 344.035 281.696V281.679Z" fill="#E0D558"/>
<path d="M220.786 212.034C220.952 215.395 220.229 218.591 218.818 221.395C218.644 221.752 218.479 222.135 218.339 222.536C215.344 231.026 222.127 239.812 231.122 239.359L275.349 237.139L273.128 192.912C272.676 183.917 281.462 177.134 289.952 180.129C290.361 180.268 290.744 180.434 291.093 180.608C293.896 182.019 297.092 182.75 300.453 182.576C311.103 182.036 319.236 172.727 318.2 161.991C317.259 152.273 308.865 144.836 299.104 145.054C295.629 145.133 292.416 146.143 289.673 147.832C289.334 148.041 288.959 148.241 288.567 148.424C280.286 152.238 270.777 146.273 270.325 137.165L268.122 93.3213L167.355 98.3892C143.583 99.5822 125.288 119.819 126.481 143.591L131.549 244.358L175.628 242.137C184.666 241.684 190.57 232.228 186.747 224.034C186.565 223.642 186.364 223.276 186.155 222.936C184.335 220.037 183.273 216.597 183.282 212.879C183.308 203.309 190.675 195.202 200.21 194.27C210.955 193.217 220.272 201.35 220.812 212.008L220.786 212.034Z" fill="#E0D558"/>
<path d="M311.303 187.626C307.933 187.626 304.781 186.738 302.046 185.188C301.698 184.988 301.324 184.814 300.932 184.648C292.607 181.226 283.49 187.566 283.49 196.569V240.848H327.769C336.773 240.848 343.104 249.965 339.69 258.29C339.525 258.691 339.351 259.065 339.15 259.405C337.6 262.139 336.712 265.291 336.712 268.661C336.712 279.328 345.603 287.914 356.383 287.417C366.136 286.965 373.981 278.954 374.26 269.201C374.356 265.726 373.511 262.47 371.961 259.648C371.77 259.3 371.587 258.917 371.43 258.508C368.034 250.044 374.469 240.848 383.595 240.848H427.491V139.951C427.491 116.153 408.194 96.8567 384.396 96.8567H283.499V140.988C283.499 150.035 292.642 156.409 301.019 153.004C301.42 152.839 301.794 152.665 302.142 152.473C305.129 150.801 308.621 149.913 312.33 150.113C321.891 150.618 329.615 158.386 330.068 167.947C330.573 178.727 321.987 187.635 311.312 187.635L311.303 187.626Z" fill="#D8D8D8"/>
<path d="M103.065 383.003C103.065 383.003 102.395 387.652 101.246 389.15C100.862 389.655 100.157 390.291 99.6869 391.197C98.9641 392.616 99.3647 394.723 99.8958 395.881C100.166 396.473 99.8784 396.473 100.497 396.665C102.334 397.231 104.293 396.273 105.077 394.505C105.512 393.521 105.895 392.207 105.974 390.543C106.174 386.32 107.48 384.178 107.48 384.178L103.057 382.985L103.065 383.003Z" fill="#F7A491"/>
<path d="M123.189 385.136C123.189 385.136 123.599 390.378 123.268 392.085C123.085 392.999 122.092 394.871 122.545 395.733C123.006 396.595 123.529 396.804 123.529 396.804L135.406 396.996C136.051 397.005 135.624 396.587 135.102 396.204C134.248 395.577 133.56 395.159 130.826 393.835C130.652 393.748 129.999 393.339 129.764 393.191C129.172 392.825 128.579 392.259 128.066 391.684C127.212 390.735 127.134 386.12 127.134 386.12L123.172 385.136H123.189Z" fill="#F7A491"/>
<path d="M132.48 315.456C132.48 315.456 133.978 323.964 132.994 329.546C132.01 335.127 127.299 386.843 127.299 386.843L122.057 387.139C122.057 387.139 120.96 365.535 121.151 362.531C121.352 359.526 122.902 354.502 122.902 354.502L122.379 337.06L128.988 314.142L132.471 315.456H132.48Z" fill="black"/>
<path d="M117.076 313.663C117.076 313.663 112.949 319.889 111.965 325.035C110.981 330.181 112.687 346.012 110.798 352.76C109.779 356.418 105.895 362.06 105.312 366.78C104.72 371.5 102.412 383.865 102.412 383.865L107.645 384.901L119.819 354.014L129.363 326.097L131.81 311.721L117.076 313.654V313.663Z" fill="#232323"/>
<path d="M120.42 278.257C120.42 278.257 114.96 277.909 112.801 280.268C110.641 282.628 117.59 301.306 117.991 304.311C118.383 307.315 115.988 315.3 115.988 315.3C115.988 315.3 128.823 317.886 132.489 315.456C132.489 315.456 132.881 293.852 132.489 291.702C132.097 289.56 128.823 280.826 128.039 279.972C127.256 279.11 120.438 278.257 120.438 278.257H120.42Z" fill="#DD513A"/>
<path d="M122.24 270.942C122.24 270.942 122.214 271.108 122.162 271.378C121.918 272.693 120.978 277.064 120.351 278.257C119.585 279.711 122.972 284.335 126.229 283.769C127.195 283.603 125.41 279.52 125.497 279.084C125.663 278.257 125.889 277.125 126.115 275.967C126.246 275.314 126.377 274.652 126.499 274.025C126.847 272.257 127.134 270.812 127.134 270.812L122.249 270.934L122.24 270.942Z" fill="#F7A491"/>
<path d="M122.162 271.378C122.214 271.108 122.24 270.942 122.24 270.942L127.125 270.82C127.125 270.82 126.838 272.266 126.489 274.033C126.367 274.652 126.237 275.314 126.106 275.958C125.349 275.845 124.565 275.479 123.773 274.782C122.91 274.025 122.344 273.119 122.005 272.153C122.066 271.839 122.118 271.578 122.153 271.369L122.162 271.378Z" fill="#F47458"/>
<path d="M125.523 259.814C125.523 259.814 123.224 259.544 121.778 261.416C120.333 263.288 118.783 269.07 122.362 272.214C125.949 275.357 129.485 271.796 130.016 268.025C130.538 264.246 130.747 259.674 125.523 259.814Z" fill="#F7A491"/>
<path d="M131.078 267.973C130.651 268.809 129.929 269.27 129.476 269C129.014 268.739 128.997 267.842 129.424 267.015C129.85 266.179 130.573 265.718 131.026 265.988C131.487 266.249 131.505 267.146 131.078 267.973Z" fill="#F7A491"/>
<path d="M125.784 259.196C125.784 259.196 122.71 264.699 120.507 264.951C118.304 265.204 118.017 268.13 118.017 268.13C118.017 268.13 118.8 261.39 120.986 260.092C123.163 258.795 125.784 259.196 125.784 259.196Z" fill="#232323"/>
<path d="M105.443 393.591C102.587 394.114 100.688 392.442 99.7044 391.188C98.9817 392.607 98.6247 394.723 99.1558 395.89C99.6261 396.917 101.002 396.891 102.082 396.926C103.222 396.97 104.111 396.334 104.677 395.333C104.938 394.862 105.216 394.288 105.443 393.591Z" fill="#F47458"/>
<path d="M129.781 393.191C126.637 394 124.312 393.452 123.015 392.921C122.684 393.87 122.24 395.063 122.475 395.751C122.762 396.595 123.172 396.787 123.537 396.796C126.411 396.874 134.048 396.97 136.242 397.005C136.547 397.005 136.712 396.648 136.521 396.412C135.981 395.759 130.025 393.33 129.79 393.182L129.781 393.191Z" fill="#F47458"/>
<path d="M121.082 266.336C121.265 267.311 120.899 268.208 120.281 268.339C119.654 268.469 119.009 267.781 118.826 266.806C118.644 265.831 119.009 264.934 119.628 264.803C120.255 264.673 120.899 265.361 121.082 266.336Z" fill="#F7A491"/>
<path d="M124.678 269.714L127.456 269.836C127.456 269.836 127.342 270.89 126.123 270.873C124.634 270.846 124.678 269.714 124.678 269.714Z" fill="white"/>
<path d="M361.503 48.2585C361.852 48.276 362.801 48.5894 364.185 51.2105C365.953 54.5543 368.539 64.6553 368.539 64.6553L360.815 67.5288L359.823 65.4216L358.186 49.1903C358.186 49.1903 361.399 48.2585 361.495 48.2585H361.503Z" fill="#DD513A"/>
<path d="M351.298 46.8045C353.51 46.8045 358.969 47.4489 361.503 48.2587C361.503 48.2587 363.367 64.2636 359.823 76.4284C359.03 79.1539 360.476 87.7136 360.476 87.7136L337.601 87.4088C337.601 87.4088 340.309 66.7018 339.29 63.358C338.271 60.0142 338.245 48.3545 338.245 48.3545C338.245 48.3545 338.402 48.3284 343.383 47.4663C345.708 47.0658 348.938 46.7871 351.289 46.7871L351.298 46.8045Z" fill="#F47458"/>
<path d="M348.634 117.433C348.634 117.433 349.139 123.276 350.07 124.896C351.002 126.515 350.018 129.267 349.975 129.641C349.922 130.016 348.015 130.556 344.976 130.234C341.937 129.911 341.99 129.206 342.233 128.074C342.477 126.942 344.097 125.488 344.193 124.408C344.288 123.328 343.261 119.445 343.261 119.445L348.634 117.433Z" fill="#F7A491"/>
<path d="M357.899 82.898C357.899 82.898 373.695 82.0185 377.222 84.1606C380.748 86.2941 374.714 96.7782 374.714 96.7782C374.714 96.7782 363.725 96.2732 342.199 97.5097C337.105 97.8057 336.661 84.2216 337.619 83.0983C338.568 81.975 357.899 82.898 357.899 82.898Z" fill="black"/>
<path d="M344.593 130.686C341.467 130.355 341.85 128.814 342.103 127.647C342.259 126.916 343.156 126.054 343.696 125.244C343.975 125.47 344.428 125.862 345.786 126.263C347.197 126.681 349.13 125.853 350.358 125.34C350.793 126.977 350.819 129.058 350.776 129.371C350.723 129.763 347.719 131.017 344.593 130.686Z" fill="#DD513A"/>
<path d="M346.317 94.2008C346.944 98.9726 350.07 122.745 350.07 122.745L342.825 123.642C342.825 123.642 333.908 92.6159 334.37 87.8702C334.831 83.1245 338.166 82.7239 338.166 82.7239C338.166 82.7239 344.654 81.5571 346.326 94.192L346.317 94.2008Z" fill="#232323"/>
<path d="M338.001 50.1483C340.144 49.3471 341.188 68.6174 341.476 76.5502C345.264 76.9159 351.864 76.5502 353.51 76.4283C354.285 76.3673 356.07 75.7143 356.836 75.6185C357.62 75.514 358.343 75.4617 358.726 75.5314C358.865 75.5575 362.819 77.1685 363.158 77.5255C363.576 77.9609 364.708 79.0755 364.517 79.5544C364.325 80.0333 362.34 78.2221 362.34 78.2221L361.364 77.6735C362.575 78.8578 364.882 80.4077 364.543 80.9738C364.221 81.5223 362.139 79.9462 360.659 78.8752C361.93 80.0246 363.506 82.0796 363.149 82.4018C362.819 82.6892 361.025 80.312 359.109 79.6241C358.395 79.3715 357.69 80.0769 357.132 80.1552C356.723 80.2162 356.087 80.3468 355.678 80.2336L353.597 79.6415C352.892 79.7024 352.874 80.1204 352.16 80.2771C351.333 80.4513 349.966 80.6429 348.912 80.8954C342.826 82.3844 340.797 83.0723 338.933 83.0723C333.291 83.0723 332.96 52.0378 338.019 50.1396L338.001 50.1483Z" fill="#F7A491"/>
<path d="M333.943 68.2429C333.543 60.1185 333.604 50.1046 338.158 48.3892C339.952 47.7187 343.121 51.7678 342.555 68.4083C340.126 68.6086 336.556 68.774 333.943 68.2429Z" fill="#DD513A"/>
<path d="M369.828 122.431C369.828 122.431 369.192 124.46 370.324 125.801C371.456 127.142 376.167 128.457 376.777 129.189C377.395 129.911 377.351 130.53 377.351 130.53L364.142 130.164L364.29 126.176L364.899 123.311L369.828 122.431Z" fill="#F7A491"/>
<path d="M371.151 126.472C371.151 126.472 367.755 127.848 366.118 127.029C364.481 126.219 364.525 125.993 364.055 126.298C363.584 126.602 363.41 130.338 363.41 130.338L378.266 130.773C379.302 130.747 379.824 129.99 378.98 129.337C378.405 128.893 377.734 128.588 377.36 128.37C376.202 127.7 371.151 126.463 371.151 126.463V126.472Z" fill="#DD513A"/>
<path d="M369.323 86.6423C370.342 84.4915 372.667 81.6963 376.751 83.3856C380.643 84.9966 381.697 88.9412 380.46 92.9816C379.233 97.022 371.134 120.794 370.856 124.068L364.395 124.112C364.395 124.112 365.57 105.286 365.857 100.74C366.136 96.3602 367.555 90.3693 369.323 86.651V86.6423Z" fill="#232323"/>
<path d="M379.816 64.7511H358.212C357.637 64.7511 357.124 65.0995 356.906 65.6306L350.253 81.9054H338.341C338.01 81.9054 337.74 82.1754 337.74 82.5063C337.74 82.8372 338.01 83.1071 338.341 83.1071H372.232C373.163 83.1071 374.008 82.5585 374.391 81.7052L381.088 66.7365C381.506 65.8048 380.826 64.7424 379.799 64.7424L379.816 64.7511Z" fill="#E0D558"/>
<path d="M368.191 74.2251C368.043 74.9566 367.407 75.4442 366.772 75.3136C366.136 75.183 365.735 74.4863 365.883 73.7549C366.031 73.0234 366.667 72.5358 367.303 72.6664C367.938 72.797 368.339 73.4937 368.191 74.2251Z" fill="#BAAE43"/>
<path d="M356.427 27.2468C355.774 27.0291 355.138 26.7765 354.52 26.4805C353.823 26.1409 352.918 25.749 352.343 25.6619C351.141 25.4791 349.069 25.601 347.919 26.8375C346.491 28.3788 343.966 27.1161 344.471 35.2144C345.046 44.3749 350.14 43.3735 350.27 43.2168C350.392 43.0601 354.816 37.3565 354.816 37.3565C354.816 37.3565 356.357 40.7351 356.357 40.6132C356.357 40.4913 364.246 29.8852 356.427 27.2468Z" fill="#0E2E35"/>
<path d="M352.561 43.8961L353.005 47.1702C353.005 47.1702 353.989 51.8899 352.726 52.7955C351.455 53.7011 347.336 47.0309 347.336 47.0309L347.771 38.7324L352.569 43.8874L352.561 43.8961Z" fill="#F7A491"/>
<path d="M347.623 41.4317C348.668 44.2617 351.167 46.0032 352.935 46.6737L352.56 43.896L347.762 38.741L347.623 41.4317Z" fill="#F47458"/>
<path d="M352.3 29.7111C354.982 29.2757 357.394 31.4352 357.324 34.1259C357.298 35.2928 357.202 36.7557 356.958 38.3231C356.375 42.1023 353.798 45.4286 352.091 45.1326C350.384 44.8365 346.1 41.5711 346.849 36.1984C347.319 32.8807 349.478 30.1639 352.3 29.7111Z" fill="#F7A491"/>
<path d="M348.042 36.8426C347.893 37.6699 347.232 38.2533 346.552 38.1314C345.873 38.0095 345.447 37.2432 345.586 36.4159C345.734 35.5887 346.396 35.0053 347.075 35.1272C347.754 35.2491 348.181 36.0154 348.042 36.8426Z" fill="#F7A491"/>
<path d="M347.075 35.1272C347.075 35.1272 349.139 35.6409 349.905 34.3174C350.671 32.9938 353.406 30.1289 356.88 31.3132C360.354 32.4974 353.824 28.4309 353.545 28.4309C353.266 28.4309 349.931 28.4048 349.931 28.4048C349.931 28.4048 347.354 30.5208 347.267 30.7559C347.171 30.991 346.431 33.525 346.431 33.525L347.084 35.1272H347.075Z" fill="#0E2E35"/>
<path d="M350.845 40.6567L354.598 41.3708C354.598 41.3708 354.241 42.7814 352.578 42.5202C350.558 42.198 350.845 40.6567 350.845 40.6567Z" fill="white"/>
<path d="M287.392 301.811C287.531 302.308 287.618 302.473 287.801 302.804C288.976 304.946 291.702 308.003 291.702 308.003L293.809 303.248C293.809 303.248 293.461 301.75 292.869 299.617C290.831 300.148 288.889 300.462 287.383 301.82L287.392 301.811Z" fill="#F8A492"/>
<path d="M299.495 297.684C299.495 297.684 287.723 302.752 287.339 302.656C287.096 302.595 282.507 294.924 282.463 287.705C282.437 284.37 285.903 280.364 289.76 281.157C291.702 281.557 291.676 282.097 294.549 286.277C297.423 290.457 299.495 297.684 299.495 297.684Z" fill="#D8D8D8"/>
<path d="M309.544 388.593C309.544 388.593 309.266 393.217 309.266 393.226C309.161 393.809 308.761 395.263 308.761 395.794C308.761 397.797 318.278 394.096 316.145 393.199C315.953 393.121 314.943 392.512 314.874 391.832C314.778 390.779 314.525 388.654 314.525 388.654L309.544 388.593Z" fill="#F7A491"/>
<path d="M316.128 393.191C316.128 393.191 313.89 393.8 312.749 393.957C311.608 394.114 310.093 392.816 309.283 393.165C308.395 393.548 308.43 397.005 308.43 397.005C308.43 397.005 320.42 397.989 323.79 396.97C325.123 396.569 320.699 394.619 316.136 393.191H316.128Z" fill="#DD513A"/>
<path d="M290.074 388.593C290.074 388.593 289.795 393.217 289.795 393.225C289.691 393.809 289.29 395.263 289.29 395.794C289.29 397.797 298.808 394.096 296.674 393.199C296.483 393.121 295.168 392.059 295.107 391.371C295.011 390.317 295.063 388.645 295.063 388.645L290.082 388.584L290.074 388.593Z" fill="#F7A491"/>
<path d="M296.648 393.191C296.648 393.191 294.41 393.8 293.27 393.957C292.129 394.114 290.614 392.816 289.804 393.165C288.916 393.548 288.881 397.005 288.881 397.005C288.881 397.005 300.924 398.154 304.311 396.97C305.626 396.508 301.22 394.619 296.657 393.191H296.648Z" fill="#DD513A"/>
<path d="M292.982 304.371L301.368 292.625C301.403 292.52 301.481 292.311 301.594 291.989C302.021 290.822 302.892 288.401 303.658 285.981V285.954C303.911 285.11 304.416 283.638 304.912 282.219C305.461 280.634 306.14 278.675 306.166 278.335C306.148 278.274 306.105 278.178 306.053 278.039C305.748 277.238 305.33 275.34 305.182 274.512C305.086 273.99 304.999 272.71 305.617 272.71C306.601 272.71 306.131 273.99 306.584 274.782C306.749 274.251 307.089 273.189 307.263 272.118L307.429 269.619C307.463 269.427 307.263 268.051 307.951 268.051H307.986C308.604 268.095 308.595 269.566 308.848 272.039C308.926 271.752 309.013 271.412 309.074 271.09C309.074 270.925 309.187 270.176 309.283 269.784C309.161 269.096 309.231 268.008 309.962 268.104C310.328 268.156 310.302 269.671 310.302 269.671C310.302 269.88 310.276 271.482 310.285 271.804C310.363 271.264 310.659 268.966 311.234 268.966C311.713 268.966 311.748 269.584 311.739 270.071C311.739 270.359 311.434 272.849 311.417 273.145C311.643 272.771 311.913 270.568 312.131 270.568C313.062 270.568 312.723 273.685 312.383 274.504C312.348 274.591 312.314 274.748 312.279 274.939C312.166 275.496 311.965 276.428 311.478 277.264C310.894 278.265 310.084 279.859 309.962 280.103C309.875 280.599 309.588 282.393 309.24 284.64C309.092 285.606 308.926 286.66 308.752 287.757H308.743C308.709 287.992 308.534 288.741 307.873 291.571C306.967 295.437 306.871 295.603 306.828 295.672C306.436 296.369 297.388 308.647 297.005 309.169L296.779 309.474L292.974 304.345L292.982 304.371Z" fill="#F7A491"/>
<path d="M308.578 276.968C308.578 276.968 307.899 275.226 306.688 275.226C306.688 275.226 307.368 274.983 307.942 275.444C308.526 275.906 308.578 276.977 308.578 276.977V276.968Z" fill="#F47458"/>
<path d="M290.954 273.607L289.874 280.434C289.874 280.434 293.984 283.734 296.387 283.037C298.399 282.454 297.023 279.824 297.023 279.824C297.023 279.824 295.952 276.176 296.283 274.269C296.614 272.362 290.962 273.607 290.962 273.607H290.954Z" fill="#F7A491"/>
<path d="M291.728 275.671C292.756 276.158 294.793 276.82 296.387 276.986C296.239 276.028 296.152 275.018 296.274 274.269C296.422 273.389 295.307 273.18 294.053 273.206C292.416 273.346 290.953 273.607 290.953 273.607L290.744 274.922C291.058 275.253 291.38 275.514 291.728 275.671Z" fill="#FE875E"/>
<path d="M285.763 265.735C285.598 265.735 287.392 273.363 290.17 274.678C292.947 275.993 297.092 275.305 297.867 273.25C298.729 270.977 295.586 263.201 291.685 262.208C287.775 261.216 285.763 265.735 285.763 265.735Z" fill="#F7A491"/>
<path d="M288.977 258.725C286.756 260.005 285.737 261.904 285.398 262.679C284.353 263.175 283.099 264.246 282.489 267.12C281.749 270.664 284.388 273.389 287.192 274.216C289.996 275.035 290.431 276.89 290.431 276.89L290.753 274.896C290.753 274.896 290.126 273.154 289.194 272.283C288.254 271.413 289.639 270.141 289.76 269.114C289.856 268.321 289.264 266.771 289.395 265.465C289.395 265.465 290.953 263.105 292.486 262.522C295.107 261.529 291.833 257.08 288.977 258.725Z" fill="#232323"/>
<path d="M290.161 270.446C290.526 271.325 290.378 272.205 289.83 272.397C289.281 272.597 288.55 272.039 288.184 271.16C287.818 270.281 287.966 269.401 288.515 269.209C289.064 269.009 289.795 269.566 290.161 270.446Z" fill="#F7A491"/>
<path d="M300.515 304.563L316.694 301.925C316.694 301.925 314.856 297.292 314.195 297.292C313.533 297.292 301.96 302.342 301.96 302.342L301.037 304.189L300.515 304.554V304.563Z" fill="#F8A492"/>
<path d="M292.225 315.648C292.225 315.648 290.614 323.45 291.267 329.363C291.929 335.275 291.973 356.287 291.973 356.287L289.465 389.908L295.421 390.039C295.421 390.039 302.483 356.435 302.352 357.297C302.222 358.159 304.721 333.638 304.721 333.638L296.3 314.908L292.225 315.648Z" fill="black"/>
<path d="M293.81 315.282C293.81 315.282 292.756 322.309 294.071 325.383C295.386 328.466 305.347 358.69 305.487 361.155C305.617 363.619 308.935 390.857 308.935 390.857L315.858 390.665L317.355 360.38L314.221 322.318L311.173 312.696L293.81 315.282Z" fill="#232323"/>
<path d="M289.874 280.434C289.874 280.434 291.581 281.557 293.174 281.426C294.768 281.296 297.014 279.824 297.014 279.824L296.701 278.762C296.701 278.762 292.582 278.161 292.478 278.231C292.373 278.292 289.874 280.434 289.874 280.434Z" fill="#F7A491"/>
<path d="M308.073 297.057C308.073 297.057 314.195 302.83 316.955 301.846C319.716 300.862 320.856 297.492 314.125 292.564C308.091 288.149 308.082 297.066 308.082 297.066L308.073 297.057Z" fill="#F8A492"/>
<path d="M312.218 304.189C311.312 299.243 304.72 283.856 304.198 281.017C303.945 279.641 300.392 279.607 297.005 279.789C293.426 279.981 289.882 280.434 289.882 280.434C289.882 280.434 286.721 280.956 285.328 282.262C283.935 283.569 283.569 287.174 285.563 294.027C287.139 299.434 289.098 302.404 290.074 306.339C290.274 307.663 290.439 308.961 290.657 310.484C291.014 316.371 290.657 324.156 290.657 324.156C290.657 324.156 307.89 327.726 314.334 322.31C314.334 322.31 313.158 309.265 312.226 304.197L312.218 304.189Z" fill="white"/>
<path d="M316.607 293.556C316.607 293.556 309.849 299.138 309.449 299.138C309.196 299.138 299.801 292.224 297.632 286.555C296.431 283.421 298.947 279.903 301.821 279.92C303.815 279.92 304.694 280.442 308.639 283.769C312.584 287.095 316.598 293.565 316.598 293.565L316.607 293.556Z" fill="#D8D8D8"/>
<path d="M197.693 44.4706C198.799 41.806 199.931 39.1327 202.804 37.783C205.129 36.6945 207.559 37.1038 209.631 38.6538C215.491 43.0599 210.389 47.9102 217.05 56.2609C219.122 58.8558 221.63 60.9544 222.867 63.9934C224.608 68.2515 222.536 70.2978 219.218 72.3354C203.353 82.0881 195.037 62.0603 195.333 57.48C195.559 54.0753 196.987 46.186 197.693 44.4706Z" fill="#707070"/>
<path d="M181.218 96.3777C181.889 96.2732 183.508 95.1064 184.083 95.0019C184.527 94.9235 185.485 94.7755 185.894 94.7145C186.399 92.8423 188.942 82.6281 189.229 79.6327C189.543 76.3847 191.833 62.3564 191.833 62.3564L197.771 63.4362C197.771 63.4362 195.307 74.2338 194.619 79.4672C194.036 83.9604 189.099 94.0788 188.472 95.1412C188.472 95.1673 188.472 95.1934 188.472 95.2196C188.376 96.8044 187.61 96.2732 187.61 96.2732L186.364 96.5867C186.364 96.5867 181.967 97.0134 181.68 97.1179C181.392 97.2223 180.53 96.4822 181.201 96.3777H181.218Z" fill="#F7A491"/>
<path d="M197.022 54.1362C192.825 55.5643 190.431 66.9802 190.431 66.9802C190.431 66.9802 197.022 68.8175 198.712 67.851C198.712 67.851 200.627 59.3609 201.315 59.657L197.022 54.1362Z" fill="#232323"/>
<path d="M164.534 116.101C163.245 119.488 162.583 122.753 162.522 123.145C162.496 123.337 162.757 124.26 162.74 124.451C160.162 127.969 156.453 128.736 153.274 128.962C154.894 127.377 157.271 125.88 157.384 125.383C157.567 124.582 158.543 121.038 159.022 116.118C160.998 117.032 162.339 116.31 164.534 116.092V116.101Z" fill="#F7A491"/>
<path d="M201.089 78.1873L206.767 94.1747C206.767 94.1747 197.649 95.8901 194.236 96.5171C190.823 97.1441 171.779 97.9713 171.291 98.3109C170.934 98.5634 166.998 111.294 165.239 118.313C163.245 118.748 159.832 118.226 158.012 117.599C158.996 107.559 162.54 91.6495 163.672 89.9166C165.518 87.0953 201.089 78.196 201.089 78.196V78.1873Z" fill="#256653"/>
<path d="M178.919 123.111C178.292 126.681 178.249 130.016 178.266 130.408C178.266 130.599 178.71 131.453 178.719 131.653C176.847 135.589 173.346 137.043 170.264 137.862C171.561 136.007 173.616 134.091 173.634 133.577C173.66 132.759 173.956 129.093 173.512 124.173C175.628 124.704 176.803 123.738 178.919 123.119V123.111Z" fill="#F7A491"/>
<path d="M207.715 79.0143L209.918 82.7761C213.271 88.4971 210.702 95.8638 204.519 98.2672C204.485 98.2759 204.45 98.2933 204.424 98.302C201.193 99.5559 182.637 103.945 182.219 104.363C181.914 104.676 180.434 117.921 180.025 125.139C178.144 125.94 174.695 126.062 172.797 125.792C171.883 115.744 172.379 99.4515 173.172 97.5357C174.46 94.4184 207.724 79.0056 207.724 79.0056L207.715 79.0143Z" fill="#327F6B"/>
<path d="M177.979 130.521C178.475 129.972 180.286 132.976 180.739 133.621C181.253 134.344 181.105 134.883 181.044 134.997C180.887 135.293 171.317 140.918 168.983 141.319C168.766 141.353 168.383 141.214 168.287 141.136C167.372 140.326 171.57 134.37 173.459 133.586C174.678 133.081 175.758 132.976 177.979 130.521Z" fill="#232323"/>
<path d="M162.218 123.259C162.801 122.814 164.02 126.106 164.351 126.82C164.717 127.621 164.473 128.126 164.395 128.231C164.177 128.492 153.728 132.228 151.359 132.184C151.133 132.184 150.784 131.975 150.706 131.871C149.966 130.904 155.199 125.836 157.202 125.427C158.491 125.157 159.579 125.261 162.218 123.267V123.259Z" fill="#232323"/>
<path d="M201.011 54.1101C200.906 54.1101 200.749 54.0753 200.584 54.023C199.8 53.8837 198.102 53.6834 196.77 54.2407C195.159 54.9199 192.651 61.2853 192.808 67.8161C192.869 68.8175 192.93 69.7057 192.982 70.3327C193.391 75.2613 194.802 84.5176 194.88 84.5699C196.805 85.8064 208.421 81.0084 209.222 79.9461C210.023 78.8924 210.493 66.0659 210.876 65.4302L211.643 54.2843C210.293 53.8837 203.083 54.1014 201.019 54.1188L201.011 54.1101Z" fill="#232323"/>
<path d="M205.713 50.0002C205.713 50.0002 204.964 53.8664 205.112 55.3903C205.26 56.9142 204.546 61.834 201.315 61.8515C198.085 61.8689 200.706 55.5993 201.01 54.1015C201.315 52.6038 201.385 47.98 201.385 47.98L205.713 50.0002Z" fill="#F7A491"/>
<path d="M201.315 50.305C201.368 49.0423 201.385 47.98 201.385 47.98L205.713 50.0002C205.713 50.0002 205.556 50.7926 205.408 51.8027C203.51 52.1858 202.143 51.4805 201.315 50.305Z" fill="#F47458"/>
<path d="M207.298 39.3245C207.298 39.3245 208.97 40.2475 209.579 42.259C210.189 44.2618 209.492 49.4429 205.182 50.6968C200.872 51.9421 198.999 47.8494 199.888 44.6362C200.776 41.4318 202.709 37.374 207.298 39.3245Z" fill="#F7A491"/>
<path d="M199.347 43.391C199.434 44.2531 199.905 44.9061 200.41 44.8626C200.915 44.8104 201.246 44.0789 201.167 43.2168C201.08 42.3548 200.61 41.7017 200.105 41.7452C199.6 41.7975 199.269 42.5289 199.347 43.391Z" fill="#F7A491"/>
<path d="M206.792 39.0632C206.792 39.0632 207.576 44.8365 209.439 45.8814C211.303 46.9263 210.528 49.4864 210.528 49.4864C210.528 49.4864 212.226 43.539 210.745 41.6233C209.265 39.7163 206.792 39.0632 206.792 39.0632Z" fill="#707070"/>
<path d="M208.334 46.7086C207.829 47.4574 207.829 48.3456 208.334 48.6939C208.839 49.0335 209.666 48.7026 210.171 47.9538C210.676 47.2049 210.676 46.3167 210.171 45.9684C209.666 45.6288 208.839 45.9597 208.334 46.7086Z" fill="#F7A491"/>
<path d="M202.055 47.0308L205.094 47.797C205.094 47.797 204.729 48.9552 203.379 48.6504C201.742 48.2847 202.055 47.0308 202.055 47.0308Z" fill="white"/>
<path d="M217.138 95.8901C217.286 95.8901 230.234 95.2283 230.234 95.2283C230.234 95.2283 224.861 99.0945 224.748 99.0945C224.635 99.0945 220.464 97.4488 220.281 97.4488C220.098 97.4488 217.129 95.8901 217.129 95.8901H217.138Z" fill="#50BFA5"/>
<path d="M479.389 388.785C479.389 388.785 479.641 393.33 479.65 393.339C479.746 393.914 480.112 395.342 480.112 395.864C480.112 397.832 471.369 394.192 473.328 393.321C473.502 393.243 474.434 392.642 474.495 391.972C474.582 390.935 474.809 388.846 474.809 388.846L479.38 388.785H479.389Z" fill="#F7A491"/>
<path d="M473.241 393.339C473.241 393.339 475.296 393.94 476.341 394.088C477.395 394.236 478.779 392.973 479.519 393.313C480.338 393.687 480.303 397.083 480.303 397.083C480.303 397.083 469.296 398.05 466.205 397.048C464.977 396.656 469.035 394.732 473.232 393.33L473.241 393.339Z" fill="#F7CC7F"/>
<path d="M493.94 388.549C493.94 388.549 494.192 393.095 494.201 393.103C494.297 393.678 494.662 395.106 494.662 395.629C494.662 397.597 485.92 393.957 487.879 393.086C488.053 393.008 489.263 391.963 489.316 391.292C489.403 390.256 489.359 388.619 489.359 388.619L493.931 388.558L493.94 388.549Z" fill="#F7A491"/>
<path d="M487.905 393.06C487.905 393.06 489.96 393.661 491.005 393.809C492.059 393.957 493.443 392.694 494.183 393.034C495.002 393.408 495.037 396.804 495.037 396.804C495.037 396.804 484.108 397.257 480.878 396.769C479.606 396.578 483.708 394.453 487.905 393.051V393.06Z" fill="#F7CC7F"/>
<path d="M491.345 316.379C491.345 316.379 492.825 324.042 492.225 329.859C491.624 335.667 491.571 356.313 491.571 356.313L494.358 389.333L488.411 389.472C488.411 389.472 481.932 356.461 482.054 357.306C482.176 358.151 479.877 334.056 479.877 334.056L487.601 315.657L491.345 316.379Z" fill="black"/>
<path d="M489.272 311.433C489.272 311.433 495.986 318.504 493.487 326.219C492.486 329.319 483.133 358.943 483.012 361.364C482.89 363.784 479.851 390.552 479.851 390.552L473.494 390.361L472.118 360.606L473.938 320.516L477.796 313.75L489.272 311.433Z" fill="#232323"/>
<path d="M448.538 288.428C450.732 285.972 455.521 282.489 455.521 282.489C455.521 282.489 458.369 280.059 459.536 279.659C461.242 279.067 464.177 277.499 468.409 283.917C471.439 288.506 490.561 312.296 493.705 313.097L473.207 322.902C472.649 318.217 462.514 309.37 461.051 307.715C457.794 304.023 446.465 290.752 448.546 288.436L448.538 288.428Z" fill="#DD513A"/>
<path d="M449.495 278.466L455.878 282.201C455.878 282.201 456.061 287.653 453.971 289.072C452.221 290.256 450.888 287.409 450.888 287.409C450.888 287.409 448.511 284.117 446.709 283.09C444.906 282.062 449.495 278.466 449.495 278.466Z" fill="#F7A491"/>
<path d="M450.567 280.86C450.323 282.001 449.774 283.638 448.912 284.997C448.207 284.239 447.415 283.49 446.709 283.09C445.873 282.619 446.404 281.592 447.214 280.634C448.364 279.441 449.487 278.466 449.487 278.466L450.715 279.189C450.793 279.65 450.636 280.495 450.558 280.869L450.567 280.86Z" fill="#F47458"/>
<path d="M446.169 269.096C446.274 268.966 451.524 275.496 450.88 278.562C450.236 281.627 447.057 284.422 444.854 283.656C442.416 282.802 437.879 275.113 439.508 271.378C441.136 267.642 446.178 269.096 446.178 269.096H446.169Z" fill="#F7A491"/>
<path d="M440.413 267.032C442.703 265.761 446.43 265.395 449.226 266.858C452.656 268.652 453.44 273.171 452.36 275.923C451.289 278.675 452.517 280.233 452.517 280.233L450.697 279.171C450.697 279.171 449.635 277.517 449.495 276.193C449.356 274.869 447.432 275.105 446.491 274.504C445.769 274.042 444.846 272.544 443.67 271.761C443.67 271.761 440.718 271.395 439.264 272.214C436.791 273.607 437.139 268.852 440.422 267.024L440.413 267.032Z" fill="#232323"/>
<path d="M447.962 275.61C447.945 276.594 448.406 277.395 448.999 277.403C449.591 277.412 450.078 276.628 450.096 275.644C450.113 274.66 449.652 273.859 449.06 273.851C448.467 273.842 447.98 274.626 447.962 275.61Z" fill="#F7A491"/>
<path d="M442.59 280.808L445.368 278.727C445.368 278.727 446.099 279.85 444.906 280.8C443.452 281.958 442.59 280.8 442.59 280.8V280.808Z" fill="white"/>
<path d="M435.607 322.153C436.303 321.134 436.608 319.671 437.566 318.548C437.888 318.173 438.402 317.747 438.985 317.329C443.618 314.621 455.678 307.637 456.148 307.097C456.706 306.453 464.935 292.773 464.935 292.773L457.542 291.101L450.314 303.858C449.713 304.337 438.237 312.818 438.237 312.818C438.237 312.818 435.955 314.603 434.71 315.43C434.083 315.796 433.473 316.04 432.934 316.223C432.263 316.458 430.974 317.094 430.722 317.32C430.417 317.581 429.816 318.156 429.459 318.495C429.102 318.844 428.667 319.236 428.501 319.436C428.397 319.558 428.083 319.732 427.848 319.854C427.5 320.028 427.543 320.542 427.918 320.646C428.266 320.742 428.745 320.524 429.041 320.385C429.868 319.993 430.887 318.94 430.939 319.07C430.992 319.201 429.964 321.456 429.86 321.726C429.755 321.996 428.58 324.626 428.519 325.209C428.458 325.793 428.815 325.932 429.076 325.714C429.302 325.531 431.201 322.013 431.201 322.013C431.201 322.013 431.445 321.569 431.54 321.822C431.636 322.074 429.912 325.27 429.746 325.793C429.581 326.315 429.712 326.75 430.199 326.559C430.791 326.332 432.42 322.815 432.42 322.815C432.42 322.815 432.629 322.379 432.777 322.527C432.925 322.684 431.41 325.375 431.392 325.679C431.375 325.993 431.653 326.298 432.063 326.036C432.542 325.732 433.97 322.579 433.97 322.579C433.97 322.579 434.144 322.37 434.205 322.518C434.257 322.667 433.134 325.052 433.221 325.401C433.291 325.697 433.552 325.636 433.552 325.636C434.135 325.636 434.91 323.163 435.607 322.144V322.153Z" fill="#F8A492"/>
<path d="M462.923 299.991C462.923 299.991 460.511 299.225 458.97 298.52C457.933 298.05 453.423 295.803 453.423 295.803C453.423 295.803 455.365 287.6 456.68 284.648C461.504 273.816 466.99 281.287 467.738 283.029C469.402 286.921 462.923 300 462.923 300V299.991Z" fill="#E0D558"/>
<path d="M294.732 271.639L297.022 269.924C297.022 269.924 297.632 270.847 296.639 271.63C295.438 272.588 294.724 271.63 294.724 271.63L294.732 271.639Z" fill="white"/>
<path d="M563.733 396.839H31.3657C30.7039 396.839 30.1641 397.154 30.1641 397.544C30.1641 397.934 30.7039 398.249 31.3657 398.249H563.733C564.394 398.249 564.934 397.934 564.934 397.544C564.934 397.154 564.394 396.839 563.733 396.839Z" fill="#184655"/>
<path d="M230.53 95.2196C230.477 95.0802 230.356 95.0802 230.234 95.0715C229.032 95.0367 227.83 94.9845 226.637 94.8016C226.437 94.7755 226.246 94.7232 226.063 94.6536C225.732 94.5229 225.401 94.5229 225.07 94.6187C224.887 94.671 224.704 94.6797 224.521 94.6797C223.921 94.6797 222.196 94.0876 221.308 93.9395C221.108 93.9047 220.942 93.748 220.899 93.5477C220.028 90.0994 218.156 82.3669 217.912 79.8242C217.599 76.5762 215.352 61.9124 215.352 61.9124L209.344 63.5842C209.344 63.5842 211.817 74.408 212.505 79.6588C213.036 83.7079 217.085 92.3112 218.356 94.7842C218.975 96.6215 220.368 96.6738 220.69 96.7173C220.873 96.7434 221.047 96.8305 221.169 96.9698C221.387 97.2224 221.639 97.4488 221.926 97.6316C222.135 97.7622 222.301 97.9451 222.44 98.1454C222.693 98.5198 222.928 98.9117 223.146 99.2948C223.294 99.556 223.45 99.6344 223.677 99.5734C223.912 99.5038 224.025 99.3296 224.025 99.0423C224.025 98.6156 223.877 98.2237 223.668 97.858C223.468 97.5184 223.485 97.3181 223.72 96.9959C223.86 96.8131 223.99 96.6389 224.173 96.4909C224.356 96.3429 224.539 96.2297 224.791 96.2645C225.227 96.369 225.662 96.4561 226.097 96.5083L226.463 96.5867L226.663 96.6302C226.698 96.6302 227.334 96.7086 227.552 96.7086C227.726 96.7086 228.013 96.7173 228.257 96.7347C228.475 96.7434 228.936 96.6302 228.954 96.6302C229.171 96.6302 229.354 96.5519 229.511 96.4038C229.572 96.3429 229.642 96.2819 229.607 96.1774C229.572 96.0903 229.502 96.0468 229.415 96.0294C229.267 96.0033 228.527 95.9162 228.536 95.8814C228.753 95.8814 229.45 95.8639 229.676 95.8552C229.972 95.8552 230.234 95.742 230.443 95.5156C230.521 95.4286 230.617 95.3415 230.565 95.2022L230.53 95.2196Z" fill="#F7A491"/>
<path d="M211.704 54.2494C214.673 53.7096 217.12 66.9802 217.12 66.9802C217.12 66.9802 210.528 68.8175 208.839 67.851C208.839 67.851 206.923 59.3609 206.235 59.657L211.704 54.2494Z" fill="#232323"/>
<path d="M140.004 292.747C140.204 292.181 137.461 291.728 137.322 291.162C137.174 290.596 140.779 290.552 140.901 290.047C141.136 289.124 136.956 289.856 137.034 289.42C137.113 288.994 141.388 288.027 140.927 287.287C140.465 286.547 136.599 288.75 136.477 288.245C136.364 287.74 140.256 286.521 140.187 285.423C140.152 284.84 133.786 288.349 133.055 288.036C132.315 287.714 133.847 284.953 133.264 284.544C132.681 284.135 130.991 290.152 130.582 290.352C130.181 290.552 121.587 295.455 118.53 296.238C118.156 295.211 117.355 293.835 117.033 292.869C115.317 294.088 114.046 294.706 112.27 295.812C113.55 299.025 115.378 302.543 116.275 302.952C118.992 304.18 129.52 295.455 131.618 293.957C133.717 292.459 134.927 292.947 136.347 292.477C137.766 292.006 139.803 293.304 140.004 292.738V292.747Z" fill="#F7A491"/>
<path d="M111.912 297.362C111.912 297.362 109.561 286.965 109.962 283.943C110.371 280.93 113.959 278.117 116.441 279.154C118.922 280.199 120.054 294.714 120.054 294.714L111.912 297.353V297.362Z" fill="#DD513A"/>
</g>
<defs>
<clipPath id="clip0_2136_9474">
<rect width="573.25" height="400" fill="white"/>
</clipPath>
</defs>
</svg>
