<svg width="463" height="400" viewBox="0 0 463 400" fill="none" xmlns="http://www.w3.org/2000/svg">
<g clip-path="url(#clip0_2136_9151)">
<path d="M186.215 101.088L195.548 100.037C196.325 99.953 197.083 100.319 197.504 100.975C198.047 101.819 198.628 102.644 199.246 103.451C200.397 104.951 201.623 106.339 202.943 107.586C203.561 108.177 203.767 109.068 203.449 109.855L199.873 119.017C199.48 119.992 199.91 121.108 200.865 121.577L208.907 125.572C209.824 126.022 210.91 125.713 211.462 124.859L216.321 117.217C216.779 116.467 217.687 116.11 218.558 116.345C222.256 117.32 226.103 117.704 229.941 117.479C230.868 117.423 231.729 118.033 232.01 118.914L233.658 124.175C233.976 125.169 234.996 125.788 236.026 125.591L244.76 123.818C244.938 123.781 245.107 123.734 245.266 123.65C246.024 123.284 246.492 122.459 246.38 121.596L245.603 114.6L245.406 112.894C246.857 112.078 248.28 111.131 249.637 110.09C251.463 108.683 253.129 107.127 254.608 105.476C255.17 104.848 256.059 104.623 256.846 104.932L264.204 107.83C265.215 108.224 266.347 107.783 266.825 106.817L269.867 100.656L270.738 98.884C271.215 97.9181 270.897 96.746 269.989 96.1646L263.623 92.0854C262.884 91.6166 262.509 90.7351 262.725 89.9005C263.314 87.3874 263.651 84.8086 263.698 82.2392C263.717 82.0142 263.717 81.8079 263.717 81.5922C263.717 81.5172 263.717 81.4421 263.736 81.3765C263.81 80.5513 264.391 79.8668 265.177 79.6136L273.687 76.9129C273.78 76.8848 273.874 76.8473 273.967 76.8004C274.791 76.3971 275.269 75.4594 275.091 74.5404L273.34 65.8101C273.125 64.7599 272.151 64.0378 271.075 64.1597L261.339 65.2662C260.515 65.3694 259.72 64.9474 259.326 64.2066C258.446 62.6031 257.435 61.037 256.275 59.5273C255.666 58.7302 255.03 57.9613 254.365 57.2298C253.831 56.6297 253.672 55.7857 253.962 55.0355L257.398 46.2302C257.782 45.2644 257.361 44.1485 256.415 43.6796L248.449 39.7411C247.484 39.2629 246.324 39.5817 245.734 40.5007L241.886 46.5397C241.371 47.3555 240.379 47.6931 239.48 47.393C235.942 46.1646 232.235 45.5082 228.5 45.4144C227.62 45.4144 226.833 44.8236 226.562 43.9609L224.137 36.2715C223.81 35.24 222.761 34.6211 221.703 34.8274L213.025 36.5716C211.986 36.7779 211.275 37.7625 211.406 38.8034L211.443 39.216L212.351 47.3367C212.445 48.2088 212.005 49.0247 211.228 49.4279C209.365 50.3938 207.568 51.5378 205.845 52.86C204.928 53.5633 204.057 54.3135 203.224 55.0824C202.644 55.6263 201.82 55.7857 201.08 55.5044L193.61 52.5599C192.59 52.1567 191.429 52.6068 190.942 53.5821L187.029 61.5247C186.917 61.7497 186.861 61.9935 186.823 62.228C186.748 62.9875 187.095 63.7659 187.759 64.1972L192.852 67.4418C193.47 67.845 193.835 68.5577 193.807 69.2704C193.797 69.4579 193.76 69.6548 193.704 69.8424C192.159 74.3998 191.541 79.2197 191.869 84.0209C191.935 84.8367 191.485 85.5963 190.783 85.9714C190.68 86.0277 190.577 86.0652 190.455 86.1027L183.556 88.2876C182.554 88.6064 181.955 89.6192 182.152 90.6601L182.189 90.8664L183.884 99.381C184.108 100.45 185.101 101.172 186.177 101.05L186.215 101.088ZM245.93 74.5123C246.464 75.8532 246.895 77.288 247.194 78.8352C247.765 81.7797 247.166 86.4215 245.846 89.1034C245.706 89.3941 245.556 89.6755 245.416 89.9568C236.279 106.958 212.342 103.573 208.401 84.396C207.886 81.8923 208.204 78.2351 209.103 75.4406C209.318 74.7936 209.552 74.1841 209.815 73.6777C211.032 71.2396 212.548 69.1953 214.271 67.5355C224.1 58.0644 240.529 61.1683 245.93 74.5217V74.5123Z" fill="#EDECEB"/>
<path d="M434.28 102.616V339.085C434.28 343.22 431.303 346.577 427.624 346.577H87.3033C83.6337 346.577 80.6475 343.22 80.6475 339.085V102.616C80.6475 98.4715 83.6244 95.1238 87.3033 95.1238H427.624C431.293 95.1238 434.28 98.4715 434.28 102.616Z" fill="#D8D8D8"/>
<path d="M417.457 89.1221V108.299H37.6509V89.1221C37.6509 85.1648 40.8524 81.9578 44.7935 81.9578H410.305C414.246 81.9578 417.448 85.1648 417.448 89.1221H417.457Z" fill="#232323"/>
<path d="M49.2681 95.1235C49.2681 93.2855 50.7565 91.7852 52.5913 91.7852C54.4261 91.7852 55.9146 93.2762 55.9146 95.1235C55.9146 96.9708 54.4261 98.4618 52.5913 98.4618C50.7565 98.4618 49.2681 96.9708 49.2681 95.1235Z" fill="#DCEAFF"/>
<path d="M62.374 95.1235C62.374 93.2855 63.8625 91.7852 65.6973 91.7852C67.5321 91.7852 69.0205 93.2762 69.0205 95.1235C69.0205 96.9708 67.5321 98.4618 65.6973 98.4618C63.8625 98.4618 62.374 96.9708 62.374 95.1235Z" fill="#DCEAFF"/>
<path d="M75.8169 95.1235C75.8169 93.2855 77.3053 91.7852 79.1402 91.7852C80.975 91.7852 82.4634 93.2762 82.4634 95.1235C82.4634 96.9708 80.975 98.4618 79.1402 98.4618C77.3053 98.4618 75.8169 96.9708 75.8169 95.1235Z" fill="#DCEAFF"/>
<path d="M283.703 61.2996L288.253 60.7838C288.627 60.7463 289.002 60.9245 289.208 61.2433C289.47 61.6559 289.751 62.0498 290.05 62.4436C290.612 63.1751 291.211 63.8502 291.847 64.4597C292.147 64.7504 292.25 65.1818 292.091 65.5663L290.35 70.0299C290.162 70.5081 290.368 71.052 290.836 71.2771L294.749 73.2182C295.189 73.4339 295.723 73.2838 295.995 72.8712L298.363 69.1484C298.588 68.7827 299.028 68.6139 299.458 68.7264C301.256 69.2047 303.128 69.3922 305 69.2797C305.449 69.2516 305.871 69.5516 306.011 69.983L306.816 72.543C306.975 73.0306 307.471 73.3307 307.968 73.2276L312.218 72.3648C312.302 72.3461 312.386 72.3273 312.461 72.2805C312.826 72.1023 313.06 71.6991 313.004 71.2771L312.63 67.8731L312.536 67.0479C313.247 66.6447 313.94 66.1946 314.595 65.6788C315.485 64.9943 316.299 64.2347 317.02 63.4282C317.291 63.1188 317.722 63.0156 318.106 63.1657L321.691 64.5817C322.178 64.7692 322.74 64.5629 322.964 64.0847L324.443 61.0839L324.865 60.2212C325.099 59.7523 324.94 59.1803 324.5 58.899L321.401 56.911C321.036 56.6859 320.858 56.2546 320.961 55.8513C321.251 54.6229 321.41 53.3757 321.429 52.1192C321.439 52.0066 321.439 51.9129 321.429 51.8003C321.429 51.7628 321.429 51.7253 321.429 51.6972C321.467 51.294 321.747 50.9564 322.131 50.8438L326.278 49.531C326.325 49.5216 326.372 49.4935 326.409 49.4748C326.812 49.2778 327.046 48.8277 326.952 48.3682L326.1 44.1203C325.997 43.6045 325.52 43.2576 324.996 43.3138L320.25 43.8483C319.847 43.8952 319.463 43.6889 319.267 43.3326C318.836 42.5543 318.34 41.7947 317.778 41.0539C317.479 40.6694 317.17 40.2943 316.842 39.938C316.58 39.6473 316.505 39.2347 316.646 38.869L318.321 34.5742C318.508 34.1053 318.302 33.5614 317.844 33.3363L313.968 31.414C313.5 31.1796 312.929 31.339 312.648 31.7797L310.776 34.7242C310.523 35.118 310.046 35.2868 309.606 35.1368C307.883 34.5366 306.077 34.2178 304.261 34.1709C303.83 34.1709 303.446 33.8802 303.315 33.4676L302.136 29.7167C301.976 29.2103 301.462 28.9102 300.947 29.0134L296.715 29.8573C296.21 29.9605 295.863 30.4387 295.929 30.9451L295.948 31.142L296.388 35.0993C296.435 35.5213 296.219 35.9245 295.845 36.1214C294.937 36.5903 294.066 37.1529 293.224 37.7906C292.774 38.1375 292.353 38.4939 291.941 38.8784C291.66 39.1409 291.258 39.2253 290.893 39.0847L287.251 37.6499C286.755 37.453 286.184 37.6781 285.95 38.1469L284.04 42.0198C283.984 42.1323 283.956 42.2448 283.947 42.3573C283.909 42.7231 284.078 43.1075 284.405 43.3138L286.886 44.8986C287.186 45.0955 287.363 45.4425 287.345 45.7895C287.345 45.8832 287.326 45.977 287.298 46.0708C286.54 48.2932 286.24 50.6375 286.409 52.9725C286.446 53.3664 286.221 53.7414 285.875 53.9196C285.828 53.9477 285.772 53.9665 285.716 53.9853L282.355 55.0449C281.868 55.1949 281.578 55.6919 281.672 56.1983L281.69 56.3015L282.514 60.4462C282.627 60.9714 283.104 61.3183 283.628 61.2621L283.703 61.2996ZM312.789 48.3588C313.051 49.0153 313.257 49.7092 313.407 50.4594C313.687 51.8941 313.397 54.154 312.751 55.4575C312.686 55.5982 312.611 55.7388 312.536 55.8701C308.089 64.1503 296.425 62.4999 294.506 53.16C294.253 51.941 294.412 50.1593 294.843 48.7996C294.946 48.4808 295.058 48.1901 295.189 47.9369C295.779 46.7459 296.519 45.7519 297.361 44.9455C302.154 40.3318 310.149 41.8416 312.779 48.3495L312.789 48.3588Z" fill="#EDECEB"/>
<path d="M92.0217 275.881C92.0217 275.881 92.5273 270.349 86.3582 270.349C86.3582 270.349 88.2304 270.855 89.1946 271.877C89.1946 271.877 85.2629 269.561 80.9754 273.115C76.6973 276.669 79.3559 285.596 78.0547 287.294C76.7535 288.991 71.6797 289.328 72.3069 294.805C72.9247 300.281 88.3989 307.145 87.4066 311.675C87.4066 311.675 93.4727 302.738 89.1385 298.659C89.1385 298.659 91.2541 300.656 91.4694 303.029C91.4694 303.029 92.0405 298.396 89.101 296.915C86.4986 295.602 84.3736 290.81 84.5982 289.957C84.8229 289.103 92.0311 275.891 92.0311 275.891L92.0217 275.881Z" fill="#232323"/>
<path d="M85.9463 302.447C85.9463 302.447 90.552 321.558 95.0735 325.375C97.7883 327.672 105.876 332.942 105.876 332.942L102.516 334.162C102.516 334.162 91.3009 330.364 88.7921 327.41C86.2833 324.447 79.4121 309.621 79.4121 309.621L85.9463 302.438V302.447Z" fill="#FFAE73"/>
<path d="M42.6407 336.018C42.6781 336.093 42.7249 336.168 42.7717 336.243C43.7827 337.997 46.095 342.301 48.6412 347.018C49.8488 349.25 51.1126 351.585 52.3015 353.77C54.361 357.549 56.2426 360.915 57.3379 362.687C58.4519 364.497 59.2663 365.763 59.6033 366.27C59.7063 366.429 59.725 366.617 59.7156 366.795C59.6033 368.389 59.6314 369.974 59.7905 371.53C61.3258 386.853 71.6326 395.067 71.6326 395.067L74.6937 395.518C74.6937 395.518 70.3594 379.407 69.0769 370.302C68.8616 368.755 68.768 367.507 68.8429 366.692C69.0676 364.319 68.6463 360.831 67.8506 356.836C66.4371 349.728 63.8346 341.007 61.5785 334.021C61.4381 333.571 57.1226 317.939 57.1226 317.939C53.5091 321.108 40.3097 322.421 40.3097 322.421C40.3097 322.421 38.0723 327.879 42.6313 336.009L42.6407 336.018Z" fill="#232323"/>
<path d="M81.1249 399.428H68.328C68.328 399.428 68.0191 397.477 68.6931 395.986C69.3296 394.561 70.2471 394.514 68.8054 392.292C69.6198 393.126 72.2316 393.483 74.0852 393.229C74.3099 393.595 75.5455 396.071 76.3038 396.615C77.137 397.215 80.8721 396.999 81.1249 399.428Z" fill="#1A4379"/>
<path d="M42.6406 336.018C42.6781 336.093 42.7249 336.168 42.7717 336.243C43.7827 337.997 49.231 348.096 51.7772 352.804C48.8284 340.632 50.8786 328.451 50.8786 328.451L42.6406 336.009V336.018Z" fill="black"/>
<path d="M90.2802 275.103C90.3644 274.765 82.969 278.451 82.5945 278.873C79.1309 282.727 80.1138 287.753 82.0984 287.809C83.3715 287.837 83.1281 289.957 83.1281 289.957L97.3011 283.946C97.3011 283.946 95.5974 273.968 90.2802 275.103Z" fill="#232323"/>
<path d="M85.5156 299.578C85.5156 299.578 87.6687 303.891 87.4065 307.399C87.4065 307.399 84.8041 311.515 78.064 312.556C78.064 312.556 83.8586 299.578 85.5249 299.578H85.5156Z" fill="#E0D558"/>
<path d="M52.6198 323.387L52.6666 320.986C47.9017 321.586 36.2281 315.275 36.2281 315.275C36.2281 315.275 31.2386 318.604 30.5552 328.094C30.2182 332.727 28.1119 352.335 27.8779 358.186C27.7936 360.305 27.7655 361.825 27.7562 362.425C27.7562 362.612 27.6626 362.772 27.5502 362.922C26.5673 364.178 25.706 365.51 24.9665 366.888C17.6928 380.457 21.4935 398.893 21.4935 398.893L23.1785 398.462C23.1785 398.462 29.3289 379.351 33.3449 371.08C34.0282 369.673 34.6461 368.586 35.161 367.957C36.6681 366.119 38.2689 362.987 39.8416 359.227C42.8091 352.119 52.601 323.368 52.601 323.368L52.6198 323.387Z" fill="#232323"/>
<path d="M31.6693 399.428H18.8724C18.8724 399.428 18.5635 397.477 19.2375 395.986C19.8741 394.561 20.8851 393.914 20.6417 392.198C21.4561 393.032 22.7761 393.98 24.6296 393.726C24.8543 394.092 26.09 396.061 26.8482 396.615C27.6814 397.215 31.4165 396.999 31.6693 399.428Z" fill="#1A4379"/>
<path d="M77.1933 315.313C75.4709 315.604 77.4742 316.973 75.1058 317.235C71.7451 317.601 68.272 317.854 66.4466 318.586C65.7819 318.848 65.3419 319.177 65.2015 319.599C64.4152 321.98 59.4163 326.06 59.4163 326.06C37.1364 325.047 35.7041 315.088 35.7041 315.088C50.1579 301.013 62.4587 293.342 72.625 292.385C75.0964 292.151 78.4384 292.46 80.0017 293.164C83.559 294.749 85.5062 299.578 85.5062 299.578C85.5062 299.578 83.7182 314.197 77.184 315.313H77.1933Z" fill="#E0D558"/>
<path d="M75.115 317.235C71.7543 317.601 68.2812 317.854 66.4558 318.586C65.7162 307.445 70.9585 299.072 70.9585 299.072C70.9585 299.072 74.3754 313.025 75.115 317.235Z" fill="#FC7600"/>
<path d="M79.8236 294.083C80.4602 296.08 82.5759 301.772 85.5153 299.578C85.4123 299.156 86.0302 297.918 86.7604 296.661C87.6871 295.058 88.8011 293.417 88.8011 293.417L84.0175 289.216L83.7273 288.963C82.4729 291.157 81.2466 292.207 80.17 293.014C79.8424 293.257 79.7019 293.679 79.8236 294.073V294.083Z" fill="#FFAE73"/>
<path d="M88.8013 293.426C88.8013 293.426 87.6966 295.058 86.7605 296.661C83.7836 294.823 83.7836 291.129 84.0083 289.216L88.7919 293.426H88.8013Z" fill="#F99352"/>
<path d="M88.9325 295.536C88.9325 295.536 81.7056 291.504 84.28 287.031C86.8543 282.558 87.65 279.023 92.3775 281.414C97.0956 283.796 97.0019 286.018 96.5058 287.725C96.0097 289.432 90.8797 296.474 88.9325 295.546V295.536Z" fill="#FFAE73"/>
<path d="M97.7227 285.109C97.3951 283.121 96.384 282.933 95.6819 283.064C93.014 278.638 88.6516 280.364 88.6516 280.364C86.3207 283.289 82.96 283.796 82.96 283.796C82.96 283.796 83.8025 285.362 87.2568 286.328C88.3146 286.628 89.5129 286.44 90.6643 286.056C88.2678 287.397 85.759 287.912 85.759 287.912C90.3086 288.334 94.6428 284.161 95.0922 283.711C95.2981 284.358 95.6726 285.709 95.4479 286.703C95.1484 288.044 93.9595 290.482 94.6803 290.801C94.6803 290.801 98.2095 288.091 97.7133 285.118L97.7227 285.109Z" fill="#232323"/>
<path d="M169.718 368.889L115.798 342.534L108.893 356.709L162.813 383.064L169.718 368.889Z" fill="#9E9E9E"/>
<path d="M92.0498 359.677C87.0977 357.258 83.5872 352.776 82.3983 347.384C81.9209 345.189 83.297 343.023 85.4875 342.545C87.6687 342.067 89.8312 343.445 90.3179 345.639C90.9639 348.593 92.8923 351.05 95.6071 352.382C100.466 354.754 106.354 352.729 108.722 347.852C111.091 342.976 109.069 337.078 104.201 334.696C101.991 333.618 99.4826 333.402 97.1236 334.105C94.9799 334.743 92.7238 333.515 92.0872 331.358C91.4507 329.21 92.677 326.95 94.8207 326.313C99.1176 325.037 103.705 325.422 107.739 327.391C116.614 331.733 120.321 342.498 115.996 351.406C111.671 360.306 100.924 364.019 92.0404 359.677H92.0498Z" fill="#9E9E9E"/>
<path d="M168.316 396.952C159.442 392.611 155.734 381.845 160.059 372.937C164.384 364.038 175.131 360.324 184.015 364.666C188.05 366.635 191.176 370.021 192.824 374.203C193.648 376.285 192.627 378.648 190.549 379.473C188.471 380.298 186.112 379.276 185.288 377.185C184.389 374.897 182.676 373.04 180.467 371.962C175.609 369.589 169.72 371.615 167.352 376.491C164.983 381.367 167.005 387.266 171.873 389.647C174.588 390.97 177.705 390.979 180.43 389.675C182.442 388.71 184.867 389.563 185.831 391.579C186.795 393.605 185.943 396.024 183.931 396.999C178.96 399.39 173.278 399.372 168.325 396.952H168.316Z" fill="#9E9E9E"/>
<path d="M121.151 354.411L121.873 352.928C122.271 352.111 123.26 351.77 124.076 352.169L152.479 366.051C153.295 366.45 153.636 367.441 153.237 368.258L152.515 369.742C152.117 370.559 151.128 370.9 150.312 370.501L121.909 356.618C121.093 356.219 120.753 355.229 121.151 354.411Z" fill="#D8D8D8"/>
<path d="M84.7945 345.274C84.7945 345.274 84.9537 346.624 85.5154 347.318C86.0864 348.012 87.7434 349.7 87.7714 350.684C87.7714 350.684 87.6872 351.125 87.3315 351.041C86.9757 350.956 85.74 349.737 85.1128 349.822C85.1128 349.822 85.4498 351.8 85.7868 352.354C86.1238 352.907 86.7417 355.007 86.5357 355.495C86.3298 355.983 82.9878 353.179 81.9674 351.81C80.9564 350.441 81.9487 344.889 81.9487 344.889L84.7852 345.264L84.7945 345.274Z" fill="#FFAE73"/>
<path d="M78.017 297.177C78.017 297.177 69.5544 296.718 68.0566 302.035C66.5494 307.361 70.8744 328.61 71.8105 330.804C73.5049 334.799 81.7615 346.193 81.7615 346.193L84.7946 345.264C84.7946 345.264 79.2902 327.851 78.0638 326.125C76.1354 323.424 80.5539 299.484 78.017 297.168V297.177Z" fill="#FFAE73"/>
<path d="M66.3809 309.161C66.3996 309.283 74.3848 310.634 79.3837 308.092C79.3837 308.092 83.5588 294.992 77.5957 295.621C71.6325 296.249 68.1033 298.134 67.9535 300.994C67.8038 303.854 66.3902 309.171 66.3902 309.171L66.3809 309.161Z" fill="#E0D558"/>
<path d="M101.729 324.428C101.327 324.447 100.587 324.578 100.325 324.784C99.8662 325.141 99.342 325.759 100.381 326.275C101.935 327.054 105.034 326.707 104.912 326.238C104.528 324.765 103.966 324.325 101.729 324.428Z" fill="#FFAE73"/>
<path d="M127.417 115.248C127.005 115.716 126.958 116.242 127.155 116.795C127.529 117.826 128.765 118.98 130.197 120.133C130.384 120.283 130.543 120.414 130.684 120.536C130.721 120.564 130.759 120.602 130.796 120.639C130.824 120.668 130.852 120.696 130.88 120.714C132.219 121.952 131.714 122.234 134.11 124.737C136.843 127.588 138.734 127.644 139.268 127.382C139.717 127.157 138.8 125.647 137.78 123.94C137.733 123.856 137.686 123.772 137.63 123.696C137.489 123.471 137.358 123.237 137.227 123.012C136.029 120.968 136.338 120.002 136.619 116.954C136.853 114.479 140.466 103.113 140.466 103.113L135.224 102.204C135.224 102.204 133.642 111.253 131.901 112.641C130.974 113.381 129.926 113.391 129.036 113.944C128.971 113.982 128.914 114.019 128.849 114.066C128.343 114.404 127.819 114.751 127.417 115.219V115.248Z" fill="#FFAE73"/>
<path d="M127.417 115.247C127.005 115.716 126.958 116.241 127.155 116.795C127.613 117.826 128.812 118.98 130.197 120.124C130.375 120.274 130.534 120.414 130.684 120.546C130.721 120.574 130.759 120.611 130.796 120.649C130.824 120.677 130.852 120.705 130.88 120.724C132.219 121.962 131.714 122.243 134.11 124.747C136.843 127.597 138.734 127.654 139.268 127.391C139.717 127.166 138.8 125.656 137.78 123.95C137.246 123.753 131.629 123.115 132.902 120.349C133.82 118.342 131.573 115.594 129.036 113.963C128.971 114 128.914 114.038 128.849 114.085C128.343 114.422 127.819 114.769 127.417 115.238V115.247Z" fill="#1E3865"/>
<path d="M169.711 111.965C170.039 113.588 172.341 113.316 174.925 112.687C177.5 112.059 176.891 112.809 180.561 112.397C184.23 111.993 185.344 110.615 185.457 110.071C185.56 109.583 183.744 109.415 181.796 109.19C181.553 109.161 181.31 109.133 181.057 109.105C178.857 108.833 177.256 107.408 175.262 106.245C173.371 105.139 170.553 100.637 170.553 100.637L165.517 101.041C165.517 101.041 168.157 105.064 169.177 106.808C169.776 107.839 169.748 109.199 169.674 110.249C169.636 110.821 169.599 111.403 169.711 111.975V111.965Z" fill="#FFAE73"/>
<path d="M174.916 112.678C177.49 112.05 176.882 112.8 180.551 112.387C184.221 111.984 185.335 110.606 185.447 110.062C185.55 109.574 183.734 109.405 181.787 109.18L181.768 109.218C181.768 109.218 179.569 110.784 176.517 110.859C174.027 110.915 171.387 110.202 169.674 110.23C169.636 110.802 169.599 111.384 169.711 111.956C170.039 113.578 172.342 113.306 174.925 112.678H174.916Z" fill="#1E3865"/>
<path d="M150.427 79.7073L145.718 92.3948L139.577 108.965C139.577 108.965 137.911 109.124 136.31 108.665C134.84 108.243 133.155 107.127 133.155 107.127C133.155 107.127 134.859 89.3378 138.042 79.1259C138.856 76.5002 139.774 74.3809 140.775 73.19C145.709 67.3479 150.417 79.7073 150.417 79.7073H150.427Z" fill="#969696"/>
<path d="M145.643 59.5553C142.563 58.5613 133.773 59.8366 124.945 61.5715L123.101 58.5144L104.032 57.0234C104.032 57.0234 97.7415 71.0144 101.186 79.9323C101.692 81.2451 102.703 82.0797 104.416 82.1078H104.697C104.697 82.1078 116.052 82.1078 119.731 82.1078C129.214 82.1078 139.802 75.5718 141.178 75.2999C143.415 74.8498 144.314 79.3415 146.561 84.0677C148.798 88.7845 167.633 104.97 167.633 104.97C167.633 104.97 170.526 104.998 171.724 104.548C173.006 104.06 173.484 103.432 173.484 103.432C173.484 103.432 152.617 61.8153 145.671 59.5647L145.643 59.5553Z" fill="#CCCCCC"/>
<path d="M116.773 0.309297C114.105 -0.384626 110.445 0.309297 109.836 0.365561C102.581 1.07824 100.138 9.19902 101.242 15.4912C102.253 21.3052 99.314 22.9087 95.9065 27.4942C89.0728 36.6934 93.5381 44.4578 98.9302 46.4552C102.16 47.6555 106.653 44.6266 106.653 44.6266C106.738 44.6548 120.761 35.4087 126.518 30.2043C136.095 26.444 123.588 2.06286 116.773 0.29992V0.309297Z" fill="#232323"/>
<path d="M117.849 26.9222C118.036 27.5974 114.863 28.8352 112.438 28.3757C110.164 27.9537 107.608 25.2718 108.132 25.0186C109.003 24.606 109.592 23.5651 109.115 17.9856L109.546 18.0325L116.838 18.8671C116.838 18.8671 116.857 21.1458 117.025 23.2744C117.166 25.0655 117.531 25.8157 117.84 26.9128L117.849 26.9222Z" fill="#E29460"/>
<path d="M116.838 18.8671C116.838 18.8671 116.857 21.1457 117.026 23.2744C113 23.4901 110.576 19.9923 109.537 18.0325L116.829 18.8671H116.838Z" fill="#C17B4C"/>
<path d="M118.346 20.7801C118.346 20.7801 108.853 21.7179 108.366 15.782C107.87 9.84615 106.316 5.97331 112.354 5.11997C118.392 4.26663 119.759 6.4328 120.405 8.37391C121.051 10.315 120.808 20.3769 118.346 20.7708V20.7801Z" fill="#E29460"/>
<path d="M117.335 4.19153C117.335 4.19153 116.136 11.4402 110.735 13.1563C106.794 14.4128 105.006 13.5876 105.006 13.5876C105.006 13.5876 106.906 11.0651 107.58 7.55799C107.777 6.52649 108.516 5.67315 109.509 5.34494C112.308 4.41658 115.706 1.89408 117.335 4.19153Z" fill="#232323"/>
<path d="M115.537 5.73883C115.537 5.73883 117.325 6.14205 118.907 8.44888C119.778 9.71482 120.779 12.9031 120.602 14.3097C120.602 14.3097 122.259 7.60492 119.843 5.11054C117.278 2.46613 115.537 5.73883 115.537 5.73883Z" fill="#232323"/>
<path d="M100.756 46.4085C100.924 47.1305 101.074 47.7963 101.186 48.4058C101.383 49.3904 101.514 50.2438 101.608 50.994C101.898 53.3383 101.814 54.7168 102.01 56.2359C102.123 57.0799 102.319 57.9707 102.722 59.0866C103.115 60.1744 113.422 61.1403 119.291 60.7558C121.154 60.6339 122.577 60.3713 123.073 59.94C125.17 58.1208 124.955 62.1249 125.245 42.9482C125.385 33.599 117.325 25.2625 117.325 25.2625C117.325 25.2625 116.679 29.2573 108.694 24.503C108.413 24.3342 105.268 29.0041 102.235 34.7618C98.9023 41.1196 99.8104 42.4606 100.756 46.4178V46.4085Z" fill="#E0D558"/>
<path d="M145.718 92.3949L139.577 108.965C139.577 108.965 137.911 109.124 136.31 108.665C134.84 108.243 133.155 107.127 133.155 107.127C133.155 107.127 134.859 89.3379 138.042 79.126L145.718 92.3949Z" fill="#CCCCCC"/>
<path d="M117.334 25.2625C117.334 25.2625 125.554 26.6597 126.518 30.2043C127.482 33.7489 134.157 53.6008 134.157 53.6008C134.157 53.6008 128.989 55.3731 127.061 53.432C125.132 51.5003 120.339 35.4744 120.339 35.4744L117.334 25.2625Z" fill="#232323"/>
<path d="M116.155 17.2823C116.155 17.2823 116.548 18.2576 117.606 18.2576C118.664 18.2576 118.944 18.0981 119.141 17.8731C119.338 17.648 119.534 17.2167 119.534 17.2167C119.534 17.2167 117.793 16.8697 116.155 17.2729V17.2823Z" fill="white"/>
<path d="M101.607 50.9937C101.898 53.3381 101.813 54.7165 102.01 56.2357C109.471 56.2638 119.45 50.4592 119.45 50.4592L101.607 50.9937Z" fill="#D88A19"/>
<path d="M119.45 45.5549C119.45 45.5549 107.824 45.2079 105.867 38.5782C103.714 31.3013 101.299 41.5695 101.299 41.5695L102.581 48.1243H115.341L119.45 45.5455V45.5549Z" fill="#D88A19"/>
<path d="M139.727 27.5693L139.1 26.0127C138.426 24.3435 136.806 23.2463 135.009 23.2463H123.419V62.0967H171.368V30.6169H144.23C142.245 30.6169 140.466 29.4073 139.727 27.5693Z" fill="#232323"/>
<path d="M130.646 46.8678V44.064L140.448 39.7598V42.6199L133.605 45.4424L140.448 48.265V51.172L130.646 46.8678Z" fill="white"/>
<path d="M150.623 36.4214H153.235L144.267 55.2136H141.655L150.623 36.4214Z" fill="white"/>
<path d="M164.132 44.0732V46.8771L154.331 51.1813V48.3212L161.174 45.4986L154.331 42.676V39.769L164.132 44.0732Z" fill="white"/>
<path d="M119.45 47.0834L120.293 45.7612C120.293 45.7612 120.957 45.5456 121.893 44.8891C123.007 44.1108 122.858 42.9387 123.41 43.0606V45.6299H123.354C125.741 46.2676 128.521 45.5737 128.577 46.1738C128.727 47.8055 127.473 48.5463 126.415 49.0621C125.61 49.4559 124.683 50.0467 123.223 49.5872C122.156 49.2496 120.471 48.912 120.471 48.912L119.45 47.0834Z" fill="#E29460"/>
<path d="M108.694 24.5029C108.694 24.5029 101.149 24.9999 99.2578 27.9538C97.3668 30.9077 95.0265 45.8927 96.0095 51.0314C96.9924 56.1796 121.163 50.0468 121.163 50.0468L120.396 45.5832C120.396 45.5832 106.447 45.6676 105.652 43.839C104.594 41.4197 108.694 24.5029 108.694 24.5029Z" fill="#E0D558"/>
<path d="M145.128 30.5981C145.063 30.795 146.261 32.7736 147.974 32.436C149.041 32.2203 150.436 29.9135 149.21 29.4071C147.169 28.5632 145.297 30.0823 145.128 30.6074V30.5981Z" fill="#FFAE73"/>
<path d="M246.715 81.8958L218.65 134.526L218.906 134.663L246.971 82.0327L246.715 81.8958Z" fill="#232323"/>
<path d="M318.074 81.873L317.861 82.0706L349.371 116.156L349.584 115.959L318.074 81.873Z" fill="#232323"/>
<path d="M369.059 125.985C369.527 129.398 368.591 132.689 366.71 135.24C364.828 137.791 361.992 139.601 358.668 140.06L217.781 159.471C210.591 160.465 203.945 155.683 203.009 148.856C202.541 145.443 203.589 142.132 205.649 139.563C207.708 136.984 210.788 135.137 214.383 134.649L355.27 115.238C361.926 114.319 368.133 119.158 369.069 125.985H369.059Z" fill="#E8F2FA"/>
<path d="M369.059 125.985C369.527 129.398 368.591 132.689 366.71 135.24C364.828 137.791 361.992 139.601 358.668 140.06L333.177 143.577L329.779 118.755L355.27 115.238C361.926 114.319 368.133 119.158 369.069 125.985H369.059Z" fill="#232323"/>
<path d="M353.538 132.727C353.229 132.774 352.901 132.793 352.583 132.783C350.879 132.764 349.288 132.08 348.099 130.861C345.646 128.338 345.693 124.287 348.202 121.83C350.711 119.374 354.755 119.42 357.208 121.934C359.66 124.456 359.613 128.507 357.105 130.964C356.122 131.93 354.877 132.539 353.538 132.727ZM348.942 122.59C346.845 124.644 346.807 128.029 348.857 130.129C349.85 131.152 351.179 131.714 352.602 131.733C354.025 131.752 355.363 131.208 356.384 130.214C358.481 128.16 358.518 124.775 356.468 122.674C354.418 120.574 351.038 120.527 348.942 122.59Z" fill="#F1EA74"/>
<path d="M348.876 130.86L348.143 130.109L341.921 136.195L342.654 136.947L348.876 130.86Z" fill="#F1EA74"/>
<path d="M340.095 138.7C339.73 138.325 339.739 137.734 340.114 137.369L343.774 133.787C344.149 133.421 344.738 133.43 345.104 133.805C345.469 134.18 345.459 134.771 345.085 135.137L341.425 138.719C341.05 139.085 340.46 139.075 340.105 138.7H340.095Z" fill="#F1EA74"/>
<path d="M132.696 258.186H102.787C102.306 258.186 101.917 258.577 101.917 259.058V260.005C101.917 260.487 102.306 260.878 102.787 260.878H132.696C133.177 260.878 133.567 260.487 133.567 260.005V259.058C133.567 258.577 133.177 258.186 132.696 258.186Z" fill="#232323"/>
<path d="M117.353 270.142H102.834C102.328 270.142 101.917 269.73 101.917 269.223C101.917 268.717 102.328 268.304 102.834 268.304H117.353C117.859 268.304 118.271 268.717 118.271 269.223C118.271 269.73 117.859 270.142 117.353 270.142Z" fill="#9E9E9E"/>
<path d="M128.737 264.45H102.506C102.181 264.45 101.917 264.715 101.917 265.041V265.698C101.917 266.024 102.181 266.288 102.506 266.288H128.737C129.062 266.288 129.326 266.024 129.326 265.698V265.041C129.326 264.715 129.062 264.45 128.737 264.45Z" fill="#9E9E9E"/>
<path d="M156.839 264.45H132.415C132.09 264.45 131.826 264.715 131.826 265.041V265.698C131.826 266.024 132.09 266.288 132.415 266.288H156.839C157.165 266.288 157.429 266.024 157.429 265.698V265.041C157.429 264.715 157.165 264.45 156.839 264.45Z" fill="#9E9E9E"/>
<path d="M135.468 270.142H120.948C120.443 270.142 120.031 269.73 120.031 269.223C120.031 268.717 120.443 268.304 120.948 268.304H135.468C135.973 268.304 136.385 268.717 136.385 269.223C136.385 269.73 135.973 270.142 135.468 270.142Z" fill="#9E9E9E"/>
<path d="M168.541 258.186H138.631C138.151 258.186 137.761 258.577 137.761 259.058V260.005C137.761 260.487 138.151 260.878 138.631 260.878H168.541C169.021 260.878 169.411 260.487 169.411 260.005V259.058C169.411 258.577 169.021 258.186 168.541 258.186Z" fill="#232323"/>
<path d="M132.696 278.46H102.787C102.306 278.46 101.917 278.851 101.917 279.332V280.279C101.917 280.761 102.306 281.151 102.787 281.151H132.696C133.177 281.151 133.567 280.761 133.567 280.279V279.332C133.567 278.851 133.177 278.46 132.696 278.46Z" fill="#232323"/>
<path d="M117.353 290.416H102.834C102.328 290.416 101.917 290.004 101.917 289.497C101.917 288.991 102.328 288.578 102.834 288.578H117.353C117.859 288.578 118.271 288.991 118.271 289.497C118.271 290.004 117.859 290.416 117.353 290.416Z" fill="#9E9E9E"/>
<path d="M128.737 284.724H102.506C102.181 284.724 101.917 284.989 101.917 285.315V285.972C101.917 286.298 102.181 286.562 102.506 286.562H128.737C129.062 286.562 129.326 286.298 129.326 285.972V285.315C129.326 284.989 129.062 284.724 128.737 284.724Z" fill="#9E9E9E"/>
<path d="M156.839 284.724H132.415C132.09 284.724 131.826 284.989 131.826 285.315V285.972C131.826 286.298 132.09 286.562 132.415 286.562H156.839C157.165 286.562 157.429 286.298 157.429 285.972V285.315C157.429 284.989 157.165 284.724 156.839 284.724Z" fill="#9E9E9E"/>
<path d="M135.468 290.416H120.948C120.443 290.416 120.031 290.004 120.031 289.497C120.031 288.991 120.443 288.578 120.948 288.578H135.468C135.973 288.578 136.385 288.991 136.385 289.497C136.385 290.004 135.973 290.416 135.468 290.416Z" fill="#9E9E9E"/>
<path d="M168.541 278.46H138.631C138.151 278.46 137.761 278.851 137.761 279.332V280.279C137.761 280.761 138.151 281.151 138.631 281.151H168.541C169.021 281.151 169.411 280.761 169.411 280.279V279.332C169.411 278.851 169.021 278.46 168.541 278.46Z" fill="#232323"/>
<path d="M285.463 157.943L268.651 161.872L260.338 177.035L253.991 142.47L285.463 157.943Z" fill="#232323"/>
<path d="M267.715 158.522L265.269 160.381L276.017 174.576L278.464 172.718L267.715 158.522Z" fill="#232323"/>
<path d="M240.903 181.864H266.656C272.629 181.864 277.478 186.721 277.478 192.704V218.539C277.478 224.522 272.629 229.379 266.656 229.379H240.903C234.931 229.379 230.082 224.522 230.082 218.539V192.704C230.082 186.721 234.931 181.864 240.903 181.864Z" fill="#E0D558"/>
<path d="M236.138 219.448L245.35 202.803C246.426 200.862 249.132 200.694 250.442 202.485L255.75 209.752C256.883 211.299 259.139 211.421 260.431 210.005C261.77 208.542 264.129 208.739 265.205 210.409L270.934 219.279C272.236 221.296 270.794 223.968 268.388 223.968H238.778C236.466 223.968 235.006 221.483 236.129 219.458L236.138 219.448Z" fill="#F1EA74"/>
<path d="M254.318 195.02C254.318 193.014 255.937 191.391 257.941 191.391C259.944 191.391 261.563 193.014 261.563 195.02C261.563 197.027 259.944 198.649 257.941 198.649C255.937 198.649 254.318 197.027 254.318 195.02Z" fill="#F1EA74"/>
<path d="M287.719 189.205L328.679 183.61C330.339 183.383 331.868 184.547 332.095 186.21L337.691 227.267C337.918 228.93 336.757 230.461 335.096 230.688L294.136 236.283C292.475 236.51 290.947 235.346 290.72 233.683L285.124 192.626C284.897 190.962 286.058 189.432 287.719 189.205Z" fill="#E0D558"/>
<path d="M295.789 226.003L302.669 208.261C303.474 206.198 306.133 205.655 307.668 207.249L313.912 213.728C315.242 215.107 317.498 214.919 318.584 213.344C319.716 211.712 322.075 211.581 323.367 213.091L330.248 221.108C331.811 222.937 330.744 225.769 328.357 226.097L299.018 230.111C296.734 230.42 294.946 228.16 295.789 226.003Z" fill="#F1EA74"/>
<path d="M310.505 199.343C310.233 197.355 311.619 195.527 313.603 195.255C315.588 194.983 317.413 196.371 317.685 198.359C317.956 200.347 316.571 202.175 314.586 202.447C312.602 202.719 310.776 201.331 310.505 199.343Z" fill="#F1EA74"/>
<path d="M219.625 377.888H195.735V398.415H219.625V377.888Z" fill="#232323"/>
<path d="M220.43 377.007H194.771V378.591H220.43V377.007Z" fill="url(#paint0_linear_2136_9151)"/>
<path d="M219.625 383.439H195.735V389.957H219.625V383.439Z" fill="url(#paint1_linear_2136_9151)"/>
<path d="M248.682 398.434H226.131C225.307 398.434 224.633 397.759 224.633 396.933V394.43C224.633 393.539 225.41 392.845 226.29 392.939L248.842 395.442C249.6 395.527 250.171 396.164 250.171 396.933C250.171 397.759 249.497 398.434 248.673 398.434H248.682Z" fill="#232323"/>
<path d="M462.438 400L0.561677 399.84C0.252755 399.84 0 399.615 0 399.343V399.09C0 398.818 0.252755 398.593 0.561677 398.593L462.438 398.753C462.747 398.753 463 398.978 463 399.25V399.503C463 399.775 462.747 400 462.438 400Z" fill="#2D3554"/>
<path d="M204.32 231.255H201.717C201.483 231.255 201.287 231.067 201.287 230.823C201.287 230.579 201.474 230.392 201.717 230.392H204.301C204.535 230.392 204.741 230.579 204.741 230.823C204.741 231.067 204.554 231.255 204.32 231.255ZM199.143 231.255H196.559C196.325 231.255 196.129 231.067 196.129 230.823C196.129 230.579 196.316 230.392 196.559 230.392H199.143C199.377 230.392 199.573 230.579 199.573 230.823C199.573 231.067 199.386 231.255 199.143 231.255ZM193.975 231.255H191.392C191.158 231.255 190.961 231.067 190.961 230.823C190.961 230.579 191.148 230.392 191.392 230.392H193.975C194.209 230.392 194.406 230.579 194.406 230.823C194.406 231.067 194.219 231.255 193.975 231.255ZM188.808 231.255H186.224C185.99 231.255 185.794 231.067 185.794 230.823C185.794 230.579 185.981 230.392 186.224 230.392H188.808C189.042 230.392 189.239 230.579 189.239 230.823C189.239 231.067 189.051 231.255 188.808 231.255ZM183.641 231.255H181.057C180.823 231.255 180.626 231.067 180.626 230.823C180.626 230.579 180.813 230.392 181.057 230.392H183.641C183.875 230.392 184.071 230.579 184.071 230.823C184.071 231.067 183.884 231.255 183.641 231.255ZM178.473 231.255H175.889C175.655 231.255 175.459 231.067 175.459 230.823C175.459 230.579 175.646 230.392 175.889 230.392H178.473C178.707 230.392 178.904 230.579 178.904 230.823C178.904 231.067 178.717 231.255 178.473 231.255ZM173.306 231.255H170.722C170.488 231.255 170.291 231.067 170.291 230.823C170.291 230.579 170.479 230.392 170.722 230.392H173.306C173.54 230.392 173.736 230.579 173.736 230.823C173.736 231.067 173.549 231.255 173.306 231.255ZM168.138 231.255H165.555C165.321 231.255 165.124 231.067 165.124 230.823C165.124 230.579 165.311 230.392 165.555 230.392H168.138C168.372 230.392 168.569 230.579 168.569 230.823C168.569 231.067 168.382 231.255 168.138 231.255ZM162.971 231.255H160.387C160.153 231.255 159.956 231.067 159.956 230.823C159.956 230.579 160.144 230.392 160.387 230.392H162.971C163.205 230.392 163.401 230.579 163.401 230.823C163.401 231.067 163.214 231.255 162.971 231.255ZM157.803 231.255H155.22C154.986 231.255 154.789 231.067 154.789 230.823C154.789 230.579 154.976 230.392 155.22 230.392H157.803C158.037 230.392 158.234 230.579 158.234 230.823C158.234 231.067 158.047 231.255 157.803 231.255ZM152.636 231.255H150.052C149.818 231.255 149.622 231.067 149.622 230.823C149.622 230.579 149.809 230.392 150.052 230.392H152.636C152.87 230.392 153.067 230.579 153.067 230.823C153.067 231.067 152.879 231.255 152.636 231.255ZM147.469 231.255H144.885C144.651 231.255 144.454 231.067 144.454 230.823C144.454 230.579 144.641 230.392 144.885 230.392H147.469C147.703 230.392 147.899 230.579 147.899 230.823C147.899 231.067 147.712 231.255 147.469 231.255ZM142.301 231.255H139.717C139.483 231.255 139.287 231.067 139.287 230.823C139.287 230.579 139.474 230.392 139.717 230.392H142.301C142.535 230.392 142.732 230.579 142.732 230.823C142.732 231.067 142.544 231.255 142.301 231.255ZM137.134 231.255H134.55C134.316 231.255 134.119 231.067 134.119 230.823C134.119 230.579 134.307 230.392 134.55 230.392H137.134C137.368 230.392 137.564 230.579 137.564 230.823C137.564 231.067 137.377 231.255 137.134 231.255ZM131.966 231.255H129.383C129.148 231.255 128.952 231.067 128.952 230.823C128.952 230.579 129.139 230.392 129.383 230.392H131.966C132.2 230.392 132.397 230.579 132.397 230.823C132.397 231.067 132.21 231.255 131.966 231.255ZM126.799 231.255H124.215C123.981 231.255 123.784 231.067 123.784 230.823C123.784 230.579 123.972 230.392 124.215 230.392H126.799C127.033 230.392 127.229 230.579 127.229 230.823C127.229 231.067 127.042 231.255 126.799 231.255ZM121.631 231.255H119.048C118.814 231.255 118.617 231.067 118.617 230.823C118.617 230.579 118.804 230.392 119.048 230.392H121.631C121.865 230.392 122.062 230.579 122.062 230.823C122.062 231.067 121.875 231.255 121.631 231.255ZM116.464 231.255H114.161C114.058 231.255 113.955 231.255 113.852 231.245C113.618 231.226 113.44 231.03 113.45 230.795C113.468 230.561 113.665 230.373 113.899 230.392C113.983 230.392 114.067 230.392 114.152 230.392H116.455C116.689 230.392 116.885 230.579 116.885 230.823C116.885 231.067 116.698 231.255 116.455 231.255H116.464ZM206.688 230.504C206.548 230.504 206.417 230.439 206.332 230.317C206.201 230.12 206.248 229.857 206.445 229.726C207.091 229.285 207.596 228.666 207.886 227.935C207.971 227.719 208.223 227.607 208.439 227.701C208.654 227.785 208.766 228.038 208.673 228.254C208.317 229.145 207.708 229.895 206.922 230.429C206.847 230.476 206.763 230.504 206.679 230.504H206.688ZM111.502 230.354C111.409 230.354 111.315 230.326 111.24 230.261C110.482 229.679 109.92 228.882 109.621 227.982C109.546 227.757 109.668 227.513 109.892 227.438C110.117 227.363 110.36 227.485 110.435 227.71C110.679 228.451 111.147 229.098 111.765 229.585C111.952 229.726 111.989 229.998 111.839 230.186C111.755 230.298 111.624 230.354 111.502 230.354ZM208.598 225.975C208.364 225.975 208.167 225.788 208.167 225.544V222.956C208.167 222.721 208.354 222.524 208.598 222.524C208.841 222.524 209.028 222.712 209.028 222.956V225.544C209.028 225.778 208.841 225.975 208.598 225.975ZM109.808 225.713C109.574 225.713 109.377 225.525 109.377 225.281V222.693C109.377 222.459 109.565 222.262 109.808 222.262C110.051 222.262 110.239 222.449 110.239 222.693V225.281C110.239 225.516 110.051 225.713 109.808 225.713ZM208.598 220.799C208.364 220.799 208.167 220.611 208.167 220.368V217.779C208.167 217.545 208.354 217.348 208.598 217.348C208.841 217.348 209.028 217.536 209.028 217.779V220.368C209.028 220.602 208.841 220.799 208.598 220.799ZM109.808 220.536C109.574 220.536 109.377 220.349 109.377 220.105V217.517C109.377 217.282 109.565 217.085 109.808 217.085C110.051 217.085 110.239 217.273 110.239 217.517V220.105C110.239 220.339 110.051 220.536 109.808 220.536ZM208.598 215.623C208.364 215.623 208.167 215.435 208.167 215.191V212.603C208.167 212.369 208.354 212.172 208.598 212.172C208.841 212.172 209.028 212.359 209.028 212.603V215.191C209.028 215.426 208.841 215.623 208.598 215.623ZM109.808 215.36C109.574 215.36 109.377 215.172 109.377 214.929V212.341C109.377 212.106 109.565 211.909 109.808 211.909C110.051 211.909 110.239 212.097 110.239 212.341V214.929C110.239 215.163 110.051 215.36 109.808 215.36ZM208.598 210.446C208.364 210.446 208.167 210.259 208.167 210.015V207.427C208.167 207.192 208.354 206.995 208.598 206.995C208.841 206.995 209.028 207.183 209.028 207.427V210.015C209.028 210.249 208.841 210.446 208.598 210.446ZM109.808 210.184C109.574 210.184 109.377 209.996 109.377 209.752V207.164C109.377 206.93 109.565 206.733 109.808 206.733C110.051 206.733 110.239 206.92 110.239 207.164V209.752C110.239 209.987 110.051 210.184 109.808 210.184ZM208.598 205.27C208.364 205.27 208.167 205.082 208.167 204.839V202.25C208.167 202.016 208.354 201.819 208.598 201.819C208.841 201.819 209.028 202.007 209.028 202.25V204.839C209.028 205.073 208.841 205.27 208.598 205.27ZM109.808 205.007C109.574 205.007 109.377 204.82 109.377 204.576V201.988C109.377 201.753 109.565 201.557 109.808 201.557C110.051 201.557 110.239 201.744 110.239 201.988V204.576C110.239 204.811 110.051 205.007 109.808 205.007ZM208.598 200.094C208.364 200.094 208.167 199.906 208.167 199.662V197.074C208.167 196.84 208.354 196.643 208.598 196.643C208.841 196.643 209.028 196.83 209.028 197.074V199.662C209.028 199.897 208.841 200.094 208.598 200.094ZM109.808 199.831C109.574 199.831 109.377 199.644 109.377 199.4V196.812C109.377 196.577 109.565 196.38 109.808 196.38C110.051 196.38 110.239 196.568 110.239 196.812V199.4C110.239 199.634 110.051 199.831 109.808 199.831ZM208.598 194.917C208.364 194.917 208.167 194.73 208.167 194.486V191.898C208.167 191.663 208.354 191.467 208.598 191.467C208.841 191.467 209.028 191.654 209.028 191.898V194.486C209.028 194.72 208.841 194.917 208.598 194.917ZM109.808 194.655C109.574 194.655 109.377 194.467 109.377 194.223V191.635C109.377 191.401 109.565 191.204 109.808 191.204C110.051 191.204 110.239 191.392 110.239 191.635V194.223C110.239 194.458 110.051 194.655 109.808 194.655ZM208.598 189.741C208.364 189.741 208.167 189.554 208.167 189.31V186.722C208.167 186.487 208.354 186.29 208.598 186.29C208.841 186.29 209.028 186.478 209.028 186.722V189.31C209.028 189.544 208.841 189.741 208.598 189.741ZM109.808 189.479C109.574 189.479 109.377 189.291 109.377 189.047V186.459C109.377 186.225 109.565 186.028 109.808 186.028C110.051 186.028 110.239 186.215 110.239 186.459V189.047C110.239 189.282 110.051 189.479 109.808 189.479ZM208.598 184.565C208.364 184.565 208.167 184.377 208.167 184.133V181.545C208.167 181.311 208.354 181.114 208.598 181.114C208.841 181.114 209.028 181.302 209.028 181.545V184.133C209.028 184.368 208.841 184.565 208.598 184.565ZM109.808 184.302C109.574 184.302 109.377 184.115 109.377 183.871V181.283C109.377 181.048 109.565 180.851 109.808 180.851C110.051 180.851 110.239 181.039 110.239 181.283V183.871C110.239 184.105 110.051 184.302 109.808 184.302ZM208.598 179.389C208.364 179.389 208.167 179.201 208.167 178.957V177.785C208.167 177.354 208.102 176.932 207.961 176.528C207.886 176.303 208.008 176.06 208.233 175.985C208.457 175.91 208.701 176.031 208.776 176.256C208.944 176.753 209.028 177.26 209.028 177.785V178.957C209.028 179.192 208.841 179.389 208.598 179.389ZM109.808 179.126C109.574 179.126 109.377 178.938 109.377 178.695V177.794C109.377 177.175 109.499 176.566 109.724 175.994C109.808 175.778 110.061 175.666 110.276 175.759C110.491 175.844 110.604 176.097 110.51 176.322C110.323 176.791 110.22 177.288 110.22 177.804V178.704C110.22 178.938 110.033 179.135 109.789 179.135L109.808 179.126ZM206.894 174.756C206.8 174.756 206.716 174.728 206.632 174.672C206.014 174.193 205.265 173.912 204.488 173.865C204.254 173.847 204.076 173.65 204.086 173.415C204.104 173.181 204.301 172.993 204.535 173.012C205.49 173.068 206.388 173.406 207.147 173.997C207.334 174.137 207.371 174.409 207.222 174.597C207.137 174.709 207.006 174.765 206.885 174.765L206.894 174.756ZM111.727 174.606C111.587 174.606 111.456 174.54 111.371 174.419C111.24 174.222 111.287 173.959 111.484 173.828C112.27 173.293 113.197 173.012 114.152 173.003C114.386 173.003 114.582 173.19 114.582 173.434C114.582 173.668 114.395 173.865 114.152 173.865C113.365 173.865 112.607 174.1 111.961 174.54C111.886 174.587 111.802 174.615 111.718 174.615L111.727 174.606ZM201.933 173.856H199.349C199.115 173.856 198.918 173.668 198.918 173.425C198.918 173.181 199.105 172.993 199.349 172.993H201.933C202.167 172.993 202.363 173.181 202.363 173.425C202.363 173.668 202.176 173.856 201.933 173.856ZM196.765 173.856H194.181C193.947 173.856 193.751 173.668 193.751 173.425C193.751 173.181 193.938 172.993 194.181 172.993H196.765C196.999 172.993 197.196 173.181 197.196 173.425C197.196 173.668 197.008 173.856 196.765 173.856ZM191.598 173.856H189.014C188.78 173.856 188.583 173.668 188.583 173.425C188.583 173.181 188.771 172.993 189.014 172.993H191.598C191.832 172.993 192.028 173.181 192.028 173.425C192.028 173.668 191.841 173.856 191.598 173.856ZM186.43 173.856H183.846C183.612 173.856 183.416 173.668 183.416 173.425C183.416 173.181 183.603 172.993 183.846 172.993H186.43C186.664 172.993 186.861 173.181 186.861 173.425C186.861 173.668 186.674 173.856 186.43 173.856ZM181.263 173.856H178.679C178.445 173.856 178.248 173.668 178.248 173.425C178.248 173.181 178.436 172.993 178.679 172.993H181.263C181.497 172.993 181.693 173.181 181.693 173.425C181.693 173.668 181.506 173.856 181.263 173.856ZM176.095 173.856H173.512C173.278 173.856 173.081 173.668 173.081 173.425C173.081 173.181 173.268 172.993 173.512 172.993H176.095C176.329 172.993 176.526 173.181 176.526 173.425C176.526 173.668 176.339 173.856 176.095 173.856ZM170.928 173.856H168.344C168.11 173.856 167.914 173.668 167.914 173.425C167.914 173.181 168.101 172.993 168.344 172.993H170.928C171.162 172.993 171.359 173.181 171.359 173.425C171.359 173.668 171.171 173.856 170.928 173.856ZM165.76 173.856H163.177C162.943 173.856 162.746 173.668 162.746 173.425C162.746 173.181 162.933 172.993 163.177 172.993H165.76C165.995 172.993 166.191 173.181 166.191 173.425C166.191 173.668 166.004 173.856 165.76 173.856ZM160.593 173.856H158.009C157.775 173.856 157.579 173.668 157.579 173.425C157.579 173.181 157.766 172.993 158.009 172.993H160.593C160.827 172.993 161.024 173.181 161.024 173.425C161.024 173.668 160.836 173.856 160.593 173.856ZM155.426 173.856H152.842C152.608 173.856 152.411 173.668 152.411 173.425C152.411 173.181 152.599 172.993 152.842 172.993H155.426C155.66 172.993 155.856 173.181 155.856 173.425C155.856 173.668 155.669 173.856 155.426 173.856ZM150.258 173.856H147.674C147.44 173.856 147.244 173.668 147.244 173.425C147.244 173.181 147.431 172.993 147.674 172.993H150.258C150.492 172.993 150.689 173.181 150.689 173.425C150.689 173.668 150.502 173.856 150.258 173.856ZM145.091 173.856H142.507C142.273 173.856 142.076 173.668 142.076 173.425C142.076 173.181 142.264 172.993 142.507 172.993H145.091C145.325 172.993 145.521 173.181 145.521 173.425C145.521 173.668 145.334 173.856 145.091 173.856ZM139.923 173.856H137.34C137.106 173.856 136.909 173.668 136.909 173.425C136.909 173.181 137.096 172.993 137.34 172.993H139.923C140.157 172.993 140.354 173.181 140.354 173.425C140.354 173.668 140.167 173.856 139.923 173.856ZM134.756 173.856H132.172C131.938 173.856 131.742 173.668 131.742 173.425C131.742 173.181 131.929 172.993 132.172 172.993H134.756C134.99 172.993 135.187 173.181 135.187 173.425C135.187 173.668 134.999 173.856 134.756 173.856ZM129.588 173.856H127.005C126.771 173.856 126.574 173.668 126.574 173.425C126.574 173.181 126.761 172.993 127.005 172.993H129.588C129.822 172.993 130.019 173.181 130.019 173.425C130.019 173.668 129.832 173.856 129.588 173.856ZM124.421 173.856H121.837C121.603 173.856 121.407 173.668 121.407 173.425C121.407 173.181 121.594 172.993 121.837 172.993H124.421C124.655 172.993 124.852 173.181 124.852 173.425C124.852 173.668 124.664 173.856 124.421 173.856ZM119.254 173.856H116.67C116.436 173.856 116.239 173.668 116.239 173.425C116.239 173.181 116.426 172.993 116.67 172.993H119.254C119.488 172.993 119.684 173.181 119.684 173.425C119.684 173.668 119.497 173.856 119.254 173.856Z" fill="#232323"/>
<path d="M351.067 303.076H348.764C348.558 303.076 348.39 302.907 348.39 302.701C348.39 302.494 348.558 302.325 348.764 302.325H351.049C351.254 302.325 351.432 302.494 351.432 302.701C351.432 302.907 351.273 303.076 351.058 303.076H351.067ZM346.48 303.076H344.196C343.99 303.076 343.822 302.907 343.822 302.701C343.822 302.494 343.99 302.325 344.196 302.325H346.48C346.686 302.325 346.855 302.494 346.855 302.701C346.855 302.907 346.686 303.076 346.48 303.076ZM341.903 303.076H339.618C339.412 303.076 339.244 302.907 339.244 302.701C339.244 302.494 339.412 302.325 339.618 302.325H341.903C342.109 302.325 342.277 302.494 342.277 302.701C342.277 302.907 342.109 303.076 341.903 303.076ZM337.325 303.076H335.041C334.835 303.076 334.666 302.907 334.666 302.701C334.666 302.494 334.835 302.325 335.041 302.325H337.325C337.531 302.325 337.699 302.494 337.699 302.701C337.699 302.907 337.531 303.076 337.325 303.076ZM332.747 303.076H330.463C330.257 303.076 330.089 302.907 330.089 302.701C330.089 302.494 330.257 302.325 330.463 302.325H332.747C332.953 302.325 333.122 302.494 333.122 302.701C333.122 302.907 332.953 303.076 332.747 303.076ZM328.17 303.076H325.885C325.679 303.076 325.511 302.907 325.511 302.701C325.511 302.494 325.679 302.325 325.885 302.325H328.17C328.375 302.325 328.544 302.494 328.544 302.701C328.544 302.907 328.375 303.076 328.17 303.076ZM323.592 303.076H321.308C321.102 303.076 320.933 302.907 320.933 302.701C320.933 302.494 321.102 302.325 321.308 302.325H323.592C323.798 302.325 323.966 302.494 323.966 302.701C323.966 302.907 323.798 303.076 323.592 303.076ZM319.014 303.076H316.73C316.524 303.076 316.356 302.907 316.356 302.701C316.356 302.494 316.524 302.325 316.73 302.325H319.014C319.22 302.325 319.389 302.494 319.389 302.701C319.389 302.907 319.22 303.076 319.014 303.076ZM314.437 303.076H312.152C311.946 303.076 311.778 302.907 311.778 302.701C311.778 302.494 311.946 302.325 312.152 302.325H314.437C314.642 302.325 314.811 302.494 314.811 302.701C314.811 302.907 314.642 303.076 314.437 303.076ZM309.859 303.076H307.65C307.65 303.076 307.584 303.076 307.556 303.076C307.35 303.066 307.182 302.888 307.2 302.682C307.21 302.475 307.378 302.316 307.593 302.325C307.612 302.325 307.631 302.325 307.65 302.325H309.859C310.065 302.325 310.233 302.494 310.233 302.701C310.233 302.907 310.065 303.076 309.859 303.076ZM352.518 301.622H352.509C352.303 301.622 352.134 301.444 352.144 301.228V301.191V298.95C352.144 298.743 352.312 298.574 352.518 298.574C352.724 298.574 352.893 298.743 352.893 298.95V301.256C352.893 301.463 352.715 301.622 352.518 301.622ZM306.152 301.556C305.946 301.556 305.777 301.388 305.777 301.181V298.893C305.777 298.687 305.946 298.518 306.152 298.518C306.358 298.518 306.526 298.687 306.526 298.893V301.181C306.526 301.388 306.358 301.556 306.152 301.556ZM352.518 297.037C352.312 297.037 352.144 296.868 352.144 296.662V294.373C352.144 294.167 352.312 293.998 352.518 293.998C352.724 293.998 352.893 294.167 352.893 294.373V296.662C352.893 296.868 352.724 297.037 352.518 297.037ZM306.152 296.971C305.946 296.971 305.777 296.802 305.777 296.596V294.298C305.777 294.092 305.946 293.923 306.152 293.923C306.358 293.923 306.526 294.092 306.526 294.298V296.596C306.526 296.802 306.358 296.971 306.152 296.971ZM352.518 292.451C352.312 292.451 352.144 292.282 352.144 292.076V289.788C352.144 289.582 352.312 289.413 352.518 289.413C352.724 289.413 352.893 289.582 352.893 289.788V292.076C352.893 292.282 352.724 292.451 352.518 292.451ZM306.152 292.385C305.946 292.385 305.777 292.217 305.777 292.01V289.779C305.777 289.779 305.777 289.732 305.777 289.704C305.777 289.497 305.955 289.328 306.171 289.338C306.376 289.338 306.545 289.525 306.536 289.732V289.769V292.001C306.536 292.207 306.367 292.376 306.161 292.376L306.152 292.385ZM351.095 288.653C351.095 288.653 351.086 288.653 351.077 288.653H351.02H348.802C348.596 288.653 348.427 288.484 348.427 288.278C348.427 288.072 348.596 287.903 348.802 287.903H351.02C351.02 287.903 351.077 287.903 351.105 287.903C351.311 287.903 351.479 288.091 351.47 288.297C351.47 288.503 351.292 288.663 351.095 288.663V288.653ZM346.518 288.653H344.234C344.028 288.653 343.859 288.484 343.859 288.278C343.859 288.072 344.028 287.903 344.234 287.903H346.518C346.724 287.903 346.892 288.072 346.892 288.278C346.892 288.484 346.724 288.653 346.518 288.653ZM341.94 288.653H339.656C339.45 288.653 339.281 288.484 339.281 288.278C339.281 288.072 339.45 287.903 339.656 287.903H341.94C342.146 287.903 342.314 288.072 342.314 288.278C342.314 288.484 342.146 288.653 341.94 288.653ZM337.362 288.653H335.078C334.872 288.653 334.704 288.484 334.704 288.278C334.704 288.072 334.872 287.903 335.078 287.903H337.362C337.568 287.903 337.737 288.072 337.737 288.278C337.737 288.484 337.568 288.653 337.362 288.653ZM332.785 288.653H330.5C330.295 288.653 330.126 288.484 330.126 288.278C330.126 288.072 330.295 287.903 330.5 287.903H332.785C332.991 287.903 333.159 288.072 333.159 288.278C333.159 288.484 332.991 288.653 332.785 288.653ZM328.207 288.653H325.923C325.717 288.653 325.548 288.484 325.548 288.278C325.548 288.072 325.717 287.903 325.923 287.903H328.207C328.413 287.903 328.581 288.072 328.581 288.278C328.581 288.484 328.413 288.653 328.207 288.653ZM323.629 288.653H321.345C321.139 288.653 320.971 288.484 320.971 288.278C320.971 288.072 321.139 287.903 321.345 287.903H323.629C323.835 287.903 324.004 288.072 324.004 288.278C324.004 288.484 323.835 288.653 323.629 288.653ZM319.052 288.653H316.767C316.562 288.653 316.393 288.484 316.393 288.278C316.393 288.072 316.562 287.903 316.767 287.903H319.052C319.258 287.903 319.426 288.072 319.426 288.278C319.426 288.484 319.258 288.653 319.052 288.653ZM314.474 288.653H312.19C311.984 288.653 311.815 288.484 311.815 288.278C311.815 288.072 311.984 287.903 312.19 287.903H314.474C314.68 287.903 314.848 288.072 314.848 288.278C314.848 288.484 314.68 288.653 314.474 288.653ZM309.896 288.653H307.621C307.416 288.653 307.238 288.484 307.238 288.278C307.238 288.072 307.406 287.903 307.612 287.903H309.896C310.102 287.903 310.271 288.072 310.271 288.278C310.271 288.484 310.102 288.653 309.896 288.653Z" fill="#232323"/>
<path d="M187.722 166.251H185.176C184.942 166.251 184.745 166.063 184.745 165.819C184.745 165.576 184.932 165.388 185.176 165.388H187.703C187.937 165.388 188.134 165.576 188.134 165.819C188.134 166.063 187.947 166.251 187.713 166.251H187.722ZM182.648 166.251H180.121C179.887 166.251 179.69 166.063 179.69 165.819C179.69 165.576 179.877 165.388 180.121 165.388H182.648C182.882 165.388 183.079 165.576 183.079 165.819C183.079 166.063 182.892 166.251 182.648 166.251ZM177.584 166.251H175.056C174.822 166.251 174.626 166.063 174.626 165.819C174.626 165.576 174.813 165.388 175.056 165.388H177.584C177.818 165.388 178.014 165.576 178.014 165.819C178.014 166.063 177.827 166.251 177.584 166.251ZM172.519 166.251H169.992C169.758 166.251 169.561 166.063 169.561 165.819C169.561 165.576 169.748 165.388 169.992 165.388H172.519C172.753 165.388 172.95 165.576 172.95 165.819C172.95 166.063 172.763 166.251 172.519 166.251ZM167.455 166.251H164.927C164.693 166.251 164.497 166.063 164.497 165.819C164.497 165.576 164.684 165.388 164.927 165.388H167.455C167.689 165.388 167.886 165.576 167.886 165.819C167.886 166.063 167.698 166.251 167.455 166.251ZM162.39 166.251H159.863C159.629 166.251 159.432 166.063 159.432 165.819C159.432 165.576 159.62 165.388 159.863 165.388H162.39C162.624 165.388 162.821 165.576 162.821 165.819C162.821 166.063 162.634 166.251 162.39 166.251ZM157.326 166.251H154.798C154.564 166.251 154.368 166.063 154.368 165.819C154.368 165.576 154.555 165.388 154.798 165.388H157.326C157.56 165.388 157.757 165.576 157.757 165.819C157.757 166.063 157.569 166.251 157.326 166.251ZM152.308 165.979C152.233 165.979 152.168 165.96 152.102 165.923C151.307 165.472 150.82 164.628 150.82 163.719V163.409C150.82 163.175 151.007 162.978 151.251 162.978C151.494 162.978 151.681 163.166 151.681 163.409V163.719C151.681 164.319 152.009 164.882 152.533 165.182C152.739 165.294 152.814 165.557 152.692 165.763C152.617 165.904 152.467 165.979 152.318 165.979H152.308ZM189.66 164.891C189.613 164.891 189.557 164.891 189.51 164.863C189.285 164.779 189.173 164.535 189.257 164.31C189.332 164.122 189.36 163.925 189.36 163.719V161.937C189.36 161.703 189.548 161.506 189.791 161.506C190.034 161.506 190.222 161.693 190.222 161.937V163.719C190.222 164.028 190.165 164.328 190.062 164.61C189.997 164.779 189.838 164.891 189.66 164.891ZM151.241 161.3C151.007 161.3 150.811 161.112 150.811 160.868V158.327C150.811 158.092 150.998 157.896 151.241 157.896C151.485 157.896 151.672 158.083 151.672 158.327V160.868C151.672 161.103 151.485 161.3 151.241 161.3ZM189.791 159.837C189.557 159.837 189.36 159.649 189.36 159.405V156.864C189.36 156.63 189.548 156.433 189.791 156.433C190.034 156.433 190.222 156.62 190.222 156.864V159.405C190.222 159.64 190.034 159.837 189.791 159.837ZM151.241 156.226C151.007 156.226 150.811 156.039 150.811 155.795V153.254C150.811 153.019 150.998 152.822 151.241 152.822C151.485 152.822 151.672 153.01 151.672 153.254V155.795C151.672 156.029 151.485 156.226 151.241 156.226ZM189.791 154.764C189.557 154.764 189.36 154.576 189.36 154.332V151.791C189.36 151.556 189.548 151.36 189.791 151.36C190.034 151.36 190.222 151.547 190.222 151.791V154.332C190.222 154.567 190.034 154.764 189.791 154.764ZM151.241 151.153C151.007 151.153 150.811 150.966 150.811 150.722V148.181C150.811 147.946 150.998 147.749 151.241 147.749C151.485 147.749 151.672 147.937 151.672 148.181V150.722C151.672 150.956 151.485 151.153 151.241 151.153ZM189.791 149.69C189.557 149.69 189.36 149.503 189.36 149.259V146.718C189.36 146.483 189.548 146.286 189.791 146.286C190.034 146.286 190.222 146.474 190.222 146.718V149.259C190.222 149.493 190.034 149.69 189.791 149.69ZM151.241 146.08C151.007 146.08 150.811 145.893 150.811 145.649V143.107C150.811 142.873 150.998 142.676 151.241 142.676C151.485 142.676 151.672 142.864 151.672 143.107V145.649C151.672 145.883 151.485 146.08 151.241 146.08ZM189.791 144.617C189.557 144.617 189.36 144.43 189.36 144.186V141.645C189.36 141.41 189.548 141.213 189.791 141.213C190.034 141.213 190.222 141.401 190.222 141.645V144.186C190.222 144.42 190.034 144.617 189.791 144.617ZM151.241 141.007C151.007 141.007 150.811 140.819 150.811 140.576V138.034C150.811 137.8 150.998 137.603 151.241 137.603C151.485 137.603 151.672 137.791 151.672 138.034V140.576C151.672 140.81 151.485 141.007 151.241 141.007ZM189.791 139.544C189.557 139.544 189.36 139.357 189.36 139.113V136.571C189.36 136.337 189.548 136.14 189.791 136.14C190.034 136.14 190.222 136.328 190.222 136.571V139.113C190.222 139.347 190.034 139.544 189.791 139.544ZM151.241 135.934C151.007 135.934 150.811 135.746 150.811 135.502V133.73C150.811 133.421 150.867 133.121 150.979 132.83C151.063 132.605 151.307 132.502 151.531 132.586C151.756 132.67 151.859 132.914 151.775 133.139C151.7 133.327 151.662 133.533 151.662 133.739V135.512C151.662 135.746 151.475 135.943 151.232 135.943L151.241 135.934ZM189.791 134.471C189.557 134.471 189.36 134.283 189.36 134.04V133.739C189.36 133.13 189.033 132.577 188.508 132.277C188.302 132.164 188.228 131.902 188.349 131.695C188.462 131.489 188.724 131.414 188.93 131.536C189.725 131.986 190.222 132.83 190.222 133.749V134.049C190.222 134.283 190.034 134.48 189.791 134.48V134.471ZM186.234 132.061H183.706C183.472 132.061 183.275 131.873 183.275 131.63C183.275 131.386 183.463 131.198 183.706 131.198H186.234C186.468 131.198 186.664 131.386 186.664 131.63C186.664 131.873 186.477 132.061 186.234 132.061ZM181.169 132.061H178.642C178.408 132.061 178.211 131.873 178.211 131.63C178.211 131.386 178.398 131.198 178.642 131.198H181.169C181.403 131.198 181.6 131.386 181.6 131.63C181.6 131.873 181.413 132.061 181.169 132.061ZM176.105 132.061H173.577C173.343 132.061 173.147 131.873 173.147 131.63C173.147 131.386 173.334 131.198 173.577 131.198H176.105C176.339 131.198 176.535 131.386 176.535 131.63C176.535 131.873 176.348 132.061 176.105 132.061ZM171.04 132.061H168.513C168.279 132.061 168.082 131.873 168.082 131.63C168.082 131.386 168.269 131.198 168.513 131.198H171.04C171.274 131.198 171.471 131.386 171.471 131.63C171.471 131.873 171.284 132.061 171.04 132.061ZM165.976 132.061H163.448C163.214 132.061 163.018 131.873 163.018 131.63C163.018 131.386 163.205 131.198 163.448 131.198H165.976C166.21 131.198 166.406 131.386 166.406 131.63C166.406 131.873 166.219 132.061 165.976 132.061ZM160.911 132.061H158.384C158.15 132.061 157.953 131.873 157.953 131.63C157.953 131.386 158.14 131.198 158.384 131.198H160.911C161.145 131.198 161.342 131.386 161.342 131.63C161.342 131.873 161.155 132.061 160.911 132.061ZM155.847 132.061H153.329C153.095 132.061 152.898 131.873 152.898 131.63C152.898 131.386 153.085 131.198 153.319 131.198H155.847C156.081 131.198 156.278 131.386 156.278 131.63C156.278 131.873 156.09 132.061 155.847 132.061Z" fill="#232323"/>
<path d="M351.067 324.231H348.764C348.558 324.231 348.39 324.062 348.39 323.856C348.39 323.649 348.558 323.481 348.764 323.481H351.049C351.254 323.481 351.432 323.649 351.432 323.856C351.432 324.062 351.273 324.231 351.058 324.231H351.067ZM346.48 324.231H344.196C343.99 324.231 343.822 324.062 343.822 323.856C343.822 323.649 343.99 323.481 344.196 323.481H346.48C346.686 323.481 346.855 323.649 346.855 323.856C346.855 324.062 346.686 324.231 346.48 324.231ZM341.903 324.231H339.618C339.412 324.231 339.244 324.062 339.244 323.856C339.244 323.649 339.412 323.481 339.618 323.481H341.903C342.109 323.481 342.277 323.649 342.277 323.856C342.277 324.062 342.109 324.231 341.903 324.231ZM337.325 324.231H335.041C334.835 324.231 334.666 324.062 334.666 323.856C334.666 323.649 334.835 323.481 335.041 323.481H337.325C337.531 323.481 337.699 323.649 337.699 323.856C337.699 324.062 337.531 324.231 337.325 324.231ZM332.747 324.231H330.463C330.257 324.231 330.089 324.062 330.089 323.856C330.089 323.649 330.257 323.481 330.463 323.481H332.747C332.953 323.481 333.122 323.649 333.122 323.856C333.122 324.062 332.953 324.231 332.747 324.231ZM328.17 324.231H325.885C325.679 324.231 325.511 324.062 325.511 323.856C325.511 323.649 325.679 323.481 325.885 323.481H328.17C328.375 323.481 328.544 323.649 328.544 323.856C328.544 324.062 328.375 324.231 328.17 324.231ZM323.592 324.231H321.308C321.102 324.231 320.933 324.062 320.933 323.856C320.933 323.649 321.102 323.481 321.308 323.481H323.592C323.798 323.481 323.966 323.649 323.966 323.856C323.966 324.062 323.798 324.231 323.592 324.231ZM319.014 324.231H316.73C316.524 324.231 316.356 324.062 316.356 323.856C316.356 323.649 316.524 323.481 316.73 323.481H319.014C319.22 323.481 319.389 323.649 319.389 323.856C319.389 324.062 319.22 324.231 319.014 324.231ZM314.437 324.231H312.152C311.946 324.231 311.778 324.062 311.778 323.856C311.778 323.649 311.946 323.481 312.152 323.481H314.437C314.642 323.481 314.811 323.649 314.811 323.856C314.811 324.062 314.642 324.231 314.437 324.231ZM309.859 324.231H307.65C307.65 324.231 307.584 324.231 307.556 324.231C307.35 324.222 307.182 324.043 307.2 323.837C307.21 323.631 307.378 323.462 307.593 323.481C307.612 323.481 307.631 323.481 307.65 323.481H309.859C310.065 323.481 310.233 323.649 310.233 323.856C310.233 324.062 310.065 324.231 309.859 324.231ZM352.518 322.777H352.509C352.303 322.777 352.134 322.599 352.144 322.384V322.346V320.105C352.144 319.899 352.312 319.73 352.518 319.73C352.724 319.73 352.893 319.899 352.893 320.105V322.412C352.893 322.618 352.715 322.777 352.518 322.777ZM306.152 322.712C305.946 322.712 305.777 322.543 305.777 322.337V320.049C305.777 319.842 305.946 319.674 306.152 319.674C306.358 319.674 306.526 319.842 306.526 320.049V322.337C306.526 322.543 306.358 322.712 306.152 322.712ZM352.518 318.192C352.312 318.192 352.144 318.023 352.144 317.817V315.529C352.144 315.322 352.312 315.154 352.518 315.154C352.724 315.154 352.893 315.322 352.893 315.529V317.817C352.893 318.023 352.724 318.192 352.518 318.192ZM306.152 318.126C305.946 318.126 305.777 317.957 305.777 317.751V315.454C305.777 315.247 305.946 315.079 306.152 315.079C306.358 315.079 306.526 315.247 306.526 315.454V317.751C306.526 317.957 306.358 318.126 306.152 318.126ZM352.518 313.606C352.312 313.606 352.144 313.438 352.144 313.231V310.943C352.144 310.737 352.312 310.568 352.518 310.568C352.724 310.568 352.893 310.737 352.893 310.943V313.231C352.893 313.438 352.724 313.606 352.518 313.606ZM306.152 313.541C305.946 313.541 305.777 313.372 305.777 313.166V310.934C305.777 310.934 305.777 310.887 305.777 310.859C305.777 310.653 305.955 310.484 306.171 310.493C306.376 310.493 306.545 310.681 306.536 310.887V310.924V313.156C306.536 313.363 306.367 313.531 306.161 313.531L306.152 313.541ZM351.095 309.809C351.095 309.809 351.086 309.809 351.077 309.809H351.02H348.802C348.596 309.809 348.427 309.64 348.427 309.433C348.427 309.227 348.596 309.058 348.802 309.058H351.02C351.02 309.058 351.077 309.058 351.105 309.058C351.311 309.058 351.479 309.246 351.47 309.452C351.47 309.659 351.292 309.818 351.095 309.818V309.809ZM346.518 309.809H344.234C344.028 309.809 343.859 309.64 343.859 309.433C343.859 309.227 344.028 309.058 344.234 309.058H346.518C346.724 309.058 346.892 309.227 346.892 309.433C346.892 309.64 346.724 309.809 346.518 309.809ZM341.94 309.809H339.656C339.45 309.809 339.281 309.64 339.281 309.433C339.281 309.227 339.45 309.058 339.656 309.058H341.94C342.146 309.058 342.314 309.227 342.314 309.433C342.314 309.64 342.146 309.809 341.94 309.809ZM337.362 309.809H335.078C334.872 309.809 334.704 309.64 334.704 309.433C334.704 309.227 334.872 309.058 335.078 309.058H337.362C337.568 309.058 337.737 309.227 337.737 309.433C337.737 309.64 337.568 309.809 337.362 309.809ZM332.785 309.809H330.5C330.295 309.809 330.126 309.64 330.126 309.433C330.126 309.227 330.295 309.058 330.5 309.058H332.785C332.991 309.058 333.159 309.227 333.159 309.433C333.159 309.64 332.991 309.809 332.785 309.809ZM328.207 309.809H325.923C325.717 309.809 325.548 309.64 325.548 309.433C325.548 309.227 325.717 309.058 325.923 309.058H328.207C328.413 309.058 328.581 309.227 328.581 309.433C328.581 309.64 328.413 309.809 328.207 309.809ZM323.629 309.809H321.345C321.139 309.809 320.971 309.64 320.971 309.433C320.971 309.227 321.139 309.058 321.345 309.058H323.629C323.835 309.058 324.004 309.227 324.004 309.433C324.004 309.64 323.835 309.809 323.629 309.809ZM319.052 309.809H316.767C316.562 309.809 316.393 309.64 316.393 309.433C316.393 309.227 316.562 309.058 316.767 309.058H319.052C319.258 309.058 319.426 309.227 319.426 309.433C319.426 309.64 319.258 309.809 319.052 309.809ZM314.474 309.809H312.19C311.984 309.809 311.815 309.64 311.815 309.433C311.815 309.227 311.984 309.058 312.19 309.058H314.474C314.68 309.058 314.848 309.227 314.848 309.433C314.848 309.64 314.68 309.809 314.474 309.809ZM309.896 309.809H307.621C307.416 309.809 307.238 309.64 307.238 309.433C307.238 309.227 307.406 309.058 307.612 309.058H309.896C310.102 309.058 310.271 309.227 310.271 309.433C310.271 309.64 310.102 309.809 309.896 309.809Z" fill="#232323"/>
<path d="M170.591 308.299H168.306C168.1 308.299 167.932 308.13 167.932 307.924C167.932 307.717 168.1 307.549 168.306 307.549H170.572C170.778 307.549 170.956 307.717 170.956 307.924C170.956 308.13 170.797 308.299 170.581 308.299H170.591ZM166.041 308.299H163.776C163.57 308.299 163.401 308.13 163.401 307.924C163.401 307.717 163.57 307.549 163.776 307.549H166.041C166.247 307.549 166.415 307.717 166.415 307.924C166.415 308.13 166.247 308.299 166.041 308.299ZM161.51 308.299H159.245C159.039 308.299 158.87 308.13 158.87 307.924C158.87 307.717 159.039 307.549 159.245 307.549H161.51C161.716 307.549 161.885 307.717 161.885 307.924C161.885 308.13 161.716 308.299 161.51 308.299ZM156.979 308.299H154.714C154.508 308.299 154.339 308.13 154.339 307.924C154.339 307.717 154.508 307.549 154.714 307.549H156.979C157.185 307.549 157.354 307.717 157.354 307.924C157.354 308.13 157.185 308.299 156.979 308.299ZM152.448 308.299H150.183C149.977 308.299 149.809 308.13 149.809 307.924C149.809 307.717 149.977 307.549 150.183 307.549H152.448C152.654 307.549 152.823 307.717 152.823 307.924C152.823 308.13 152.654 308.299 152.448 308.299ZM147.918 308.299H145.652C145.446 308.299 145.278 308.13 145.278 307.924C145.278 307.717 145.446 307.549 145.652 307.549H147.918C148.123 307.549 148.292 307.717 148.292 307.924C148.292 308.13 148.123 308.299 147.918 308.299ZM143.387 308.299H141.121C140.915 308.299 140.747 308.13 140.747 307.924C140.747 307.717 140.915 307.549 141.121 307.549H143.387C143.593 307.549 143.761 307.717 143.761 307.924C143.761 308.13 143.593 308.299 143.387 308.299ZM138.856 308.299H136.59C136.384 308.299 136.216 308.13 136.216 307.924C136.216 307.717 136.384 307.549 136.59 307.549H138.856C139.062 307.549 139.23 307.717 139.23 307.924C139.23 308.13 139.062 308.299 138.856 308.299ZM134.325 308.299H132.06C131.854 308.299 131.685 308.13 131.685 307.924C131.685 307.717 131.854 307.549 132.06 307.549H134.325C134.531 307.549 134.699 307.717 134.699 307.924C134.699 308.13 134.531 308.299 134.325 308.299ZM129.794 308.299H127.529C127.323 308.299 127.154 308.13 127.154 307.924C127.154 307.717 127.323 307.549 127.529 307.549H129.794C130 307.549 130.169 307.717 130.169 307.924C130.169 308.13 130 308.299 129.794 308.299ZM125.263 308.299H122.998C122.792 308.299 122.623 308.13 122.623 307.924C122.623 307.717 122.792 307.549 122.998 307.549H125.263C125.469 307.549 125.638 307.717 125.638 307.924C125.638 308.13 125.469 308.299 125.263 308.299ZM120.732 308.299H118.467C118.261 308.299 118.092 308.13 118.092 307.924C118.092 307.717 118.261 307.549 118.467 307.549H120.732C120.938 307.549 121.107 307.717 121.107 307.924C121.107 308.13 120.938 308.299 120.732 308.299ZM116.202 308.299H113.936C113.73 308.299 113.562 308.13 113.562 307.924C113.562 307.717 113.73 307.549 113.936 307.549H116.202C116.407 307.549 116.576 307.717 116.576 307.924C116.576 308.13 116.407 308.299 116.202 308.299ZM111.671 308.299H109.405C109.199 308.299 109.031 308.13 109.031 307.924C109.031 307.717 109.199 307.549 109.405 307.549H111.671C111.877 307.549 112.045 307.717 112.045 307.924C112.045 308.13 111.877 308.299 111.671 308.299ZM107.14 308.299H104.874C104.668 308.299 104.5 308.13 104.5 307.924C104.5 307.717 104.668 307.549 104.874 307.549H107.14C107.346 307.549 107.514 307.717 107.514 307.924C107.514 308.13 107.346 308.299 107.14 308.299ZM102.609 308.299H100.802C100.634 308.299 100.465 308.289 100.306 308.271C100.1 308.242 99.9503 308.055 99.9784 307.849C100.006 307.642 100.194 307.492 100.4 307.52C100.531 307.539 100.671 307.549 100.812 307.549H102.618C102.824 307.549 102.993 307.717 102.993 307.924C102.993 308.13 102.824 308.299 102.618 308.299H102.609ZM172.772 307.642C172.65 307.642 172.528 307.586 172.453 307.474C172.341 307.295 172.379 307.061 172.556 306.948C173.128 306.564 173.567 306.02 173.839 305.382C173.923 305.185 174.139 305.101 174.335 305.176C174.532 305.26 174.616 305.476 174.541 305.673C174.223 306.451 173.68 307.108 172.987 307.577C172.922 307.624 172.847 307.642 172.772 307.642ZM98.2934 307.37C98.2091 307.37 98.1155 307.342 98.05 307.277C97.4134 306.733 96.9547 306.02 96.7207 305.214C96.6645 305.007 96.7768 304.801 96.9828 304.745C97.1887 304.688 97.3947 304.801 97.4508 305.007C97.6381 305.673 98.0219 306.254 98.5461 306.705C98.7053 306.845 98.724 307.08 98.5929 307.239C98.518 307.323 98.4151 307.37 98.3027 307.37H98.2934ZM174.485 303.676C174.279 303.676 174.11 303.507 174.11 303.301V301.031C174.11 300.825 174.279 300.656 174.485 300.656C174.691 300.656 174.859 300.825 174.859 301.031V303.301C174.859 303.507 174.691 303.676 174.485 303.676ZM96.936 303.235C96.73 303.235 96.5615 303.066 96.5615 302.86V300.591C96.5615 300.384 96.73 300.215 96.936 300.215C97.1419 300.215 97.3104 300.384 97.3104 300.591V302.86C97.3104 303.066 97.1419 303.235 96.936 303.235ZM174.485 299.128C174.279 299.128 174.11 298.959 174.11 298.753V296.483C174.11 296.277 174.279 296.108 174.485 296.108C174.691 296.108 174.859 296.277 174.859 296.483V298.753C174.859 298.959 174.691 299.128 174.485 299.128ZM96.936 298.687C96.73 298.687 96.5615 298.518 96.5615 298.312V296.043C96.5615 295.836 96.73 295.667 96.936 295.667C97.1419 295.667 97.3104 295.836 97.3104 296.043V298.312C97.3104 298.518 97.1419 298.687 96.936 298.687ZM174.485 294.58C174.279 294.58 174.11 294.411 174.11 294.205V291.935C174.11 291.729 174.279 291.56 174.485 291.56C174.691 291.56 174.859 291.729 174.859 291.935V294.205C174.859 294.411 174.691 294.58 174.485 294.58ZM96.936 294.139C96.73 294.139 96.5615 293.97 96.5615 293.764V291.495C96.5615 291.288 96.73 291.119 96.936 291.119C97.1419 291.119 97.3104 291.288 97.3104 291.495V293.764C97.3104 293.97 97.1419 294.139 96.936 294.139ZM174.485 290.032C174.279 290.032 174.11 289.863 174.11 289.657V287.387C174.11 287.181 174.279 287.012 174.485 287.012C174.691 287.012 174.859 287.181 174.859 287.387V289.657C174.859 289.863 174.691 290.032 174.485 290.032ZM96.936 289.591C96.73 289.591 96.5615 289.422 96.5615 289.216V286.947C96.5615 286.74 96.73 286.571 96.936 286.571C97.1419 286.571 97.3104 286.74 97.3104 286.947V289.216C97.3104 289.422 97.1419 289.591 96.936 289.591ZM174.485 285.484C174.279 285.484 174.11 285.315 174.11 285.109V282.839C174.11 282.633 174.279 282.464 174.485 282.464C174.691 282.464 174.859 282.633 174.859 282.839V285.109C174.859 285.315 174.691 285.484 174.485 285.484ZM96.936 285.043C96.73 285.043 96.5615 284.874 96.5615 284.668V282.398C96.5615 282.192 96.73 282.023 96.936 282.023C97.1419 282.023 97.3104 282.192 97.3104 282.398V284.668C97.3104 284.874 97.1419 285.043 96.936 285.043ZM174.485 280.936C174.279 280.936 174.11 280.767 174.11 280.561V278.291C174.11 278.085 174.279 277.916 174.485 277.916C174.691 277.916 174.859 278.085 174.859 278.291V280.561C174.859 280.767 174.691 280.936 174.485 280.936ZM96.936 280.495C96.73 280.495 96.5615 280.326 96.5615 280.12V277.85C96.5615 277.644 96.73 277.475 96.936 277.475C97.1419 277.475 97.3104 277.644 97.3104 277.85V280.12C97.3104 280.326 97.1419 280.495 96.936 280.495ZM174.485 276.388C174.279 276.388 174.11 276.219 174.11 276.013V273.743C174.11 273.537 174.279 273.368 174.485 273.368C174.691 273.368 174.859 273.537 174.859 273.743V276.013C174.859 276.219 174.691 276.388 174.485 276.388ZM96.936 275.947C96.73 275.947 96.5615 275.778 96.5615 275.572V273.302C96.5615 273.096 96.73 272.927 96.936 272.927C97.1419 272.927 97.3104 273.096 97.3104 273.302V275.572C97.3104 275.778 97.1419 275.947 96.936 275.947ZM174.485 271.84C174.279 271.84 174.11 271.671 174.11 271.465V269.195C174.11 268.989 174.279 268.82 174.485 268.82C174.691 268.82 174.859 268.989 174.859 269.195V271.465C174.859 271.671 174.691 271.84 174.485 271.84ZM96.936 271.399C96.73 271.399 96.5615 271.23 96.5615 271.024V268.754C96.5615 268.548 96.73 268.379 96.936 268.379C97.1419 268.379 97.3104 268.548 97.3104 268.754V271.024C97.3104 271.23 97.1419 271.399 96.936 271.399ZM174.485 267.292C174.279 267.292 174.11 267.123 174.11 266.917V264.647C174.11 264.441 174.279 264.272 174.485 264.272C174.691 264.272 174.859 264.441 174.859 264.647V266.917C174.859 267.123 174.691 267.292 174.485 267.292ZM96.936 266.851C96.73 266.851 96.5615 266.682 96.5615 266.476V264.206C96.5615 264 96.73 263.831 96.936 263.831C97.1419 263.831 97.3104 264 97.3104 264.206V266.476C97.3104 266.682 97.1419 266.851 96.936 266.851ZM174.485 262.744C174.279 262.744 174.11 262.575 174.11 262.369V260.099C174.11 259.893 174.279 259.724 174.485 259.724C174.691 259.724 174.859 259.893 174.859 260.099V262.369C174.859 262.575 174.691 262.744 174.485 262.744ZM96.936 262.303C96.73 262.303 96.5615 262.134 96.5615 261.928V259.658C96.5615 259.452 96.73 259.283 96.936 259.283C97.1419 259.283 97.3104 259.452 97.3104 259.658V261.928C97.3104 262.134 97.1419 262.303 96.936 262.303ZM174.485 258.196C174.279 258.196 174.11 258.027 174.11 257.82V255.551C174.11 255.345 174.279 255.176 174.485 255.176C174.691 255.176 174.859 255.345 174.859 255.551V257.82C174.859 258.027 174.691 258.196 174.485 258.196ZM96.936 257.755C96.73 257.755 96.5615 257.586 96.5615 257.38V255.11C96.5615 254.904 96.73 254.735 96.936 254.735C97.1419 254.735 97.3104 254.904 97.3104 255.11V257.38C97.3104 257.586 97.1419 257.755 96.936 257.755ZM174.335 253.666C174.167 253.666 174.017 253.554 173.97 253.394C173.783 252.729 173.399 252.147 172.875 251.697C172.716 251.566 172.697 251.322 172.828 251.163C172.959 251.003 173.202 250.984 173.362 251.116C173.998 251.66 174.466 252.372 174.691 253.179C174.747 253.376 174.635 253.591 174.429 253.648C174.391 253.657 174.354 253.666 174.326 253.666H174.335ZM97.2355 253.244C97.1887 253.244 97.1419 253.235 97.0858 253.216C96.8892 253.132 96.8049 252.916 96.8798 252.719C97.1981 251.941 97.741 251.284 98.4431 250.825C98.621 250.712 98.855 250.759 98.9674 250.928C99.0797 251.106 99.0329 251.341 98.8644 251.453C98.2934 251.838 97.844 252.372 97.5819 253.01C97.5257 253.16 97.376 253.244 97.2355 253.244ZM171.077 250.891C171.077 250.891 171.049 250.891 171.031 250.891C170.9 250.872 170.759 250.872 170.628 250.872H168.812C168.606 250.872 168.437 250.703 168.437 250.497C168.437 250.29 168.606 250.122 168.812 250.122H170.628C170.797 250.122 170.956 250.131 171.124 250.15C171.33 250.178 171.48 250.365 171.461 250.572C171.442 250.769 171.274 250.909 171.087 250.909L171.077 250.891ZM166.547 250.862H164.281C164.075 250.862 163.907 250.694 163.907 250.487C163.907 250.281 164.075 250.112 164.281 250.112H166.547C166.752 250.112 166.921 250.281 166.921 250.487C166.921 250.694 166.752 250.862 166.547 250.862ZM162.016 250.862H159.75C159.544 250.862 159.376 250.694 159.376 250.487C159.376 250.281 159.544 250.112 159.75 250.112H162.016C162.222 250.112 162.39 250.281 162.39 250.487C162.39 250.694 162.222 250.862 162.016 250.862ZM157.485 250.862H155.219C155.013 250.862 154.845 250.694 154.845 250.487C154.845 250.281 155.013 250.112 155.219 250.112H157.485C157.691 250.112 157.859 250.281 157.859 250.487C157.859 250.694 157.691 250.862 157.485 250.862ZM152.954 250.862H150.688C150.483 250.862 150.314 250.694 150.314 250.487C150.314 250.281 150.483 250.112 150.688 250.112H152.954C153.16 250.112 153.328 250.281 153.328 250.487C153.328 250.694 153.16 250.862 152.954 250.862ZM148.423 250.862H146.158C145.952 250.862 145.783 250.694 145.783 250.487C145.783 250.281 145.952 250.112 146.158 250.112H148.423C148.629 250.112 148.798 250.281 148.798 250.487C148.798 250.694 148.629 250.862 148.423 250.862ZM143.892 250.862H141.627C141.421 250.862 141.252 250.694 141.252 250.487C141.252 250.281 141.421 250.112 141.627 250.112H143.892C144.098 250.112 144.267 250.281 144.267 250.487C144.267 250.694 144.098 250.862 143.892 250.862ZM139.361 250.862H137.096C136.89 250.862 136.721 250.694 136.721 250.487C136.721 250.281 136.89 250.112 137.096 250.112H139.361C139.567 250.112 139.736 250.281 139.736 250.487C139.736 250.694 139.567 250.862 139.361 250.862ZM134.83 250.862H132.565C132.359 250.862 132.191 250.694 132.191 250.487C132.191 250.281 132.359 250.112 132.565 250.112H134.83C135.036 250.112 135.205 250.281 135.205 250.487C135.205 250.694 135.036 250.862 134.83 250.862ZM130.3 250.862H128.034C127.828 250.862 127.66 250.694 127.66 250.487C127.66 250.281 127.828 250.112 128.034 250.112H130.3C130.506 250.112 130.674 250.281 130.674 250.487C130.674 250.694 130.506 250.862 130.3 250.862ZM125.769 250.862H123.503C123.297 250.862 123.129 250.694 123.129 250.487C123.129 250.281 123.297 250.112 123.503 250.112H125.769C125.975 250.112 126.143 250.281 126.143 250.487C126.143 250.694 125.975 250.862 125.769 250.862ZM121.238 250.862H118.972C118.766 250.862 118.598 250.694 118.598 250.487C118.598 250.281 118.766 250.112 118.972 250.112H121.238C121.444 250.112 121.612 250.281 121.612 250.487C121.612 250.694 121.444 250.862 121.238 250.862ZM116.707 250.862H114.442C114.236 250.862 114.067 250.694 114.067 250.487C114.067 250.281 114.236 250.112 114.442 250.112H116.707C116.913 250.112 117.081 250.281 117.081 250.487C117.081 250.694 116.913 250.862 116.707 250.862ZM112.176 250.862H109.911C109.705 250.862 109.536 250.694 109.536 250.487C109.536 250.281 109.705 250.112 109.911 250.112H112.176C112.382 250.112 112.551 250.281 112.551 250.487C112.551 250.694 112.382 250.862 112.176 250.862ZM107.645 250.862H105.38C105.174 250.862 105.005 250.694 105.005 250.487C105.005 250.281 105.174 250.112 105.38 250.112H107.645C107.851 250.112 108.02 250.281 108.02 250.487C108.02 250.694 107.851 250.862 107.645 250.862ZM103.114 250.862H100.858C100.652 250.862 100.475 250.694 100.475 250.487C100.475 250.281 100.643 250.112 100.849 250.112H103.114C103.32 250.112 103.489 250.281 103.489 250.487C103.489 250.694 103.32 250.862 103.114 250.862Z" fill="#E0D558"/>
<path d="M110.21 181.217H183.425C190.484 181.217 196.213 186.956 196.213 194.026V225.806C196.213 232.877 190.484 238.616 183.425 238.616H110.201C103.143 238.616 97.4136 232.877 97.4136 225.806V194.026C97.4136 186.956 103.143 181.217 110.201 181.217H110.21Z" fill="#E0D558"/>
<path d="M135.664 198.537V221.315C135.664 222.74 137.246 223.593 138.425 222.806L155.687 211.421C156.755 210.718 156.755 209.143 155.687 208.43L138.425 197.046C137.236 196.268 135.664 197.121 135.664 198.537Z" fill="#232323"/>
<path d="M102.553 233.449C102.553 232.464 103.348 231.667 104.322 231.667C105.296 231.667 106.091 232.464 106.091 233.449C106.091 234.434 105.296 235.231 104.322 235.231C103.348 235.231 102.553 234.434 102.553 233.449Z" fill="#232323"/>
<path d="M184.997 233.927H104.799C104.537 233.927 104.322 233.712 104.322 233.449C104.322 233.186 104.537 232.971 104.799 232.971H184.997C185.259 232.971 185.475 233.186 185.475 233.449C185.475 233.712 185.259 233.927 184.997 233.927Z" fill="#232323"/>
<path opacity="0.5" d="M240.922 250.506H189.81V326.997H240.922V250.506Z" fill="#E8F2FA"/>
<path d="M220.271 275.084H219.569V271.934C219.569 270.799 220.486 269.88 221.61 269.88H230.259C230.868 269.88 231.402 269.467 231.561 268.877L232.927 263.663C233.03 263.259 232.946 262.828 232.693 262.5C232.441 262.162 232.047 261.975 231.626 261.975H220.346V261.271H231.626C232.263 261.271 232.853 261.562 233.246 262.069C233.639 262.575 233.77 263.222 233.601 263.841L232.235 269.055C232.001 269.955 231.186 270.583 230.259 270.583H221.61C220.87 270.583 220.262 271.193 220.262 271.934V275.084H220.271Z" fill="#9E9E9E"/>
<path d="M228.762 258.665H213.175C212.121 258.665 211.266 259.521 211.266 260.578V262.669C211.266 263.725 212.121 264.582 213.175 264.582H228.762C229.817 264.582 230.672 263.725 230.672 262.669V260.578C230.672 259.521 229.817 258.665 228.762 258.665Z" fill="#232323"/>
<path d="M219.916 288.166C218.858 288.166 217.997 287.303 217.997 286.234V274.55C217.997 273.481 218.858 272.618 219.916 272.618C220.973 272.618 221.835 273.481 221.835 274.55V286.234C221.835 287.303 220.973 288.166 219.916 288.166Z" fill="#9E9E9E"/>
<path d="M293.496 313.494C293.496 313.494 294.815 317.582 294.703 318.511C294.591 319.449 293.758 322.637 293.168 323.453C292.578 324.268 292.279 320.124 291.81 319.505C291.342 318.877 291.717 321.061 291.38 321.268C291.052 321.474 290.359 319.664 290.06 319.027C289.76 318.389 290.781 316.035 290.79 314.394C290.79 312.753 293.486 313.494 293.486 313.494H293.496Z" fill="#FFAE73"/>
<path d="M262.388 281.058C262.023 276.378 267.097 273.162 271.103 275.6C271.187 275.647 271.262 275.703 271.347 275.75C277.347 279.623 290.284 297.684 291.183 299.494C292.072 301.303 294.703 315.698 294.703 315.698C294.703 315.698 291.455 316.889 289.938 315.651C289.938 315.651 284.668 301.997 283.891 301.313C283.114 300.628 262.818 289.216 262.641 284.931C262.594 283.796 262.5 282.436 262.397 281.048L262.388 281.058Z" fill="#EDECEB"/>
<path d="M298.606 386.778C298.606 386.778 301.022 388.991 300.554 390.566C300.086 392.142 297.895 393.183 297.605 395.105C297.305 397.027 296.126 398.078 295.068 398.078H290.003C290.003 398.078 289.217 396.727 291.108 396.315C292.999 395.911 293.71 393.651 293.589 391.551C293.467 389.45 293.767 386.656 293.767 386.656L297.773 385.728L298.597 386.778H298.606Z" fill="#214A80"/>
<path d="M268.941 392.498C268.941 392.498 269.371 397.534 268.313 398.059L254.721 398.031C254.721 398.031 254.721 396.455 256.902 396.108C259.083 395.761 262.921 394.477 263.567 391.626C264.213 388.775 268.931 392.498 268.931 392.498H268.941Z" fill="#214A80"/>
<path d="M257.463 321.362C257.463 321.362 258.184 330.186 259.027 340.801C260.169 355.214 261.545 372.918 261.685 376.275C261.919 382.099 262.865 391.42 262.865 391.42C262.865 391.42 265.102 393.633 269.586 392.704C269.586 392.704 273.584 379.407 274.726 365.332C274.744 365.097 274.763 364.872 274.782 364.638C275.84 350.309 277.497 320.152 277.497 320.152L257.473 321.371L257.463 321.362Z" fill="#232323"/>
<path d="M257.463 321.361C257.463 321.361 258.184 330.185 259.027 340.801L274.726 365.322C274.744 365.088 274.763 364.863 274.782 364.628C275.84 350.3 277.497 320.142 277.497 320.142L257.473 321.361H257.463Z" fill="black"/>
<path d="M260.74 322.412C260.74 322.412 273.658 354.379 282.149 369.402C290.64 384.424 293.298 388.616 293.298 388.616C293.298 388.616 298.166 386.693 298.606 385.381C298.606 385.381 295.358 356.376 289.666 349.306C286.455 345.311 282.673 333.318 282.495 329.126C282.318 324.934 281.344 316.635 281.344 316.635L260.73 322.402L260.74 322.412Z" fill="#232323"/>
<path d="M271.88 274.456C271.88 274.456 263.221 278.854 258.156 277.391C258.156 277.391 259.364 275.797 261.517 274.587C261.32 273.575 261.171 272.702 261.077 271.952C260.834 270.236 260.815 269.261 260.815 269.261L264.138 266.532L267.284 263.925C267.171 271.08 271.889 274.456 271.889 274.456H271.88Z" fill="#FFAE73"/>
<path d="M280.474 319.177C276.982 321.296 273.668 322.89 269.802 323.79C265.233 324.878 259.626 324.559 257.744 324.841C257.548 324.869 257.37 324.812 257.192 324.7C257.042 324.625 256.218 319.036 255.385 311.994C255.348 311.712 255.31 311.422 255.292 311.14V311.046C254.955 308.29 254.674 305.392 254.43 302.494C254.234 300.234 254.065 298.003 253.953 295.902C253.813 293.276 253.747 290.866 253.813 288.888C253.841 287.978 253.888 287.172 253.972 286.459C254.468 282.342 256.424 279.398 258.269 277.213L259.804 275.469C261.583 275.581 263.389 275.244 265.102 274.118C266.975 272.881 268.987 271.558 269.371 271.784C272.236 273.359 274.567 277.429 276.233 282.802C277.188 285.896 277.918 289.413 278.386 293.126C278.536 294.28 278.667 295.461 278.76 296.643C278.779 296.859 278.798 297.084 278.817 297.29C279.041 300.516 279.406 303.535 279.818 306.236C280.371 309.874 280.988 312.922 281.428 315.069C281.653 316.166 281.822 317.01 281.915 317.611C282.009 318.136 280.951 318.895 280.483 319.186L280.474 319.177Z" fill="white"/>
<path d="M267.377 266.663C267.377 266.663 265.252 270.743 261.068 271.952C260.824 270.236 260.806 269.261 260.806 269.261L264.129 266.532L267.387 266.654L267.377 266.663Z" fill="#F99352"/>
<path d="M259.261 269.177C259.261 269.177 267.621 270.377 268.304 265.229C268.988 260.071 270.523 256.761 265.215 255.776C259.907 254.792 258.606 256.62 257.951 258.29C257.295 259.959 257.099 268.736 259.261 269.186V269.177Z" fill="#FFAE73"/>
<path d="M271.131 255.036C271.206 254.951 271.374 254.876 271.767 254.848C271.767 254.848 271.449 254.66 271.037 254.66C270.944 254.117 270.635 253.169 269.708 252.954C269.708 252.954 270.213 253.207 270.288 253.788C269.193 252.701 266.862 251.941 260.487 252.569C252.081 253.404 254.964 258.749 256.069 259.377C257.173 259.996 259.879 258.177 261.919 258.299C263.951 258.421 264.4 261.356 265.093 261.74C265.786 262.134 265.505 261.422 266.431 260.981C267.358 260.54 267.471 262.087 267.227 263.1C266.974 264.113 268.285 265.416 268.285 265.416L269.549 263.991C270.813 262.566 271.917 256.62 271.309 255.373C271.253 255.261 271.196 255.148 271.15 255.036H271.131Z" fill="#2A3967"/>
<path d="M268.482 289.338C268.482 289.338 261.433 294.721 253.953 295.893C253.813 293.267 253.747 290.857 253.813 288.878L268.482 289.338Z" fill="#BCBCBC"/>
<path d="M225.167 282.399C225.055 282.277 223.622 277.457 221.132 277.813C219.513 278.038 216.854 278.985 217.566 281.123C217.847 281.967 222.789 284.865 222.789 284.865L225.176 282.389L225.167 282.399Z" fill="#FFAE73"/>
<path d="M269.353 278.948C273.378 281.358 273.05 287.369 268.744 289.235C268.66 289.272 268.566 289.31 268.482 289.347C261.863 292.01 239.677 292.132 237.693 291.814C235.708 291.495 222.471 285.306 222.471 285.306C222.471 285.306 223.379 281.958 225.27 281.433C225.27 281.433 239.424 285.024 240.426 284.79C241.428 284.546 262.472 274.569 266.048 276.904C266.994 277.523 268.154 278.235 269.343 278.948H269.353Z" fill="#EDECEB"/>
<path d="M418.59 120.724H400.934C400.195 120.724 399.586 120.114 399.586 119.374C399.586 118.633 400.195 118.023 400.934 118.023H418.59C419.329 118.023 419.938 118.633 419.938 119.374C419.938 120.114 419.329 120.724 418.59 120.724Z" fill="#E8F2FA"/>
<path d="M418.59 126.003H400.934C400.195 126.003 399.586 125.394 399.586 124.653C399.586 123.912 400.195 123.303 400.934 123.303H418.59C419.329 123.303 419.938 123.912 419.938 124.653C419.938 125.394 419.329 126.003 418.59 126.003Z" fill="#E8F2FA"/>
<path d="M418.59 131.433H400.934C400.195 131.433 399.586 130.823 399.586 130.083C399.586 129.342 400.195 128.732 400.934 128.732H418.59C419.329 128.732 419.938 129.342 419.938 130.083C419.938 130.823 419.329 131.433 418.59 131.433Z" fill="#E8F2FA"/>
<path d="M349.438 259.077H307.396C306.413 259.077 305.608 258.271 305.608 257.286C305.608 256.301 306.413 255.495 307.396 255.495H349.438C350.421 255.495 351.226 256.301 351.226 257.286C351.226 258.271 350.421 259.077 349.438 259.077Z" fill="#E8F2FA"/>
<path d="M143.93 135.943H101.888C100.905 135.943 100.1 135.137 100.1 134.152C100.1 133.168 100.905 132.361 101.888 132.361H143.93C144.913 132.361 145.718 133.168 145.718 134.152C145.718 135.137 144.913 135.943 143.93 135.943Z" fill="#E8F2FA"/>
<path d="M349.438 276.875H307.396C306.413 276.875 305.608 276.069 305.608 275.084C305.608 274.1 306.413 273.293 307.396 273.293H349.438C350.421 273.293 351.226 274.1 351.226 275.084C351.226 276.069 350.421 276.875 349.438 276.875Z" fill="#E8F2FA"/>
<path d="M349.438 267.976H299.159C298.176 267.976 297.371 267.17 297.371 266.185C297.371 265.2 298.176 264.394 299.159 264.394H349.438C350.421 264.394 351.226 265.2 351.226 266.185C351.226 267.17 350.421 267.976 349.438 267.976Z" fill="#E8F2FA"/>
<path d="M131.657 143.633H107.533C106.892 143.633 106.372 144.153 106.372 144.795V146.061C106.372 146.703 106.892 147.224 107.533 147.224H131.657C132.298 147.224 132.818 146.703 132.818 146.061V144.795C132.818 144.153 132.298 143.633 131.657 143.633Z" fill="#E8F2FA"/>
<path d="M98.5181 145.424C98.5181 144.43 99.3231 143.633 100.306 143.633C101.289 143.633 102.094 144.439 102.094 145.424C102.094 146.408 101.289 147.215 100.306 147.215C99.3231 147.215 98.5181 146.408 98.5181 145.424Z" fill="#E8F2FA"/>
<path d="M136.272 150.769H107.533C106.892 150.769 106.372 151.289 106.372 151.932V153.198C106.372 153.84 106.892 154.36 107.533 154.36H136.272C136.913 154.36 137.433 153.84 137.433 153.198V151.932C137.433 151.289 136.913 150.769 136.272 150.769Z" fill="#E8F2FA"/>
<path d="M98.5181 152.569C98.5181 151.575 99.3231 150.778 100.306 150.778C101.289 150.778 102.094 151.585 102.094 152.569C102.094 153.554 101.289 154.36 100.306 154.36C99.3231 154.36 98.5181 153.554 98.5181 152.569Z" fill="#E8F2FA"/>
<path d="M131.657 158.524H107.533C106.892 158.524 106.372 159.045 106.372 159.687V160.953C106.372 161.595 106.892 162.115 107.533 162.115H131.657C132.298 162.115 132.818 161.595 132.818 160.953V159.687C132.818 159.045 132.298 158.524 131.657 158.524Z" fill="#E8F2FA"/>
<path d="M98.5181 160.315C98.5181 159.321 99.3231 158.524 100.306 158.524C101.289 158.524 102.094 159.33 102.094 160.315C102.094 161.3 101.289 162.106 100.306 162.106C99.3231 162.106 98.5181 161.3 98.5181 160.315Z" fill="#E8F2FA"/>
<path d="M174.607 151.238C174.298 151.284 173.979 151.303 173.661 151.294C171.976 151.275 170.394 150.6 169.214 149.39C166.78 146.896 166.827 142.882 169.317 140.444C171.807 138.006 175.814 138.053 178.248 140.547C180.682 143.042 180.635 147.055 178.145 149.503C177.172 150.459 175.936 151.059 174.607 151.247V151.238ZM170.048 141.185C167.969 143.22 167.932 146.577 169.963 148.659C170.946 149.672 172.266 150.234 173.67 150.253C175.075 150.272 176.413 149.737 177.415 148.753C179.493 146.718 179.531 143.361 177.499 141.279C175.468 139.197 172.116 139.16 170.038 141.194L170.048 141.185Z" fill="#232323"/>
<path d="M169.938 149.4L169.212 148.655L163.042 154.688L163.768 155.433L169.938 149.4Z" fill="#232323"/>
<path d="M161.285 157.164C160.93 156.798 160.93 156.208 161.304 155.851L164.936 152.297C165.301 151.941 165.891 151.941 166.247 152.316C166.603 152.682 166.603 153.272 166.228 153.629L162.596 157.183C162.231 157.539 161.641 157.539 161.285 157.164Z" fill="#232323"/>
<path d="M404.417 398.19C403.612 398.19 402.769 397.609 402.526 396.887L354.016 248.818C353.782 248.096 354.24 247.505 355.045 247.496C355.85 247.496 356.693 248.078 356.936 248.8L405.447 396.868C405.681 397.59 405.222 398.181 404.417 398.19Z" fill="#232323"/>
<path d="M443.519 397.965C442.714 397.965 441.871 397.384 441.628 396.661L393.118 248.593C392.884 247.871 393.342 247.28 394.147 247.271C394.953 247.271 395.795 247.852 396.038 248.574L444.549 396.643C444.783 397.365 444.324 397.956 443.519 397.965Z" fill="#232323"/>
<path d="M401.421 269.223L362.16 269.448C361.402 269.448 360.597 268.895 360.382 268.22C360.157 267.536 360.597 266.982 361.355 266.973L400.616 266.748C401.375 266.748 402.18 267.301 402.395 267.976C402.62 268.661 402.18 269.214 401.421 269.223Z" fill="#232323"/>
<path d="M409.893 295.077L370.632 295.302C369.874 295.302 369.068 294.748 368.853 294.073C368.629 293.389 369.069 292.835 369.827 292.826L409.088 292.601C409.846 292.601 410.651 293.154 410.867 293.83C411.091 294.514 410.651 295.067 409.893 295.077Z" fill="#232323"/>
<path d="M418.047 319.973L378.786 320.198C378.027 320.198 377.222 319.645 377.007 318.97C376.782 318.286 377.222 317.732 377.981 317.723L417.242 317.498C418 317.498 418.805 318.051 419.02 318.726C419.245 319.411 418.805 319.964 418.047 319.973Z" fill="#232323"/>
<path d="M427.23 348.002L387.969 348.228C387.211 348.228 386.406 347.674 386.191 346.999C385.966 346.315 386.406 345.761 387.164 345.752L426.425 345.527C427.184 345.527 427.989 346.08 428.204 346.755C428.429 347.44 427.989 347.993 427.23 348.002Z" fill="#232323"/>
<path d="M436.844 377.344L397.583 377.569C396.825 377.569 396.02 377.016 395.804 376.341C395.58 375.656 396.02 375.103 396.778 375.093L436.039 374.868C436.797 374.868 437.603 375.422 437.818 376.097C438.042 376.781 437.603 377.335 436.844 377.344Z" fill="#232323"/>
<path d="M352.331 181.001C352.022 181.058 351.722 180.861 351.666 180.551L351.039 177.297C350.983 176.988 351.179 176.688 351.488 176.632C351.797 176.575 352.097 176.772 352.153 177.082L352.78 180.336C352.836 180.645 352.64 180.945 352.331 181.001Z" fill="#214D9A"/>
<path d="M350.617 171.127L350.231 171.202L351.14 175.906L351.527 175.832L350.617 171.127Z" fill="#214D9A"/>
<path d="M350.618 144.636C350.618 144.636 350.243 141.401 349.466 140.163C348.68 138.925 345.722 138.128 345.534 138.316C344.954 138.878 347.248 140.866 347.332 141.598C347.425 142.329 346.171 141.823 346.77 143.257C347.276 144.467 348.951 146.033 348.951 146.033L350.608 144.645L350.618 144.636Z" fill="#FFAE73"/>
<path d="M349.195 144.27C350.271 143.417 350.505 143.436 350.505 143.436C350.505 143.436 360.484 152.11 361.458 152.879C362.431 153.648 377.419 158.008 377.419 158.008L379.797 170.227C379.797 170.227 359.511 160.399 357.086 158.402C353.08 155.092 348.024 145.818 348.024 145.818C348.024 145.818 348.343 144.936 349.185 144.27H349.195Z" fill="#232323"/>
<path d="M377.747 261.703C377.747 261.703 377.578 265.876 376.773 266.898L365.643 266.964C365.717 266.532 365.764 265.538 367.309 265.266C369.256 264.929 371.54 263.569 372.71 260.99C373.946 258.28 377.747 261.703 377.747 261.703Z" fill="#0B3563"/>
<path d="M399.577 261.103C399.577 261.103 400.354 266.654 399.296 266.748C399.156 266.757 394.812 266.832 392.931 266.86C390.721 266.898 387.08 266.823 387.08 266.823C386.621 266.842 386.322 266.345 386.556 265.951C386.808 265.519 387.295 265.051 388.231 264.872C390.169 264.497 393.399 263.072 394.531 260.474C395.72 257.746 399.577 261.103 399.577 261.103Z" fill="#0B3563"/>
<path d="M371.961 204.248C371.961 204.248 375.06 215.097 383.925 233.946C392.79 252.794 393.174 261.881 393.174 261.881C393.174 261.881 394.513 262.359 396.301 262.162C398.229 261.956 399.587 261.093 399.587 261.093C399.587 261.093 399.016 238.663 394.822 229.145C390.637 219.636 389.776 193.604 389.776 193.604L371.961 204.238V204.248Z" fill="#EDECEB"/>
<path d="M366.99 194.908C366.99 194.908 366.747 211.712 369.649 232.352C372.551 252.991 371.194 262.584 371.194 262.584C371.194 262.584 371.961 263.147 374.33 263.137C377.101 263.128 378.514 261.984 378.514 261.984C378.514 261.984 382.661 241.345 381.472 231.011C380.283 220.677 387.155 195.564 387.155 195.564L366.99 194.908Z" fill="white"/>
<path d="M380.695 155.579L377.419 158.008L372.682 157.005C372.748 156.573 373.057 154.773 373.347 153.151C373.366 153.057 373.384 152.963 373.394 152.869C373.637 151.491 373.852 150.3 373.852 150.3L378.271 148.087L379.918 147.262C379.918 147.262 379.787 148.8 379.769 149.015C379.46 152.916 380.686 155.57 380.686 155.57L380.695 155.579Z" fill="#FFAE73"/>
<path d="M390.085 196.99C389.017 201.904 366.082 199.747 366.382 196.746C366.391 196.643 366.457 195.255 366.532 193.389C366.709 189.338 366.972 183.018 367.009 182.521C367.009 182.521 367.009 182.502 367.009 182.492C367.421 178.32 367.814 174.231 367.842 171.568C367.861 169.252 368.189 166.889 368.61 164.741C369.003 162.763 369.48 160.962 369.892 159.555C370.182 158.571 370.735 157.699 371.456 157.014C371.97 156.527 372.579 156.133 373.244 155.87C373.421 155.795 373.609 155.73 373.796 155.673C376.492 154.886 380.227 153.92 381.238 154.21C383.981 155.017 386.012 159.856 387.454 166.026C390.15 177.569 390.777 193.773 390.075 196.971L390.085 196.99Z" fill="#232323"/>
<path d="M379.45 149.09C378.477 150.956 374.863 152.569 373.347 153.16C373.365 153.066 373.384 152.972 373.393 152.879C373.637 151.5 373.852 150.309 373.852 150.309L378.271 148.096C379.244 148.077 379.843 148.331 379.441 149.1L379.45 149.09Z" fill="#FFA05E"/>
<path d="M371.709 150.047C371.709 150.047 379.684 152.541 381.164 147.534C382.633 142.526 384.655 139.479 379.628 137.678C374.592 135.878 373.038 137.491 372.139 139.038C371.241 140.585 369.668 149.269 371.709 150.047Z" fill="#FFAE73"/>
<path d="M372.448 138.56C372.448 138.56 372.954 144.383 374.161 144.13C375.359 143.876 376.455 143.689 376.277 145.443C376.099 147.196 374.433 149.222 378.14 149.54C381.847 149.85 387.164 140.276 386.153 138.466C383.214 133.233 368.217 132.183 372.457 138.56H372.448Z" fill="#232323"/>
<path d="M366.532 193.389C366.71 189.338 366.972 183.017 367.009 182.52C367.009 182.52 367.009 182.502 367.009 182.492L380.555 174.372C380.555 174.372 381.079 193.323 366.532 193.379V193.389Z" fill="#050505"/>
<path d="M355.766 176.397C355.766 176.397 353.014 174.531 352.49 174.372C351.966 174.212 350.252 174.034 350.178 174.165C350.103 174.297 349.859 174.718 350.159 174.859C350.458 175 350.833 174.953 350.72 175.047C350.608 175.14 349.485 174.606 349.223 175.187C348.961 175.759 348.736 177.738 350.056 178.329C351.376 178.929 354.633 178.385 354.868 178.451C356.861 179.032 355.757 176.397 355.757 176.397H355.766Z" fill="#FFAE73"/>
<path d="M355.738 175.891C355.738 175.891 369.172 178.179 370.37 177.597C372.27 176.669 369.631 163.006 369.631 163.006C369.631 163.006 369.518 159.912 373.122 159.18C376.258 158.543 379.282 160.896 379.282 160.896C379.282 160.896 382.034 163.363 381.679 166.101C380.902 172.168 379.685 184.518 375.641 186.403C370.417 188.841 355.308 179.632 355.308 179.632C355.308 179.632 354.802 179.013 354.877 177.869C354.943 176.857 355.738 175.881 355.738 175.881V175.891Z" fill="#232323"/>
<path d="M346.714 143.079C346.714 143.079 345.852 141.363 345.712 141.044C345.572 140.726 345.909 140.791 346.236 140.969C346.564 141.148 347.023 142.142 347.528 142.02C347.931 141.926 346.704 143.07 346.704 143.07L346.714 143.079Z" fill="#FFAE73"/>
</g>
<defs>
<linearGradient id="paint0_linear_2136_9151" x1="194.771" y1="377.804" x2="220.43" y2="377.804" gradientUnits="userSpaceOnUse">
<stop stop-color="#EEE811"/>
<stop offset="1" stop-color="white"/>
</linearGradient>
<linearGradient id="paint1_linear_2136_9151" x1="195.735" y1="386.703" x2="219.616" y2="386.703" gradientUnits="userSpaceOnUse">
<stop stop-color="#EEE811"/>
<stop offset="1" stop-color="white"/>
</linearGradient>
<clipPath id="clip0_2136_9151">
<rect width="463" height="400" fill="white"/>
</clipPath>
</defs>
</svg>
