<svg width="667" height="74" viewBox="0 0 667 74" fill="none" xmlns="http://www.w3.org/2000/svg">
<path d="M15.2 30.2V29.2H14.2V30.2H15.2ZM48.9 30.2H49.9V29.2H48.9V30.2ZM48.9 42.8V43.8H49.9V42.8H48.9ZM15.2 42.8H14.2V43.8H15.2V42.8ZM16.4 59H15.4V60H16.4V59ZM54.5 59H55.5V58H54.5V59ZM54.5 72V73H55.5V72H54.5ZM0.3 72H-0.7V73H0.3V72ZM0.3 2V0.999995H-0.7V2H0.3ZM53.2 2H54.2V0.999995H53.2V2ZM53.2 15V16H54.2V15H53.2ZM16.4 15V14H15.4V15H16.4ZM15.2 31.2H48.9V29.2H15.2V31.2ZM47.9 30.2V42.8H49.9V30.2H47.9ZM48.9 41.8H15.2V43.8H48.9V41.8ZM16.2 42.8V30.2H14.2V42.8H16.2ZM16.4 60H54.5V58H16.4V60ZM53.5 59V72H55.5V59H53.5ZM54.5 71H0.3V73H54.5V71ZM1.3 72V2H-0.7V72H1.3ZM0.3 3H53.2V0.999995H0.3V3ZM52.2 2V15H54.2V2H52.2ZM53.2 14H16.4V16H53.2V14ZM15.4 15V59H17.4V15H15.4ZM62.3367 50.1H61.3367V51.1H62.3367V50.1ZM62.3367 37.6V36.6H61.3367V37.6H62.3367ZM90.6367 37.6H91.6367V36.6H90.6367V37.6ZM90.6367 50.1V51.1H91.6367V50.1H90.6367ZM63.3367 50.1V37.6H61.3367V50.1H63.3367ZM62.3367 38.6H90.6367V36.6H62.3367V38.6ZM89.6367 37.6V50.1H91.6367V37.6H89.6367ZM90.6367 49.1H62.3367V51.1H90.6367V49.1ZM122.704 70.6L122.34 71.5312L122.348 71.5344L122.356 71.5374L122.704 70.6ZM110.704 63L110.011 63.7211L110.704 63ZM102.704 51.5L101.783 51.8906L101.788 51.9023L102.704 51.5ZM102.704 22.5L101.788 22.0977L101.783 22.1094L102.704 22.5ZM110.704 11L110.018 10.2722L110.011 10.2789L110.704 11ZM122.804 3.49999L123.157 4.43584L123.168 4.43124L122.804 3.49999ZM154.304 4L153.902 4.91587L153.91 4.91916L153.918 4.92234L154.304 4ZM166.704 13.2L167.382 13.9348L168.075 13.2953L167.477 12.5661L166.704 13.2ZM156.304 22.8L155.552 23.4598L156.229 24.2302L156.982 23.5348L156.304 22.8ZM148.304 16.7L147.873 17.6025L147.882 17.6065L147.89 17.6104L148.304 16.7ZM122.604 20.8L123.311 21.5071L122.604 20.8ZM117.904 27.9L116.98 27.517L116.976 27.5267L116.972 27.5365L117.904 27.9ZM117.904 46.1L116.972 46.4635L116.976 46.4733L116.98 46.483L117.904 46.1ZM122.604 53.2L121.897 53.9071L122.604 53.2ZM148.304 57.4L148.718 58.3104L148.726 58.3065L148.735 58.3025L148.304 57.4ZM156.304 51.1L156.982 50.3652L156.22 49.6615L155.545 50.4492L156.304 51.1ZM166.704 60.7L167.477 61.3339L168.075 60.6047L167.382 59.9652L166.704 60.7ZM154.304 70L153.907 69.0821L153.902 69.0841L154.304 70ZM137.804 72.2C132.513 72.2 127.598 71.3512 123.052 69.6626L122.356 71.5374C127.143 73.3155 132.295 74.2 137.804 74.2V72.2ZM123.068 69.6688C118.585 67.9143 114.698 65.4503 111.397 62.2789L110.011 63.7211C113.51 67.083 117.623 69.6857 122.34 71.5312L123.068 69.6688ZM111.397 62.2789C108.093 59.1047 105.501 55.3803 103.619 51.0977L101.788 51.9023C103.773 56.4197 106.515 60.362 110.011 63.7211L111.397 62.2789ZM103.624 51.1095C101.815 46.845 100.904 42.1462 100.904 37H98.9039C98.9039 42.3871 99.8591 47.355 101.783 51.8905L103.624 51.1095ZM100.904 37C100.904 31.8538 101.815 27.155 103.624 22.8905L101.783 22.1094C99.8591 26.645 98.9039 31.6129 98.9039 37H100.904ZM103.619 22.9023C105.501 18.6197 108.093 14.8953 111.397 11.7211L110.011 10.2789C106.515 13.638 103.773 17.5803 101.788 22.0977L103.619 22.9023ZM111.39 11.7278C114.757 8.55471 118.676 6.124 123.157 4.43576L122.451 2.56422C117.732 4.34265 113.584 6.91195 110.018 10.2722L111.39 11.7278ZM123.168 4.43124C127.64 2.68128 132.549 1.8 137.904 1.8V-0.200001C132.326 -0.200001 127.167 0.718712 122.44 2.56875L123.168 4.43124ZM137.904 1.8C143.852 1.8 149.179 2.84535 153.902 4.91587L154.705 3.08413C149.695 0.88798 144.089 -0.200001 137.904 -0.200001V1.8ZM153.918 4.92234C158.703 6.92704 162.703 9.8958 165.931 13.8339L167.477 12.5661C164.039 8.37086 159.772 5.20629 154.69 3.07766L153.918 4.92234ZM166.026 12.4652L155.626 22.0652L156.982 23.5348L167.382 13.9348L166.026 12.4652ZM157.055 22.1402C154.574 19.3141 151.796 17.1887 148.718 15.7896L147.89 17.6104C150.679 18.8779 153.234 20.8192 155.552 23.4598L157.055 22.1402ZM148.735 15.7975C145.658 14.3291 142.309 13.6 138.704 13.6V15.6C142.032 15.6 145.083 16.2709 147.873 17.6025L148.735 15.7975ZM138.704 13.6C135.327 13.6 132.202 14.1517 129.34 15.2684L130.067 17.1316C132.673 16.115 135.548 15.6 138.704 15.6V13.6ZM129.34 15.2684C126.483 16.3834 123.998 17.9914 121.897 20.0929L123.311 21.5071C125.21 19.6085 127.458 18.1499 130.067 17.1316L129.34 15.2684ZM121.897 20.0929C119.8 22.1899 118.161 24.6681 116.98 27.517L118.828 28.283C119.913 25.6652 121.408 23.4101 123.311 21.5071L121.897 20.0929ZM116.972 27.5365C115.855 30.4003 115.304 33.5591 115.304 37H117.304C117.304 33.7743 117.82 30.8663 118.835 28.2635L116.972 27.5365ZM115.304 37C115.304 40.4409 115.855 43.5997 116.972 46.4635L118.835 45.7365C117.82 43.1337 117.304 40.2257 117.304 37H115.304ZM116.98 46.483C118.161 49.3319 119.8 51.8101 121.897 53.9071L123.311 52.4929C121.408 50.5899 119.913 48.3348 118.828 45.717L116.98 46.483ZM121.897 53.9071C123.998 56.0085 126.483 57.6166 129.34 58.7316L130.067 56.8684C127.458 55.8501 125.21 54.3914 123.311 52.4929L121.897 53.9071ZM129.34 58.7316C132.202 59.8483 135.327 60.4 138.704 60.4V58.4C135.548 58.4 132.673 57.885 130.067 56.8684L129.34 58.7316ZM138.704 60.4C142.302 60.4 145.645 59.7072 148.718 58.3104L147.89 56.4896C145.096 57.7595 142.039 58.4 138.704 58.4V60.4ZM148.735 58.3025C151.81 56.8348 154.585 54.6424 157.063 51.7508L155.545 50.4492C153.223 53.1576 150.665 55.1652 147.873 56.4975L148.735 58.3025ZM155.626 51.8348L166.026 61.4348L167.382 59.9652L156.982 50.3652L155.626 51.8348ZM165.931 60.0661C162.701 64.0066 158.697 67.0106 153.907 69.0821L154.701 70.9179C159.777 68.7227 164.041 65.5267 167.477 61.3339L165.931 60.0661ZM153.902 69.0841C149.18 71.1541 143.82 72.2 137.804 72.2V74.2C144.054 74.2 149.694 73.1126 154.705 70.9159L153.902 69.0841ZM184.988 69.2L184.509 70.0779L184.515 70.0809L184.988 69.2ZM174.488 59.4L173.632 59.9165L173.637 59.9245L173.642 59.9324L174.488 59.4ZM174.488 30.8L173.638 30.2736L173.636 30.2774L174.488 30.8ZM184.988 21L185.457 21.8835L185.462 21.8809L184.988 21ZM215.488 21L215.015 21.8809L215.025 21.8863L215.488 21ZM225.988 59.4L226.841 59.9226L226.845 59.9165L225.988 59.4ZM215.488 69.2L215.015 68.3191L215.488 69.2ZM207.288 58.2L207.79 59.0648L207.288 58.2ZM212.188 53.1L213.066 53.5789L213.072 53.5679L212.188 53.1ZM212.188 37.1L211.31 37.5788L212.188 37.1ZM207.288 32L206.786 32.8648L207.288 32ZM193.288 32L193.79 32.8648L193.288 32ZM188.288 37.1L187.422 36.601L187.416 36.611L187.41 36.6211L188.288 37.1ZM188.288 53.1L187.404 53.5679L187.413 53.5836L187.422 53.599L188.288 53.1ZM193.288 58.2L193.79 57.3352L193.288 58.2ZM200.288 71.8C194.698 71.8 189.765 70.6312 185.462 68.3191L184.515 70.0809C189.145 72.5688 194.412 73.8 200.288 73.8V71.8ZM185.467 68.3221C181.213 66.0017 177.841 62.8523 175.335 58.8675L173.642 59.9324C176.335 64.2144 179.964 67.5983 184.509 70.0779L185.467 68.3221ZM175.345 58.8835C172.913 54.8529 171.688 50.2677 171.688 45.1H169.688C169.688 50.5989 170.996 55.5471 173.632 59.9165L175.345 58.8835ZM171.688 45.1C171.688 39.8628 172.915 35.2812 175.341 31.3226L173.636 30.2774C170.995 34.5855 169.688 39.5372 169.688 45.1H171.688ZM175.339 31.3264C177.844 27.2784 181.212 24.1344 185.457 21.8835L184.52 20.1165C179.964 22.5322 176.332 25.9216 173.638 30.2736L175.339 31.3264ZM185.462 21.8809C189.765 19.5688 194.698 18.4 200.288 18.4V16.4C194.412 16.4 189.145 17.6312 184.515 20.1191L185.462 21.8809ZM200.288 18.4C205.809 18.4 210.71 19.5679 215.015 21.8809L215.962 20.1191C211.333 17.6321 206.1 16.4 200.288 16.4V18.4ZM215.025 21.8863C219.338 24.1394 222.701 27.2498 225.136 31.2226L226.841 30.1774C224.209 25.8836 220.572 22.5273 215.951 20.1136L215.025 21.8863ZM225.136 31.2226C227.561 35.1792 228.788 39.7936 228.788 45.1H230.788C230.788 39.473 229.482 34.4874 226.841 30.1774L225.136 31.2226ZM228.788 45.1C228.788 50.2677 227.563 54.8529 225.132 58.8835L226.845 59.9165C229.48 55.5471 230.788 50.5989 230.788 45.1H228.788ZM225.136 58.8774C222.699 62.8528 219.333 65.9989 215.015 68.3191L215.962 70.0809C220.577 67.6011 224.211 64.2139 226.841 59.9226L225.136 58.8774ZM215.015 68.3191C210.71 70.6321 205.809 71.8 200.288 71.8V73.8C206.1 73.8 211.333 72.5679 215.962 70.0809L215.015 68.3191ZM200.288 61C203.049 61 205.558 60.3611 207.79 59.0648L206.786 57.3352C204.885 58.4389 202.728 59 200.288 59V61ZM207.79 59.0648C210.023 57.7684 211.783 55.9313 213.066 53.5788L211.31 52.6211C210.194 54.6687 208.687 56.2316 206.786 57.3352L207.79 59.0648ZM213.072 53.5679C214.362 51.1314 214.988 48.298 214.988 45.1H212.988C212.988 48.0353 212.415 50.5353 211.304 52.6321L213.072 53.5679ZM214.988 45.1C214.988 41.8405 214.364 39.0004 213.066 36.6211L211.31 37.5788C212.413 39.5996 212.988 42.0928 212.988 45.1H214.988ZM213.066 36.6211C211.783 34.2687 210.023 32.4316 207.79 31.1352L206.786 32.8648C208.687 33.9684 210.194 35.5313 211.31 37.5788L213.066 36.6211ZM207.79 31.1352C205.558 29.8389 203.049 29.2 200.288 29.2V31.2C202.728 31.2 204.885 31.7611 206.786 32.8648L207.79 31.1352ZM200.288 29.2C197.528 29.2 195.019 29.8389 192.786 31.1352L193.79 32.8648C195.691 31.7611 197.849 31.2 200.288 31.2V29.2ZM192.786 31.1352C190.559 32.4286 188.77 34.2591 187.422 36.601L189.155 37.599C190.34 35.5409 191.885 33.9714 193.79 32.8648L192.786 31.1352ZM187.41 36.6211C186.113 39.0004 185.488 41.8405 185.488 45.1H187.488C187.488 42.0928 188.064 39.5996 189.166 37.5788L187.41 36.6211ZM185.488 45.1C185.488 48.298 186.115 51.1314 187.404 53.5679L189.172 52.6321C188.062 50.5353 187.488 48.0353 187.488 45.1H185.488ZM187.422 53.599C188.77 55.9409 190.559 57.7714 192.786 59.0648L193.79 57.3352C191.885 56.2286 190.34 54.6591 189.155 52.601L187.422 53.599ZM192.786 59.0648C195.019 60.3611 197.528 61 200.288 61V59C197.849 59 195.691 58.4389 193.79 57.3352L192.786 59.0648ZM320.416 20L319.947 20.8833L319.958 20.889L319.968 20.8944L320.416 20ZM328.216 27.8L327.331 28.2671L327.337 28.2772L327.342 28.2871L328.216 27.8ZM331.116 72V73H332.116V72H331.116ZM315.516 72H314.516V73H315.516V72ZM312.816 34L313.57 33.3432L312.816 34ZM299.116 32.5L299.601 33.3742L299.613 33.3674L299.625 33.3603L299.116 32.5ZM294.916 37.1L295.816 37.5356L294.916 37.1ZM293.416 72V73H294.416V72H293.416ZM277.816 72H276.816V73H277.816V72ZM275.116 34L274.349 34.6426L274.355 34.6497L274.362 34.6568L275.116 34ZM261.516 32.5L262.001 33.3742L262.013 33.3674L262.025 33.3603L261.516 32.5ZM257.316 37.1L258.216 37.5356L257.316 37.1ZM255.816 72V73H256.816V72H255.816ZM240.216 72H239.216V73H240.216V72ZM240.216 18.2V17.2H239.216V18.2H240.216ZM255.116 18.2H256.116V17.2H255.116V18.2ZM255.116 32.9L254.278 33.4457L256.116 36.2683V32.9H255.116ZM252.316 28.6L251.424 28.1463L251.162 28.6614L251.478 29.1457L252.316 28.6ZM260.216 20.3L260.697 21.1766L260.703 21.1734L260.216 20.3ZM284.916 21.2L284.347 22.0227L284.356 22.0286L284.364 22.0343L284.916 21.2ZM292.316 32.6L292.053 33.5648L293.671 34.0063L293.289 32.3724L292.316 32.6ZM286.816 31.1L285.896 30.7061L285.444 31.7624L286.553 32.0648L286.816 31.1ZM295.416 21.1L294.891 20.2488L294.884 20.2528L295.416 21.1ZM309.116 18.4C313.244 18.4 316.845 19.2376 319.947 20.8833L320.884 19.1166C317.453 17.2957 313.52 16.4 309.116 16.4V18.4ZM319.968 20.8944C323.101 22.4609 325.555 24.9042 327.331 28.2671L329.1 27.3329C327.143 23.6291 324.397 20.8725 320.863 19.1056L319.968 20.8944ZM327.342 28.2871C329.167 31.5592 330.116 35.8425 330.116 41.2H332.116C332.116 35.6241 331.131 30.9742 329.089 27.3129L327.342 28.2871ZM330.116 41.2V72H332.116V41.2H330.116ZM331.116 71H315.516V73H331.116V71ZM316.516 72V43.6H314.516V72H316.516ZM316.516 43.6C316.516 39.1583 315.598 35.672 313.57 33.3432L312.062 34.6568C313.633 36.4613 314.516 39.3751 314.516 43.6H316.516ZM313.57 33.3432C311.543 31.0164 308.711 29.9 305.216 29.9V31.9C308.254 31.9 310.488 32.8502 312.062 34.6568L313.57 33.3432ZM305.216 29.9C302.785 29.9 300.573 30.474 298.606 31.6397L299.625 33.3603C301.258 32.3926 303.113 31.9 305.216 31.9V29.9ZM298.63 31.6258C296.629 32.7372 295.094 34.4346 294.015 36.6644L295.816 37.5356C296.737 35.632 298.002 34.2628 299.601 33.3742L298.63 31.6258ZM294.015 36.6644C292.929 38.9095 292.416 41.7049 292.416 45H294.416C294.416 41.8951 294.902 39.4238 295.816 37.5356L294.015 36.6644ZM292.416 45V72H294.416V45H292.416ZM293.416 71H277.816V73H293.416V71ZM278.816 72V43.6H276.816V72H278.816ZM278.816 43.6C278.816 39.1583 277.898 35.672 275.87 33.3432L274.362 34.6568C275.933 36.4613 276.816 39.3751 276.816 43.6H278.816ZM275.882 33.3574C273.918 31.0164 271.109 29.9 267.616 29.9V31.9C270.655 31.9 272.846 32.8502 274.349 34.6426L275.882 33.3574ZM267.616 29.9C265.185 29.9 262.973 30.474 261.006 31.6397L262.025 33.3603C263.658 32.3926 265.513 31.9 267.616 31.9V29.9ZM261.03 31.6258C259.029 32.7372 257.494 34.4346 256.415 36.6644L258.216 37.5356C259.137 35.632 260.402 34.2628 262.001 33.3742L261.03 31.6258ZM256.415 36.6644C255.329 38.9095 254.816 41.7049 254.816 45H256.816C256.816 41.8951 257.302 39.4238 258.216 37.5356L256.415 36.6644ZM254.816 45V72H256.816V45H254.816ZM255.816 71H240.216V73H255.816V71ZM241.216 72V18.2H239.216V72H241.216ZM240.216 19.2H255.116V17.2H240.216V19.2ZM254.116 18.2V32.9H256.116V18.2H254.116ZM255.954 32.3543L253.154 28.0543L251.478 29.1457L254.278 33.4457L255.954 32.3543ZM253.207 29.0537C254.988 25.5545 257.484 22.9406 260.697 21.1766L259.734 19.4234C256.147 21.3927 253.376 24.3122 251.424 28.1463L253.207 29.0537ZM260.703 21.1734C264.005 19.3318 267.767 18.4 272.016 18.4V16.4C267.464 16.4 263.36 17.4015 259.729 19.4266L260.703 21.1734ZM272.016 18.4C276.769 18.4 280.865 19.6171 284.347 22.0227L285.484 20.3773C281.633 17.7163 277.129 16.4 272.016 16.4V18.4ZM284.364 22.0343C287.847 24.3355 290.189 27.8958 291.342 32.8276L293.289 32.3724C292.042 27.0376 289.451 22.9978 285.467 20.3657L284.364 22.0343ZM292.579 31.6352L287.079 30.1352L286.553 32.0648L292.053 33.5648L292.579 31.6352ZM287.735 31.4939C289.453 27.4841 292.183 24.3076 295.947 21.9472L294.884 20.2528C290.782 22.8257 287.778 26.3159 285.896 30.7061L287.735 31.4939ZM295.941 21.9512C299.768 19.5907 304.15 18.4 309.116 18.4V16.4C303.815 16.4 299.063 17.676 294.891 20.2488L295.941 21.9512ZM425.298 20L424.83 20.8833L424.84 20.889L424.851 20.8944L425.298 20ZM433.098 27.8L432.214 28.2671L432.22 28.2772L432.225 28.2871L433.098 27.8ZM435.998 72V73H436.998V72H435.998ZM420.398 72H419.398V73H420.398V72ZM417.698 34L418.453 33.3432L417.698 34ZM403.998 32.5L404.484 33.3742L404.496 33.3674L404.508 33.3603L403.998 32.5ZM399.798 37.1L400.699 37.5356L399.798 37.1ZM398.298 72V73H399.298V72H398.298ZM382.698 72H381.698V73H382.698V72ZM379.998 34L379.232 34.6426L379.238 34.6497L379.244 34.6568L379.998 34ZM366.398 32.5L366.884 33.3742L366.896 33.3674L366.908 33.3603L366.398 32.5ZM362.198 37.1L363.099 37.5356L362.198 37.1ZM360.698 72V73H361.698V72H360.698ZM345.098 72H344.098V73H345.098V72ZM345.098 18.2V17.2H344.098V18.2H345.098ZM359.998 18.2H360.998V17.2H359.998V18.2ZM359.998 32.9L359.16 33.4457L360.998 36.2683V32.9H359.998ZM357.198 28.6L356.307 28.1463L356.045 28.6614L356.36 29.1457L357.198 28.6ZM365.098 20.3L365.58 21.1766L365.586 21.1734L365.098 20.3ZM389.798 21.2L389.23 22.0227L389.239 22.0286L389.247 22.0343L389.798 21.2ZM397.198 32.6L396.935 33.5648L398.554 34.0063L398.172 32.3724L397.198 32.6ZM391.698 31.1L390.779 30.7061L390.327 31.7624L391.435 32.0648L391.698 31.1ZM400.298 21.1L399.774 20.2488L399.767 20.2528L400.298 21.1ZM413.998 18.4C418.127 18.4 421.728 19.2376 424.83 20.8833L425.767 19.1166C422.335 17.2957 418.403 16.4 413.998 16.4V18.4ZM424.851 20.8944C427.984 22.4609 430.438 24.9042 432.214 28.2671L433.983 27.3329C432.026 23.6291 429.279 20.8725 425.746 19.1056L424.851 20.8944ZM432.225 28.2871C434.05 31.5592 434.998 35.8425 434.998 41.2H436.998C436.998 35.6241 436.014 30.9742 433.972 27.3129L432.225 28.2871ZM434.998 41.2V72H436.998V41.2H434.998ZM435.998 71H420.398V73H435.998V71ZM421.398 72V43.6H419.398V72H421.398ZM421.398 43.6C421.398 39.1583 420.481 35.672 418.453 33.3432L416.944 34.6568C418.516 36.4613 419.398 39.3751 419.398 43.6H421.398ZM418.453 33.3432C416.426 31.0164 413.593 29.9 410.098 29.9V31.9C413.137 31.9 415.371 32.8502 416.944 34.6568L418.453 33.3432ZM410.098 29.9C407.668 29.9 405.456 30.474 403.489 31.6397L404.508 33.3603C406.141 32.3926 407.996 31.9 410.098 31.9V29.9ZM403.513 31.6258C401.512 32.7372 399.977 34.4346 398.898 36.6644L400.699 37.5356C401.62 35.632 402.885 34.2628 404.484 33.3742L403.513 31.6258ZM398.898 36.6644C397.812 38.9095 397.298 41.7049 397.298 45H399.298C399.298 41.8951 399.785 39.4238 400.699 37.5356L398.898 36.6644ZM397.298 45V72H399.298V45H397.298ZM398.298 71H382.698V73H398.298V71ZM383.698 72V43.6H381.698V72H383.698ZM383.698 43.6C383.698 39.1583 382.781 35.672 380.753 33.3432L379.244 34.6568C380.816 36.4613 381.698 39.3751 381.698 43.6H383.698ZM380.765 33.3574C378.801 31.0164 375.992 29.9 372.498 29.9V31.9C375.538 31.9 377.729 32.8502 379.232 34.6426L380.765 33.3574ZM372.498 29.9C370.068 29.9 367.856 30.474 365.889 31.6397L366.908 33.3603C368.541 32.3926 370.396 31.9 372.498 31.9V29.9ZM365.913 31.6258C363.912 32.7372 362.377 34.4346 361.298 36.6644L363.099 37.5356C364.02 35.632 365.285 34.2628 366.884 33.3742L365.913 31.6258ZM361.298 36.6644C360.212 38.9095 359.698 41.7049 359.698 45H361.698C361.698 41.8951 362.185 39.4238 363.099 37.5356L361.298 36.6644ZM359.698 45V72H361.698V45H359.698ZM360.698 71H345.098V73H360.698V71ZM346.098 72V18.2H344.098V72H346.098ZM345.098 19.2H359.998V17.2H345.098V19.2ZM358.998 18.2V32.9H360.998V18.2H358.998ZM360.836 32.3543L358.036 28.0543L356.36 29.1457L359.16 33.4457L360.836 32.3543ZM358.09 29.0537C359.871 25.5545 362.367 22.9406 365.58 21.1766L364.617 19.4234C361.03 21.3927 358.259 24.3122 356.307 28.1463L358.09 29.0537ZM365.586 21.1734C368.888 19.3318 372.65 18.4 376.898 18.4V16.4C372.347 16.4 368.243 17.4015 364.611 19.4266L365.586 21.1734ZM376.898 18.4C381.651 18.4 385.748 19.6171 389.23 22.0227L390.367 20.3773C386.515 17.7163 382.012 16.4 376.898 16.4V18.4ZM389.247 22.0343C392.73 24.3355 395.072 27.8958 396.225 32.8276L398.172 32.3724C396.925 27.0376 394.334 22.9978 390.35 20.3657L389.247 22.0343ZM397.462 31.6352L391.962 30.1352L391.435 32.0648L396.935 33.5648L397.462 31.6352ZM392.618 31.4939C394.336 27.4841 397.066 24.3076 400.83 21.9472L399.767 20.2528C395.664 22.8257 392.661 26.3159 390.779 30.7061L392.618 31.4939ZM400.823 21.9512C404.651 19.5907 409.033 18.4 413.998 18.4V16.4C408.697 16.4 403.946 17.676 399.774 20.2488L400.823 21.9512ZM460.872 69.2L460.409 70.0866L460.415 70.0893L460.872 69.2ZM450.172 59.4L449.316 59.9165L449.319 59.9226L450.172 59.4ZM450.072 30.8L449.216 30.2835L449.213 30.2875L450.072 30.8ZM460.372 21L460.846 21.8805L460.856 21.8748L460.372 21ZM489.272 20.8L488.797 21.68L488.805 21.6845L488.814 21.6888L489.272 20.8ZM499.372 30.4L498.51 30.9064L498.513 30.9125L499.372 30.4ZM502.972 47.4L503.968 47.4905L503.968 47.483L502.972 47.4ZM502.772 49.5V50.5H503.677L503.767 49.5995L502.772 49.5ZM459.072 49.5H458.072V50.5H459.072V49.5ZM459.072 40.4V39.4H458.072V40.4H459.072ZM494.572 40.4L494.982 41.3119L494.572 39.4V40.4ZM488.572 43.1H487.572V44.6466L488.982 44.0119L488.572 43.1ZM486.872 35.8L485.995 36.2808L486.872 35.8ZM482.172 31L481.657 31.8575L481.668 31.8639L481.679 31.87L482.172 31ZM468.072 31L468.565 31.8701L468.574 31.8648L468.072 31ZM463.372 35.9L464.249 36.3809L464.255 36.3692L463.372 35.9ZM463.572 53.5L462.699 53.9878L462.708 54.0032L462.717 54.0183L463.572 53.5ZM469.072 58.6L468.615 59.4893L468.63 59.497L468.645 59.5042L469.072 58.6ZM484.972 59L484.605 58.0695L484.595 58.0735L484.972 59ZM490.972 55.1L491.707 54.4221L491.014 53.6709L490.278 54.3797L490.972 55.1ZM499.272 64.1L500.022 64.761L500.618 64.0847L500.007 63.4221L499.272 64.1ZM489.972 70.6L490.338 71.5308L490.345 71.5279L490.352 71.525L489.972 70.6ZM477.072 71.8C471.071 71.8 465.832 70.6266 461.329 68.3107L460.415 70.0893C465.245 72.5734 470.806 73.8 477.072 73.8V71.8ZM461.334 68.3134C456.883 65.9911 453.456 62.8455 451.024 58.8774L449.319 59.9226C451.954 64.2212 455.66 67.6089 460.409 70.0866L461.334 68.3134ZM451.028 58.8835C448.597 54.8529 447.372 50.2677 447.372 45.1H445.372C445.372 50.5989 446.68 55.5471 449.316 59.9165L451.028 58.8835ZM447.372 45.1C447.372 39.8579 448.567 35.2726 450.931 31.3125L449.213 30.2875C446.643 34.5941 445.372 39.5421 445.372 45.1H447.372ZM450.928 31.3165C453.369 27.2704 456.67 24.1292 460.846 21.8805L459.898 20.1195C455.407 22.5375 451.842 25.9296 449.216 30.2835L450.928 31.3165ZM460.856 21.8748C465.026 19.5652 469.757 18.4 475.072 18.4V16.4C469.454 16.4 464.384 17.6348 459.887 20.1252L460.856 21.8748ZM475.072 18.4C480.19 18.4 484.758 19.5 488.797 21.68L489.747 19.92C485.386 17.5666 480.487 16.4 475.072 16.4V18.4ZM488.814 21.6888C492.91 23.8008 496.137 26.867 498.51 30.9064L500.234 29.8936C497.673 25.533 494.168 22.1992 489.73 19.9112L488.814 21.6888ZM498.513 30.9125C500.87 34.8618 502.072 39.6434 502.072 45.3H504.072C504.072 39.3566 502.807 34.2048 500.231 29.8875L498.513 30.9125ZM502.072 45.3C502.072 45.8648 502.04 46.536 501.975 47.317L503.968 47.483C504.037 46.664 504.072 45.9352 504.072 45.3H502.072ZM501.976 47.3095C501.91 48.0401 501.843 48.7371 501.777 49.4005L503.767 49.5995C503.834 48.9296 503.901 48.2266 503.968 47.4905L501.976 47.3095ZM502.772 48.5H459.072V50.5H502.772V48.5ZM460.072 49.5V40.4H458.072V49.5H460.072ZM459.072 41.4H494.572V39.4H459.072V41.4ZM494.161 39.4881L488.161 42.1881L488.982 44.0119L494.982 41.3119L494.161 39.4881ZM489.572 43.1C489.572 40.1635 488.977 37.5586 487.749 35.3192L485.995 36.2808C487.034 38.1747 487.572 40.4365 487.572 43.1H489.572ZM487.749 35.3192C486.528 33.094 484.831 31.3573 482.665 30.13L481.679 31.87C483.513 32.9094 484.949 34.3727 485.995 36.2808L487.749 35.3192ZM482.686 30.1425C480.51 28.8365 477.993 28.2 475.172 28.2V30.2C477.684 30.2 479.834 30.7635 481.657 31.8575L482.686 30.1425ZM475.172 28.2C472.35 28.2 469.806 28.8367 467.57 30.1352L468.574 31.8648C470.471 30.7633 472.661 30.2 475.172 30.2V28.2ZM467.579 30.13C465.405 31.362 463.707 33.1385 462.489 35.4308L464.255 36.3692C465.304 34.3949 466.739 32.9047 468.565 31.87L467.579 30.13ZM462.495 35.4192C461.265 37.6619 460.672 40.3013 460.672 43.3H462.672C462.672 40.5653 463.212 38.2714 464.249 36.3808L462.495 35.4192ZM460.672 43.3V45.7H462.672V43.3H460.672ZM460.672 45.7C460.672 48.7816 461.339 51.5536 462.699 53.9878L464.445 53.0122C463.272 50.9131 462.672 48.4851 462.672 45.7H460.672ZM462.717 54.0183C464.148 56.3796 466.12 58.2065 468.615 59.4893L469.529 57.7107C467.357 56.5935 465.663 55.0204 464.427 52.9817L462.717 54.0183ZM468.645 59.5042C471.203 60.7123 474.154 61.3 477.472 61.3V59.3C474.39 59.3 471.741 58.7544 469.499 57.6957L468.645 59.5042ZM477.472 61.3C480.437 61.3 483.07 60.852 485.348 59.9265L484.595 58.0735C482.607 58.8813 480.24 59.3 477.472 59.3V61.3ZM485.338 59.9304C487.667 59.0131 489.777 57.6392 491.666 55.8203L490.278 54.3797C488.567 56.0275 486.677 57.2536 484.605 58.0696L485.338 59.9304ZM490.237 55.7779L498.537 64.7779L500.007 63.4221L491.707 54.4221L490.237 55.7779ZM498.522 63.439C496.165 66.1145 493.195 68.1952 489.592 69.675L490.352 71.525C494.215 69.9382 497.446 67.6855 500.022 64.761L498.522 63.439ZM489.606 69.6693C486.011 71.0815 481.839 71.8 477.072 71.8V73.8C482.038 73.8 486.466 73.0518 490.338 71.5308L489.606 69.6693ZM513.458 72H512.458V73H513.458V72ZM513.458 18.2V17.2H512.458V18.2H513.458ZM528.358 18.2H529.358V17.2H528.358V18.2ZM528.358 33.4L527.455 33.8307L529.358 33.4H528.358ZM526.258 29L525.336 28.6119L525.162 29.0256L525.355 29.4307L526.258 29ZM533.958 20.4L534.438 21.2773L534.444 21.2738L534.45 21.2703L533.958 20.4ZM546.858 17.4H547.858V16.4H546.858V17.4ZM546.858 31.8L546.758 32.795L547.858 32.905V31.8H546.858ZM545.058 31.7L544.934 32.6923L544.996 32.7H545.058V31.7ZM532.958 35.3L533.636 36.0348L533.637 36.0341L532.958 35.3ZM529.058 72V73H530.058V72H529.058ZM514.458 72V18.2H512.458V72H514.458ZM513.458 19.2H528.358V17.2H513.458V19.2ZM527.358 18.2V33.4H529.358V18.2H527.358ZM529.26 32.9693L527.16 28.5693L525.355 29.4307L527.455 33.8307L529.26 32.9693ZM527.179 29.3881C528.694 25.791 531.108 23.0994 534.438 21.2773L533.478 19.5227C529.741 21.5673 527.022 24.609 525.336 28.6119L527.179 29.3881ZM534.45 21.2703C537.801 19.3739 541.922 18.4 546.858 18.4V16.4C541.661 16.4 537.182 17.4261 533.465 19.5297L534.45 21.2703ZM545.858 17.4V31.8H547.858V17.4H545.858ZM546.957 30.805C546.266 30.7358 545.632 30.7 545.058 30.7V32.7C545.551 32.7 546.117 32.7309 546.758 32.795L546.957 30.805ZM545.182 30.7077C544.603 30.6354 543.995 30.6 543.358 30.6V32.6C543.921 32.6 544.446 32.6313 544.934 32.6923L545.182 30.7077ZM543.358 30.6C538.886 30.6 535.162 31.899 532.279 34.5659L533.637 36.0341C536.087 33.7677 539.296 32.6 543.358 32.6V30.6ZM532.28 34.5652C529.396 37.2265 528.058 41.3151 528.058 46.6H530.058C530.058 41.6182 531.319 38.1735 533.636 36.0348L532.28 34.5652ZM528.058 46.6V72H530.058V46.6H528.058ZM529.058 71H513.458V73H529.058V71ZM566.243 69.3L565.775 70.1838L565.785 70.1891L566.243 69.3ZM555.543 59.4L554.687 59.9165L554.693 59.9264L555.543 59.4ZM555.543 30.8L554.693 30.2736L554.69 30.2774L555.543 30.8ZM566.243 21L566.701 21.8892L566.711 21.8838L566.243 21ZM596.543 21L596.047 21.8683L596.057 21.8742L596.543 21ZM605.843 31.1L606.316 31.9809L607.141 31.5381L606.753 30.6862L605.843 31.1ZM593.743 37.6L592.868 38.0837L593.346 38.9486L594.216 38.4809L593.743 37.6ZM588.443 32L587.941 32.8649L587.953 32.8716L588.443 32ZM574.443 32L574.933 32.8716L574.443 32ZM569.343 37.1L568.476 36.601L568.471 36.611L568.465 36.6211L569.343 37.1ZM569.343 53.1L568.465 53.5788L568.471 53.589L568.476 53.599L569.343 53.1ZM574.443 58.2L574.933 57.3284L574.443 58.2ZM588.443 58.3L588.924 59.1769L588.933 59.1716L588.443 58.3ZM593.743 52.6L594.222 51.7221L593.339 51.2407L592.862 52.1259L593.743 52.6ZM605.843 59.2L606.751 59.6191L607.143 58.7699L606.322 58.3221L605.843 59.2ZM596.543 69.3L597.029 70.1742L597.039 70.1682L596.543 69.3ZM581.743 71.8C576.08 71.8 571.074 70.6619 566.701 68.4109L565.785 70.1891C570.479 72.6048 575.806 73.8 581.743 73.8V71.8ZM566.711 68.4162C562.328 66.096 558.896 62.9167 556.393 58.8736L554.693 59.9264C557.39 64.2833 561.091 67.704 565.775 70.1838L566.711 68.4162ZM556.399 58.8835C553.968 54.8529 552.743 50.2677 552.743 45.1H550.743C550.743 50.5989 552.051 55.5471 554.687 59.9165L556.399 58.8835ZM552.743 45.1C552.743 39.8628 553.969 35.2812 556.396 31.3226L554.69 30.2774C552.05 34.5855 550.743 39.5372 550.743 45.1H552.743ZM556.393 31.3264C558.895 27.2858 562.323 24.1422 566.701 21.8891L565.785 20.1109C561.096 22.5244 557.391 25.9142 554.693 30.2736L556.393 31.3264ZM566.711 21.8838C571.082 19.5696 576.084 18.4 581.743 18.4V16.4C575.801 16.4 570.471 17.6304 565.775 20.1162L566.711 21.8838ZM581.743 18.4C587.266 18.4 592.022 19.5684 596.047 21.8682L597.039 20.1318C592.664 17.6316 587.554 16.4 581.743 16.4V18.4ZM596.057 21.8742C600.069 24.1028 603.021 27.3075 604.933 31.5138L606.753 30.6862C604.665 26.0925 601.417 22.5639 597.029 20.1258L596.057 21.8742ZM605.37 30.2191L593.27 36.7191L594.216 38.4809L606.316 31.9809L605.37 30.2191ZM594.618 37.1163C593.145 34.4505 591.256 32.4349 588.933 31.1284L587.953 32.8716C589.897 33.9651 591.541 35.6829 592.868 38.0837L594.618 37.1163ZM588.945 31.1352C586.721 29.8437 584.28 29.2 581.643 29.2V31.2C583.939 31.2 586.032 31.7563 587.941 32.8648L588.945 31.1352ZM581.643 29.2C578.82 29.2 576.249 29.8368 573.953 31.1284L574.933 32.8716C576.904 31.7632 579.132 31.2 581.643 31.2V29.2ZM573.953 31.1284C571.657 32.4199 569.829 34.2513 568.476 36.601L570.21 37.599C571.39 35.5487 572.963 33.9801 574.933 32.8716L573.953 31.1284ZM568.465 36.6211C567.167 39.0004 566.543 41.8405 566.543 45.1H568.543C568.543 42.0928 569.119 39.5996 570.221 37.5788L568.465 36.6211ZM566.543 45.1C566.543 48.3595 567.167 51.1996 568.465 53.5788L570.221 52.6211C569.119 50.6004 568.543 48.1072 568.543 45.1H566.543ZM568.476 53.599C569.829 55.9487 571.657 57.7801 573.953 59.0716L574.933 57.3284C572.963 56.2199 571.39 54.6513 570.21 52.601L568.476 53.599ZM573.953 59.0716C576.249 60.3632 578.82 61 581.643 61V59C579.132 59 576.904 58.4368 574.933 57.3284L573.953 59.0716ZM581.643 61C584.27 61 586.703 60.3948 588.924 59.1768L587.962 57.4232C586.05 58.4719 583.95 59 581.643 59V61ZM588.933 59.1716C591.263 57.8611 593.152 55.8062 594.623 53.0741L592.862 52.1259C591.534 54.5938 589.89 56.3389 587.953 57.4284L588.933 59.1716ZM593.264 53.4779L605.364 60.0779L606.322 58.3221L594.222 51.7221L593.264 53.4779ZM604.935 58.7809C603.023 62.9226 600.069 66.1335 596.047 68.4318L597.039 70.1682C601.417 67.6665 604.662 64.1441 606.751 59.6191L604.935 58.7809ZM596.057 68.4258C592.031 70.663 587.27 71.8 581.743 71.8V73.8C587.549 73.8 592.655 72.6037 597.029 70.1742L596.057 68.4258ZM624.641 69.2L624.179 70.0866L624.184 70.0893L624.641 69.2ZM613.941 59.4L613.085 59.9165L613.089 59.9226L613.941 59.4ZM613.841 30.8L612.985 30.2835L612.983 30.2875L613.841 30.8ZM624.141 21L624.616 21.8805L624.626 21.8748L624.141 21ZM653.041 20.8L652.566 21.68L652.575 21.6845L652.583 21.6888L653.041 20.8ZM663.141 30.4L662.279 30.9064L662.283 30.9125L663.141 30.4ZM666.741 47.4L667.737 47.4905L667.738 47.483L666.741 47.4ZM666.541 49.5V50.5H667.446L667.536 49.5995L666.541 49.5ZM622.841 49.5H621.841V50.5H622.841V49.5ZM622.841 40.4V39.4H621.841V40.4H622.841ZM658.341 40.4L658.752 41.3119L658.341 39.4V40.4ZM652.341 43.1H651.341V44.6466L652.752 44.0119L652.341 43.1ZM650.641 35.8L649.765 36.2808L650.641 35.8ZM645.941 31L645.427 31.8575L645.438 31.8639L645.448 31.87L645.941 31ZM631.841 31L632.334 31.8701L632.344 31.8648L631.841 31ZM627.141 35.9L628.018 36.3809L628.025 36.3692L627.141 35.9ZM627.341 53.5L626.468 53.9878L626.477 54.0032L626.486 54.0183L627.341 53.5ZM632.841 58.6L632.384 59.4893L632.399 59.497L632.414 59.5042L632.841 58.6ZM648.741 59L648.375 58.0695L648.365 58.0735L648.741 59ZM654.741 55.1L655.477 54.4221L654.784 53.6709L654.048 54.3797L654.741 55.1ZM663.041 64.1L663.792 64.761L664.388 64.0847L663.777 63.4221L663.041 64.1ZM653.741 70.6L654.107 71.5308L654.114 71.5279L654.121 71.525L653.741 70.6ZM640.841 71.8C634.84 71.8 629.602 70.6266 625.099 68.3107L624.184 70.0893C629.014 72.5734 634.576 73.8 640.841 73.8V71.8ZM625.104 68.3134C620.653 65.9911 617.226 62.8455 614.794 58.8774L613.089 59.9226C615.723 64.2212 619.43 67.6089 624.179 70.0866L625.104 68.3134ZM614.798 58.8835C612.367 54.8529 611.141 50.2677 611.141 45.1H609.141C609.141 50.5989 610.45 55.5471 613.085 59.9165L614.798 58.8835ZM611.141 45.1C611.141 39.8579 612.337 35.2726 614.7 31.3125L612.983 30.2875C610.413 34.5941 609.141 39.5421 609.141 45.1H611.141ZM614.698 31.3165C617.138 27.2704 620.439 24.1292 624.615 21.8805L623.667 20.1195C619.177 22.5375 615.611 25.9296 612.985 30.2835L614.698 31.3165ZM624.626 21.8748C628.796 19.5652 633.526 18.4 638.841 18.4V16.4C633.223 16.4 628.153 17.6348 623.657 20.1252L624.626 21.8748ZM638.841 18.4C643.96 18.4 648.527 19.5 652.566 21.68L653.516 19.92C649.156 17.5666 644.256 16.4 638.841 16.4V18.4ZM652.583 21.6888C656.679 23.8008 659.907 26.867 662.279 30.9064L664.004 29.8936C661.443 25.533 657.937 22.1992 653.5 19.9112L652.583 21.6888ZM662.283 30.9125C664.64 34.8618 665.841 39.6434 665.841 45.3H667.841C667.841 39.3566 666.577 34.2048 664 29.8875L662.283 30.9125ZM665.841 45.3C665.841 45.8648 665.81 46.536 665.745 47.317L667.738 47.483C667.806 46.664 667.841 45.9352 667.841 45.3H665.841ZM665.746 47.3095C665.679 48.0401 665.613 48.7371 665.546 49.4005L667.536 49.5995C667.603 48.9296 667.67 48.2266 667.737 47.4905L665.746 47.3095ZM666.541 48.5H622.841V50.5H666.541V48.5ZM623.841 49.5V40.4H621.841V49.5H623.841ZM622.841 41.4H658.341V39.4H622.841V41.4ZM657.931 39.4881L651.931 42.1881L652.752 44.0119L658.752 41.3119L657.931 39.4881ZM653.341 43.1C653.341 40.1635 652.746 37.5586 651.518 35.3192L649.765 36.2808C650.803 38.1747 651.341 40.4365 651.341 43.1H653.341ZM651.518 35.3192C650.298 33.094 648.6 31.3573 646.434 30.13L645.448 31.87C647.283 32.9094 648.718 34.3727 649.765 36.2808L651.518 35.3192ZM646.456 30.1425C644.279 28.8365 641.763 28.2 638.941 28.2V30.2C641.453 30.2 643.604 30.7635 645.427 31.8575L646.456 30.1425ZM638.941 28.2C636.119 28.2 633.576 28.8367 631.339 30.1352L632.344 31.8648C634.241 30.7633 636.43 30.2 638.941 30.2V28.2ZM631.348 30.13C629.174 31.362 627.476 33.1385 626.258 35.4308L628.025 36.3692C629.073 34.3949 630.509 32.9047 632.334 31.87L631.348 30.13ZM626.265 35.4192C625.035 37.6619 624.441 40.3013 624.441 43.3H626.441C626.441 40.5653 626.981 38.2714 628.018 36.3808L626.265 35.4192ZM624.441 43.3V45.7H626.441V43.3H624.441ZM624.441 45.7C624.441 48.7816 625.108 51.5536 626.468 53.9878L628.214 53.0122C627.041 50.9131 626.441 48.4851 626.441 45.7H624.441ZM626.486 54.0183C627.917 56.3796 629.89 58.2065 632.384 59.4893L633.299 57.7107C631.126 56.5935 629.432 55.0204 628.197 52.9817L626.486 54.0183ZM632.414 59.5042C634.973 60.7123 637.924 61.3 641.241 61.3V59.3C638.159 59.3 635.51 58.7544 633.268 57.6957L632.414 59.5042ZM641.241 61.3C644.207 61.3 646.84 60.852 649.118 59.9265L648.365 58.0735C646.377 58.8813 644.01 59.3 641.241 59.3V61.3ZM649.108 59.9304C651.436 59.0131 653.546 57.6392 655.435 55.8203L654.048 54.3797C652.337 56.0275 650.446 57.2536 648.375 58.0696L649.108 59.9304ZM654.006 55.7779L662.306 64.7779L663.777 63.4221L655.477 54.4221L654.006 55.7779ZM662.291 63.439C659.934 66.1145 656.965 68.1952 653.362 69.675L654.121 71.525C657.985 69.9382 661.215 67.6855 663.792 64.761L662.291 63.439ZM653.376 69.6693C649.781 71.0815 645.609 71.8 640.841 71.8V73.8C645.807 73.8 650.235 73.0518 654.107 71.5308L653.376 69.6693Z" fill="#0D0D04" fill-opacity="0.06"/>
</svg>
