<svg width="502" height="507" viewBox="0 0 502 507" fill="none" xmlns="http://www.w3.org/2000/svg">
<g clip-path="url(#clip0_2162_10005)">
<path d="M66.9961 182.588H63.0298L14.0664 480.383H18.0326L66.9961 182.588Z" fill="#AFAFAF"/>
<path d="M91.0206 480.384H87.2677L67.1191 335.108H70.8695L91.0206 480.384Z" fill="#AFAFAF"/>
<path d="M160.945 480.384H157.192L137.041 335.108H140.794L160.945 480.384Z" fill="#AFAFAF"/>
<path d="M168.541 346.888H49.6559L20.4043 176.71H139.29L168.541 346.888Z" fill="#CCCCCC"/>
<path d="M167.53 341.012H48.6445L21.4141 182.588H140.299L167.53 341.012Z" fill="#E5E5E5"/>
<path d="M72.3267 328.377H66.9156L48.6562 222.136H54.0673L72.3267 328.377Z" fill="#AFAFAF"/>
<path d="M82.7592 328.377H77.3481L61.4883 236.103H66.8993L82.7592 328.377Z" fill="#AFAFAF"/>
<path d="M93.1947 328.377H87.7811L75.5371 257.137H80.9481L93.1947 328.377Z" fill="#AFAFAF"/>
<path d="M103.63 328.377H98.2162L87.582 266.501H92.9931L103.63 328.377Z" fill="#AFAFAF"/>
<path d="M114.062 328.377H108.648L90.3887 222.136H95.7997L114.062 328.377Z" fill="#AFAFAF"/>
<path d="M124.496 328.377H119.083L103.223 236.103H108.634L124.496 328.377Z" fill="#AFAFAF"/>
<path d="M134.929 328.377H129.516L117.271 257.137H122.683L134.929 328.377Z" fill="#AFAFAF"/>
<path d="M145.364 328.377H139.951L129.316 266.501H134.727L145.364 328.377Z" fill="#AFAFAF"/>
<path d="M37.8398 193.38L61.071 328.372C60.8983 328.334 150.893 328.377 150.852 328.377C150.842 328.359 61.005 328.448 61.0151 328.382L37.8398 193.38Z" fill="#002A5D"/>
<path d="M122.319 194.312H47.7047L47.0293 190.386H121.644L122.319 194.312Z" fill="#AFAFAF"/>
<path d="M112.898 200.213H59.151L58.666 197.387H112.413L112.898 200.213Z" fill="#AFAFAF"/>
<path d="M168.541 346.888H49.6559L20.4043 176.71" stroke="#C2BFD5" stroke-width="0.25392" stroke-miterlimit="10"/>
<path d="M453.983 372.364C431.6 370.485 444.6 344.808 448.447 340.961C452.294 337.114 444.458 315.767 460.209 311.715C475.96 307.662 473.398 271.519 490.248 276.737C509.274 282.628 483.001 308.218 486.396 315.516C492.812 329.309 473.72 328.842 478.527 346.654C484.017 367.001 478.527 374.425 453.983 372.364Z" fill="#E5E5E5"/>
<path d="M489.512 283.784C487.973 285.805 486.658 288.141 485.36 290.33C466.484 324.281 456.535 362.606 451.559 400.94C456.474 362.59 466.408 324.251 485.353 290.325C486.653 288.138 487.971 285.802 489.512 283.784Z" fill="#002A5D"/>
<path d="M455.686 318.708C459.372 323.527 463.021 328.372 466.637 333.245C462.95 328.425 459.301 323.58 455.686 318.708Z" fill="#002A5D"/>
<path d="M472.326 318.708C475.678 317.177 479.05 315.689 482.44 314.239C479.088 315.77 475.716 317.258 472.326 318.708Z" fill="#002A5D"/>
<path d="M477.383 289.411C478.894 291.871 480.366 294.354 481.798 296.861C480.288 294.4 478.817 291.917 477.383 289.411Z" fill="#002A5D"/>
<path d="M459.615 357.37C464.889 355.666 470.176 354.003 475.478 352.385C470.204 354.089 464.915 355.752 459.615 357.37Z" fill="#002A5D"/>
<path d="M469.78 374.233C467.86 375.048 465.966 376.035 464.379 377.447C462.53 378.981 460.898 380.794 459.595 382.818C458.287 384.836 457.213 387 456.441 389.265C455.664 391.522 455.144 393.873 455.007 396.242C455.598 393.949 456.403 391.743 457.305 389.597C458.232 387.459 459.318 385.402 460.588 383.473C464.77 377.112 489.994 380.512 491.079 374.273C491.49 371.907 480.993 368.791 469.777 374.233H469.78ZM460.004 371.869C458.425 374.243 457.183 376.835 456.251 379.524C455.367 382.228 454.717 385.006 454.38 387.82C454.039 390.628 453.89 393.467 454.159 396.275C454.278 394.871 454.397 393.477 454.616 392.093C454.786 390.707 455.007 389.328 455.281 387.962C455.827 385.23 456.226 382.427 457.378 379.908C461.972 369.868 486.17 370.84 486.229 362.847C486.252 359.784 475.097 357.619 464.79 366.661C462.97 368.151 461.337 369.896 460.004 371.866V371.869ZM453.146 394.389C452.711 391.177 452.176 387.972 452.041 384.74C451.485 371.422 473.236 353.711 466.923 346.733C464.557 344.118 453.524 350.839 451.561 366.3C451.023 369.182 450.685 372.11 450.589 375.048C450.469 378.316 450.558 381.591 450.855 384.846C451.162 388.099 451.594 391.342 452.247 394.541C452.892 397.74 453.658 399.901 454.725 402.986C454.438 401.382 454.128 400.805 453.892 399.195C453.615 397.596 453.369 395.993 453.146 394.389ZM449.139 384.532C448.26 381.383 447.176 378.29 445.904 375.279C444.771 372.567 443.413 369.949 441.887 367.448C434.554 353.695 421.852 351.337 420.57 354.622C417.15 363.39 444.959 373.143 447.994 384.854C448.806 387.985 449.654 391.108 450.391 394.264C450.754 395.844 451.094 397.431 451.404 399.023C451.754 400.61 452.033 402.209 452.336 403.812C452.234 400.549 451.823 397.306 451.287 394.087C450.759 390.864 450.01 387.68 449.139 384.529V384.532ZM472.157 383.005C470.341 383.31 468.541 383.892 466.908 384.811C465.143 385.811 463.526 387.063 462.084 388.485C459.263 391.375 456.982 394.798 455.639 398.568C456.711 396.885 457.876 395.29 459.067 393.731C460.278 392.187 461.591 390.745 462.924 389.326C467.439 384.524 483.903 392.428 486.422 387.419C487.377 385.522 481.234 380.807 472.157 383.003V383.005Z" fill="#232323"/>
<path d="M462.973 479.752H442.949L435.699 395.15H470.225L462.973 479.752Z" fill="#E1E5F2"/>
<path d="M212.847 132.737H185.576V58.3078C187.798 52.3407 193.58 48.4684 199.803 48.7198C205.616 48.9559 210.785 52.747 212.847 58.3078V132.737Z" fill="#AFAFAF"/>
<path d="M212.847 58.3076H185.576V132.737H212.847V58.3076Z" fill="#E5E5E5"/>
<path d="M199.805 48.7196V0" stroke="#E4E1F5" stroke-width="0.360567" stroke-miterlimit="10"/>
<path d="M288.376 132.737H261.105V58.3078C263.327 52.3407 269.109 48.4684 275.333 48.7198C281.145 48.9559 286.315 52.747 288.376 58.3078V132.737Z" fill="#AFAFAF"/>
<path d="M288.376 58.3076H261.105V132.737H288.376V58.3076Z" fill="#E5E5E5"/>
<path d="M275.334 48.7196V0" stroke="#E4E1F5" stroke-width="0.360567" stroke-miterlimit="10"/>
<path d="M363.91 132.737H336.639V58.3078C338.86 52.3407 344.642 48.4684 350.866 48.7198C356.678 48.9559 361.848 52.747 363.91 58.3078V132.737Z" fill="#AFAFAF"/>
<path d="M363.91 58.3076H336.639V132.737H363.91V58.3076Z" fill="#E5E5E5"/>
<path d="M350.867 48.7196V0" stroke="#E4E1F5" stroke-width="0.360567" stroke-miterlimit="10"/>
<path d="M142.365 364.878L125.969 481.217H123.133L135.308 364.878H142.365Z" fill="#AFAFAF"/>
<path d="M260.355 410.487H274.521C281.819 410.487 287.756 403.268 287.756 394.394V369.522C287.756 367.46 286.085 365.79 284.023 365.79C281.961 365.79 280.29 367.46 280.29 369.522V394.394C280.29 399.071 277.65 403.019 274.524 403.019H260.358C258.296 403.019 256.625 404.69 256.625 406.752C256.625 408.814 258.296 410.485 260.358 410.485L260.355 410.487Z" fill="#232323"/>
<path d="M253.917 334.73C257.871 316.216 267.197 319.279 276.552 319.19C285.906 319.279 295.233 316.214 299.186 334.73C303.455 353.075 294.187 387.896 276.552 387.972C258.917 387.896 249.649 353.078 253.917 334.73Z" fill="#232323"/>
<path d="M250.193 334.73C254.146 316.216 263.473 319.279 272.827 319.19C282.182 319.279 291.508 316.214 295.462 334.73C299.73 353.075 290.462 387.896 272.827 387.972C255.192 387.896 245.924 353.078 250.193 334.73Z" fill="#AFAFAF"/>
<path d="M268.874 319.19C273.739 319.276 279.008 318.238 283.492 320.637C289.403 323.855 291.351 332.569 292.227 338.76C294.055 353.078 288.626 379.702 274.62 386.644C272.83 387.492 270.857 387.964 268.874 387.972C270.857 387.962 272.827 387.487 274.615 386.636C288.616 379.654 293.951 353.116 292.171 338.767C291.305 332.582 289.378 323.88 283.479 320.658C279 318.253 273.736 319.287 268.871 319.193L268.874 319.19Z" fill="#002A5D"/>
<path d="M221.515 412.361H279.738C280.247 412.361 280.66 411.948 280.66 411.439V400.78C280.66 400.27 280.247 399.858 279.738 399.858H221.515C221.006 399.858 220.593 400.27 220.593 400.78V411.439C220.593 411.948 221.006 412.361 221.515 412.361Z" fill="#AFAFAF"/>
<path d="M279.816 413.605H221.445C220.978 413.605 220.597 413.224 220.597 412.757V408.064H280.664V412.757C280.664 413.224 280.283 413.605 279.816 413.605Z" fill="#232323"/>
<path d="M244.525 423.048H256.736V410.837H244.525V423.048Z" fill="#232323"/>
<path d="M247.299 459.042H253.959V419.448H247.299V459.042Z" fill="#232323"/>
<path d="M249.535 456.413V462.119C253.517 462.713 259.159 464.018 265.329 467.086C270.58 469.696 274.529 472.751 277.263 475.221C277.629 475.432 278.142 475.678 278.789 475.851C279.32 475.993 279.871 476.067 280.427 476.067H282.027C282.611 476.067 282.885 475.346 282.448 474.96C279.378 471.263 274.973 466.682 268.973 462.322C263.343 458.229 257.983 455.545 253.715 453.78C252.321 454.659 250.929 455.537 249.535 456.413Z" fill="#232323"/>
<path d="M278.346 478.994C278.346 480.221 279.341 481.216 280.568 481.216C281.794 481.216 282.789 480.221 282.789 478.994C282.789 477.768 281.794 476.773 280.568 476.773C279.341 476.773 278.346 477.768 278.346 478.994Z" fill="#232323"/>
<path d="M279.834 477.692H281.297V474.906H279.834V477.692Z" fill="#232323"/>
<path d="M251.727 456.413V462.119C247.746 462.713 242.104 464.018 235.934 467.086C230.683 469.696 226.734 472.751 223.999 475.221C223.634 475.432 223.121 475.678 222.473 475.851C221.943 475.993 221.392 476.067 220.835 476.067H219.236C218.652 476.067 218.378 475.346 218.814 474.96C221.884 471.263 226.29 466.682 232.29 462.322C237.919 458.229 243.279 455.545 247.548 453.78C248.942 454.659 250.333 455.537 251.727 456.413Z" fill="#232323"/>
<path d="M222.918 478.995C222.918 480.221 221.923 481.216 220.696 481.216C219.47 481.216 218.475 480.221 218.475 478.995C218.475 477.768 219.47 476.773 220.696 476.773C221.923 476.773 222.918 477.768 222.918 478.995Z" fill="#232323"/>
<path d="M221.427 474.906H219.965V477.692H221.427V474.906Z" fill="#232323"/>
<path d="M245.312 456.413V462.119C247.646 462.713 250.952 464.018 254.568 467.086C257.645 469.699 259.959 472.751 261.561 475.221C261.774 475.432 262.076 475.678 262.455 475.851C262.767 475.993 263.089 476.067 263.414 476.067H264.351C264.694 476.067 264.854 475.346 264.598 474.96C262.8 471.263 260.218 466.682 256.701 462.322C253.402 458.229 250.261 455.545 247.76 453.78C246.945 454.659 246.128 455.537 245.312 456.413Z" fill="#232323"/>
<path d="M260.41 478.995C260.41 480.221 261.406 481.216 262.632 481.216C263.858 481.216 264.854 480.221 264.854 478.995C264.854 477.768 263.858 476.773 262.632 476.773C261.406 476.773 260.41 477.768 260.41 478.995Z" fill="#232323"/>
<path d="M261.901 477.692H263.363V474.906H261.901V477.692Z" fill="#232323"/>
<path d="M244.112 462.119H257.15V453.778H244.112V462.119Z" fill="#232323"/>
<path d="M261.496 272.179C266.427 277.11 266.508 281.064 264.649 282.923C262.791 284.781 270.048 291.708 268.093 295.283C266.135 298.859 263.794 304.864 268.093 309.16C272.392 313.459 271.97 322.303 267.392 325.967C262.814 329.631 238.265 349.082 224.987 338.623C211.71 328.164 226.889 315.963 228.423 314.427C229.956 312.893 261.498 272.177 261.498 272.177L261.496 272.179Z" fill="#AFAFAF"/>
<path d="M304.592 286.584L304.472 273.82L295.021 278.479L295.468 285.586L304.592 286.584Z" fill="#FFCEB4"/>
<path d="M302.524 280.295C305.561 279.294 310.706 269.851 309.449 269.076C308.121 268.259 305.729 272.941 305.729 272.941C305.729 272.941 309.733 266.844 307.806 266.334C306.074 265.874 303.667 271.915 303.667 271.915C303.667 271.915 306.63 265.212 304.703 264.701C302.776 264.191 301.285 272.192 301.285 272.192C301.285 272.192 303.413 264.366 301.763 263.924C299.807 263.401 297.743 272.36 297.743 272.36C297.743 272.36 298.502 268.117 296.796 267.969C295.196 267.83 293.749 276.458 295.255 278.982" fill="#FFCEB4"/>
<path d="M302.121 268.754C301.829 269.711 301.491 270.653 301.105 271.577C301.397 270.62 301.738 269.678 302.121 268.754Z" fill="#002A5D"/>
<path d="M304.668 269.28C304.396 270.232 304.076 271.169 303.713 272.09C303.985 271.138 304.305 270.201 304.668 269.28Z" fill="#002A5D"/>
<path d="M307.175 270.5C306.746 271.379 306.277 272.235 305.764 273.068C306.19 272.189 306.663 271.333 307.175 270.5Z" fill="#002A5D"/>
<path d="M194.817 356.024L183.795 357.047C183.795 357.047 176.789 357.748 175.123 359.975C173.455 362.202 174.041 363.471 179.602 363.352C185.163 363.232 203.864 362.948 203.864 362.948" fill="#F1BBA1"/>
<path d="M233.293 317.359L221.701 346.375L189.393 351.359L191.096 363.045C191.096 363.045 222.415 363.56 230.33 359.49C238.244 355.417 243.935 333.069 243.935 333.069L233.29 317.359H233.293Z" fill="#E0D558"/>
<path d="M222.643 329.682C225.726 329.718 228.966 329.677 231.909 330.688C232.577 330.959 233.153 331.414 233.747 331.813C235.321 332.915 236.832 334.103 238.343 335.286L242.995 338.689C242.995 338.689 241.781 345.481 241.784 345.489C239.158 342.231 234.138 336.957 229.496 338.823C228.6 339.207 227.648 339.623 226.675 339.77C225.698 339.938 224.669 339.897 223.73 339.552C222.849 339.191 221.866 338.503 221.475 337.696C221.46 337.681 218.611 341.652 218.613 341.535C221.45 342.312 224.197 343.691 226.234 345.844C229.639 349.396 232.866 353.114 236.114 356.808C236.162 356.852 230.819 362.735 230.819 362.768C229.626 361.249 228.631 359.421 227.81 357.631C227.308 356.501 226.947 355.293 226.909 354.048C226.523 351.913 222.961 349.658 221.219 348.48C219.581 347.418 217.773 346.4 216.097 345.522H212.801L212.824 345.461C214.096 346.674 215.31 347.952 216.425 349.315C217.245 350.344 218.057 351.41 218.565 352.637C218.839 353.248 218.895 353.947 218.664 354.579C218.535 355.221 218.55 355.887 218.583 356.539C218.773 359.167 219.375 361.75 220.041 364.294C220.046 364.312 220.033 364.332 220.013 364.332C219.982 364.307 211.516 364.957 211.516 364.878C211.509 364.881 213.192 359.802 213.19 359.802L213.609 358.535C213.746 358.116 213.918 357.7 213.885 357.25C213.847 356.364 213.535 355.511 213.21 354.693C212.535 353.05 211.664 351.494 210.755 349.968C209.841 348.444 208.868 346.954 207.85 345.499C207.964 345.484 203.856 347.297 203.873 347.294C204.488 348.03 205.092 349.127 205.623 350.036C206.255 351.23 206.923 352.482 207.04 353.853C207.052 354.124 207.04 354.406 206.933 354.665C206.842 354.934 206.601 355.105 206.474 355.341C206.342 355.574 206.253 355.836 206.202 356.103C205.867 358.261 206.413 360.465 206.959 362.547C207.218 363.347 207.411 364.215 207.908 364.903C207.931 364.936 207.926 364.985 207.903 365.015C207.758 365.173 207.532 365.198 207.337 365.256C206.804 365.376 206.26 365.439 205.717 365.498C204.087 365.663 202.451 365.744 200.816 365.805C201.834 363.634 202.469 361.166 202.421 358.728C202.401 357.933 202.182 357.1 201.954 356.346C200.903 353.269 199.227 350.44 197.437 347.738C197.462 347.741 193.864 348.548 193.866 348.548C194.9 349.622 195.842 350.902 196.563 352.235C197.17 353.403 197.673 354.757 197.35 356.082L197.236 356.643C196.83 359.678 197.119 362.76 197.442 365.79C197.117 362.76 196.827 359.678 197.231 356.643L197.345 356.082C197.668 354.757 197.162 353.406 196.555 352.24C195.837 350.89 194.885 349.663 193.861 348.541C193.871 348.541 197.439 347.723 197.447 347.733C199.239 350.435 200.918 353.264 201.972 356.344C202.2 357.098 202.418 357.936 202.441 358.731C202.464 361.133 201.911 363.707 200.816 365.782C202.451 365.721 204.087 365.637 205.714 365.472C206.385 365.388 207.08 365.343 207.718 365.112C207.779 365.084 207.842 365.053 207.878 365.002C207.918 364.947 207.862 364.898 207.819 364.842C207.654 364.619 207.555 364.363 207.449 364.111C206.664 362.004 205.417 357.377 206.443 355.326C206.578 355.082 206.814 354.914 206.9 354.655C207.093 354.145 206.999 353.573 206.875 353.055C206.303 350.94 205.001 349.064 203.858 347.261C203.884 347.269 207.865 345.433 207.888 345.478C209.825 348.335 213.662 353.916 213.941 357.253C213.977 357.705 213.799 358.134 213.665 358.555L213.248 359.822L211.58 364.888C211.392 364.82 220.056 364.289 220.018 364.276L219.99 364.314C219.533 362.616 219.139 360.902 218.845 359.167C218.578 357.446 218.278 355.638 218.753 353.931C218.817 351.43 214.558 347.274 212.786 345.517C212.763 345.496 212.778 345.456 212.809 345.456H216.105C218.743 346.822 221.32 348.335 223.694 350.128C224.479 350.732 225.241 351.372 225.904 352.111C226.231 352.484 226.538 352.88 226.757 353.33C226.995 353.774 227.003 354.295 227.033 354.785C227.445 357.702 229.329 360.404 230.789 362.735C230.776 362.758 236.139 356.707 236.086 356.844C233.498 353.881 230.896 350.925 228.237 348.025C226.891 346.601 225.622 345.062 223.971 343.975C222.336 342.889 220.51 342.081 218.616 341.571C218.547 341.543 221.47 337.709 221.46 337.678C221.468 337.668 221.483 337.67 221.488 337.678C221.742 338.102 222.087 338.47 222.468 338.785C224.042 340.093 226.282 340.04 228.12 339.369C228.587 339.202 229.034 338.986 229.499 338.803C230.413 338.402 231.449 338.32 232.429 338.478C236.233 339.199 239.468 342.561 241.794 345.486C241.768 345.532 242.992 338.668 242.997 338.704L238.348 335.299C236.837 334.113 235.326 332.925 233.752 331.823C233.158 331.421 232.582 330.967 231.914 330.695C228.978 329.682 225.726 329.72 222.651 329.682H222.643Z" fill="white"/>
<path d="M257.177 471.971L258.096 478.977H230.568C230.568 478.977 232.483 475.965 240.062 474.635L240.357 472.182L257.174 471.971H257.177Z" fill="#FF9300"/>
<path d="M230.569 481.216H258.244V478.974H230.569V481.216Z" fill="#E0D558"/>
<path d="M257.692 475.661C256.329 475.942 254.864 476.773 254.612 478.253C254.599 478.35 254.577 478.598 254.566 478.695C254.47 476.976 256.146 475.848 257.692 475.661Z" fill="#002A5D"/>
<path d="M242.644 471.689C242.667 473.185 242.667 474.678 242.675 476.174C242.675 476.191 242.659 476.204 242.644 476.204C242.047 476.199 241.451 476.224 240.854 476.252C239.069 476.354 237.269 476.572 235.58 477.179C237.822 476.328 240.265 476.146 242.647 476.143L242.616 476.174C242.624 474.678 242.624 473.185 242.647 471.689H242.644Z" fill="#002A5D"/>
<path d="M234.762 475.953C235.488 476.681 235.991 477.667 236.092 478.695C235.894 477.684 235.414 476.745 234.762 475.953Z" fill="#002A5D"/>
<path d="M204.191 471.971L204.406 478.977H176.879C176.879 478.977 179.096 475.965 186.81 474.635L187.351 472.182L204.191 471.971Z" fill="#FF9300"/>
<path d="M176.65 481.216H204.325L204.551 478.974H176.876L176.65 481.216Z" fill="#E0D558"/>
<path d="M204.329 475.661C202.913 475.955 201.412 476.765 200.99 478.243C200.968 478.342 200.919 478.593 200.896 478.695C200.996 476.943 202.732 475.869 204.329 475.661Z" fill="#002A5D"/>
<path d="M189.683 471.689C189.556 473.185 189.403 474.681 189.261 476.176C189.261 476.191 189.246 476.204 189.231 476.204C188.626 476.199 188.019 476.224 187.415 476.255C185.605 476.356 183.784 476.585 182.062 477.179C184.345 476.341 186.816 476.143 189.231 476.143C189.287 474.833 189.543 473.129 189.683 471.689Z" fill="#002A5D"/>
<path d="M181.371 475.953C182.034 476.697 182.43 477.697 182.425 478.695C182.331 477.705 181.955 476.755 181.371 475.953Z" fill="#002A5D"/>
<path d="M194.92 390.432L184.08 472.58H205.199L217.925 401.105H224.654C236.06 401.105 246.24 391.857 247.387 380.451L247.832 376.04H210.252C202.383 376.04 195.428 382.568 194.92 390.432Z" fill="black"/>
<path d="M184.707 462.853C191.863 462.807 199.021 462.807 206.176 462.853C199.021 462.899 191.863 462.899 184.707 462.853Z" fill="#002A5D"/>
<path d="M199.914 462.853C199.914 462.853 211.376 403.639 211.373 403.651C211.767 399.665 214.481 396.085 218.102 394.431C219.913 393.561 221.934 393.35 223.917 393.423L229.869 393.429C233.863 393.469 237.685 391.095 239.645 387.649C240.681 385.928 241.047 383.937 241.181 381.961L241.78 376.04L241.189 381.964C241.057 383.942 240.694 385.935 239.66 387.659C237.702 391.115 233.876 393.497 229.872 393.462L223.92 393.467C221.937 393.395 219.931 393.606 218.125 394.477C214.525 396.125 211.828 399.695 211.439 403.661C211.439 403.667 199.919 462.853 199.917 462.858L199.914 462.853Z" fill="#002A5D"/>
<path d="M225.869 390.432L237.128 472.58H258.246L249.948 401.105H256.677C268.083 401.105 277.331 391.857 277.331 380.451V376.04H239.751C231.882 376.04 225.585 382.568 225.867 390.432H225.869Z" fill="#232323"/>
<path d="M239.751 376.04C232.704 375.987 226.491 381.672 225.945 388.698C225.815 389.889 225.95 391.598 225.975 392.809L226.247 401.039C226.168 398.746 225.864 391.9 225.828 389.724C225.854 382.231 232.255 375.939 239.748 376.043L239.751 376.04Z" fill="#002A5D"/>
<path d="M236.777 462.853C243.933 462.807 251.091 462.807 258.246 462.853C251.091 462.899 243.933 462.899 236.777 462.853Z" fill="#002A5D"/>
<path d="M251.981 462.853C251.981 462.853 243.652 403.656 243.652 403.654C243.652 401.709 244.219 399.769 245.272 398.136C246.839 395.673 249.498 393.946 252.39 393.533C254.322 393.296 259.096 393.479 261.107 393.429C265.007 393.502 268.783 391.095 270.367 387.532C271.226 385.765 271.33 383.782 271.276 381.852L271.281 376.04L271.286 381.852C271.342 383.782 271.243 385.768 270.385 387.538C268.803 391.113 265.02 393.53 261.109 393.459C259.078 393.512 254.353 393.337 252.4 393.576C249.523 393.992 246.88 395.714 245.323 398.167C244.277 399.792 243.718 401.722 243.721 403.654C243.721 403.634 251.986 462.855 251.986 462.853H251.981Z" fill="#002A5D"/>
<path d="M234.346 376.04C237.769 367.981 238.018 361.612 237.553 357.181C237.251 354.307 234.102 347.307 232.747 339.671C231.957 335.225 236.72 329.733 236.789 325.546C236.929 317.28 234.006 311.697 240.58 312.451H257.364C265.36 312.451 272.155 318.301 273.341 326.211L280.814 376.038H234.346V376.04Z" fill="#E0D558"/>
<path d="M261.108 312.89C259.206 317.499 253.995 318.38 249.597 317.316C248.135 316.993 246.715 316.511 245.334 315.94C246.725 316.486 248.15 316.95 249.607 317.27C254.005 318.291 259.142 317.451 261.108 312.893V312.89Z" fill="#002A5D"/>
<path d="M283.41 366.854C278.997 367.128 274.579 367.298 270.158 367.306C266.85 367.275 263.508 367.273 260.245 366.668C259.453 366.485 258.58 366.315 257.975 365.734C256.848 364.771 255.253 365.498 254.067 365.98C251.061 367.311 248.232 369.317 244.891 369.682C243.773 369.827 242.697 369.497 241.62 369.263C240.536 369.053 239.434 368.933 238.329 368.895C236.125 368.809 233.866 369.058 231.74 369.517C231.748 369.512 234.132 364.87 234.145 364.87C237.796 363.873 241.351 362.169 244.063 359.485C247.646 356.45 261.22 364.187 267.909 362.275C268.96 362.011 269.95 361.481 270.702 360.696C271.867 359.558 273.269 358.624 274.848 358.18C277.433 357.428 280.551 358.116 282.58 359.701L280.691 351.047C276.372 351.281 271.623 352.517 268.246 355.498C265.809 358.21 261.893 358.454 258.475 358.281C253.496 357.931 248.537 356.801 243.913 354.917C241.067 353.718 237.997 356.209 236.125 358.162C236.11 358.18 236.077 358.172 236.072 358.149C236.092 358.109 233.888 351.032 233.977 351.012C237.601 349.958 241.346 349.066 245.142 349.097C247.077 349.059 248.814 349.917 250.695 350.222C256.259 351.248 262.213 350.549 267.215 347.838C269.681 346.451 271.969 344.658 274.719 343.843C275.547 343.635 276.859 343.308 277.367 344.212L277.306 344.227L276.529 340.222C274.714 339.735 272.593 339.146 270.638 338.76C267.675 338.209 262.924 337.214 260.136 338.488C259.671 338.699 259.369 339.138 258.922 339.4C258.056 339.951 257.074 340.271 256.091 340.52C252.138 341.418 247.925 341.441 243.997 340.408C242.55 339.984 241.049 339.374 240.064 338.181C239.744 337.782 239.538 337.31 239.2 336.927C237.883 335.281 235.567 335.032 233.622 335.454C232.616 335.634 231.634 336.03 230.714 336.411C230.702 336.396 233.086 328.677 233.083 328.661C233.995 328.915 234.952 329.23 235.912 329.38C237.07 329.553 238.383 329.756 239.452 329.162C239.66 329.045 239.81 328.842 240.018 328.71C240.422 328.435 240.881 328.263 241.341 328.113C244.137 327.298 247.1 327.285 249.987 327.384C252.889 327.516 255.776 327.902 258.623 328.471C261.441 329.2 264.483 329.111 267.091 327.727C270.542 325.939 273.056 322.687 274.65 319.2C274.668 319.238 269.605 311.476 269.61 311.481C268.993 313.345 268.094 315.247 267.137 317.009C265.651 319.564 263.856 322.379 260.951 323.436C259.984 323.776 258.943 323.685 257.945 323.555C250.043 322.242 242.126 319.084 234.015 320.544C232.032 320.925 230.095 321.663 228.457 322.859C230.095 321.663 232.032 320.922 234.015 320.541C242.126 319.079 250.043 322.232 257.947 323.545C258.943 323.674 259.984 323.763 260.949 323.426C263.851 322.367 265.639 319.558 267.124 317.004C268.114 315.242 268.919 313.337 269.628 311.474C269.63 311.479 274.681 319.203 274.673 319.211C272.7 323.53 269.196 327.671 264.377 328.725C262.955 329.027 261.474 329.032 260.042 328.786C258.618 328.504 257.198 328.204 255.761 327.996C253.849 327.707 251.922 327.504 249.987 327.417C247.102 327.318 244.144 327.336 241.354 328.149C240.897 328.296 240.44 328.471 240.041 328.74C239.838 328.867 239.69 329.07 239.475 329.192C237.745 330.111 234.879 329.24 233.099 328.684C233.172 328.58 230.742 336.429 230.758 336.406L230.727 336.381C231.646 335.939 232.619 335.611 233.617 335.411C235.574 334.987 237.91 335.241 239.238 336.896C239.576 337.28 239.784 337.754 240.102 338.15C240.417 338.547 240.813 338.872 241.232 339.153C245.091 341.535 251.754 341.487 256.081 340.466C257.061 340.215 258.041 339.895 258.894 339.351C259.334 339.087 259.643 338.656 260.111 338.437C262.911 337.153 267.67 338.148 270.651 338.699C272.642 339.131 274.658 339.588 276.588 340.207L277.365 344.209C277.367 344.227 277.357 344.242 277.339 344.245C277.324 344.247 277.309 344.237 277.304 344.224C277.222 344.019 277.014 343.871 276.803 343.788C276.131 343.554 275.399 343.716 274.731 343.899C272.921 344.448 271.268 345.418 269.668 346.41C265.768 349.122 261.086 350.631 256.337 350.727C253.499 350.796 250.632 350.461 247.923 349.595C246.117 349.008 244.172 349.115 242.308 349.3C239.536 349.569 236.56 350.364 234.015 351.032L236.128 358.131L236.075 358.119C237.966 356.148 241.054 353.647 243.933 354.861C249.446 357.121 258.61 359.279 264.42 357.745C265.377 357.476 266.311 357.075 267.101 356.466C267.863 355.826 268.551 355.082 269.389 354.528C272.68 352.228 276.732 351.187 280.711 351.019C280.762 351.012 282.598 359.673 282.621 359.691C282.626 359.708 282.603 359.724 282.588 359.711C279.944 357.824 276.28 357.266 273.348 358.807C272.383 359.305 271.507 359.965 270.73 360.721C267.619 363.852 262.058 362.359 258.26 361.453C255.101 360.65 252.006 359.576 248.793 358.997C247.245 358.779 245.406 358.472 244.081 359.505C243.685 359.876 243.296 360.259 242.872 360.6C240.346 362.649 237.258 364.06 234.16 364.886L231.761 369.525C233.835 368.979 236.148 368.821 238.335 368.877C239.439 368.918 240.541 369.035 241.628 369.248C242.704 369.482 243.779 369.814 244.896 369.667C248.235 369.301 251.061 367.298 254.067 365.97C255.258 365.49 256.855 364.759 257.988 365.726C258.592 366.31 259.463 366.475 260.255 366.661C263.518 367.267 266.86 367.273 270.166 367.303C274.587 367.298 279.007 367.128 283.418 366.856L283.41 366.854Z" fill="white"/>
<path d="M187.213 360.861C185.684 360.914 184.153 360.988 182.645 361.247C182.043 361.379 181.362 361.46 180.887 361.874C180.799 361.96 180.76 362.072 180.776 362.197C180.75 363.499 183.152 363.172 184.036 363.23L185.567 363.22C184.546 363.25 183.528 363.301 182.505 363.253C181.802 363.225 180.7 363.126 180.71 362.199C180.689 362.07 180.738 361.917 180.834 361.826C181.319 361.387 182.022 361.315 182.632 361.186C184.145 360.94 185.681 360.869 187.21 360.858L187.213 360.861Z" fill="#002A5D"/>
<path d="M183.797 359.365C181.768 359.779 178.3 360.473 177.073 362.242C176.883 362.539 176.781 362.897 176.814 363.256C176.769 362.9 176.86 362.532 177.043 362.225C178.282 360.396 181.718 359.708 183.797 359.365Z" fill="#002A5D"/>
<path d="M182.36 358.916C180.331 359.33 176.862 360.023 175.636 361.793C175.445 362.09 175.344 362.448 175.377 362.806C175.331 362.45 175.423 362.082 175.605 361.775C176.845 359.947 180.28 359.259 182.36 358.916Z" fill="#002A5D"/>
<path d="M179.421 358.883C178.232 359.287 174.698 360.234 174.34 361.46C174.67 360.147 178.187 359.208 179.421 358.883Z" fill="#002A5D"/>
<path d="M237.553 317.359C238.033 320.772 237.462 324.256 236.578 327.557C235.73 330.891 233.953 333.928 233.374 337.338C232.937 339.841 232.813 342.556 233.866 344.925C235.212 347.132 236.068 349.595 236.644 352.108C237.038 353.782 237.345 355.475 237.553 357.182C237.337 355.478 237.025 353.784 236.626 352.113C236.042 349.597 235.177 347.149 233.826 344.945C232.759 342.569 232.879 339.841 233.31 337.328C233.876 333.91 235.677 330.883 236.538 327.547C237.434 324.251 238.018 320.772 237.553 317.359Z" fill="#002A5D"/>
<path d="M192.445 351.037C192.778 355.061 193.255 359.073 193.862 363.065C193.166 359.086 192.689 355.066 192.445 351.037Z" fill="#002A5D"/>
<path d="M261.107 312.89L292.482 315.937L293.624 283.773L307.565 283.959C307.565 283.959 311.366 324.964 303.868 329.758C296.367 334.552 274.067 335.035 274.067 335.035C271.615 332.754 268.362 329.217 265.561 324.233C263.134 319.911 261.834 315.904 261.107 312.893V312.89Z" fill="#E0D558"/>
<path d="M293.643 286.846C298.383 286.546 303.147 286.432 307.893 286.706C303.144 286.523 298.388 286.635 293.643 286.846Z" fill="white"/>
<path d="M274.661 335.004C271.101 334.451 268.082 331.757 266.886 328.395C266.81 328.166 266.62 327.58 266.541 327.346C266.625 327.585 266.831 328.158 266.909 328.387C268.153 331.716 271.132 334.367 274.659 335.004H274.661Z" fill="#002A5D"/>
<path d="M307.893 288.164C303.566 289.212 297.822 289.984 293.643 288.164C297.883 289.898 303.512 289.126 307.893 288.164Z" fill="#002A5D"/>
<path d="M292.481 315.94C292.549 317.511 292.57 319.086 292.542 320.66C292.473 319.088 292.453 317.514 292.481 315.94Z" fill="white"/>
<path d="M309.378 293.414C306.966 293.285 304.442 293.374 302.187 294.321C301.816 294.486 301.458 294.684 301.13 294.923C300.793 295.151 300.544 295.489 300.186 295.69C297.685 297.051 293.279 295.141 290.887 293.998C290.908 293.958 292.479 301.398 292.49 301.393C294.483 301.4 296.618 301.796 298.441 302.713C299.043 303.041 299.612 303.429 300.107 303.904C300.356 304.137 300.628 304.346 300.94 304.485C301.897 304.897 302.971 304.742 303.959 304.528C306.173 304.097 309.53 302.35 311.102 304.805C312.661 307.537 311.013 314.444 310.063 317.374C308.035 315.384 303.317 311.275 300.63 314.066C297.984 316.351 292.835 312.494 290.91 310.681L288.681 312.913C289.158 314.779 290.103 316.836 291.537 318.281C292.253 319.017 293.114 319.616 294.061 320.01C296.034 320.744 297.36 322.516 298.462 324.225C300.064 326.863 301.387 329.781 302.265 332.706L295.186 335.339C295.166 335.347 295.143 335.334 295.138 335.311C294.701 333.437 293.655 331.744 292.454 330.258C291.855 329.499 291.113 328.869 290.542 328.085C289.981 327.295 289.539 326.429 289.158 325.54C287.701 322.011 286.837 318.029 286.327 314.363L282.424 312.921C281.426 314.756 281.231 317.306 282.018 319.37C282.13 319.789 282.432 320.335 282.587 320.744C283.056 321.899 283.224 323.154 283.323 324.388C283.572 328.359 283.105 332.34 282.455 336.253C282.455 336.296 278.064 336.477 278.047 336.494C277.572 333.445 276.942 330.136 274.923 327.673C274.662 327.399 274.388 327.071 274.202 326.736C272.646 323.352 274.479 316.008 275.434 312.395C275.487 312.436 270.566 311.478 270.607 311.486C268.883 313.243 267.448 315.422 266.983 317.869C266.76 319.088 266.849 320.373 267.298 321.531C267.687 322.529 268.535 323.859 269.043 324.819C271.493 329.141 274.014 333.422 276.556 337.693C274.012 333.425 271.485 329.146 269.035 324.824C268.525 323.862 267.679 322.542 267.288 321.536C266.839 320.376 266.747 319.091 266.971 317.867C267.435 315.414 268.87 313.235 270.597 311.471C270.612 311.473 275.459 312.37 275.457 312.4C274.504 316.008 272.679 323.344 274.23 326.721C274.41 327.061 274.692 327.366 274.949 327.653C276.317 329.27 276.995 331.342 277.506 333.369C277.727 334.364 277.996 335.522 278.047 336.459L282.437 336.233C282.716 334.382 283.031 332.292 283.178 330.345C283.341 328.366 283.422 326.376 283.277 324.398C283.178 322.92 282.907 321.424 282.246 320.086C281.238 317.844 281.132 315 282.444 312.875C282.444 312.875 286.347 314.315 286.35 314.315C286.667 316.211 286.995 318.139 287.464 320.018C288.178 322.798 288.96 325.657 290.598 328.052C291.164 328.831 291.911 329.463 292.507 330.22C293.122 330.967 293.675 331.764 294.14 332.612C294.602 333.46 295.001 334.351 295.209 335.304L295.161 335.276C295.135 335.288 302.37 332.556 302.22 332.688C301.24 329.766 300.034 326.889 298.408 324.263C297.311 322.562 295.999 320.802 294.038 320.068C293.084 319.67 292.218 319.065 291.497 318.324C290.067 316.831 289.084 314.888 288.645 312.88L290.877 310.65C292.967 312.354 295.267 314.233 298.028 314.695C298.929 314.833 299.912 314.66 300.605 314.04C300.864 313.817 301.12 313.568 301.43 313.408C304.223 312.022 308.2 315.498 310.094 317.354C310.751 314.833 311.488 312.032 311.671 309.333C311.752 307.827 311.823 306.187 311.082 304.828C309.525 302.388 306.166 304.137 303.969 304.561C302.979 304.777 301.897 304.93 300.937 304.516C300.623 304.376 300.348 304.163 300.097 303.929C299.604 303.454 299.038 303.066 298.436 302.741C296.601 301.809 294.513 301.453 292.477 301.405C292.484 301.403 290.867 293.988 290.897 293.996C293.282 295.136 297.68 297.056 300.186 295.695C300.544 295.497 300.793 295.156 301.13 294.928C301.458 294.689 301.819 294.491 302.189 294.326C304.444 293.379 306.968 293.292 309.38 293.425L309.378 293.414Z" fill="white"/>
<path d="M260.039 391.88H294.618C294.92 391.88 295.166 391.634 295.166 391.331V385.004C295.166 384.701 294.92 384.455 294.618 384.455H260.039C259.736 384.455 259.49 384.701 259.49 385.004V391.331C259.49 391.634 259.736 391.88 260.039 391.88Z" fill="#AFAFAF"/>
<path d="M294.663 392.619H259.993C259.716 392.619 259.49 392.393 259.49 392.116V389.331H295.166V392.116C295.166 392.393 294.94 392.619 294.663 392.619Z" fill="#232323"/>
<path d="M266.121 410.487H277.334V390.974H266.121V410.487Z" fill="#232323"/>
<path d="M196.074 363.22H268.873V360.442H196.074V363.22Z" fill="#606060"/>
<path d="M196.075 363.22H232.475V360.442H196.075V363.22Z" fill="black"/>
<path d="M186.781 329.418H223.183L232.474 360.442H196.075L186.781 329.418Z" fill="#232323"/>
<path d="M226.071 327.346L223.184 329.418L232.475 360.442H235.364L226.071 327.346Z" fill="#3F3F3F"/>
<path d="M235.363 360.442C225.57 360.475 205.865 360.475 196.074 360.442C205.868 360.409 225.572 360.409 235.363 360.442Z" fill="#48134C"/>
<path d="M295.426 364.878L311.821 481.217H314.66L302.482 364.878H295.426Z" fill="#AFAFAF"/>
<path d="M117.732 378.27H298.812V364.878H117.732V378.27Z" fill="#E5E5E5"/>
<path d="M279.83 378.27H298.811V364.878H279.83V378.27Z" fill="#E5E5E5"/>
<path d="M124.267 364.878L107.871 481.217H105.035L117.211 364.878H124.267Z" fill="#AFAFAF"/>
<path d="M277.332 364.878L293.725 481.217H296.564L284.386 364.878H277.332Z" fill="#AFAFAF"/>
<path d="M110.701 366.851H307.705V362.9H110.701V366.851Z" fill="#AFAFAF"/>
<path d="M260.748 198.583H334.43V273.533H259.48V199.85C259.48 199.15 260.049 198.581 260.75 198.581L260.748 198.583Z" fill="#CCCCCC"/>
<path d="M304.268 189.813H333.804C334.149 189.813 334.431 190.095 334.431 190.44V198.584H303.641V190.44C303.641 190.095 303.922 189.813 304.268 189.813Z" fill="#CCCCCC"/>
<path d="M331.318 201.697V270.417H262.597V202.966C262.597 202.265 263.166 201.697 263.867 201.697H331.318Z" fill="#E5E5E5"/>
<path d="M312.584 192.484H307.488V196.984H312.584V192.484Z" stroke="#B3B3D5" stroke-width="0.144734" stroke-linecap="round" stroke-linejoin="round"/>
<path d="M326.164 196.981L331.26 192.484" stroke="#B3B3D5" stroke-width="0.144734" stroke-linecap="round" stroke-linejoin="round"/>
<path d="M326.164 192.484L331.26 196.981" stroke="#B3B3D5" stroke-width="0.144734" stroke-linecap="round" stroke-linejoin="round"/>
<path d="M316.836 196.981H321.932" stroke="#B3B3D5" stroke-width="0.144734" stroke-linecap="round" stroke-linejoin="round"/>
<path d="M301.962 275.775C301.403 271.256 297.742 272.363 297.742 272.363L297.907 270.329C298.293 267.696 296.145 265.426 295.02 270.166C293.895 274.909 294.344 278.076 295.878 279.61" fill="#FFCEB4"/>
<path d="M297.909 270.326L297.756 272.36C298.155 272.185 298.82 272.192 299.31 272.266C300.996 272.489 301.857 274.226 301.964 275.773C301.789 274.249 300.961 272.573 299.3 272.319C298.785 272.205 298.221 272.291 297.729 272.357L297.909 270.323V270.326Z" fill="#002A5D"/>
<path d="M278.923 262.318H314.99V209.038H278.923V262.318Z" fill="white"/>
<path d="M284.077 223.051H309.84V221.403H284.077V223.051Z" fill="#CCCCCC"/>
<path d="M284.077 226.347H309.84V224.699H284.077V226.347Z" fill="#CCCCCC"/>
<path d="M284.077 229.643H309.84V227.995H284.077V229.643Z" fill="#CCCCCC"/>
<path d="M284.077 232.942H309.84V231.294H284.077V232.942Z" fill="#CCCCCC"/>
<path d="M284.077 236.237H309.84V234.589H284.077V236.237Z" fill="#CCCCCC"/>
<path d="M284.077 239.536H309.84V237.888H284.077V239.536Z" fill="#CCCCCC"/>
<path d="M284.077 242.832H309.84V241.184H284.077V242.832Z" fill="#CCCCCC"/>
<path d="M284.077 246.128H309.84V244.48H284.077V246.128Z" fill="#CCCCCC"/>
<path d="M284.077 249.426H309.84V247.778H284.077V249.426Z" fill="#CCCCCC"/>
<path d="M284.077 252.722H309.84V251.074H284.077V252.722Z" fill="#CCCCCC"/>
<path d="M284.077 256.02H309.84V254.372H284.077V256.02Z" fill="#CCCCCC"/>
<path d="M174.124 244.723C178.745 241.336 183.009 238.792 183.664 239.391C184.319 239.99 181.33 243.093 181.33 243.093C181.33 243.093 183.369 241.674 184.23 242.413C185.091 243.152 183.395 244.835 183.395 244.835C183.395 244.835 185.297 243.672 185.926 244.68C186.556 245.688 185.149 247.278 185.149 247.278C185.149 247.278 186.269 247.075 186.731 247.786C187.193 248.499 184.286 251.368 182.341 253.486C175.907 260.487 166.369 261.746 166.42 253.319" fill="#F0B99F"/>
<path d="M126.799 255.82L115.593 252.229C108.227 250.383 101.252 251.881 96.001 257.518C94.8761 258.725 94.315 270.925 121.624 273.924C126.367 268.546 127.563 263.574 126.799 255.82Z" fill="#232323"/>
<path d="M169.194 250.221L145.575 261.914L126.8 255.82C127.562 263.574 126.366 268.546 121.625 273.924C121.668 273.929 121.711 273.937 121.755 273.942C127.651 274.78 143.198 279.676 148.652 277.215C158.601 272.726 179.823 255.472 179.823 255.472L169.197 250.218L169.194 250.221Z" fill="#F0B99F"/>
<path d="M178.918 245.059C180.086 244.068 181.353 243.088 182.359 241.935C181.409 243.167 180.157 244.137 178.918 245.059Z" fill="#002A5D"/>
<path d="M181.15 246.76C182.25 245.968 183.182 244.977 184.091 243.977C183.258 245.038 182.306 246.049 181.15 246.76Z" fill="#002A5D"/>
<path d="M183.525 248.641C184.313 247.897 185.14 247.128 185.811 246.277C185.206 247.199 184.384 247.963 183.525 248.641Z" fill="#002A5D"/>
<path d="M123.321 255.289C125.172 260.53 123.293 266.487 120.286 270.923C119.631 271.961 118.758 273.008 117.996 273.96C118.514 273.289 119.037 272.627 119.548 271.954C119.789 271.593 120.373 270.717 120.604 270.372C123.341 265.977 125.037 260.367 123.323 255.289H123.321Z" fill="#002A5D"/>
<path d="M165.062 286.476C167.731 276.7 178.195 276.004 178.563 277.144C178.932 278.287 174.96 280.219 174.96 280.219" fill="#F0B99F"/>
<path d="M176.382 174.469H250.065V249.418H175.115V175.736C175.115 175.035 175.684 174.466 176.385 174.466L176.382 174.469Z" fill="#CCCCCC"/>
<path d="M219.899 165.698H249.435C249.78 165.698 250.062 165.98 250.062 166.325V174.469H219.271V166.325C219.271 165.98 219.553 165.698 219.899 165.698Z" fill="#CCCCCC"/>
<path d="M246.947 177.584V246.305H178.226V178.854C178.226 178.153 178.795 177.584 179.496 177.584H246.947Z" fill="#E5E5E5"/>
<path d="M78.1965 469.079L77.125 477.644H109.152C109.152 477.644 106.925 473.962 98.1039 472.335L97.7611 469.338L78.194 469.082L78.1965 469.079Z" fill="#E0D558"/>
<path d="M109.155 477.644H76.9551V480.384H109.155V477.644Z" fill="#CCCCCC"/>
<path d="M77.5996 473.591C79.9433 473.713 88.9067 474.34 89.0514 477.301C88.8787 474.422 79.9408 473.797 77.5996 473.591Z" fill="white"/>
<path d="M106.119 475.069C106.901 475.676 107.528 476.567 107.666 477.563C107.429 476.593 106.833 475.752 106.119 475.069Z" fill="white"/>
<path d="M131.634 468.848L130.562 477.413H162.589C162.589 477.413 160.363 473.731 151.541 472.104L151.199 469.107L131.632 468.851L131.634 468.848Z" fill="#E0D558"/>
<path d="M162.592 477.411H130.393V480.15H162.592V477.411Z" fill="#CCCCCC"/>
<path d="M131.037 473.36C133.381 473.482 142.344 474.11 142.489 477.07C142.316 474.191 133.378 473.566 131.037 473.36Z" fill="white"/>
<path d="M159.557 474.897C160.339 475.504 160.966 476.395 161.103 477.39C160.867 476.42 160.27 475.58 159.557 474.897Z" fill="white"/>
<path d="M93.5127 308.239L74.9004 471.476H104.358L114.977 343.955L128.924 397.21L128.678 470.374L155.053 469.874L154.433 408.992C154.327 398.429 153.039 387.911 150.597 369.225L136.1 308.239H93.5102H93.5127Z" fill="#232323"/>
<path d="M75.584 459.832C85.1745 459.786 94.7651 459.786 104.358 459.832C94.7676 459.877 85.1771 459.877 75.584 459.832Z" fill="#006BE0"/>
<path d="M129.021 459.258C137.698 459.212 146.377 459.212 155.053 459.258C146.377 459.303 137.698 459.303 129.021 459.258Z" fill="#006BE0"/>
<path d="M95.25 343.272C103.21 343.46 119.225 343.91 127.18 344.169C119.22 343.981 103.205 343.531 95.25 343.272Z" fill="#006BE0"/>
<path d="M118.32 227.22L103.938 227.594L104.614 253.617L118.997 253.243L118.32 227.22Z" fill="#F0B99F"/>
<path d="M115.967 243.052L118.61 239.302L118.762 245.185L115.967 243.052Z" fill="#232323"/>
<path d="M124.08 232.555C125.147 237.146 122.27 241.59 117.697 242.651L112.903 243.764C108.33 244.825 103.79 242.103 102.723 237.512L98.9626 221.314C97.8961 216.724 100.735 212.125 105.308 211.064L110.102 209.952C114.675 208.89 119.251 211.767 120.317 216.358L124.078 232.555H124.08Z" fill="#F0B99F"/>
<path d="M114.823 222.538C114.823 222.538 117.053 228.876 114.823 231.035C112.594 233.19 111.781 228.879 111.781 228.879C111.781 228.879 111.169 239.038 109.263 240.945C107.356 242.852 105.543 240.945 105.543 240.945C105.543 240.945 104.839 244.597 103.059 244.51C101.866 244.452 100.411 239.818 100.411 239.818C100.411 239.818 101.099 242.288 99.1311 242.761C96.5564 243.375 96.206 232.06 96.206 232.06C96.206 232.06 95.6651 234.49 94.3676 233.193C93.0726 231.898 90.8864 224.006 94.3676 216.681C89.7894 217.597 92.3464 210.637 100.408 209.172C102.15 207.43 116.083 200.541 122.39 208.073C125.937 212.311 119.666 215.215 117.997 215.215C117.997 218.697 119.541 222.541 114.821 222.541L114.823 222.538Z" fill="#232323"/>
<path d="M96.8399 221.688C96.746 223.732 96.0909 233.2 98.8205 233.325C99.0973 233.325 99.3664 233.231 99.6077 233.099C99.369 233.236 99.0998 233.338 98.8205 233.343C96.0096 233.231 96.6698 223.77 96.8399 221.688Z" fill="#002A5D"/>
<path d="M101.114 222.295C101.134 225.136 101.208 227.98 101.475 230.811C101.744 233.254 101.916 235.829 103.067 238.043C103.257 238.34 103.478 238.629 103.785 238.815C103.475 238.634 103.249 238.348 103.051 238.053C101.124 234.602 101.106 226.398 101.114 222.297V222.295Z" fill="#002A5D"/>
<path d="M105.727 227.51C106.173 230.176 106.471 233.058 107.334 235.62C107.405 235.788 107.476 235.963 107.603 236.097C107.474 235.965 107.397 235.793 107.319 235.625C106.384 233.045 106.09 230.217 105.727 227.507V227.51Z" fill="#002A5D"/>
<path d="M109.959 221.203C110.213 221.898 110.744 223.841 111.622 223.838C111.775 223.823 111.914 223.734 112.031 223.63C111.922 223.742 111.79 223.843 111.627 223.874C110.68 223.92 110.142 221.944 109.962 221.203H109.959Z" fill="#002A5D"/>
<path d="M108.883 215.497C109.639 215.289 110.399 214.941 111.163 214.743C113.377 214.101 116.216 213.702 118.001 215.497C116.17 213.766 113.398 214.182 111.176 214.789C110.414 214.984 109.647 215.317 108.883 215.497Z" fill="#002A5D"/>
<path d="M101.086 213.311C104.742 209.916 109.833 207.983 114.831 208.456C113.584 208.402 112.33 208.382 111.095 208.585C107.398 209.116 103.869 210.83 101.086 213.311Z" fill="#006BE0"/>
<path d="M114.107 229.95C114.561 231.908 113.779 233.761 112.36 234.091C110.94 234.421 109.419 233.101 108.967 231.146C108.513 229.188 109.295 227.335 110.714 227.004C112.134 226.674 113.655 227.995 114.107 229.95Z" fill="#F0B99F"/>
<path d="M112.597 232.675C111.693 232.05 111.675 230.184 112.785 229.772L112.762 229.818C112.505 229.12 111.952 228.312 111.114 228.388C110.855 228.406 110.604 228.543 110.451 228.762C110.593 228.538 110.842 228.386 111.109 228.355C111.97 228.259 112.554 229.082 112.825 229.795C112.833 229.813 112.825 229.833 112.808 229.841C111.728 230.242 111.756 232.037 112.594 232.677L112.597 232.675Z" fill="#002A5D"/>
<path d="M104.197 248.423C104.283 248.413 104.369 248.405 104.456 248.398C111.403 251.81 115.808 249.317 119.985 247.808C122.839 247.229 131.559 250.015 131.559 250.015L140.621 324.548L89.0273 324.289L89.6977 264.626C89.5961 257.148 96.7541 249.19 104.194 248.425L104.197 248.423Z" fill="#E0D558"/>
<path d="M125.857 264.623C125.857 264.623 132.431 319.881 139.584 317.177C138.769 305.225 137.947 301.241 137.947 301.241L125.857 264.623Z" fill="#BCB14A"/>
<path d="M89.1289 321.338C101.909 321.445 127.628 321.727 140.403 321.902C127.623 321.795 101.904 321.514 89.1289 321.338Z" fill="#002A5D"/>
<path d="M132.594 322.882C136.232 339.699 139.683 356.56 142.702 373.501C144.167 381.977 145.648 390.466 146.407 399.038C146.521 400.468 146.608 401.9 146.61 403.337C146.582 416.812 146.521 445.513 146.493 459.258C146.506 445.348 146.534 416.917 146.547 403.337C146.544 401.905 146.455 400.473 146.338 399.043C145.569 390.473 144.109 381.982 142.652 373.509C139.65 356.567 136.215 339.702 132.594 322.882Z" fill="#006BE0"/>
<path d="M109.154 343.773C106.307 372.704 100.513 430.916 97.5977 459.832C100.444 430.9 106.239 372.689 109.154 343.773Z" fill="#006BE0"/>
<path d="M102.592 248.636C108.308 251.29 115.958 252.318 120.971 247.725C120.364 248.265 119.731 248.783 119.026 249.195C114.003 252.168 107.622 251.015 102.592 248.636Z" fill="#002A5D"/>
<path d="M120.098 223.229C120.296 224.085 120.207 224.836 119.898 224.907C119.588 224.978 119.177 224.344 118.978 223.488C118.78 222.632 118.869 221.88 119.179 221.809C119.489 221.738 119.9 222.373 120.098 223.229Z" fill="#232323"/>
<path d="M121.926 223.285C121.926 223.285 122.617 226.791 123.673 227.449C124.73 228.107 123.749 230.143 122.32 229.572C120.89 229 121.929 223.285 121.929 223.285H121.926Z" fill="#F0B99F"/>
<path d="M123.067 233.734C122.284 235.636 121.213 233.104 121.213 233.104L123.067 233.734Z" fill="white"/>
<path d="M117.685 230.633C117.843 231.306 118.805 231.657 119.839 231.418C120.872 231.179 121.58 230.438 121.426 229.765C121.268 229.092 120.306 228.742 119.272 228.98C118.239 229.219 117.53 229.96 117.685 230.633Z" fill="#F69EA1"/>
<path d="M174.963 280.221C180.443 278.177 185.346 276.849 185.846 277.603C186.347 278.355 182.566 280.561 182.566 280.561C182.566 280.561 184.963 279.731 185.633 280.673C186.301 281.615 184.176 282.791 184.176 282.791C184.176 282.791 186.369 282.171 186.738 283.314C187.106 284.457 185.295 285.617 185.295 285.617C185.295 285.617 186.463 285.718 186.743 286.529C187.022 287.341 183.381 289.339 180.898 290.868C172.681 295.924 162.849 294.606 165.068 286.475" fill="#F0B99F"/>
<path d="M148.522 282.369L145.533 267.459C143.994 259.791 139.371 250.457 131.563 250.012C126.548 249.728 122.221 255.289 129.859 285.18C136.801 287.341 141.829 286.358 148.524 282.369H148.522Z" fill="#E0D558"/>
<path d="M168.629 284.223L150.365 291.559L148.521 282.372C141.825 286.361 136.798 287.344 129.855 285.183C129.868 285.226 129.881 285.269 129.896 285.312C131.707 291.181 134.517 313.843 140.624 314.475C155.43 316.009 177.869 292.125 177.869 292.125L168.629 284.226V284.223Z" fill="#F0B99F"/>
<path d="M179.652 281.818C181.069 281.173 182.583 280.564 183.888 279.716C182.616 280.655 181.123 281.257 179.652 281.818Z" fill="#002A5D"/>
<path d="M181.439 284.056C182.734 283.586 183.923 282.875 185.088 282.149C183.979 282.956 182.767 283.68 181.439 284.056Z" fill="#002A5D"/>
<path d="M183.322 286.503C184.297 285.993 185.321 285.475 186.209 284.827C185.364 285.561 184.348 286.076 183.322 286.503Z" fill="#002A5D"/>
<path d="M147.487 278.896C144.988 281.722 141.088 282.842 137.426 283.027C137.017 283.024 135.961 283.014 135.565 283.012L134.948 282.956L133.714 282.842C133.008 282.76 131.977 282.542 131.269 282.43L128.869 281.808L131.276 282.397L132.498 282.606C133.427 282.799 134.626 282.875 135.57 282.958C135.961 282.958 137.023 282.964 137.426 282.964C139.879 282.819 142.388 282.339 144.556 281.143C145.63 280.559 146.682 279.825 147.489 278.898L147.487 278.896Z" fill="#002A5D"/>
<path d="M129.855 285.18C128.411 279.373 124.218 262.391 126.125 257.345C126.247 257.069 126.417 256.802 126.664 256.619C126.42 256.807 126.255 257.071 126.135 257.35C124.962 260.588 126.25 267.378 126.806 270.905C127.639 275.699 128.695 280.455 129.855 285.18Z" fill="#002A5D"/>
<path d="M149.084 285.18C149.932 289.385 150.74 293.6 151.499 297.82C150.648 293.615 149.843 289.4 149.084 285.18Z" fill="#002A5D"/>
<path d="M166.422 253.316C166.483 243.182 176.106 239.815 176.736 240.823C177.366 241.831 174.128 244.721 174.128 244.721" fill="#F0B99F"/>
<path d="M174.901 243.977C174.249 244.652 173.294 245.622 172.621 246.298L172.616 246.254C173.015 246.546 173.358 246.905 173.642 247.306C174.538 248.532 174.5 250.198 173.749 251.48C174.787 249.431 174.236 247.689 172.578 246.257C173.259 245.587 174.216 244.629 174.899 243.977H174.901Z" fill="#002A5D"/>
<path d="M171.621 280.952C173.34 280.437 175.074 279.967 176.819 279.546C175.1 280.061 173.366 280.528 171.621 280.952Z" fill="#002A5D"/>
<path d="M211.042 229.81C221.43 229.81 229.85 221.39 229.85 211.002C229.85 200.615 221.43 192.195 211.042 192.195C200.655 192.195 192.234 200.615 192.234 211.002C192.234 221.39 200.655 229.81 211.042 229.81Z" fill="#232323"/>
<path d="M221.274 211.942L204.078 202.016V221.87L221.274 211.942Z" fill="white"/>
<path d="M228.211 168.369H223.115V172.869H228.211V168.369Z" stroke="#B3B3D5" stroke-width="0.144734" stroke-linecap="round" stroke-linejoin="round"/>
<path d="M241.795 172.866L246.891 168.369" stroke="#B3B3D5" stroke-width="0.144734" stroke-linecap="round" stroke-linejoin="round"/>
<path d="M241.795 168.369L246.891 172.866" stroke="#B3B3D5" stroke-width="0.144734" stroke-linecap="round" stroke-linejoin="round"/>
<path d="M232.463 172.866H237.559" stroke="#B3B3D5" stroke-width="0.144734" stroke-linecap="round" stroke-linejoin="round"/>
<path d="M256.303 312.35C255.468 313.142 254.15 314.15 252.322 314.709C247.099 316.308 242.48 312.794 241.916 312.35V286.318H256.303V312.35Z" fill="#F1BBA1"/>
<path d="M251.801 304.359L256.305 302.993V308.33L251.801 304.359Z" fill="#232323"/>
<path d="M262.273 294.126C263.355 298.712 260.495 303.166 255.927 304.245L251.139 305.375C246.568 306.454 242.02 303.747 240.939 299.161L237.12 282.979C236.038 278.393 238.859 273.784 243.43 272.705L248.218 271.575C252.789 270.496 257.375 273.358 258.457 277.944L262.275 294.126H262.273Z" fill="#F1BBA1"/>
<path d="M241.822 295.098C242.284 297.054 241.02 299.024 239.001 299.501C236.982 299.979 234.971 298.778 234.509 296.823C234.047 294.867 235.312 292.897 237.33 292.42C239.349 291.942 241.36 293.143 241.822 295.098Z" fill="#F1BBA1"/>
<path d="M257.383 290.566C257.716 290.188 258.145 290.307 258.364 290.731C258.808 291.615 258.658 292.839 257.899 293.504C257.744 293.631 257.569 293.73 257.383 293.804C257.744 293.639 258.049 293.362 258.234 293.019C258.605 292.341 258.648 291.457 258.313 290.759C258.115 290.348 257.721 290.223 257.381 290.569L257.383 290.566Z" fill="#002A5D"/>
<path d="M245.463 284.609C245.808 283.916 246.618 283.449 247.395 283.616C247.504 283.637 247.609 283.675 247.713 283.705C246.847 283.466 245.943 283.868 245.463 284.612V284.609Z" fill="#002A5D"/>
<path d="M256.133 282.09C256.478 281.397 257.288 280.93 258.065 281.097C258.174 281.117 258.278 281.156 258.383 281.186C257.517 280.947 256.613 281.349 256.133 282.093V282.09Z" fill="#002A5D"/>
<path d="M249.138 287.704C249.291 288.352 249.131 288.943 248.778 289.025C248.427 289.108 248.019 288.651 247.866 288.004C247.714 287.356 247.874 286.765 248.227 286.683C248.577 286.6 248.986 287.057 249.138 287.704Z" fill="#232323"/>
<path d="M259.429 285.277C259.582 285.924 259.422 286.516 259.069 286.597C258.718 286.681 258.31 286.224 258.157 285.576C258.005 284.929 258.165 284.337 258.518 284.256C258.868 284.172 259.277 284.629 259.429 285.277Z" fill="#232323"/>
<path d="M252.328 296.355C253.486 297.188 255.093 297.305 256.32 296.558C256.498 296.459 256.66 296.337 256.83 296.228C256.665 296.348 256.51 296.48 256.338 296.589C255.129 297.394 253.44 297.274 252.328 296.355Z" fill="#002A5D"/>
<path d="M238.386 298.288C237.017 297.668 237.606 295.612 238.912 295.302L238.889 295.35C238.526 294.446 237.55 293.849 236.581 294.07C236.268 294.134 235.961 294.266 235.732 294.497C235.953 294.258 236.258 294.111 236.573 294.035C237.563 293.793 238.574 294.398 238.955 295.32C238.962 295.337 238.955 295.358 238.939 295.365C237.657 295.657 237.083 297.638 238.388 298.285L238.386 298.288Z" fill="#002A5D"/>
<path d="M251.055 294.012C251.212 294.685 250.506 295.426 249.475 295.67C248.444 295.914 247.479 295.566 247.319 294.893C247.159 294.22 247.868 293.479 248.899 293.235C249.93 292.991 250.895 293.339 251.055 294.012Z" fill="#F8A0A3"/>
<path d="M263.214 291.142C263.372 291.815 262.666 292.557 261.635 292.801C260.604 293.044 259.639 292.696 259.479 292.024C259.322 291.351 260.027 290.609 261.058 290.365C262.089 290.122 263.054 290.47 263.214 291.142Z" fill="#F8A0A3"/>
<path d="M251.128 277.512C251.128 277.512 247.923 281.313 243.022 283.027C238.119 284.741 245.854 293.562 243.622 295.797C241.39 298.029 247.857 311.85 245.122 314.587C242.388 317.322 244.551 330.937 237.325 330.937C230.098 330.937 228.739 323.934 224.118 328.553C224.118 321.902 218.821 320.209 222.343 316.684C225.865 313.162 217.095 309.178 223.991 302.279C230.89 295.38 221.196 286.128 225.502 282.484C233.043 276.103 227.869 269.15 234.024 266.756C236.487 265.799 239.237 265.717 241.496 265.913C244.401 266.162 247.337 266.169 250.239 265.926C250.894 265.87 251.63 265.837 252.453 265.837C256.721 265.837 268.927 273.802 261.729 282.09C257.676 282.09 251.128 277.509 251.128 277.509V277.512Z" fill="#232323"/>
<path d="M243.37 273.03C239.944 275.097 236.666 279.005 237.865 283.24C238.134 284.243 238.621 285.175 239.208 286.029C239.81 286.877 240.295 287.816 240.566 288.824C240.843 289.83 240.902 290.889 240.8 291.925C240.513 295.038 238.908 297.897 238.819 301.038C238.769 302.084 239.068 303.092 239.205 304.12C239.353 305.151 239.429 306.19 239.459 307.228C239.52 310.692 239.16 316.529 236.801 319.175C239.561 316.06 239.744 308.14 239.157 304.128C239.017 303.1 238.713 302.086 238.761 301.038C238.779 299.994 238.982 298.963 239.243 297.958C240.02 294.997 241.371 291.93 240.518 288.837C240.252 287.834 239.772 286.897 239.175 286.051C238.588 285.193 238.101 284.256 237.834 283.248C236.641 279 239.929 275.092 243.37 273.028V273.03Z" fill="#303030"/>
<path d="M241.079 269.912C239.855 271.227 238.451 272.38 236.932 273.337C231.63 276.542 230.323 281.9 233.436 287.224C233.87 288.009 234.357 288.763 234.858 289.512C235.756 290.975 237.191 292.569 236.739 294.41C236.503 295.309 235.777 295.921 235.17 296.576C233.961 297.902 232.907 299.385 232.171 301.025C231.491 302.584 230.909 304.719 232.235 306.098C230.901 304.722 231.478 302.579 232.153 301.017C232.887 299.372 233.936 297.884 235.142 296.551C235.741 295.901 236.465 295.286 236.693 294.398C237.133 292.569 235.701 290.998 234.804 289.545C234.304 288.799 233.809 288.045 233.375 287.257C230.267 281.897 231.592 276.522 236.924 273.322C238.448 272.37 239.855 271.225 241.081 269.912H241.079Z" fill="#303030"/>
<path d="M229.586 293.803C229.581 296.607 229.812 299.481 229.099 302.226C228.951 302.769 228.72 303.303 228.36 303.747C227.994 304.176 227.588 304.562 227.336 305.078C227.09 305.58 226.994 306.141 226.961 306.7C226.902 307.822 226.961 308.952 226.961 310.08C226.925 312.33 227.108 314.612 226.638 316.829C226.379 317.931 225.947 318.977 225.498 320.011C225.937 318.975 226.359 317.921 226.605 316.821C226.854 315.722 226.895 314.589 226.907 313.462C226.953 311.205 226.831 308.952 226.887 306.695C226.925 305.847 227.176 304.986 227.75 304.341C227.92 304.115 228.146 303.932 228.311 303.709C229.017 302.828 229.215 301.652 229.373 300.56C229.655 298.321 229.568 296.058 229.581 293.806L229.586 293.803Z" fill="#303030"/>
<path d="M247.967 269.298C248.972 270.907 251.202 271.108 252.931 271.202C251.209 271.215 248.886 270.971 247.967 269.298Z" fill="#303030"/>
<path d="M255.707 267.995C254.948 267.964 254.221 267.718 253.488 267.551C251.317 266.989 248.904 266.819 246.898 267.995C248.874 266.748 251.334 266.908 253.5 267.505C254.143 267.657 255.052 267.959 255.709 267.995H255.707Z" fill="#303030"/>
<path d="M238.566 269.034C236.491 268.99 234.008 269.549 233.043 271.593C233.924 269.491 236.489 268.894 238.566 269.034Z" fill="#303030"/>
<path d="M373.234 214.565C373.234 214.565 372.149 220.504 373.579 221.932C375.006 223.359 370.461 230.438 376.844 228.668C383.228 226.901 378.802 213.923 378.802 213.923L373.236 214.563L373.234 214.565Z" fill="#232323"/>
<path d="M403.406 220.883C401.049 223.239 401.372 224.161 402.723 225.509C404.073 226.86 404.282 232.385 401.671 233.731C399.058 235.077 401.532 243.87 393.658 240.023C385.781 236.176 394.94 220.883 394.94 220.883H403.408H403.406Z" fill="#232323"/>
<path d="M448.899 231.258C449.569 228.419 450.118 221.299 449.292 221.065C448.467 220.829 447.101 224.648 447.101 224.648C447.101 224.648 447.782 220.039 446.634 219.689C445.486 219.339 444.143 223.952 444.143 223.952C444.143 223.952 444.699 218.996 443.544 219.009C442.388 219.019 441.393 223.998 441.393 223.998C441.393 223.998 441.743 219.636 440.839 219.615C439.938 219.595 436.7 226.349 435.248 232.014" fill="#E3A88D"/>
<path d="M446.516 238.809C446.516 238.809 451.305 227.972 447.989 226.057C444.673 224.143 436.984 219.039 436.057 232.964C435.565 240.363 446.516 238.809 446.516 238.809Z" fill="#E3A88D"/>
<path d="M416.28 253.854C406.929 247.295 389.751 243.077 389.121 257.665L414.544 276.696C418.373 271.501 422.621 266.697 426.277 261.527C426.277 261.527 418.858 255.662 416.278 253.851L416.28 253.854Z" fill="#232323"/>
<path d="M432.218 265.577L426.277 261.017C422.62 266.187 418.372 270.991 414.543 276.186L420.056 280.137C425.048 283.715 447.568 296.964 446.798 275.224L447.451 229.693L435.103 229.49L432.216 265.577H432.218Z" fill="#E3A88D"/>
<path d="M440.764 227.106C441.043 225.575 441.409 223.985 441.457 222.429C441.503 224.011 441.142 225.58 440.764 227.106Z" fill="#002A5D"/>
<path d="M443.621 226.918C443.977 225.222 444.205 223.501 444.274 221.769C444.302 223.503 444.071 225.245 443.621 226.918Z" fill="#002A5D"/>
<path d="M446.707 226.771C446.941 225.186 447.296 223.544 447.304 221.944C447.39 223.569 447.04 225.189 446.707 226.771Z" fill="#002A5D"/>
<path d="M412.256 274.543C416.176 269.442 420.13 264.369 424.119 259.323C420.201 264.425 416.245 269.498 412.256 274.543Z" fill="#002A5D"/>
<path d="M323.316 248.441C320.79 246.981 315.231 242.499 315.628 241.737C316.021 240.975 319.738 242.598 319.738 242.598C319.738 242.598 315.92 239.934 316.45 238.858C316.983 237.781 321.259 239.967 321.259 239.967C321.259 239.967 317.27 236.974 318.073 236.141C318.873 235.308 323.179 237.997 323.179 237.997C323.179 237.997 319.764 235.26 320.368 234.589C320.973 233.919 325.629 235.953 330.748 238.779" fill="#E3A88D"/>
<path d="M330.446 251.886C330.446 251.886 319.274 247.943 320.155 244.215C321.036 240.488 324.886 233.386 335.913 241.94C343.978 254.029 330.449 251.889 330.449 251.889L330.446 251.886Z" fill="#E3A88D"/>
<path d="M372.303 247.938C378.082 246.836 387.962 245.8 391.573 250.576L367.613 273.683C362.816 269.673 358.035 265.651 353.797 261.068L364.952 251.503C367.054 249.7 369.581 248.458 372.303 247.94V247.938Z" fill="#232323"/>
<path d="M350.57 263.833L353.798 261.065C358.035 265.649 362.817 269.671 367.613 273.68L364.714 276.476C360.293 280.739 354.107 286.838 348.549 284.231C333.25 277.057 326.902 249.532 326.902 249.532L334.726 240.267L350.57 263.833Z" fill="#E3A88D"/>
<path d="M365.484 263.727L360.365 280.485L363.306 278.363L365.484 263.727Z" fill="#232323"/>
<path d="M325.876 239.673C324.505 238.901 323.116 238.086 321.996 236.969C323.162 237.999 324.571 238.825 325.876 239.673Z" fill="#002A5D"/>
<path d="M323.779 241.623C322.251 240.803 320.826 239.777 319.582 238.568C320.89 239.706 322.299 240.722 323.779 241.623Z" fill="#002A5D"/>
<path d="M321.558 243.766C320.179 242.923 318.757 242.065 317.635 240.889C318.805 241.981 320.245 242.852 321.558 243.766Z" fill="#002A5D"/>
<path d="M398.878 469.079L397.807 477.644H429.834C429.834 477.644 427.607 473.962 418.786 472.335L418.443 469.338L398.876 469.082L398.878 469.079Z" fill="#77778C"/>
<path d="M429.836 477.644H397.637V480.384H429.836V477.644Z" fill="#B3B3D5"/>
<path d="M398.283 473.592C400.167 473.861 402.018 475.242 401.919 477.301C401.891 477.093 401.891 476.801 401.83 476.6C401.508 474.917 399.852 473.924 398.283 473.592Z" fill="#002A5D"/>
<path d="M415.79 468.737C415.78 470.501 415.877 472.563 415.79 474.186C418.563 474.191 421.412 474.417 424.012 475.445C422.054 474.701 419.957 474.432 417.877 474.305C417.182 474.27 416.486 474.239 415.79 474.247C415.772 474.247 415.76 474.234 415.76 474.216C415.767 472.388 415.767 470.562 415.79 468.734V468.737Z" fill="#002A5D"/>
<path d="M424.958 473.947C424.184 474.922 423.633 476.075 423.412 477.301C423.537 476.057 424.11 474.859 424.958 473.947Z" fill="#002A5D"/>
<path d="M365.479 468.849L366.55 477.413H334.523C334.523 477.413 336.75 473.731 345.572 472.104L345.914 469.108L365.481 468.851L365.479 468.849Z" fill="#77778C"/>
<path d="M334.523 480.153H366.723V477.413H334.523V480.153Z" fill="#B3B3D5"/>
<path d="M366.077 473.361C364.508 473.693 362.852 474.686 362.53 476.37C362.469 476.568 362.467 476.862 362.441 477.07C362.345 475.011 364.196 473.63 366.077 473.361Z" fill="#002A5D"/>
<path d="M348.566 468.506C348.589 470.331 348.589 472.16 348.596 473.985C348.596 474.003 348.581 474.016 348.566 474.016C347.87 474.008 347.174 474.039 346.478 474.074C344.399 474.201 342.301 474.47 340.344 475.214C342.944 474.186 345.793 473.96 348.566 473.955C348.479 472.33 348.573 470.273 348.566 468.506Z" fill="#002A5D"/>
<path d="M339.398 473.716C340.249 474.628 340.82 475.826 340.945 477.07C340.721 475.844 340.17 474.691 339.398 473.716Z" fill="#002A5D"/>
<path d="M403.601 316.651L422.214 471.479H392.754L379.509 351.591L368.433 470.374L342.059 469.877L361.014 316.651H403.601Z" fill="#E0D558"/>
<path d="M421.526 459.832C411.936 459.877 402.345 459.877 392.752 459.832C402.343 459.786 411.933 459.786 421.526 459.832Z" fill="#002A5D"/>
<path d="M368.092 459.258C359.416 459.304 350.737 459.304 342.061 459.258C350.737 459.212 359.416 459.212 368.092 459.258Z" fill="#002A5D"/>
<path d="M398.645 322.773C402.974 356.931 411.615 425.674 415.876 459.832C411.546 425.674 402.905 356.931 398.645 322.773Z" fill="#002A5D"/>
<path d="M398.646 336.518C393.08 337.333 387.542 335.027 385.922 329.297C385.394 327.588 385.208 325.792 385.224 324.012C385.236 325.792 385.439 327.583 385.968 329.281C387.623 334.984 393.085 337.249 398.646 336.515V336.518Z" fill="#002A5D"/>
<path d="M377.341 324.871C377.308 324.904 377.438 343.064 377.341 343.059H373.916C373.898 343.059 373.883 343.044 373.883 343.026L373.916 324.871L373.949 343.026L373.916 342.993H377.341C377.25 343.194 377.372 324.83 377.341 324.871Z" fill="#002A5D"/>
<path d="M366.698 325.729C366.294 329.774 364.745 334.903 360.4 336.175C359.804 336.34 359.187 336.391 358.572 336.401C359.187 336.378 359.801 336.315 360.39 336.14C364.689 334.845 366.213 329.733 366.698 325.726V325.729Z" fill="#002A5D"/>
<path d="M379.509 351.59C376.144 350.491 372.795 349.348 369.461 348.165C372.825 349.265 376.175 350.407 379.509 351.59Z" fill="#002A5D"/>
<path d="M380.932 251.96L385.85 262.782L395.316 252.28L395.898 226.256L381.513 225.933L380.932 251.96Z" fill="#E3A88D"/>
<path d="M383.906 241.747L381.166 241.687L381.115 243.891L383.906 241.747Z" fill="#232323"/>
<path d="M373.817 233.129C373.712 237.84 377.435 241.603 382.127 241.707L387.046 241.816C391.738 241.92 395.626 238.327 395.732 233.617L396.103 216.993C396.207 212.283 392.49 208.359 387.795 208.255L382.876 208.146C378.184 208.042 374.291 211.792 374.187 216.505L373.817 233.129Z" fill="#E3A88D"/>
<path d="M384.897 224.783C384.882 225.448 385.164 225.992 385.524 225.999C385.885 226.007 386.19 225.476 386.205 224.811C386.22 224.146 385.938 223.602 385.578 223.595C385.217 223.587 384.912 224.118 384.897 224.783Z" fill="#232323"/>
<path d="M374.325 224.547C374.31 225.212 374.591 225.756 374.952 225.763C375.313 225.771 375.617 225.24 375.633 224.575C375.648 223.91 375.366 223.366 375.005 223.356C374.645 223.348 374.34 223.879 374.325 224.544V224.547Z" fill="#232323"/>
<path d="M378.781 223.805C378.814 224.912 378.979 227.853 378.146 228.594C377.963 228.731 377.737 228.609 377.537 228.673C376.496 229.033 376.823 230.623 377.471 231.232C377.753 231.527 378.134 231.712 378.532 231.796C378.131 231.725 377.74 231.55 377.445 231.258C376.762 230.631 376.43 228.985 377.522 228.609C377.712 228.541 377.935 228.66 378.106 228.536C378.418 228.289 378.497 227.837 378.585 227.464C378.806 226.261 378.799 225.027 378.781 223.805Z" fill="#002A5D"/>
<path d="M387.483 223.44C386.861 222.813 385.891 222.609 385.094 223.021C385.19 222.97 385.284 222.912 385.386 222.868C386.112 222.543 387.001 222.833 387.483 223.44Z" fill="#002A5D"/>
<path d="M376.522 223.196C375.9 222.569 374.93 222.366 374.133 222.777C374.229 222.726 374.323 222.668 374.425 222.625C375.151 222.3 376.04 222.589 376.522 223.196Z" fill="#002A5D"/>
<path d="M379.576 234.053C381.09 236.044 383.045 233.22 383.045 233.22C383.555 232.591 378.165 232.197 379.576 234.053Z" fill="white"/>
<path d="M397.024 249.2C396.44 249.025 395.841 248.857 395.226 248.7C390.473 249.949 381.865 249.563 380.697 247.544C372.079 248.133 367.937 250.576 367.937 250.576L354.576 325.487L406.15 327.278L408.72 265.656C409.032 258.145 404.225 251.366 397.027 249.2H397.024Z" fill="#232323"/>
<path d="M365.953 261.089C364.945 267.023 363.894 272.952 362.797 278.871C363.805 272.937 364.856 267.008 365.953 261.089Z" fill="#002A5D"/>
<path d="M384.766 230.684C384.751 231.375 385.596 231.954 386.658 231.979C387.716 232.002 388.59 231.461 388.605 230.77C388.62 230.08 387.775 229.501 386.713 229.475C385.655 229.452 384.781 229.993 384.766 230.684Z" fill="#FC8386"/>
<path d="M372.276 230.405C372.26 231.095 373.106 231.674 374.167 231.7C375.226 231.723 376.097 231.182 376.115 230.491C376.13 229.8 375.285 229.221 374.223 229.196C373.164 229.173 372.293 229.714 372.276 230.405Z" fill="#FC8386"/>
<path d="M364.407 267.345C361.68 264.577 358.986 261.779 356.322 258.95C359.049 261.718 361.743 264.516 364.407 267.345Z" fill="#002A5D"/>
<path d="M352.918 266.576C350.996 264.186 349.109 261.766 347.258 259.321C349.18 261.71 351.067 264.13 352.918 266.576Z" fill="#002A5D"/>
<path d="M408.671 263.147C408.564 267.799 408.414 272.451 408.219 277.1C408.325 272.449 408.475 267.797 408.671 263.147Z" fill="#002A5D"/>
<path d="M432.219 265.578C431.856 268.571 431.449 271.56 431 274.544C431.363 271.55 431.769 268.561 432.219 265.578Z" fill="#002A5D"/>
<path d="M436.916 236.359C436.916 236.359 430.804 229.694 431.094 228.043C431.386 226.393 437.465 231.037 437.465 231.037" fill="#E3A88D"/>
<path d="M411.109 155.28H484.791V230.229H409.842V156.547C409.842 155.846 410.411 155.277 411.111 155.277L411.109 155.28Z" fill="#CCCCCC"/>
<path d="M454.625 146.51H484.163C484.509 146.51 484.79 146.791 484.79 147.137V155.28H454V147.137C454 146.791 454.282 146.51 454.627 146.51H454.625Z" fill="#CCCCCC"/>
<path d="M481.674 158.393V227.114H412.953V159.663C412.953 158.962 413.522 158.393 414.222 158.393H481.674Z" fill="#E5E5E5"/>
<path d="M462.938 149.181H457.842V153.68H462.938V149.181Z" stroke="#B3B3D5" stroke-width="0.144734" stroke-linecap="round" stroke-linejoin="round"/>
<path d="M476.521 153.678L481.618 149.181" stroke="#B3B3D5" stroke-width="0.144734" stroke-linecap="round" stroke-linejoin="round"/>
<path d="M476.521 149.181L481.618 153.678" stroke="#B3B3D5" stroke-width="0.144734" stroke-linecap="round" stroke-linejoin="round"/>
<path d="M467.189 153.678H472.286" stroke="#B3B3D5" stroke-width="0.144734" stroke-linecap="round" stroke-linejoin="round"/>
<path d="M330.75 238.779C330.75 238.779 327.106 236.283 327.637 235.209C328.17 234.132 335.054 235.77 334.899 242.118" fill="#E3A88D"/>
<path d="M330.685 238.637C330.792 238.609 326.757 240.072 329.596 244.48L330.685 238.637Z" fill="#E3A88D"/>
<path d="M330.686 238.637C328.972 239.424 328.188 241.13 328.845 242.921C329.031 243.467 329.297 243.985 329.597 244.48C329.272 244 328.99 243.487 328.8 242.938C328.096 241.141 328.919 239.358 330.686 238.64V238.637Z" fill="#002A5D"/>
<path d="M461.04 202.806H455.723L457.18 208.123H459.58L461.04 202.806Z" fill="#FF9C00"/>
<path d="M459.58 173.219H457.18L455.723 178.536H461.04L459.58 173.219Z" fill="#FF9C00"/>
<path d="M454.615 202.512L450.009 199.853L448.615 205.185L450.692 206.386L454.615 202.512Z" fill="#FF9C00"/>
<path d="M468.145 176.157L466.068 174.956L462.145 178.833L466.751 181.492L468.145 176.157Z" fill="#FF9C00"/>
<path d="M449.199 199.043L446.541 194.437L442.666 198.36L443.865 200.437L449.199 199.043Z" fill="#FF9C00"/>
<path d="M474.094 182.985L472.895 180.905L467.561 182.302L470.219 186.905L474.094 182.985Z" fill="#FF9C00"/>
<path d="M446.245 193.33V188.013L440.928 189.473V191.872L446.245 193.33Z" fill="#FF9C00"/>
<path d="M475.833 191.872V189.473L470.516 188.013V193.33L475.833 191.872Z" fill="#FF9C00"/>
<path d="M446.541 186.905L449.199 182.302L443.865 180.905L442.666 182.985L446.541 186.905Z" fill="#FF9C00"/>
<path d="M472.895 200.437L474.094 198.36L470.219 194.437L467.561 199.043L472.895 200.437Z" fill="#FF9C00"/>
<path d="M450.009 181.492L454.615 178.833L450.692 174.956L448.615 176.157L450.009 181.492Z" fill="#FF9C00"/>
<path d="M466.068 206.386L468.145 205.185L466.751 199.853L462.145 202.512L466.068 206.386Z" fill="#FF9C00"/>
<path d="M458.384 176.746C450.693 176.746 444.459 182.98 444.459 190.671C444.459 198.363 450.693 204.596 458.384 204.596C466.075 204.596 472.309 198.363 472.309 190.671C472.309 182.98 466.075 176.746 458.384 176.746ZM458.384 196.463C455.185 196.463 452.59 193.871 452.59 190.669C452.59 187.467 455.185 184.874 458.384 184.874C461.583 184.874 464.178 187.469 464.178 190.669C464.178 193.868 461.583 196.463 458.384 196.463Z" fill="#FF7500"/>
<path d="M460.625 200.209C465.873 198.965 469.12 193.702 467.876 188.454C466.633 183.206 461.37 179.96 456.122 181.203C450.874 182.447 447.627 187.709 448.871 192.957C450.114 198.206 455.377 201.452 460.625 200.209Z" stroke="#1A2E35" stroke-width="0.109186" stroke-miterlimit="10"/>
<path d="M437.389 215.588H433.859L434.829 219.118H436.421L437.389 215.588Z" fill="#FF9C00"/>
<path d="M436.421 195.948H434.829L433.859 199.477H437.389L436.421 195.948Z" fill="#FF9C00"/>
<path d="M433.125 215.39L430.067 213.625L429.141 217.168L430.522 217.965L433.125 215.39Z" fill="#FF9C00"/>
<path d="M442.106 197.898L440.728 197.1L438.125 199.673L441.182 201.437L442.106 197.898Z" fill="#FF9C00"/>
<path d="M429.526 213.09L427.762 210.032L425.189 212.635L425.987 214.014L429.526 213.09Z" fill="#FF9C00"/>
<path d="M446.054 202.43L445.257 201.049L441.715 201.976L443.48 205.033L446.054 202.43Z" fill="#FF9C00"/>
<path d="M427.569 209.296V205.767L424.039 206.737V208.329L427.569 209.296Z" fill="#FF9C00"/>
<path d="M447.209 208.329V206.737L443.68 205.767V209.296L447.209 208.329Z" fill="#FF9C00"/>
<path d="M427.762 205.033L429.526 201.976L425.987 201.049L425.189 202.43L427.762 205.033Z" fill="#FF9C00"/>
<path d="M445.257 214.014L446.054 212.635L443.48 210.032L441.715 213.09L445.257 214.014Z" fill="#FF9C00"/>
<path d="M430.067 201.437L433.125 199.673L430.522 197.1L429.141 197.898L430.067 201.437Z" fill="#FF9C00"/>
<path d="M440.728 217.965L442.106 217.168L441.182 213.625L438.125 215.39L440.728 217.965Z" fill="#FF9C00"/>
<path d="M435.622 198.289C430.515 198.289 426.379 202.427 426.379 207.531C426.379 212.635 430.518 216.774 435.622 216.774C440.725 216.774 444.864 212.635 444.864 207.531C444.864 202.427 440.725 198.289 435.622 198.289ZM435.622 210.032C434.24 210.032 433.123 208.913 433.123 207.534C433.123 206.155 434.243 205.035 435.622 205.035C437 205.035 438.12 206.155 438.12 207.534C438.12 208.913 437 210.032 435.622 210.032Z" fill="#FF7500"/>
<path d="M435.623 214.014C439.203 214.014 442.106 211.112 442.106 207.531C442.106 203.951 439.203 201.049 435.623 201.049C432.043 201.049 429.141 203.951 429.141 207.531C429.141 211.112 432.043 214.014 435.623 214.014Z" stroke="#1A2E35" stroke-width="0.109186" stroke-miterlimit="10"/>
<path d="M433.726 188.358H429.777L430.862 192.306H432.642L433.726 188.358Z" fill="#FF9C00"/>
<path d="M432.642 166.391H430.862L429.777 170.337H433.726L432.642 166.391Z" fill="#FF9C00"/>
<path d="M428.954 188.14L425.536 186.164L424.5 190.125L426.044 191.016L428.954 188.14Z" fill="#FF9C00"/>
<path d="M439.001 168.572L437.457 167.681L434.545 170.558L437.965 172.534L439.001 168.572Z" fill="#FF9C00"/>
<path d="M424.934 185.562L422.961 182.144L420.082 185.057L420.973 186.598L424.934 185.562Z" fill="#FF9C00"/>
<path d="M443.416 173.641L442.528 172.097L438.566 173.133L440.539 176.553L443.416 173.641Z" fill="#FF9C00"/>
<path d="M422.739 181.322V177.376L418.791 178.457V180.24L422.739 181.322Z" fill="#FF9C00"/>
<path d="M444.706 180.24V178.457L440.758 177.376V181.322L444.706 180.24Z" fill="#FF9C00"/>
<path d="M422.961 176.553L424.934 173.133L420.973 172.097L420.082 173.641L422.961 176.553Z" fill="#FF9C00"/>
<path d="M442.528 186.598L443.416 185.057L440.539 182.144L438.566 185.562L442.528 186.598Z" fill="#FF9C00"/>
<path d="M425.536 172.534L428.954 170.558L426.044 167.681L424.5 168.572L425.536 172.534Z" fill="#FF9C00"/>
<path d="M437.457 191.016L439.001 190.125L437.965 186.164L434.545 188.14L437.457 191.016Z" fill="#FF9C00"/>
<path d="M431.75 169.009C426.039 169.009 421.41 173.638 421.41 179.349C421.41 185.059 426.039 189.688 431.75 189.688C437.46 189.688 442.089 185.059 442.089 179.349C442.089 173.638 437.46 169.009 431.75 169.009ZM431.75 182.144C430.206 182.144 428.954 180.893 428.954 179.349C428.954 177.805 430.206 176.553 431.75 176.553C433.294 176.553 434.545 177.805 434.545 179.349C434.545 180.893 433.294 182.144 431.75 182.144Z" fill="#FF7500"/>
<path d="M439 179.349C439 175.344 435.755 172.097 431.748 172.097C427.741 172.097 424.496 175.342 424.496 179.349C424.496 183.355 427.741 186.601 431.748 186.601C435.755 186.601 439 183.355 439 179.349Z" stroke="#1A2E35" stroke-width="0.109186" stroke-miterlimit="10"/>
<path d="M395.883 227.54C395.883 227.54 394.019 227.307 394.019 230.45H391.825C391.825 230.45 392.803 223.209 391.825 222.391C390.462 221.248 389.949 216.424 390.726 215.644C384.497 217.752 374.493 216.47 374.493 216.47C374.493 216.47 369.937 214.822 372.502 212.257C375.066 209.692 372.484 207.402 376.844 207.402C381.204 207.402 380.01 202.732 385.551 204.472C391.094 206.211 393.747 201.085 395.398 206.12C397.046 211.158 401.571 207.951 399.859 212.897C398.145 217.843 407.845 218.209 403.409 221.505C398.971 224.801 396.863 222.206 395.885 227.538L395.883 227.54Z" fill="#232323"/>
<path d="M378.537 224.29C378.537 226.23 376.965 227.802 375.025 227.802C373.085 227.802 371.514 226.23 371.514 224.29C371.514 222.35 373.085 220.779 375.025 220.779C376.965 220.779 378.537 222.35 378.537 224.29Z" stroke="#FF7500" stroke-width="0.144734" stroke-linecap="round" stroke-linejoin="round"/>
<path d="M389.074 224.29C389.074 226.23 387.502 227.802 385.562 227.802C383.623 227.802 382.051 226.23 382.051 224.29C382.051 222.35 383.623 220.779 385.562 220.779C387.502 220.779 389.074 222.35 389.074 224.29Z" stroke="#FF7500" stroke-width="0.144734" stroke-linecap="round" stroke-linejoin="round"/>
<path d="M394.017 229.828C393.971 231.837 395.616 233.502 397.691 233.548C399.765 233.594 401.482 232.004 401.528 229.996C401.573 227.987 399.928 226.322 397.853 226.276C395.779 226.23 394.062 227.82 394.017 229.828Z" fill="#E3A88D"/>
<path d="M398.05 232.233C398.881 231.611 398.591 230.308 397.791 229.795C397.532 229.615 397.225 229.513 396.91 229.493C396.89 229.493 396.875 229.475 396.877 229.458C397.055 228.475 397.921 227.667 398.942 227.7C399.267 227.708 399.594 227.789 399.858 227.977C399.587 227.799 399.259 227.731 398.942 227.736C397.946 227.721 397.116 228.505 396.948 229.468L396.915 229.425C398.256 229.458 399.262 231.347 398.05 232.238V232.233Z" fill="#002A5D"/>
<path d="M374.159 217.856C378.395 218.341 382.77 218.557 386.942 217.544C388.305 217.173 389.687 216.637 390.71 215.629C390.728 215.611 390.761 215.634 390.748 215.657C390.55 216.099 390.387 216.553 390.26 217.021C390.024 217.955 389.91 218.933 390.009 219.895C390.075 220.365 390.141 220.88 390.458 221.253C389.877 220.469 389.933 219.38 389.974 218.445C390.057 217.478 390.306 216.525 390.702 215.639L390.74 215.667C389.712 216.685 388.326 217.231 386.954 217.612C382.775 218.633 378.387 218.399 374.154 217.861L374.159 217.856Z" fill="#002A5D"/>
<path d="M380.194 207.42C378.556 207.488 376.888 207.295 375.326 206.78C376.913 207.204 378.554 207.395 380.194 207.42Z" fill="#002A5D"/>
<path d="M378.533 224.29H382.086" stroke="#FF7500" stroke-width="0.144734" stroke-linecap="round" stroke-linejoin="round"/>
<path d="M389.074 224.29L396.633 226.446" stroke="#FF7500" stroke-width="0.144734" stroke-linecap="round" stroke-linejoin="round"/>
<path d="M408.421 267.345C408.878 267.802 418.583 279.302 418.583 279.302L408.357 272.301L408.418 267.348L408.421 267.345Z" fill="#232323"/>
<path d="M434.856 234.665C434.856 234.665 430.098 229.298 431.314 226.867C432.53 224.437 436.357 228.736 436.357 228.736C436.357 228.736 443.248 229.237 443.934 234.668" fill="#E3A88D"/>
<path d="M435.834 229.973C437.975 228.815 440.702 229.11 442.334 230.981C442.56 231.23 442.751 231.512 442.962 231.776C442.743 231.52 442.545 231.245 442.309 231.007C440.676 229.183 437.975 228.909 435.834 229.976V229.973Z" fill="#002A5D"/>
<path d="M37 480.153C152.894 480.051 386.115 480.051 501.981 480.153C386.087 480.254 152.866 480.254 37 480.153Z" fill="#002A5D"/>
<path d="M183.865 328.585L186.78 326.513H223.154L220.265 328.585H183.865Z" fill="#606060"/>
</g>
<defs>
<clipPath id="clip0_2162_10005">
<rect width="502" height="506.571" fill="white"/>
</clipPath>
</defs>
</svg>
