<svg width="693" height="195" viewBox="0 0 693 195" fill="none" xmlns="http://www.w3.org/2000/svg">
<path d="M15.3 36.5V35.5H14.3V36.5H15.3ZM48.9 36.5H49.9V35.5H48.9V36.5ZM48.9 49.5V50.5H49.9V49.5H48.9ZM15.3 49.5H14.3V50.5H15.3V49.5ZM16.5 75V76H17.5V75H16.5ZM0.3 75H-0.7V76H0.3V75ZM0.3 5V4H-0.7V5H0.3ZM53.2 5H54.2V4H53.2V5ZM53.2 18V19H54.2V18H53.2ZM16.5 18V17H15.5V18H16.5ZM15.3 37.5H48.9V35.5H15.3V37.5ZM47.9 36.5V49.5H49.9V36.5H47.9ZM48.9 48.5H15.3V50.5H48.9V48.5ZM16.3 49.5V36.5H14.3V49.5H16.3ZM16.5 74H0.3V76H16.5V74ZM1.3 75V5H-0.7V75H1.3ZM0.3 6H53.2V4H0.3V6ZM52.2 5V18H54.2V5H52.2ZM53.2 17H16.5V19H53.2V17ZM15.5 18V75H17.5V18H15.5ZM62.0906 75H61.0906V76H62.0906V75ZM62.0906 21.2V20.2H61.0906V21.2H62.0906ZM76.9906 21.2H77.9906V20.2H76.9906V21.2ZM76.9906 36.4L76.0881 36.8307L77.9906 36.4H76.9906ZM74.8906 32L73.969 31.6119L73.7948 32.0256L73.9881 32.4307L74.8906 32ZM82.5906 23.4L83.0706 24.2773L83.077 24.2738L83.0832 24.2703L82.5906 23.4ZM95.4906 20.4H96.4906V19.4H95.4906V20.4ZM95.4906 34.8L95.3911 35.795L96.4906 35.905V34.8H95.4906ZM93.6906 34.7L93.5666 35.6923L93.6284 35.7H93.6906V34.7ZM81.5906 38.3L82.2689 39.0348L82.2697 39.0341L81.5906 38.3ZM77.6906 75V76H78.6906V75H77.6906ZM63.0906 75V21.2H61.0906V75H63.0906ZM62.0906 22.2H76.9906V20.2H62.0906V22.2ZM75.9906 21.2V36.4H77.9906V21.2H75.9906ZM77.8931 35.9693L75.7931 31.5693L73.9881 32.4307L76.0881 36.8307L77.8931 35.9693ZM75.8123 32.3881C77.3268 28.791 79.7406 26.0994 83.0706 24.2773L82.1106 22.5227C78.374 24.5673 75.6544 27.609 73.969 31.6119L75.8123 32.3881ZM83.0832 24.2703C86.4334 22.3739 90.5544 21.4 95.4906 21.4V19.4C90.2936 19.4 85.8145 20.4261 82.098 22.5297L83.0832 24.2703ZM94.4906 20.4V34.8H96.4906V20.4H94.4906ZM95.5901 33.805C94.8984 33.7358 94.2643 33.7 93.6906 33.7V35.7C94.1836 35.7 94.7496 35.7309 95.3911 35.795L95.5901 33.805ZM93.8147 33.7077C93.2358 33.6354 92.6274 33.6 91.9906 33.6V35.6C92.5539 35.6 93.0788 35.6313 93.5666 35.6923L93.8147 33.7077ZM91.9906 33.6C87.519 33.6 83.7948 34.899 80.9116 37.5659L82.2697 39.0341C84.7198 36.7677 87.9289 35.6 91.9906 35.6V33.6ZM80.9123 37.5652C78.0293 40.2265 76.6906 44.3151 76.6906 49.6H78.6906C78.6906 44.6182 79.952 41.1735 82.2689 39.0348L80.9123 37.5652ZM76.6906 49.6V75H78.6906V49.6H76.6906ZM77.6906 74H62.0906V76H77.6906V74ZM114.676 72.2L114.197 73.0779L114.202 73.0809L114.676 72.2ZM104.176 62.4L103.319 62.9165L103.324 62.9245L103.329 62.9324L104.176 62.4ZM104.176 33.8L103.326 33.2736L103.323 33.2774L104.176 33.8ZM114.676 24L115.144 24.8835L115.149 24.8809L114.676 24ZM145.176 24L144.702 24.8809L144.713 24.8863L145.176 24ZM155.676 62.4L156.528 62.9226L156.532 62.9165L155.676 62.4ZM145.176 72.2L144.702 71.3191L145.176 72.2ZM136.976 61.2L137.478 62.0648L136.976 61.2ZM141.876 56.1L142.754 56.5789L142.76 56.5679L141.876 56.1ZM141.876 40.1L140.998 40.5788L141.876 40.1ZM136.976 35L136.474 35.8648L136.976 35ZM122.976 35L123.478 35.8648L122.976 35ZM117.976 40.1L117.109 39.601L117.103 39.611L117.098 39.6211L117.976 40.1ZM117.976 56.1L117.092 56.5679L117.1 56.5836L117.109 56.599L117.976 56.1ZM122.976 61.2L123.478 60.3352L122.976 61.2ZM129.976 74.8C124.386 74.8 119.452 73.6312 115.149 71.3191L114.202 73.0809C118.833 75.5688 124.099 76.8 129.976 76.8V74.8ZM115.155 71.3221C110.901 69.0017 107.529 65.8523 105.022 61.8675L103.329 62.9324C106.023 67.2144 109.651 70.5983 114.197 73.0779L115.155 71.3221ZM105.032 61.8835C102.601 57.8529 101.376 53.2677 101.376 48.1H99.3758C99.3758 53.5989 100.684 58.5471 103.319 62.9165L105.032 61.8835ZM101.376 48.1C101.376 42.8628 102.602 38.2812 105.028 34.3226L103.323 33.2774C100.683 37.5855 99.3758 42.5372 99.3758 48.1H101.376ZM105.026 34.3264C107.532 30.2784 110.9 27.1344 115.144 24.8835L114.207 23.1165C109.652 25.5322 106.02 28.9216 103.326 33.2736L105.026 34.3264ZM115.149 24.8809C119.452 22.5688 124.386 21.4 129.976 21.4V19.4C124.099 19.4 118.833 20.6312 114.202 23.1191L115.149 24.8809ZM129.976 21.4C135.497 21.4 140.398 22.5679 144.702 24.8809L145.649 23.1191C141.02 20.6321 135.788 19.4 129.976 19.4V21.4ZM144.713 24.8863C149.026 27.1394 152.388 30.2498 154.823 34.2226L156.528 33.1774C153.897 28.8836 150.259 25.5273 145.639 23.1136L144.713 24.8863ZM154.823 34.2226C157.248 38.1792 158.476 42.7936 158.476 48.1H160.476C160.476 42.473 159.17 37.4874 156.528 33.1774L154.823 34.2226ZM158.476 48.1C158.476 53.2677 157.251 57.8529 154.819 61.8835L156.532 62.9165C159.168 58.5471 160.476 53.5989 160.476 48.1H158.476ZM154.823 61.8774C152.387 65.8528 149.021 68.9989 144.702 71.3191L145.649 73.0809C150.264 70.6011 153.898 67.2139 156.528 62.9226L154.823 61.8774ZM144.702 71.3191C140.398 73.6321 135.497 74.8 129.976 74.8V76.8C135.788 76.8 141.02 75.5679 145.649 73.0809L144.702 71.3191ZM129.976 64C132.736 64 135.245 63.3611 137.478 62.0648L136.474 60.3352C134.573 61.4389 132.415 62 129.976 62V64ZM137.478 62.0648C139.711 60.7684 141.471 58.9313 142.754 56.5788L140.998 55.6211C139.881 57.6687 138.374 59.2316 136.474 60.3352L137.478 62.0648ZM142.76 56.5679C144.049 54.1314 144.676 51.298 144.676 48.1H142.676C142.676 51.0353 142.102 53.5353 140.992 55.6321L142.76 56.5679ZM144.676 48.1C144.676 44.8405 144.051 42.0004 142.754 39.6211L140.998 40.5788C142.1 42.5996 142.676 45.0928 142.676 48.1H144.676ZM142.754 39.6211C141.471 37.2687 139.711 35.4316 137.478 34.1352L136.474 35.8648C138.374 36.9684 139.881 38.5313 140.998 40.5788L142.754 39.6211ZM137.478 34.1352C135.245 32.8389 132.736 32.2 129.976 32.2V34.2C132.415 34.2 134.573 34.7611 136.474 35.8648L137.478 34.1352ZM129.976 32.2C127.215 32.2 124.706 32.8389 122.474 34.1352L123.478 35.8648C125.379 34.7611 127.536 34.2 129.976 34.2V32.2ZM122.474 34.1352C120.246 35.4286 118.458 37.2591 117.109 39.601L118.842 40.599C120.027 38.5409 121.572 36.9714 123.478 35.8648L122.474 34.1352ZM117.098 39.6211C115.8 42.0004 115.176 44.8405 115.176 48.1H117.176C117.176 45.0928 117.751 42.5996 118.854 40.5788L117.098 39.6211ZM115.176 48.1C115.176 51.298 115.802 54.1314 117.092 56.5679L118.86 55.6321C117.749 53.5353 117.176 51.0353 117.176 48.1H115.176ZM117.109 56.599C118.458 58.9409 120.246 60.7714 122.474 62.0648L123.478 60.3352C121.572 59.2286 120.027 57.6591 118.842 55.601L117.109 56.599ZM122.474 62.0648C124.706 63.3611 127.215 64 129.976 64V62C127.536 62 125.379 61.4389 123.478 60.3352L122.474 62.0648ZM214.003 23L213.542 23.8872L213.552 23.8927L213.563 23.8979L214.003 23ZM222.003 30.8L221.126 31.28L221.13 31.2871L222.003 30.8ZM224.903 75V76H225.903V75H224.903ZM209.303 75H208.303V76H209.303V75ZM206.403 37L205.661 37.6703L205.667 37.6768L205.673 37.6832L206.403 37ZM191.703 35.5L192.163 36.3883L192.174 36.3824L191.703 35.5ZM187.103 40.2L186.22 39.7308L186.214 39.7417L186.209 39.7528L187.103 40.2ZM185.503 75V76H186.503V75H185.503ZM169.903 75H168.903V76H169.903V75ZM169.903 21.2V20.2H168.903V21.2H169.903ZM184.803 21.2H185.803V20.2H184.803V21.2ZM184.803 36.1L183.954 36.6283L185.803 39.6V36.1H184.803ZM182.003 31.6L181.122 31.1269L180.848 31.6368L181.154 32.1283L182.003 31.6ZM190.303 23.3L190.776 24.181L190.303 23.3ZM202.603 21.4C206.731 21.4 210.369 22.2375 213.542 23.8872L214.464 22.1128C210.97 20.2958 207.008 19.4 202.603 19.4V21.4ZM213.563 23.8979C216.766 25.4678 219.285 27.9156 221.126 31.28L222.88 30.32C220.855 26.6178 218.041 23.8655 214.443 22.1021L213.563 23.8979ZM221.13 31.2871C222.955 34.5592 223.903 38.8425 223.903 44.2H225.903C225.903 38.6241 224.918 33.9742 222.876 30.3129L221.13 31.2871ZM223.903 44.2V75H225.903V44.2H223.903ZM224.903 74H209.303V76H224.903V74ZM210.303 75V46.6H208.303V75H210.303ZM210.303 46.6C210.303 42.1438 209.312 38.6462 207.133 36.3168L205.673 37.6832C207.36 39.4872 208.303 42.3896 208.303 46.6H210.303ZM207.145 36.3297C205.044 34.0036 202.078 32.9 198.403 32.9V34.9C201.661 34.9 204.029 35.8631 205.661 37.6703L207.145 36.3297ZM198.403 32.9C195.787 32.9 193.39 33.467 191.233 34.6176L192.174 36.3824C194.016 35.3996 196.086 34.9 198.403 34.9V32.9ZM191.244 34.6118C189.11 35.7153 187.438 37.4386 186.22 39.7308L187.986 40.6692C189.035 38.6948 190.429 37.2847 192.163 36.3882L191.244 34.6118ZM186.209 39.7528C185.051 42.0689 184.503 44.9694 184.503 48.4H186.503C186.503 45.1639 187.022 42.5977 187.998 40.6472L186.209 39.7528ZM184.503 48.4V75H186.503V48.4H184.503ZM185.503 74H169.903V76H185.503V74ZM170.903 75V21.2H168.903V75H170.903ZM169.903 22.2H184.803V20.2H169.903V22.2ZM183.803 21.2V36.1H185.803V21.2H183.803ZM185.652 35.5717L182.852 31.0717L181.154 32.1283L183.954 36.6283L185.652 35.5717ZM182.884 32.0731C184.725 28.6462 187.349 26.0214 190.776 24.181L189.83 22.419C186.057 24.4453 183.148 27.3538 181.122 31.1269L182.884 32.0731ZM190.776 24.181C194.213 22.3352 198.147 21.4 202.603 21.4V19.4C197.859 19.4 193.593 20.3982 189.83 22.419L190.776 24.181ZM246.244 71L245.565 71.7343L245.572 71.7412L246.244 71ZM240.944 9.3V8.3H239.944V9.3H240.944ZM256.544 9.3H257.544V8.3H256.544V9.3ZM258.344 61.6L257.618 62.2877L257.627 62.2976L257.637 62.3071L258.344 61.6ZM269.544 61.4L270.478 61.0433L269.999 59.7883L268.934 60.6074L269.544 61.4ZM273.744 72.4L274.322 73.216L274.955 72.7678L274.678 72.0433L273.744 72.4ZM267.944 75L268.179 75.9718L268.19 75.9694L268.2 75.9667L267.944 75ZM232.644 34.4H231.644V35.4H232.644V34.4ZM232.644 22.4V21.4H231.644V22.4H232.644ZM269.944 22.4H270.944V21.4H269.944V22.4ZM269.944 34.4V35.4H270.944V34.4H269.944ZM261.044 74.8C254.875 74.8 250.211 73.2438 246.915 70.2588L245.572 71.7412C249.343 75.1562 254.545 76.8 261.044 76.8V74.8ZM246.923 70.2657C243.655 67.2451 241.944 62.7175 241.944 56.5H239.944C239.944 63.0825 241.765 68.2216 245.565 71.7343L246.923 70.2657ZM241.944 56.5V9.3H239.944V56.5H241.944ZM240.944 10.3H256.544V8.3H240.944V10.3ZM255.544 9.3V56.3H257.544V9.3H255.544ZM255.544 56.3C255.544 58.7434 256.194 60.7849 257.618 62.2877L259.07 60.9123C258.093 59.8818 257.544 58.3899 257.544 56.3H255.544ZM257.637 62.3071C259.064 63.7341 260.973 64.4 263.244 64.4V62.4C261.381 62.4 260.024 61.8659 259.051 60.8929L257.637 62.3071ZM263.244 64.4C265.901 64.4 268.223 63.6775 270.153 62.1926L268.934 60.6074C267.398 61.7892 265.52 62.4 263.244 62.4V64.4ZM268.61 61.7567L272.81 72.7567L274.678 72.0433L270.478 61.0433L268.61 61.7567ZM273.166 71.584C271.68 72.6362 269.861 73.458 267.688 74.0333L268.2 75.9667C270.56 75.342 272.607 74.4305 274.322 73.216L273.166 71.584ZM267.708 74.0282C265.59 74.5417 263.369 74.8 261.044 74.8V76.8C263.518 76.8 265.898 76.525 268.179 75.9718L267.708 74.0282ZM233.644 34.4V22.4H231.644V34.4H233.644ZM232.644 23.4H269.944V21.4H232.644V23.4ZM268.944 22.4V34.4H270.944V22.4H268.944ZM269.944 33.4H232.644V35.4H269.944V33.4ZM291.341 72.2L290.878 73.0866L290.883 73.0893L291.341 72.2ZM280.641 62.4L279.784 62.9165L279.788 62.9226L280.641 62.4ZM280.541 33.8L279.684 33.2835L279.682 33.2875L280.541 33.8ZM290.841 24L291.315 24.8805L291.325 24.8748L290.841 24ZM319.741 23.8L319.266 24.68L319.274 24.6845L319.282 24.6888L319.741 23.8ZM329.841 33.4L328.978 33.9064L328.982 33.9125L329.841 33.4ZM333.441 50.4L334.437 50.4905L334.437 50.483L333.441 50.4ZM333.241 52.5V53.5H334.146L334.236 52.5995L333.241 52.5ZM289.541 52.5H288.541V53.5H289.541V52.5ZM289.541 43.4V42.4H288.541V43.4H289.541ZM325.041 43.4L325.451 44.3119L325.041 42.4V43.4ZM319.041 46.1H318.041V47.6466L319.451 47.0119L319.041 46.1ZM317.341 38.8L316.464 39.2808L317.341 38.8ZM312.641 34L312.126 34.8575L312.137 34.8639L312.148 34.87L312.641 34ZM298.541 34L299.034 34.8701L299.043 34.8648L298.541 34ZM293.841 38.9L294.718 39.3809L294.724 39.3692L293.841 38.9ZM294.041 56.5L293.168 56.9878L293.176 57.0032L293.185 57.0183L294.041 56.5ZM299.541 61.6L299.083 62.4893L299.098 62.497L299.114 62.5042L299.541 61.6ZM315.441 62L315.074 61.0695L315.064 61.0735L315.441 62ZM321.441 58.1L322.176 57.4221L321.483 56.6709L320.747 57.3797L321.441 58.1ZM329.741 67.1L330.491 67.761L331.087 67.0847L330.476 66.4221L329.741 67.1ZM320.441 73.6L320.806 74.5308L320.813 74.5279L320.821 74.525L320.441 73.6ZM307.541 74.8C301.54 74.8 296.301 73.6266 291.798 71.3107L290.883 73.0893C295.714 75.5734 301.275 76.8 307.541 76.8V74.8ZM291.803 71.3134C287.352 68.9911 283.925 65.8455 281.493 61.8774L279.788 62.9226C282.423 67.2212 286.129 70.6089 290.878 73.0866L291.803 71.3134ZM281.497 61.8835C279.066 57.8529 277.841 53.2677 277.841 48.1H275.841C275.841 53.5989 277.149 58.5471 279.784 62.9165L281.497 61.8835ZM277.841 48.1C277.841 42.8579 279.036 38.2726 281.399 34.3125L279.682 33.2875C277.112 37.5941 275.841 42.5421 275.841 48.1H277.841ZM281.397 34.3165C283.837 30.2704 287.139 27.1292 291.315 24.8805L290.367 23.1195C285.876 25.5375 282.311 28.9296 279.684 33.2835L281.397 34.3165ZM291.325 24.8748C295.495 22.5652 300.225 21.4 305.541 21.4V19.4C299.922 19.4 294.853 20.6348 290.356 23.1252L291.325 24.8748ZM305.541 21.4C310.659 21.4 315.226 22.5 319.266 24.68L320.216 22.92C315.855 20.5666 310.956 19.4 305.541 19.4V21.4ZM319.282 24.6888C323.378 26.8008 326.606 29.867 328.978 33.9064L330.703 32.8936C328.142 28.533 324.636 25.1992 320.199 22.9112L319.282 24.6888ZM328.982 33.9125C331.339 37.8618 332.541 42.6434 332.541 48.3H334.541C334.541 42.3566 333.276 37.2048 330.699 32.8875L328.982 33.9125ZM332.541 48.3C332.541 48.8648 332.509 49.536 332.444 50.317L334.437 50.483C334.505 49.664 334.541 48.9352 334.541 48.3H332.541ZM332.445 50.3095C332.378 51.0401 332.312 51.7371 332.246 52.4005L334.236 52.5995C334.303 51.9296 334.37 51.2266 334.437 50.4905L332.445 50.3095ZM333.241 51.5H289.541V53.5H333.241V51.5ZM290.541 52.5V43.4H288.541V52.5H290.541ZM289.541 44.4H325.041V42.4H289.541V44.4ZM324.63 42.4881L318.63 45.1881L319.451 47.0119L325.451 44.3119L324.63 42.4881ZM320.041 46.1C320.041 43.1635 319.446 40.5586 318.217 38.3192L316.464 39.2808C317.502 41.1747 318.041 43.4365 318.041 46.1H320.041ZM318.217 38.3192C316.997 36.094 315.299 34.3573 313.134 33.13L312.148 34.87C313.982 35.9094 315.417 37.3727 316.464 39.2808L318.217 38.3192ZM313.155 33.1425C310.978 31.8365 308.462 31.2 305.641 31.2V33.2C308.153 33.2 310.303 33.7635 312.126 34.8575L313.155 33.1425ZM305.641 31.2C302.819 31.2 300.275 31.8367 298.038 33.1352L299.043 34.8648C300.94 33.7633 303.129 33.2 305.641 33.2V31.2ZM298.048 33.13C295.873 34.362 294.175 36.1385 292.958 38.4308L294.724 39.3692C295.773 37.3949 297.208 35.9047 299.034 34.87L298.048 33.13ZM292.964 38.4192C291.734 40.6619 291.141 43.3013 291.141 46.3H293.141C293.141 43.5653 293.681 41.2714 294.717 39.3808L292.964 38.4192ZM291.141 46.3V48.7H293.141V46.3H291.141ZM291.141 48.7C291.141 51.7816 291.807 54.5536 293.168 56.9878L294.914 56.0122C293.741 53.9131 293.141 51.4851 293.141 48.7H291.141ZM293.185 57.0183C294.617 59.3796 296.589 61.2065 299.083 62.4893L299.998 60.7107C297.826 59.5935 296.131 58.0204 294.896 55.9817L293.185 57.0183ZM299.114 62.5042C301.672 63.7123 304.623 64.3 307.941 64.3V62.3C304.858 62.3 302.209 61.7544 299.968 60.6957L299.114 62.5042ZM307.941 64.3C310.906 64.3 313.539 63.852 315.817 62.9265L315.064 61.0735C313.076 61.8813 310.709 62.3 307.941 62.3V64.3ZM315.807 62.9304C318.136 62.0131 320.245 60.6392 322.134 58.8203L320.747 57.3797C319.036 59.0275 317.146 60.2536 315.074 61.0696L315.807 62.9304ZM320.706 58.7779L329.006 67.7779L330.476 66.4221L322.176 57.4221L320.706 58.7779ZM328.99 66.439C326.633 69.1145 323.664 71.1952 320.061 72.675L320.821 74.525C324.684 72.9382 327.915 70.6855 330.491 67.761L328.99 66.439ZM320.075 72.6693C316.48 74.0815 312.308 74.8 307.541 74.8V76.8C312.506 76.8 316.935 76.0518 320.806 74.5308L320.075 72.6693ZM388.027 23L387.565 23.8872L387.576 23.8927L387.586 23.8979L388.027 23ZM396.027 30.8L395.149 31.28L395.153 31.2871L396.027 30.8ZM398.927 75V76H399.927V75H398.927ZM383.327 75H382.327V76H383.327V75ZM380.427 37L379.684 37.6703L379.69 37.6768L379.696 37.6832L380.427 37ZM365.727 35.5L366.186 36.3883L366.197 36.3824L365.727 35.5ZM361.127 40.2L360.243 39.7308L360.238 39.7417L360.232 39.7528L361.127 40.2ZM359.527 75V76H360.527V75H359.527ZM343.927 75H342.927V76H343.927V75ZM343.927 21.2V20.2H342.927V21.2H343.927ZM358.827 21.2H359.827V20.2H358.827V21.2ZM358.827 36.1L357.978 36.6283L359.827 39.6V36.1H358.827ZM356.027 31.6L355.146 31.1269L354.872 31.6368L355.178 32.1283L356.027 31.6ZM364.327 23.3L364.8 24.181L364.327 23.3ZM376.627 21.4C380.755 21.4 384.393 22.2375 387.565 23.8872L388.488 22.1128C384.994 20.2958 381.032 19.4 376.627 19.4V21.4ZM387.586 23.8979C390.789 25.4678 393.308 27.9156 395.149 31.28L396.904 30.32C394.878 26.6178 392.064 23.8655 388.467 22.1021L387.586 23.8979ZM395.153 31.2871C396.978 34.5592 397.927 38.8425 397.927 44.2H399.927C399.927 38.6241 398.942 33.9742 396.9 30.3129L395.153 31.2871ZM397.927 44.2V75H399.927V44.2H397.927ZM398.927 74H383.327V76H398.927V74ZM384.327 75V46.6H382.327V75H384.327ZM384.327 46.6C384.327 42.1438 383.336 38.6462 381.157 36.3168L379.696 37.6832C381.384 39.4872 382.327 42.3896 382.327 46.6H384.327ZM381.169 36.3297C379.068 34.0036 376.102 32.9 372.427 32.9V34.9C375.685 34.9 378.052 35.8631 379.684 37.6703L381.169 36.3297ZM372.427 32.9C369.811 32.9 367.413 33.467 365.256 34.6176L366.197 36.3824C368.04 35.3996 370.109 34.9 372.427 34.9V32.9ZM365.267 34.6118C363.134 35.7153 361.461 37.4386 360.243 39.7308L362.01 40.6692C363.059 38.6948 364.453 37.2847 366.186 36.3882L365.267 34.6118ZM360.232 39.7528C359.074 42.0689 358.527 44.9694 358.527 48.4H360.527C360.527 45.1639 361.046 42.5977 362.021 40.6472L360.232 39.7528ZM358.527 48.4V75H360.527V48.4H358.527ZM359.527 74H343.927V76H359.527V74ZM344.927 75V21.2H342.927V75H344.927ZM343.927 22.2H358.827V20.2H343.927V22.2ZM357.827 21.2V36.1H359.827V21.2H357.827ZM359.676 35.5717L356.876 31.0717L355.178 32.1283L357.978 36.6283L359.676 35.5717ZM356.908 32.0731C358.748 28.6462 361.373 26.0214 364.8 24.181L363.853 22.419C360.08 24.4453 357.172 27.3538 355.146 31.1269L356.908 32.0731ZM364.8 24.181C368.237 22.3352 372.171 21.4 376.627 21.4V19.4C371.883 19.4 367.616 20.3982 363.853 22.419L364.8 24.181ZM422.858 72.4L422.36 73.2674L422.371 73.2735L422.858 72.4ZM413.158 62.7L412.287 63.1916L412.293 63.2021L413.158 62.7ZM413.158 33.4L412.293 32.8978L412.287 32.9084L413.158 33.4ZM422.858 23.8L422.371 22.9265L422.858 23.8ZM448.458 23.4L448.965 22.5381L448.458 23.4ZM456.358 32.5L457.267 32.0828L456.358 32.5ZM456.458 63.7L457.372 64.1048L457.375 64.0993L456.458 63.7ZM448.658 72.8L448.151 71.938L448.143 71.9425L448.658 72.8ZM446.158 61.2L445.656 60.3352L446.158 61.2ZM451.058 56.1L450.185 55.6122L450.18 55.6211L451.058 56.1ZM451.058 40.1L450.18 40.5788L450.185 40.589L450.191 40.599L451.058 40.1ZM446.158 35L445.656 35.8648L446.158 35ZM432.258 35L432.76 35.8648L432.258 35ZM427.258 40.1L426.391 39.601L426.385 39.611L426.38 39.6211L427.258 40.1ZM427.258 56.1L426.374 56.5679L426.382 56.5836L426.391 56.599L427.258 56.1ZM432.258 61.2L432.76 60.3352L432.258 61.2ZM453.358 75H452.358V76H453.358V75ZM453.358 64L452.358 63.9813L452.358 63.9906V64H453.358ZM453.658 48L454.658 48.0187L454.658 47.978L454.656 47.9372L453.658 48ZM452.658 32.1H451.658V32.1314L451.66 32.1628L452.658 32.1ZM452.658 0.799995V-0.200005H451.658V0.799995H452.658ZM468.258 0.799995H469.258V-0.200005H468.258V0.799995ZM468.258 75V76H469.258V75H468.258ZM436.558 74.8C431.646 74.8 427.25 73.703 423.345 71.5265L422.371 73.2735C426.599 75.6303 431.336 76.8 436.558 76.8V74.8ZM423.355 71.5326C419.444 69.2885 416.336 66.1824 414.023 62.1979L412.293 63.2021C414.779 67.4842 418.138 70.8449 422.36 73.2674L423.355 71.5326ZM414.029 62.2084C411.794 58.25 410.658 53.5589 410.658 48.1H408.658C408.658 53.8411 409.855 58.8833 412.287 63.1916L414.029 62.2084ZM410.658 48.1C410.658 42.5722 411.795 37.8483 414.029 33.8916L412.287 32.9084C409.854 37.2184 408.658 42.2945 408.658 48.1H410.658ZM414.023 33.9021C416.335 29.92 419.439 26.8502 423.345 24.6735L422.371 22.9265C418.143 25.2831 414.781 28.6134 412.293 32.8979L414.023 33.9021ZM423.345 24.6735C427.25 22.497 431.646 21.4 436.558 21.4V19.4C431.336 19.4 426.599 20.5697 422.371 22.9265L423.345 24.6735ZM436.558 21.4C440.94 21.4 444.726 22.3651 447.951 24.2619L448.965 22.5381C445.389 20.4349 441.242 19.4 436.558 19.4V21.4ZM447.951 24.2619C451.151 26.1447 453.656 29.0104 455.449 32.9172L457.267 32.0828C455.327 27.8562 452.564 24.6553 448.965 22.5381L447.951 24.2619ZM455.449 32.9172C457.236 36.8104 458.158 41.855 458.158 48.1H460.158C460.158 41.6783 459.213 36.3229 457.267 32.0828L455.449 32.9172ZM458.158 48.1C458.158 54.2793 457.269 59.3323 455.541 63.3007L457.375 64.0993C459.246 59.801 460.158 54.454 460.158 48.1H458.158ZM455.543 63.2952C453.817 67.1961 451.348 70.0574 448.151 71.9381L449.165 73.6619C452.768 71.5426 455.499 68.3373 457.372 64.1047L455.543 63.2952ZM448.143 71.9425C444.996 73.8309 441.149 74.8 436.558 74.8V76.8C441.433 76.8 445.653 75.7691 449.172 73.6575L448.143 71.9425ZM439.258 64C441.957 64 444.432 63.3587 446.66 62.0648L445.656 60.3352C443.751 61.4413 441.626 62 439.258 62V64ZM446.66 62.0648C448.893 60.7684 450.653 58.9313 451.936 56.5788L450.18 55.6211C449.063 57.6687 447.556 59.2316 445.656 60.3352L446.66 62.0648ZM451.931 56.5878C453.295 54.1471 453.958 51.3064 453.958 48.1H451.958C451.958 51.0269 451.354 53.5195 450.185 55.6122L451.931 56.5878ZM453.958 48.1C453.958 44.8322 453.297 41.9846 451.924 39.601L450.191 40.599C451.352 42.6154 451.958 45.1011 451.958 48.1H453.958ZM451.936 39.6211C450.653 37.2687 448.893 35.4316 446.66 34.1352L445.656 35.8648C447.556 36.9684 449.063 38.5313 450.18 40.5788L451.936 39.6211ZM446.66 34.1352C444.432 32.8413 441.957 32.2 439.258 32.2V34.2C441.626 34.2 443.751 34.7587 445.656 35.8648L446.66 34.1352ZM439.258 32.2C436.497 32.2 433.988 32.8389 431.756 34.1352L432.76 35.8648C434.661 34.7611 436.818 34.2 439.258 34.2V32.2ZM431.756 34.1352C429.528 35.4286 427.74 37.2591 426.391 39.601L428.124 40.599C429.309 38.5409 430.854 36.9714 432.76 35.8648L431.756 34.1352ZM426.38 39.6211C425.082 42.0004 424.458 44.8405 424.458 48.1H426.458C426.458 45.0928 427.033 42.5996 428.136 40.5788L426.38 39.6211ZM424.458 48.1C424.458 51.298 425.084 54.1314 426.374 56.5679L428.142 55.6321C427.032 53.5353 426.458 51.0353 426.458 48.1H424.458ZM426.391 56.599C427.74 58.9409 429.528 60.7714 431.756 62.0648L432.76 60.3352C430.854 59.2286 429.309 57.6591 428.124 55.601L426.391 56.599ZM431.756 62.0648C433.988 63.3611 436.497 64 439.258 64V62C436.818 62 434.661 61.4389 432.76 60.3352L431.756 62.0648ZM454.358 75V64H452.358V75H454.358ZM454.358 64.0187L454.658 48.0187L452.658 47.9813L452.358 63.9813L454.358 64.0187ZM454.656 47.9372L453.656 32.0372L451.66 32.1628L452.66 48.0628L454.656 47.9372ZM453.658 32.1V0.799995H451.658V32.1H453.658ZM452.658 1.8H468.258V-0.200005H452.658V1.8ZM467.258 0.799995V75H469.258V0.799995H467.258ZM468.258 74H453.358V76H468.258V74ZM0.3 175H-0.7V176H0.3V175ZM0.3 105V104H-0.7V105H0.3ZM52.2 109.4L51.7487 110.292L51.7569 110.296L52.2 109.4ZM65.8 121.5L64.9532 122.032L65.8 121.5ZM65.8 158.5L66.6468 159.032L66.6498 159.027L65.8 158.5ZM52.2 170.7L52.6431 171.597L52.6513 171.592L52.2 170.7ZM16.5 161.7H15.5V162.7H16.5V161.7ZM43.4 159.1L43.8542 159.991L43.8608 159.987L43.4 159.1ZM51.4 151.5L50.5394 150.991L50.5355 150.997L50.5318 151.004L51.4 151.5ZM51.4 128.5L50.5318 128.996L50.5378 129.007L50.5441 129.017L51.4 128.5ZM43.4 121L42.9321 121.884L42.9424 121.889L42.9528 121.894L43.4 121ZM16.5 118.3V117.3H15.5V118.3H16.5ZM1.3 175V105H-0.7V175H1.3ZM0.3 106H32.1V104H0.3V106ZM32.1 106C39.5697 106 46.1105 107.441 51.7487 110.292L52.6513 108.508C46.6895 105.492 39.8303 104 32.1 104V106ZM51.7569 110.296C57.4005 113.086 61.7902 116.997 64.9532 122.032L66.6468 120.968C63.2765 115.603 58.5995 111.447 52.6431 108.504L51.7569 110.296ZM64.9532 122.032C68.1045 127.048 69.7 133.024 69.7 140H71.7C71.7 132.709 70.0289 126.352 66.6468 120.968L64.9532 122.032ZM69.7 140C69.7 146.907 68.1055 152.886 64.9502 157.973L66.6498 159.027C70.0278 153.581 71.7 147.226 71.7 140H69.7ZM64.9532 157.968C61.7889 163.005 57.3964 166.951 51.7487 169.808L52.6513 171.592C58.6036 168.582 63.2778 164.395 66.6468 159.032L64.9532 157.968ZM51.7569 169.804C46.1168 172.591 39.573 174 32.1 174V176C39.827 176 46.6832 174.542 52.6431 171.596L51.7569 169.804ZM32.1 174H0.3V176H32.1V174ZM16.5 162.7H31.3V160.7H16.5V162.7ZM31.3 162.7C36.0899 162.7 40.2856 161.81 43.8542 159.991L42.9458 158.209C39.7144 159.856 35.8434 160.7 31.3 160.7V162.7ZM43.8608 159.987C47.4912 158.102 50.3024 155.436 52.2682 151.996L50.5318 151.004C48.7642 154.097 46.2421 156.498 42.9392 158.213L43.8608 159.987ZM52.2606 152.009C54.2989 148.565 55.3 144.55 55.3 140H53.3C53.3 144.25 52.3678 147.901 50.5394 150.991L52.2606 152.009ZM55.3 140C55.3 135.387 54.3004 131.367 52.2559 127.983L50.5441 129.017C52.3663 132.033 53.3 135.68 53.3 140H55.3ZM52.2682 128.004C50.3005 124.56 47.4848 121.924 43.8472 120.106L42.9528 121.894C46.2485 123.542 48.7661 125.906 50.5318 128.996L52.2682 128.004ZM43.8679 120.116C40.2961 118.225 36.0954 117.3 31.3 117.3V119.3C35.838 119.3 39.7039 120.175 42.9321 121.884L43.8679 120.116ZM31.3 117.3H16.5V119.3H31.3V117.3ZM15.5 118.3V161.7H17.5V118.3H15.5ZM92.3172 172.2L91.8546 173.087L91.8598 173.089L92.3172 172.2ZM81.6172 162.4L80.7609 162.917L80.7646 162.923L81.6172 162.4ZM81.5172 133.8L80.6609 133.283L80.6585 133.288L81.5172 133.8ZM91.8172 124L92.2913 124.881L92.3017 124.875L91.8172 124ZM120.717 123.8L120.242 124.68L120.251 124.684L120.259 124.689L120.717 123.8ZM130.817 133.4L129.955 133.906L129.958 133.912L130.817 133.4ZM134.417 150.4L135.413 150.491L135.414 150.483L134.417 150.4ZM134.217 152.5V153.5H135.122L135.212 152.6L134.217 152.5ZM90.5172 152.5H89.5172V153.5H90.5172V152.5ZM90.5172 143.4V142.4H89.5172V143.4H90.5172ZM126.017 143.4L126.428 144.312L126.017 142.4V143.4ZM120.017 146.1H119.017V147.647L120.428 147.012L120.017 146.1ZM118.317 138.8L117.44 139.281L118.317 138.8ZM113.617 134L113.103 134.857L113.113 134.864L113.124 134.87L113.617 134ZM99.5172 134L100.01 134.87L100.019 134.865L99.5172 134ZM94.8172 138.9L95.6941 139.381L95.7003 139.369L94.8172 138.9ZM95.0172 156.5L94.1442 156.988L94.1528 157.003L94.162 157.018L95.0172 156.5ZM100.517 161.6L100.06 162.489L100.075 162.497L100.09 162.504L100.517 161.6ZM116.417 162L116.051 161.07L116.041 161.074L116.417 162ZM122.417 158.1L123.152 157.422L122.46 156.671L121.724 157.38L122.417 158.1ZM130.717 167.1L131.468 167.761L132.063 167.085L131.452 166.422L130.717 167.1ZM121.417 173.6L121.783 174.531L121.79 174.528L121.797 174.525L121.417 173.6ZM108.517 174.8C102.516 174.8 97.2776 173.627 92.7745 171.311L91.8598 173.089C96.6901 175.573 102.252 176.8 108.517 176.8V174.8ZM92.7798 171.313C88.3286 168.991 84.9018 165.845 82.4698 161.877L80.7646 162.923C83.3992 167.221 87.1058 170.609 91.8546 173.087L92.7798 171.313ZM82.4735 161.883C80.0423 157.853 78.8172 153.268 78.8172 148.1H76.8172C76.8172 153.599 78.1254 158.547 80.7609 162.916L82.4735 161.883ZM78.8172 148.1C78.8172 142.858 80.0126 138.273 82.3759 134.312L80.6585 133.288C78.0884 137.594 76.8172 142.542 76.8172 148.1H78.8172ZM82.3735 134.316C84.814 130.27 88.1151 127.129 92.2913 124.88L91.3431 123.12C86.8526 125.537 83.2871 128.93 80.6609 133.284L82.3735 134.316ZM92.3017 124.875C96.4718 122.565 101.202 121.4 106.517 121.4V119.4C100.899 119.4 95.8293 120.635 91.3327 123.125L92.3017 124.875ZM106.517 121.4C111.636 121.4 116.203 122.5 120.242 124.68L121.192 122.92C116.832 120.567 111.932 119.4 106.517 119.4V121.4ZM120.259 124.689C124.355 126.801 127.583 129.867 129.955 133.906L131.679 132.894C129.118 128.533 125.613 125.199 121.175 122.911L120.259 124.689ZM129.958 133.912C132.315 137.862 133.517 142.643 133.517 148.3H135.517C135.517 142.357 134.252 137.205 131.676 132.888L129.958 133.912ZM133.517 148.3C133.517 148.865 133.486 149.536 133.421 150.317L135.414 150.483C135.482 149.664 135.517 148.935 135.517 148.3H133.517ZM133.421 150.309C133.355 151.04 133.288 151.737 133.222 152.4L135.212 152.6C135.279 151.93 135.346 151.227 135.413 150.491L133.421 150.309ZM134.217 151.5H90.5172V153.5H134.217V151.5ZM91.5172 152.5V143.4H89.5172V152.5H91.5172ZM90.5172 144.4H126.017V142.4H90.5172V144.4ZM125.607 142.488L119.607 145.188L120.428 147.012L126.428 144.312L125.607 142.488ZM121.017 146.1C121.017 143.163 120.422 140.559 119.194 138.319L117.44 139.281C118.479 141.175 119.017 143.436 119.017 146.1H121.017ZM119.194 138.319C117.974 136.094 116.276 134.357 114.11 133.13L113.124 134.87C114.958 135.909 116.394 137.373 117.44 139.281L119.194 138.319ZM114.132 133.143C111.955 131.837 109.439 131.2 106.617 131.2V133.2C109.129 133.2 111.279 133.763 113.103 134.857L114.132 133.143ZM106.617 131.2C103.795 131.2 101.251 131.837 99.0151 133.135L100.019 134.865C101.916 133.763 104.106 133.2 106.617 133.2V131.2ZM99.0242 133.13C96.85 134.362 95.1519 136.138 93.9341 138.431L95.7003 139.369C96.7491 137.395 98.1843 135.905 100.01 134.87L99.0242 133.13ZM93.9404 138.419C92.7105 140.662 92.1172 143.301 92.1172 146.3H94.1172C94.1172 143.565 94.6572 141.271 95.694 139.381L93.9404 138.419ZM92.1172 146.3V148.7H94.1172V146.3H92.1172ZM92.1172 148.7C92.1172 151.782 92.7839 154.554 94.1442 156.988L95.8901 156.012C94.7171 153.913 94.1172 151.485 94.1172 148.7H92.1172ZM94.162 157.018C95.5931 159.38 97.5656 161.207 100.06 162.489L100.975 160.711C98.8021 159.593 97.1079 158.02 95.8724 155.982L94.162 157.018ZM100.09 162.504C102.648 163.712 105.599 164.3 108.917 164.3V162.3C105.835 162.3 103.186 161.754 100.944 160.696L100.09 162.504ZM108.917 164.3C111.882 164.3 114.515 163.852 116.794 162.926L116.041 161.074C114.052 161.881 111.685 162.3 108.917 162.3V164.3ZM116.784 162.93C119.112 162.013 121.222 160.639 123.111 158.82L121.724 157.38C120.012 159.027 118.122 160.254 116.051 161.07L116.784 162.93ZM121.682 158.778L129.982 167.778L131.452 166.422L123.152 157.422L121.682 158.778ZM129.967 166.439C127.61 169.114 124.64 171.195 121.037 172.675L121.797 174.525C125.661 172.938 128.891 170.686 131.468 167.761L129.967 166.439ZM121.052 172.669C117.457 174.082 113.285 174.8 108.517 174.8V176.8C113.483 176.8 117.911 176.052 121.783 174.531L121.052 172.669ZM158.527 175L157.605 175.387L157.862 176H158.527V175ZM135.927 121.2V120.2H134.422L135.005 121.587L135.927 121.2ZM152.027 121.2L152.953 120.824L152.7 120.2H152.027V121.2ZM170.827 167.5V168.5H172.312L171.753 167.124L170.827 167.5ZM162.827 167.5L161.905 167.112L161.32 168.5H162.827V167.5ZM182.327 121.2V120.2H181.663L181.405 120.812L182.327 121.2ZM197.327 121.2L198.248 121.589L198.834 120.2H197.327V121.2ZM174.627 175V176H175.29L175.548 175.389L174.627 175ZM159.449 174.613L136.849 120.813L135.005 121.587L157.605 175.387L159.449 174.613ZM135.927 122.2H152.027V120.2H135.927V122.2ZM151.1 121.576L169.9 167.876L171.753 167.124L152.953 120.824L151.1 121.576ZM170.827 166.5H162.827V168.5H170.827V166.5ZM163.748 167.888L183.248 121.588L181.405 120.812L161.905 167.112L163.748 167.888ZM182.327 122.2H197.327V120.2H182.327V122.2ZM196.405 120.811L173.705 174.611L175.548 175.389L198.248 121.589L196.405 120.811ZM174.627 174H158.527V176H174.627V174ZM212.727 172.2L212.265 173.087L212.27 173.089L212.727 172.2ZM202.027 162.4L201.171 162.917L201.175 162.923L202.027 162.4ZM201.927 133.8L201.071 133.283L201.069 133.288L201.927 133.8ZM212.227 124L212.701 124.881L212.712 124.875L212.227 124ZM241.127 123.8L240.652 124.68L240.661 124.684L240.669 124.689L241.127 123.8ZM251.227 133.4L250.365 133.906L250.369 133.912L251.227 133.4ZM254.827 150.4L255.823 150.491L255.824 150.483L254.827 150.4ZM254.627 152.5V153.5H255.532L255.622 152.6L254.627 152.5ZM210.927 152.5H209.927V153.5H210.927V152.5ZM210.927 143.4V142.4H209.927V143.4H210.927ZM246.427 143.4L246.838 144.312L246.427 142.4V143.4ZM240.427 146.1H239.427V147.647L240.838 147.012L240.427 146.1ZM238.727 138.8L237.851 139.281L238.727 138.8ZM234.027 134L233.513 134.857L233.524 134.864L233.534 134.87L234.027 134ZM219.927 134L220.42 134.87L220.429 134.865L219.927 134ZM215.227 138.9L216.104 139.381L216.11 139.369L215.227 138.9ZM215.427 156.5L214.554 156.988L214.563 157.003L214.572 157.018L215.427 156.5ZM220.927 161.6L220.47 162.489L220.485 162.497L220.5 162.504L220.927 161.6ZM236.827 162L236.461 161.07L236.451 161.074L236.827 162ZM242.827 158.1L243.562 157.422L242.87 156.671L242.134 157.38L242.827 158.1ZM251.127 167.1L251.878 167.761L252.474 167.085L251.862 166.422L251.127 167.1ZM241.827 173.6L242.193 174.531L242.2 174.528L242.207 174.525L241.827 173.6ZM228.927 174.8C222.926 174.8 217.688 173.627 213.185 171.311L212.27 173.089C217.1 175.573 222.662 176.8 228.927 176.8V174.8ZM213.19 171.313C208.739 168.991 205.312 165.845 202.88 161.877L201.175 162.923C203.809 167.221 207.516 170.609 212.265 173.087L213.19 171.313ZM202.884 161.883C200.452 157.853 199.227 153.268 199.227 148.1H197.227C197.227 153.599 198.536 158.547 201.171 162.916L202.884 161.883ZM199.227 148.1C199.227 142.858 200.423 138.273 202.786 134.312L201.069 133.288C198.499 137.594 197.227 142.542 197.227 148.1H199.227ZM202.784 134.316C205.224 130.27 208.525 127.129 212.701 124.88L211.753 123.12C207.263 125.537 203.697 128.93 201.071 133.284L202.784 134.316ZM212.712 124.875C216.882 122.565 221.612 121.4 226.927 121.4V119.4C221.309 119.4 216.239 120.635 211.743 123.125L212.712 124.875ZM226.927 121.4C232.046 121.4 236.613 122.5 240.652 124.68L241.602 122.92C237.242 120.567 232.342 119.4 226.927 119.4V121.4ZM240.669 124.689C244.765 126.801 247.993 129.867 250.365 133.906L252.09 132.894C249.529 128.533 246.023 125.199 241.586 122.911L240.669 124.689ZM250.369 133.912C252.726 137.862 253.927 142.643 253.927 148.3H255.927C255.927 142.357 254.663 137.205 252.086 132.888L250.369 133.912ZM253.927 148.3C253.927 148.865 253.896 149.536 253.831 150.317L255.824 150.483C255.892 149.664 255.927 148.935 255.927 148.3H253.927ZM253.831 150.309C253.765 151.04 253.699 151.737 253.632 152.4L255.622 152.6C255.689 151.93 255.756 151.227 255.823 150.491L253.831 150.309ZM254.627 151.5H210.927V153.5H254.627V151.5ZM211.927 152.5V143.4H209.927V152.5H211.927ZM210.927 144.4H246.427V142.4H210.927V144.4ZM246.017 142.488L240.017 145.188L240.838 147.012L246.838 144.312L246.017 142.488ZM241.427 146.1C241.427 143.163 240.832 140.559 239.604 138.319L237.851 139.281C238.889 141.175 239.427 143.436 239.427 146.1H241.427ZM239.604 138.319C238.384 136.094 236.686 134.357 234.52 133.13L233.534 134.87C235.368 135.909 236.804 137.373 237.851 139.281L239.604 138.319ZM234.542 133.143C232.365 131.837 229.849 131.2 227.027 131.2V133.2C229.539 133.2 231.689 133.763 233.513 134.857L234.542 133.143ZM227.027 131.2C224.205 131.2 221.662 131.837 219.425 133.135L220.429 134.865C222.326 133.763 224.516 133.2 227.027 133.2V131.2ZM219.434 133.13C217.26 134.362 215.562 136.138 214.344 138.431L216.11 139.369C217.159 137.395 218.594 135.905 220.42 134.87L219.434 133.13ZM214.351 138.419C213.121 140.662 212.527 143.301 212.527 146.3H214.527C214.527 143.565 215.067 141.271 216.104 139.381L214.351 138.419ZM212.527 146.3V148.7H214.527V146.3H212.527ZM212.527 148.7C212.527 151.782 213.194 154.554 214.554 156.988L216.3 156.012C215.127 153.913 214.527 151.485 214.527 148.7H212.527ZM214.572 157.018C216.003 159.38 217.976 161.207 220.47 162.489L221.385 160.711C219.212 159.593 217.518 158.02 216.283 155.982L214.572 157.018ZM220.5 162.504C223.058 163.712 226.01 164.3 229.327 164.3V162.3C226.245 162.3 223.596 161.754 221.354 160.696L220.5 162.504ZM229.327 164.3C232.293 164.3 234.925 163.852 237.204 162.926L236.451 161.074C234.463 161.881 232.096 162.3 229.327 162.3V164.3ZM237.194 162.93C239.522 162.013 241.632 160.639 243.521 158.82L242.134 157.38C240.423 159.027 238.532 160.254 236.461 161.07L237.194 162.93ZM242.092 158.778L250.392 167.778L251.862 166.422L243.562 157.422L242.092 158.778ZM250.377 166.439C248.02 169.114 245.05 171.195 241.447 172.675L242.207 174.525C246.071 172.938 249.301 170.686 251.878 167.761L250.377 166.439ZM241.462 172.669C237.867 174.082 233.695 174.8 228.927 174.8V176.8C233.893 176.8 238.321 176.052 242.193 174.531L241.462 172.669ZM265.313 175H264.313V176H265.313V175ZM265.313 100.8V99.8H264.313V100.8H265.313ZM280.913 100.8H281.913V99.8H280.913V100.8ZM280.913 175V176H281.913V175H280.913ZM266.313 175V100.8H264.313V175H266.313ZM265.313 101.8H280.913V99.8H265.313V101.8ZM279.913 100.8V175H281.913V100.8H279.913ZM280.913 174H265.313V176H280.913V174ZM305.691 172.2L305.213 173.078L305.218 173.081L305.691 172.2ZM295.191 162.4L294.335 162.916L294.34 162.925L294.345 162.932L295.191 162.4ZM295.191 133.8L294.341 133.274L294.339 133.277L295.191 133.8ZM305.691 124L306.16 124.883L306.165 124.881L305.691 124ZM336.191 124L335.718 124.881L335.728 124.886L336.191 124ZM346.691 162.4L347.544 162.923L347.548 162.916L346.691 162.4ZM336.191 172.2L335.718 171.319L336.191 172.2ZM327.991 161.2L328.494 162.065L327.991 161.2ZM332.891 156.1L333.769 156.579L333.775 156.568L332.891 156.1ZM332.891 140.1L332.014 140.579L332.891 140.1ZM327.991 135L327.489 135.865L327.991 135ZM313.991 135L314.494 135.865L313.991 135ZM308.991 140.1L308.125 139.601L308.119 139.611L308.114 139.621L308.991 140.1ZM308.991 156.1L308.108 156.568L308.116 156.584L308.125 156.599L308.991 156.1ZM313.991 161.2L314.494 160.335L313.991 161.2ZM320.991 174.8C315.401 174.8 310.468 173.631 306.165 171.319L305.218 173.081C309.848 175.569 315.115 176.8 320.991 176.8V174.8ZM306.17 171.322C301.916 169.002 298.544 165.852 296.038 161.868L294.345 162.932C297.038 167.214 300.667 170.598 305.213 173.078L306.17 171.322ZM296.048 161.883C293.617 157.853 292.391 153.268 292.391 148.1H290.391C290.391 153.599 291.7 158.547 294.335 162.916L296.048 161.883ZM292.391 148.1C292.391 142.863 293.618 138.281 296.044 134.323L294.339 133.277C291.698 137.585 290.391 142.537 290.391 148.1H292.391ZM296.042 134.326C298.548 130.278 301.915 127.134 306.16 124.883L305.223 123.117C300.668 125.532 297.035 128.922 294.341 133.274L296.042 134.326ZM306.165 124.881C310.468 122.569 315.401 121.4 320.991 121.4V119.4C315.115 119.4 309.848 120.631 305.218 123.119L306.165 124.881ZM320.991 121.4C326.513 121.4 331.413 122.568 335.718 124.881L336.665 123.119C332.036 120.632 326.804 119.4 320.991 119.4V121.4ZM335.728 124.886C340.041 127.139 343.404 130.25 345.839 134.223L347.544 133.177C344.912 128.884 341.275 125.527 336.654 123.114L335.728 124.886ZM345.839 134.223C348.264 138.179 349.491 142.794 349.491 148.1H351.491C351.491 142.473 350.186 137.487 347.544 133.177L345.839 134.223ZM349.491 148.1C349.491 153.268 348.266 157.853 345.835 161.884L347.548 162.916C350.183 158.547 351.491 153.599 351.491 148.1H349.491ZM345.839 161.877C343.402 165.853 340.036 168.999 335.718 171.319L336.665 173.081C341.28 170.601 344.914 167.214 347.544 162.923L345.839 161.877ZM335.718 171.319C331.413 173.632 326.513 174.8 320.991 174.8V176.8C326.804 176.8 332.036 175.568 336.665 173.081L335.718 171.319ZM320.991 164C323.752 164 326.261 163.361 328.494 162.065L327.489 160.335C325.588 161.439 323.431 162 320.991 162V164ZM328.494 162.065C330.726 160.768 332.486 158.931 333.769 156.579L332.014 155.621C330.897 157.669 329.39 159.232 327.489 160.335L328.494 162.065ZM333.775 156.568C335.065 154.131 335.691 151.298 335.691 148.1H333.691C333.691 151.035 333.118 153.535 332.008 155.632L333.775 156.568ZM335.691 148.1C335.691 144.841 335.067 142 333.769 139.621L332.014 140.579C333.116 142.6 333.691 145.093 333.691 148.1H335.691ZM333.769 139.621C332.486 137.269 330.726 135.432 328.494 134.135L327.489 135.865C329.39 136.968 330.897 138.531 332.014 140.579L333.769 139.621ZM328.494 134.135C326.261 132.839 323.752 132.2 320.991 132.2V134.2C323.431 134.2 325.588 134.761 327.489 135.865L328.494 134.135ZM320.991 132.2C318.231 132.2 315.722 132.839 313.489 134.135L314.494 135.865C316.394 134.761 318.552 134.2 320.991 134.2V132.2ZM313.489 134.135C311.262 135.429 309.473 137.259 308.125 139.601L309.858 140.599C311.043 138.541 312.588 136.971 314.494 135.865L313.489 134.135ZM308.114 139.621C306.816 142 306.191 144.841 306.191 148.1H308.191C308.191 145.093 308.767 142.6 309.869 140.579L308.114 139.621ZM306.191 148.1C306.191 151.298 306.818 154.131 308.108 156.568L309.875 155.632C308.765 153.535 308.191 151.035 308.191 148.1H306.191ZM308.125 156.599C309.473 158.941 311.262 160.771 313.489 162.065L314.494 160.335C312.588 159.229 311.043 157.659 309.858 155.601L308.125 156.599ZM313.489 162.065C315.722 163.361 318.231 164 320.991 164V162C318.552 162 316.394 161.439 314.494 160.335L313.489 162.065ZM380.819 172.8L381.326 171.938L380.819 172.8ZM372.819 163.7L371.907 164.112L371.911 164.121L371.916 164.129L372.819 163.7ZM372.719 132.5L373.633 132.905L372.719 132.5ZM380.519 123.4L380.012 122.538L380.519 123.4ZM406.319 123.9L405.815 124.764L405.823 124.769L405.832 124.773L406.319 123.9ZM415.919 133.5L415.048 133.992L415.054 134.002L415.919 133.5ZM415.919 162.8L415.054 162.298L415.048 162.308L415.919 162.8ZM406.319 172.4L405.832 171.527L405.826 171.53L406.319 172.4ZM360.919 194.4H359.919V195.4H360.919V194.4ZM360.919 121.2V120.2H359.919V121.2H360.919ZM375.819 121.2H376.819V120.2H375.819V121.2ZM375.819 132.2L376.819 132.219L376.819 132.209V132.2H375.819ZM375.519 148.2L374.519 148.181L374.518 148.222L374.521 148.263L375.519 148.2ZM376.519 164.1H377.519V164.069L377.517 164.037L376.519 164.1ZM376.519 194.4V195.4H377.519V194.4H376.519ZM396.919 161.2L396.417 160.335L396.41 160.339L396.404 160.342L396.919 161.2ZM401.819 156.1L400.946 155.612L400.941 155.621L401.819 156.1ZM401.819 140.1L400.941 140.579L400.946 140.589L400.952 140.599L401.819 140.1ZM396.919 135L396.404 135.857L396.41 135.861L396.417 135.865L396.919 135ZM383.019 135L383.521 135.865L383.019 135ZM378.119 140.1L378.997 140.579L378.119 140.1ZM378.119 156.1L377.235 156.568L377.241 156.579L378.119 156.1ZM383.019 161.2L383.521 160.335L383.019 161.2ZM392.719 174.8C388.337 174.8 384.55 173.835 381.326 171.938L380.312 173.662C383.887 175.765 388.034 176.8 392.719 176.8V174.8ZM381.326 171.938C378.122 170.053 375.582 167.183 373.722 163.271L371.916 164.129C373.922 168.35 376.716 171.547 380.312 173.662L381.326 171.938ZM373.73 163.288C371.94 159.324 371.019 154.276 371.019 148.1H369.019C369.019 154.458 369.964 159.809 371.907 164.112L373.73 163.288ZM371.019 148.1C371.019 141.851 371.908 136.802 373.633 132.905L371.804 132.095C369.929 136.331 369.019 141.682 369.019 148.1H371.019ZM373.633 132.905C375.36 129.004 377.829 126.143 381.026 124.262L380.012 122.538C376.409 124.657 373.678 127.863 371.804 132.095L373.633 132.905ZM381.026 124.262C384.244 122.369 388.128 121.4 392.719 121.4V119.4C387.843 119.4 383.594 120.431 380.012 122.538L381.026 124.262ZM392.719 121.4C397.626 121.4 401.982 122.528 405.815 124.764L406.823 123.036C402.656 120.605 397.945 119.4 392.719 119.4V121.4ZM405.832 124.773C409.735 126.949 412.803 130.015 415.048 133.992L416.79 133.008C414.368 128.718 411.036 125.385 406.806 123.027L405.832 124.773ZM415.054 134.002C417.351 137.959 418.519 142.646 418.519 148.1H420.519C420.519 142.354 419.286 137.308 416.784 132.998L415.054 134.002ZM418.519 148.1C418.519 153.623 417.35 158.343 415.054 162.298L416.784 163.302C419.287 158.99 420.519 153.91 420.519 148.1H418.519ZM415.048 162.308C412.803 166.285 409.735 169.351 405.832 171.527L406.806 173.273C411.036 170.915 414.368 167.582 416.79 163.292L415.048 162.308ZM405.826 171.53C401.991 173.703 397.631 174.8 392.719 174.8V176.8C397.94 176.8 402.646 175.63 406.812 173.27L405.826 171.53ZM361.919 194.4V121.2H359.919V194.4H361.919ZM360.919 122.2H375.819V120.2H360.919V122.2ZM374.819 121.2V132.2H376.819V121.2H374.819ZM374.819 132.181L374.519 148.181L376.519 148.219L376.819 132.219L374.819 132.181ZM374.521 148.263L375.521 164.163L377.517 164.037L376.517 148.137L374.521 148.263ZM375.519 164.1V194.4H377.519V164.1H375.519ZM376.519 193.4H360.919V195.4H376.519V193.4ZM390.019 164C392.779 164 395.26 163.361 397.433 162.057L396.404 160.342C394.577 161.439 392.459 162 390.019 162V164ZM397.421 162.065C399.654 160.768 401.414 158.931 402.697 156.579L400.941 155.621C399.824 157.669 398.317 159.232 396.417 160.335L397.421 162.065ZM402.692 156.588C404.056 154.147 404.719 151.306 404.719 148.1H402.719C402.719 151.027 402.115 153.52 400.946 155.612L402.692 156.588ZM404.719 148.1C404.719 144.832 404.058 141.985 402.685 139.601L400.952 140.599C402.113 142.615 402.719 145.101 402.719 148.1H404.719ZM402.697 139.621C401.414 137.269 399.654 135.432 397.421 134.135L396.417 135.865C398.317 136.968 399.824 138.531 400.941 140.579L402.697 139.621ZM397.433 134.143C395.26 132.839 392.779 132.2 390.019 132.2V134.2C392.459 134.2 394.577 134.761 396.404 135.857L397.433 134.143ZM390.019 132.2C387.258 132.2 384.749 132.839 382.517 134.135L383.521 135.865C385.422 134.761 387.579 134.2 390.019 134.2V132.2ZM382.517 134.135C380.284 135.432 378.524 137.269 377.241 139.621L378.997 140.579C380.113 138.531 381.62 136.968 383.521 135.865L382.517 134.135ZM377.241 139.621C375.943 142 375.319 144.841 375.319 148.1H377.319C377.319 145.093 377.894 142.6 378.997 140.579L377.241 139.621ZM375.319 148.1C375.319 151.298 375.945 154.131 377.235 156.568L379.003 155.632C377.892 153.535 377.319 151.035 377.319 148.1H375.319ZM377.241 156.579C378.524 158.931 380.284 160.768 382.517 162.065L383.521 160.335C381.62 159.232 380.113 157.669 378.997 155.621L377.241 156.579ZM382.517 162.065C384.749 163.361 387.258 164 390.019 164V162C387.579 162 385.422 161.439 383.521 160.335L382.517 162.065ZM510.162 123L509.693 123.883L509.704 123.889L509.714 123.894L510.162 123ZM517.962 130.8L517.078 131.267L517.083 131.277L517.088 131.287L517.962 130.8ZM520.862 175V176H521.862V175H520.862ZM505.262 175H504.262V176H505.262V175ZM502.562 137L503.316 136.343L502.562 137ZM488.862 135.5L489.347 136.374L489.36 136.367L489.372 136.36L488.862 135.5ZM484.662 140.1L485.562 140.536L484.662 140.1ZM483.162 175V176H484.162V175H483.162ZM467.562 175H466.562V176H467.562V175ZM464.862 137L464.096 137.643L464.102 137.65L464.108 137.657L464.862 137ZM451.262 135.5L451.747 136.374L451.76 136.367L451.772 136.36L451.262 135.5ZM447.062 140.1L447.962 140.536L447.062 140.1ZM445.562 175V176H446.562V175H445.562ZM429.962 175H428.962V176H429.962V175ZM429.962 121.2V120.2H428.962V121.2H429.962ZM444.862 121.2H445.862V120.2H444.862V121.2ZM444.862 135.9L444.024 136.446L445.862 139.268V135.9H444.862ZM442.062 131.6L441.171 131.146L440.908 131.661L441.224 132.146L442.062 131.6ZM449.962 123.3L450.443 124.177L450.449 124.173L449.962 123.3ZM474.662 124.2L474.093 125.023L474.102 125.029L474.11 125.034L474.662 124.2ZM482.062 135.6L481.799 136.565L483.417 137.006L483.035 135.372L482.062 135.6ZM476.562 134.1L475.643 133.706L475.19 134.762L476.299 135.065L476.562 134.1ZM485.162 124.1L484.637 123.249L484.63 123.253L485.162 124.1ZM498.862 121.4C502.99 121.4 506.591 122.238 509.693 123.883L510.63 122.117C507.199 120.296 503.267 119.4 498.862 119.4V121.4ZM509.714 123.894C512.847 125.461 515.301 127.904 517.078 131.267L518.846 130.333C516.889 126.629 514.143 123.872 510.609 122.106L509.714 123.894ZM517.088 131.287C518.913 134.559 519.862 138.843 519.862 144.2H521.862C521.862 138.624 520.877 133.974 518.835 130.313L517.088 131.287ZM519.862 144.2V175H521.862V144.2H519.862ZM520.862 174H505.262V176H520.862V174ZM506.262 175V146.6H504.262V175H506.262ZM506.262 146.6C506.262 142.158 505.344 138.672 503.316 136.343L501.808 137.657C503.379 139.461 504.262 142.375 504.262 146.6H506.262ZM503.316 136.343C501.289 134.016 498.457 132.9 494.962 132.9V134.9C498 134.9 500.234 135.85 501.808 137.657L503.316 136.343ZM494.962 132.9C492.531 132.9 490.319 133.474 488.352 134.64L489.372 136.36C491.004 135.393 492.859 134.9 494.962 134.9V132.9ZM488.376 134.626C486.376 135.737 484.841 137.435 483.762 139.664L485.562 140.536C486.483 138.632 487.748 137.263 489.347 136.374L488.376 134.626ZM483.762 139.664C482.675 141.909 482.162 144.705 482.162 148H484.162C484.162 144.895 484.648 142.424 485.562 140.536L483.762 139.664ZM482.162 148V175H484.162V148H482.162ZM483.162 174H467.562V176H483.162V174ZM468.562 175V146.6H466.562V175H468.562ZM468.562 146.6C468.562 142.158 467.644 138.672 465.616 136.343L464.108 137.657C465.679 139.461 466.562 142.375 466.562 146.6H468.562ZM465.628 136.357C463.665 134.016 460.855 132.9 457.362 132.9V134.9C460.401 134.9 462.592 135.85 464.096 137.643L465.628 136.357ZM457.362 132.9C454.931 132.9 452.719 133.474 450.752 134.64L451.772 136.36C453.404 135.393 455.259 134.9 457.362 134.9V132.9ZM450.776 134.626C448.776 135.737 447.241 137.435 446.162 139.664L447.962 140.536C448.883 138.632 450.148 137.263 451.747 136.374L450.776 134.626ZM446.162 139.664C445.075 141.909 444.562 144.705 444.562 148H446.562C446.562 144.895 447.048 142.424 447.962 140.536L446.162 139.664ZM444.562 148V175H446.562V148H444.562ZM445.562 174H429.962V176H445.562V174ZM430.962 175V121.2H428.962V175H430.962ZM429.962 122.2H444.862V120.2H429.962V122.2ZM443.862 121.2V135.9H445.862V121.2H443.862ZM445.7 135.354L442.9 131.054L441.224 132.146L444.024 136.446L445.7 135.354ZM442.953 132.054C444.734 128.554 447.23 125.941 450.443 124.177L449.48 122.423C445.894 124.393 443.122 127.312 441.171 131.146L442.953 132.054ZM450.449 124.173C453.751 122.332 457.513 121.4 461.762 121.4V119.4C457.21 119.4 453.106 120.402 449.475 122.427L450.449 124.173ZM461.762 121.4C466.515 121.4 470.611 122.617 474.093 125.023L475.23 123.377C471.379 120.716 466.875 119.4 461.762 119.4V121.4ZM474.11 125.034C477.593 127.335 479.935 130.896 481.088 135.828L483.035 135.372C481.788 130.038 479.197 125.998 475.213 123.366L474.11 125.034ZM482.325 134.635L476.825 133.135L476.299 135.065L481.799 136.565L482.325 134.635ZM477.481 134.494C479.199 130.484 481.929 127.308 485.693 124.947L484.63 123.253C480.528 125.826 477.524 129.316 475.643 133.706L477.481 134.494ZM485.687 124.951C489.514 122.591 493.896 121.4 498.862 121.4V119.4C493.561 119.4 488.809 120.676 484.637 123.249L485.687 124.951ZM545.735 172.2L545.273 173.087L545.278 173.089L545.735 172.2ZM535.035 162.4L534.179 162.917L534.183 162.923L535.035 162.4ZM534.935 133.8L534.079 133.283L534.076 133.288L534.935 133.8ZM545.235 124L545.709 124.881L545.72 124.875L545.235 124ZM574.135 123.8L573.66 124.68L573.669 124.684L573.677 124.689L574.135 123.8ZM584.235 133.4L583.373 133.906L583.376 133.912L584.235 133.4ZM587.835 150.4L588.831 150.491L588.832 150.483L587.835 150.4ZM587.635 152.5V153.5H588.54L588.63 152.6L587.635 152.5ZM543.935 152.5H542.935V153.5H543.935V152.5ZM543.935 143.4V142.4H542.935V143.4H543.935ZM579.435 143.4L579.846 144.312L579.435 142.4V143.4ZM573.435 146.1H572.435V147.647L573.846 147.012L573.435 146.1ZM571.735 138.8L570.858 139.281L571.735 138.8ZM567.035 134L566.521 134.857L566.531 134.864L566.542 134.87L567.035 134ZM552.935 134L553.428 134.87L553.437 134.865L552.935 134ZM548.235 138.9L549.112 139.381L549.118 139.369L548.235 138.9ZM548.435 156.5L547.562 156.988L547.571 157.003L547.58 157.018L548.435 156.5ZM553.935 161.6L553.478 162.489L553.493 162.497L553.508 162.504L553.935 161.6ZM569.835 162L569.469 161.07L569.459 161.074L569.835 162ZM575.835 158.1L576.57 157.422L575.878 156.671L575.142 157.38L575.835 158.1ZM584.135 167.1L584.885 167.761L585.481 167.085L584.87 166.422L584.135 167.1ZM574.835 173.6L575.201 174.531L575.208 174.528L575.215 174.525L574.835 173.6ZM561.935 174.8C555.934 174.8 550.696 173.627 546.193 171.311L545.278 173.089C550.108 175.573 555.67 176.8 561.935 176.8V174.8ZM546.198 171.313C541.747 168.991 538.32 165.845 535.888 161.877L534.183 162.923C536.817 167.221 540.524 170.609 545.273 173.087L546.198 171.313ZM535.891 161.883C533.46 157.853 532.235 153.268 532.235 148.1H530.235C530.235 153.599 531.543 158.547 534.179 162.916L535.891 161.883ZM532.235 148.1C532.235 142.858 533.431 138.273 535.794 134.312L534.076 133.288C531.506 137.594 530.235 142.542 530.235 148.1H532.235ZM535.791 134.316C538.232 130.27 541.533 127.129 545.709 124.88L544.761 123.12C540.271 125.537 536.705 128.93 534.079 133.284L535.791 134.316ZM545.72 124.875C549.89 122.565 554.62 121.4 559.935 121.4V119.4C554.317 119.4 549.247 120.635 544.751 123.125L545.72 124.875ZM559.935 121.4C565.054 121.4 569.621 122.5 573.66 124.68L574.61 122.92C570.25 120.567 565.35 119.4 559.935 119.4V121.4ZM573.677 124.689C577.773 126.801 581 129.867 583.373 133.906L585.097 132.894C582.536 128.533 579.031 125.199 574.593 122.911L573.677 124.689ZM583.376 133.912C585.733 137.862 586.935 142.643 586.935 148.3H588.935C588.935 142.357 587.67 137.205 585.094 132.888L583.376 133.912ZM586.935 148.3C586.935 148.865 586.904 149.536 586.839 150.317L588.832 150.483C588.9 149.664 588.935 148.935 588.935 148.3H586.935ZM586.839 150.309C586.773 151.04 586.706 151.737 586.64 152.4L588.63 152.6C588.697 151.93 588.764 151.227 588.831 150.491L586.839 150.309ZM587.635 151.5H543.935V153.5H587.635V151.5ZM544.935 152.5V143.4H542.935V152.5H544.935ZM543.935 144.4H579.435V142.4H543.935V144.4ZM579.025 142.488L573.025 145.188L573.846 147.012L579.846 144.312L579.025 142.488ZM574.435 146.1C574.435 143.163 573.84 140.559 572.612 138.319L570.858 139.281C571.897 141.175 572.435 143.436 572.435 146.1H574.435ZM572.612 138.319C571.392 136.094 569.694 134.357 567.528 133.13L566.542 134.87C568.376 135.909 569.812 137.373 570.858 139.281L572.612 138.319ZM567.55 133.143C565.373 131.837 562.857 131.2 560.035 131.2V133.2C562.547 133.2 564.697 133.763 566.521 134.857L567.55 133.143ZM560.035 131.2C557.213 131.2 554.669 131.837 552.433 133.135L553.437 134.865C555.334 133.763 557.524 133.2 560.035 133.2V131.2ZM552.442 133.13C550.268 134.362 548.57 136.138 547.352 138.431L549.118 139.369C550.167 137.395 551.602 135.905 553.428 134.87L552.442 133.13ZM547.358 138.419C546.128 140.662 545.535 143.301 545.535 146.3H547.535C547.535 143.565 548.075 141.271 549.112 139.381L547.358 138.419ZM545.535 146.3V148.7H547.535V146.3H545.535ZM545.535 148.7C545.535 151.782 546.202 154.554 547.562 156.988L549.308 156.012C548.135 153.913 547.535 151.485 547.535 148.7H545.535ZM547.58 157.018C549.011 159.38 550.984 161.207 553.478 162.489L554.393 160.711C552.22 159.593 550.526 158.02 549.29 155.982L547.58 157.018ZM553.508 162.504C556.066 163.712 559.017 164.3 562.335 164.3V162.3C559.253 162.3 556.604 161.754 554.362 160.696L553.508 162.504ZM562.335 164.3C565.3 164.3 567.933 163.852 570.212 162.926L569.459 161.074C567.47 161.881 565.103 162.3 562.335 162.3V164.3ZM570.202 162.93C572.53 162.013 574.64 160.639 576.529 158.82L575.142 157.38C573.43 159.027 571.54 160.254 569.469 161.07L570.202 162.93ZM575.1 158.778L583.4 167.778L584.87 166.422L576.57 157.422L575.1 158.778ZM583.385 166.439C581.028 169.114 578.058 171.195 574.455 172.675L575.215 174.525C579.079 172.938 582.309 170.686 584.885 167.761L583.385 166.439ZM574.469 172.669C570.875 174.082 566.703 174.8 561.935 174.8V176.8C566.901 176.8 571.329 176.052 575.201 174.531L574.469 172.669ZM642.421 123L641.96 123.887L641.97 123.893L641.981 123.898L642.421 123ZM650.421 130.8L649.544 131.28L649.548 131.287L650.421 130.8ZM653.321 175V176H654.321V175H653.321ZM637.721 175H636.721V176H637.721V175ZM634.821 137L634.079 137.67L634.085 137.677L634.091 137.683L634.821 137ZM620.121 135.5L620.581 136.388L620.592 136.382L620.121 135.5ZM615.521 140.2L614.638 139.731L614.632 139.742L614.627 139.753L615.521 140.2ZM613.921 175V176H614.921V175H613.921ZM598.321 175H597.321V176H598.321V175ZM598.321 121.2V120.2H597.321V121.2H598.321ZM613.221 121.2H614.221V120.2H613.221V121.2ZM613.221 136.1L612.372 136.628L614.221 139.6V136.1H613.221ZM610.421 131.6L609.54 131.127L609.266 131.637L609.572 132.128L610.421 131.6ZM618.721 123.3L619.194 124.181L618.721 123.3ZM631.021 121.4C635.149 121.4 638.787 122.238 641.96 123.887L642.882 122.113C639.388 120.296 635.426 119.4 631.021 119.4V121.4ZM641.981 123.898C645.183 125.468 647.703 127.916 649.544 131.28L651.298 130.32C649.273 126.618 646.459 123.866 642.861 122.102L641.981 123.898ZM649.548 131.287C651.373 134.559 652.321 138.843 652.321 144.2H654.321C654.321 138.624 653.336 133.974 651.294 130.313L649.548 131.287ZM652.321 144.2V175H654.321V144.2H652.321ZM653.321 174H637.721V176H653.321V174ZM638.721 175V146.6H636.721V175H638.721ZM638.721 146.6C638.721 142.144 637.73 138.646 635.551 136.317L634.091 137.683C635.778 139.487 636.721 142.39 636.721 146.6H638.721ZM635.563 136.33C633.462 134.004 630.496 132.9 626.821 132.9V134.9C630.079 134.9 632.447 135.863 634.079 137.67L635.563 136.33ZM626.821 132.9C624.205 132.9 621.808 133.467 619.651 134.618L620.592 136.382C622.434 135.4 624.504 134.9 626.821 134.9V132.9ZM619.662 134.612C617.528 135.715 615.856 137.439 614.638 139.731L616.404 140.669C617.453 138.695 618.847 137.285 620.581 136.388L619.662 134.612ZM614.627 139.753C613.469 142.069 612.921 144.969 612.921 148.4H614.921C614.921 145.164 615.44 142.598 616.416 140.647L614.627 139.753ZM612.921 148.4V175H614.921V148.4H612.921ZM613.921 174H598.321V176H613.921V174ZM599.321 175V121.2H597.321V175H599.321ZM598.321 122.2H613.221V120.2H598.321V122.2ZM612.221 121.2V136.1H614.221V121.2H612.221ZM614.07 135.572L611.27 131.072L609.572 132.128L612.372 136.628L614.07 135.572ZM611.302 132.073C613.142 128.646 615.767 126.021 619.194 124.181L618.248 122.419C614.475 124.445 611.566 127.354 609.54 131.127L611.302 132.073ZM619.194 124.181C622.631 122.335 626.565 121.4 631.021 121.4V119.4C626.277 119.4 622.011 120.398 618.248 122.419L619.194 124.181ZM674.662 171L673.983 171.734L673.99 171.741L674.662 171ZM669.362 109.3V108.3H668.362V109.3H669.362ZM684.962 109.3H685.962V108.3H684.962V109.3ZM686.762 161.6L686.036 162.288L686.045 162.298L686.055 162.307L686.762 161.6ZM697.962 161.4L698.896 161.043L698.417 159.788L697.352 160.607L697.962 161.4ZM702.162 172.4L702.74 173.216L703.373 172.768L703.096 172.043L702.162 172.4ZM696.362 175L696.597 175.972L696.607 175.969L696.618 175.967L696.362 175ZM661.062 134.4H660.062V135.4H661.062V134.4ZM661.062 122.4V121.4H660.062V122.4H661.062ZM698.362 122.4H699.362V121.4H698.362V122.4ZM698.362 134.4V135.4H699.362V134.4H698.362ZM689.462 174.8C683.293 174.8 678.629 173.244 675.333 170.259L673.99 171.741C677.761 175.156 682.963 176.8 689.462 176.8V174.8ZM675.341 170.266C672.073 167.245 670.362 162.718 670.362 156.5H668.362C668.362 163.082 670.183 168.222 673.983 171.734L675.341 170.266ZM670.362 156.5V109.3H668.362V156.5H670.362ZM669.362 110.3H684.962V108.3H669.362V110.3ZM683.962 109.3V156.3H685.962V109.3H683.962ZM683.962 156.3C683.962 158.743 684.612 160.785 686.036 162.288L687.488 160.912C686.511 159.882 685.962 158.39 685.962 156.3H683.962ZM686.055 162.307C687.482 163.734 689.391 164.4 691.662 164.4V162.4C689.799 162.4 688.442 161.866 687.469 160.893L686.055 162.307ZM691.662 164.4C694.319 164.4 696.641 163.677 698.571 162.193L697.352 160.607C695.816 161.789 693.938 162.4 691.662 162.4V164.4ZM697.028 161.757L701.227 172.757L703.096 172.043L698.896 161.043L697.028 161.757ZM701.584 171.584C700.098 172.636 698.279 173.458 696.106 174.033L696.618 175.967C698.978 175.342 701.025 174.43 702.74 173.216L701.584 171.584ZM696.126 174.028C694.008 174.542 691.787 174.8 689.462 174.8V176.8C691.936 176.8 694.316 176.525 696.597 175.972L696.126 174.028ZM662.062 134.4V122.4H660.062V134.4H662.062ZM661.062 123.4H698.362V121.4H661.062V123.4ZM697.362 122.4V134.4H699.362V122.4H697.362ZM698.362 133.4H661.062V135.4H698.362V133.4Z" fill="#0D0D04" fill-opacity="0.06"/>
</svg>
