<svg width="460" height="460" viewBox="0 0 460 460" fill="none" xmlns="http://www.w3.org/2000/svg">
<g clip-path="url(#clip0_2136_9345)">
<g opacity="0.1">
<path d="M405.144 395.005C395.737 404.847 386.939 411.206 379.884 416.258C297.573 475.312 200.194 458.066 179.551 453.885C148.978 447.614 89.9236 435.594 47.2439 385.424C-17.3853 309.471 -7.28156 189.707 42.8017 110.706C51.9474 96.247 100.376 16.0266 198.8 3.1356C258.378 -4.61643 327.798 11.0618 378.055 53.2189C483.622 141.627 476.131 320.272 405.144 395.005Z" fill="white"/>
</g>
<path d="M8.10032 155.476C7.66481 155.302 7.31641 154.779 7.31641 154.344C7.31641 152.602 7.31641 150.86 7.40351 149.205C7.40351 148.508 8.01322 147.985 8.71003 147.985C10.4521 148.072 9.84235 149.727 9.84235 154.344C9.84235 155.041 9.31974 155.563 8.62293 155.563C8.44872 155.65 8.27452 155.563 8.10032 155.476Z" fill="#EDECEB"/>
<path d="M9.0589 133.178C9.5815 129.955 10.2783 126.733 11.0622 123.51C11.2364 122.813 11.9332 122.378 12.6301 122.552C14.5463 123.074 13.2398 124.032 11.5848 133.614C11.4977 134.31 10.8009 134.746 10.1041 134.659C9.4073 134.572 8.97179 133.875 9.0589 133.178ZM16.027 108.267C17.2464 105.219 18.5529 102.17 19.9466 99.2086C20.2079 98.5117 20.9918 98.2504 21.6886 98.5117C22.3854 98.773 22.6467 99.557 22.3854 100.254V100.341C20.9918 103.215 19.6853 106.177 18.4658 109.225C18.1174 109.835 17.3335 110.183 16.7238 109.835C16.1141 109.574 15.8528 108.877 16.027 108.267ZM27.9599 85.3594C29.789 82.6593 31.7053 79.9591 33.7086 77.3461C34.2312 76.8235 35.0151 76.7364 35.5377 77.259C35.9732 77.6945 36.0603 78.3913 35.799 78.9139C33.7957 81.4399 31.8795 84.0529 30.1374 86.7531C29.7019 87.2757 28.8309 87.3628 28.3083 86.9273C27.7857 86.5789 27.6986 85.882 27.9599 85.3594ZM44.4221 67.1552C43.8995 66.6326 43.8995 65.8487 44.4221 65.4132C46.7738 63.1486 49.2127 60.8839 51.7386 58.7935C53.0451 57.7483 54.7 59.6645 53.3935 60.7968C50.9547 62.8873 48.5158 65.0648 46.1641 67.3294C45.8157 67.6778 44.9447 67.6778 44.4221 67.1552ZM64.4554 50.9544C64.107 50.3447 64.1941 49.6478 64.8038 49.2123C67.591 47.4703 70.4654 45.7283 73.3397 44.2476C73.9494 43.8992 74.7334 44.1605 75.0818 44.7702C75.4302 45.3799 75.1689 46.1638 74.5592 46.5122C71.7719 47.9929 68.8976 49.6478 66.1974 51.3899C65.5877 51.7383 64.8038 51.5641 64.4554 50.9544ZM88.0599 39.8925C87.7115 39.7183 87.5373 39.5441 87.3631 39.1957C87.1018 38.586 87.4502 37.8021 88.0599 37.5407C91.1955 36.4084 94.3312 35.2761 97.5539 34.4051C98.2507 34.2309 98.9476 34.5793 99.2089 35.2761C99.3831 35.9729 99.0347 36.6697 98.4249 36.8439C95.2893 37.715 92.1536 38.8473 89.1922 39.9796C88.7567 40.0667 88.4083 40.0667 88.0599 39.8925ZM113.058 33.1857C112.71 33.0115 112.361 32.6631 112.274 32.2276C112.187 31.5308 112.622 30.921 113.319 30.7468C116.629 30.2242 119.939 29.7887 123.249 29.5274C123.946 29.4403 124.555 29.9629 124.642 30.6597C124.73 31.3565 124.207 31.9663 123.51 32.0534C120.287 32.3147 116.978 32.7502 113.755 33.2728C113.581 33.3599 113.319 33.2728 113.058 33.1857ZM138.317 30.4855C138.317 29.7887 138.927 29.2661 139.624 29.2661C142.934 29.4403 146.331 29.7016 149.641 30.05C150.337 30.1371 150.86 30.7468 150.773 31.4436C150.686 32.1405 150.076 32.6631 149.379 32.576C146.157 32.1405 142.847 31.8792 139.537 31.7921C138.927 31.7921 138.317 31.1823 138.317 30.4855ZM219.409 64.0196C212.092 57.5741 210.35 57.487 211.483 56.0063C211.918 55.4836 212.702 55.3094 213.312 55.7449C216.012 57.7483 218.625 59.9258 221.151 62.1034C221.673 62.5389 221.761 63.3228 221.325 63.9325C220.802 64.5422 220.019 64.5422 219.409 64.0196C219.409 64.0777 219.409 64.0777 219.409 64.0196ZM164.274 34.0567C164.448 33.3599 165.145 32.9244 165.841 33.0986C169.064 33.8825 172.374 34.8406 175.51 35.8858C176.207 36.1471 176.555 36.8439 176.294 37.5407C176.119 38.1505 175.423 38.4989 174.726 38.3247H174.639C171.503 37.2794 168.28 36.3213 165.145 35.5374C164.535 35.4503 164.099 34.7535 164.274 34.0567C164.216 34.0567 164.216 34.0567 164.274 34.0567ZM198.33 48.951C189.881 44.0734 188.139 44.4218 188.923 42.5926C189.272 41.9829 189.969 41.7216 190.665 41.9829C193.714 43.4636 196.675 45.0315 199.637 46.6864C200.247 47.0348 200.508 47.7316 200.159 48.4284C200.159 48.4284 200.159 48.5155 200.072 48.5155C199.724 49.1252 198.94 49.3865 198.33 48.951Z" fill="#EDECEB"/>
<path d="M234.041 79.3495C231.254 75.9525 229.512 74.7331 230.906 73.6008C231.428 73.1653 232.299 73.1653 232.735 73.775C235.696 77.172 237.264 78.5656 235.87 79.6108C235.348 79.9592 234.564 79.8721 234.041 79.3495Z" fill="#EDECEB"/>
<path d="M262.175 174.638C261.653 174.377 261.304 173.854 261.391 173.332C261.565 171.677 261.74 169.935 261.914 168.28C262.001 167.583 262.611 167.061 263.307 167.148C264.004 167.235 264.527 167.844 264.527 168.541C264.353 170.196 264.179 171.938 264.004 173.68C263.917 174.377 263.307 174.9 262.611 174.726C262.349 174.726 262.262 174.726 262.175 174.638Z" fill="#EDECEB"/>
<path d="M79.8723 269.23C76.6496 267.663 73.4268 265.833 70.3783 264.004C69.7686 263.656 69.5944 262.872 69.9428 262.262C70.988 260.607 71.5977 262.262 81.0046 266.966C81.6144 267.314 81.8757 268.011 81.6143 268.708C81.2659 269.318 80.482 269.492 79.8723 269.23ZM95.2893 274.369C95.899 272.453 96.9442 274.021 107.135 276.547C107.832 276.721 108.267 277.418 108.093 278.115C107.919 278.812 107.222 279.247 106.525 279.073H106.438C102.954 278.202 99.4701 277.157 95.9861 276.024C95.4635 275.763 95.1151 275.066 95.2893 274.369ZM55.8323 253.901C53.0451 251.636 50.2578 249.284 47.6448 246.758C47.1222 246.323 47.1222 245.452 47.5577 244.929C48.9513 243.536 49.1255 245.278 57.4002 251.897C57.9228 252.333 58.0099 253.117 57.5744 253.726C57.226 254.336 56.3549 254.336 55.8323 253.901ZM123.51 282.034C122.988 281.773 122.639 281.25 122.726 280.728C122.813 280.031 123.423 279.508 124.12 279.595C127.604 280.031 131.175 280.205 134.746 280.292C135.443 280.292 136.053 280.902 136.053 281.599C136.053 282.296 135.443 282.818 134.746 282.818C131.175 282.731 127.517 282.47 123.946 282.034C123.771 282.121 123.597 282.121 123.51 282.034ZM151.557 282.121C151.121 281.947 150.86 281.512 150.773 281.076C150.686 280.379 151.208 279.77 151.905 279.683C155.389 279.334 158.873 278.812 162.357 278.115C163.054 277.941 163.751 278.463 163.925 279.16C164.099 279.857 163.664 280.467 162.967 280.641C159.483 281.338 155.825 281.86 152.341 282.209C151.992 282.209 151.731 282.209 151.557 282.121ZM178.82 276.111C178.471 275.937 178.21 275.676 178.123 275.328C177.861 274.631 178.21 273.934 178.907 273.76C182.216 272.627 185.526 271.408 188.749 270.014C189.446 269.753 190.143 270.014 190.491 270.711C190.752 271.321 190.491 272.105 189.881 272.366C186.572 273.76 183.262 275.066 179.865 276.199C179.516 276.286 179.081 276.286 178.82 276.111ZM203.992 264.353C203.731 264.266 203.556 264.091 203.469 263.83C203.121 263.22 203.295 262.437 203.818 262.088C206.779 260.259 209.741 258.343 212.528 256.252C213.137 255.817 213.921 255.991 214.357 256.514C214.792 257.036 214.705 257.82 214.096 258.256C211.221 260.346 208.26 262.349 205.211 264.179C204.863 264.527 204.427 264.527 203.992 264.353ZM225.506 247.194C224.112 245.8 225.854 245.626 232.648 237.787C233.171 237.264 233.955 237.177 234.477 237.7C235 238.135 235.087 238.919 234.652 239.442C232.3 242.142 229.861 244.755 227.335 247.194C226.812 247.629 226.028 247.629 225.506 247.194ZM243.275 226.028C241.533 224.983 243.275 224.46 248.152 215.315C248.501 214.705 249.285 214.444 249.894 214.792C250.504 215.14 250.765 215.924 250.417 216.534C248.762 219.67 246.933 222.718 245.017 225.68C244.668 226.202 243.884 226.377 243.275 226.028ZM255.643 201.466C255.033 201.204 254.772 200.507 254.946 199.898C256.166 196.675 257.211 193.278 258.082 189.968C258.256 189.271 258.953 188.923 259.65 189.097C260.346 189.271 260.782 189.968 260.608 190.665C259.65 194.062 258.604 197.459 257.472 200.769C257.211 201.466 256.514 201.814 255.817 201.553L255.643 201.466Z" fill="#EDECEB"/>
<path d="M35.7117 233.78C32.9244 230.296 31.4437 228.815 32.8373 227.857C34.231 226.899 34.8407 228.641 37.8021 232.212C38.2376 232.735 38.1505 233.519 37.6279 233.954C36.9311 234.477 36.1472 234.39 35.7117 233.78Z" fill="#EDECEB"/>
<path d="M52.1735 202.598L70.7261 201.64C75.9522 208.782 82.3106 214.966 89.4529 220.105C88.9303 237.874 87.6238 239.093 89.4529 239.877L110.183 248.413C110.793 248.675 111.49 248.5 111.925 248.065L124.119 234.39C132.829 235.871 141.714 235.958 150.424 234.564L162.879 248.326C163.315 248.849 164.012 248.936 164.621 248.762L185.177 240.487C185.787 240.226 186.135 239.616 186.135 239.006L184.829 220.715C191.884 215.75 198.155 209.566 203.207 202.511L221.76 203.73C222.37 203.817 222.979 203.382 223.241 202.859L231.602 182.565C231.864 181.955 231.69 181.258 231.167 180.823L217.144 168.541C218.45 159.918 218.363 151.208 216.882 142.672C230.122 130.565 231.864 130.739 231.08 128.91C222.108 109.051 222.805 107.483 220.802 107.57L202.249 108.528C197.023 101.386 190.752 95.2018 183.522 90.0628C184.045 72.2941 185.352 71.0747 183.522 70.2908C162.792 62.1033 162.357 60.6226 161.05 62.1033L148.856 75.7782C140.146 74.2975 131.262 74.2104 122.551 75.604C110.183 62.5388 110.183 60.6226 108.267 61.3194C88.0593 69.8553 86.6657 69.0714 86.7528 71.0747L88.0593 89.366C80.917 94.4179 74.7328 100.515 69.6809 107.57C51.9122 106.699 50.3444 105.393 49.5604 107.222C41.6342 127.429 40.1535 127.865 41.6342 129.171L55.6575 141.453C54.351 150.076 54.4381 158.786 55.9188 167.322C42.6794 179.342 40.9374 179.255 41.7213 181.084C50.7799 201.117 50.0831 202.685 52.1735 202.598Z" fill="#EDECEB"/>
<path d="M114.887 151.905C116.629 140.233 127.429 132.22 139.101 133.875L139.449 133.962C151.295 135.791 159.744 146.766 158.089 158.437C156.347 170.109 145.547 178.122 133.875 176.467C133.788 176.467 133.614 176.467 133.527 176.38C121.594 174.551 113.319 163.576 114.887 151.905ZM138.927 137.707C129.433 136.139 120.374 142.585 118.806 152.166C118.806 152.253 118.806 152.34 118.719 152.427C117.5 162.183 124.294 171.067 134.049 172.548C143.63 174.116 152.602 167.583 154.17 158.089V157.828C155.389 148.072 148.595 139.188 138.927 137.707Z" fill="white"/>
<path d="M113.929 204.688C110.967 203.382 108.18 201.727 105.567 199.898C104.783 199.375 104.522 198.417 104.87 197.546C104.957 197.459 104.957 197.372 105.044 197.285C105.654 196.414 106.873 196.239 107.744 196.849C110.793 198.94 114.103 200.682 117.5 202.162C143.369 212.876 172.896 201.553 184.219 176.903C184.481 176.293 184.829 175.596 185.003 174.987C195.804 148.856 182.739 118.893 156.173 107.919C129.607 96.9439 99.2956 109.051 88.5821 135.094C82.2237 150.598 86.0562 161.573 85.2723 163.228C84.7497 164.186 83.6173 164.622 82.6592 164.099C82.0495 163.838 81.7011 163.315 81.614 162.618C79.872 152.079 81.3527 141.191 85.882 131.523C105.828 88.3208 169.238 90.0628 188.139 134.31C193.975 147.724 194.149 162.88 188.575 176.38C188.313 177.077 187.965 177.774 187.704 178.471C181.955 191.013 171.503 200.856 158.699 205.908C144.937 211.395 129.607 211.308 115.932 205.559C115.322 205.385 114.625 205.037 113.929 204.688Z" fill="white"/>
<path d="M275.676 123.51C278.899 127.255 282.644 130.478 286.825 133.004L286.999 143.369C286.999 144.501 288.045 144.066 299.455 147.985C300.5 148.334 300.413 147.376 306.597 139.362C311.475 139.798 316.44 139.362 321.23 138.143L328.721 145.372C329.592 146.156 329.94 145.198 340.828 139.798C341.176 139.624 341.351 139.275 341.263 138.927L339.783 128.649C343.528 125.426 346.751 121.681 349.277 117.5C359.206 117.064 360.077 117.761 360.426 116.716C363.997 104.87 364.868 104.609 363.91 103.912L355.635 97.6407C356.071 92.7631 355.635 87.7983 354.416 83.0077L361.645 75.517C362.429 74.646 361.471 74.2976 356.071 63.4099C355.548 62.4518 355.026 63.2357 344.922 64.4551C341.699 60.7097 337.954 57.487 333.773 54.961L333.599 44.596C333.599 43.4637 332.553 43.8992 321.143 39.9796C320.098 39.6312 320.272 40.5893 314.001 48.6026C309.123 48.1671 304.158 48.6026 299.368 49.8221L291.877 42.6797C291.616 42.4184 291.18 42.3313 290.919 42.5055L279.857 48.1671C279.509 48.3413 279.334 48.6897 279.421 49.0381L280.902 59.3161C277.157 62.5389 273.934 66.2842 271.408 70.4651C261.479 70.9006 260.608 70.2038 260.259 71.249C256.688 83.0948 255.817 83.3561 256.688 84.0529L264.963 90.3242C264.527 95.2019 264.963 100.167 266.182 104.957C259.475 112.274 258.343 112.448 258.866 113.406L264.527 124.468C265.05 125.513 265.659 124.729 275.676 123.51Z" fill="#EDECEB"/>
<path d="M297.451 93.1115C297.887 85.9692 304.071 80.4818 311.301 81.0044C318.443 81.4399 323.93 87.6241 323.408 94.8535C322.972 101.996 316.788 107.483 309.559 106.961C302.416 106.525 296.929 100.341 297.451 93.1115ZM301.284 93.3728C300.935 98.4247 304.768 102.78 309.82 103.041C314.872 103.302 319.227 99.557 319.488 94.5051C319.836 89.4533 316.004 85.0982 310.952 84.8369C305.987 84.5756 301.632 88.3209 301.284 93.3728Z" fill="white"/>
<path d="M245.104 113.493C244.581 111.838 244.146 110.096 243.797 108.354C243.623 107.657 244.059 106.96 244.755 106.786C246.497 106.438 246.236 108.354 247.543 112.709C247.717 113.406 247.368 114.103 246.672 114.277C245.975 114.538 245.365 114.103 245.104 113.493Z" fill="#EDECEB"/>
<path d="M242.316 91.1081C242.491 87.537 242.926 84.0529 243.623 80.5688C243.797 79.872 244.407 79.4365 245.104 79.5236C245.8 79.6978 246.236 80.3075 246.149 81.0043C244.32 90.2371 245.713 92.5017 243.623 92.4146C242.839 92.4146 242.316 91.892 242.316 91.1081ZM249.72 65.9358C249.11 65.5874 248.849 64.8906 249.11 64.1938C250.678 60.971 252.507 57.9225 254.511 55.0481C254.946 54.4384 255.73 54.3513 256.34 54.7868C256.862 55.2223 257.037 56.0062 256.688 56.5289C254.772 59.3161 253.03 62.2775 251.462 65.3261C251.114 65.9358 250.33 66.1971 249.72 65.9358ZM266.443 44.3347C266.269 44.2476 266.095 44.1605 266.008 43.9862C265.572 43.4636 265.572 42.5926 266.182 42.1571C268.882 39.8925 271.757 37.7149 274.805 35.8858C275.415 35.5374 276.199 35.6245 276.634 36.2342C277.07 36.8439 276.896 37.6278 276.286 38.0634H276.199C273.325 39.8925 270.537 41.8958 267.924 44.0733C267.402 44.5089 266.879 44.596 266.443 44.3347ZM290.309 31.2694C289.7 30.921 289.438 30.1371 289.7 29.5274C289.874 29.2661 290.135 29.0048 290.396 28.9177C293.793 27.8725 297.277 27.0886 300.761 26.566C301.458 26.4789 302.068 27.0886 302.155 27.7854C302.242 28.3951 301.807 29.0048 301.11 29.179C297.713 29.6145 294.403 30.3984 291.093 31.3565C290.919 31.4436 290.571 31.3565 290.309 31.2694ZM316.701 27.437C316.788 26.7402 317.398 26.2176 318.095 26.3047C321.666 26.7402 325.15 27.3499 328.547 28.308C329.244 28.4822 329.592 29.2661 329.418 29.9629C329.244 30.5726 328.547 31.0081 327.85 30.8339C324.54 29.9629 321.23 29.2661 317.833 28.9177C317.137 28.8306 316.614 28.1338 316.701 27.437Z" fill="#EDECEB"/>
<path d="M347.535 39.9794C343.615 37.2793 341.873 37.018 342.744 35.5373C343.093 34.9276 343.877 34.6663 344.486 35.1018C345.967 35.9728 347.448 36.9309 348.928 37.889C349.538 38.3245 349.625 39.1084 349.277 39.7181C348.928 40.3278 348.145 40.4149 347.535 39.9794Z" fill="#EDECEB"/>
<path d="M375.407 85.6208C374.797 80.8302 373.839 79.4366 375.581 79.0882C376.278 78.914 376.974 79.3495 377.149 80.0463C377.497 81.7884 377.758 83.5304 378.02 85.2724C378.107 85.9692 377.671 86.666 376.887 86.7531C376.191 86.8402 375.494 86.4047 375.407 85.6208Z" fill="#EDECEB"/>
<path d="M288.132 157.044C288.829 155.041 290.309 157.131 299.542 158.612C300.239 158.699 300.674 159.396 300.587 160.092C300.5 160.789 299.803 161.225 299.107 161.138C295.622 160.528 292.226 159.657 288.916 158.612C288.306 158.35 287.958 157.654 288.132 157.044ZM314.698 160.702C314.611 160.005 315.133 159.396 315.83 159.308C325.237 158.525 326.805 156.608 327.327 158.699C327.502 159.396 327.066 160.092 326.369 160.267C322.972 161.051 319.488 161.66 316.004 161.922C315.395 162.009 314.698 161.486 314.698 160.702ZM340.567 153.647C339.522 151.731 342.135 152.079 349.625 146.505C350.148 146.069 351.019 146.156 351.454 146.679C351.89 147.201 351.803 148.072 351.28 148.508C348.493 150.598 345.532 152.515 342.396 154.082C341.699 154.518 340.915 154.344 340.567 153.647ZM361.558 137.011C359.903 135.617 362.342 135.007 367.133 126.907C367.568 126.297 368.352 126.123 368.962 126.558C369.484 126.907 369.659 127.604 369.397 128.213C367.655 131.262 365.652 134.136 363.474 136.836C362.952 137.359 362.081 137.446 361.558 137.011ZM373.404 111.925C375.93 102.867 374.711 100.689 376.801 100.951C377.498 101.038 378.02 101.647 377.933 102.344C377.498 105.828 376.801 109.225 375.843 112.622C375.669 113.319 374.885 113.667 374.188 113.493C373.665 113.319 373.23 112.622 373.404 111.925Z" fill="#EDECEB"/>
<path d="M273.586 151.295C272.105 150.337 270.624 149.292 269.231 148.247C268.621 147.811 268.534 147.027 268.969 146.417C270.015 145.024 271.147 146.679 274.892 149.118C275.502 149.553 275.589 150.337 275.154 150.947C274.805 151.469 274.108 151.556 273.586 151.295Z" fill="#EDECEB"/>
<path d="M294.664 121.594C293.706 121.071 293.444 119.852 293.967 118.981C294.489 118.022 295.622 117.761 296.58 118.197C304.855 122.987 314.958 123.249 323.494 118.893C345.705 107.483 343.092 74.7331 319.313 67.0681C305.726 62.7131 291.092 69.1586 285.082 82.0496C279.16 94.8535 285.866 101.56 281.773 102.518C280.727 102.78 279.682 102.083 279.421 101.038C275.414 83.7916 286.128 66.6326 303.374 62.626C320.62 58.6193 337.779 69.3328 341.786 86.5789C345.792 103.825 335.079 120.984 317.833 124.991C312.171 126.297 306.335 126.036 300.761 124.294C298.67 123.597 296.58 122.726 294.664 121.594Z" fill="white"/>
<path d="M289.351 167.932C289.264 167.322 288.654 166.799 287.609 166.364C288.741 165.754 289.351 165.057 289.351 164.448C289.177 162.444 282.906 161.312 275.241 161.922C267.576 162.531 261.566 164.622 261.74 166.712C261.827 167.322 262.437 167.845 263.482 168.28C262.35 168.89 261.74 169.587 261.74 170.283C261.74 170.98 262.437 171.416 263.482 171.851C262.35 172.461 261.74 173.158 261.74 173.767C261.74 174.377 262.437 174.9 263.482 175.335C262.35 175.945 261.74 176.642 261.74 177.251C261.827 178.123 263.134 178.819 265.137 179.342C265.137 180.039 265.137 180.823 265.224 181.519C265.485 185.178 269.666 188.052 275.154 188.052C280.641 188.052 285.345 184.133 285.432 180.387C285.432 179.603 285.432 178.819 285.345 178.035C287.958 177.164 289.525 176.119 289.438 175.074C289.351 174.464 288.741 173.942 287.696 173.506C288.829 172.896 289.438 172.2 289.438 171.503C289.438 170.806 288.741 170.37 287.696 169.935C288.741 169.238 289.351 168.628 289.351 167.932Z" fill="#182751"/>
<path d="M271.67 180.039C269.666 180.039 267.576 179.865 265.573 179.516C265.486 179.516 265.398 179.429 265.398 179.342C265.398 179.255 265.486 179.168 265.573 179.168C268.882 179.69 272.279 179.777 275.676 179.516C278.551 179.342 281.338 178.819 284.125 178.035C284.212 178.035 284.299 178.035 284.387 178.123C284.387 178.21 284.387 178.297 284.299 178.384C281.512 179.168 278.638 179.69 275.764 179.865C274.37 180.039 272.976 180.039 271.67 180.039Z" fill="#E0D558"/>
<path d="M271.669 176.555C269.143 176.642 266.705 176.381 264.266 175.771C264.179 175.771 264.092 175.597 264.179 175.509C264.179 175.422 264.266 175.335 264.353 175.422C266.966 176.206 271.234 176.381 275.763 176.032C280.292 175.684 284.386 174.813 286.825 173.593C286.912 173.593 286.999 173.593 287.086 173.68C287.086 173.767 287.086 173.855 286.999 173.942C284.473 175.074 280.292 176.032 275.763 176.381C274.37 176.468 273.063 176.555 271.669 176.555Z" fill="#E0D558"/>
<path d="M271.669 172.983C269.056 173.071 266.356 172.722 263.83 172.025C263.743 172.025 263.656 171.938 263.743 171.851C263.743 171.764 263.917 171.677 264.004 171.764C266.617 172.635 271.06 172.896 275.85 172.548C279.683 172.374 283.428 171.503 286.912 170.196C286.999 170.109 287.086 170.196 287.173 170.283C287.173 170.37 287.173 170.458 287.086 170.545C284.56 171.677 280.379 172.635 275.85 172.983H271.669Z" fill="#E0D558"/>
<path d="M271.669 169.499C269.404 169.499 267.227 169.325 265.049 168.89C264.962 168.89 264.875 168.803 264.875 168.715C264.875 168.628 264.962 168.541 265.049 168.541C268.533 169.151 272.104 169.325 275.676 168.977C279.421 168.803 283.166 167.932 286.737 166.625C286.825 166.625 286.912 166.625 286.999 166.712C286.999 166.799 286.999 166.886 286.912 166.973C283.34 168.367 279.595 169.151 275.763 169.412C274.369 169.499 272.975 169.499 271.669 169.499Z" fill="#E0D558"/>
<path d="M256.514 150.25C255.556 146.94 253.988 143.892 251.898 141.191C244.32 131.697 239.791 120.113 239.007 107.919C237.7 84.7497 258.169 73.1652 276.896 74.733C295.623 76.3009 314.088 90.2371 312.085 111.751C310.865 124.991 303.462 135.007 297.887 140.843C294.403 144.501 291.877 148.943 290.571 153.821C288.916 159.831 284.996 167.322 275.589 167.67C263.482 168.367 258.43 157.044 256.514 150.25Z" fill="#E0D558"/>
<path d="M278.725 163.141L285.258 120.548C285.432 119.677 285.867 119.068 286.216 119.242C286.564 119.416 286.825 120.2 286.738 121.071V121.158L279.248 163.402C279.16 163.751 278.986 163.925 278.899 163.838C278.812 163.751 278.638 163.489 278.725 163.141Z" fill="white"/>
<path d="M271.93 163.489L265.398 120.897C265.224 120.026 264.875 119.416 264.44 119.59C264.004 119.765 263.83 120.548 264.004 121.419V121.507L271.495 163.751C271.582 164.099 271.669 164.273 271.843 164.186C272.018 164.099 271.93 163.838 271.93 163.489Z" fill="white"/>
<path d="M285.257 116.89C285.083 116.629 284.735 116.542 284.386 116.629L280.728 118.371L279.421 114.8C279.334 114.626 279.16 114.451 278.986 114.364C278.55 114.19 278.115 114.364 277.854 114.713L274.892 120.2L272.105 112.448C272.018 112.274 271.844 112.1 271.669 112.012C271.234 111.751 270.624 111.838 270.276 112.274L266.095 118.022C265.921 118.284 266.008 118.545 266.182 118.719H266.269C266.53 118.893 266.966 118.893 267.14 118.632L270.798 114.538L274.108 121.942C274.195 122.029 274.282 122.203 274.37 122.203C274.718 122.378 275.066 122.29 275.241 121.942L278.463 116.803L279.683 119.416V119.503C279.857 119.764 280.205 119.852 280.554 119.764L284.909 117.761C285.17 117.5 285.344 117.239 285.257 116.89Z" fill="white"/>
<path d="M298.061 135.356C297.626 135.443 297.278 135.094 297.19 134.659C297.19 134.397 297.278 134.223 297.365 134.049C298.497 132.568 299.455 131.001 300.413 129.433C300.674 128.997 301.197 128.91 301.546 129.171C301.981 129.433 302.068 129.955 301.807 130.304C300.849 131.959 299.803 133.526 298.671 135.094C298.584 135.181 298.323 135.356 298.061 135.356Z" fill="white"/>
<path d="M303.461 126.123C303.025 126.123 302.59 125.774 302.59 125.339C302.59 125.252 302.59 125.078 302.677 124.991C306.858 115.671 307.119 105.044 303.548 95.5502C303.374 95.2018 303.461 94.6792 303.896 94.505H303.983C304.332 94.3308 304.854 94.4179 305.029 94.8534V94.9405C305.29 95.5502 311.387 109.138 304.158 125.774C304.071 125.862 303.809 126.123 303.461 126.123Z" fill="white"/>
<path d="M164.97 429.236C164.97 429.236 163.925 435.072 163.315 440.733C163.141 442.911 164.709 444.827 166.886 445.001H167.06C174.725 445.437 191.1 446.134 196.936 445.959C197.633 445.959 198.156 445.35 198.156 444.653C198.156 444.479 198.156 444.391 198.068 444.217C197.807 443.52 197.285 442.911 196.588 442.649L169.673 430.02L164.97 429.236Z" fill="black"/>
<path d="M164.187 425.839L164.97 432.807C164.97 432.807 169.761 435.072 172.984 432.633L171.068 424.881L164.187 425.839Z" fill="#EF8F7F"/>
<path d="M166.103 295.274C165.754 297.103 163.316 385.772 172.461 425.578C172.635 426.187 172.287 426.884 171.677 427.145C169.238 428.104 166.625 428.539 163.925 428.626C162.88 428.626 161.922 427.929 161.661 426.971C159.048 417.738 146.418 371.4 145.198 327.24C143.805 277.941 145.198 325.585 145.198 325.585L146.592 295.1L166.103 295.274Z" fill="black"/>
<path d="M133.875 432.023C133.875 432.023 132.22 434.897 130.565 442.737C130.304 444.043 131.088 445.262 132.307 445.611C132.394 445.611 132.568 445.698 132.655 445.698C135.181 445.959 139.101 446.308 142.149 446.308C143.456 446.308 144.501 445.262 144.501 443.956V443.608C144.153 440.733 143.195 436.117 139.885 432.459L133.875 432.023Z" fill="black"/>
<path d="M132.403 434.984L132.49 422.616L140.068 422.703L139.981 435.072L132.403 434.984Z" fill="url(#paint0_linear_2136_9345)"/>
<path d="M128.474 297.625C120.286 344.312 129.084 413.296 132.132 426.797C132.306 427.581 133.003 428.19 133.787 428.365C135.791 428.713 137.881 428.713 139.884 428.191C140.668 427.929 141.278 427.232 141.278 426.448C141.8 415.561 141.713 348.667 149.117 322.275C149.465 320.969 150.336 319.749 151.469 318.965L165.579 309.123L166.799 293.096L128.474 297.625Z" fill="black"/>
<path d="M178.732 209.479C155.476 208.869 129.781 215.141 129.781 215.141C122.464 255.556 127.778 302.155 127.778 302.155C145.72 307.033 166.102 299.629 166.102 299.629C169.238 282.731 183.697 235.348 183.697 235.348C193.713 234.303 203.382 231.341 212.179 226.638C206.343 219.757 203.643 211.047 202.511 205.995C194.759 208.347 186.832 209.479 178.732 209.479Z" fill="#EE3956"/>
<path d="M247.716 175.945C246.497 174.377 244.407 173.767 242.577 174.464C239.006 188.836 220.976 200.42 202.511 205.995C203.643 211.134 206.343 219.844 212.179 226.638C242.839 209.74 247.716 175.945 247.716 175.945Z" fill="#EF8F7F"/>
<path d="M247.106 176.642C247.367 177.426 244.58 178.558 242.925 175.422C242.925 173.941 242.054 167.583 242.925 166.364C247.716 159.918 256.949 151.992 256.949 151.992C257.82 152.776 257.907 154.082 257.21 155.04L252.681 159.657C253.552 161.312 254.684 162.793 255.207 164.796C255.555 166.364 255.381 168.019 254.51 169.412C253.639 170.98 252.681 172.548 251.635 174.029C250.677 175.509 249.022 176.467 247.106 176.642Z" fill="#EF8F7F"/>
<path d="M250.765 162.531L246.671 165.928L245.364 169.325L248.935 173.419C248.935 173.419 250.242 166.625 251.113 165.144C251.984 163.664 251.636 162.967 250.765 162.531Z" fill="#EF8F7F"/>
<path d="M138.491 237.7L129.781 215.14C129.781 215.14 107.918 229.686 104.173 248.326C110.705 248.849 117.151 250.591 122.987 253.552C124.729 244.755 138.491 237.7 138.491 237.7Z" fill="#EE3956"/>
<path d="M157.305 259.04C157.305 259.04 132.829 272.54 124.729 260.782C123.248 258.691 122.639 256.078 123.074 253.552C117.238 250.591 110.793 248.849 104.26 248.326C102.954 254.336 103.912 260.607 106.873 266.008C120.984 292.487 160.441 265.05 160.441 265.05L157.305 259.04Z" fill="#EF8F7F"/>
<path d="M155.389 190.404L147.811 211.656C147.724 212.005 147.811 212.44 148.159 212.614C150.162 213.747 157.392 217.057 166.189 211.569C167.147 211.047 167.757 210.088 167.844 208.956L170.457 190.491L155.389 190.404Z" fill="#EF8F7F"/>
<path d="M170.892 171.503C170.892 171.503 178.819 186.833 177.773 193.017C176.641 199.201 166.624 198.678 157.914 193.539L151.904 176.99L170.892 171.503Z" fill="#EB6A4F"/>
<path d="M171.677 170.719C171.677 170.719 179.603 186.049 178.558 192.233C177.425 198.417 167.409 197.894 158.698 192.755L152.688 176.206L171.677 170.719Z" fill="#EF8F7F"/>
<path d="M159.134 184.655C159.482 184.481 159.569 184.132 159.482 183.871C159.482 183.871 159.482 183.784 159.395 183.784C158.437 182.303 157.653 180.648 157.218 178.993C157.218 178.993 155.737 178.035 160.963 176.816C166.189 175.597 173.854 173.767 175.509 169.412C177.164 165.057 173.07 154.344 166.363 162.88C166.189 163.141 165.753 163.228 165.492 162.967L165.405 162.88C164.36 161.486 161.485 158.525 157.479 160.267C153.733 161.834 153.298 164.622 153.385 166.015C153.385 166.364 153.124 166.625 152.775 166.625H152.601C150.685 166.277 146.243 165.928 144.065 170.545C142.323 174.29 143.368 176.468 144.414 177.513C144.675 177.774 144.675 178.122 144.414 178.384C144.327 178.471 144.239 178.558 144.152 178.558C142.933 178.906 141.278 179.952 141.452 182.826C141.626 186.833 146.069 186.484 147.375 186.31C147.549 186.31 147.811 186.397 147.898 186.484C148.943 187.704 153.821 192.843 159.134 193.539C159.482 193.539 159.831 193.365 159.831 193.017V192.755L157.566 186.049C157.479 185.7 157.566 185.352 157.914 185.265L159.134 184.655Z" fill="black"/>
<path d="M160.005 185.613C160.005 185.613 154.256 181.606 153.821 184.916C153.385 188.226 158.96 189.794 161.747 188.575L160.005 185.613Z" fill="#EF8F7F"/>
<path d="M152.253 280.467L165.579 233.867C165.753 233.345 166.189 232.909 166.711 232.909C169.063 232.648 176.118 231.864 184.219 231.167C193.974 230.383 205.297 229.686 212.004 230.209C212.788 230.296 213.311 230.906 213.224 231.69C213.224 231.864 213.136 232.038 213.049 232.212C209.217 239.964 193.364 271.669 185.438 282.034C185.177 282.383 184.741 282.557 184.306 282.557L153.385 282.296C152.601 282.296 151.991 281.686 151.991 280.902C152.165 280.641 152.253 280.554 152.253 280.467Z" fill="#EDECEB"/>
<path d="M155.476 269.143C155.476 269.143 153.647 261.478 154.344 258.778C155.041 256.078 156.521 252.594 161.399 253.378C164.97 254.075 168.541 254.946 171.938 256.165C171.938 256.165 171.677 259.736 168.019 258.517L170.283 260.259C170.283 260.259 169.935 263.046 166.886 261.565L168.977 263.917C168.367 265.137 166.799 265.572 165.667 264.962C165.58 264.875 165.493 264.875 165.406 264.788C163.054 263.395 162.009 270.101 155.476 269.143Z" fill="#EF8F7F"/>
<path d="M183.348 245.016C183.348 247.194 185.177 248.936 187.267 248.936C189.358 248.936 191.187 247.107 191.187 245.016C191.187 242.926 189.358 241.097 187.267 241.097C185.177 241.097 183.348 242.839 183.348 245.016Z" fill="#182751"/>
<path d="M167.148 247.629L166.189 247.368L168.89 238.135C169.325 236.655 170.545 235.522 172.025 235.174C180.648 233.345 203.295 232.996 204.253 232.996V234.042C203.991 234.042 180.735 234.39 172.199 236.219C171.067 236.48 170.109 237.351 169.848 238.397L167.148 247.629Z" fill="#182751"/>
<path d="M9.1456 378.02C7.75198 380.11 2.09039 427.755 1.21938 445.349C1.13227 446.482 2.09039 447.44 3.22271 447.527H3.30981C4.35503 447.527 5.22604 446.743 5.40024 445.785L15.7653 379.588L9.1456 378.02Z" fill="white"/>
<path d="M54.6119 378.02C56.0055 380.11 61.6671 427.755 62.5381 445.349C62.6252 446.482 61.6671 447.44 60.5348 447.527H60.4477C59.4025 447.527 58.5315 446.743 58.3573 445.785L47.9922 379.588L54.6119 378.02Z" fill="white"/>
<path d="M0.609375 374.275V374.797C0.696476 378.717 3.91923 381.766 7.83879 381.678L55.6575 382.462C59.577 382.549 62.974 379.675 63.1482 376.017V375.581C63.3224 371.749 60.0996 368.526 55.9188 368.439L8.1001 367.568C4.00633 367.481 0.696476 370.529 0.609375 374.275Z" fill="white"/>
<path d="M101.299 443.607C92.7626 443.607 89.0172 442.911 87.3623 442.214C87.7107 443.695 89.0172 444.74 90.498 444.74H120.548C121.332 444.74 122.029 444.13 122.029 443.259C122.029 443.085 122.029 442.998 121.942 442.824C118.545 443.172 111.315 443.607 101.299 443.607Z" fill="black"/>
<path d="M122.028 442.911C121.941 442.736 121.854 442.562 121.767 442.388C119.502 439.427 114.886 434.897 108.615 434.984C99.469 435.071 96.2462 436.117 89.1039 435.071L87.449 440.646C87.2748 441.169 87.2748 441.778 87.3619 442.301C89.0168 442.998 92.7622 443.695 101.298 443.695C111.315 443.607 118.544 443.172 122.028 442.911Z" fill="black"/>
<path d="M91.1949 428.974L89.1045 436.03C89.1045 436.03 93.6338 438.12 97.7275 436.465L98.5114 430.368L91.1949 428.974Z" fill="#EF8F7F"/>
<path d="M153.473 439.252C146.853 444.566 143.456 446.395 141.714 446.917C142.846 447.876 144.588 447.876 145.721 446.917L169.151 428.104C169.761 427.581 169.848 426.71 169.412 426.1C169.325 426.013 169.238 425.926 169.151 425.839C166.625 428.016 161.225 432.981 153.473 439.252Z" fill="black"/>
<path d="M169.151 425.665C168.977 425.577 168.802 425.49 168.628 425.403C165.057 424.532 158.611 423.923 153.734 427.842C146.679 433.678 144.762 436.465 138.578 440.123L140.756 445.524C140.93 446.046 141.278 446.482 141.714 446.83C143.456 446.308 146.853 444.479 153.472 439.165C161.224 432.981 166.625 428.016 169.151 425.665Z" fill="black"/>
<path d="M47.0347 349.103C47.0347 349.103 97.9019 353.283 108.354 358.161C118.806 363.039 99.8181 431.936 99.8181 431.936C99.8181 431.936 96.9438 433.33 90.6725 431.326C90.6725 431.326 97.118 380.546 92.3274 369.484L37.2793 360.513L47.0347 349.103Z" fill="#EDECEB"/>
<g opacity="0.1">
<path d="M47.0171 349.094C47.0171 349.094 97.8843 353.275 108.336 358.152C118.789 363.03 99.8005 431.927 99.8005 431.927C99.8005 431.927 96.9262 433.321 90.6549 431.317C90.6549 431.317 97.1004 380.537 92.3098 369.475L37.2617 360.504L47.0171 349.094Z" fill="#182751"/>
</g>
<path d="M133.526 430.542C133.962 430.978 138.578 440.21 138.578 440.21C138.578 440.21 143.717 439.078 144.675 435.855L140.059 427.494L133.526 430.542Z" fill="#EF8F7F"/>
<path d="M16.375 348.667C15.2427 351.628 14.7201 354.764 14.8072 357.987C14.9814 365.303 20.7301 371.313 28.1337 371.662L88.2337 374.362C89.5402 374.449 90.5854 375.32 90.9338 376.539C92.3274 382.027 99.2956 398.75 133.004 432.284C133.875 433.155 135.268 433.33 136.401 432.633L141.191 429.584C141.714 429.236 141.888 428.626 141.54 428.103L106.525 368.352C104.696 365.303 101.734 363.126 98.3374 362.255L47.0347 349.102L16.375 348.667Z" fill="#EDECEB"/>
<path d="M75.691 255.294C75.691 255.294 69.2455 266.704 62.7129 272.192L76.3007 279.77C76.3007 279.77 79.3493 267.75 86.3174 264.179L75.691 255.294Z" fill="#EF8F7F"/>
<path d="M15.3291 349.102C15.3291 349.102 31.53 353.022 47.034 349.102C47.034 349.102 68.7223 319.923 77.084 311.997C77.084 311.997 90.4976 333.076 120.199 336.124L121.854 332.379C121.854 332.379 98.1626 321.491 90.846 304.681C83.5295 287.87 80.6552 280.728 73.9484 276.373C69.7675 273.673 67.3287 271.756 66.0221 270.798C65.3253 270.276 64.3672 270.189 63.5833 270.624C56.7023 274.892 23.5166 297.625 15.3291 349.102Z" fill="#E0D558"/>
<path d="M76.2134 311.562C75.865 311.562 75.6037 311.388 75.3424 311.126C72.0325 306.684 69.2453 301.806 67.1548 296.667C66.9806 296.145 67.1548 295.535 67.7646 295.274C68.2872 295.1 68.8969 295.274 69.1582 295.883C71.1615 300.848 73.8617 305.552 76.9973 309.82C77.3457 310.255 77.2586 310.952 76.8231 311.3C76.736 311.562 76.4747 311.562 76.2134 311.562Z" fill="#182751"/>
<path d="M118.458 330.463L121.855 329.592L132.046 327.24C133.265 326.979 134.572 327.153 135.617 327.85L144.327 333.337H120.2L118.458 330.463Z" fill="#EF8F7F"/>
<path d="M85.0974 239.006C85.0974 239.006 91.3687 249.371 92.4139 255.207C93.4591 261.043 95.2883 264.527 88.6686 266.618C82.0488 268.708 76.0388 266.095 72.2064 260.695C72.2064 260.695 66.2835 252.42 66.8061 248.675C67.3287 244.929 85.0974 239.006 85.0974 239.006Z" fill="#EB6A4F"/>
<path d="M85.8816 238.222C85.8816 238.222 92.1529 248.587 93.1981 254.423C94.2433 260.259 96.0724 263.743 89.4527 265.834C82.833 267.924 76.823 265.311 72.9906 259.911C72.9906 259.911 67.0677 251.636 67.5903 247.891C68.1129 244.145 85.8816 238.222 85.8816 238.222Z" fill="#EF8F7F"/>
<path d="M74.8197 255.381L75.6907 255.294C75.6907 255.294 71.2485 248.588 74.1229 246.933C76.9972 245.278 88.843 241.184 90.9335 236.568C92.9368 232.038 89.9754 226.986 86.4042 225.941C86.1429 225.854 85.9687 226.028 85.8816 226.202L85.7074 226.812C85.6203 227.073 85.359 227.161 85.0977 227.073C85.0106 226.986 84.9235 226.899 84.8364 226.812C84.7493 226.551 84.488 226.464 84.2267 226.551C84.1396 226.638 84.0525 226.638 83.9654 226.812C83.3556 228.206 81.4394 230.558 75.7778 232.387C67.6774 235 62.7126 239.093 63.3223 244.842C63.3223 245.103 63.1481 245.365 62.8868 245.365H62.6255C61.9287 245.103 60.9706 245.016 59.8383 246.323C57.8349 248.5 59.4028 253.378 64.8901 256.775C65.1514 256.949 65.1514 257.211 65.0643 257.385L64.9772 257.472C64.1933 258.169 62.9739 259.736 66.7193 261.13C70.4646 262.524 72.6422 262.088 73.4261 261.74C73.6003 261.653 73.7745 261.479 73.6874 261.217L72.7293 256.165C72.6422 255.904 72.8164 255.643 73.0777 255.643L74.8197 255.381Z" fill="black"/>
<path d="M75.1687 256.427C75.1687 256.427 72.3814 249.633 69.5071 251.984C66.6327 254.423 72.2072 259.649 74.7332 259.562L75.1687 256.427Z" fill="#EF8F7F"/>
<path d="M109.138 338.041H109.225L160.876 337.954C162.182 338.041 163.228 337.083 163.402 335.863C163.576 334.644 162.531 333.511 161.311 333.337H160.963L109.312 333.424C108.005 333.424 106.96 334.382 106.96 335.689C106.873 336.995 107.918 338.041 109.138 338.041Z" fill="#EE3956"/>
<path d="M180.909 287.522C180.909 287.522 180.909 287.609 180.822 287.609L159.133 334.382C158.611 335.515 159.046 336.908 160.179 337.431C161.311 337.953 162.705 337.518 163.227 336.386V336.299L185.003 289.525C185.525 288.393 185.09 286.999 183.957 286.477C182.912 285.867 181.519 286.389 180.909 287.522Z" fill="#EE3956"/>
<path d="M316.178 385.162H310.69V444.13H316.178V385.162Z" fill="#9E9E9E"/>
<path d="M337.256 445.175H289.524C289.524 443.259 291.092 441.604 293.096 441.604H333.772C335.688 441.691 337.256 443.259 337.256 445.175Z" fill="#9E9E9E"/>
<path d="M290.135 371.923H338.389C341.612 371.923 344.225 374.536 344.225 377.759V383.072C344.225 386.295 341.612 388.908 338.389 388.908H290.135C286.912 388.908 284.299 386.295 284.299 383.072V377.759C284.299 374.536 286.912 371.923 290.135 371.923Z" fill="#9E9E9E"/>
<path d="M273.149 345.88C266.965 347.186 261.129 349.625 255.99 353.196C254.597 354.154 253.813 355.809 253.987 357.551C255.119 366.174 259.561 394.134 274.369 421.397C275.153 422.877 275.414 424.532 275.065 426.187L272.54 438.12L267.749 442.562H280.03L288.218 420.438L284.734 419.306C282.034 418.435 280.204 415.996 280.117 413.122L279.682 389.43C280.03 378.891 273.236 371.575 273.236 371.575L292.834 370.616L273.149 345.88Z" fill="#EB6A4F"/>
<path d="M262.871 444.653C261.739 446.133 274.891 448.05 281.511 444.827C281.511 444.827 290.744 428.8 290.744 420.613C290.744 420.613 290.047 418.958 284.647 419.306C284.647 419.306 281.598 438.294 278.288 440.385C274.979 442.475 269.143 440.646 269.143 440.646C269.143 440.646 264.526 442.562 262.871 444.653Z" fill="black"/>
<path d="M290.135 371.923C290.048 371.749 269.056 369.397 269.056 369.397C269.405 374.536 268.882 379.588 267.576 384.553C265.398 393.35 234.651 431.413 234.651 431.413L237.874 441.691C228.38 445.088 218.189 445.698 208.347 443.433L228.38 431.413C228.38 431.413 247.107 367.568 258.604 356.158L279.596 348.841L290.135 371.923Z" fill="#EF8F7F"/>
<path d="M337.257 334.731C337.257 334.731 349.364 352.761 350.322 360.948C351.28 369.136 347.012 372.446 334.295 373.055C321.578 373.665 287.783 373.578 287.783 373.578L258.865 348.841C258.865 348.841 279.944 341.35 285.431 339.173C290.919 336.995 337.257 334.818 337.257 334.731Z" fill="black"/>
<path d="M236.654 438.207C236.654 438.207 240.138 441.604 237.786 445.35C237.786 445.35 210.262 450.227 202.771 448.05C202.771 448.05 204.339 444.479 212.788 440.472L212.178 440.995C211.743 441.343 211.656 441.953 212.004 442.388C212.178 442.649 212.527 442.824 212.875 442.824C218.363 442.388 229.86 441.343 236.654 438.207Z" fill="black"/>
<path d="M284.821 220.715C309.558 216.534 321.142 236.655 320.358 240.922C320.271 241.358 320.62 241.793 321.055 241.793H321.403C324.278 241.01 330.549 240.051 334.382 244.929C337.779 249.197 335.253 253.291 333.162 255.556C332.901 255.904 332.901 256.427 333.249 256.688C333.423 256.862 333.598 256.862 333.859 256.862C339.085 256.165 350.408 256.078 352.237 266.705C353.979 276.634 347.098 279.334 343.005 280.205C342.569 280.292 342.308 280.728 342.395 281.163C342.482 281.338 342.569 281.512 342.743 281.599C344.747 282.905 347.185 285.518 346.227 290.832C344.747 299.106 328.546 298.409 326.63 298.322C326.542 298.322 326.368 298.322 326.281 298.235L300.325 283.428C300.151 283.341 299.977 283.08 299.977 282.905L294.75 252.594C294.75 252.333 294.75 252.071 294.925 251.897L277.853 228.031C271.669 227.073 284.56 220.802 284.821 220.715Z" fill="black"/>
<path d="M304.506 332.379C304.506 332.379 290.396 318.965 283.515 310.081C279.77 305.29 278.637 298.932 280.379 293.096C283.515 282.47 289.177 271.408 289.699 269.666C290.483 267.053 306.248 267.14 306.248 267.14C306.248 267.14 337.344 287.348 349.538 321.491L335.863 325.759C335.863 325.759 327.763 312.171 319.749 303.461C319.749 303.461 333.598 321.753 334.121 329.243L304.506 332.379Z" fill="#E0D558"/>
<path d="M287.695 255.033C287.87 255.556 291.963 269.23 292.312 269.492C292.66 269.753 301.37 270.276 305.464 267.401L295.273 247.542L287.695 255.033Z" fill="#EF8F7F"/>
<path d="M272.017 238.222C272.017 238.222 270.014 246.061 275.501 256.601C280.988 267.14 287.26 267.14 290.657 263.743C294.054 260.346 298.234 254.684 297.276 244.494C296.318 234.303 274.891 228.293 272.017 238.222Z" fill="#EB6A4F"/>
<path d="M271.234 237.439C271.234 237.439 269.23 245.278 274.718 255.817C280.205 266.356 286.476 266.356 289.873 262.959C293.27 259.562 297.451 253.901 296.493 243.71C295.535 233.519 274.108 227.509 271.234 237.439Z" fill="#EF8F7F"/>
<path d="M288.915 244.232C288.915 244.232 279.769 230.296 271.233 241.271L271.059 245.278C271.059 245.278 261.042 244.058 262.785 234.912C264.527 225.767 273.237 219.931 284.386 223.938C295.535 227.944 301.98 232.038 302.677 240.051C303.374 248.065 297.015 246.323 297.015 246.323C297.015 246.323 294.925 240.661 291.963 240.139C289.002 239.616 289.786 243.971 289.786 243.971L288.915 244.232Z" fill="black"/>
<path d="M291.267 244.058C291.267 244.058 286.476 236.916 291.354 235.871C296.231 234.825 295.448 242.839 294.925 245.8L291.267 244.058Z" fill="#EF8F7F"/>
<path d="M275.85 333.424L286.215 323.407L300.499 329.417C300.499 329.417 314.784 331.595 322.884 329.417L331.072 327.24L349.537 321.491L352.412 329.592C353.109 331.682 352.412 333.947 350.583 335.253C349.102 336.386 347.534 337.344 345.966 338.128C343.527 339.173 286.128 337.431 286.128 337.431L275.85 333.424Z" fill="#EF8F7F"/>
<path d="M315.045 338.128H314.871L254.858 338.041C253.378 338.041 252.158 336.821 252.158 335.341C252.158 333.86 253.378 332.64 254.858 332.64L314.871 332.727C316.352 332.727 317.571 333.86 317.658 335.341C317.658 336.821 316.526 338.041 315.045 338.128Z" fill="#EE3956"/>
<path d="M200.942 283.602H250.852C254.51 283.602 257.907 285.693 259.475 289.09L282.556 338.041H220.453C218.101 338.041 215.924 336.56 215.053 334.382L197.11 289.09C196.326 287.086 197.284 284.735 199.288 283.951C199.897 283.689 200.42 283.602 200.942 283.602Z" fill="#EE3956"/>
<path d="M236.131 308.687C237.176 312.084 236.392 315.307 234.389 316.004C232.386 316.701 229.773 314.523 228.64 311.126C227.508 307.729 228.379 304.506 230.382 303.81C232.386 303.113 235.086 305.377 236.131 308.687Z" fill="white"/>
<path d="M383.42 437.772C383.855 440.298 384.117 442.824 384.291 445.437C384.378 447.179 383.072 448.747 381.329 448.921C375.145 449.53 361.209 450.576 352.238 449.356C351.454 449.269 350.844 448.485 351.018 447.614C351.105 447.266 351.192 447.005 351.454 446.743C355.112 443.346 363.996 436.639 378.629 435.159L383.42 437.772Z" fill="black"/>
<path d="M386.469 429.933L383.333 437.51C382.897 438.556 381.852 439.165 380.72 439.078C379.849 438.991 378.978 438.817 378.194 438.556C376.452 438.033 375.494 436.204 376.016 434.375L378.368 426.536L386.469 429.933Z" fill="#EF8F7F"/>
<path d="M439.601 443.869C439.601 443.869 433.416 449.095 430.977 455.715C430.455 457.195 431.239 458.85 432.719 459.286C433.068 459.373 433.329 459.46 433.678 459.46H446.482C448.136 459.46 449.53 458.154 449.53 456.499C449.53 456.324 449.53 456.15 449.443 455.976C448.572 451.36 446.22 443.869 439.601 443.869Z" fill="black"/>
<path d="M447.266 437.075C447.266 437.075 446.046 442.649 445.088 446.308C444.914 446.917 444.304 447.266 443.607 447.092H443.52C442.039 446.482 440.472 446.221 438.817 446.221C438.294 446.308 437.859 445.872 437.859 445.437V445.35L437.771 436.117L447.266 437.075Z" fill="#EF8F7F"/>
<path d="M414.167 311.997L376.365 427.407C376.365 427.407 383.595 432.197 387.079 431.936L432.023 339.173C432.023 339.173 439.862 396.311 436.117 437.336L449.008 438.294C449.008 438.294 469.912 333.424 454.06 297.538L414.167 311.997Z" fill="#EDECEB"/>
<path d="M407.112 210.437C407.112 210.437 437.771 213.137 433.416 235C433.416 235 450.314 266.879 458.24 304.419C458.501 305.639 457.718 306.771 456.498 307.032H456.411L405.37 315.743C403.976 316.004 402.582 315.133 402.234 313.739L390.04 266.617L385.249 288.567L370.181 284.647L382.897 220.279C383.072 220.192 384.814 210.785 407.112 210.437Z" fill="#E0D558"/>
<path d="M389.866 264.527C390.127 264.44 390.301 264.266 390.214 264.092L385.946 244.581C385.946 244.407 385.772 244.232 385.511 244.232C385.336 244.232 385.162 244.407 385.162 244.668V244.755L389.43 264.266C389.517 264.353 389.691 264.527 389.866 264.527Z" fill="#182751"/>
<path d="M393.001 322.624C394.569 321.753 396.485 321.491 398.227 321.927L401.799 322.798C402.495 322.972 403.192 322.536 403.366 321.84V321.665L407.025 289.002C411.641 291.18 418.261 290.919 420.438 290.744L411.989 329.33H382.375L393.001 322.624Z" fill="#EF8F7F"/>
<path d="M314.349 251.723L315.22 248.762C315.742 247.02 316.962 245.626 318.704 245.016L334.905 238.484C334.905 238.484 335.166 236.393 331.508 235C327.849 233.606 328.72 229.425 328.72 229.425C328.72 229.425 333.685 231.69 341.002 235.348C344.486 237.177 347.273 240.226 348.754 243.797L385.423 288.48L381.155 291.441C375.929 295.012 368.787 293.706 365.216 288.48C364.955 288.131 364.78 287.783 364.519 287.435L344.573 249.371C334.73 252.159 324.452 253.03 314.349 251.723Z" fill="#EF8F7F"/>
<path d="M397.182 189.533L406.589 215.925C406.589 215.925 398.228 222.457 392.13 220.28L387.34 205.124C387.427 205.124 391.085 186.658 397.182 189.533Z" fill="#EF8F7F"/>
<path d="M369.048 180.126C369.048 180.561 378.106 205.821 378.106 205.821L392.478 200.333L387.426 175.074C387.426 175.074 369.048 173.245 369.048 180.126Z" fill="#EF8F7F"/>
<path d="M384.901 181.171L388.559 194.236C388.647 194.41 388.647 194.585 388.647 194.759C388.647 195.804 388.385 199.549 384.64 199.027C381.243 198.591 378.107 198.243 376.191 199.114C375.32 199.549 374.885 200.595 375.233 201.466C376.627 205.472 378.369 209.392 380.372 213.137C380.895 214.008 381.94 214.357 382.811 213.921C385.511 212.702 391.085 210.002 395.092 206.692C395.615 206.256 395.876 205.559 395.789 204.863C395.179 201.553 393.263 191.362 393.176 188.4C393.089 185.7 396.137 183.61 397.531 182.826C397.966 182.565 398.315 182.129 398.402 181.607C398.837 179.864 399.186 175.858 394.134 174.987C393.089 174.813 392.392 173.854 392.566 172.809V172.722C393.002 170.632 392.827 167.496 388.821 166.364C384.814 165.231 382.201 167.67 380.895 169.499C380.372 170.283 379.327 170.545 378.543 170.109C377.933 169.848 377.323 169.935 376.888 170.37C376.104 170.98 374.885 170.893 374.275 170.109C374.275 170.022 374.188 170.022 374.188 169.935C372.968 168.193 370.878 166.451 367.22 167.583C360.774 169.674 361.035 177.164 363.387 181.171C365.739 185.178 372.62 182.565 375.93 179.864C378.369 177.861 382.201 179.081 383.856 179.777C384.292 180.213 384.727 180.648 384.901 181.171Z" fill="black"/>
<path d="M394.482 193.191C394.482 193.191 390.649 185.962 393.175 183.697C395.701 181.432 399.969 181.781 399.882 187.442C399.795 194.498 394.482 193.191 394.482 193.191Z" fill="#EF8F7F"/>
<path d="M417.476 291.267C419.567 291.267 421.048 291.093 421.222 291.093H421.483L432.632 239.093C432.632 238.919 432.545 238.658 432.371 238.658C432.197 238.571 431.935 238.745 431.935 238.919L420.873 290.396C419.218 290.57 410.334 291.093 405.631 287.783L415.299 242.577L413.296 238.745C413.208 238.571 412.947 238.484 412.773 238.571C412.599 238.658 412.512 238.832 412.599 239.006V239.093L414.515 242.665L404.847 288.044L405.021 288.219C408.418 290.832 413.818 291.267 417.476 291.267Z" fill="#182751"/>
<path d="M82.9196 449.879C82.6583 449.879 82.397 449.792 82.1357 449.705C81.0905 449.182 80.655 447.963 81.0905 446.917L121.854 343.441C122.202 342.483 123.248 341.96 124.206 342.222C124.264 342.222 124.322 342.251 124.38 342.309C125.425 342.831 125.861 344.051 125.425 345.096L84.6617 448.659C84.4003 449.356 83.7035 449.879 82.9196 449.879Z" fill="#9E9E9E"/>
<path d="M128.823 449.879C128.039 449.879 127.342 449.356 126.993 448.572L86.3171 345.183C85.8816 344.138 86.3171 342.918 87.3623 342.396C88.3204 341.96 89.4527 342.396 89.8882 343.354C89.8882 343.441 89.9753 343.441 89.9753 343.528L130.652 446.917C131.087 447.963 130.652 449.182 129.606 449.705C129.432 449.879 129.084 449.879 128.823 449.879Z" fill="#9E9E9E"/>
<path d="M359.728 449.879C359.467 449.879 359.206 449.792 358.944 449.705C357.899 449.182 357.464 447.963 357.899 446.917L398.663 343.441C399.011 342.483 400.056 341.96 401.014 342.222C401.072 342.222 401.13 342.251 401.189 342.309C402.234 342.831 402.669 344.051 402.234 345.096L361.47 448.659C361.209 449.356 360.512 449.879 359.728 449.879Z" fill="#9E9E9E"/>
<path d="M405.631 449.879C404.847 449.879 404.151 449.356 403.802 448.572L363.039 345.096C362.603 344.051 363.039 342.831 364.084 342.309C365.042 341.873 366.174 342.309 366.61 343.267C366.61 343.354 366.697 343.354 366.697 343.441L407.46 446.917C407.896 447.963 407.46 449.182 406.415 449.705C406.154 449.879 405.893 449.879 405.631 449.879Z" fill="#9E9E9E"/>
<path d="M353.719 336.212H412.773V330.115H353.719C355.025 330.115 355.025 336.212 353.719 336.212Z" fill="#EDECEB"/>
<path d="M412.251 336.211C412.599 336.211 412.773 335.95 412.773 335.689V330.724C412.773 330.376 412.512 330.201 412.251 330.201H352.499C352.151 330.201 351.977 329.94 351.977 329.679V329.243C351.977 328.982 352.238 328.721 352.499 328.721H416.17C417.564 328.721 418.696 329.853 418.696 331.247V335.166C418.696 336.473 417.651 337.518 416.344 337.518H352.499C352.151 337.518 351.977 337.257 351.977 336.995V336.734C351.977 336.473 352.238 336.211 352.499 336.211H412.251Z" fill="#EE3956"/>
<path d="M421.396 340.305C421.57 339.608 421.309 338.825 420.699 338.389C419.915 337.779 418.957 337.518 417.999 337.518H64.1062C62.8868 337.431 61.6674 337.954 60.7093 338.737C60.0124 339.434 59.8382 340.479 60.448 341.263L64.2804 346.838C65.1514 348.057 67.0677 348.928 69.1581 348.928H415.473C417.39 348.928 419.132 348.057 419.393 346.751L421.396 340.305Z" fill="#D8D8D8"/>
</g>
<defs>
<linearGradient id="paint0_linear_2136_9345" x1="133.52" y1="565.156" x2="133.528" y2="564.291" gradientUnits="userSpaceOnUse">
<stop stop-color="#FEBBBA"/>
<stop offset="1" stop-color="#FF928E"/>
</linearGradient>
<clipPath id="clip0_2136_9345">
<rect width="460" height="459.46" fill="white"/>
</clipPath>
</defs>
</svg>
