<svg width="703" height="199" viewBox="0 0 703 199" fill="none" xmlns="http://www.w3.org/2000/svg">
<path d="M0.3 79H-0.7V80H0.3V79ZM0.3 9V8H-0.7V9H0.3ZM13.7 9L14.5563 8.48346L14.2646 8H13.7V9ZM43.5 58.4V59.4H45.2711L44.3563 57.8835L43.5 58.4ZM36.4 58.4L35.5399 57.8899L34.6442 59.4H36.4V58.4ZM65.7 9V8H65.1305L64.8399 8.48986L65.7 9ZM79 9L80 8.99714L79.9972 8H79V9ZM79.2 79V80H80.2029L80.2 78.9971L79.2 79ZM64 79L63 79.0021L63.0021 80H64V79ZM63.9 32.3V31.3H62.8979L62.9 32.3021L63.9 32.3ZM66.7 32.3L67.5592 32.8116L68.4593 31.3H66.7V32.3ZM43.3 71.6V72.6H43.8684L44.1592 72.1116L43.3 71.6ZM36 71.6L35.1456 72.1196L35.4377 72.6H36V71.6ZM12.1 32.3V31.3H10.3215L11.2456 32.8196L12.1 32.3ZM15.5 32.3H16.5V31.3H15.5V32.3ZM15.5 79V80H16.5V79H15.5ZM1.3 79V9H-0.7V79H1.3ZM0.3 10H13.7V8H0.3V10ZM12.8437 9.51653L42.6437 58.9165L44.3563 57.8835L14.5563 8.48346L12.8437 9.51653ZM43.5 57.4H36.4V59.4H43.5V57.4ZM37.2601 58.9101L66.5601 9.51013L64.8399 8.48986L35.5399 57.8899L37.2601 58.9101ZM65.7 10H79V8H65.7V10ZM78 9.00285L78.2 79.0029L80.2 78.9971L80 8.99714L78 9.00285ZM79.2 78H64V80H79.2V78ZM65 78.9979L64.9 32.2979L62.9 32.3021L63 79.0021L65 78.9979ZM63.9 33.3H66.7V31.3H63.9V33.3ZM65.8408 31.7884L42.4408 71.0884L44.1592 72.1116L67.5592 32.8116L65.8408 31.7884ZM43.3 70.6H36V72.6H43.3V70.6ZM36.8544 71.0804L12.9544 31.7804L11.2456 32.8196L35.1456 72.1196L36.8544 71.0804ZM12.1 33.3H15.5V31.3H12.1V33.3ZM14.5 32.3V79H16.5V32.3H14.5ZM15.5 78H0.3V80H15.5V78ZM105.008 76.2L104.529 77.0779L104.535 77.0809L105.008 76.2ZM94.5078 66.4L93.6515 66.9165L93.6564 66.9245L93.6614 66.9324L94.5078 66.4ZM94.5078 37.8L93.6575 37.2736L93.6552 37.2774L94.5078 37.8ZM105.008 28L105.476 28.8835L105.481 28.8809L105.008 28ZM135.508 28L135.034 28.8809L135.045 28.8863L135.508 28ZM146.008 66.4L146.86 66.9226L146.864 66.9165L146.008 66.4ZM135.508 76.2L135.035 75.3191L135.508 76.2ZM127.308 65.2L127.81 66.0648L127.308 65.2ZM132.208 60.1L133.086 60.5789L133.092 60.5679L132.208 60.1ZM132.208 44.1L131.33 44.5788L132.208 44.1ZM127.308 39L126.806 39.8648L127.308 39ZM113.308 39L113.81 39.8648L113.308 39ZM108.308 44.1L107.441 43.601L107.435 43.611L107.43 43.6211L108.308 44.1ZM108.308 60.1L107.424 60.5679L107.432 60.5836L107.441 60.599L108.308 60.1ZM113.308 65.2L113.81 64.3352L113.308 65.2ZM120.308 78.8C114.718 78.8 109.784 77.6312 105.481 75.3191L104.535 77.0809C109.165 79.5688 114.431 80.8 120.308 80.8V78.8ZM105.487 75.3221C101.233 73.0017 97.8608 69.8523 95.3543 65.8675L93.6614 66.9324C96.3548 71.2144 99.9831 74.5983 104.529 77.0779L105.487 75.3221ZM95.3641 65.8835C92.9329 61.8529 91.7078 57.2677 91.7078 52.1H89.7078C89.7078 57.5989 91.016 62.5471 93.6515 66.9165L95.3641 65.8835ZM91.7078 52.1C91.7078 46.8628 92.9342 42.2812 95.3604 38.3226L93.6552 37.2774C91.0148 41.5855 89.7078 46.5372 89.7078 52.1H91.7078ZM95.3581 38.3264C97.8639 34.2784 101.232 31.1344 105.476 28.8835L104.539 27.1165C99.984 29.5322 96.3517 32.9216 93.6575 37.2736L95.3581 38.3264ZM105.481 28.8809C109.784 26.5688 114.718 25.4 120.308 25.4V23.4C114.431 23.4 109.165 24.6312 104.535 27.1191L105.481 28.8809ZM120.308 25.4C125.829 25.4 130.73 26.5679 135.035 28.8809L135.981 27.1191C131.353 24.6321 126.12 23.4 120.308 23.4V25.4ZM135.045 28.8863C139.358 31.1394 142.72 34.2498 145.155 38.2226L146.86 37.1774C144.229 32.8836 140.591 29.5273 135.971 27.1136L135.045 28.8863ZM145.155 38.2226C147.58 42.1792 148.808 46.7936 148.808 52.1H150.808C150.808 46.473 149.502 41.4874 146.86 37.1774L145.155 38.2226ZM148.808 52.1C148.808 57.2677 147.583 61.8529 145.152 65.8835L146.864 66.9165C149.5 62.5471 150.808 57.5989 150.808 52.1H148.808ZM145.155 65.8774C142.719 69.8528 139.353 72.9989 135.035 75.3191L135.981 77.0809C140.596 74.6011 144.23 71.2139 146.86 66.9226L145.155 65.8774ZM135.035 75.3191C130.73 77.6321 125.829 78.8 120.308 78.8V80.8C126.12 80.8 131.353 79.5679 135.981 77.0809L135.035 75.3191ZM120.308 68C123.068 68 125.577 67.3611 127.81 66.0648L126.806 64.3352C124.905 65.4389 122.747 66 120.308 66V68ZM127.81 66.0648C130.043 64.7684 131.803 62.9313 133.086 60.5788L131.33 59.6211C130.213 61.6687 128.706 63.2316 126.806 64.3352L127.81 66.0648ZM133.092 60.5679C134.382 58.1314 135.008 55.298 135.008 52.1H133.008C133.008 55.0353 132.434 57.5353 131.324 59.6321L133.092 60.5679ZM135.008 52.1C135.008 48.8405 134.383 46.0004 133.086 43.6211L131.33 44.5788C132.432 46.5996 133.008 49.0928 133.008 52.1H135.008ZM133.086 43.6211C131.803 41.2687 130.043 39.4316 127.81 38.1352L126.806 39.8648C128.706 40.9684 130.213 42.5313 131.33 44.5788L133.086 43.6211ZM127.81 38.1352C125.577 36.8389 123.068 36.2 120.308 36.2V38.2C122.747 38.2 124.905 38.7611 126.806 39.8648L127.81 38.1352ZM120.308 36.2C117.547 36.2 115.038 36.8389 112.806 38.1352L113.81 39.8648C115.711 38.7611 117.868 38.2 120.308 38.2V36.2ZM112.806 38.1352C110.578 39.4286 108.79 41.2591 107.441 43.601L109.174 44.599C110.359 42.5409 111.904 40.9714 113.81 39.8648L112.806 38.1352ZM107.43 43.6211C106.132 46.0004 105.508 48.8405 105.508 52.1H107.508C107.508 49.0928 108.083 46.5996 109.186 44.5788L107.43 43.6211ZM105.508 52.1C105.508 55.298 106.134 58.1314 107.424 60.5679L109.192 59.6321C108.082 57.5353 107.508 55.0353 107.508 52.1H105.508ZM107.441 60.599C108.79 62.9409 110.578 64.7714 112.806 66.0648L113.81 64.3352C111.904 63.2286 110.359 61.6591 109.174 59.601L107.441 60.599ZM112.806 66.0648C115.038 67.3611 117.547 68 120.308 68V66C117.868 66 115.711 65.4389 113.81 64.3352L112.806 66.0648ZM179.835 76.8L180.342 75.9381L179.835 76.8ZM172.035 67.7L171.118 68.0993L171.121 68.1047L172.035 67.7ZM172.135 36.5L171.232 36.0706L171.226 36.0828L172.135 36.5ZM180.135 27.4L179.628 26.5381L180.135 27.4ZM205.635 27.8L205.142 28.67L205.148 28.6735L205.635 27.8ZM215.235 37.4L214.364 37.8916L214.37 37.9021L215.235 37.4ZM215.235 66.7L214.37 66.1978L214.364 66.2084L215.235 66.7ZM205.635 76.4L206.128 77.27L206.133 77.2674L205.635 76.4ZM160.235 79H159.235V80H160.235V79ZM160.235 4.8V3.8H159.235V4.8H160.235ZM175.835 4.8H176.835V3.8H175.835V4.8ZM175.835 36.1L176.833 36.1628L176.835 36.1314V36.1H175.835ZM174.835 52L173.837 51.9372L173.835 51.978L173.835 52.0187L174.835 52ZM175.135 68H176.135V67.9906L176.135 67.9813L175.135 68ZM175.135 79V80H176.135V79H175.135ZM196.235 65.2L195.733 64.3352L195.727 64.3388L195.721 64.3425L196.235 65.2ZM201.135 60.1L200.262 59.6122L200.257 59.6211L201.135 60.1ZM201.135 44.1L200.257 44.5788L200.263 44.589L200.269 44.599L201.135 44.1ZM196.235 39L195.721 39.8575L195.727 39.8612L195.733 39.8648L196.235 39ZM182.335 39L182.837 39.8648L182.335 39ZM177.435 44.1L178.313 44.5788L177.435 44.1ZM177.435 60.1L176.551 60.5679L176.557 60.5788L177.435 60.1ZM182.335 65.2L182.837 64.3352L182.335 65.2ZM192.035 78.8C187.444 78.8 183.56 77.8311 180.342 75.9381L179.328 77.6619C182.91 79.7689 187.159 80.8 192.035 80.8V78.8ZM180.342 75.9381C177.145 74.0574 174.676 71.1961 172.95 67.2952L171.121 68.1047C172.994 72.3373 175.725 75.5426 179.328 77.6619L180.342 75.9381ZM172.952 67.3007C171.224 63.3323 170.335 58.2793 170.335 52.1H168.335C168.335 58.454 169.247 63.801 171.118 68.0993L172.952 67.3007ZM170.335 52.1C170.335 45.855 171.257 40.8104 173.044 36.9172L171.226 36.0828C169.28 40.3229 168.335 45.6783 168.335 52.1H170.335ZM173.038 36.9294C174.898 33.0169 177.438 30.1467 180.642 28.2619L179.628 26.5381C176.032 28.6533 173.239 31.8498 171.232 36.0706L173.038 36.9294ZM180.642 28.2619C183.867 26.3651 187.653 25.4 192.035 25.4V23.4C187.351 23.4 183.204 24.4349 179.628 26.5381L180.642 28.2619ZM192.035 25.4C196.947 25.4 201.307 26.497 205.142 28.67L206.128 26.93C201.963 24.5696 197.257 23.4 192.035 23.4V25.4ZM205.148 28.6735C209.051 30.8488 212.12 33.9152 214.364 37.8916L216.106 36.9084C213.684 32.6182 210.353 29.2846 206.122 26.9265L205.148 28.6735ZM214.37 37.9021C216.667 41.8568 217.835 46.5768 217.835 52.1H219.835C219.835 46.2899 218.604 41.2099 216.1 36.8979L214.37 37.9021ZM217.835 52.1C217.835 57.5542 216.668 62.2415 214.37 66.1979L216.1 67.2021C218.603 62.8919 219.835 57.8458 219.835 52.1H217.835ZM214.364 66.2084C212.118 70.1873 209.046 73.2899 205.137 75.5326L206.133 77.2674C210.357 74.8434 213.685 71.4794 216.106 67.1916L214.364 66.2084ZM205.142 75.53C201.307 77.703 196.947 78.8 192.035 78.8V80.8C197.257 80.8 201.963 79.6304 206.128 77.27L205.142 75.53ZM161.235 79V4.8H159.235V79H161.235ZM160.235 5.8H175.835V3.8H160.235V5.8ZM174.835 4.8V36.1H176.835V4.8H174.835ZM174.837 36.0372L173.837 51.9372L175.833 52.0628L176.833 36.1628L174.837 36.0372ZM173.835 52.0187L174.135 68.0187L176.135 67.9813L175.835 51.9813L173.835 52.0187ZM174.135 68V79H176.135V68H174.135ZM175.135 78H160.235V80H175.135V78ZM189.335 68C192.095 68 194.577 67.3611 196.75 66.0575L195.721 64.3425C193.893 65.4389 191.775 66 189.335 66V68ZM196.737 66.0648C198.97 64.7684 200.73 62.9313 202.013 60.5788L200.257 59.6211C199.14 61.6687 197.634 63.2316 195.733 64.3352L196.737 66.0648ZM202.008 60.5878C203.372 58.1471 204.035 55.3064 204.035 52.1H202.035C202.035 55.0269 201.432 57.5195 200.262 59.6122L202.008 60.5878ZM204.035 52.1C204.035 48.8322 203.374 45.9846 202.002 43.601L200.269 44.599C201.43 46.6154 202.035 49.1011 202.035 52.1H204.035ZM202.013 43.6211C200.73 41.2687 198.97 39.4316 196.737 38.1352L195.733 39.8648C197.634 40.9684 199.14 42.5313 200.257 44.5788L202.013 43.6211ZM196.75 38.1425C194.577 36.8389 192.095 36.2 189.335 36.2V38.2C191.775 38.2 193.893 38.7611 195.721 39.8575L196.75 38.1425ZM189.335 36.2C186.575 36.2 184.065 36.8389 181.833 38.1352L182.837 39.8648C184.738 38.7611 186.896 38.2 189.335 38.2V36.2ZM181.833 38.1352C179.6 39.4316 177.84 41.2687 176.557 43.6211L178.313 44.5788C179.43 42.5313 180.937 40.9684 182.837 39.8648L181.833 38.1352ZM176.557 43.6211C175.259 46.0004 174.635 48.8405 174.635 52.1H176.635C176.635 49.0928 177.211 46.5996 178.313 44.5788L176.557 43.6211ZM174.635 52.1C174.635 55.298 175.261 58.1314 176.551 60.5679L178.319 59.6321C177.209 57.5353 176.635 55.0353 176.635 52.1H174.635ZM176.557 60.5788C177.84 62.9313 179.6 64.7684 181.833 66.0648L182.837 64.3352C180.937 63.2316 179.43 61.6687 178.313 59.6211L176.557 60.5788ZM181.833 66.0648C184.065 67.3611 186.575 68 189.335 68V66C186.896 66 184.738 65.4389 182.837 64.3352L181.833 66.0648ZM229.278 79H228.278V80H229.278V79ZM229.278 25.2V24.2H228.278V25.2H229.278ZM244.878 25.2H245.878V24.2H244.878V25.2ZM244.878 79V80H245.878V79H244.878ZM230.078 15.2L229.399 15.9338L230.078 15.2ZM230.078 2.8L230.758 3.53376L230.078 2.8ZM244.078 2.7L243.414 3.44741L243.422 3.45441L243.43 3.46124L244.078 2.7ZM244.078 15.2L244.771 15.9208L244.772 15.9203L244.078 15.2ZM230.278 79V25.2H228.278V79H230.278ZM229.278 26.2H244.878V24.2H229.278V26.2ZM243.878 25.2V79H245.878V25.2H243.878ZM244.878 78H229.278V80H244.878V78ZM237.078 16.7C234.418 16.7 232.342 15.9333 230.758 14.4662L229.399 15.9338C231.414 17.8001 234.005 18.7 237.078 18.7V16.7ZM230.758 14.4662C229.163 12.99 228.378 11.1899 228.378 9H226.378C226.378 11.7435 227.393 14.0766 229.399 15.9338L230.758 14.4662ZM228.378 9C228.378 6.81014 229.163 5.00998 230.758 3.53376L229.399 2.06624C227.393 3.92335 226.378 6.25652 226.378 9H228.378ZM230.758 3.53376C232.342 2.06672 234.418 1.29999 237.078 1.29999V-0.700006C234.005 -0.700006 231.414 0.199937 229.399 2.06624L230.758 3.53376ZM237.078 1.29999C239.749 1.29999 241.83 2.04005 243.414 3.44741L244.742 1.95259C242.726 0.159943 240.141 -0.700006 237.078 -0.700006V1.29999ZM243.43 3.46124C244.996 4.79538 245.778 6.51184 245.778 8.7H247.778C247.778 5.95482 246.76 3.67128 244.727 1.93876L243.43 3.46124ZM245.778 8.7C245.778 11.0406 244.98 12.9432 243.384 14.4797L244.772 15.9203C246.776 13.9901 247.778 11.5594 247.778 8.7H245.778ZM243.385 14.4792C241.877 15.929 239.813 16.7 237.078 16.7V18.7C240.21 18.7 242.812 17.8044 244.771 15.9208L243.385 14.4792ZM259.356 79H258.356V80H259.356V79ZM259.356 4.8V3.8H258.356V4.8H259.356ZM274.956 4.8H275.956V3.8H274.956V4.8ZM274.956 79V80H275.956V79H274.956ZM260.356 79V4.8H258.356V79H260.356ZM259.356 5.8H274.956V3.8H259.356V5.8ZM273.956 4.8V79H275.956V4.8H273.956ZM274.956 78H259.356V80H274.956V78ZM299.934 76.2L299.472 77.0866L299.477 77.0893L299.934 76.2ZM289.234 66.4L288.378 66.9165L288.382 66.9226L289.234 66.4ZM289.134 37.8L288.278 37.2835L288.276 37.2875L289.134 37.8ZM299.434 28L299.909 28.8805L299.919 28.8748L299.434 28ZM328.334 27.8L327.859 28.68L327.868 28.6845L327.876 28.6888L328.334 27.8ZM338.434 37.4L337.572 37.9064L337.576 37.9125L338.434 37.4ZM342.034 54.4L343.03 54.4905L343.031 54.483L342.034 54.4ZM341.834 56.5V57.5H342.739L342.829 56.5995L341.834 56.5ZM298.134 56.5H297.134V57.5H298.134V56.5ZM298.134 47.4V46.4H297.134V47.4H298.134ZM333.634 47.4L334.045 48.3119L333.634 46.4V47.4ZM327.634 50.1H326.634V51.6466L328.045 51.0119L327.634 50.1ZM325.934 42.8L325.058 43.2808L325.934 42.8ZM321.234 38L320.72 38.8575L320.731 38.8639L320.741 38.87L321.234 38ZM307.134 38L307.627 38.8701L307.637 38.8648L307.134 38ZM302.434 42.9L303.311 43.3809L303.318 43.3692L302.434 42.9ZM302.634 60.5L301.761 60.9878L301.77 61.0032L301.779 61.0183L302.634 60.5ZM308.134 65.6L307.677 66.4893L307.692 66.497L307.707 66.5042L308.134 65.6ZM324.034 66L323.668 65.0695L323.658 65.0735L324.034 66ZM330.034 62.1L330.77 61.4221L330.077 60.6709L329.341 61.3797L330.034 62.1ZM338.334 71.1L339.085 71.761L339.681 71.0847L339.069 70.4221L338.334 71.1ZM329.034 77.6L329.4 78.5308L329.407 78.5279L329.414 78.525L329.034 77.6ZM316.134 78.8C310.133 78.8 304.895 77.6266 300.392 75.3107L299.477 77.0893C304.307 79.5734 309.869 80.8 316.134 80.8V78.8ZM300.397 75.3134C295.946 72.9911 292.519 69.8455 290.087 65.8774L288.382 66.9226C291.016 71.2212 294.723 74.6089 299.472 77.0866L300.397 75.3134ZM290.091 65.8835C287.66 61.8529 286.434 57.2677 286.434 52.1H284.434C284.434 57.5989 285.743 62.5471 288.378 66.9165L290.091 65.8835ZM286.434 52.1C286.434 46.8579 287.63 42.2726 289.993 38.3125L288.276 37.2875C285.706 41.5941 284.434 46.5421 284.434 52.1H286.434ZM289.991 38.3165C292.431 34.2704 295.732 31.1292 299.908 28.8805L298.96 27.1195C294.47 29.5375 290.904 32.9296 288.278 37.2835L289.991 38.3165ZM299.919 28.8748C304.089 26.5652 308.819 25.4 314.134 25.4V23.4C308.516 23.4 303.446 24.6348 298.95 27.1252L299.919 28.8748ZM314.134 25.4C319.253 25.4 323.82 26.5 327.859 28.68L328.809 26.92C324.449 24.5666 319.549 23.4 314.134 23.4V25.4ZM327.876 28.6888C331.972 30.8008 335.2 33.867 337.572 37.9064L339.297 36.8936C336.736 32.533 333.23 29.1992 328.793 26.9112L327.876 28.6888ZM337.576 37.9125C339.933 41.8618 341.134 46.6434 341.134 52.3H343.134C343.134 46.3566 341.87 41.2048 339.293 36.8875L337.576 37.9125ZM341.134 52.3C341.134 52.8648 341.103 53.536 341.038 54.317L343.031 54.483C343.099 53.664 343.134 52.9352 343.134 52.3H341.134ZM341.038 54.3095C340.972 55.0401 340.906 55.7371 340.839 56.4005L342.829 56.5995C342.896 55.9296 342.963 55.2266 343.03 54.4905L341.038 54.3095ZM341.834 55.5H298.134V57.5H341.834V55.5ZM299.134 56.5V47.4H297.134V56.5H299.134ZM298.134 48.4H333.634V46.4H298.134V48.4ZM333.224 46.4881L327.224 49.1881L328.045 51.0119L334.045 48.3119L333.224 46.4881ZM328.634 50.1C328.634 47.1635 328.039 44.5586 326.811 42.3192L325.058 43.2808C326.096 45.1747 326.634 47.4365 326.634 50.1H328.634ZM326.811 42.3192C325.591 40.094 323.893 38.3573 321.727 37.13L320.741 38.87C322.576 39.9094 324.011 41.3727 325.058 43.2808L326.811 42.3192ZM321.749 37.1425C319.572 35.8365 317.056 35.2 314.234 35.2V37.2C316.746 37.2 318.897 37.7635 320.72 38.8575L321.749 37.1425ZM314.234 35.2C311.412 35.2 308.869 35.8367 306.632 37.1352L307.637 38.8648C309.534 37.7633 311.723 37.2 314.234 37.2V35.2ZM306.641 37.13C304.467 38.362 302.769 40.1385 301.551 42.4308L303.318 43.3692C304.366 41.3949 305.802 39.9047 307.627 38.87L306.641 37.13ZM301.558 42.4192C300.328 44.6619 299.734 47.3013 299.734 50.3H301.734C301.734 47.5653 302.274 45.2714 303.311 43.3808L301.558 42.4192ZM299.734 50.3V52.7H301.734V50.3H299.734ZM299.734 52.7C299.734 55.7816 300.401 58.5536 301.761 60.9878L303.507 60.0122C302.334 57.9131 301.734 55.4851 301.734 52.7H299.734ZM301.779 61.0183C303.21 63.3796 305.183 65.2065 307.677 66.4893L308.592 64.7107C306.419 63.5935 304.725 62.0204 303.49 59.9817L301.779 61.0183ZM307.707 66.5042C310.266 67.7123 313.217 68.3 316.534 68.3V66.3C313.452 66.3 310.803 65.7544 308.561 64.6957L307.707 66.5042ZM316.534 68.3C319.5 68.3 322.133 67.852 324.411 66.9265L323.658 65.0735C321.67 65.8813 319.303 66.3 316.534 66.3V68.3ZM324.401 66.9304C326.729 66.0131 328.839 64.6392 330.728 62.8203L329.341 61.3797C327.63 63.0275 325.739 64.2536 323.668 65.0696L324.401 66.9304ZM329.299 62.7779L337.599 71.7779L339.069 70.4221L330.77 61.4221L329.299 62.7779ZM337.584 70.439C335.227 73.1145 332.258 75.1952 328.654 76.675L329.414 78.525C333.278 76.9382 336.508 74.6855 339.085 71.761L337.584 70.439ZM328.669 76.6693C325.074 78.0815 320.902 78.8 316.134 78.8V80.8C321.1 80.8 325.528 80.0518 329.4 78.5308L328.669 76.6693ZM0.3 179H-0.7V180H0.3V179ZM0.3 109V108H-0.7V109H0.3ZM52.2 113.4L51.7487 114.292L51.7569 114.296L52.2 113.4ZM65.8 125.5L64.9532 126.032L65.8 125.5ZM65.8 162.5L66.6468 163.032L66.6498 163.027L65.8 162.5ZM52.2 174.7L52.6431 175.597L52.6513 175.592L52.2 174.7ZM16.5 165.7H15.5V166.7H16.5V165.7ZM43.4 163.1L43.8542 163.991L43.8608 163.987L43.4 163.1ZM51.4 155.5L50.5394 154.991L50.5355 154.997L50.5318 155.004L51.4 155.5ZM51.4 132.5L50.5318 132.996L50.5378 133.007L50.5441 133.017L51.4 132.5ZM43.4 125L42.9321 125.884L42.9424 125.889L42.9528 125.894L43.4 125ZM16.5 122.3V121.3H15.5V122.3H16.5ZM1.3 179V109H-0.7V179H1.3ZM0.3 110H32.1V108H0.3V110ZM32.1 110C39.5697 110 46.1105 111.441 51.7487 114.292L52.6513 112.508C46.6895 109.492 39.8303 108 32.1 108V110ZM51.7569 114.296C57.4005 117.086 61.7902 120.997 64.9532 126.032L66.6468 124.968C63.2765 119.603 58.5995 115.447 52.6431 112.504L51.7569 114.296ZM64.9532 126.032C68.1045 131.048 69.7 137.024 69.7 144H71.7C71.7 136.709 70.0289 130.352 66.6468 124.968L64.9532 126.032ZM69.7 144C69.7 150.907 68.1055 156.886 64.9502 161.973L66.6498 163.027C70.0278 157.581 71.7 151.226 71.7 144H69.7ZM64.9532 161.968C61.7889 167.005 57.3964 170.951 51.7487 173.808L52.6513 175.592C58.6036 172.582 63.2778 168.395 66.6468 163.032L64.9532 161.968ZM51.7569 173.804C46.1168 176.591 39.573 178 32.1 178V180C39.827 180 46.6832 178.542 52.6431 175.596L51.7569 173.804ZM32.1 178H0.3V180H32.1V178ZM16.5 166.7H31.3V164.7H16.5V166.7ZM31.3 166.7C36.0899 166.7 40.2856 165.81 43.8542 163.991L42.9458 162.209C39.7144 163.856 35.8434 164.7 31.3 164.7V166.7ZM43.8608 163.987C47.4912 162.102 50.3024 159.436 52.2682 155.996L50.5318 155.004C48.7642 158.097 46.2421 160.498 42.9392 162.213L43.8608 163.987ZM52.2606 156.009C54.2989 152.565 55.3 148.55 55.3 144H53.3C53.3 148.25 52.3678 151.901 50.5394 154.991L52.2606 156.009ZM55.3 144C55.3 139.387 54.3004 135.367 52.2559 131.983L50.5441 133.017C52.3663 136.033 53.3 139.68 53.3 144H55.3ZM52.2682 132.004C50.3005 128.56 47.4848 125.924 43.8472 124.106L42.9528 125.894C46.2485 127.542 48.7661 129.906 50.5318 132.996L52.2682 132.004ZM43.8679 124.116C40.2961 122.225 36.0954 121.3 31.3 121.3V123.3C35.838 123.3 39.7039 124.175 42.9321 125.884L43.8679 124.116ZM31.3 121.3H16.5V123.3H31.3V121.3ZM15.5 122.3V165.7H17.5V122.3H15.5ZM92.3172 176.2L91.8546 177.087L91.8598 177.089L92.3172 176.2ZM81.6172 166.4L80.7609 166.917L80.7646 166.923L81.6172 166.4ZM81.5172 137.8L80.6609 137.283L80.6585 137.288L81.5172 137.8ZM91.8172 128L92.2913 128.881L92.3017 128.875L91.8172 128ZM120.717 127.8L120.242 128.68L120.251 128.684L120.259 128.689L120.717 127.8ZM130.817 137.4L129.955 137.906L129.958 137.912L130.817 137.4ZM134.417 154.4L135.413 154.491L135.414 154.483L134.417 154.4ZM134.217 156.5V157.5H135.122L135.212 156.6L134.217 156.5ZM90.5172 156.5H89.5172V157.5H90.5172V156.5ZM90.5172 147.4V146.4H89.5172V147.4H90.5172ZM126.017 147.4L126.428 148.312L126.017 146.4V147.4ZM120.017 150.1H119.017V151.647L120.428 151.012L120.017 150.1ZM118.317 142.8L117.44 143.281L118.317 142.8ZM113.617 138L113.103 138.857L113.113 138.864L113.124 138.87L113.617 138ZM99.5172 138L100.01 138.87L100.019 138.865L99.5172 138ZM94.8172 142.9L95.6941 143.381L95.7003 143.369L94.8172 142.9ZM95.0172 160.5L94.1442 160.988L94.1528 161.003L94.162 161.018L95.0172 160.5ZM100.517 165.6L100.06 166.489L100.075 166.497L100.09 166.504L100.517 165.6ZM116.417 166L116.051 165.07L116.041 165.074L116.417 166ZM122.417 162.1L123.152 161.422L122.46 160.671L121.724 161.38L122.417 162.1ZM130.717 171.1L131.468 171.761L132.063 171.085L131.452 170.422L130.717 171.1ZM121.417 177.6L121.783 178.531L121.79 178.528L121.797 178.525L121.417 177.6ZM108.517 178.8C102.516 178.8 97.2776 177.627 92.7745 175.311L91.8598 177.089C96.6901 179.573 102.252 180.8 108.517 180.8V178.8ZM92.7798 175.313C88.3286 172.991 84.9018 169.845 82.4698 165.877L80.7646 166.923C83.3992 171.221 87.1058 174.609 91.8546 177.087L92.7798 175.313ZM82.4735 165.883C80.0423 161.853 78.8172 157.268 78.8172 152.1H76.8172C76.8172 157.599 78.1254 162.547 80.7609 166.916L82.4735 165.883ZM78.8172 152.1C78.8172 146.858 80.0126 142.273 82.3759 138.312L80.6585 137.288C78.0884 141.594 76.8172 146.542 76.8172 152.1H78.8172ZM82.3735 138.316C84.814 134.27 88.1151 131.129 92.2913 128.88L91.3431 127.12C86.8526 129.537 83.2871 132.93 80.6609 137.284L82.3735 138.316ZM92.3017 128.875C96.4718 126.565 101.202 125.4 106.517 125.4V123.4C100.899 123.4 95.8293 124.635 91.3327 127.125L92.3017 128.875ZM106.517 125.4C111.636 125.4 116.203 126.5 120.242 128.68L121.192 126.92C116.832 124.567 111.932 123.4 106.517 123.4V125.4ZM120.259 128.689C124.355 130.801 127.583 133.867 129.955 137.906L131.679 136.894C129.118 132.533 125.613 129.199 121.175 126.911L120.259 128.689ZM129.958 137.912C132.315 141.862 133.517 146.643 133.517 152.3H135.517C135.517 146.357 134.252 141.205 131.676 136.888L129.958 137.912ZM133.517 152.3C133.517 152.865 133.486 153.536 133.421 154.317L135.414 154.483C135.482 153.664 135.517 152.935 135.517 152.3H133.517ZM133.421 154.309C133.355 155.04 133.288 155.737 133.222 156.4L135.212 156.6C135.279 155.93 135.346 155.227 135.413 154.491L133.421 154.309ZM134.217 155.5H90.5172V157.5H134.217V155.5ZM91.5172 156.5V147.4H89.5172V156.5H91.5172ZM90.5172 148.4H126.017V146.4H90.5172V148.4ZM125.607 146.488L119.607 149.188L120.428 151.012L126.428 148.312L125.607 146.488ZM121.017 150.1C121.017 147.163 120.422 144.559 119.194 142.319L117.44 143.281C118.479 145.175 119.017 147.436 119.017 150.1H121.017ZM119.194 142.319C117.974 140.094 116.276 138.357 114.11 137.13L113.124 138.87C114.958 139.909 116.394 141.373 117.44 143.281L119.194 142.319ZM114.132 137.143C111.955 135.837 109.439 135.2 106.617 135.2V137.2C109.129 137.2 111.279 137.763 113.103 138.857L114.132 137.143ZM106.617 135.2C103.795 135.2 101.251 135.837 99.0151 137.135L100.019 138.865C101.916 137.763 104.106 137.2 106.617 137.2V135.2ZM99.0242 137.13C96.85 138.362 95.1519 140.138 93.9341 142.431L95.7003 143.369C96.7491 141.395 98.1843 139.905 100.01 138.87L99.0242 137.13ZM93.9404 142.419C92.7105 144.662 92.1172 147.301 92.1172 150.3H94.1172C94.1172 147.565 94.6572 145.271 95.694 143.381L93.9404 142.419ZM92.1172 150.3V152.7H94.1172V150.3H92.1172ZM92.1172 152.7C92.1172 155.782 92.7839 158.554 94.1442 160.988L95.8901 160.012C94.7171 157.913 94.1172 155.485 94.1172 152.7H92.1172ZM94.162 161.018C95.5931 163.38 97.5656 165.207 100.06 166.489L100.975 164.711C98.8021 163.593 97.1079 162.02 95.8724 159.982L94.162 161.018ZM100.09 166.504C102.648 167.712 105.599 168.3 108.917 168.3V166.3C105.835 166.3 103.186 165.754 100.944 164.696L100.09 166.504ZM108.917 168.3C111.882 168.3 114.515 167.852 116.794 166.926L116.041 165.074C114.052 165.881 111.685 166.3 108.917 166.3V168.3ZM116.784 166.93C119.112 166.013 121.222 164.639 123.111 162.82L121.724 161.38C120.012 163.027 118.122 164.254 116.051 165.07L116.784 166.93ZM121.682 162.778L129.982 171.778L131.452 170.422L123.152 161.422L121.682 162.778ZM129.967 170.439C127.61 173.114 124.64 175.195 121.037 176.675L121.797 178.525C125.661 176.938 128.891 174.686 131.468 171.761L129.967 170.439ZM121.052 176.669C117.457 178.082 113.285 178.8 108.517 178.8V180.8C113.483 180.8 117.911 180.052 121.783 178.531L121.052 176.669ZM158.527 179L157.605 179.387L157.862 180H158.527V179ZM135.927 125.2V124.2H134.422L135.005 125.587L135.927 125.2ZM152.027 125.2L152.953 124.824L152.7 124.2H152.027V125.2ZM170.827 171.5V172.5H172.312L171.753 171.124L170.827 171.5ZM162.827 171.5L161.905 171.112L161.32 172.5H162.827V171.5ZM182.327 125.2V124.2H181.663L181.405 124.812L182.327 125.2ZM197.327 125.2L198.248 125.589L198.834 124.2H197.327V125.2ZM174.627 179V180H175.29L175.548 179.389L174.627 179ZM159.449 178.613L136.849 124.813L135.005 125.587L157.605 179.387L159.449 178.613ZM135.927 126.2H152.027V124.2H135.927V126.2ZM151.1 125.576L169.9 171.876L171.753 171.124L152.953 124.824L151.1 125.576ZM170.827 170.5H162.827V172.5H170.827V170.5ZM163.748 171.888L183.248 125.588L181.405 124.812L161.905 171.112L163.748 171.888ZM182.327 126.2H197.327V124.2H182.327V126.2ZM196.405 124.811L173.705 178.611L175.548 179.389L198.248 125.589L196.405 124.811ZM174.627 178H158.527V180H174.627V178ZM212.727 176.2L212.265 177.087L212.27 177.089L212.727 176.2ZM202.027 166.4L201.171 166.917L201.175 166.923L202.027 166.4ZM201.927 137.8L201.071 137.283L201.069 137.288L201.927 137.8ZM212.227 128L212.701 128.881L212.712 128.875L212.227 128ZM241.127 127.8L240.652 128.68L240.661 128.684L240.669 128.689L241.127 127.8ZM251.227 137.4L250.365 137.906L250.369 137.912L251.227 137.4ZM254.827 154.4L255.823 154.491L255.824 154.483L254.827 154.4ZM254.627 156.5V157.5H255.532L255.622 156.6L254.627 156.5ZM210.927 156.5H209.927V157.5H210.927V156.5ZM210.927 147.4V146.4H209.927V147.4H210.927ZM246.427 147.4L246.838 148.312L246.427 146.4V147.4ZM240.427 150.1H239.427V151.647L240.838 151.012L240.427 150.1ZM238.727 142.8L237.851 143.281L238.727 142.8ZM234.027 138L233.513 138.857L233.524 138.864L233.534 138.87L234.027 138ZM219.927 138L220.42 138.87L220.429 138.865L219.927 138ZM215.227 142.9L216.104 143.381L216.11 143.369L215.227 142.9ZM215.427 160.5L214.554 160.988L214.563 161.003L214.572 161.018L215.427 160.5ZM220.927 165.6L220.47 166.489L220.485 166.497L220.5 166.504L220.927 165.6ZM236.827 166L236.461 165.07L236.451 165.074L236.827 166ZM242.827 162.1L243.562 161.422L242.87 160.671L242.134 161.38L242.827 162.1ZM251.127 171.1L251.878 171.761L252.474 171.085L251.862 170.422L251.127 171.1ZM241.827 177.6L242.193 178.531L242.2 178.528L242.207 178.525L241.827 177.6ZM228.927 178.8C222.926 178.8 217.688 177.627 213.185 175.311L212.27 177.089C217.1 179.573 222.662 180.8 228.927 180.8V178.8ZM213.19 175.313C208.739 172.991 205.312 169.845 202.88 165.877L201.175 166.923C203.809 171.221 207.516 174.609 212.265 177.087L213.19 175.313ZM202.884 165.883C200.452 161.853 199.227 157.268 199.227 152.1H197.227C197.227 157.599 198.536 162.547 201.171 166.916L202.884 165.883ZM199.227 152.1C199.227 146.858 200.423 142.273 202.786 138.312L201.069 137.288C198.499 141.594 197.227 146.542 197.227 152.1H199.227ZM202.784 138.316C205.224 134.27 208.525 131.129 212.701 128.88L211.753 127.12C207.263 129.537 203.697 132.93 201.071 137.284L202.784 138.316ZM212.712 128.875C216.882 126.565 221.612 125.4 226.927 125.4V123.4C221.309 123.4 216.239 124.635 211.743 127.125L212.712 128.875ZM226.927 125.4C232.046 125.4 236.613 126.5 240.652 128.68L241.602 126.92C237.242 124.567 232.342 123.4 226.927 123.4V125.4ZM240.669 128.689C244.765 130.801 247.993 133.867 250.365 137.906L252.09 136.894C249.529 132.533 246.023 129.199 241.586 126.911L240.669 128.689ZM250.369 137.912C252.726 141.862 253.927 146.643 253.927 152.3H255.927C255.927 146.357 254.663 141.205 252.086 136.888L250.369 137.912ZM253.927 152.3C253.927 152.865 253.896 153.536 253.831 154.317L255.824 154.483C255.892 153.664 255.927 152.935 255.927 152.3H253.927ZM253.831 154.309C253.765 155.04 253.699 155.737 253.632 156.4L255.622 156.6C255.689 155.93 255.756 155.227 255.823 154.491L253.831 154.309ZM254.627 155.5H210.927V157.5H254.627V155.5ZM211.927 156.5V147.4H209.927V156.5H211.927ZM210.927 148.4H246.427V146.4H210.927V148.4ZM246.017 146.488L240.017 149.188L240.838 151.012L246.838 148.312L246.017 146.488ZM241.427 150.1C241.427 147.163 240.832 144.559 239.604 142.319L237.851 143.281C238.889 145.175 239.427 147.436 239.427 150.1H241.427ZM239.604 142.319C238.384 140.094 236.686 138.357 234.52 137.13L233.534 138.87C235.368 139.909 236.804 141.373 237.851 143.281L239.604 142.319ZM234.542 137.143C232.365 135.837 229.849 135.2 227.027 135.2V137.2C229.539 137.2 231.689 137.763 233.513 138.857L234.542 137.143ZM227.027 135.2C224.205 135.2 221.662 135.837 219.425 137.135L220.429 138.865C222.326 137.763 224.516 137.2 227.027 137.2V135.2ZM219.434 137.13C217.26 138.362 215.562 140.138 214.344 142.431L216.11 143.369C217.159 141.395 218.594 139.905 220.42 138.87L219.434 137.13ZM214.351 142.419C213.121 144.662 212.527 147.301 212.527 150.3H214.527C214.527 147.565 215.067 145.271 216.104 143.381L214.351 142.419ZM212.527 150.3V152.7H214.527V150.3H212.527ZM212.527 152.7C212.527 155.782 213.194 158.554 214.554 160.988L216.3 160.012C215.127 157.913 214.527 155.485 214.527 152.7H212.527ZM214.572 161.018C216.003 163.38 217.976 165.207 220.47 166.489L221.385 164.711C219.212 163.593 217.518 162.02 216.283 159.982L214.572 161.018ZM220.5 166.504C223.058 167.712 226.01 168.3 229.327 168.3V166.3C226.245 166.3 223.596 165.754 221.354 164.696L220.5 166.504ZM229.327 168.3C232.293 168.3 234.925 167.852 237.204 166.926L236.451 165.074C234.463 165.881 232.096 166.3 229.327 166.3V168.3ZM237.194 166.93C239.522 166.013 241.632 164.639 243.521 162.82L242.134 161.38C240.423 163.027 238.532 164.254 236.461 165.07L237.194 166.93ZM242.092 162.778L250.392 171.778L251.862 170.422L243.562 161.422L242.092 162.778ZM250.377 170.439C248.02 173.114 245.05 175.195 241.447 176.675L242.207 178.525C246.071 176.938 249.301 174.686 251.878 171.761L250.377 170.439ZM241.462 176.669C237.867 178.082 233.695 178.8 228.927 178.8V180.8C233.893 180.8 238.321 180.052 242.193 178.531L241.462 176.669ZM265.313 179H264.313V180H265.313V179ZM265.313 104.8V103.8H264.313V104.8H265.313ZM280.913 104.8H281.913V103.8H280.913V104.8ZM280.913 179V180H281.913V179H280.913ZM266.313 179V104.8H264.313V179H266.313ZM265.313 105.8H280.913V103.8H265.313V105.8ZM279.913 104.8V179H281.913V104.8H279.913ZM280.913 178H265.313V180H280.913V178ZM305.691 176.2L305.213 177.078L305.218 177.081L305.691 176.2ZM295.191 166.4L294.335 166.916L294.34 166.925L294.345 166.932L295.191 166.4ZM295.191 137.8L294.341 137.274L294.339 137.277L295.191 137.8ZM305.691 128L306.16 128.883L306.165 128.881L305.691 128ZM336.191 128L335.718 128.881L335.728 128.886L336.191 128ZM346.691 166.4L347.544 166.923L347.548 166.916L346.691 166.4ZM336.191 176.2L335.718 175.319L336.191 176.2ZM327.991 165.2L328.494 166.065L327.991 165.2ZM332.891 160.1L333.769 160.579L333.775 160.568L332.891 160.1ZM332.891 144.1L332.014 144.579L332.891 144.1ZM327.991 139L327.489 139.865L327.991 139ZM313.991 139L314.494 139.865L313.991 139ZM308.991 144.1L308.125 143.601L308.119 143.611L308.114 143.621L308.991 144.1ZM308.991 160.1L308.108 160.568L308.116 160.584L308.125 160.599L308.991 160.1ZM313.991 165.2L314.494 164.335L313.991 165.2ZM320.991 178.8C315.401 178.8 310.468 177.631 306.165 175.319L305.218 177.081C309.848 179.569 315.115 180.8 320.991 180.8V178.8ZM306.17 175.322C301.916 173.002 298.544 169.852 296.038 165.868L294.345 166.932C297.038 171.214 300.667 174.598 305.213 177.078L306.17 175.322ZM296.048 165.883C293.617 161.853 292.391 157.268 292.391 152.1H290.391C290.391 157.599 291.7 162.547 294.335 166.916L296.048 165.883ZM292.391 152.1C292.391 146.863 293.618 142.281 296.044 138.323L294.339 137.277C291.698 141.585 290.391 146.537 290.391 152.1H292.391ZM296.042 138.326C298.548 134.278 301.915 131.134 306.16 128.883L305.223 127.117C300.668 129.532 297.035 132.922 294.341 137.274L296.042 138.326ZM306.165 128.881C310.468 126.569 315.401 125.4 320.991 125.4V123.4C315.115 123.4 309.848 124.631 305.218 127.119L306.165 128.881ZM320.991 125.4C326.513 125.4 331.413 126.568 335.718 128.881L336.665 127.119C332.036 124.632 326.804 123.4 320.991 123.4V125.4ZM335.728 128.886C340.041 131.139 343.404 134.25 345.839 138.223L347.544 137.177C344.912 132.884 341.275 129.527 336.654 127.114L335.728 128.886ZM345.839 138.223C348.264 142.179 349.491 146.794 349.491 152.1H351.491C351.491 146.473 350.186 141.487 347.544 137.177L345.839 138.223ZM349.491 152.1C349.491 157.268 348.266 161.853 345.835 165.884L347.548 166.916C350.183 162.547 351.491 157.599 351.491 152.1H349.491ZM345.839 165.877C343.402 169.853 340.036 172.999 335.718 175.319L336.665 177.081C341.28 174.601 344.914 171.214 347.544 166.923L345.839 165.877ZM335.718 175.319C331.413 177.632 326.513 178.8 320.991 178.8V180.8C326.804 180.8 332.036 179.568 336.665 177.081L335.718 175.319ZM320.991 168C323.752 168 326.261 167.361 328.494 166.065L327.489 164.335C325.588 165.439 323.431 166 320.991 166V168ZM328.494 166.065C330.726 164.768 332.486 162.931 333.769 160.579L332.014 159.621C330.897 161.669 329.39 163.232 327.489 164.335L328.494 166.065ZM333.775 160.568C335.065 158.131 335.691 155.298 335.691 152.1H333.691C333.691 155.035 333.118 157.535 332.008 159.632L333.775 160.568ZM335.691 152.1C335.691 148.841 335.067 146 333.769 143.621L332.014 144.579C333.116 146.6 333.691 149.093 333.691 152.1H335.691ZM333.769 143.621C332.486 141.269 330.726 139.432 328.494 138.135L327.489 139.865C329.39 140.968 330.897 142.531 332.014 144.579L333.769 143.621ZM328.494 138.135C326.261 136.839 323.752 136.2 320.991 136.2V138.2C323.431 138.2 325.588 138.761 327.489 139.865L328.494 138.135ZM320.991 136.2C318.231 136.2 315.722 136.839 313.489 138.135L314.494 139.865C316.394 138.761 318.552 138.2 320.991 138.2V136.2ZM313.489 138.135C311.262 139.429 309.473 141.259 308.125 143.601L309.858 144.599C311.043 142.541 312.588 140.971 314.494 139.865L313.489 138.135ZM308.114 143.621C306.816 146 306.191 148.841 306.191 152.1H308.191C308.191 149.093 308.767 146.6 309.869 144.579L308.114 143.621ZM306.191 152.1C306.191 155.298 306.818 158.131 308.108 160.568L309.875 159.632C308.765 157.535 308.191 155.035 308.191 152.1H306.191ZM308.125 160.599C309.473 162.941 311.262 164.771 313.489 166.065L314.494 164.335C312.588 163.229 311.043 161.659 309.858 159.601L308.125 160.599ZM313.489 166.065C315.722 167.361 318.231 168 320.991 168V166C318.552 166 316.394 165.439 314.494 164.335L313.489 166.065ZM380.819 176.8L381.326 175.938L380.819 176.8ZM372.819 167.7L371.907 168.112L371.911 168.121L371.916 168.129L372.819 167.7ZM372.719 136.5L373.633 136.905L372.719 136.5ZM380.519 127.4L380.012 126.538L380.519 127.4ZM406.319 127.9L405.815 128.764L405.823 128.769L405.832 128.773L406.319 127.9ZM415.919 137.5L415.048 137.992L415.054 138.002L415.919 137.5ZM415.919 166.8L415.054 166.298L415.048 166.308L415.919 166.8ZM406.319 176.4L405.832 175.527L405.826 175.53L406.319 176.4ZM360.919 198.4H359.919V199.4H360.919V198.4ZM360.919 125.2V124.2H359.919V125.2H360.919ZM375.819 125.2H376.819V124.2H375.819V125.2ZM375.819 136.2L376.819 136.219L376.819 136.209V136.2H375.819ZM375.519 152.2L374.519 152.181L374.518 152.222L374.521 152.263L375.519 152.2ZM376.519 168.1H377.519V168.069L377.517 168.037L376.519 168.1ZM376.519 198.4V199.4H377.519V198.4H376.519ZM396.919 165.2L396.417 164.335L396.41 164.339L396.404 164.342L396.919 165.2ZM401.819 160.1L400.946 159.612L400.941 159.621L401.819 160.1ZM401.819 144.1L400.941 144.579L400.946 144.589L400.952 144.599L401.819 144.1ZM396.919 139L396.404 139.857L396.41 139.861L396.417 139.865L396.919 139ZM383.019 139L383.521 139.865L383.019 139ZM378.119 144.1L378.997 144.579L378.119 144.1ZM378.119 160.1L377.235 160.568L377.241 160.579L378.119 160.1ZM383.019 165.2L383.521 164.335L383.019 165.2ZM392.719 178.8C388.337 178.8 384.55 177.835 381.326 175.938L380.312 177.662C383.887 179.765 388.034 180.8 392.719 180.8V178.8ZM381.326 175.938C378.122 174.053 375.582 171.183 373.722 167.271L371.916 168.129C373.922 172.35 376.716 175.547 380.312 177.662L381.326 175.938ZM373.73 167.288C371.94 163.324 371.019 158.276 371.019 152.1H369.019C369.019 158.458 369.964 163.809 371.907 168.112L373.73 167.288ZM371.019 152.1C371.019 145.851 371.908 140.802 373.633 136.905L371.804 136.095C369.929 140.331 369.019 145.682 369.019 152.1H371.019ZM373.633 136.905C375.36 133.004 377.829 130.143 381.026 128.262L380.012 126.538C376.409 128.657 373.678 131.863 371.804 136.095L373.633 136.905ZM381.026 128.262C384.244 126.369 388.128 125.4 392.719 125.4V123.4C387.843 123.4 383.594 124.431 380.012 126.538L381.026 128.262ZM392.719 125.4C397.626 125.4 401.982 126.528 405.815 128.764L406.823 127.036C402.656 124.605 397.945 123.4 392.719 123.4V125.4ZM405.832 128.773C409.735 130.949 412.803 134.015 415.048 137.992L416.79 137.008C414.368 132.718 411.036 129.385 406.806 127.027L405.832 128.773ZM415.054 138.002C417.351 141.959 418.519 146.646 418.519 152.1H420.519C420.519 146.354 419.286 141.308 416.784 136.998L415.054 138.002ZM418.519 152.1C418.519 157.623 417.35 162.343 415.054 166.298L416.784 167.302C419.287 162.99 420.519 157.91 420.519 152.1H418.519ZM415.048 166.308C412.803 170.285 409.735 173.351 405.832 175.527L406.806 177.273C411.036 174.915 414.368 171.582 416.79 167.292L415.048 166.308ZM405.826 175.53C401.991 177.703 397.631 178.8 392.719 178.8V180.8C397.94 180.8 402.646 179.63 406.812 177.27L405.826 175.53ZM361.919 198.4V125.2H359.919V198.4H361.919ZM360.919 126.2H375.819V124.2H360.919V126.2ZM374.819 125.2V136.2H376.819V125.2H374.819ZM374.819 136.181L374.519 152.181L376.519 152.219L376.819 136.219L374.819 136.181ZM374.521 152.263L375.521 168.163L377.517 168.037L376.517 152.137L374.521 152.263ZM375.519 168.1V198.4H377.519V168.1H375.519ZM376.519 197.4H360.919V199.4H376.519V197.4ZM390.019 168C392.779 168 395.26 167.361 397.433 166.057L396.404 164.342C394.577 165.439 392.459 166 390.019 166V168ZM397.421 166.065C399.654 164.768 401.414 162.931 402.697 160.579L400.941 159.621C399.824 161.669 398.317 163.232 396.417 164.335L397.421 166.065ZM402.692 160.588C404.056 158.147 404.719 155.306 404.719 152.1H402.719C402.719 155.027 402.115 157.52 400.946 159.612L402.692 160.588ZM404.719 152.1C404.719 148.832 404.058 145.985 402.685 143.601L400.952 144.599C402.113 146.615 402.719 149.101 402.719 152.1H404.719ZM402.697 143.621C401.414 141.269 399.654 139.432 397.421 138.135L396.417 139.865C398.317 140.968 399.824 142.531 400.941 144.579L402.697 143.621ZM397.433 138.143C395.26 136.839 392.779 136.2 390.019 136.2V138.2C392.459 138.2 394.577 138.761 396.404 139.857L397.433 138.143ZM390.019 136.2C387.258 136.2 384.749 136.839 382.517 138.135L383.521 139.865C385.422 138.761 387.579 138.2 390.019 138.2V136.2ZM382.517 138.135C380.284 139.432 378.524 141.269 377.241 143.621L378.997 144.579C380.113 142.531 381.62 140.968 383.521 139.865L382.517 138.135ZM377.241 143.621C375.943 146 375.319 148.841 375.319 152.1H377.319C377.319 149.093 377.894 146.6 378.997 144.579L377.241 143.621ZM375.319 152.1C375.319 155.298 375.945 158.131 377.235 160.568L379.003 159.632C377.892 157.535 377.319 155.035 377.319 152.1H375.319ZM377.241 160.579C378.524 162.931 380.284 164.768 382.517 166.065L383.521 164.335C381.62 163.232 380.113 161.669 378.997 159.621L377.241 160.579ZM382.517 166.065C384.749 167.361 387.258 168 390.019 168V166C387.579 166 385.422 165.439 383.521 164.335L382.517 166.065ZM510.162 127L509.693 127.883L509.704 127.889L509.714 127.894L510.162 127ZM517.962 134.8L517.078 135.267L517.083 135.277L517.088 135.287L517.962 134.8ZM520.862 179V180H521.862V179H520.862ZM505.262 179H504.262V180H505.262V179ZM502.562 141L503.316 140.343L502.562 141ZM488.862 139.5L489.347 140.374L489.36 140.367L489.372 140.36L488.862 139.5ZM484.662 144.1L485.562 144.536L484.662 144.1ZM483.162 179V180H484.162V179H483.162ZM467.562 179H466.562V180H467.562V179ZM464.862 141L464.096 141.643L464.102 141.65L464.108 141.657L464.862 141ZM451.262 139.5L451.747 140.374L451.76 140.367L451.772 140.36L451.262 139.5ZM447.062 144.1L447.962 144.536L447.062 144.1ZM445.562 179V180H446.562V179H445.562ZM429.962 179H428.962V180H429.962V179ZM429.962 125.2V124.2H428.962V125.2H429.962ZM444.862 125.2H445.862V124.2H444.862V125.2ZM444.862 139.9L444.024 140.446L445.862 143.268V139.9H444.862ZM442.062 135.6L441.171 135.146L440.908 135.661L441.224 136.146L442.062 135.6ZM449.962 127.3L450.443 128.177L450.449 128.173L449.962 127.3ZM474.662 128.2L474.093 129.023L474.102 129.029L474.11 129.034L474.662 128.2ZM482.062 139.6L481.799 140.565L483.417 141.006L483.035 139.372L482.062 139.6ZM476.562 138.1L475.643 137.706L475.19 138.762L476.299 139.065L476.562 138.1ZM485.162 128.1L484.637 127.249L484.63 127.253L485.162 128.1ZM498.862 125.4C502.99 125.4 506.591 126.238 509.693 127.883L510.63 126.117C507.199 124.296 503.267 123.4 498.862 123.4V125.4ZM509.714 127.894C512.847 129.461 515.301 131.904 517.078 135.267L518.846 134.333C516.889 130.629 514.143 127.872 510.609 126.106L509.714 127.894ZM517.088 135.287C518.913 138.559 519.862 142.843 519.862 148.2H521.862C521.862 142.624 520.877 137.974 518.835 134.313L517.088 135.287ZM519.862 148.2V179H521.862V148.2H519.862ZM520.862 178H505.262V180H520.862V178ZM506.262 179V150.6H504.262V179H506.262ZM506.262 150.6C506.262 146.158 505.344 142.672 503.316 140.343L501.808 141.657C503.379 143.461 504.262 146.375 504.262 150.6H506.262ZM503.316 140.343C501.289 138.016 498.457 136.9 494.962 136.9V138.9C498 138.9 500.234 139.85 501.808 141.657L503.316 140.343ZM494.962 136.9C492.531 136.9 490.319 137.474 488.352 138.64L489.372 140.36C491.004 139.393 492.859 138.9 494.962 138.9V136.9ZM488.376 138.626C486.376 139.737 484.841 141.435 483.762 143.664L485.562 144.536C486.483 142.632 487.748 141.263 489.347 140.374L488.376 138.626ZM483.762 143.664C482.675 145.909 482.162 148.705 482.162 152H484.162C484.162 148.895 484.648 146.424 485.562 144.536L483.762 143.664ZM482.162 152V179H484.162V152H482.162ZM483.162 178H467.562V180H483.162V178ZM468.562 179V150.6H466.562V179H468.562ZM468.562 150.6C468.562 146.158 467.644 142.672 465.616 140.343L464.108 141.657C465.679 143.461 466.562 146.375 466.562 150.6H468.562ZM465.628 140.357C463.665 138.016 460.855 136.9 457.362 136.9V138.9C460.401 138.9 462.592 139.85 464.096 141.643L465.628 140.357ZM457.362 136.9C454.931 136.9 452.719 137.474 450.752 138.64L451.772 140.36C453.404 139.393 455.259 138.9 457.362 138.9V136.9ZM450.776 138.626C448.776 139.737 447.241 141.435 446.162 143.664L447.962 144.536C448.883 142.632 450.148 141.263 451.747 140.374L450.776 138.626ZM446.162 143.664C445.075 145.909 444.562 148.705 444.562 152H446.562C446.562 148.895 447.048 146.424 447.962 144.536L446.162 143.664ZM444.562 152V179H446.562V152H444.562ZM445.562 178H429.962V180H445.562V178ZM430.962 179V125.2H428.962V179H430.962ZM429.962 126.2H444.862V124.2H429.962V126.2ZM443.862 125.2V139.9H445.862V125.2H443.862ZM445.7 139.354L442.9 135.054L441.224 136.146L444.024 140.446L445.7 139.354ZM442.953 136.054C444.734 132.554 447.23 129.941 450.443 128.177L449.48 126.423C445.894 128.393 443.122 131.312 441.171 135.146L442.953 136.054ZM450.449 128.173C453.751 126.332 457.513 125.4 461.762 125.4V123.4C457.21 123.4 453.106 124.402 449.475 126.427L450.449 128.173ZM461.762 125.4C466.515 125.4 470.611 126.617 474.093 129.023L475.23 127.377C471.379 124.716 466.875 123.4 461.762 123.4V125.4ZM474.11 129.034C477.593 131.335 479.935 134.896 481.088 139.828L483.035 139.372C481.788 134.038 479.197 129.998 475.213 127.366L474.11 129.034ZM482.325 138.635L476.825 137.135L476.299 139.065L481.799 140.565L482.325 138.635ZM477.481 138.494C479.199 134.484 481.929 131.308 485.693 128.947L484.63 127.253C480.528 129.826 477.524 133.316 475.643 137.706L477.481 138.494ZM485.687 128.951C489.514 126.591 493.896 125.4 498.862 125.4V123.4C493.561 123.4 488.809 124.676 484.637 127.249L485.687 128.951ZM545.735 176.2L545.273 177.087L545.278 177.089L545.735 176.2ZM535.035 166.4L534.179 166.917L534.183 166.923L535.035 166.4ZM534.935 137.8L534.079 137.283L534.076 137.288L534.935 137.8ZM545.235 128L545.709 128.881L545.72 128.875L545.235 128ZM574.135 127.8L573.66 128.68L573.669 128.684L573.677 128.689L574.135 127.8ZM584.235 137.4L583.373 137.906L583.376 137.912L584.235 137.4ZM587.835 154.4L588.831 154.491L588.832 154.483L587.835 154.4ZM587.635 156.5V157.5H588.54L588.63 156.6L587.635 156.5ZM543.935 156.5H542.935V157.5H543.935V156.5ZM543.935 147.4V146.4H542.935V147.4H543.935ZM579.435 147.4L579.846 148.312L579.435 146.4V147.4ZM573.435 150.1H572.435V151.647L573.846 151.012L573.435 150.1ZM571.735 142.8L570.858 143.281L571.735 142.8ZM567.035 138L566.521 138.857L566.531 138.864L566.542 138.87L567.035 138ZM552.935 138L553.428 138.87L553.437 138.865L552.935 138ZM548.235 142.9L549.112 143.381L549.118 143.369L548.235 142.9ZM548.435 160.5L547.562 160.988L547.571 161.003L547.58 161.018L548.435 160.5ZM553.935 165.6L553.478 166.489L553.493 166.497L553.508 166.504L553.935 165.6ZM569.835 166L569.469 165.07L569.459 165.074L569.835 166ZM575.835 162.1L576.57 161.422L575.878 160.671L575.142 161.38L575.835 162.1ZM584.135 171.1L584.885 171.761L585.481 171.085L584.87 170.422L584.135 171.1ZM574.835 177.6L575.201 178.531L575.208 178.528L575.215 178.525L574.835 177.6ZM561.935 178.8C555.934 178.8 550.696 177.627 546.193 175.311L545.278 177.089C550.108 179.573 555.67 180.8 561.935 180.8V178.8ZM546.198 175.313C541.747 172.991 538.32 169.845 535.888 165.877L534.183 166.923C536.817 171.221 540.524 174.609 545.273 177.087L546.198 175.313ZM535.891 165.883C533.46 161.853 532.235 157.268 532.235 152.1H530.235C530.235 157.599 531.543 162.547 534.179 166.916L535.891 165.883ZM532.235 152.1C532.235 146.858 533.431 142.273 535.794 138.312L534.076 137.288C531.506 141.594 530.235 146.542 530.235 152.1H532.235ZM535.791 138.316C538.232 134.27 541.533 131.129 545.709 128.88L544.761 127.12C540.271 129.537 536.705 132.93 534.079 137.284L535.791 138.316ZM545.72 128.875C549.89 126.565 554.62 125.4 559.935 125.4V123.4C554.317 123.4 549.247 124.635 544.751 127.125L545.72 128.875ZM559.935 125.4C565.054 125.4 569.621 126.5 573.66 128.68L574.61 126.92C570.25 124.567 565.35 123.4 559.935 123.4V125.4ZM573.677 128.689C577.773 130.801 581 133.867 583.373 137.906L585.097 136.894C582.536 132.533 579.031 129.199 574.593 126.911L573.677 128.689ZM583.376 137.912C585.733 141.862 586.935 146.643 586.935 152.3H588.935C588.935 146.357 587.67 141.205 585.094 136.888L583.376 137.912ZM586.935 152.3C586.935 152.865 586.904 153.536 586.839 154.317L588.832 154.483C588.9 153.664 588.935 152.935 588.935 152.3H586.935ZM586.839 154.309C586.773 155.04 586.706 155.737 586.64 156.4L588.63 156.6C588.697 155.93 588.764 155.227 588.831 154.491L586.839 154.309ZM587.635 155.5H543.935V157.5H587.635V155.5ZM544.935 156.5V147.4H542.935V156.5H544.935ZM543.935 148.4H579.435V146.4H543.935V148.4ZM579.025 146.488L573.025 149.188L573.846 151.012L579.846 148.312L579.025 146.488ZM574.435 150.1C574.435 147.163 573.84 144.559 572.612 142.319L570.858 143.281C571.897 145.175 572.435 147.436 572.435 150.1H574.435ZM572.612 142.319C571.392 140.094 569.694 138.357 567.528 137.13L566.542 138.87C568.376 139.909 569.812 141.373 570.858 143.281L572.612 142.319ZM567.55 137.143C565.373 135.837 562.857 135.2 560.035 135.2V137.2C562.547 137.2 564.697 137.763 566.521 138.857L567.55 137.143ZM560.035 135.2C557.213 135.2 554.669 135.837 552.433 137.135L553.437 138.865C555.334 137.763 557.524 137.2 560.035 137.2V135.2ZM552.442 137.13C550.268 138.362 548.57 140.138 547.352 142.431L549.118 143.369C550.167 141.395 551.602 139.905 553.428 138.87L552.442 137.13ZM547.358 142.419C546.128 144.662 545.535 147.301 545.535 150.3H547.535C547.535 147.565 548.075 145.271 549.112 143.381L547.358 142.419ZM545.535 150.3V152.7H547.535V150.3H545.535ZM545.535 152.7C545.535 155.782 546.202 158.554 547.562 160.988L549.308 160.012C548.135 157.913 547.535 155.485 547.535 152.7H545.535ZM547.58 161.018C549.011 163.38 550.984 165.207 553.478 166.489L554.393 164.711C552.22 163.593 550.526 162.02 549.29 159.982L547.58 161.018ZM553.508 166.504C556.066 167.712 559.017 168.3 562.335 168.3V166.3C559.253 166.3 556.604 165.754 554.362 164.696L553.508 166.504ZM562.335 168.3C565.3 168.3 567.933 167.852 570.212 166.926L569.459 165.074C567.47 165.881 565.103 166.3 562.335 166.3V168.3ZM570.202 166.93C572.53 166.013 574.64 164.639 576.529 162.82L575.142 161.38C573.43 163.027 571.54 164.254 569.469 165.07L570.202 166.93ZM575.1 162.778L583.4 171.778L584.87 170.422L576.57 161.422L575.1 162.778ZM583.385 170.439C581.028 173.114 578.058 175.195 574.455 176.675L575.215 178.525C579.079 176.938 582.309 174.686 584.885 171.761L583.385 170.439ZM574.469 176.669C570.875 178.082 566.703 178.8 561.935 178.8V180.8C566.901 180.8 571.329 180.052 575.201 178.531L574.469 176.669ZM642.421 127L641.96 127.887L641.97 127.893L641.981 127.898L642.421 127ZM650.421 134.8L649.544 135.28L649.548 135.287L650.421 134.8ZM653.321 179V180H654.321V179H653.321ZM637.721 179H636.721V180H637.721V179ZM634.821 141L634.079 141.67L634.085 141.677L634.091 141.683L634.821 141ZM620.121 139.5L620.581 140.388L620.592 140.382L620.121 139.5ZM615.521 144.2L614.638 143.731L614.632 143.742L614.627 143.753L615.521 144.2ZM613.921 179V180H614.921V179H613.921ZM598.321 179H597.321V180H598.321V179ZM598.321 125.2V124.2H597.321V125.2H598.321ZM613.221 125.2H614.221V124.2H613.221V125.2ZM613.221 140.1L612.372 140.628L614.221 143.6V140.1H613.221ZM610.421 135.6L609.54 135.127L609.266 135.637L609.572 136.128L610.421 135.6ZM618.721 127.3L619.194 128.181L618.721 127.3ZM631.021 125.4C635.149 125.4 638.787 126.238 641.96 127.887L642.882 126.113C639.388 124.296 635.426 123.4 631.021 123.4V125.4ZM641.981 127.898C645.183 129.468 647.703 131.916 649.544 135.28L651.298 134.32C649.273 130.618 646.459 127.866 642.861 126.102L641.981 127.898ZM649.548 135.287C651.373 138.559 652.321 142.843 652.321 148.2H654.321C654.321 142.624 653.336 137.974 651.294 134.313L649.548 135.287ZM652.321 148.2V179H654.321V148.2H652.321ZM653.321 178H637.721V180H653.321V178ZM638.721 179V150.6H636.721V179H638.721ZM638.721 150.6C638.721 146.144 637.73 142.646 635.551 140.317L634.091 141.683C635.778 143.487 636.721 146.39 636.721 150.6H638.721ZM635.563 140.33C633.462 138.004 630.496 136.9 626.821 136.9V138.9C630.079 138.9 632.447 139.863 634.079 141.67L635.563 140.33ZM626.821 136.9C624.205 136.9 621.808 137.467 619.651 138.618L620.592 140.382C622.434 139.4 624.504 138.9 626.821 138.9V136.9ZM619.662 138.612C617.528 139.715 615.856 141.439 614.638 143.731L616.404 144.669C617.453 142.695 618.847 141.285 620.581 140.388L619.662 138.612ZM614.627 143.753C613.469 146.069 612.921 148.969 612.921 152.4H614.921C614.921 149.164 615.44 146.598 616.416 144.647L614.627 143.753ZM612.921 152.4V179H614.921V152.4H612.921ZM613.921 178H598.321V180H613.921V178ZM599.321 179V125.2H597.321V179H599.321ZM598.321 126.2H613.221V124.2H598.321V126.2ZM612.221 125.2V140.1H614.221V125.2H612.221ZM614.07 139.572L611.27 135.072L609.572 136.128L612.372 140.628L614.07 139.572ZM611.302 136.073C613.142 132.646 615.767 130.021 619.194 128.181L618.248 126.419C614.475 128.445 611.566 131.354 609.54 135.127L611.302 136.073ZM619.194 128.181C622.631 126.335 626.565 125.4 631.021 125.4V123.4C626.277 123.4 622.011 124.398 618.248 126.419L619.194 128.181ZM674.662 175L673.983 175.734L673.99 175.741L674.662 175ZM669.362 113.3V112.3H668.362V113.3H669.362ZM684.962 113.3H685.962V112.3H684.962V113.3ZM686.762 165.6L686.036 166.288L686.045 166.298L686.055 166.307L686.762 165.6ZM697.962 165.4L698.896 165.043L698.417 163.788L697.352 164.607L697.962 165.4ZM702.162 176.4L702.74 177.216L703.373 176.768L703.096 176.043L702.162 176.4ZM696.362 179L696.597 179.972L696.607 179.969L696.618 179.967L696.362 179ZM661.062 138.4H660.062V139.4H661.062V138.4ZM661.062 126.4V125.4H660.062V126.4H661.062ZM698.362 126.4H699.362V125.4H698.362V126.4ZM698.362 138.4V139.4H699.362V138.4H698.362ZM689.462 178.8C683.293 178.8 678.629 177.244 675.333 174.259L673.99 175.741C677.761 179.156 682.963 180.8 689.462 180.8V178.8ZM675.341 174.266C672.073 171.245 670.362 166.718 670.362 160.5H668.362C668.362 167.082 670.183 172.222 673.983 175.734L675.341 174.266ZM670.362 160.5V113.3H668.362V160.5H670.362ZM669.362 114.3H684.962V112.3H669.362V114.3ZM683.962 113.3V160.3H685.962V113.3H683.962ZM683.962 160.3C683.962 162.743 684.612 164.785 686.036 166.288L687.488 164.912C686.511 163.882 685.962 162.39 685.962 160.3H683.962ZM686.055 166.307C687.482 167.734 689.391 168.4 691.662 168.4V166.4C689.799 166.4 688.442 165.866 687.469 164.893L686.055 166.307ZM691.662 168.4C694.319 168.4 696.641 167.677 698.571 166.193L697.352 164.607C695.816 165.789 693.938 166.4 691.662 166.4V168.4ZM697.028 165.757L701.227 176.757L703.096 176.043L698.896 165.043L697.028 165.757ZM701.584 175.584C700.098 176.636 698.279 177.458 696.106 178.033L696.618 179.967C698.978 179.342 701.025 178.43 702.74 177.216L701.584 175.584ZM696.126 178.028C694.008 178.542 691.787 178.8 689.462 178.8V180.8C691.936 180.8 694.316 180.525 696.597 179.972L696.126 178.028ZM662.062 138.4V126.4H660.062V138.4H662.062ZM661.062 127.4H698.362V125.4H661.062V127.4ZM697.362 126.4V138.4H699.362V126.4H697.362ZM698.362 137.4H661.062V139.4H698.362V137.4Z" fill="#0D0D04" fill-opacity="0.06"/>
</svg>
